<?xml version="1.0" encoding="UTF-8" standalone="no"?>
<!-- Created with Inkscape (http://www.inkscape.org/) -->

<svg
   xmlns:dc="http://purl.org/dc/elements/1.1/"
   xmlns:cc="http://creativecommons.org/ns#"
   xmlns:rdf="http://www.w3.org/1999/02/22-rdf-syntax-ns#"
   xmlns:svg="http://www.w3.org/2000/svg"
   xmlns="http://www.w3.org/2000/svg"
   xmlns:sodipodi="http://sodipodi.sourceforge.net/DTD/sodipodi-0.dtd"
   xmlns:inkscape="http://www.inkscape.org/namespaces/inkscape"
   width="1000"
   height="583.14484"
   viewBox="0 0 264.58333 154.29041"
   version="1.1"
   id="svg8"
   inkscape:version="0.92.4 (5da689c313, 2019-01-14)"
   sodipodi:docname="A.svg">
  <defs
     id="defs2">
    <clipPath
       clipPathUnits="userSpaceOnUse"
       id="clipPath23">
      <path
         d="M 0,0 H 595.276 V 841.89 H 0 Z"
         id="path21"
         inkscape:connector-curvature="0" />
    </clipPath>
    <clipPath
       clipPathUnits="userSpaceOnUse"
       id="clipPath3011">
      <path
         d="M 0,0 H 612 V 792 H 0 Z"
         id="path3009"
         inkscape:connector-curvature="0" />
    </clipPath>
    <clipPath
       clipPathUnits="userSpaceOnUse"
       id="clipPath10620">
      <path
         d="m 509.687,715.465 h 79.919 v 51.189 h -79.919 z"
         id="path10618"
         inkscape:connector-curvature="0" />
    </clipPath>
    <clipPath
       clipPathUnits="userSpaceOnUse"
       id="clipPath10630">
      <path
         d="M 0,0 H 620.787 V 792 H 0 Z"
         id="path10628"
         inkscape:connector-curvature="0" />
    </clipPath>
    <clipPath
       clipPathUnits="userSpaceOnUse"
       id="clipPath10640">
      <path
         d="M -7.38201,-17.8058 H 1.53833 V 1.71 h -8.92034 z"
         id="path10638"
         inkscape:connector-curvature="0" />
    </clipPath>
    <clipPath
       clipPathUnits="userSpaceOnUse"
       id="clipPath10648">
      <path
         d="M 0,0 H 1 V 1 H 0 Z"
         id="path10646"
         inkscape:connector-curvature="0" />
    </clipPath>
  </defs>
  <sodipodi:namedview
     id="base"
     pagecolor="#ffffff"
     bordercolor="#666666"
     borderopacity="1.0"
     inkscape:pageopacity="0.82352941"
     inkscape:pageshadow="2"
     inkscape:zoom="0.35"
     inkscape:cx="1174.942"
     inkscape:cy="-280.12924"
     inkscape:document-units="px"
     inkscape:current-layer="layer1"
     showgrid="false"
     units="px"
     inkscape:window-width="1920"
     inkscape:window-height="1017"
     inkscape:window-x="1912"
     inkscape:window-y="-8"
     inkscape:window-maximized="1"
     inkscape:pagecheckerboard="true"
     fit-margin-top="0"
     fit-margin-left="0"
     fit-margin-right="0"
     fit-margin-bottom="0" />
  <metadata
     id="metadata5">
    <rdf:RDF>
      <cc:Work
         rdf:about="">
        <dc:format>image/svg+xml</dc:format>
        <dc:type
           rdf:resource="http://purl.org/dc/dcmitype/StillImage" />
        <dc:title></dc:title>
      </cc:Work>
    </rdf:RDF>
  </metadata>
  <g
     inkscape:label="Layer 1"
     inkscape:groupmode="layer"
     id="layer1"
     transform="translate(-208.48795,1193.3957)">
    <g
       id="g10614"
       transform="matrix(3.8019042,0,0,-3.8019042,-1744.6681,1708.1659)">
      <g
         id="g10616"
         clip-path="url(#clipPath10620)">
        <g
           id="g10622">
          <g
             id="g10624">
            <g
               id="g10626"
               clip-path="url(#clipPath10630)">
              <g
                 id="g10632"
                 transform="matrix(69.59232,0,0,40.5824,513.731,722.604)">
                <g
                   id="g10634">
                  <g
                     id="g10636"
                     clip-path="url(#clipPath10640)">
                    <g
                       id="g10642">
                      <g
                         id="g10644"
                         clip-path="url(#clipPath10648)">
                        <path
                           d="M 0,0 H 0.0184 V 1 H 0 Z"
                           style="fill:#9e9c9d;fill-opacity:1;fill-rule:nonzero;stroke:none"
                           id="path10650"
                           inkscape:connector-curvature="0" />
                        <path
                           d="M 0.1893,0.6067 0.1592,0.4623 H 0.2197 Z M 0.2473,0.3333 0.2254,0.4362 H 0.1538 L 0.1423,0.3814 C 0.1407,0.3741 0.1395,0.3675 0.1386,0.3617 0.1378,0.3559 0.1374,0.3505 0.1374,0.3456 c 0,-0.0024 0,-0.0047 2e-4,-0.0067 10e-5,-0.002 3e-4,-0.0038 8e-4,-0.0056 H 0.1133 l 0.0612,0.2853 c 0.0015,0.0072 0.0025,0.0132 0.0031,0.0181 6e-4,0.0049 9e-4,0.009 9e-4,0.0123 0,0.0036 -5e-4,0.007 -0.0014,0.0102 -9e-4,0.0033 -0.0024,0.0057 -0.0043,0.0075 H 0.2069 L 0.2802,0.3333"
                           style="fill:#0f80cc;fill-opacity:1;fill-rule:nonzero;stroke:none"
                           id="path10652"
                           inkscape:connector-curvature="0" />
                        <path
                           d="m 0.3087,0.3333 v 0.284 c 0,0.0129 -7e-4,0.0235 -0.0021,0.0317 C 0.3052,0.6572 0.3032,0.6631 0.3007,0.6667 H 0.4163 V 0.6279 C 0.414,0.6316 0.4101,0.6346 0.4046,0.6368 0.3991,0.639 0.392,0.6401 0.3833,0.6401 H 0.3395 V 0.5183 H 0.406 V 0.4901 H 0.3395 V 0.3599 h 0.0469 c 0.0086,0 0.0157,0.0011 0.0212,0.0033 0.0055,0.0022 0.0094,0.0052 0.0117,0.0089 V 0.3333"
                           style="fill:#0f80cc;fill-opacity:1;fill-rule:nonzero;stroke:none"
                           id="path10654"
                           inkscape:connector-curvature="0" />
                        <path
                           d="M 0.5677,0.3366 C 0.5576,0.3291 0.5456,0.3254 0.5319,0.3254 0.5188,0.3254 0.5067,0.3295 0.4957,0.3379 0.4846,0.3462 0.475,0.358 0.4669,0.3732 0.4588,0.3885 0.4525,0.4068 0.448,0.4282 0.4435,0.4496 0.4412,0.4735 0.4412,0.4998 0.4412,0.5261 0.4436,0.55 0.4483,0.5715 0.4531,0.593 0.4596,0.6113 0.4679,0.6267 0.4762,0.642 0.486,0.6538 0.4973,0.6621 0.5086,0.6705 0.5208,0.6746 0.5339,0.6746 0.5465,0.6746 0.5574,0.6714 0.5668,0.6647 0.5762,0.6581 0.5845,0.6489 0.5916,0.6371 L 0.5778,0.6005 C 0.5762,0.6077 0.5742,0.6142 0.5717,0.62 0.5693,0.6258 0.5663,0.6308 0.5628,0.635 0.5593,0.6391 0.5552,0.6424 0.5505,0.6447 0.5459,0.647 0.5406,0.6481 0.5348,0.6481 0.5247,0.6481 0.516,0.6444 0.5086,0.637 0.5011,0.6296 0.495,0.6194 0.4902,0.6062 0.4854,0.5931 0.4818,0.5774 0.4794,0.5593 0.477,0.5412 0.4758,0.5213 0.4758,0.4998 0.4758,0.4785 0.477,0.4589 0.4793,0.4411 0.4817,0.4233 0.4852,0.408 0.4901,0.3952 0.4949,0.3824 0.501,0.3724 0.5083,0.3652 0.5156,0.358 0.5242,0.3545 0.5341,0.3545 c 0.0061,0 0.0116,0.001 0.0166,0.0031 0.005,0.0021 0.0095,0.0047 0.0136,0.0081 0.004,0.0033 0.0077,0.0069 0.0109,0.011 0.0032,0.004 0.006,0.0079 0.0085,0.0118 l 0.01,-0.0224 C 0.5865,0.3539 0.5778,0.3441 0.5677,0.3366"
                           style="fill:#0f80cc;fill-opacity:1;fill-rule:nonzero;stroke:none"
                           id="path10656"
                           inkscape:connector-curvature="0" />
                        <path
                           d="m 0.7456,0.4998 c 0,0.021 -0.001,0.0406 -0.0031,0.0588 C 0.7405,0.5769 0.7372,0.5928 0.7329,0.6064 0.7284,0.62 0.7228,0.6307 0.7159,0.6385 0.7091,0.6464 0.7009,0.6503 0.6913,0.6503 0.6817,0.6503 0.6734,0.6464 0.6666,0.6385 0.6598,0.6307 0.6542,0.62 0.6497,0.6064 0.6454,0.5928 0.6421,0.5769 0.6401,0.5586 0.638,0.5404 0.637,0.5208 0.637,0.4998 0.637,0.4787 0.638,0.4589 0.6401,0.4407 0.6421,0.4224 0.6454,0.4066 0.6497,0.3932 0.6542,0.3797 0.6598,0.3691 0.6666,0.3614 0.6734,0.3536 0.6817,0.3497 0.6913,0.3497 c 0.0096,0 0.0178,0.0039 0.0246,0.0117 0.0069,0.0077 0.0125,0.0183 0.017,0.0318 0.0043,0.0134 0.0076,0.0292 0.0096,0.0475 0.0021,0.0182 0.0031,0.038 0.0031,0.0591 z m 0.0342,0 C 0.7798,0.4727 0.7776,0.4485 0.7733,0.4269 0.7689,0.4053 0.7628,0.3871 0.755,0.372 0.7471,0.357 0.7378,0.3455 0.7269,0.3374 0.7161,0.3294 0.7042,0.3254 0.6913,0.3254 c -0.013,0 -0.0249,0.004 -0.0357,0.012 C 0.6448,0.3455 0.6354,0.357 0.6276,0.372 0.6197,0.3871 0.6136,0.4053 0.6092,0.4269 0.6048,0.4485 0.6027,0.4727 0.6027,0.4998 c 0,0.027 0.0021,0.0513 0.0065,0.073 0.0044,0.0216 0.0105,0.04 0.0184,0.0551 0.0078,0.0151 0.0172,0.0266 0.028,0.0347 0.0108,0.008 0.0227,0.012 0.0357,0.012 0.0129,0 0.0248,-0.004 0.0356,-0.012 C 0.7378,0.6545 0.7471,0.643 0.755,0.6279 0.7628,0.6128 0.7689,0.5944 0.7733,0.5728 0.7776,0.5511 0.7798,0.5268 0.7798,0.4998"
                           style="fill:#0f80cc;fill-opacity:1;fill-rule:nonzero;stroke:none"
                           id="path10658"
                           inkscape:connector-curvature="0" />
                        <path
                           d="M 0.9691,0.3333 V 0.5854 L 0.9098,0.3704 H 0.8936 L 0.8329,0.5815 V 0.3911 c 0,-0.0069 2e-4,-0.0134 6e-4,-0.0196 3e-4,-0.0062 8e-4,-0.0118 0.0015,-0.0168 7e-4,-0.005 0.0015,-0.0094 0.0025,-0.013 C 0.8386,0.338 0.8396,0.3352 0.8408,0.3333 H 0.8147 v 0.2756 c 0,0.0069 -2e-4,0.0134 -6e-4,0.0196 -4e-4,0.0062 -9e-4,0.0118 -0.0016,0.0168 C 0.8118,0.6503 0.8109,0.6547 0.81,0.6584 0.809,0.6621 0.8079,0.6648 0.8066,0.6667 H 0.8417 L 0.9083,0.4319 0.9722,0.6667 H 1 V 0.3333"
                           style="fill:#0f80cc;fill-opacity:1;fill-rule:nonzero;stroke:none"
                           id="path10660"
                           inkscape:connector-curvature="0" />
                      </g>
                    </g>
                  </g>
                </g>
              </g>
            </g>
          </g>
        </g>
      </g>
    </g>
  </g>
</svg>
