<?xml version="1.0" encoding="UTF-8" standalone="no"?>
<!-- Created with Inkscape (http://www.inkscape.org/) -->

<svg
   xmlns:dc="http://purl.org/dc/elements/1.1/"
   xmlns:cc="http://creativecommons.org/ns#"
   xmlns:rdf="http://www.w3.org/1999/02/22-rdf-syntax-ns#"
   xmlns:svg="http://www.w3.org/2000/svg"
   xmlns="http://www.w3.org/2000/svg"
   xmlns:sodipodi="http://sodipodi.sourceforge.net/DTD/sodipodi-0.dtd"
   xmlns:inkscape="http://www.inkscape.org/namespaces/inkscape"
   width="219.68541"
   height="118.01275"
   id="svg2"
   version="1.1"
   inkscape:version="0.92.2 5c3e80d, 2017-08-06"
   sodipodi:docname="Aflac.svg">
  <defs
     id="defs4" />
  <sodipodi:namedview
     id="base"
     pagecolor="#ffffff"
     bordercolor="#666666"
     borderopacity="1.0"
     inkscape:pageopacity="0.0"
     inkscape:pageshadow="2"
     inkscape:zoom="2.8"
     inkscape:cx="134.51186"
     inkscape:cy="78.438843"
     inkscape:document-units="px"
     inkscape:current-layer="g12"
     showgrid="false"
     inkscape:window-width="1680"
     inkscape:window-height="931"
     inkscape:window-x="0"
     inkscape:window-y="1"
     inkscape:window-maximized="1"
     fit-margin-top="0"
     fit-margin-left="0"
     fit-margin-right="0"
     fit-margin-bottom="0" />
  <metadata
     id="metadata7">
    <rdf:RDF>
      <cc:Work
         rdf:about="">
        <dc:format>image/svg+xml</dc:format>
        <dc:type
           rdf:resource="http://purl.org/dc/dcmitype/StillImage" />
        <dc:title />
      </cc:Work>
    </rdf:RDF>
  </metadata>
  <g
     inkscape:label="Layer 1"
     inkscape:groupmode="layer"
     id="layer1"
     transform="translate(214.66405,-371.56997)">
    <g
       id="g10"
       transform="matrix(1.25,0,0,-1.25,-225.61864,551.75747)">
      <g
         id="g12"
         transform="scale(0.1,0.1)">
        <path
           d="m 257.574,673.145 c 2.906,13.074 5.813,13.074 15.981,14.527 2.906,0 4.355,0 4.355,4.355 0,1.453 0,2.907 -1.449,2.907 -5.813,0 -7.266,-2.907 -23.242,-2.907 -23.239,0 -29.051,2.907 -29.051,2.907 -1.449,0 -4.355,-1.454 -4.355,-4.356 0,-2.906 1.449,-2.906 7.261,-2.906 2.906,0 7.262,0 7.262,-5.813 0,-2.902 -1.449,-7.261 -1.449,-8.714 L 202.383,558.402 c -2.903,-10.168 -5.809,-10.168 -10.168,-10.168 -8.715,-1.449 -11.621,-1.449 -11.621,-5.808 0,-2.906 4.359,-2.906 4.359,-2.906 2.902,0 10.168,2.906 24.692,2.906 17.429,0 24.691,-2.906 29.05,-2.906 0,0 4.356,1.453 4.356,4.359 0,1.449 -1.453,2.906 -7.262,2.906 -1.453,0 -8.715,1.449 -8.715,7.258 0,1.453 0,4.359 1.453,10.168 l 29.047,108.934 z M 277.91,565.664 c -4.355,-13.074 -4.355,-15.976 -13.074,-17.43 -10.164,-1.449 -11.617,-1.449 -11.617,-5.808 0,-2.906 4.355,-2.906 4.355,-2.906 1.453,0 8.719,2.906 20.336,2.906 10.168,0 17.43,-2.906 18.883,-2.906 2.906,0 4.355,1.453 4.355,4.359 0,2.906 -2.902,2.906 -4.355,2.906 -8.715,0 -11.621,1.449 -11.621,7.258 0,7.262 17.43,82.793 29.051,116.199 l 50.836,-124.914 c 0,-2.902 2.906,-5.808 4.355,-5.808 2.906,0 4.359,2.906 5.813,13.07 5.808,23.238 26.144,97.316 30.5,113.293 4.359,18.883 7.261,18.883 15.976,20.336 4.36,1.453 7.262,1.453 7.262,5.808 0,1.453 0,2.907 -4.356,2.907 -1.453,0 -8.714,-2.907 -20.336,-2.907 -13.07,0 -15.976,2.907 -18.882,2.907 -1.45,0 -4.356,0 -4.356,-4.356 0,-2.906 1.453,-2.906 5.813,-4.359 11.617,0 11.617,-2.906 11.617,-5.809 0,-5.812 0,-8.715 -8.715,-45.027 -10.168,-37.766 -11.621,-42.121 -14.523,-52.289 -13.075,30.504 -40.672,98.765 -42.122,106.027 0,2.906 -1.453,4.359 -2.906,4.359 -1.453,0 -11.621,-1.453 -15.976,-1.453 -7.262,0 -11.621,1.453 -14.524,1.453 0,0 -4.359,0 -4.359,-4.359 0,-2.902 2.906,-2.902 5.808,-2.902 7.262,0 7.262,-1.453 7.262,-4.36 0,-2.902 0,-7.261 -1.449,-13.07 L 277.91,565.664 z m 142.344,33.406 c 0,-21.785 11.617,-61.004 61.004,-61.004 18.879,0 42.117,5.813 42.117,11.622 1.453,5.808 2.906,14.523 4.359,20.335 2.907,8.711 2.907,10.168 2.907,11.618 0,1.453 0,2.906 -2.907,2.906 -1.453,0 -2.906,-1.453 -4.359,-4.356 -4.355,-11.625 -15.973,-36.312 -40.668,-36.312 -23.238,0 -34.859,26.144 -34.859,50.836 0,56.644 47.929,94.406 82.793,94.406 10.168,0 10.168,-5.808 10.168,-10.164 0,-2.906 -1.457,-15.98 -1.457,-18.883 0,-2.902 0,-4.359 2.906,-4.359 2.906,0 2.906,1.457 5.812,10.168 0,2.906 5.809,21.789 5.809,26.144 0,4.356 -14.527,4.356 -18.883,4.356 -56.644,0 -114.742,-46.477 -114.742,-97.313 z m 135.078,8.715 c 0,-33.406 20.332,-69.719 58.098,-69.719 42.121,0 79.883,46.481 79.883,88.602 0,36.309 -23.239,69.715 -58.094,69.715 -40.672,0 -79.887,-39.211 -79.887,-88.598 z m 79.887,82.793 c 24.687,0 33.406,-18.883 33.406,-45.027 0,-40.672 -20.336,-101.672 -58.102,-101.672 -17.429,0 -30.5,14.523 -30.5,45.023 0,40.672 18.883,101.676 55.196,101.676 z M 784.82,606.332 c -1.453,2.906 -1.453,2.906 -4.359,5.809 11.621,4.359 49.387,20.336 49.387,52.293 0,17.425 -11.621,30.5 -34.86,30.5 -14.527,0 -23.238,-2.907 -37.765,-2.907 -15.977,0 -18.879,2.907 -24.692,2.907 -2.906,0 -5.808,-1.454 -5.808,-4.356 0,-2.906 2.902,-2.906 4.355,-2.906 5.809,0 11.621,-1.453 11.621,-7.262 0,-2.906 0,-2.906 -1.453,-8.715 l -29.047,-110.39 c -2.906,-8.715 -4.359,-11.617 -11.621,-13.071 -8.715,0 -13.074,-1.449 -13.074,-5.808 0,-2.906 4.359,-2.906 4.359,-2.906 1.45,0 7.262,2.906 20.336,2.906 23.239,0 30.5,-2.906 34.856,-2.906 1.457,0 2.906,1.453 2.906,4.359 0,2.906 -1.449,2.906 -7.262,4.355 -2.906,0 -7.261,0 -7.261,5.809 0,2.906 1.449,13.074 2.906,18.883 l 11.617,37.765 c 1.453,1.45 2.906,1.45 2.906,1.45 2.903,0 4.356,-1.45 7.262,-7.262 l 18.883,-56.645 c 1.449,-5.808 1.449,-7.261 5.808,-7.261 2.903,0 5.809,1.453 13.071,1.453 7.265,0 10.168,-1.453 13.074,-1.453 5.808,0 8.715,0 8.715,2.906 0,2.906 -2.907,4.355 -5.813,4.355 -7.262,0 -10.164,4.356 -14.523,14.524 l -14.524,43.574 z m -17.429,74.078 c 1.453,5.809 2.902,5.809 11.621,5.809 7.261,0 24.691,0 24.691,-23.242 0,-13.071 -5.812,-27.594 -14.523,-34.856 -11.625,-10.168 -24.696,-10.168 -37.766,-10.168 l 15.977,62.457 z m 78.433,-116.199 c -4.359,-15.977 -5.812,-15.977 -15.976,-17.426 -4.356,0 -7.262,0 -7.262,-4.359 0,-1.453 1.449,-2.906 4.355,-2.906 2.907,0 13.071,2.906 27.598,2.906 14.524,0 30.5,-2.906 30.5,-2.906 0,0 4.359,1.453 4.359,4.359 0,2.906 -1.453,2.906 -8.714,4.355 -7.262,0 -11.621,0 -11.621,7.262 0,4.359 2.906,14.527 2.906,17.43 l 10.168,36.312 c 36.308,0 45.023,2.903 50.836,5.809 15.976,7.262 29.047,27.598 29.047,46.48 0,2.907 0,33.407 -33.407,33.407 -14.523,0 -21.785,-2.907 -40.668,-2.907 -17.429,0 -18.882,2.907 -23.242,2.907 -1.449,0 -4.355,-1.454 -4.355,-4.356 0,-1.457 1.453,-2.906 5.812,-2.906 2.903,0 10.164,-1.453 10.164,-7.262 0,-2.906 -1.453,-5.812 -2.902,-8.715 L 845.824,564.211 z m 53.742,111.84 c 2.907,10.168 2.907,10.168 11.618,10.168 8.714,0 27.597,0 27.597,-23.242 0,-14.524 -8.715,-30.5 -21.785,-39.211 -11.621,-7.266 -23.242,-7.266 -33.41,-8.719 l 15.98,61.004 z m 68.262,-68.266 c 0,-33.406 20.336,-69.719 56.652,-69.719 43.57,0 79.88,46.481 79.88,88.602 0,36.309 -21.79,69.715 -56.65,69.715 -40.66,0 -79.882,-39.211 -79.882,-88.598 z m 79.882,82.793 c 24.7,0 33.41,-18.883 33.41,-45.027 0,-40.672 -20.33,-101.672 -58.1,-101.672 -18.88,0 -31.95,14.523 -31.95,45.023 0,40.672 20.33,101.676 56.64,101.676 z m 148.16,-84.246 c 0,2.906 -1.46,2.906 -2.91,5.809 11.62,4.359 49.38,20.336 49.38,52.293 0,17.425 -11.61,30.5 -34.85,30.5 -14.53,0 -23.24,-2.907 -37.77,-2.907 -17.43,0 -18.88,2.907 -24.69,2.907 -2.9,0 -5.81,-1.454 -5.81,-4.356 0,-2.906 1.46,-2.906 4.36,-2.906 5.81,0 11.62,-1.453 11.62,-7.262 0,-2.906 0,-2.906 -2.91,-8.715 l -29.04,-110.39 c -1.46,-8.715 -2.91,-11.617 -11.62,-13.071 -7.27,0 -11.62,-1.449 -11.62,-5.808 0,-2.906 2.9,-2.906 2.9,-2.906 2.9,0 8.72,2.906 21.79,2.906 23.24,0 30.5,-2.906 33.4,-2.906 2.91,0 4.36,1.453 4.36,4.359 0,2.906 -1.45,2.906 -7.26,4.355 -4.36,0 -8.72,0 -8.72,5.809 0,2.906 2.91,13.074 4.36,18.883 l 10.17,37.765 c 2.9,1.45 4.35,1.45 4.35,1.45 2.91,0 4.36,-1.45 5.82,-7.262 l 18.88,-56.645 c 2.9,-5.808 2.9,-7.261 5.81,-7.261 2.9,0 7.26,1.453 13.07,1.453 7.26,0 11.62,-1.453 14.52,-1.453 4.36,0 8.72,0 8.72,2.906 0,2.906 -2.91,4.355 -7.26,4.355 -5.81,0 -10.17,4.356 -13.08,14.524 l -15.97,43.574 z m -15.98,74.078 c 1.45,5.809 2.9,5.809 11.62,5.809 7.26,0 24.69,0 24.69,-23.242 0,-13.071 -5.81,-27.594 -14.52,-34.856 -11.62,-10.168 -24.69,-10.168 -39.22,-10.168 l 17.43,62.457 z m 145.25,-120.555 c 0,-8.714 -1.46,-10.167 -11.62,-11.621 -4.36,-1.449 -5.81,-1.449 -5.81,-4.355 0,-2.906 1.45,-4.359 2.9,-4.359 4.36,0 5.81,2.906 24.69,2.906 18.89,0 23.24,-2.906 26.15,-2.906 2.91,0 4.35,1.453 4.35,4.359 0,1.449 0,2.906 -7.26,4.355 -5.81,0 -7.26,0 -7.26,23.239 l -5.81,111.84 c 0,2.906 -1.45,10.167 -1.45,11.621 0,0 -1.45,1.449 -2.91,1.449 -2.9,0 -27.59,-34.856 -33.4,-43.574 l -50.84,-76.981 c -17.43,-26.14 -17.43,-26.14 -27.6,-29.043 -1.45,0 -2.9,-1.457 -2.9,-2.906 0,-2.906 1.45,-4.359 2.9,-4.359 2.91,0 7.27,2.906 21.79,2.906 5.81,0 20.33,-2.906 23.24,-2.906 2.91,0 4.36,4.359 4.36,4.359 0,2.906 -2.91,2.906 -8.72,4.355 -5.81,1.454 -11.62,2.907 -11.62,8.715 0,2.906 0,5.809 5.81,13.074 l 15.98,24.692 43.57,0 1.46,-34.86 z m -18.89,78.434 c 2.91,2.902 14.53,20.332 14.53,20.332 0,0 1.45,0 1.45,-5.812 l 1.45,-49.379 -39.21,0 21.78,34.859 z m 94.41,-75.531 c -4.36,-13.07 -7.26,-14.524 -11.62,-14.524 -8.71,-1.449 -13.07,-1.449 -13.07,-5.808 0,-1.453 1.46,-2.906 4.36,-2.906 2.9,0 11.62,2.906 26.14,2.906 14.53,0 27.6,-2.906 30.51,-2.906 0,0 2.9,0 2.9,4.359 0,2.906 -1.45,2.906 -7.26,2.906 -5.81,1.449 -10.17,1.449 -10.17,5.805 0,2.906 1.45,7.265 2.91,14.527 l 29.05,107.481 c 1.45,8.715 1.45,10.168 5.8,10.168 26.15,0 29.06,0 29.06,-7.262 0,-2.906 -2.91,-13.07 -2.91,-15.977 0,0 0,-2.906 2.91,-2.906 1.44,0 2.9,0 4.35,4.356 1.45,5.812 11.62,34.863 11.62,37.769 0,1.449 -1.45,1.449 -2.9,1.449 0,0 -2.91,0 -4.36,-2.906 -2.91,-7.262 -5.81,-7.262 -26.14,-7.262 l -62.46,0 c -7.26,0 -8.72,0 -8.72,4.356 l 1.46,4.363 c 0,2.902 -2.91,2.902 -2.91,2.902 -2.91,0 -4.35,-2.902 -5.81,-5.808 -1.45,-4.36 -11.62,-34.863 -11.62,-37.766 0,-1.453 2.91,-1.453 2.91,-1.453 0,0 2.9,0 4.35,4.356 10.17,20.336 17.43,21.789 31.96,21.789 8.71,0 10.17,0 10.17,-2.907 0,0 0,-1.449 0,-4.355 l -30.51,-114.746 z m 95.87,-1.453 c -2.91,-11.617 -5.82,-13.071 -17.43,-13.071 -2.91,-1.449 -5.81,-1.449 -5.81,-5.808 0,-2.906 2.9,-2.906 2.9,-2.906 0,0 4.36,1.453 10.17,1.453 5.81,0 14.52,1.453 27.6,1.453 l 2.9,0 c 20.34,0 34.86,-1.453 45.03,-1.453 10.16,0 15.97,-1.453 15.97,-1.453 2.91,0 2.91,2.906 4.36,5.808 0,0 7.26,27.598 7.26,30.5 0,1.457 -1.45,2.906 -2.9,2.906 -2.9,0 -5.81,-7.261 -7.26,-10.168 -7.27,-13.07 -14.53,-20.332 -46.48,-20.332 -10.17,0 -13.07,1.454 -13.07,7.262 0,2.906 4.36,18.883 4.36,21.789 l 10.16,40.668 c 5.81,0 5.81,0 13.07,0 20.34,0 23.24,-1.453 23.24,-13.074 0,-1.449 -1.45,-10.164 -1.45,-10.164 0,0 0,-4.36 2.9,-4.36 2.91,0 4.36,4.36 4.36,7.262 1.45,7.262 5.81,31.957 11.62,43.574 1.45,0 1.45,4.36 1.45,4.36 0,0 0,1.453 -2.9,1.453 -1.45,0 -2.9,0 -4.36,-4.359 -4.36,-11.618 -7.26,-17.43 -33.4,-17.43 -4.36,0 -8.72,0 -11.62,0 l 13.07,49.383 c 2.9,11.621 2.9,11.621 7.26,11.621 l 15.98,0 c 17.43,0 20.33,-5.809 20.33,-20.336 0,-5.809 0,-8.711 4.36,-8.711 0,0 2.9,0 4.36,5.805 2.9,14.527 8.71,26.144 8.71,27.601 0,1.449 -1.45,2.902 -2.9,2.902 -2.91,0 -10.17,0 -20.34,0 -8.71,-1.453 -21.78,-1.453 -34.86,-1.453 l -4.35,0 c -11.62,0 -18.89,0 -24.69,1.453 -4.36,0 -7.27,0 -7.27,0 0,0 -5.81,0 -5.81,-4.359 0,-1.449 1.45,-2.902 7.27,-2.902 2.9,0 7.26,-1.453 7.26,-7.262 0,-2.906 0,-4.359 -1.45,-11.621 l -27.6,-106.031 z m 123.46,2.906 c -2.91,-11.621 -4.36,-15.977 -17.43,-15.977 -2.91,0 -5.81,-1.449 -5.81,-4.355 0,-2.906 1.45,-4.359 2.9,-4.359 2.91,0 7.26,2.906 17.43,2.906 13.07,0 42.12,-2.906 58.1,-2.906 55.2,0 84.25,56.644 84.25,95.863 0,31.953 -18.89,59.551 -55.2,59.551 -15.98,0 -24.69,-2.907 -40.67,-2.907 -10.17,0 -23.24,2.907 -24.69,2.907 -1.46,0 -5.81,0 -5.81,-4.356 0,-2.906 2.9,-2.906 5.81,-2.906 5.81,0 10.17,0 10.17,-7.262 0,-2.906 -1.46,-5.812 -2.91,-13.074 l -26.14,-103.125 z m 52.29,108.934 c 2.9,13.074 4.35,14.527 17.43,14.527 11.61,0 45.02,-1.453 45.02,-43.574 0,-18.883 -10.17,-97.313 -71.17,-97.313 -20.33,0 -21.79,4.356 -21.79,8.711 0,2.906 4.36,20.332 5.81,26.145 l 24.7,91.504"
           style="fill:#000000;fill-opacity:1;fill-rule:evenodd;stroke:none"
           id="path16"
           inkscape:connector-curvature="0" />
        <path
           d="m 312.77,728.34 1532.35,0 0,17.4297 -1532.35,0 0,-17.4297 z"
           style="fill:#231f20;fill-opacity:1;fill-rule:evenodd;stroke:none"
           id="path18"
           inkscape:connector-curvature="0" />
        <path
           d="m 90.543,497.398 1754.57,0 0,15.9766 -1754.57,0 0,-15.9766 z"
           style="fill:#000000;fill-opacity:1;fill-rule:evenodd;stroke:none"
           id="path20"
           inkscape:connector-curvature="0" />
        <path
           d="m 312.77,745.77 c -55.196,4.355 -81.34,15.976 -81.34,50.835 0,24.696 18.883,47.934 31.957,66.813 l 101.672,152.512 222.226,0 2.903,-97.317 0,-18.883 c 1.457,-23.238 2.906,-49.386 -14.524,-66.812 -10.164,-10.168 -45.023,-15.98 -68.262,-20.336 -8.718,-2.906 -13.074,-7.262 -11.625,-15.977 1.457,-8.714 10.168,-11.617 17.43,-11.617 27.602,0 55.195,0 82.793,0 17.934,0 36.277,0 55.051,0 3.082,-0.179 5.922,0 7.406,0 13.816,0 27.859,0 42.121,0 1.25,0 2.527,0.024 3.82,0.153 4.477,-0.098 9.012,-0.153 13.61,-0.153 24.691,0 47.93,0 75.527,0 5.809,0 11.621,0 11.621,8.711 0,10.168 -11.621,8.715 -18.883,8.715 -13.074,1.453 -30.503,1.453 -30.503,21.789 0,10.168 4.359,27.598 7.261,36.309 l 42.125,155.418 69.715,0 c 26.145,0 49.387,0 49.387,-36.313 0,-13.074 -2.906,-23.242 -2.906,-34.859 0,-5.809 2.906,-8.715 8.714,-8.715 8.715,0 10.168,14.523 10.168,21.785 4.356,30.504 20.332,90.052 31.954,117.652 0,2.9 2.902,8.71 2.902,13.07 0,4.36 -2.902,8.72 -7.262,8.72 -5.808,0 -8.711,-7.27 -11.617,-14.53 -18.883,-42.12 -31.953,-46.48 -72.625,-46.48 l -72.621,0 40.668,156.87 c 8.715,30.5 8.715,31.95 37.765,31.95 l 33.407,0 c 20.336,0 49.383,1.46 65.359,-15.97 15.976,-14.53 17.426,-31.96 18.886,-53.75 0,-5.81 -1.46,-18.88 7.26,-18.88 8.71,0 10.17,14.53 13.07,21.79 l 14.53,55.19 c 1.45,5.81 4.36,14.53 4.36,20.34 0,4.35 -4.36,7.26 -10.17,7.26 l -273.069,0 c -5.808,0 -13.07,1.45 -13.07,-7.26 0,-10.17 11.621,-11.62 17.43,-13.07 14.527,0 33.406,4.35 33.406,-17.43 0,-8.72 -5.809,-26.15 -7.262,-34.86 L 710.746,860.512 c -4.359,-15.973 -10.168,-30.5 -24.695,-39.211 -7.082,-4.25 -11.41,-2.988 -15.66,-2.918 -28.981,12.574 -20.871,36.5 -22.102,76.992 l -11.621,508.365 c 0,8.71 1.453,37.76 -10.168,37.76 -8.711,0 -20.332,-18.88 -23.238,-24.69 L 214.004,848.895 c -29.051,-43.575 -50.836,-84.243 -103.129,-94.411 -10.164,-2.906 -23.2383,-4.359 -23.2383,-15.976 0,-7.262 4.3594,-10.168 11.6211,-10.168 30.5042,0 59.5512,0 90.0552,0 37.761,0 84.242,0 123.457,0 l 0,17.43 z m 1526.54,470.6 c 1.45,2.9 4.36,13.07 4.36,18.88 0,15.98 -46.48,17.43 -55.2,17.43 -75.52,0 -171.39,-31.95 -233.84,-79.88 -62.46,-49.39 -120.56,-127.82 -120.56,-217.874 0,-53.742 20.34,-103.125 58.1,-136.531 33.41,-29.051 75.53,-39.219 117.65,-39.219 33.41,0 82.79,5.812 111.84,21.789 13.07,8.711 13.07,20.336 17.43,34.855 l 14.52,52.293 c 0,2.903 4.36,15.973 4.36,20.332 0,4.36 -4.36,7.262 -7.26,7.262 -5.81,0 -7.26,-4.355 -10.17,-10.164 -27.59,-62.461 -63.91,-108.938 -130.72,-108.938 -75.53,0 -122.01,69.719 -122.01,151.055 0,159.77 158.32,286.14 289.04,286.14 20.34,0 29.05,-7.26 29.05,-30.5 l -4.36,-53.75 c -1.45,-8.71 -2.9,-20.33 8.72,-20.33 8.71,0 10.17,14.53 11.62,21.79 l 17.43,65.36 z m -569.37,-198.99 98.77,0 0,-156.868 c 0,-15.973 1.45,-37.762 -10.17,-49.379 -5.81,-7.266 -15.97,-7.266 -30.5,-8.719 -5.81,1.453 -14.52,1.453 -14.52,-8.715 0,-10.168 11.62,-8.711 17.43,-8.711 17.43,1.45 36.31,0 53.74,0 23.24,0 46.48,1.45 68.26,0 5.81,0 11.62,0 11.62,8.711 0,10.168 -11.62,8.715 -17.43,8.715 -31.95,4.359 -26.14,23.242 -27.59,53.742 l -8.72,371.834 c 0,5.81 1.46,24.69 -5.81,24.69 -5.81,0 -13.07,-11.62 -15.98,-15.98 L 1134.86,864.871 c -10.16,-14.527 -20.33,-31.953 -30.5,-43.57 -6.15,-8.61 -13.36,-16.192 -25.11,-17.434 -0.39,-0.004 -0.73,0 -1.03,0 -0.4,-0.051 -0.8,-0.101 -1.2,-0.148 -1.47,-0.047 -2.99,0 -4.61,0.148 -1.29,0 -3.03,-0.148 -4.92,-0.469 -7.71,0.665 -13.96,4.383 -13.96,16.446 0,7.261 2.9,18.883 4.35,24.695 l 87.15,322.441 c 8.72,34.86 13.07,56.65 55.2,55.2 7.26,0 20.33,-1.45 20.33,10.16 0,7.27 -7.26,8.72 -13.07,8.72 -26.15,1.45 -49.39,1.45 -75.53,0 -18.88,1.45 -39.22,0 -58.1,0 -5.81,0 -20.33,2.9 -20.33,-5.81 0,-11.62 8.71,-13.07 15.97,-13.07 14.53,-1.45 31.96,2.9 31.96,-18.88 0,-8.72 -5.81,-26.15 -8.72,-34.86 L 1011.4,861.969 c -4.35,-15.981 -10.16,-39.219 -21.783,-49.387 -10.164,-8.715 -23.238,-8.715 -34.859,-8.715 -5.809,0 -15.977,0 -15.977,-11.617 0,-8.719 26.145,-7.262 33.407,-7.262 l 151.062,0 -1.46,0 90.05,0 c 23.24,0 23.24,2.903 30.5,26.145 l 14.53,53.738 c 0,5.809 2.9,14.524 2.9,20.336 0,4.356 -2.9,5.809 -5.8,5.809 -7.27,0 -11.63,-13.071 -13.08,-18.883 -22.62,-52.403 -53.08,-61.856 -92.14,-64.352 -0.66,0.129 -1.4,0.282 -2.27,0.446 -2.9,0 -4.35,4.355 -4.35,7.261 0,15.977 18.88,43.575 27.59,56.645 l 100.22,145.247 z m 97.32,142.34 -1.46,-123.46 -82.78,0 84.24,123.46 z m -788.69,171.39 8.715,-294.85 -209.156,0 200.441,294.85"
           style="fill:#000000;fill-opacity:1;fill-rule:evenodd;stroke:none"
           id="path26"
           inkscape:connector-curvature="0" />
        <path
           d="m 308.41,928.781 0,8.715 c 0,0 -7.262,-4.359 -10.164,-7.266 -1.453,-1.449 -2.906,-18.878 -2.906,-18.878 l -14.524,-152.512 -1.453,-1.449 c 0,0 -15.976,0 -17.429,1.449 -2.907,1.453 -20.336,129.273 -20.336,130.723 -4.356,23.242 -7.262,37.765 -7.262,42.125 0,2.902 -4.356,23.238 1.453,53.738 7.262,30.504 4.359,43.574 4.359,46.484 0,2.9 0,2.9 -1.453,4.35 -1.453,0 0,1.45 -2.906,-2.9 -10.168,-14.52 -15.976,-59.555 -15.976,-65.364 0,-7.262 -2.907,-29.047 -4.36,-34.859 -2.902,-7.262 -11.617,-13.071 -11.617,-13.071 l 2.906,-135.078 c 0,0 0,-1.457 -1.457,-1.457 -5.805,4.36 -18.879,13.074 -17.43,15.981 0,4.355 -4.355,43.57 -4.355,43.57 0,0 -4.355,5.813 -1.453,5.813 l -1.453,0 c 0,0 0,0 -1.449,-1.454 0,-2.902 -10.168,-23.238 -11.622,-26.14 -1.453,-2.906 -2.906,-1.457 -2.906,-1.457 l -7.262,11.621 c 0,0 -1.449,1.453 -1.449,5.808 1.449,7.266 4.356,30.504 4.356,30.504 0,0 2.906,56.645 0,58.098 -1.453,1.453 0,1.453 -1.453,0 -2.903,0 -31.954,-30.5 -33.407,-30.5 0,0 -1.453,1.449 -1.453,2.906 -1.449,1.449 -1.449,2.903 -1.449,4.356 0,2.906 -1.457,4.355 -2.906,8.715 0,4.355 0,4.355 0,4.355 l 45.023,53.742 c -4.355,4.356 -7.262,10.168 -7.262,18.883 0,11.617 8.715,21.788 18.883,21.788 11.617,0 20.336,-10.171 20.336,-21.788 0,-8.715 -2.906,-15.977 -8.719,-18.883 0,-7.261 10.168,-11.621 10.168,-11.621 l 1.457,-1.453 1.45,1.453 c 0,0 2.906,1.453 2.906,4.36 1.449,5.808 0,-1.454 2.906,26.144 8.711,50.838 14.52,72.618 21.785,88.598 5.809,10.17 31.953,36.31 31.953,36.31 -8.714,4.36 -14.523,15.98 -14.523,27.6 0,15.98 11.617,29.05 26.141,29.05 14.527,0 26.148,-13.07 26.148,-29.05 0,-13.07 -7.262,-23.24 -15.976,-29.05 0,0 4.355,4.36 17.429,-17.43 1.449,-2.91 1.449,0 1.449,0 l 1.454,0 c 0,0 2.906,8.72 23.242,26.14 -7.266,5.82 -13.074,14.53 -13.074,26.15 0,15.98 11.621,30.5 26.144,30.5 14.527,0 26.145,-14.52 26.145,-30.5 0,-10.17 -4.356,-20.33 -11.618,-26.15 0,0 42.118,-17.42 49.379,-58.09 7.266,-39.22 5.813,-39.22 -4.355,-98.773 0,-2.903 0,-1.449 0,-1.449 l 1.453,-1.454 c 0,0 10.168,0 13.07,2.903 2.907,2.906 5.809,4.359 5.809,4.359 -5.809,4.359 -8.711,11.621 -8.711,18.883 0,13.07 10.168,23.241 20.336,23.241 11.617,0 20.332,-10.171 20.332,-23.241 0,-7.262 -2.906,-14.524 -8.715,-18.883 l 47.93,-49.383 1.453,-2.906 c 0,0 0,-5.809 -4.356,-13.07 0,-2.907 -1.453,-2.907 -1.453,-2.907 0,0 -18.883,18.883 -31.953,27.598 -5.812,4.36 -1.453,-30.504 -1.453,-30.504 0,0 1.453,-15.976 11.621,-45.023 1.449,-2.906 0,-4.36 0,-4.36 l -10.168,-15.976 -1.453,-1.453 -1.453,1.453 c 0,0 -13.07,21.785 -18.883,34.859 -1.449,2.906 -1.449,-2.906 -1.449,-2.906 l 0,-4.355 c 0,0 -2.906,-53.743 -4.359,-58.098 -1.454,-2.906 -1.454,-2.906 -1.454,-2.906 0,0 -15.976,-13.071 -18.882,-13.071 -1.454,0 -1.454,1.45 -1.454,1.45 0,0 7.262,149.605 5.813,152.511 -1.453,1.449 -2.906,2.903 -2.906,2.903 l -4.36,1.453 c 0,0 -14.523,0 -17.429,2.906 -2.903,1.449 -2.903,1.449 -4.356,4.355 -1.453,1.454 -4.355,0 -4.355,0 l 5.808,-178.652 -1.453,-2.906 c 0,0 -18.883,-8.715 -21.789,-8.715 -1.449,1.453 -1.449,2.906 -1.449,2.906 l -15.981,140.887 -14.523,-148.148 -2.902,-1.454 c 0,0 -20.336,-2.906 -21.789,0 -1.454,0 -1.454,2.907 -1.454,2.907 l 7.262,172.839 0,-1.449 z m 75.531,114.739 c 2.907,-11.61 4.356,-46.473 -4.359,-69.715 -1.453,-2.903 -4.355,-5.809 -4.355,-5.809 0,0 -1.454,69.714 -1.454,76.984 0,7.26 2.907,7.26 2.907,7.26 0,0 5.808,2.9 7.261,-8.72 z m -75.531,-5.81 c 0,0 0,0 -1.449,-1.45 0,-2.9 -4.359,-11.62 -4.359,-31.95 0,-20.337 2.906,-17.431 2.906,-17.431 l 4.359,1.453 c 0,0 1.449,2.902 1.449,5.809 0,2.906 2.907,27.599 0,43.569 -1.449,2.91 -2.906,0 -2.906,0"
           style="fill:#41b0e8;fill-opacity:1;fill-rule:evenodd;stroke:none"
           id="path28"
           inkscape:connector-curvature="0" />
      </g>
    </g>
  </g>
</svg>
