<?xml version="1.0" encoding="UTF-8" standalone="no"?>
<svg
   xmlns:dc="http://purl.org/dc/elements/1.1/"
   xmlns:cc="http://creativecommons.org/ns#"
   xmlns:rdf="http://www.w3.org/1999/02/22-rdf-syntax-ns#"
   xmlns:svg="http://www.w3.org/2000/svg"
   xmlns="http://www.w3.org/2000/svg"
   xmlns:sodipodi="http://sodipodi.sourceforge.net/DTD/sodipodi-0.dtd"
   xmlns:inkscape="http://www.inkscape.org/namespaces/inkscape"
   width="1000"
   height="252.91377"
   viewBox="0 0 1000 252.91377"
   version="1.1"
   id="svg2"
   inkscape:version="0.48.2 r9819"
   sodipodi:docname="A.svg">
  <metadata
     id="metadata20">
    <rdf:RDF>
      <cc:Work
         rdf:about="">
        <dc:format>image/svg+xml</dc:format>
        <dc:type
           rdf:resource="http://purl.org/dc/dcmitype/StillImage" />
        <dc:title>ding</dc:title>
      </cc:Work>
    </rdf:RDF>
  </metadata>
  <sodipodi:namedview
     pagecolor="#ffffff"
     bordercolor="#666666"
     borderopacity="1"
     objecttolerance="10"
     gridtolerance="10"
     guidetolerance="10"
     inkscape:pageopacity="0"
     inkscape:pageshadow="2"
     inkscape:window-width="1061"
     inkscape:window-height="1036"
     id="namedview18"
     showgrid="false"
     fit-margin-left="0.5"
     fit-margin-bottom="0.5"
     fit-margin-top="0.5"
     fit-margin-right="0.5"
     inkscape:zoom="0.36853182"
     inkscape:cx="838.46421"
     inkscape:cy="-449.70288"
     inkscape:window-x="853"
     inkscape:window-y="-14"
     inkscape:window-maximized="0"
     inkscape:current-layer="svg2" />
  <title
     id="title4">ding</title>
  <description
     id="description6">Created with Sketch (http://www.bohemiancoding.com/sketch)</description>
  <defs
     id="defs8" />
  <g
     id="g3158"
     transform="matrix(10.308747,0,0,-10.308747,163.90395,35.508505)">
    <path
       d="M 0,0 -10.826,0.012 -12.5,-1.682 0,-1.689 c 1.91,0 3.453,-1.513 3.453,-3.381 l 0,-15.848 1.733,0 L 5.19,-5.07 C 5.19,-2.27 2.866,0 0,0 m 8.656,-20.918 0,15.848 C 8.656,-0.402 4.779,3.396 0,3.396 l -7.477,0 L -9.152,1.706 0,1.703 c 3.822,0 6.922,-3.038 6.922,-6.773 l 0,-15.848 1.734,0 z M 0,-3.379 l -14.171,0.002 -1.68,-1.691 0.022,0 -0.022,-0.002 0,-7.383 c 0,-4.308 3.284,-7.871 7.549,-8.401 l 1.599,1.623 -0.49,0.004 c -3.825,0 -6.923,3.04 -6.923,6.774 l 0,7.385 1.734,0 -0.005,-7.385 c 0,-2.799 2.326,-5.07 5.194,-5.07 l 2.175,0 1.67,1.688 -3.845,0 c -1.91,0 -3.454,1.517 -3.454,3.382 l 0,7.385 1.717,0 0.002,-7.385 c 0.005,-0.934 0.779,-1.69 1.735,-1.69 l 5.517,0 1.67,1.687 -7.187,0.003 0,7.383 7.193,0 0,-15.848 1.735,0 L 1.734,-5.07 C 1.729,-4.135 0.954,-3.379 0,-3.379"
       style="fill:#569bbe;fill-opacity:1;fill-rule:nonzero;stroke:none"
       id="path3160"
       inkscape:connector-curvature="0" />
  </g>
  <g
     id="g3162"
     transform="matrix(10.308747,0,0,-10.308747,761.02572,131.33753)">
    <path
       d="m 0,0 0,3.308 5.466,0 0.152,0 0,0.149 0,1.058 0,0.149 -0.152,0 -5.466,0 0,3.216 6.13,0 0.149,0 0,0.148 0,1.062 0,0.147 -0.149,0 -7.443,0 -0.15,0 0,-0.147 0,-10.298 0,-0.146 0.15,0 7.515,0 0.15,0 0,0.146 0,1.06 L 6.352,0 6.202,0 0,0 z m -36.992,-3.657 -0.08,0 -0.043,-0.069 -2.675,-4.005 -2.674,4.005 -0.047,0.069 -0.078,0 -0.878,0 -0.148,0 0,-0.151 0,-7.679 0,-0.149 0.148,0 0.845,0 0.149,0 0,0.149 0,5.728 2.526,-3.706 0.046,-0.065 0.079,0 0.043,0 0.078,0 0.044,0.065 2.525,3.714 0,-5.736 0,-0.149 0.15,0 0.866,0 0.149,0 0,0.149 0,7.679 0,0.151 -0.149,0 -0.876,0 z m 44.676,-6.881 0,6.73 0,0.151 -0.147,0 -0.868,0 -0.148,0 0,-0.151 0,-7.679 0,-0.149 0.148,0 3.897,0 0.15,0 0,0.149 0,0.798 0,0.151 -0.15,0 -2.882,0 z m -50.375,9.184 0.038,0.087 1.18,2.633 5.412,0 1.168,-2.633 0.039,-0.087 0.096,0 1.249,0 0.231,0 -0.095,0.208 -4.69,10.369 -0.04,0.088 -0.096,0 -1.088,0 -0.097,0 -0.04,-0.088 -4.69,-10.369 -0.096,-0.208 0.231,0 1.19,0 0.098,0 z m 3.934,8.8 2.11,-4.738 -4.234,0 2.124,4.738 z m 8.147,-8.8 0.147,0 0,0.146 0,3.486 2.354,0 c 2.087,0 4.194,1.086 4.194,3.518 l 0,0.029 c 0,2.072 -1.572,3.412 -4.004,3.412 l -3.852,0 -0.15,0 0,-0.147 0,-10.298 0,-0.146 0.15,0 1.161,0 z m 0.147,9.22 2.456,0 c 1.664,0 2.616,-0.759 2.616,-2.086 l 0,-0.029 c 0,-1.285 -1.048,-2.118 -2.674,-2.118 l -2.398,0 0,4.233 z m 26.719,-9.22 0,0.146 0,10.298 0,0.147 -0.149,0 -1.161,0 -0.149,0 0,-0.147 0,-10.298 0,-0.146 0.149,0 1.161,0 0.149,0 z m 18.675,-5.731 c -1.664,0.357 -1.969,0.733 -1.969,1.347 l 0,0.02 c 0,0.645 0.611,1.093 1.486,1.093 0.781,0 1.453,-0.255 2.122,-0.8 l 0.12,-0.099 0.095,0.125 0.504,0.67 0.086,0.113 -0.112,0.09 c -0.852,0.685 -1.687,0.978 -2.791,0.978 -1.548,0 -2.673,-0.945 -2.673,-2.246 l 0,-0.021 c 0,-1.475 1.078,-2.011 2.695,-2.362 1.59,-0.335 1.88,-0.705 1.88,-1.312 l 0,-0.024 c 0,-0.691 -0.628,-1.156 -1.562,-1.156 -0.977,0 -1.712,0.303 -2.535,1.047 l -0.113,0.102 -0.101,-0.116 -0.537,-0.638 -0.092,-0.108 0.107,-0.097 c 0.967,-0.866 1.997,-1.266 3.238,-1.266 1.631,0 2.77,0.954 2.77,2.319 l 0,0.023 c 0,1.224 -0.782,1.918 -2.618,2.318 m -3.062,5.731 c 3.256,0 5.619,2.226 5.619,5.296 l 0,0.028 c 0,3.052 -2.363,5.267 -5.619,5.267 l -3.573,0 -0.15,0 0,-0.147 0,-10.298 0,-0.146 0.15,0 3.573,0 z m -2.262,9.22 2.262,0 c 2.424,0 4.116,-1.613 4.116,-3.924 l 0,-0.029 c 0,-2.295 -1.692,-3.896 -4.116,-3.896 l -2.262,0 0,7.849 z m -39.846,-11.558 -0.041,0.088 -0.096,0 -0.813,0 -0.096,0 -0.041,-0.088 -3.498,-7.733 -0.095,-0.211 0.231,0 0.887,0 0.096,0 0.042,0.088 0.869,1.942 3.989,0 0.86,-1.942 0.039,-0.088 0.095,0 0.934,0 0.231,0 -0.096,0.211 -3.497,7.733 z m -2.081,-4.838 1.525,3.405 1.517,-3.405 -3.042,0 z m 25.462,7.176 0,0.146 0,1.074 0,0.151 -0.148,0 -4.507,0 0,9.073 0,0.147 -0.147,0 -1.163,0 -0.15,0 0,-0.147 0,-10.298 0,-0.146 0.15,0 5.817,0 0.148,0 z m -1.757,-7.085 c 1.239,0.305 1.98,1.158 1.98,2.327 l 0,0.022 c 0,0.635 -0.225,1.21 -0.636,1.62 -0.524,0.522 -1.337,0.813 -2.29,0.813 l -3.302,0 -0.149,0 0,-0.151 0,-7.679 0,-0.149 0.149,0 0.867,0 0.147,0 0,0.149 0,2.836 1.972,0 2.182,-2.924 0.047,-0.061 0.074,0 1.064,0 0.297,0 -0.179,0.237 -2.223,2.96 z m -3.234,0.864 0,2.817 2.222,0 c 1.154,0 1.816,-0.497 1.816,-1.365 l 0,-0.023 c 0,-0.869 -0.716,-1.429 -1.826,-1.429 l -2.212,0 z m -7.362,-2.975 0,2.391 4.044,0 0.148,0 0,0.15 0,0.788 0,0.15 -0.148,0 -4.044,0 0,2.324 4.535,0 0.15,0 0,0.151 0,0.788 0,0.151 -0.15,0 -5.551,0 -0.148,0 0,-0.151 0,-7.679 0,-0.149 0.148,0 5.608,0 0.15,0 0,0.149 0,0.787 0,0.15 -0.15,0 -4.592,0 z m 14.314,6.893 -0.151,0 0,-0.151 0,-7.679 0,-0.149 0.151,0 0.866,0 0.148,0 0,0.149 0,7.679 0,0.151 -0.148,0 -0.866,0 z m -9.524,9.453 0,0.029 c 0,2.072 -1.569,3.412 -4.002,3.412 l -3.852,0 -0.15,0 0,-0.147 0,-10.298 0,-0.146 0.15,0 1.16,0 0.15,0 0,0.146 0,3.486 2.352,0 c 2.086,0 4.192,1.086 4.192,3.518 m -6.544,2.07 2.454,0 c 1.663,0 2.616,-0.759 2.616,-2.086 l 0,-0.029 c 0,-1.285 -1.05,-2.118 -2.676,-2.118 l -2.394,0 0,4.233 z m -6.777,-11.523 -0.15,0 0,-0.151 0,-0.8 0,-0.15 0.15,0 2.429,0 0,-6.729 0,-0.149 0.147,0 0.883,0 0.148,0 0,0.149 0,6.729 2.429,0 0.147,0 0,0.15 0,0.8 0,0.151 -0.147,0 -6.036,0 z m 29.622,-0.035 -0.043,0.088 -0.094,0 -0.811,0 -0.096,0 -0.037,-0.088 -3.503,-7.733 -0.096,-0.211 0.235,0 0.885,0 0.095,0 0.041,0.088 0.871,1.942 3.988,0 0.861,-1.942 0.039,-0.088 0.095,0 0.934,0 0.231,0 -0.096,0.211 -3.499,7.733 z m -2.08,-4.838 1.526,3.405 1.516,-3.405 -3.042,0 z"
       style="fill:#569bbe;fill-opacity:1;fill-rule:nonzero;stroke:none"
       id="path3164"
       inkscape:connector-curvature="0" />
  </g>
  <g
     id="g3166"
     transform="matrix(10.308747,0,0,-10.308747,961.12052,233.25805)">
    <path
       d="m 0,0 0,0.013 c 0,1.011 0.821,1.856 1.866,1.856 1.042,0 1.857,-0.834 1.857,-1.85 l 0,-0.006 C 3.723,-1.001 2.898,-1.851 1.855,-1.851 0.813,-1.851 0,-1.015 0,0 m 3.554,0.013 0,0.006 C 3.554,0.95 2.826,1.711 1.866,1.711 0.899,1.711 0.168,0.938 0.168,0.013 L 0.168,0 c 0,-0.931 0.725,-1.688 1.687,-1.688 0.966,0 1.699,0.768 1.699,1.701 m -2.424,1.006 0.854,0 C 2.226,1.019 2.426,0.938 2.548,0.817 2.643,0.729 2.704,0.601 2.704,0.449 l 0,-0.012 c 0,-0.309 -0.206,-0.492 -0.493,-0.56 L 2.8,-0.89 l -0.348,0 -0.549,0.719 -0.01,0 -0.481,0 0,-0.719 -0.282,0 0,1.909 z M 1.957,0.083 c 0.269,0 0.454,0.121 0.454,0.339 l 0,0.009 c 0,0.202 -0.165,0.33 -0.438,0.33 l -0.561,0 0,-0.678 0.545,0 z"
       style="fill:#569bbe;fill-opacity:1;fill-rule:nonzero;stroke:none"
       id="path3168"
       inkscape:connector-curvature="0" />
  </g>
</svg>
