<?xml version="1.0" encoding="utf-8"?>
<!-- Generator: Adobe Illustrator 16.0.0, SVG Export Plug-In . SVG Version: 6.00 Build 0)  -->
<!DOCTYPE svg PUBLIC "-//W3C//DTD SVG 1.1//EN" "http://www.w3.org/Graphics/SVG/1.1/DTD/svg11.dtd">
<svg version="1.1" id="Layer_1" xmlns="http://www.w3.org/2000/svg" xmlns:xlink="http://www.w3.org/1999/xlink" x="0px" y="0px"
	 width="578.709px" height="215.974px" viewBox="24.605 -13.677 578.709 215.974"
	 enable-background="new 24.605 -13.677 578.709 215.974" xml:space="preserve">
<g>
	<g>
		<g>
			<path fill="#0069B3" d="M439.067,163.411h-1.918c-0.67,0-0.912,0.283-1.004,0.766c-1.25,5.84-3.169,12.166-6.138,18.061
				c-2.729-5.697-4.934-12.412-6.037-18.012c-0.092-0.631-0.381-0.814-1-0.814h-2.254c-0.528,0-0.723,0.238-0.723,0.572
				c0,0.193,0.096,0.67,0.146,0.861c1.58,6.707,4.314,14.516,7.906,21.029c-2.639,3.838-4.553,5.367-6.994,7.188
				c-0.289,0.195-0.481,0.434-0.481,0.674c0,0.191,0.094,0.383,0.239,0.576l0.957,1.291c0.191,0.285,0.435,0.385,0.673,0.385
				c0.237,0,0.479-0.1,0.67-0.236c5.274-3.453,9.391-10.16,12.459-17.822c1.676-4.174,3.209-8.818,4.069-13.129
				c0.099-0.48,0.144-0.672,0.144-0.865C439.781,163.55,439.543,163.411,439.067,163.411 M409.367,162.927
				c-3.107,0-5.314,1.299-7.185,3.215v-1.869c0-0.623-0.241-0.861-0.86-0.861h-1.777c-0.619,0-0.861,0.238-0.861,0.861v21.271
				c0,0.619,0.242,0.861,0.861,0.861h2.016c0.623,0,0.861-0.242,0.861-0.861v-16.389c2.017-2.152,3.787-3.113,6.137-3.113
				c3.541,0,4.931,2.783,4.931,5.797v13.705c0,0.619,0.242,0.861,0.864,0.861h2.013c0.623,0,0.86-0.242,0.86-0.861v-13.848
				C417.226,166.856,414.83,162.927,409.367,162.927 M389.179,180.561c-1.823,2.49-3.979,3.303-6.278,3.303
				c-3.543,0-4.504-2.107-4.504-4.025c0-2.393,1.534-4.115,5.846-4.115c1.822,0,3.453,0.186,4.938,0.721L389.179,180.561
				L389.179,180.561z M384.095,162.927c-3.207,0-6.129,0.912-8.094,2.541c-0.436,0.336-0.479,0.766-0.193,1.25l0.767,1.096
				c0.385,0.527,0.674,0.578,1.199,0.197c1.631-1.293,3.885-1.92,5.991-1.92c4.55,0,5.414,2.918,5.414,5.748v1.916
				c-1.823-0.67-3.453-0.908-5.414-0.908c-6.325,0-9.151,3.061-9.151,7.092c0,3.977,2.68,6.943,7.668,6.943
				c3.299,0,5.414-1.242,7.137-3.354v2.016c0,0.619,0.238,0.861,0.861,0.861h1.771c0.623,0,0.861-0.242,0.861-0.861v-14.281
				C392.912,166.329,390.324,162.927,384.095,162.927 M361.24,183.862c-2.445,0-4.267-1.148-5.847-3.018v-11.781
				c1.679-1.965,3.593-3.115,6.134-3.115c3.643,0,6.084,2.877,6.084,8.814C367.612,180.844,364.884,183.862,361.24,183.862
				 M362.101,162.927c-3.254,0-5.27,1.438-6.944,3.164v-1.818c0-0.623-0.238-0.861-0.861-0.861h-1.772
				c-0.625,0-0.861,0.238-0.861,0.861v30.855c0,0.623,0.236,0.859,0.861,0.859h2.012c0.623,0,0.86-0.236,0.86-0.859v-10.83
				c1.484,1.484,3.4,2.584,6.326,2.584c5.748,0,9.771-4.695,9.771-12.215C371.49,167.239,367.901,162.927,362.101,162.927
				 M338.052,162.927c-3.307,0-5.651,1.537-7.621,3.6c-1.146-2.162-3.254-3.6-6.463-3.6c-2.973,0-5.127,1.25-6.897,3.164v-1.818
				c0-0.623-0.242-0.861-0.865-0.861h-1.773c-0.623,0-0.864,0.238-0.864,0.861v21.271c0,0.619,0.241,0.861,0.864,0.861h2.013
				c0.627,0,0.86-0.242,0.86-0.861v-16.535c1.918-2.006,3.599-2.967,5.804-2.967c3.401,0,4.739,2.684,4.739,5.797v13.705
				c0,0.619,0.238,0.861,0.861,0.861h2.012c0.623,0,0.865-0.242,0.865-0.861v-16.58c1.867-1.961,3.545-2.922,5.697-2.922
				c3.5,0,4.838,2.684,4.838,5.797v13.705c0,0.619,0.242,0.861,0.865,0.861h2.012c0.623,0,0.861-0.242,0.861-0.861v-13.848
				C345.86,166.856,343.558,162.927,338.052,162.927 M298.463,183.913c-4.791,0-6.707-4.26-6.707-9.006
				c0-4.744,1.916-9.006,6.707-9.006c4.795,0,6.705,4.262,6.705,9.006C305.168,179.653,303.258,183.913,298.463,183.913
				 M298.463,162.927c-7.375,0-10.586,5.799-10.586,11.98c0,6.18,3.064,11.975,10.586,11.975c7.383,0,10.59-5.795,10.59-11.975
				C309.052,168.725,305.985,162.927,298.463,162.927 M278.894,166.091c1.865,0,3.257,0.574,4.603,1.535
				c0.67,0.477,0.861,0.43,1.242-0.102l0.912-1.338c0.33-0.477,0.284-0.912-0.191-1.246c-1.777-1.346-3.547-2.016-6.516-2.016
				c-6.998,0-10.588,5.605-10.588,12.129c0,6.896,3.545,11.828,10.25,11.828c2.543,0,4.891-0.768,6.752-2.301
				c0.438-0.33,0.53-0.766,0.196-1.24l-0.719-1.105c-0.34-0.525-0.67-0.576-1.154-0.191c-1.53,1.148-3.159,1.676-4.787,1.676
				c-4.504,0-6.663-3.494-6.663-8.768C272.231,169.925,274.485,166.091,278.894,166.091 M257.192,154.69h-16.961
				c-0.623,0-0.861,0.242-0.861,0.861v29.992c0,0.619,0.238,0.861,0.861,0.861h16.961c0.623,0,0.86-0.242,0.86-0.861v-1.533
				c0-0.623-0.237-0.865-0.86-0.865h-13.896v-11.594h12.363c0.623,0,0.861-0.234,0.861-0.861v-1.535
				c0-0.623-0.238-0.859-0.861-0.859h-12.363v-10.35h13.896c0.623,0,0.86-0.242,0.86-0.861v-1.533
				C258.052,154.932,257.815,154.69,257.192,154.69 M232.459,169.493h-9.678c-0.623,0-0.861,0.238-0.861,0.861v1.535
				c0,0.623,0.238,0.865,0.861,0.865h6.66v9.143c-2.254,1.297-4.984,1.73-7.283,1.73c-7.714,0-10.682-5.322-10.682-12.891
				c0-7.189,3.015-13.127,10.109-13.127c3.256,0,6.037,1.199,7.955,2.83c0.478,0.377,0.808,0.33,1.146-0.145l1.1-1.393
				c0.385-0.479,0.338-0.861-0.094-1.246c-2.637-2.393-6.275-3.445-9.967-3.445c-9.912,0-14.277,7.898-14.277,16.619
				c0,8.676,4.219,16.051,14.708,16.051c3.637,0,7.43-0.908,10.443-2.682c0.479-0.338,0.723-0.719,0.723-1.295v-12.549
				C233.324,169.733,233.082,169.493,232.459,169.493 M191.781,180.561c-1.819,2.49-3.976,3.303-6.275,3.303
				c-3.545,0-4.507-2.107-4.507-4.025c0-2.393,1.538-4.115,5.85-4.115c1.818,0,3.448,0.186,4.934,0.721L191.781,180.561
				L191.781,180.561z M186.705,162.927c-3.21,0-6.133,0.912-8.098,2.541c-0.432,0.336-0.48,0.766-0.192,1.25l0.771,1.096
				c0.38,0.527,0.669,0.578,1.194,0.197c1.627-1.293,3.881-1.92,5.987-1.92c4.553,0,5.414,2.918,5.414,5.748v1.916
				c-1.819-0.67-3.449-0.908-5.414-0.908c-6.321,0-9.151,3.061-9.151,7.092c0,3.977,2.688,6.943,7.667,6.943
				c3.308,0,5.414-1.242,7.142-3.354v2.016c0,0.619,0.238,0.861,0.861,0.861h1.771c0.623,0,0.861-0.242,0.861-0.861v-14.281
				C195.519,166.329,192.935,162.927,186.705,162.927 M536.786,48.285c-6.453,3.139-14.645,8.744-14.645,14.904
				c0,2.284,1.146,3.722,3.283,3.722C531.738,66.911,535.607,56.88,536.786,48.285 M538.482,21.434c0-0.699-0.404-0.995-0.992-0.995
				c-3.025,0-7.307,7.895-7.307,12.616C534.906,30.471,538.482,24.607,538.482,21.434 M563.9,22.023c0-0.7-0.154-1.584-1.035-1.584
				c-2.145,0-5.572,4.61-5.572,10.479C561.573,27.191,563.9,24.018,563.9,22.023 M574.486,58.172
				c0,6.456-5.572,13.209-13.766,13.209c-9.881,0-14.896-8.346-14.896-15.789c0-10.476,7.152-14.904,10.178-16.488
				c-0.584-0.442-1.031-1-1.438-1.734c-3.471,2.436-6.605,4.61-13.201,8.338c-0.297,4.575-0.701,9.594-1.881,13.055
				c-2.436,7.306-7.451,12.62-14.057,12.62c-5.564,0-8.301-4.022-8.301-8.346c0-3.13,1.846-7.151,5.168-10.174
				c4.168-3.727,8.74-6.015,15.049-9.337c0.146-0.846,0.293-1.69,0.439-2.726c-1.584,1.438-3.869,2.025-5.752,2.025
				c-2.988,0-5.457-2.575-6.014-5.311c-4.02-0.292-7.045-3.168-7.191-7.744c0-3.28,1.291-6.156,3.469-6.156
				c0.846,0,1.143,0.7,1.143,1.288c0,0.55-0.734,2.435-0.734,4.279c0,1.877,0.885,4.313,3.17,4.313
				c0-7.451,5.459-17.071,11.912-17.071c4.283,0,4.871,3.168,4.871,4.605c0,6.752-6.752,14.2-12.207,16.042
				c0.145,0.593,0.732,2.178,2.467,2.178c2.139,0,4.723-2.026,6.016-3.614c0.553-2.984,2.729-7.303,5.605-7.303
				c1.145,0,1.689,0.85,1.689,1.881c0,2.138-2.281,4.867-4.018,6.714c-0.258,1.438-0.404,3.024-0.404,4.313
				c5.016-3.021,7.6-4.57,11.324-7.302c-0.295-0.996-0.295-2.176-0.295-3.318c0-6.714,4.459-14.195,10.328-14.195
				c3.318,0,5.014,2.321,5.014,4.897c0,4.872-4.168,9.148-10.029,13.612c0.439,1.146,1.141,2.138,2.285,2.729
				c0.146-0.297,2.029-0.593,3.576-0.593c1.73,0,4.168,0.442,4.168,2.177c0,1.991-2.729,2.438-4.869,2.438
				c-1.141,0.146-3.02-0.3-3.02-0.3c-3.139,0.85-9.189,4.465-9.189,13.611c0,6.198,3.875,11.912,9.924,11.912
				c4.576,0,8.303-3.43,8.447-8.739c0-3.431-1.438-7.044-4.867-7.044c-1.734,0-3.283,1.292-3.283,3.172
				c-0.146,2.876,1.99,3.169,1.99,5.019c0,1.288-0.994,1.88-1.99,1.88c-2.877,0-5.053-2.876-5.053-6.456
				c0-4.313,3.76-7.895,8.629-7.895C571.2,46.847,574.486,52.308,574.486,58.172 M591.851,44.413
				c0-16.377-8.336-33.304-26.258-38.726c-3.727-1.146-6.857-1.882-10.479-1.882c-8.299,0-8.59,4.72-12.463,4.72
				c-2.141,0-3.58-1.546-3.58-3.428c0-3.284,3.877-5.868,10.033-5.868c5.756,0,10.178,1.442,11.031,1.848l0.146-0.404
				c-1.549-0.591-7.016-2.474-14.605-2.474c-16.525,0-33.309,8.48-38.729,26.262c-1.146,3.727-1.883,6.897-1.883,10.475
				c0,8.336,4.721,8.744,4.721,12.616c0,2.025-1.549,3.465-3.43,3.465c-3.283,0-5.863-3.761-5.863-10.067
				c0-5.718,1.434-10.182,1.695-11.027l-0.404-0.149c-0.441,1.734-2.326,7.044-2.326,14.644c0,16.638,8.482,33.419,26.264,38.875
				c3.723,1.146,6.895,1.85,10.475,1.85c8.336,0,8.594-4.876,12.465-4.876c2.031,0,3.615,1.592,3.615,3.584
				c0,3.168-3.76,5.752-10.07,5.752c-5.719,0-10.328-1.438-11.027-1.733l-0.145,0.441c1.584,0.7,7.043,2.284,14.645,2.284
				c16.484,0,33.41-8.332,38.723-26.264c1.145-3.575,1.846-6.858,1.846-10.319c0-8.448-4.719-8.744-4.719-12.62
				c0-2.138,1.436-3.576,3.43-3.576c3.32,0,5.9,3.876,5.9,10.183c0,5.606-1.439,10.032-1.734,11.024l0.445,0.149
				C590.12,57.469,591.851,52.161,591.851,44.413 M594.991,44.413c0,27.26-22.059,49.314-49.313,49.314
				c-27.264,0-49.355-22.056-49.355-49.314c0-27.255,22.094-49.348,49.355-49.348C572.933-4.934,594.991,17.305,594.991,44.413
				 M597.46,44.413c0-28.547-23.232-51.78-51.779-51.78c-28.555,0-51.787,23.233-51.787,51.78c0,28.658,23.232,51.787,51.787,51.787
				C574.226,96.2,597.46,73.071,597.46,44.413"/>
		</g>
		<g>
			<g>
				<g>
					<defs>
						<path id="SVGID_1_" d="M201.933,82.769v35.122c0,11.02-4.045,14.289-11.274,14.289c-6.367,0-10.924-3.096-10.924-14.197
							V82.769h-14.458v34.354c0,18.41,6.71,27.793,25.128,27.793c17.722,0,25.986-8.689,25.986-27.625V82.769H201.933z
							 M323.418,82.769v22.722h-23.325V82.769h-14.459v60.757h14.459v-25.297h23.324v25.297h14.459V82.769H323.418z M344.737,82.769
							v60.757h46.035v-12.135h-31.587v-13.162h24.291v-11.604h-24.291V94.82h30.035V82.769H344.737z M221.166,113.132v0.176
							c0,18.174,13.189,31.607,32.354,31.607c11.256,0,19.956-4.391,26.288-9.742v-26.697h-26.727v11.678h13.623v8.781
							c-3.426,2.457-7.824,3.289-12.746,3.289c-10.897,0-18.334-7.854-18.334-19.092v-0.178c0-10.446,7.521-18.892,17.363-18.892
							c8.891,0,13.074,3.964,15.84,6.071l10.047-9.094c-6.779-6.375-14.043-9.697-25.442-9.697
							C234.793,81.344,221.166,95.654,221.166,113.132 M395.358,99.742c0,9.032,4.649,13.938,13.942,17.474l7.66,2.922
							c8.256,3.184,10.586,4.129,10.586,7.229c0,2.58-2.238,4.99-8.867,4.99c-4.737,0-11.104-2.58-15.319-8.518l-11.187,9.721
							c6.195,7.402,16.439,11.447,26.16,11.447c14.23,0,22.701-6.82,24.201-16.258v-6.275c-1.154-7.174-6.461-11.504-16.281-14.903
							l-8.697-3.011c-6.021-2.064-7.311-3.787-7.311-6.452c0-2.757,2.492-4.563,6.283-4.563c5.592,0,10.409,1.893,15.832,8.179
							l10.174-8.632v-1.357c-5.699-6.434-13.336-10.49-23.688-10.49C405.259,81.242,395.358,88.726,395.358,99.742 M44.916,49.492
							h11.536c7.998,0,9.89,2.584,9.89,6.804c0,4.214-2.579,6.625-10.412,6.625H44.916V49.492z M44.916,25.744H55.93
							c7.316,0,8.951,2.407,8.951,6.021c0,4.042-2.757,6.11-8.774,6.11h-11.19V25.744z M30.458,14.041v60.754H56.36
							c8.774,0,13.857-0.776,17.729-3.185c4.562-2.931,7.486-8.091,7.486-14.111c0-7.917-4.218-13.171-12.393-14.721
							c6.794-2.321,10.328-7.052,10.328-13.335c0-6.108-2.67-11.017-7.148-13.25c-3.092-1.554-7.829-2.152-14.97-2.152H30.458z
							 M110.992,28.068c2.157,7.571,4.307,11.735,7.575,21.548h-15.488C106.264,40.234,108.674,35.639,110.992,28.068
							 M103.164,14.041L80.531,74.795h15.577l4.045-14.335h21.514l3.957,14.335h15.577l-21.683-60.754H103.164z M181.049,14.041
							l-22.645,29.646V14.042h-14.608v91.449h-23.175V82.769h-14.45v60.757h14.45v-25.297h23.175v68.133h14.608V43.687
							l22.645,31.107h17.47l-21.643-31.107l21.642-29.646L181.049,14.041L181.049,14.041z M201.933,14.041v60.754h46.042V62.662
							h-31.588v-13.17h24.288V37.881h-24.288V26.088h30.043V14.041H201.933z M267.528,25.744h11.416
							c7.313,0,8.948,2.407,8.948,6.021c0,4.042-2.758,6.11-8.778,6.11h-11.586V25.744L267.528,25.744z M253.071,14.041v60.754
							h14.457V49.492h7.571l13.513,25.303h16.694L289.214,49.67c8.002-2.153,13.771-7.317,13.771-17.216
							c0-4.134-1.031-8.433-3.787-11.788c-3.188-3.876-8.779-6.625-18.246-6.625H253.071z"/>
					</defs>
					<clipPath id="SVGID_2_">
						<use xlink:href="#SVGID_1_"  overflow="visible"/>
					</clipPath>
					
						<linearGradient id="SVGID_3_" gradientUnits="userSpaceOnUse" x1="131.1067" y1="38.468" x2="132.1067" y2="38.468" gradientTransform="matrix(0 173.1702 173.1702 0 -6424.8584 -22690.5762)">
						<stop  offset="0" style="stop-color:#00B4E5"/>
						<stop  offset="1" style="stop-color:#0069B3"/>
					</linearGradient>
					<rect x="30.458" y="14.041" clip-path="url(#SVGID_2_)" fill="url(#SVGID_3_)" width="412.077" height="172.321"/>
				</g>
			</g>
		</g>
	</g>
</g>
</svg>
