<?xml version="1.0" encoding="UTF-8" standalone="no"?>
<svg
   xmlns:dc="http://purl.org/dc/elements/1.1/"
   xmlns:cc="http://creativecommons.org/ns#"
   xmlns:rdf="http://www.w3.org/1999/02/22-rdf-syntax-ns#"
   xmlns:svg="http://www.w3.org/2000/svg"
   xmlns="http://www.w3.org/2000/svg"
   viewBox="0 0 90.866662 76.405464"
   height="76.405464"
   width="90.866661"
   xml:space="preserve"
   id="svg2"
   version="1.1"><metadata
     id="metadata8"><rdf:RDF><cc:Work
         rdf:about=""><dc:format>image/svg+xml</dc:format><dc:type
           rdf:resource="http://purl.org/dc/dcmitype/StillImage" /></cc:Work></rdf:RDF></metadata><defs
     id="defs6"><clipPath
       id="clipPath22"
       clipPathUnits="userSpaceOnUse"><path
         id="path20"
         d="M 0,70.738 H 90.874 V 0 H 0 Z" /></clipPath></defs><g
     transform="matrix(1.3333333,0,0,-1.3333333,-16.4328,85.903865)"
     id="g10"><g
       transform="translate(80.4746,14.6768)"
       id="g12"><path
         id="path14"
         style="fill:#a7173c;fill-opacity:1;fill-rule:nonzero;stroke:none"
         d="m 0,0 -62.82,-7.553 -5.33,43.948 62.821,7.552 z" /></g><g
       id="g16"><g
         clip-path="url(#clipPath22)"
         id="g18"><g
           transform="translate(68.6709,57.7119)"
           id="g24"><path
             id="path26"
             style="fill:#a7173c;fill-opacity:1;fill-rule:nonzero;stroke:none"
             d="m 0,0 5.36,6.716 c 0,0 -4.271,-2.848 -8.562,-6.966 z" /></g><g
           transform="translate(65.4688,57.4624)"
           id="g28"><path
             id="path30"
             style="fill:#ffffff;fill-opacity:1;fill-rule:nonzero;stroke:none"
             d="m 0,0 c -0.517,-0.495 -1.033,-1.009 -1.542,-1.538 -4.744,-4.929 -5.854,-6.284 -5.854,-6.284 l -4.436,3.019 4.005,-12.2 c 0,0 5.669,10.537 11.029,17.253 z" /></g><g
           transform="translate(27.3887,27.9521)"
           id="g32"><path
             id="path34"
             style="fill:#ffffff;fill-opacity:1;fill-rule:nonzero;stroke:none"
             d="m 0,0 0.924,-7.518 2.404,0.309 c 0,0 3.237,0.305 2.895,4.066 C 5.915,0.246 3.759,0.493 2.342,0.369 0.925,0.246 0,0 0,0 m -1.602,13.37 0.74,-6.347 2.279,0.186 c 0,0 3.02,0.123 2.896,3.265 C 4.19,13.617 1.972,13.802 0.555,13.678 -0.862,13.555 -1.602,13.37 -1.602,13.37 m 5.73,7.764 c 4.292,0.429 7.456,-2.65 8.195,-8.257 0.74,-5.607 -3.82,-7.702 -3.82,-7.702 0,0 6.47,-0.123 6.655,-9.55 0.174,-8.881 -9.243,-9.858 -9.243,-9.858 l -11.953,-1.233 -4.436,34.69 c 0,0 10.289,1.478 14.602,1.91" /></g><g
           transform="translate(43.1621,50.5029)"
           id="g36"><path
             id="path38"
             style="fill:#ffffff;fill-opacity:1;fill-rule:nonzero;stroke:none"
             d="m 0,0 7.948,0.924 c 0,0 3.573,-24.83 3.266,-30.438 -0.308,-5.607 -3.943,-10.043 -3.943,-10.043 l -3.081,-0.37 -4.252,4.437 c 0,0 2.527,1.047 3.328,5.422 C 4.066,-25.693 0,0 0,0" /></g><g
           transform="translate(72.3682,34.4209)"
           id="g40"><path
             id="path42"
             style="fill:#ffffff;fill-opacity:1;fill-rule:nonzero;stroke:none"
             d="m 0,0 c -1.355,0.555 -3.712,1.477 -5.237,1.294 -1.23,-0.148 -2.169,-0.597 -2.034,-1.725 0.156,-1.285 1.644,-1.602 2.762,-1.794 l 1.641,-0.247 c 3.546,-0.362 6.444,-1.664 6.873,-5.229 0.264,-2.193 -0.277,-4.592 -2.004,-6.312 -1.699,-1.686 -4.136,-2.601 -6.55,-2.891 -3.018,-0.364 -6.309,0.216 -8.945,1.501 l 1.664,6.038 c 1.708,-1.07 4.005,-1.972 6.407,-1.972 1.473,0 2.405,0.361 2.219,1.91 -0.193,1.608 -2.106,1.8 -3.483,1.989 -4.03,0.553 -6.911,1.263 -7.423,5.529 -0.537,4.472 2.781,7.987 7.579,8.564 2.414,0.29 5.808,-0.379 8.071,-1.233 z" /></g><g
           transform="translate(70.9092,45.5186)"
           id="g44"><path
             id="path46"
             style="fill:#ffffff;fill-opacity:1;fill-rule:nonzero;stroke:none"
             d="M 0,0 C 0.278,0.034 0.524,0.083 0.484,0.416 0.452,0.685 0.203,0.705 -0.025,0.677 l -0.448,-0.054 0.08,-0.67 z M -0.246,-1.265 -0.574,-1.304 -0.835,0.862 -0.01,0.961 C 0.502,1.023 0.778,0.865 0.83,0.437 0.876,0.05 0.653,-0.149 0.34,-0.227 L 1.071,-1.106 0.703,-1.151 0.019,-0.28 -0.358,-0.325 Z M 0.21,-1.699 c 0.85,0.102 1.439,0.849 1.331,1.753 -0.106,0.89 -0.858,1.48 -1.708,1.378 -0.859,-0.103 -1.45,-0.855 -1.343,-1.745 0.109,-0.904 0.86,-1.489 1.72,-1.386 m -2.098,1.341 C -2.017,0.72 -1.238,1.62 -0.204,1.744 0.819,1.867 1.789,1.178 1.919,0.1 2.05,-0.989 1.271,-1.89 0.247,-2.013 c -1.033,-0.124 -2.004,0.567 -2.135,1.655" /></g></g></g></g></svg>