<?xml version="1.0" encoding="UTF-8" standalone="no"?>
<svg
   xmlns:dc="http://purl.org/dc/elements/1.1/"
   xmlns:cc="http://creativecommons.org/ns#"
   xmlns:rdf="http://www.w3.org/1999/02/22-rdf-syntax-ns#"
   xmlns:svg="http://www.w3.org/2000/svg"
   xmlns="http://www.w3.org/2000/svg"
   viewBox="0 0 257.0083 257.00827"
   height="257.00827"
   width="257.0083"
   xml:space="preserve"
   id="svg2"
   version="1.1"><metadata
     id="metadata8"><rdf:RDF><cc:Work
         rdf:about=""><dc:format>image/svg+xml</dc:format><dc:type
           rdf:resource="http://purl.org/dc/dcmitype/StillImage" /></cc:Work></rdf:RDF></metadata><defs
     id="defs6" /><g
     transform="matrix(1.3333333,0,0,-1.3333333,-0.34635466,257.76399)"
     id="g10"><g
       transform="scale(0.1)"
       id="g12"><path
         id="path14"
         style="fill:#ffffff;fill-opacity:1;fill-rule:evenodd;stroke:none"
         d="M 2.59766,1933.23 H 1930.16 V 5.66797 H 2.59766 V 1933.23" /><path
         id="path16"
         style="fill:#231f20;fill-opacity:1;fill-rule:evenodd;stroke:none"
         d="m 1741.83,576.398 c 30.58,3.926 52.2,32 48.29,62.715 l -98.32,861.497 c -3.92,30.7 -31.89,52.4 -62.49,48.48 L 79.6797,1327.51 C 49.0781,1323.57 27.4688,1295.5 31.3867,1264.8 L 174.742,373.102 c 3.918,-30.7 31.887,-52.395 62.469,-48.457 L 1741.83,576.398" /><path
         id="path18"
         style="fill:#ffffff;fill-opacity:1;fill-rule:evenodd;stroke:none"
         d="m 1802.3,623.617 c 30.59,3.938 52.22,32.008 48.3,62.707 l -109.25,860.556 c -3.91,30.7 -31.87,52.4 -62.47,48.46 L 169.566,1401.79 c -30.597,-3.93 -52.207,-32 -48.289,-62.72 L 230.512,478.535 c 3.922,-30.703 31.886,-52.41 62.472,-48.476 L 1802.3,623.617" /><path
         id="path20"
         style="fill:#ffffff;fill-opacity:1;fill-rule:evenodd;stroke:none"
         d="m 1815.96,642.277 c 30.6,3.93 52.22,32.004 48.3,62.707 l -109.24,860.556 c -3.92,30.7 -31.88,52.4 -62.47,48.47 L 183.227,1420.46 c -30.582,-3.94 -52.207,-32.01 -48.286,-62.71 L 244.188,497.191 c 3.906,-30.703 31.871,-52.398 62.468,-48.476 L 1815.96,642.277" /><g
         transform="scale(0.998094,1.00191)"
         id="g22"><path
           id="path24"
           style="fill:none;stroke:#dc5352;stroke-width:17.61870003;stroke-linecap:butt;stroke-linejoin:miter;stroke-miterlimit:2.61310005;stroke-dasharray:none;stroke-opacity:1"
           d="m 1819.43,641.055 c 30.66,3.923 52.31,31.943 48.39,62.588 l -109.44,858.917 c -3.94,30.65 -31.95,52.3 -62.6,48.38 L 183.576,1417.75 c -30.64,-3.93 -52.306,-31.95 -48.377,-62.59 L 244.654,496.245 c 3.914,-30.644 31.932,-52.298 62.588,-48.384 z" /></g><path
         id="path26"
         style="fill:#dc5352;fill-opacity:1;fill-rule:evenodd;stroke:none"
         d="m 179.902,1010.92 64.286,-513.729 c 3.906,-30.703 31.871,-52.398 62.468,-48.476 L 1815.96,642.277 c 30.6,3.93 52.22,32.004 48.3,62.707 L 1799.98,1218.71 179.902,1010.92" /><g
         transform="scale(0.998094,1.00191)"
         id="g28"><path
           id="path30"
           style="fill:none;stroke:#dc5352;stroke-width:14.09500027;stroke-linecap:butt;stroke-linejoin:miter;stroke-miterlimit:2.61310005;stroke-dasharray:none;stroke-opacity:1"
           d="m 180.246,1009 64.408,-512.755 c 3.914,-30.644 31.932,-52.298 62.588,-48.384 L 1819.43,641.055 c 30.66,3.923 52.31,31.943 48.39,62.588 l -64.4,512.757 z" /></g><path
         id="path32"
         style="fill:#ffffff;fill-opacity:1;fill-rule:evenodd;stroke:none"
         d="m 320.809,798.766 -29.293,-3.774 -64.317,155.211 c -1.836,4.535 -2.543,6.203 -7.234,7.613 -3.91,1.243 -6.277,2.204 -6.848,6.649 -1.043,8.144 9.055,9.441 14.715,10.176 l 57.102,7.336 c 5.406,0.695 13.929,2.554 14.933,-5.356 1.082,-8.406 -10.285,-7.598 -9.117,-16.742 0.281,-2.227 0.969,-3.645 2.02,-6.027 l 35.933,-87.532 z m 33.281,192.105 47.965,-119.133 -7.657,-63.515 -29.293,-3.766 -47.183,114.973 8.348,67.863 z m 39.879,-71.453 4.441,39.727 c 0.297,3.562 0.903,6.652 0.43,10.351 -1.637,12.856 -16.895,8.879 -18.063,18.024 -0.718,5.679 4.321,7.332 8.746,7.91 l 31.754,4.082 c 4.676,0.598 10.145,0.798 10.965,-5.629 0.485,-3.699 -1.367,-4.942 -4.379,-6.836 -11.601,-7.016 -13.699,-16.082 -15.324,-28.836 l -7.754,-64.777 -0.519,0.175 z m 148.98,-63.969 c 1.168,-9.14 1.121,-10.664 10.078,-12.269 3.321,-0.575 5.821,-2.516 6.266,-5.977 0.922,-7.16 -7.145,-8.695 -8.125,-8.828 l -69.656,-8.945 c -0.981,-0.137 -9.168,-0.684 -10.09,6.476 -0.434,3.465 1.504,5.977 4.566,7.375 8.278,3.824 7.844,5.266 6.676,14.41 l -16.523,129.461 c -1.168,9.145 -1.106,10.653 -10.063,12.258 -3.328,0.586 -5.832,2.516 -6.269,5.981 -0.918,7.159 7.148,8.699 8.129,8.829 l 69.656,8.96 c 0.98,0.12 9.168,0.66 10.074,-6.49 0.445,-3.47 -1.488,-5.97 -4.555,-7.366 -8.277,-3.836 -7.843,-5.277 -6.675,-14.422 z m 25.199,63.258 -21.648,-2.793 -1.824,14.336 21.652,2.781 -7.16,56.082 c -1.164,9.141 -1.105,10.649 -10.063,12.267 -3.324,0.57 -5.832,2.52 -6.261,5.96 -0.918,7.18 7.144,8.71 8.121,8.84 l 69.656,8.95 c 0.981,0.13 9.168,0.69 10.074,-6.49 0.45,-3.46 -1.488,-5.96 -4.554,-7.36 -8.274,-3.82 -7.836,-5.28 -6.672,-14.425 l 16.527,-129.449 c 1.152,-9.144 1.102,-10.652 10.059,-12.265 3.328,-0.575 5.824,-2.52 6.265,-5.969 0.922,-7.176 -7.144,-8.707 -8.125,-8.828 l -69.656,-8.961 c -0.976,-0.121 -9.168,-0.684 -10.07,6.492 -0.449,3.449 1.488,5.965 4.547,7.359 8.277,3.825 7.843,5.282 6.675,14.422 z m 158.668,109.273 c -11.031,-5.67 -11.066,-13.22 -10.285,-19.39 l 16.328,-127.985 c 0.793,-6.164 2.715,-13.449 14.825,-16.164 l 1.828,-14.332 c -52.782,-2.007 -82.539,37.098 -88.801,86.258 -6.277,49.172 12.691,94.543 64.273,105.953 z M 758.75,865.859 c 11.031,5.692 11.07,13.231 10.289,19.407 l -16.328,127.964 c -0.781,6.18 -2.715,13.47 -14.828,16.18 l -1.824,14.33 c 52.781,2.01 82.535,-37.1 88.8,-86.263 6.278,-49.161 -12.695,-94.543 -64.269,-105.942 z m 167.238,10.704 -64.972,-8.348 c -0.985,-0.125 -9.172,-0.688 -10.09,6.488 -0.43,3.449 1.488,5.969 4.566,7.363 8.274,3.825 7.828,5.282 6.664,14.422 l -16.515,129.452 c -1.164,9.14 -1.106,10.65 -10.063,12.27 -3.324,0.57 -5.828,2.51 -6.265,5.96 -0.918,7.18 7.148,8.71 8.125,8.84 l 69.644,8.95 c 0.992,0.12 9.18,0.68 10.086,-6.49 0.449,-3.46 -1.492,-5.97 -4.563,-7.36 -8.265,-3.82 -7.828,-5.28 -6.664,-14.42 z m 9.246,15.75 c 19.594,5.285 28.711,24.039 30.946,47.679 0.531,5.594 3.3,7.446 8.457,8.121 5.672,0.719 6.765,-3.914 7.359,-8.605 l 7,-54.84 -51.937,-6.68 z m 48.391,179.487 64.975,8.36 23.57,-184.805 -64.97,-8.347 c -0.99,-0.133 -9.173,-0.684 -10.091,6.476 -0.433,3.465 1.493,5.977 4.561,7.371 8.28,3.825 7.83,5.286 6.68,14.422 l -16.53,129.453 c -1.164,9.15 -1.105,10.65 -10.062,12.26 -3.32,0.58 -5.828,2.52 -6.262,5.98 -0.918,7.16 7.149,8.71 8.129,8.83 z m 76.045,9.77 54.88,7.07 6.4,-50.16 c 0.16,-1.23 0.52,-5.96 -6.88,-6.91 -4.18,-0.53 -5.72,1.78 -7.43,5.32 -8.94,19.19 -23.04,29.68 -45.14,30.36 z m 21.75,-170.461 c 19.62,5.032 33.15,20.59 37.27,41.204 1.25,3.929 2.22,8.07 6.65,8.64 7.87,1.008 8.09,-6.504 8.21,-7.484 l 6.3,-49.41 -56.61,-7.274 z m -11.22,87.957 c 9.99,4.044 13.44,14.284 14.45,23.954 0.7,4.35 1.67,8.5 6.84,9.16 7.63,0.99 7.53,-8.07 7.78,-10.05 l 6.81,-53.357 c 0.25,-1.98 2.62,-10.71 -5.01,-11.695 -5.18,-0.672 -7.14,3.102 -8.92,7.137 -3.41,9.105 -9.32,18.137 -20,19.531 z m 131.85,90.024 c -8.94,-4.43 -16.17,-12.38 -14.89,-22.51 1.54,-12.11 9.14,-18.67 39.87,-26.26 45.71,-11.2 58.51,-33.16 61.42,-55.89 4.89,-38.297 -23.69,-67.328 -60.02,-72.746 l -1.82,14.32 c 11.34,5.234 20.74,11.957 19.49,25.605 -1.49,15.633 -20.52,19.715 -32.99,23.391 -32.68,9.105 -63.28,19.48 -68.23,58.26 -4.79,37.57 19.32,64.27 55.33,70.15 z m 70.2,-30.65 c 0.72,-5.69 0.52,-11.99 -6.61,-12.91 -5.91,-0.76 -8.72,3.65 -10.09,8.5 -5.03,17.93 -22.69,34.74 -42.43,36.48 l -1.83,14.32 c 15.54,1.75 33.23,-5.52 35.94,-5.17 6.4,0.82 4.77,9.65 11.16,10.48 7.63,0.98 8.22,-7.48 8.47,-9.46 z m -118.29,-96.319 c -0.66,5.184 -0.55,12.234 6.33,13.117 4.92,0.633 8.87,-2.879 10.15,-6.988 5.97,-19.316 22.86,-42.008 45.09,-43.664 l 1.83,-14.34 c -21.47,-2.25 -27.25,5.797 -36.11,4.66 -7.88,-1.023 -6.09,-9.078 -12.25,-9.859 -7.63,-0.988 -8.8,8.156 -8.96,9.387 z m 197.43,93.429 -12.35,-87.46 c -2.02,-15.582 1.96,-19.344 10.81,-21.973 4.15,-1.215 7.79,-2.265 8.42,-7.195 0.89,-6.926 -7.03,-7.684 -11.95,-8.32 l -28.3,-3.637 c -4.92,-0.637 -13.82,-1.531 -14.73,5.64 -0.75,5.93 3.45,6.215 8.53,9.629 4.81,3.387 10.73,9.922 13.18,28.059 l 15.69,112.257 0.75,0.1 z m 35.83,-70.98 -35.94,-4.613 1.62,14.77 30.03,3.851 -38.79,106.012 1.49,13.75 54.39,6.99 56.84,-151.389 c 2.36,-6.726 3.2,-11.398 10.47,-13.476 3.64,-1.035 6.57,-2.414 7.14,-6.863 0.84,-6.672 -8.04,-7.559 -12.72,-8.168 l -61.29,-7.868 c -4.91,-0.64 -12.11,-1.062 -12.94,5.364 -0.5,3.945 0.82,5.383 3.79,7.511 5.93,4.536 6.69,6.387 3.26,15.747 z m 173.92,-26.359 -64.97,-8.344 c -0.98,-0.14 -9.17,-0.687 -10.07,6.488 -0.45,3.45 1.48,5.969 4.56,7.364 8.26,3.824 7.83,5.281 6.66,14.422 l -16.51,129.449 c -1.17,9.14 -1.12,10.65 -10.08,12.27 -3.32,0.57 -5.82,2.52 -6.26,5.97 -0.92,7.17 7.14,8.7 8.12,8.83 l 69.66,8.95 c 0.98,0.13 9.17,0.69 10.07,-6.48 0.45,-3.47 -1.49,-5.97 -4.55,-7.37 -8.27,-3.82 -7.84,-5.28 -6.68,-14.42 z m 9.25,15.758 c 19.59,5.281 28.71,24.023 30.94,47.671 0.55,5.59 3.3,7.45 8.47,8.13 5.66,0.71 6.75,-3.92 7.35,-8.61 l 7,-54.84 -51.93,-6.675 z m 48.39,179.481 64.98,8.36 23.57,-184.802 -64.98,-8.344 c -0.98,-0.129 -9.17,-0.687 -10.07,6.488 -0.45,3.45 1.49,5.965 4.56,7.36 8.27,3.82 7.83,5.281 6.66,14.426 l -16.51,129.452 c -1.17,9.14 -1.12,10.65 -10.08,12.27 -3.32,0.57 -5.81,2.5 -6.26,5.96 -0.92,7.16 7.15,8.71 8.13,8.83 z m 76.05,9.78 54.88,7.06 6.41,-50.16 c 0.15,-1.23 0.5,-5.96 -6.88,-6.91 -4.18,-0.53 -5.73,1.78 -7.43,5.32 -8.96,19.19 -23.06,29.68 -45.15,30.37 z m 21.76,-170.468 c 19.61,5.031 33.13,20.588 37.25,41.198 1.25,3.93 2.22,8.07 6.65,8.65 7.88,1 8.09,-6.49 8.21,-7.49 l 6.31,-49.409 -56.6,-7.27 z m -11.24,87.958 c 9.99,4.04 13.44,14.28 14.46,23.95 0.69,4.36 1.66,8.5 6.83,9.16 7.64,0.99 7.54,-8.07 7.79,-10.05 l 6.81,-53.35 c 0.26,-1.98 2.61,-10.71 -5.01,-11.7 -5.17,-0.66 -7.15,3.1 -8.91,7.14 -3.42,9.1 -9.32,18.13 -20,19.53 z M 1205.34,867.504 c 9.13,0.937 29.31,-6.266 35.71,-5.441 3.7,0.472 4.99,2.14 6.04,5.539 1.07,3.402 2.55,5.609 6,6.043 7.87,1.019 8.84,-6.637 9,-7.883 l 7.31,-57.317 c 0.16,-1.234 1.14,-8.894 -6.74,-9.898 -5.17,-0.66 -8.66,3.148 -10.25,7.719 -6.72,19.476 -21.57,43.675 -45.24,46.918 z m 65.69,-128.656 c 4.67,0.613 7.89,-3 8.46,-7.45 2.08,-20.324 -23.91,-53.789 -49.63,-56.093 l -1.83,14.32 c 18.42,6.641 32.81,21.301 35.89,40.281 0.94,4.383 1.94,8.282 7.11,8.942 z m -52.25,-64.965 c -54.27,-5.977 -85.13,31.984 -91.6,82.64 -7.27,57.067 19.55,101.688 67.08,109.563 l 1.82,-14.324 c -11.5,-4 -14.14,-14.633 -12.81,-25.008 l 14.93,-117.102 c 1.34,-10.375 6.56,-20.004 18.76,-21.445 z m 159.7,22.867 -64.97,-8.355 c -0.99,-0.125 -9.17,-0.676 -10.09,6.488 -0.43,3.465 1.49,5.965 4.56,7.371 8.27,3.824 7.83,5.269 6.67,14.414 l -16.52,129.461 c -1.16,9.133 -1.1,10.656 -10.06,12.262 -3.32,0.582 -5.83,2.511 -6.26,5.976 -0.92,7.16 7.13,8.707 8.12,8.828 l 69.65,8.957 c 0.99,0.121 9.17,0.672 10.08,-6.488 0.45,-3.465 -1.48,-5.965 -4.56,-7.375 -8.27,-3.824 -7.83,-5.266 -6.67,-14.41 z m 9.25,15.758 c 19.59,5.281 28.7,24.023 30.95,47.664 0.52,5.594 3.29,7.457 8.46,8.121 5.66,0.734 6.75,-3.902 7.35,-8.598 l 7,-54.847 -51.94,-6.676 z m 180.36,156.765 c -7.88,30.375 -22.41,18.719 -23.76,29.344 -0.98,7.66 9.18,8.469 11.89,8.805 l 28.05,3.613 c 2.71,0.348 12.75,2.141 13.71,-5.519 1.37,-10.621 -15.62,-3.012 -15.62,-34.399 l 11.89,-93.137 c 3.22,-41.023 -24.17,-59.609 -40.13,-61.91 l -1.86,14.567 c 21.75,9.832 28.97,23.816 27.65,45.996 z m -24.98,-155.125 c -19.45,-2.5 -34.5,-4.183 -52.67,3.028 -23.73,9.504 -27.89,18.508 -29.46,30.863 l -14.94,117.102 c -1.16,9.14 -1.1,10.656 -10.08,12.265 -3.32,0.574 -5.81,2.516 -6.25,5.981 -0.91,7.156 7.14,8.691 8.13,8.828 l 69.64,8.941 c 1,0.141 9.17,0.688 10.09,-6.472 0.43,-3.465 -1.49,-5.981 -4.57,-7.375 -8.26,-3.825 -7.83,-5.282 -6.66,-14.414 l 15.16,-118.84 c 0.31,-2.465 0.6,-22.27 19.74,-25.332 z m 169.43,25.313 -66.21,-8.512 c -1.71,-0.222 -7.92,-0.519 -8.85,6.645 -0.44,3.457 1.5,5.961 4.57,7.367 8.27,3.824 7.83,5.269 6.66,14.414 l -16.51,129.449 c -1.16,9.145 -1.11,10.664 -10.07,12.27 -3.33,0.586 -5.82,2.519 -6.27,5.98 -0.91,7.16 5.18,8.446 6.9,8.668 l 66.2,8.504 z m -12.49,186.219 7.63,0.984 c 15.49,1.992 31.28,3.762 46.44,-1.32 16.24,-5.692 26.74,-17.399 28.97,-34.949 3.47,-27.176 -17.57,-42.684 -40.97,-49.457 l 0.06,-0.497 c 27.89,-0.933 51.09,-10.25 55.03,-41.14 2.24,-17.535 -3.63,-32.352 -18.03,-42.992 -14.62,-10.907 -30.21,-12.168 -47.68,-14.411 l -7.88,-1.019 -1.82,14.332 c 16.38,2.852 17.16,12.504 16.03,21.398 l -4.08,31.875 c -1.45,11.356 -5.5,21.633 -21.42,20.844 l -1.83,14.324 c 17.79,3.801 16.91,14.485 15.75,23.629 l -3.15,24.696 c -1.32,10.375 -6.28,19.793 -21.23,19.371 l -1.82,14.332" /><path
         id="path34"
         style="fill:#dc5352;fill-opacity:1;fill-rule:evenodd;stroke:none"
         d="m 1134.33,1475.54 76.8,9.88 c 59.6,7.66 90.64,-18.96 96.17,-62.32 4.61,-36.14 -8.06,-64.3 -40.74,-75.84 l 0.11,-0.8 c 35.81,-0.3 57.99,-24.39 62.8,-62.12 4.15,-32.52 -9.73,-86.14 -70.13,-93.89 l -87.2,-11.22 z m 75.17,-111.13 c 23.99,3.09 40.06,14.13 36.79,39.83 -3.08,24.09 -21.41,30.7 -45.4,27.62 z m 15.57,-122.06 c 26.8,3.44 41.36,13.48 37.68,42.38 -3.69,28.91 -20.31,34.94 -47.11,31.49 z m 119.2,21.45 c 5.75,-3.75 16.06,-4.87 25.66,-3.64 14.81,1.89 21.78,10.97 18.8,34.24 l -26.84,210.4 62.4,8.02 29.36,-230.06 c 5.88,-46.17 -16.64,-73.56 -54.64,-78.44 -16.39,-2.11 -32.81,-0.96 -47.78,4.87 z m 280.89,117.77 c -9.36,3.29 -18.57,5.37 -25.76,4.45 -7.61,-0.98 -14.86,-4.77 -13.83,-12.81 2.92,-22.87 66.18,-2.5 74.43,-67.14 5.64,-44.17 -18.36,-66.43 -56.76,-71.37 -17.19,-2.21 -39.6,-1.82 -55.68,6.31 l 14.26,47.54 c 10.07,-5.64 17.68,-7.93 29.28,-6.44 9.2,1.18 15.13,5.62 13.86,15.66 -2.92,22.89 -63.11,10.25 -69.81,62.84 -4.56,35.75 19.41,64.53 54.21,69 15.6,2.01 33.02,-0.65 49.08,-5.52 z m -108.56,143.36 5.99,-46.98 c 1.54,-12.05 2.11,-35.64 -21.94,-54.25 -7.09,-4.99 -16.88,-7.88 -24.73,-10.11 l -2.36,18.48 c 7.46,2.17 18.74,9.33 23.37,17.69 5.52,7.65 5.89,17.49 2.87,22 l -30.79,-3.96 -6.4,50.19 53.99,6.94" /><g
         transform="scale(0.998094,1.00191)"
         id="g36"><path
           id="path38"
           style="fill:none;stroke:#231f20;stroke-width:10.57120037;stroke-linecap:butt;stroke-linejoin:miter;stroke-miterlimit:2.61310005;stroke-dasharray:none;stroke-opacity:1"
           d="m 1905.44,1566.13 c 0,24.61 -19.98,45.5 -44.6,45.5 -24.63,0 -45.06,-20.89 -45.06,-45.5 0,-24.76 20.43,-45.65 45.06,-45.65 24.62,0 44.6,20.89 44.6,45.65 z" /></g><path
         id="path40"
         style="fill:#231f20;fill-opacity:1;fill-rule:evenodd;stroke:none"
         d="m 1845.38,1540.57 c -1.34,0.15 -2.68,0.45 -3.88,0.45 -1.34,0 -2.68,-0.3 -3.87,-0.45 v 57.09 h 18.77 c 13.7,0 19.65,-4.33 19.65,-12.7 0,-9.72 -9.23,-14.35 -18.16,-15.84 l 18.31,-21.82 4.17,-4.64 1.64,-2.09 c -1.79,0.15 -3.42,0.45 -5.06,0.45 -1.64,0 -3.43,-0.3 -5.06,-0.45 -1.94,2.54 -3.73,4.93 -5.51,7.32 l -10.58,12.7 -6.99,7.78 h -3.43 z m 0,32.28 h 9.68 c 8.19,0 13.25,4.63 13.25,11.06 0,5.83 -3.27,8.97 -9.97,9.27 h -12.96 v -20.33" /></g></g></svg>