<?xml version="1.0" encoding="UTF-8" standalone="no"?>
<svg
   xmlns:dc="http://purl.org/dc/elements/1.1/"
   xmlns:cc="http://creativecommons.org/ns#"
   xmlns:rdf="http://www.w3.org/1999/02/22-rdf-syntax-ns#"
   xmlns:svg="http://www.w3.org/2000/svg"
   xmlns="http://www.w3.org/2000/svg"
   xmlns:sodipodi="http://sodipodi.sourceforge.net/DTD/sodipodi-0.dtd"
   xmlns:inkscape="http://www.inkscape.org/namespaces/inkscape"
   viewBox="0 0 625.27353 305.07032"
   sodipodi:docname="Broadcom (1991).svg"
   version="1.0"
   inkscape:version="1.0 (4035a4fb49, 2020-05-01)"
   sodipodi:version="0.32"
   id="svg2525"
   height="1241.7385"
   width="2545.073">
  <defs
     id="defs2527" />
  <sodipodi:namedview
     inkscape:window-maximized="1"
     fit-margin-bottom="0"
     fit-margin-right="0"
     fit-margin-left="0"
     fit-margin-top="0"
     showgrid="false"
     inkscape:document-rotation="0"
     inkscape:window-y="-8"
     inkscape:window-x="-8"
     inkscape:window-height="705"
     inkscape:window-width="1366"
     inkscape:current-layer="layer1"
     inkscape:document-units="px"
     inkscape:cy="559.66207"
     inkscape:cx="1002.3683"
     inkscape:zoom="0.32490096"
     inkscape:pageshadow="2"
     inkscape:pageopacity="0.0"
     borderopacity="1.0"
     bordercolor="#666666"
     pagecolor="#ffffff"
     id="base" />
  <metadata
     id="metadata2530">
    <rdf:RDF>
      <cc:Work
         rdf:about="">
        <dc:format>image/svg+xml</dc:format>
        <dc:type
           rdf:resource="http://purl.org/dc/dcmitype/StillImage" />
        <dc:title></dc:title>
      </cc:Work>
    </rdf:RDF>
  </metadata>
  <g
     transform="translate(-86.950707,-318.79883)"
     id="layer1"
     inkscape:groupmode="layer"
     inkscape:label="Ebene 1">
    <path
       style="fill:#ff0000;fill-rule:nonzero;stroke:none"
       d="m 712.22426,585.62456 h -41.81267 c -17.59613,0.0871 -39.63492,-24.12938 -68.90375,-23.86804 -42.7709,0.43556 -64.37408,41.89977 -105.31568,41.3771 -27.8751,-0.26133 -28.31065,-17.94462 -38.67669,-35.54075 h -26.56846 c 7.66566,17.59613 18.46725,55.8373 64.80959,56.27286 46.77795,0.43556 60.36708,-40.94154 105.31568,-40.94154 26.1329,0 45.90683,22.90985 69.77487,22.90985 h 41.37711 v -20.20948"
       class="ps01"
       id="path2085" />
    <path
       style="fill:#ff0000;fill-rule:nonzero;stroke:none"
       d="m 86.950707,585.62456 h 32.404823 c 17.59618,0.0871 39.63492,-24.12938 68.9038,-23.86804 42.68374,0.43556 64.37408,41.89977 105.31563,41.3771 27.8751,-0.26133 28.31066,-17.94462 38.67674,-35.54075 h 26.56846 c -7.66566,17.59613 -18.46725,55.8373 -64.80964,56.27286 -46.7779,0.43556 -60.27991,-40.94154 -105.31563,-40.94154 -26.13295,0 -45.90683,22.90985 -69.77492,22.90985 H 86.950707 v -20.20948"
       class="ps01"
       id="path2095" />
    <path
       style="fill:#ff0000;fill-rule:nonzero;stroke:none;stroke-width:0.224;stroke-linecap:butt;stroke-linejoin:miter;stroke-miterlimit:4;stroke-dasharray:none"
       d="M 435.21535,469.33312 409.95356,469.246 399.23904,356.78734 c -0.60974,-5.74924 -3.57149,-5.31368 -3.57149,-5.31368 0,0 -2.96171,-0.43556 -3.5715,5.31368 L 381.20735,469.246 h -25.17472 l 14.80864,-122.30206 c 4.18128,-29.35595 24.82628,-28.13643 24.82628,-28.13643 0,0 20.55788,-1.30664 24.82627,28.13643 l 14.72153,122.38918"
       class="ps01 ps10"
       id="path2105" />
    <g
       id="g37">
      <path
         id="path2151"
         class="ps03"
         d="m 116.2196,552.26156 11.93404,-67.51002 h 32.2306 c 15.15709,0 26.65553,3.5715 24.3036,16.9864 -1.21956,6.96876 -6.62036,12.02111 -11.41137,14.72153 6.96876,1.8293 9.75629,8.18828 8.53673,15.41842 -2.70038,15.06998 -15.15709,20.38367 -32.66616,20.38367 z m 27.09113,-28.22355 -2.17775,12.45667 h 9.66919 c 5.40079,0 9.75625,-1.13241 10.62736,-6.1848 1.0453,-5.92342 -4.00705,-6.27187 -11.06292,-6.27187 z m 4.18123,-23.51964 -2.00352,11.23715 h 9.23367 c 4.35545,0 7.92694,-1.91641 8.62384,-5.92347 0.87112,-5.22657 -3.39727,-5.31368 -8.10122,-5.31368 h -7.75277"
         style="fill:#000000;fill-rule:nonzero;stroke:none" />
      <path
         id="path2153"
         class="ps03"
         d="m 208.38166,528.74191 -4.18127,23.51965 h -22.03875 l 11.84694,-67.51002 h 31.88215 c 22.4743,0 28.83332,6.09765 26.48135,19.25121 -1.39374,7.75277 -6.01058,14.28602 -14.19891,16.46377 6.62036,2.61326 10.62742,4.35545 8.27544,17.94458 -1.56797,8.79811 -2.43908,11.75982 0.26134,11.75982 l -0.34845,2.09064 h -22.4743 c -0.26134,-1.48086 -0.0871,-5.83636 0.95823,-11.84694 1.56797,-8.79806 0.60974,-11.67271 -9.66918,-11.67271 z m 2.61331,-14.80864 h 8.71095 c 6.8817,0 10.80164,-1.74219 11.67271,-6.35903 0.78401,-4.79101 -2.52619,-7.05587 -7.66565,-7.05587 h -10.36604 l -2.35197,13.4149"
         style="fill:#000000;fill-rule:nonzero;stroke:none" />
      <path
         id="path2155"
         class="ps03"
         d="m 323.71492,518.11455 c -4.00705,22.99697 -21.77741,35.8892 -41.72556,35.8892 -21.16762,0 -33.01455,-13.06646 -29.0075,-36.06343 3.74572,-21.16767 20.55789,-34.93101 41.55133,-34.93101 24.04227,0 32.31771,17.33484 29.18173,35.10524 m -48.60721,0 c -1.56796,8.62384 -0.784,19.42547 9.7563,19.42547 9.58207,0 14.80864,-8.27544 16.72506,-19.42547 1.65508,-9.14652 -0.43556,-18.90281 -10.19186,-18.64148 -10.01758,0 -14.80864,10.1047 -16.2895,18.64148"
         style="fill:#000000;fill-rule:nonzero;stroke:none" />
      <path
         id="path2157"
         class="ps03"
         d="m 314.4813,552.26156 36.15053,-67.51002 h 22.4743 l 12.2825,67.51002 h -22.03879 l -1.0453,-8.88518 H 340.2658 l -4.09416,8.88518 z m 43.55485,-47.12635 -11.06292,24.12937 h 13.93757 z"
         style="fill:#000000;fill-rule:nonzero;stroke:none" />
      <path
         id="path2159"
         class="ps03"
         d="m 390.26675,552.26156 11.84693,-67.51002 h 29.61729 c 21.77745,0 33.45016,10.1047 29.53022,32.31766 -4.44261,25.43606 -20.38371,35.19236 -41.98689,35.19236 z m 24.82627,-15.76688 h 4.70395 c 10.27892,0 16.89928,-5.40079 19.1641,-18.20591 2.43908,-14.02468 -1.48086,-17.7704 -13.24068,-17.7704 h -4.26834 l -6.35903,35.97631"
         style="fill:#000000;fill-rule:nonzero;stroke:none" />
      <path
         id="path2161"
         class="ps03"
         d="m 512.65593,510.536 c 0.52262,-7.05587 -3.13598,-11.06293 -10.01763,-11.06293 -7.83988,0 -13.67624,6.70743 -15.9411,19.68677 -1.65508,9.49496 -1.21952,18.38018 10.01763,18.38018 7.14299,0 11.41138,-4.96528 13.4149,-11.41137 h 21.25478 c -5.05239,17.42191 -19.33836,27.8751 -37.19588,27.8751 -22.30007,0 -33.363,-13.67624 -29.53017,-35.62787 3.83283,-21.77745 21.08056,-35.36657 39.89625,-35.36657 20.645,0 30.31418,10.19185 29.09462,27.52669 h -20.9934"
         style="fill:#000000;fill-rule:nonzero;stroke:none" />
      <path
         id="path2163"
         class="ps03"
         d="m 605.86329,518.11455 c -4.09417,22.99697 -21.77741,35.8892 -41.72556,35.8892 -21.25473,0 -33.01455,-13.06646 -29.0075,-36.06343 3.74572,-21.16767 20.47077,-34.93101 41.46422,-34.93101 24.12938,0 32.40482,17.33484 29.26884,35.10524 m -48.60721,0 c -1.56796,8.62384 -0.87112,19.42547 9.7563,19.42547 9.58207,0 14.72153,-8.27544 16.72506,-19.42547 1.65507,-9.14652 -0.43556,-18.90281 -10.19186,-18.64148 -10.01758,0 -14.80864,10.1047 -16.2895,18.64148"
         style="fill:#000000;fill-rule:nonzero;stroke:none" />
      <path
         id="path2165"
         class="ps03"
         d="m 604.99222,552.26156 11.84693,-67.51002 h 26.74264 l 4.44261,42.07396 19.33837,-42.07396 h 26.74269 l -11.93405,67.51002 h -19.86103 l 3.65865,-20.645 2.09059,-10.45319 3.3102,-12.19534 h -0.17422 l -19.94815,43.29353 h -15.33132 l -4.61678,-43.29353 h -0.26134 l -0.78401,9.93048 -1.39374,10.45319 -4.00705,22.90986 z"
         style="fill:#000000;fill-rule:nonzero;stroke:none" />
    </g>
  </g>
</svg>
