<?xml version="1.0" encoding="UTF-8" standalone="no"?>
<svg
   xmlns:dc="http://purl.org/dc/elements/1.1/"
   xmlns:cc="http://creativecommons.org/ns#"
   xmlns:rdf="http://www.w3.org/1999/02/22-rdf-syntax-ns#"
   xmlns:svg="http://www.w3.org/2000/svg"
   xmlns="http://www.w3.org/2000/svg"
   xmlns:xlink="http://www.w3.org/1999/xlink"
   xmlns:sodipodi="http://sodipodi.sourceforge.net/DTD/sodipodi-0.dtd"
   xmlns:inkscape="http://www.inkscape.org/namespaces/inkscape"
   inkscape:version="1.0 (4035a4fb49, 2020-05-01)"
   viewBox="0 0 230.8398 32.470704"
   sodipodi:docname="Broadcom.svg"
   id="svg2"
   height="132.16666"
   width="939.5954"
   version="1.1">
  <metadata
     id="metadata19">
    <rdf:RDF>
      <cc:Work
         rdf:about="">
        <dc:format>image/svg+xml</dc:format>
        <dc:type
           rdf:resource="http://purl.org/dc/dcmitype/StillImage" />
        <dc:title></dc:title>
      </cc:Work>
    </rdf:RDF>
  </metadata>
  <defs
     id="defs17" />
  <sodipodi:namedview
     inkscape:current-layer="svg2"
     inkscape:window-maximized="1"
     inkscape:window-y="-8"
     inkscape:window-x="-8"
     inkscape:cy="16.238281"
     inkscape:cx="423.58442"
     inkscape:zoom="1"
     fit-margin-bottom="0"
     fit-margin-right="0"
     fit-margin-left="0"
     fit-margin-top="0"
     showgrid="false"
     id="namedview15"
     inkscape:window-height="705"
     inkscape:window-width="1366"
     inkscape:pageshadow="2"
     inkscape:pageopacity="0"
     guidetolerance="10"
     gridtolerance="10"
     objecttolerance="10"
     borderopacity="1"
     bordercolor="#666666"
     pagecolor="#ffffff" />
  <g
     id="g892">
    <path
       d="m 51.550897,22.918781 h -5.999 V 9.0847813 h 5.835 c 1.574,0 2.557,1.0159997 2.557,2.3929997 0,1.377 -0.983,2.36 -2.557,2.36 h -6.6701 v 4 h 6.8341 c 1.836,0 2.819,1.18 2.819,2.556 0,1.574 -1.049,2.525 -2.819,2.525 m 3.376,-7.245 c 2.066,-0.426 3.771,-2.262 3.771,-5.015 0,-2.9179998 -2.131,-5.5729998 -6.295,-5.5729998 h -11.506 V 26.950781 h 11.867 c 4.163,0 6.359,-2.623 6.359,-5.901 0,-2.754 -1.868,-5.015 -4.196,-5.376"
       id="path10" />
    <path
       d="m 72.749397,15.083581 h -5.0326 v 4.098 h 3.5576 l 4.294,7.769 h 5.343 l -4.917,-8.327 c 2.361,-0.557 4.786,-2.622 4.786,-6.49 m 0,0 c 0,-4.0649997 -2.786,-7.0479997 -7.343,-7.0479997 h -10.228 V 26.950581 h 4.655 V 9.1835813 h 4.885 c 1.869,0 3.278,1.1139997 3.278,2.9499997 0,1.836 -1.409,2.95 -3.278,2.95"
       id="path12" />
    <path
       d="m 116.17,19.148781 3.409,-9.4079997 3.41,9.4079997 z m 0.492,-14.0629998 -8.458,21.8649998 h 5.31 l 1.377,-3.704 h 9.376 l 1.344,3.704 h 5.311 L 122.497,5.0857812 Z"
       id="path14" />
    <path
       d="m 143.5659,22.852881 h -3.967 V 9.1828813 h 3.967 c 4.491,0 6.851,2.9829997 6.851,6.8519997 0,3.704 -2.524,6.818 -6.851,6.818 m 0,-17.7669998 h -8.622 V 26.950881 h 8.622 c 6.851,0 11.604,-4.327 11.604,-10.916 0,-6.5889998 -4.753,-10.9489998 -11.604,-10.9489998"
       id="path16" />
    <path
       d="m 225.6928,5.0813812 -5.734,9.2699998 -5.734,-9.2699998 h -5.146 V 26.950381 h 4.656 v -14.293 l 5.012,7.622 c 0.574,0.871 1.851,0.871 2.424,0 l 5.013,-7.622 v 14.293 h 4.656 V 5.0813812 Z"
       id="path18" />
    <path
       d="m 95.542097,23.082381 c -3.871,0 -7.008,-3.138 -7.008,-7.008 0,-3.871 3.137,-7.0089997 7.008,-7.0089997 3.87,0 7.008003,3.1379997 7.008003,7.0089997 0,3.87 -3.138003,7.008 -7.008003,7.008 m 0,-18.5359998 c -6.367,0 -11.528,5.161 -11.528,11.5279998 0,6.366 5.161,11.527 11.528,11.527 6.366003,0 11.528003,-5.161 11.528003,-11.527 0,-6.3669997 -5.162,-11.5279997 -11.528003,-11.5279997"
       id="path20" />
    <path
       d="m 176.1203,19.465181 c -1.195,2.156 -3.492,3.617 -6.132,3.617 -3.87,0 -7.008,-3.138 -7.008,-7.008 0,-3.871 3.138,-7.0079997 7.008,-7.0079997 2.618,0 4.897,1.4379997 6.1,3.5649997 l 3.27,-3.2689997 c -2.092,-2.915 -5.508,-4.816 -9.37,-4.816 -6.367,0 -11.527,5.161 -11.527,11.5279997 0,6.366 5.16,11.528 11.527,11.528 3.883,0 7.316,-1.922 9.404,-4.865 z"
       id="path22" />
    <use
       xlink:href="#path20"
       transform="translate(98.7182)"
       id="use8"
       x="0"
       y="0"
       width="100%"
       height="100%" />
  </g>
  <g
     id="g896">
    <ellipse
       cx="16.236328"
       cy="16.235352"
       rx="16.236328"
       ry="16.235352"
       fill="#cc092f"
       id="ellipse24"
       style="fill-opacity:1;fill:#e21736" />
    <path
       d="m 30.542097,20.621481 c -1.857,-0.74 -3.557,-0.492 -5.261,0.541 0,0 -0.621,0.379 -0.807,0.496 -0.794,0.498 -1.543,0.97 -2.263,0.97 -0.687,0 -1.363,-0.184 -1.649,-1.513 -0.446,-2.073 -1.534,-7.167 -2.009,-9.69 -0.279,-1.4829998 -0.432,-2.2819998 -0.591,-2.8249998 -0.28,-0.954 -0.792,-1.473 -1.519,-1.556 0,0 -0.114,-0.016 -0.207,-0.016 -0.092,0 -0.218,0.018 -0.218,0.018 -0.72,0.086 -1.229,0.605 -1.507,1.554 -0.159,0.543 -0.312,1.342 -0.591,2.8249998 -0.475,2.523 -1.563,7.617 -2.009,9.69 -0.286,1.329 -0.962,1.513 -1.649,1.513 -0.7200001,0 -1.4690001,-0.472 -2.2630001,-0.97 -0.186,-0.117 -0.808,-0.496 -0.808,-0.496 -1.703,-1.033 -3.404,-1.281 -5.26,-0.541 -0.401,0.16 -0.7959632,0.339183 -1.17196322,0.520183 0.25700002,0.806 0.57693172,1.59925 0.94993172,2.34425 0.411,-0.202 0.8420315,-0.402433 1.2820315,-0.532433 0.634,-0.187 1.284,-0.197 1.914,0.014 0.612,0.205 1.157,0.568 1.7,0.909 1.023,0.643 2.182,1.372 3.6570001,1.372 2.186,0 3.72,-1.305 4.21,-3.581 0.38,-1.764 1.222,-5.702 1.763,-8.418 0,0 1.386,6.654 1.765,8.418 0.49,2.276 2.025,3.581 4.211,3.581 1.475,0 2.634,-0.729 3.657,-1.372 0.543,-0.341 1.088,-0.704 1.7,-0.909 0.629,-0.211 1.28,-0.201 1.914,-0.014 0.44,0.13 0.870387,0.330647 1.281387,0.532647 0.374,-0.745 0.693089,-1.538621 0.950089,-2.344621 -0.376,-0.181 -0.770476,-0.360026 -1.171476,-0.520026"
       fill="#ffffff"
       id="path26" />
  </g>
</svg>
