<?xml version="1.0" encoding="UTF-8" standalone="no"?>
<svg
   xmlns:dc="http://purl.org/dc/elements/1.1/"
   xmlns:cc="http://creativecommons.org/ns#"
   xmlns:rdf="http://www.w3.org/1999/02/22-rdf-syntax-ns#"
   xmlns:svg="http://www.w3.org/2000/svg"
   xmlns="http://www.w3.org/2000/svg"
   xmlns:sodipodi="http://sodipodi.sourceforge.net/DTD/sodipodi-0.dtd"
   xmlns:inkscape="http://www.inkscape.org/namespaces/inkscape"
   width="999.99994"
   height="364.70001"
   viewBox="0 0 77.102395 28.119246"
   version="1.1"
   id="svg8"
   sodipodi:docname="A.svg"
   inkscape:version="0.92.4 (5da689c313, 2019-01-14)">
  <metadata
     id="metadata14">
    <rdf:RDF>
      <cc:Work
         rdf:about="">
        <dc:format>image/svg+xml</dc:format>
        <dc:type
           rdf:resource="http://purl.org/dc/dcmitype/StillImage" />
        <dc:title></dc:title>
      </cc:Work>
    </rdf:RDF>
  </metadata>
  <defs
     id="defs12" />
  <sodipodi:namedview
     pagecolor="#ffffff"
     bordercolor="#666666"
     borderopacity="1"
     objecttolerance="10"
     gridtolerance="10"
     guidetolerance="10"
     inkscape:pageopacity="0"
     inkscape:pageshadow="2"
     inkscape:window-width="1920"
     inkscape:window-height="1017"
     id="namedview10"
     showgrid="false"
     fit-margin-top="0"
     fit-margin-left="0"
     fit-margin-right="0"
     fit-margin-bottom="0"
     inkscape:zoom="0.26700352"
     inkscape:cx="676.02268"
     inkscape:cy="30.588246"
     inkscape:window-x="1912"
     inkscape:window-y="-8"
     inkscape:window-maximized="1"
     inkscape:current-layer="g6" />
  <g
     id="g6"
     style="clip-rule:evenodd;fill-rule:evenodd"
     transform="translate(-15.195969,-97.866753)">
    <path
       d="m 20.322179,124.37477 c -0.124415,1.03854 -0.935489,1.61123 -2.372914,1.61123 -1.697178,0 -2.734764,-1.00814 -2.734764,-2.69867 0,-1.63877 1.052307,-2.69915 2.807893,-2.69915 1.378542,0 2.169196,0.55987 2.241851,1.48111 h -0.812973 c -0.06411,-0.5309 -0.608306,-0.89228 -1.472565,-0.89228 -1.246528,0 -1.99397,0.77594 -1.99397,2.10984 0,1.37189 0.746967,2.12598 2.074222,2.12598 0.856187,0 1.378067,-0.39936 1.444073,-1.03853 h 0.819147 z m 1.102168,-3.69922 h 2.487358 c 0.588361,0 1.030938,0.0294 1.350049,0.21844 0.376095,0.22509 0.565567,0.57269 0.565567,1.05136 0,0.61685 -0.362799,1.02287 -1.045184,1.16817 0.791605,0.11587 1.218986,0.58789 1.218986,1.31349 0,0.41313 -0.159081,0.79113 -0.435454,1.03853 -0.41361,0.37658 -0.913645,0.43403 -1.632595,0.43403 h -2.509202 v -5.22402 z m 0.696156,2.16113 h 1.574187 c 0.913646,0 1.349099,-0.18758 1.349099,-0.80348 0,-0.65959 -0.420732,-0.78401 -1.313484,-0.78401 h -1.610277 v 1.58749 z m 1.820643,2.45269 c 0.870908,0 1.284043,-0.22461 1.284043,-0.90605 0,-0.75456 -0.464421,-0.95021 -1.429352,-0.95021 h -1.675334 v 1.85626 z m 5.978111,-4.61382 h 2.328277 c 0.689033,0 1.182421,0.0294 1.530974,0.25406 0.34048,0.21844 0.537075,0.61638 0.537075,1.13968 0,0.71088 -0.370397,1.11689 -1.146331,1.27645 0.660066,0.0218 0.783532,0.34143 0.920769,1.07462 l 0.129639,0.69616 c 0.0736,0.36327 0.138661,0.62302 0.240283,0.78258 h -0.783057 c -0.07978,-0.15196 -0.131539,-0.39034 -0.181875,-0.718 l -0.144834,-0.86996 c -0.09497,-0.58836 -0.486265,-0.70423 -1.327256,-0.70423 h -1.407033 v 2.29219 h -0.696156 v -5.22355 z m 2.059976,2.32163 c 1.09552,0 1.588433,-0.0807 1.588433,-0.88468 0,-0.74744 -0.521879,-0.82769 -1.595081,-0.82769 h -1.356697 v 1.71237 z m 3.721539,-2.32163 h 0.739844 v 5.22355 h -0.739844 z m 7.087402,3.69922 c -0.123466,1.03854 -0.935489,1.61123 -2.371965,1.61123 -1.697652,0 -2.735713,-1.00814 -2.735713,-2.69867 0,-1.63877 1.051832,-2.69915 2.807893,-2.69915 1.378542,0 2.168722,0.55987 2.242326,1.48111 h -0.812974 c -0.06458,-0.5309 -0.609255,-0.89228 -1.473039,-0.89228 -1.247478,0 -1.994445,0.77594 -1.994445,2.10984 0,1.37189 0.746967,2.12598 2.074222,2.12598 0.855712,0 1.378542,-0.39936 1.443598,-1.03853 h 0.820097 z m 1.102643,1.52433 v -5.22355 h 0.710402 v 2.11886 h 3.365863 v -2.11886 h 0.711352 v 5.22355 h -0.711352 v -2.47311 h -3.365863 v 2.47311 z m 8.29879,-5.22355 h 0.899874 l 2.633617,5.22355 h -0.841941 l -0.68191,-1.39279 h -3.220553 l -0.718475,1.39279 h -0.768336 z m 1.712848,3.22056 -1.270272,-2.6246 -1.349099,2.6246 z m 2.575208,-3.22056 h 2.327802 c 0.689033,0 1.18242,0.0294 1.531448,0.25406 0.339531,0.21844 0.536126,0.61638 0.536126,1.13968 0,0.71088 -0.369922,1.11689 -1.146331,1.27645 0.660541,0.0218 0.782582,0.34143 0.920769,1.07462 l 0.130588,0.69616 c 0.07123,0.36327 0.138187,0.62302 0.240283,0.78258 h -0.784481 c -0.07978,-0.15196 -0.129639,-0.39034 -0.179975,-0.718 l -0.146734,-0.86996 c -0.09355,-0.58836 -0.48484,-0.70423 -1.327256,-0.70423 h -1.407033 v 2.29219 h -0.695681 v -5.22355 z m 2.059026,2.32163 c 1.09647,0 1.587958,-0.0807 1.587958,-0.88468 0,-0.74744 -0.521405,-0.82769 -1.594131,-0.82769 h -1.356697 v 1.71237 z m 3.699695,-2.32163 h 2.103665 c 1.001496,0 1.703825,0.13154 2.234253,0.59596 0.551796,0.48579 0.821046,1.13921 0.821046,1.97308 0,0.76169 -0.225562,1.39231 -0.674312,1.8781 -0.560344,0.60261 -1.24083,0.77641 -2.228555,0.77641 h -2.255622 v -5.22355 z m 2.039557,4.60717 c 0.803952,0 1.347675,-0.0807 1.747514,-0.47202 0.369922,-0.37039 0.559394,-0.86996 0.559394,-1.51673 0,-0.67336 -0.217964,-1.2242 -0.609255,-1.55851 -0.457298,-0.39842 -1.015742,-0.45018 -1.785503,-0.45018 h -1.189069 v 3.99792 h 1.276919 z m 6.817677,-4.60717 h 3.873022 v 0.61733 h -3.16262 v 1.53098 h 2.938482 v 0.6235 H 71.80402 v 1.79832 h 3.257593 v 0.65342 h -3.967995 z m 5.10008,0 h 0.731772 v 4.5782 h 2.983119 v 0.64535 h -3.714891 z m 4.649431,0 h 0.732721 v 4.5782 h 2.982169 v 0.64535 h -3.71489 z m 4.671749,0 h 0.740319 v 5.22355 h -0.740319 z m 2.772278,3.64271 c 0.04274,0.69569 0.622552,1.1017 1.630696,1.1017 1.016692,0 1.610277,-0.40601 1.610277,-1.00767 0,-0.27685 -0.151958,-0.4649 -0.456348,-0.59454 -0.196595,-0.0807 -0.638222,-0.13058 -1.305887,-0.23316 -0.572215,-0.0879 -1.037111,-0.15148 -1.398485,-0.32623 -0.515707,-0.25453 -0.746492,-0.60878 -0.746492,-1.16675 0,-0.87851 0.846689,-1.50343 2.325902,-1.50343 1.386614,0 2.133106,0.55179 2.141654,1.48776 h -0.741269 c -0.05746,-0.56557 -0.564618,-0.91507 -1.429352,-0.91507 -1.000546,0 -1.514353,0.34903 -1.514353,0.95163 0,0.26023 0.107795,0.41314 0.361849,0.53708 0.218914,0.10115 0.812499,0.17428 1.769832,0.32576 1.190019,0.189 1.763184,0.50146 1.763184,1.37949 0,1.00672 -0.884678,1.63117 -2.495905,1.63117 -1.47209,0 -2.284589,-0.61638 -2.284589,-1.63877 v -0.029 z M 50.237425,107.13375 c 2.435597,-0.80918 2.877699,-2.85253 2.871051,-4.51837 -0.0043,-2.54624 -1.800699,-4.745827 -7.116369,-4.745827 l -9.922362,-0.0028 v 19.119127 h 9.896244 c 5.347961,0 7.315813,-2.74616 7.315813,-5.49564 0,-3.33025 -3.044377,-4.35644 -3.044377,-4.35644 z m -9.458891,-5.1072 h 6.68044 l 0.02469,0.005 c 0.753615,0.13249 1.302087,0.77546 1.302087,1.5267 0,0.76976 -0.587886,1.49488 -1.365245,1.60078 l -6.637702,0.0105 z m 6.359904,10.50312 h -6.359904 v -3.20108 h 6.514711 l 0.01472,10e-4 c 0.811074,0.0945 1.424603,0.76739 1.424603,1.56849 4.75e-4,0.87281 -0.726073,1.61977 -1.594131,1.63117 z M 75.500391,97.870503 h 16.768057 l -0.0076,4.172187 H 80.159794 l 0.01187,3.08189 h 10.907238 v 4.19404 H 80.171666 v 3.33547 h 12.10153 l -0.0047,4.37305 h -16.76858 z m -9.752834,0.02469 H 55.60723 v 19.124827 h 4.656079 v -7.73797 l 5.128097,-0.005 c 1.468291,0.0228 2.610823,1.22516 2.610823,2.70864 v 5.01746 h 4.556831 l -0.0085,-6.17376 c 0,-2.85965 -2.762781,-3.70349 -2.762781,-3.70349 0,0 2.824988,-0.84384 2.824988,-4.22633 0,-4.135624 -3.55391,-5.004157 -6.865163,-5.004157 z m 2.540542,5.933947 c -0.08168,0.62778 -0.711352,1.31016 -1.495833,1.31016 l -6.543203,0.002 v -3.06147 h 6.546052 c 0.781632,0 1.395162,0.57554 1.493459,1.33201 v 0.4174 h -4.75e-4 z m -35.238514,8.56994 c -0.06648,0.002 -6.364178,0.12252 -8.538597,-0.0893 -3.500726,-0.34381 -4.74203,-2.93706 -4.74203,-5.05449 0,-2.64027 1.799749,-4.58248 4.587223,-4.9467 1.326306,-0.17475 8.578486,-0.0917 8.65589,-0.0917 l 0.151483,0.002 0.01615,-4.348845 -0.153857,4.75e-4 -8.209039,0.01472 c -0.912696,0.05603 -2.427524,0.147209 -3.979392,0.782107 a 9.7290912,9.7290912 0 0 0 -3.756679,3.037263 9.5068531,9.5068531 0 0 0 -1.884751,5.69983 c 0,0.65057 0.05176,1.29544 0.156707,1.91562 0.590735,2.89954 2.491156,5.29952 5.217372,6.58974 0.920294,0.40601 2.339199,0.89085 5.201702,1.05183 l 1.542845,0.0328 5.722157,0.006 h 0.151008 l 0.01615,-4.6029 z"
       id="path4"
       inkscape:connector-curvature="0"
       style="fill:#176e53;stroke-width:0.47486779" />
  </g>
</svg>
