<?xml version="1.0" encoding="UTF-8" standalone="no"?>
<svg
   xmlns:dc="http://purl.org/dc/elements/1.1/"
   xmlns:cc="http://creativecommons.org/ns#"
   xmlns:rdf="http://www.w3.org/1999/02/22-rdf-syntax-ns#"
   xmlns:svg="http://www.w3.org/2000/svg"
   xmlns="http://www.w3.org/2000/svg"
   xmlns:sodipodi="http://sodipodi.sourceforge.net/DTD/sodipodi-0.dtd"
   xmlns:inkscape="http://www.inkscape.org/namespaces/inkscape"
   width="1000"
   height="99.932114"
   viewBox="0 0 77.1024 7.7050058"
   version="1.1"
   id="svg8"
   sodipodi:docname="A.svg"
   inkscape:version="0.92.4 (5da689c313, 2019-01-14)">
  <metadata
     id="metadata14">
    <rdf:RDF>
      <cc:Work
         rdf:about="">
        <dc:format>image/svg+xml</dc:format>
        <dc:type
           rdf:resource="http://purl.org/dc/dcmitype/StillImage" />
        <dc:title></dc:title>
      </cc:Work>
    </rdf:RDF>
  </metadata>
  <defs
     id="defs12" />
  <sodipodi:namedview
     pagecolor="#ffffff"
     bordercolor="#666666"
     borderopacity="1"
     objecttolerance="10"
     gridtolerance="10"
     guidetolerance="10"
     inkscape:pageopacity="0"
     inkscape:pageshadow="2"
     inkscape:window-width="1920"
     inkscape:window-height="1017"
     id="namedview10"
     showgrid="false"
     fit-margin-top="0"
     fit-margin-left="0"
     fit-margin-right="0"
     fit-margin-bottom="0"
     inkscape:zoom="0.13350176"
     inkscape:cx="2030.1155"
     inkscape:cy="-828.91933"
     inkscape:window-x="1912"
     inkscape:window-y="-8"
     inkscape:window-maximized="1"
     inkscape:current-layer="svg8" />
  <g
     id="g6"
     transform="matrix(0.41212056,0,0,0.41212056,-1.1683618,-35.867264)"
     style="clip-rule:evenodd;fill-rule:evenodd">
    <path
       d="M 47.032,98.301 V 95.428 H 46.281 V 91.45 h -0.442 v -0.751 h -0.442 v -0.663 h -0.53 V 89.373 H 44.425 V 88.71 h -1.149 v 0.663 h -0.53 v 0.663 h -0.442 v 0.663 h -0.442 v 0.751 h -0.53 v 3.978 h -0.707 v 2.873 h -1.282 v 3.359 H 36.69 v 0.441 h 4.641 v 0.311 H 36.69 v 0.354 h 4.641 v 0.309 H 36.69 v 0.354 h 4.641 v 0.309 H 36.69 v 0.443 h 7.248 v -8.045 l 0.574,-0.707 v 8.751 h 0.752 v -5.172 l 0.574,-0.707 v 5.879 h 5.171 v -2.52 H 48.358 V 98.301 Z M 34.79,87.384 h 18.12 v 18.032 H 34.79 Z m 139.087,0 h 4.332 v 3.182 h -4.332 z m 0,4.42 h 4.332 v 13.569 h -4.332 z m -14.584,-0.575 h -5.305 v 3.006 h 5.217 v 3.845 h -5.217 v 3.359 h 5.305 v 3.844 h -9.9 V 87.384 h 9.9 z m 1.592,-3.845 h 4.595 v 17.899 h -4.595 z m 6.584,0 h 4.552 v 17.899 h -4.552 z m 22.453,13.923 c 0,0.795 -0.221,1.547 -0.664,2.209 -0.354,0.664 -1.016,1.193 -1.855,1.547 -0.795,0.354 -1.9,0.574 -3.139,0.664 -1.855,-0.09 -3.182,-0.443 -4.066,-1.193 -0.883,-0.707 -1.414,-1.812 -1.457,-3.227 h 3.889 v 0.133 c 0.088,0.396 0.221,0.75 0.441,0.973 0.221,0.221 0.574,0.354 1.018,0.354 0.529,0 0.883,-0.045 1.104,-0.266 0.311,-0.221 0.443,-0.531 0.443,-0.885 -0.045,-0.398 -0.221,-0.619 -0.486,-0.84 -0.311,-0.221 -0.664,-0.441 -1.105,-0.574 l -1.193,-0.354 c -1.193,-0.398 -2.076,-0.883 -2.74,-1.547 -0.662,-0.662 -0.928,-1.547 -0.928,-2.519 0,-0.796 0.221,-1.459 0.574,-2.122 0.354,-0.663 0.973,-1.193 1.768,-1.635 0.797,-0.354 1.768,-0.575 2.873,-0.575 1.547,0 2.785,0.354 3.758,1.105 0.883,0.707 1.414,1.768 1.457,3.005 h -3.756 c -0.045,-0.354 -0.221,-0.751 -0.441,-0.972 -0.223,-0.221 -0.576,-0.266 -0.93,-0.266 -0.396,0 -0.75,0.044 -0.971,0.266 -0.223,0.221 -0.311,0.442 -0.311,0.84 0,0.441 0.221,0.795 0.664,1.016 0.529,0.222 1.061,0.442 1.723,0.575 1.238,0.398 2.254,0.883 3.094,1.547 0.793,0.663 1.146,1.635 1.236,2.741 z M 24.314,87.384 h -6.851 v 17.899 h 7.292 c 1.282,0 2.298,-0.221 3.271,-0.662 0.884,-0.441 1.547,-1.016 2.033,-1.855 0.53,-0.707 0.751,-1.549 0.751,-2.432 -0.088,-1.105 -0.354,-2.033 -0.972,-2.873 a 4.922,4.922 0 0 0 -2.21,-1.547 c 0.397,-0.221 0.751,-0.442 1.105,-0.795 0.398,-0.354 0.663,-0.796 0.884,-1.326 0.221,-0.53 0.398,-1.193 0.398,-1.9 0,-0.663 -0.221,-1.414 -0.663,-2.077 -0.398,-0.663 -1.061,-1.237 -1.856,-1.68 -0.795,-0.442 -1.9,-0.664 -3.182,-0.752 z m -2.342,6.983 v -3.226 h 1.856 c 0.486,0 0.928,0.132 1.326,0.441 0.265,0.221 0.442,0.663 0.486,1.193 -0.044,0.486 -0.221,0.884 -0.486,1.149 -0.398,0.31 -0.84,0.442 -1.326,0.442 h -1.856 z m 3.403,6.719 c -0.398,0.309 -0.973,0.441 -1.724,0.441 h -1.679 v -3.756 h 1.635 c 0.795,0 1.37,0.131 1.768,0.529 0.441,0.266 0.663,0.707 0.663,1.369 0.001,0.665 -0.221,1.106 -0.663,1.417 z M 12.602,87.031 c -2.033,0.044 -3.801,0.486 -5.303,1.326 -1.459,0.884 -2.564,1.989 -3.315,3.359 -0.796,1.415 -1.149,2.961 -1.149,4.641 0,1.282 0.221,2.386 0.663,3.491 a 8.798,8.798 0 0 0 1.9,2.918 c 0.796,0.883 1.856,1.635 3.006,2.164 1.281,0.486 2.607,0.707 4.154,0.707 l 2.122,-0.221 1.237,-0.354 v -4.641 c -0.354,0.311 -0.795,0.531 -1.326,0.752 -0.575,0.221 -1.238,0.266 -1.9,0.266 -0.973,0 -1.768,-0.223 -2.431,-0.664 A 4.646,4.646 0 0 1 8.492,98.964 6.116,6.116 0 0 1 7.918,96.356 c 0,-0.928 0.221,-1.768 0.574,-2.564 0.354,-0.751 0.973,-1.326 1.68,-1.856 0.751,-0.442 1.635,-0.663 2.608,-0.663 l 1.679,0.221 c 0.575,0.177 1.105,0.397 1.458,0.751 v -4.552 l -1.149,-0.398 z m 60.418,0.353 h 4.332 v 3.182 H 73.02 Z m 0,4.42 h 4.332 v 13.569 H 73.02 Z m 13.834,-0.221 -1.37,-0.132 c -1.282,0 -2.298,0.221 -3.182,0.663 -0.884,0.442 -1.636,1.017 -2.21,1.68 -0.575,0.663 -1.017,1.459 -1.326,2.298 a 6.563,6.563 0 0 0 -0.442,2.431 c 0,1.148 0.309,2.254 0.795,3.359 0.53,1.105 1.282,1.988 2.387,2.74 1.105,0.662 2.431,1.016 4.022,1.105 l 2.166,-0.223 1.238,-0.309 v -4.109 c -0.31,0.221 -0.663,0.354 -1.194,0.529 a 5.195,5.195 0 0 1 -1.547,0.221 3.856,3.856 0 0 1 -2.431,-0.84 c -0.663,-0.484 -1.017,-1.369 -1.017,-2.475 0,-1.061 0.31,-1.855 0.973,-2.387 0.663,-0.574 1.37,-0.883 2.342,-0.883 0.751,0.088 1.326,0.177 1.856,0.309 0.441,0.221 0.795,0.354 1.017,0.53 v -4.154 l -0.796,-0.221 z m 27.8,8.618 c -0.223,0.531 -0.619,0.973 -1.105,1.326 -0.441,0.354 -1.061,0.531 -1.725,0.531 -0.928,0 -1.68,-0.311 -2.254,-0.885 -0.529,-0.662 -0.84,-1.547 -0.883,-2.652 0.043,-1.104 0.354,-1.944 0.883,-2.607 0.486,-0.575 1.238,-0.884 2.211,-0.884 0.928,0 1.768,0.398 2.342,1.061 0.574,0.663 0.885,1.458 0.973,2.431 0,0.664 -0.176,1.148 -0.442,1.679 z m -0.664,-7.646 c -0.396,-0.31 -0.84,-0.53 -1.414,-0.751 l -1.855,-0.354 c -1.326,0 -2.432,0.354 -3.359,1.017 -0.973,0.663 -1.725,1.458 -2.211,2.563 -0.529,1.104 -0.84,2.21 -0.84,3.491 0,1.371 0.311,2.564 0.84,3.668 0.486,1.105 1.326,1.9 2.254,2.52 a 6.52,6.52 0 0 0 3.184,0.928 c 0.795,-0.043 1.459,-0.133 2.076,-0.354 a 6.303,6.303 0 0 0 1.459,-0.795 l 0.752,-0.752 h 0.045 l 0.088,1.547 h 4.109 V 91.804 h -4.109 l -0.088,1.547 h -0.045 z m 23.426,-0.751 c -0.752,-0.221 -1.504,-0.354 -2.166,-0.354 -1.238,0 -2.432,0.265 -3.359,0.884 -0.973,0.574 -1.635,1.37 -2.166,2.475 a 8.83,8.83 0 0 0 -0.795,3.712 c 0,1.371 0.309,2.652 0.795,3.758 a 5.766,5.766 0 0 0 2.211,2.475 c 0.971,0.619 1.988,0.883 3.27,0.883 1.105,0 1.988,-0.221 2.652,-0.574 0.662,-0.354 1.238,-0.75 1.592,-1.236 h 0.088 v 1.457 h 4.109 v -17.9 h -4.242 v 5.746 h -0.088 a 6.757,6.757 0 0 0 -1.901,-1.326 z m -2.873,3.757 c 0.486,-0.309 1.104,-0.442 1.812,-0.442 0.971,0 1.723,0.31 2.297,0.972 0.574,0.663 0.885,1.548 0.885,2.476 0,0.662 -0.133,1.193 -0.354,1.723 -0.311,0.486 -0.664,0.928 -1.193,1.238 -0.443,0.309 -0.973,0.441 -1.635,0.531 -1.018,-0.09 -1.812,-0.398 -2.344,-1.062 -0.529,-0.662 -0.795,-1.457 -0.883,-2.43 0,-0.664 0.131,-1.148 0.354,-1.68 0.221,-0.531 0.618,-0.973 1.061,-1.326 z M 69.042,88.356 C 68.07,87.737 66.833,87.472 65.286,87.384 h -6.763 v 17.989 h 4.464 v -5.967 h 0.089 l 3.403,5.967 h 5.436 l -4.332,-6.719 c 0.707,-0.309 1.37,-0.662 2.033,-1.105 0.619,-0.441 1.105,-1.016 1.503,-1.679 0.354,-0.663 0.574,-1.547 0.574,-2.607 0,-0.884 -0.221,-1.768 -0.574,-2.652 -0.442,-0.884 -1.105,-1.592 -2.077,-2.255 z m -6.055,3.094 h 1.724 c 0.663,0 1.238,0.132 1.68,0.486 0.442,0.398 0.663,0.884 0.751,1.635 -0.088,0.663 -0.309,1.193 -0.751,1.547 a 2.658,2.658 0 0 1 -1.68,0.575 h -1.724 z m 62.495,2.033 c 0.354,-0.663 0.795,-1.149 1.457,-1.547 0.664,-0.354 1.238,-0.486 1.902,-0.442 v 3.934 l -1.547,0.044 c -0.486,0.177 -0.885,0.442 -1.15,0.972 -0.398,0.53 -0.529,1.104 -0.529,1.901 v 6.938 h -4.287 V 91.804 h 3.977 l 0.088,1.68 h 0.089 z m -22.054,2.961 v 8.929 H 99.096 V 97.549 C 99.008,96.754 98.875,96.135 98.522,95.782 A 2.179,2.179 0 0 0 97.02,95.207 c -0.266,0 -0.575,0.044 -0.885,0.265 -0.354,0.177 -0.574,0.397 -0.795,0.751 -0.221,0.354 -0.309,0.796 -0.309,1.325 v 7.824 H 90.699 V 87.384 h 4.332 v 5.834 l 0.663,-0.53 a 5.1,5.1 0 0 1 1.282,-0.751 5.377,5.377 0 0 1 1.9,-0.354 c 1.414,0 2.432,0.442 3.227,1.326 0.838,0.796 1.28,1.988 1.325,3.535 z"
       id="path4"
       style="fill:#295340;fill-opacity:1"
       inkscape:connector-curvature="0" />
  </g>
</svg>
