<?xml version="1.0" encoding="UTF-8" standalone="no"?>
<!-- Created with Inkscape (http://www.inkscape.org/) -->

<svg
   xmlns:dc="http://purl.org/dc/elements/1.1/"
   xmlns:cc="http://creativecommons.org/ns#"
   xmlns:rdf="http://www.w3.org/1999/02/22-rdf-syntax-ns#"
   xmlns:svg="http://www.w3.org/2000/svg"
   xmlns="http://www.w3.org/2000/svg"
   xmlns:sodipodi="http://sodipodi.sourceforge.net/DTD/sodipodi-0.dtd"
   xmlns:inkscape="http://www.inkscape.org/namespaces/inkscape"
   width="1000"
   height="209.19724"
   id="svg3783"
   version="1.1"
   inkscape:version="0.48.2 r9819"
   sodipodi:docname="A.svg">
  <defs
     id="defs3785">
    <clipPath
       clipPathUnits="userSpaceOnUse"
       id="clipPath5247">
      <path
         inkscape:connector-curvature="0"
         d="m 86.5,659.357 173.5,0 0,61.071 -173.5,0 0,-61.071 z"
         id="path5249" />
    </clipPath>
    <clipPath
       clipPathUnits="userSpaceOnUse"
       id="clipPath5257">
      <path
         inkscape:connector-curvature="0"
         d="m 90.214,662.449 166.216,0 0,54.194 -166.216,0 0,-54.194 z"
         id="path5259" />
    </clipPath>
    <clipPath
       clipPathUnits="userSpaceOnUse"
       id="clipPath5269">
      <path
         inkscape:connector-curvature="0"
         d="m 90.214,662.449 166.216,0 0,54.194 -166.216,0 0,-54.194 z"
         id="path5271" />
    </clipPath>
    <clipPath
       clipPathUnits="userSpaceOnUse"
       id="clipPath5281">
      <path
         inkscape:connector-curvature="0"
         d="m 90.214,662.449 166.216,0 0,54.194 -166.216,0 0,-54.194 z"
         id="path5283" />
    </clipPath>
    <clipPath
       clipPathUnits="userSpaceOnUse"
       id="clipPath5293">
      <path
         inkscape:connector-curvature="0"
         d="m 90.214,662.449 166.216,0 0,54.194 -166.216,0 0,-54.194 z"
         id="path5295" />
    </clipPath>
    <clipPath
       clipPathUnits="userSpaceOnUse"
       id="clipPath5305">
      <path
         inkscape:connector-curvature="0"
         d="m 90.214,662.449 166.216,0 0,54.194 -166.216,0 0,-54.194 z"
         id="path5307" />
    </clipPath>
    <clipPath
       clipPathUnits="userSpaceOnUse"
       id="clipPath5317">
      <path
         inkscape:connector-curvature="0"
         d="m 90.214,662.449 166.216,0 0,54.194 -166.216,0 0,-54.194 z"
         id="path5319" />
    </clipPath>
    <clipPath
       clipPathUnits="userSpaceOnUse"
       id="clipPath5329">
      <path
         inkscape:connector-curvature="0"
         d="m 90.214,662.449 166.216,0 0,54.194 -166.216,0 0,-54.194 z"
         id="path5331" />
    </clipPath>
    <clipPath
       clipPathUnits="userSpaceOnUse"
       id="clipPath5341">
      <path
         inkscape:connector-curvature="0"
         d="m 90.214,662.449 166.216,0 0,54.194 -166.216,0 0,-54.194 z"
         id="path5343" />
    </clipPath>
    <clipPath
       clipPathUnits="userSpaceOnUse"
       id="clipPath5353">
      <path
         inkscape:connector-curvature="0"
         d="m 90.214,662.449 166.216,0 0,54.194 -166.216,0 0,-54.194 z"
         id="path5355" />
    </clipPath>
    <clipPath
       clipPathUnits="userSpaceOnUse"
       id="clipPath5365">
      <path
         inkscape:connector-curvature="0"
         d="m 90.214,662.449 166.216,0 0,54.194 -166.216,0 0,-54.194 z"
         id="path5367" />
    </clipPath>
    <clipPath
       clipPathUnits="userSpaceOnUse"
       id="clipPath5688">
      <path
         inkscape:connector-curvature="0"
         d="m 172.224,123.336 447.552,0 0,135.864 -447.552,0 0,-135.864 z"
         id="path5690" />
    </clipPath>
    <clipPath
       clipPathUnits="userSpaceOnUse"
       id="clipPath6260">
      <path
         inkscape:connector-curvature="0"
         d="M 0,792 612,792 612,0 0,0 0,792 z"
         id="path6262" />
    </clipPath>
    <clipPath
       clipPathUnits="userSpaceOnUse"
       id="clipPath6300">
      <path
         inkscape:connector-curvature="0"
         d="M 0,0 612,0 612,792 0,792 0,0 z"
         id="path6302" />
    </clipPath>
    <clipPath
       clipPathUnits="userSpaceOnUse"
       id="clipPath6342">
      <path
         inkscape:connector-curvature="0"
         d="M 0,0 612,0 612,792 0,792 0,0 z"
         id="path6344" />
    </clipPath>
    <clipPath
       clipPathUnits="userSpaceOnUse"
       id="clipPath6358">
      <path
         inkscape:connector-curvature="0"
         d="M 0,0 612,0 612,792 0,792 0,0 z"
         id="path6360" />
    </clipPath>
  </defs>
  <sodipodi:namedview
     id="base"
     pagecolor="#ffffff"
     bordercolor="#666666"
     borderopacity="1.0"
     inkscape:pageopacity="0.0"
     inkscape:pageshadow="2"
     inkscape:zoom="0.40603397"
     inkscape:cx="424.02525"
     inkscape:cy="-221.42982"
     inkscape:document-units="px"
     inkscape:current-layer="layer1"
     showgrid="false"
     fit-margin-left="0.5"
     fit-margin-bottom="0.5"
     fit-margin-top="0.5"
     fit-margin-right="0.5"
     inkscape:window-width="1053"
     inkscape:window-height="1039"
     inkscape:window-x="859"
     inkscape:window-y="-21"
     inkscape:window-maximized="0" />
  <metadata
     id="metadata3788">
    <rdf:RDF>
      <cc:Work
         rdf:about="">
        <dc:format>image/svg+xml</dc:format>
        <dc:type
           rdf:resource="http://purl.org/dc/dcmitype/StillImage" />
        <dc:title></dc:title>
      </cc:Work>
    </rdf:RDF>
  </metadata>
  <g
     inkscape:label="Layer 1"
     inkscape:groupmode="layer"
     id="layer1"
     transform="translate(443.61229,-308.93905)">
    <g
       id="g6258"
       clip-path="url(#clipPath6260)"
       transform="matrix(6.7692329,0,0,-6.7692329,-3213.1115,918.30989)">
      <g
         id="g6296">
        <g
           id="g6298"
           clip-path="url(#clipPath6300)">
          <g
             id="g6304"
             transform="translate(457.6731,78.0029)">
            <path
               d="m 0,0 c -0.103,1.358 -1.554,2.257 -3.009,2.257 -3.493,0 -4.137,-3.199 -4.137,-5.692 0,-2.926 0.881,-5.692 3.963,-5.692 1.51,0 2.887,0.748 3.121,2.258 l 2.062,0 c -0.199,-2.376 -2.59,-3.946 -5.359,-3.946 -4.18,0 -5.847,3.414 -5.847,7.38 0,3.474 1.528,7.519 6.279,7.383 C -0.203,3.869 1.845,2.531 2.06,0 L 0,0 z"
               style="fill:#000000;fill-opacity:1;fill-rule:nonzero;stroke:none"
               id="path6306"
               inkscape:connector-curvature="0" />
          </g>
          <g
             id="g6308"
             transform="translate(463.1233,72.0571)">
            <path
               d="m 0,0 c -0.138,-1.731 0.568,-3.511 2.474,-3.511 1.451,0 2.174,0.562 2.394,1.999 l 1.963,0 C 6.537,-3.75 4.811,-4.869 2.452,-4.869 c -3.159,0 -4.409,2.236 -4.409,5.143 0,2.888 1.447,5.299 4.568,5.299 C 5.555,5.517 6.95,3.651 6.95,0.923 L 6.95,0 0,0 z M 4.99,1.293 C 5.026,2.945 4.276,4.217 2.474,4.217 0.922,4.217 0,2.904 0,1.293 l 4.99,0 z"
               style="fill:#000000;fill-opacity:1;fill-rule:nonzero;stroke:none"
               id="path6310"
               inkscape:connector-curvature="0" />
          </g>
          <g
             id="g6312"
             transform="translate(473.8079,75.8872)">
            <path
               d="m 0,0 0.04,0 c 0.627,1.236 2.002,1.743 2.98,1.743 0.689,0 3.735,-0.176 3.735,-3.335 l 0,-6.81 -1.864,0 0,6.2 c 0,1.63 -0.692,2.514 -2.261,2.514 0,0 -1.019,0.06 -1.807,-0.729 C 0.551,-0.689 0.04,-1.122 0.04,-3.046 l 0,-5.356 -1.863,0 0,9.848 L 0,1.446 0,0 z"
               style="fill:#000000;fill-opacity:1;fill-rule:nonzero;stroke:none"
               id="path6314"
               inkscape:connector-curvature="0" />
          </g>
          <g
             id="g6316"
             transform="translate(483.509,77.3394)">
            <path
               d="m 0,0 0,2.1 1.864,0.587 0,-2.687 2.278,0 0,-1.353 -2.278,0 0,-6.326 c 0,-0.705 0.551,-1.036 1.22,-1.036 0.295,0 0.688,0.033 0.978,0.115 l 0,-1.43 c -0.426,-0.022 -0.842,-0.118 -1.271,-0.118 -0.453,0 -0.81,0.016 -1.257,0.096 C 1.239,-9.991 0.745,-9.834 0.433,-9.405 0.099,-8.936 0,-8.895 0,-7.577 l 0,6.224 -1.686,0 0,1.353 L 0,0 z"
               style="fill:#000000;fill-opacity:1;fill-rule:nonzero;stroke:none"
               id="path6318"
               inkscape:connector-curvature="0" />
          </g>
          <g
             id="g6320"
             transform="translate(495.8479,77.3384)">
            <path
               d="m 0,0 1.861,0 0,-9.853 -1.822,0 0,1.447 -0.039,0 c -0.747,-1.232 -2.001,-1.744 -3.375,-1.744 -2.063,0 -3.24,1.572 -3.24,3.556 l 0,6.594 1.867,0 0,-5.833 c 0,-1.706 0.392,-2.959 2.175,-2.959 0.769,0 1.807,0.386 2.204,1.409 C -0.02,-6.458 0,-5.301 0,-5.064 L 0,0 z"
               style="fill:#000000;fill-opacity:1;fill-rule:nonzero;stroke:none"
               id="path6322"
               inkscape:connector-curvature="0" />
          </g>
          <g
             id="g6324"
             transform="translate(502.0676,67.4854)">
            <path
               d="m 0,0 -1.864,0 0,9.848 1.864,0 0,-1.9 0.039,0 C 0.313,9.301 1.567,9.99 2.926,9.99 3.159,9.99 3.358,9.969 3.572,9.969 l 0,-1.767 C 3.317,8.302 3.02,8.302 2.769,8.302 0.416,8.22 0,6.964 0,4.884 L 0,0 z"
               style="fill:#000000;fill-opacity:1;fill-rule:nonzero;stroke:none"
               id="path6326"
               inkscape:connector-curvature="0" />
          </g>
        </g>
      </g>
      <g
         id="g6328"
         transform="translate(511.1526,63.7168)">
        <path
           d="m 0,0 -1.907,0 1.495,3.807 -4.103,9.815 2.08,0 3.081,-7.773 3.145,7.773 1.999,0 L 0,0 z"
           style="fill:#000000;fill-opacity:1;fill-rule:nonzero;stroke:none"
           id="path6330"
           inkscape:connector-curvature="0" />
      </g>
      <g
         id="g6332"
         transform="translate(518.3391,67.4854)">
        <path
           d="m 0,0 0,14.171 3.043,0 0,-11.817 6.141,0 L 9.184,0 0,0 z"
           style="fill:#000000;fill-opacity:1;fill-rule:nonzero;stroke:none"
           id="path6334"
           inkscape:connector-curvature="0" />
      </g>
      <path
         d="m 532.413,79.122 -3.143,0 0,2.535 3.143,0 0,-2.535 z m -0.096,-11.641 -2.947,0 0,9.852 2.947,0 0,-9.852 z"
         style="fill:#000000;fill-opacity:1;fill-rule:nonzero;stroke:none"
         id="path6336"
         inkscape:connector-curvature="0" />
      <g
         id="g6338">
        <g
           id="g6340"
           clip-path="url(#clipPath6342)">
          <g
             id="g6346"
             transform="translate(538.0598,76.1987)">
            <path
               d="m 0,0 0.038,-0.058 c 0.609,0.9 1.535,1.49 3.022,1.49 0.984,0 2.888,-0.725 3.24,-2.16 0.157,-0.607 0.197,-1.238 0.197,-1.572 l 0,-6.413 -2.945,0 0,5.923 c -0.014,1.061 -0.315,2.259 -1.769,2.259 -0.918,0 -1.723,-0.826 -1.762,-2.259 l 0,-5.923 -2.946,0 0,9.848 L 0,1.135 0,0 z"
               style="fill:#000000;fill-opacity:1;fill-rule:nonzero;stroke:none"
               id="path6348"
               inkscape:connector-curvature="0" />
          </g>
        </g>
      </g>
      <g
         id="g6350"
         transform="translate(550.3518,73.3506)">
        <path
           d="m 0,0 0.032,-0.037 2.907,4.141 3.28,0 -3.395,-4.316 3.608,-5.657 -3.434,0 L 0.032,-0.468 0,-0.512 l 0,-5.357 -2.948,0 0,14.171 L 0,8.302 0,0 z"
           style="fill:#000000;fill-opacity:1;fill-rule:nonzero;stroke:none"
           id="path6352"
           inkscape:connector-curvature="0" />
      </g>
      <g
         id="g6354">
        <g
           id="g6356"
           clip-path="url(#clipPath6358)">
          <g
             id="g6362"
             transform="translate(411.9602,65.6782)">
            <path
               d="M 0,0 C 1.019,-1.45 2.281,-2.711 3.728,-3.73 L 8.823,5.094 0,0 z"
               style="fill:#8dc63f;fill-opacity:1;fill-rule:nonzero;stroke:none"
               id="path6364"
               inkscape:connector-curvature="0" />
          </g>
          <g
             id="g6366"
             transform="translate(415.6907,87.1924)">
            <path
               d="M 0,0 C -1.448,-1.02 -2.712,-2.288 -3.73,-3.729 L 5.093,-8.826 0,0 z"
               style="fill:#8dc63f;fill-opacity:1;fill-rule:nonzero;stroke:none"
               id="path6368"
               inkscape:connector-curvature="0" />
          </g>
          <g
             id="g6370"
             transform="translate(431.0657,88.5845)">
            <path
               d="m 0,0 c -1.573,0.728 -3.286,1.2 -5.097,1.362 l 0,-10.193 L 0,0 z"
               style="fill:#8dc63f;fill-opacity:1;fill-rule:nonzero;stroke:none"
               id="path6372"
               inkscape:connector-curvature="0" />
          </g>
          <g
             id="g6374"
             transform="translate(418.094,60.5557)">
            <path
               d="m 0,0 c 1.578,-0.729 3.295,-1.204 5.099,-1.365 l 0,10.194 L 0,0 z"
               style="fill:#8dc63f;fill-opacity:1;fill-rule:nonzero;stroke:none"
               id="path6376"
               inkscape:connector-curvature="0" />
          </g>
          <g
             id="g6378"
             transform="translate(437.2024,83.4629)">
            <path
               d="M 0,0 C -1.015,1.442 -2.28,2.71 -3.729,3.729 L -8.823,-5.097 0,0 z"
               style="fill:#8dc63f;fill-opacity:1;fill-rule:nonzero;stroke:none"
               id="path6380"
               inkscape:connector-curvature="0" />
          </g>
          <g
             id="g6382"
             transform="translate(433.4739,61.9478)">
            <path
               d="M 0,0 C 1.45,1.022 2.714,2.281 3.729,3.73 L -5.095,8.824 0,0 z"
               style="fill:#8dc63f;fill-opacity:1;fill-rule:nonzero;stroke:none"
               id="path6384"
               inkscape:connector-curvature="0" />
          </g>
          <g
             id="g6386"
             transform="translate(439.9612,75.959)">
            <path
               d="M 0,0 C -0.162,1.804 -0.636,3.524 -1.361,5.1 L -10.195,0 0,0 z"
               style="fill:#00853f;fill-opacity:1;fill-rule:nonzero;stroke:none"
               id="path6388"
               inkscape:connector-curvature="0" />
          </g>
          <g
             id="g6390"
             transform="translate(409.2043,73.1777)">
            <path
               d="M 0,0 C 0.161,-1.808 0.635,-3.521 1.361,-5.093 L 10.189,0 0,0 z"
               style="fill:#00853f;fill-opacity:1;fill-rule:nonzero;stroke:none"
               id="path6392"
               inkscape:connector-curvature="0" />
          </g>
          <g
             id="g6394"
             transform="translate(410.5657,81.0571)">
            <path
               d="m 0,0 c -0.727,-1.574 -1.199,-3.294 -1.361,-5.098 l 10.191,0 L 0,0 z"
               style="fill:#00853f;fill-opacity:1;fill-rule:nonzero;stroke:none"
               id="path6396"
               inkscape:connector-curvature="0" />
          </g>
          <g
             id="g6398"
             transform="translate(429.7659,73.1777)">
            <path
               d="M 0,0 8.832,-5.093 C 9.561,-3.521 10.033,-1.808 10.195,0 L 0,0 z"
               style="fill:#00853f;fill-opacity:1;fill-rule:nonzero;stroke:none"
               id="path6400"
               inkscape:connector-curvature="0" />
          </g>
          <g
             id="g6402"
             transform="translate(423.1897,89.9468)">
            <path
               d="M 0,0 C -1.803,-0.16 -3.518,-0.631 -5.096,-1.364 L 0,-10.193 0,0 z"
               style="fill:#00853f;fill-opacity:1;fill-rule:nonzero;stroke:none"
               id="path6404"
               inkscape:connector-curvature="0" />
          </g>
          <g
             id="g6406"
             transform="translate(425.969,59.1904)">
            <path
               d="M 0,0 C 1.811,0.161 3.523,0.635 5.101,1.365 L 0,10.195 0,0 z"
               style="fill:#00853f;fill-opacity:1;fill-rule:nonzero;stroke:none"
               id="path6408"
               inkscape:connector-curvature="0" />
          </g>
        </g>
      </g>
      <g
         id="g6410"
         transform="translate(436.3167,89.6064)">
        <path
           d="m 0,0 -0.957,0 0,0.337 2.308,0 0,-0.337 -0.955,0 0,-2.512 L 0,-2.512 0,0 z"
           style="fill:#00853f;fill-opacity:1;fill-rule:nonzero;stroke:none"
           id="path6412"
           inkscape:connector-curvature="0" />
      </g>
      <g
         id="g6414"
         transform="translate(440.6897,89.6626)">
        <path
           d="m 0,0 -0.006,0 -0.913,-2.569 -0.369,0 L -2.201,0 -2.21,0 l 0,-2.569 -0.396,0 0,2.853 0.707,0 0.824,-2.35 0.005,0 0.805,2.35 0.663,0 0,-2.853 L 0,-2.569 0,0 z"
           style="fill:#00853f;fill-opacity:1;fill-rule:nonzero;stroke:none"
           id="path6416"
           inkscape:connector-curvature="0" />
      </g>
    </g>
  </g>
</svg>
