<?xml version="1.0" encoding="UTF-8" standalone="no"?>
<svg
   xmlns:dc="http://purl.org/dc/elements/1.1/"
   xmlns:cc="http://creativecommons.org/ns#"
   xmlns:rdf="http://www.w3.org/1999/02/22-rdf-syntax-ns#"
   xmlns:svg="http://www.w3.org/2000/svg"
   xmlns="http://www.w3.org/2000/svg"
   xmlns:sodipodi="http://sodipodi.sourceforge.net/DTD/sodipodi-0.dtd"
   xmlns:inkscape="http://www.inkscape.org/namespaces/inkscape"
   width="1000"
   height="137.13672"
   viewBox="0 0 1000 137.13672"
   version="1.1"
   id="svg4558"
   sodipodi:docname="Lumen-logo-R-1.svg"
   inkscape:version="0.92.4 (5da689c313, 2019-01-14)">
  <metadata
     id="metadata4562">
    <rdf:RDF>
      <cc:Work
         rdf:about="">
        <dc:format>image/svg+xml</dc:format>
        <dc:type
           rdf:resource="http://purl.org/dc/dcmitype/StillImage" />
        <dc:title></dc:title>
      </cc:Work>
    </rdf:RDF>
  </metadata>
  <sodipodi:namedview
     pagecolor="#ffffff"
     bordercolor="#666666"
     borderopacity="1"
     objecttolerance="10"
     gridtolerance="10"
     guidetolerance="10"
     inkscape:pageopacity="0"
     inkscape:pageshadow="2"
     inkscape:window-width="1920"
     inkscape:window-height="1017"
     id="namedview4560"
     showgrid="false"
     fit-margin-top="0"
     fit-margin-left="0"
     fit-margin-right="0"
     fit-margin-bottom="0"
     inkscape:zoom="0.80046697"
     inkscape:cx="300.15141"
     inkscape:cy="-5.7234029"
     inkscape:window-x="-8"
     inkscape:window-y="-8"
     inkscape:window-maximized="1"
     inkscape:current-layer="svg4558" />
  <defs
     id="defs4543">
    <clipPath
       id="clip-path">
      <rect
         id="Rectangle_1718"
         data-name="Rectangle 1718"
         width="152.082"
         height="21.938999"
         transform="translate(165.988,54.533)"
         x="0"
         y="0"
         style="fill:none" />
    </clipPath>
  </defs>
  <g
     id="g4620"
     transform="matrix(6.2499746,0,0,6.2499746,0,0.03727061)">
    <g
       id="g4608">
      <path
         inkscape:connector-curvature="0"
         d="m 0,1.6 v 18.189 c 0,1.1 0.641,1.6 1.875,1.6 h 17.193 c 1.189,0 1.874,-0.5 1.874,-1.6 0,-1.051 -0.685,-1.6 -1.874,-1.6 H 4.298 c -0.594,0 -0.823,-0.274 -0.823,-0.823 V 1.6 A 1.6,1.6 0 0 0 1.738,0 1.627,1.627 0 0 0 0,1.6"
         data-name="Path 1127"
         id="Path_1127" />
      <path
         inkscape:connector-curvature="0"
         d="M 29.539,13.416 V 1.6 a 1.743,1.743 0 0 0 -3.475,0 v 12.136 c 0,7.362 4.572,8.2 12.483,8.2 7.911,0 12.483,-0.84 12.483,-8.2 V 1.6 a 1.743,1.743 0 0 0 -3.475,0 v 11.816 c 0,5.99 -3.2,5.184 -9.008,5.184 -5.808,0 -9.008,0.714 -9.008,-5.184"
         data-name="Path 1128"
         id="Path_1128" />
      <path
         inkscape:connector-curvature="0"
         d="m 84.912,5.35 v 14.717 a 1.6,1.6 0 0 0 1.737,1.6 1.576,1.576 0 0 0 1.738,-1.6 V 2.377 A 2.251,2.251 0 0 0 86.187,0 c -1.2,0 -1.723,0.679 -2.88,1.737 l -8.871,8.752 H 74.39 L 65.519,1.783 C 64.382,0.612 63.519,0 62.501,0 a 2.459,2.459 0 0 0 -2.24,2.377 v 17.69 a 1.6,1.6 0 0 0 1.737,1.6 1.576,1.576 0 0 0 1.738,-1.6 V 5.304 h 0.183 l 8.459,8.02 c 0.761,0.746 1.353,1.326 1.966,1.326 0.77,0 1.165,-0.6 2.012,-1.326 L 84.77,5.35 Z"
         data-name="Path 1129"
         id="Path_1129" />
      <g
         id="g4566"
         transform="translate(-165.988,-54.533)">
        <path
           style="fill:#0c9ed9"
           inkscape:connector-curvature="0"
           id="Path_1130"
           data-name="Path 1130"
           d="m 284.828,56.453 c 0,-1.051 -0.64,-1.646 -1.875,-1.646 h -17.376 c -1.234,0 -1.874,0.6 -1.874,1.646 v 1.594 l 19.3,-0.039 c 1.189,0 1.829,-0.549 1.829,-1.555" />
        <path
           inkscape:connector-curvature="0"
           id="Path_1131"
           data-name="Path 1131"
           d="m 263.7,63.837 v 10.485 c 0,1.1 0.64,1.6 1.875,1.6 h 17.558 c 1.189,0 1.829,-0.5 1.829,-1.6 0,-1.052 -0.64,-1.6 -1.829,-1.6 H 268 c -0.594,0 -0.823,-0.275 -0.823,-0.823 V 67.08 h 11.431 c 1.235,0 1.875,-0.549 1.875,-1.6 0,-1 -0.64,-1.6 -1.875,-1.6 z" />
      </g>
      <path
         inkscape:connector-curvature="0"
         d="M 152.082,19.606 V 1.6 A 1.626,1.626 0 0 0 150.345,0 1.6,1.6 0 0 0 148.607,1.6 V 16.177 L 131.412,1.737 C 130.229,0.744 129.57,0 128.44,0 c -1.24,0 -2.057,0.823 -2.057,2.377 v 17.69 a 1.626,1.626 0 0 0 1.737,1.6 1.6,1.6 0 0 0 1.738,-1.6 v -14.9 l 17.01,14.622 c 1.139,0.968 1.929,1.875 3.109,1.875 a 2.031,2.031 0 0 0 2.1,-2.058"
         data-name="Path 1132"
         id="Path_1132" />
    </g>
    <g
       transform="translate(-165.988,-54.533)"
       id="Group_4658"
       data-name="Group 4658">
      <path
         id="Path_1133"
         data-name="Path 1133"
         d="m 320.493,57.449 v -0.016 a 2.748,2.748 0 1 1 5.495,-0.016 v 0.016 a 2.748,2.748 0 1 1 -5.495,0.016 z m 5.179,-0.016 v -0.016 a 2.432,2.432 0 1 0 -4.863,0.016 v 0.016 a 2.432,2.432 0 1 0 4.863,-0.016 z m -3.505,-1.452 h 1.263 c 0.616,0 1.074,0.3 1.074,0.884 a 0.841,0.841 0 0 1 -0.648,0.852 l 0.743,1.058 h -0.648 l -0.663,-0.963 H 322.7 v 0.963 h -0.537 z m 1.216,1.389 c 0.363,0 0.568,-0.189 0.568,-0.458 0,-0.3 -0.2,-0.458 -0.568,-0.458 H 322.7 v 0.916 z"
         inkscape:connector-curvature="0" />
    </g>
  </g>
</svg>
