<?xml version="1.0" encoding="UTF-8" standalone="no"?>
<!-- Created with Inkscape (http://www.inkscape.org/) -->

<svg
   xmlns:dc="http://purl.org/dc/elements/1.1/"
   xmlns:cc="http://creativecommons.org/ns#"
   xmlns:rdf="http://www.w3.org/1999/02/22-rdf-syntax-ns#"
   xmlns:svg="http://www.w3.org/2000/svg"
   xmlns="http://www.w3.org/2000/svg"
   xmlns:sodipodi="http://sodipodi.sourceforge.net/DTD/sodipodi-0.dtd"
   xmlns:inkscape="http://www.inkscape.org/namespaces/inkscape"
   width="1000"
   height="314.91318"
   id="svg3783"
   version="1.1"
   inkscape:version="0.48.2 r9819"
   sodipodi:docname="A.svg">
  <defs
     id="defs3785">
    <clipPath
       clipPathUnits="userSpaceOnUse"
       id="clipPath5247">
      <path
         inkscape:connector-curvature="0"
         d="m 86.5,659.357 173.5,0 0,61.071 -173.5,0 0,-61.071 z"
         id="path5249" />
    </clipPath>
    <clipPath
       clipPathUnits="userSpaceOnUse"
       id="clipPath5257">
      <path
         inkscape:connector-curvature="0"
         d="m 90.214,662.449 166.216,0 0,54.194 -166.216,0 0,-54.194 z"
         id="path5259" />
    </clipPath>
    <clipPath
       clipPathUnits="userSpaceOnUse"
       id="clipPath5269">
      <path
         inkscape:connector-curvature="0"
         d="m 90.214,662.449 166.216,0 0,54.194 -166.216,0 0,-54.194 z"
         id="path5271" />
    </clipPath>
    <clipPath
       clipPathUnits="userSpaceOnUse"
       id="clipPath5281">
      <path
         inkscape:connector-curvature="0"
         d="m 90.214,662.449 166.216,0 0,54.194 -166.216,0 0,-54.194 z"
         id="path5283" />
    </clipPath>
    <clipPath
       clipPathUnits="userSpaceOnUse"
       id="clipPath5293">
      <path
         inkscape:connector-curvature="0"
         d="m 90.214,662.449 166.216,0 0,54.194 -166.216,0 0,-54.194 z"
         id="path5295" />
    </clipPath>
    <clipPath
       clipPathUnits="userSpaceOnUse"
       id="clipPath5305">
      <path
         inkscape:connector-curvature="0"
         d="m 90.214,662.449 166.216,0 0,54.194 -166.216,0 0,-54.194 z"
         id="path5307" />
    </clipPath>
    <clipPath
       clipPathUnits="userSpaceOnUse"
       id="clipPath5317">
      <path
         inkscape:connector-curvature="0"
         d="m 90.214,662.449 166.216,0 0,54.194 -166.216,0 0,-54.194 z"
         id="path5319" />
    </clipPath>
    <clipPath
       clipPathUnits="userSpaceOnUse"
       id="clipPath5329">
      <path
         inkscape:connector-curvature="0"
         d="m 90.214,662.449 166.216,0 0,54.194 -166.216,0 0,-54.194 z"
         id="path5331" />
    </clipPath>
    <clipPath
       clipPathUnits="userSpaceOnUse"
       id="clipPath5341">
      <path
         inkscape:connector-curvature="0"
         d="m 90.214,662.449 166.216,0 0,54.194 -166.216,0 0,-54.194 z"
         id="path5343" />
    </clipPath>
    <clipPath
       clipPathUnits="userSpaceOnUse"
       id="clipPath5353">
      <path
         inkscape:connector-curvature="0"
         d="m 90.214,662.449 166.216,0 0,54.194 -166.216,0 0,-54.194 z"
         id="path5355" />
    </clipPath>
    <clipPath
       clipPathUnits="userSpaceOnUse"
       id="clipPath5365">
      <path
         inkscape:connector-curvature="0"
         d="m 90.214,662.449 166.216,0 0,54.194 -166.216,0 0,-54.194 z"
         id="path5367" />
    </clipPath>
    <clipPath
       clipPathUnits="userSpaceOnUse"
       id="clipPath5688">
      <path
         inkscape:connector-curvature="0"
         d="m 172.224,123.336 447.552,0 0,135.864 -447.552,0 0,-135.864 z"
         id="path5690" />
    </clipPath>
    <clipPath
       clipPathUnits="userSpaceOnUse"
       id="clipPath6260">
      <path
         inkscape:connector-curvature="0"
         d="M 0,792 612,792 612,0 0,0 0,792 z"
         id="path6262" />
    </clipPath>
    <clipPath
       clipPathUnits="userSpaceOnUse"
       id="clipPath6300">
      <path
         inkscape:connector-curvature="0"
         d="M 0,0 612,0 612,792 0,792 0,0 z"
         id="path6302" />
    </clipPath>
    <clipPath
       clipPathUnits="userSpaceOnUse"
       id="clipPath6342">
      <path
         inkscape:connector-curvature="0"
         d="M 0,0 612,0 612,792 0,792 0,0 z"
         id="path6344" />
    </clipPath>
    <clipPath
       clipPathUnits="userSpaceOnUse"
       id="clipPath6358">
      <path
         inkscape:connector-curvature="0"
         d="M 0,0 612,0 612,792 0,792 0,0 z"
         id="path6360" />
    </clipPath>
    <clipPath
       clipPathUnits="userSpaceOnUse"
       id="clipPath7151">
      <path
         inkscape:connector-curvature="0"
         d="m 39.396,725.627 0,-37.301 118.706,0 0,37.301"
         id="path7153" />
    </clipPath>
    <clipPath
       clipPathUnits="userSpaceOnUse"
       id="clipPath7123">
      <path
         inkscape:connector-curvature="0"
         d="m 39.396,725.627 0,-37.301 118.706,0 0,37.301"
         id="path7125" />
    </clipPath>
  </defs>
  <sodipodi:namedview
     id="base"
     pagecolor="#ffffff"
     bordercolor="#666666"
     borderopacity="1.0"
     inkscape:pageopacity="0.0"
     inkscape:pageshadow="2"
     inkscape:zoom="0.40603397"
     inkscape:cx="549.67234"
     inkscape:cy="-174.80143"
     inkscape:document-units="px"
     inkscape:current-layer="layer1"
     showgrid="false"
     fit-margin-left="0.5"
     fit-margin-bottom="0.5"
     fit-margin-top="0.5"
     fit-margin-right="0.5"
     inkscape:window-width="1053"
     inkscape:window-height="1039"
     inkscape:window-x="859"
     inkscape:window-y="-21"
     inkscape:window-maximized="0" />
  <metadata
     id="metadata3788">
    <rdf:RDF>
      <cc:Work
         rdf:about="">
        <dc:format>image/svg+xml</dc:format>
        <dc:type
           rdf:resource="http://purl.org/dc/dcmitype/StillImage" />
        <dc:title></dc:title>
      </cc:Work>
    </rdf:RDF>
  </metadata>
  <g
     inkscape:label="Layer 1"
     inkscape:groupmode="layer"
     id="layer1"
     transform="translate(569.25938,-249.8515)">
    <g
       id="g7119"
       style="fill:#d31145;fill-opacity:1"
       transform="matrix(8.415768,0,0,-8.415768,-900.30913,6357.0566)">
      <g
         id="g7121"
         clip-path="url(#clipPath7123)"
         style="fill:#d31145;fill-opacity:1">
        <path
           d="m 93.897,713.444 c 6.837,4.151 15.865,7.747 28.832,9.709 21.067,3.142 27.199,-4.427 23.775,-9.815 0.064,-0.049 -0.03,-0.068 0.032,-0.119 7.703,9.114 -4.844,15.088 -24.514,11.201 -8.62,-1.704 -18.914,-5.018 -28.509,-10.971 l 0.384,-0.005"
           style="fill:#d31145;fill-opacity:1;fill-rule:nonzero;stroke:none"
           id="path7127"
           inkscape:connector-curvature="0" />
        <path
           d="m 127.79,697.477 c -5.975,-2.696 -13.056,-5.176 -22.324,-6.578 -18.741,-2.883 -27.91,3.458 -23.84,10.235 -0.064,0.049 0.03,0.068 -0.032,0.119 -8.684,-10.693 9.755,-20.885 46.721,-3.781 l -0.525,0.005"
           style="fill:#d31145;fill-opacity:1;fill-rule:nonzero;stroke:none"
           id="path7129"
           inkscape:connector-curvature="0" />
      </g>
    </g>
    <path
       d="m 293.72846,332.70492 -126.05138,0 -3.74501,20.9721 c 9.56872,-1.25395 32.51011,-2.65096 49.39214,-3.11384 l -23.6988,127.20434 31.44131,0 23.66514,-127.22116 c 16.42757,0.50494 35.71651,1.85146 45.01593,3.07175 l 3.98067,-20.91319"
       style="fill:#005589;fill-opacity:1;fill-rule:nonzero;stroke:none"
       id="path7131"
       inkscape:connector-curvature="0" />
    <path
       d="m 331.80981,477.78435 -77.70279,0 20.94685,-111.5005 77.77011,0 -3.22324,16.78945 c -9.9222,-1.29603 -30.82696,-2.79404 -46.89266,-2.46582 l -5.73114,30.63339 23.79138,0 c 7.50686,0 15.80481,-0.40395 23.27801,-1.46434 l -3.66086,18.77558 c -6.00885,-0.81633 -19.51616,-1.46434 -27.03145,-1.46434 l -19.432,0 -6.71579,35.67444 c 16.14986,0 37.45859,-1.10246 47.89414,-2.3985 l -3.29056,17.42064"
       style="fill:#005589;fill-opacity:1;fill-rule:nonzero;stroke:none"
       id="path7133"
       inkscape:connector-curvature="0" />
    <path
       d="m 387.33704,462.8127 18.54835,-96.57094 -30.70913,0 -20.94685,111.59309 72.72065,0 3.29057,-17.42064 c -10.43556,1.30444 -26.75372,2.39849 -42.90359,2.39849"
       style="fill:#005589;fill-opacity:1;fill-rule:nonzero;stroke:none"
       id="path7135"
       inkscape:connector-curvature="0" />
    <path
       d="m -121.00059,366.35958 -96.79817,0 -3.1475,16.78947 c 7.35539,-0.96783 20.75329,-2.03663 33.74724,-2.39009 l -18.22856,97.18529 30.3641,0 18.21171,-97.20212 c 12.63208,0.38713 25.48295,1.43068 32.62794,2.36483 l 3.22324,-16.74738"
       style="fill:#005589;fill-opacity:1;fill-rule:nonzero;stroke:none"
       id="path7137"
       inkscape:connector-curvature="0" />
    <path
       d="m -364.87272,477.85168 -77.70279,0 20.94685,-111.50051 77.77012,0 -3.22324,16.79788 c -9.91378,-1.30445 -30.81855,-2.80247 -46.89266,-2.47424 l -5.73114,30.63339 23.79137,0 c 7.50687,0 15.81323,-0.40395 23.28643,-1.46434 l -3.66085,18.77557 c -6.00886,-0.81632 -19.52459,-1.46433 -27.03145,-1.46433 l -19.43201,0 -6.71578,35.67443 c 16.14985,0 37.45016,-1.09405 47.89413,-2.3985 l -3.29898,17.42065"
       style="fill:#005589;fill-opacity:1;fill-rule:nonzero;stroke:none"
       id="path7139"
       inkscape:connector-curvature="0" />
    <path
       d="m 26.738216,418.8824 c 0,0 6.05094,0 8.1717,0 13.95335,0 24.84335,-7.06925 27.19976,-21.58645 1.53168,-9.48458 -2.19651,-19.82755 -14.07957,-19.82755 l -13.57464,0 -7.71725,41.414 z m 28.79034,7.7425 30.75121,51.17628 -33.33485,0 -27.94035,-50.08223 -9.5014,50.08223 -29.71609,0 20.9552596,-111.59308 41.5907304,0 c 22.78149,0 42.71002,4.31728 41.31301,28.20123 -1.03514,17.76569 -15.28304,29.74133 -34.11752,32.21557"
       style="fill:#005589;fill-opacity:1;fill-rule:nonzero;stroke:none"
       id="path7141"
       inkscape:connector-curvature="0" />
    <path
       d="m 195.55852,366.2081 -19.11221,0.23565 -31.59279,49.41738 -18.91865,-49.41738 -31.870514,-0.23565 26.408684,64.05241 -8.94596,47.54067 30.31359,0 8.66825,-46.23622 45.0496,-65.35686"
       style="fill:#005589;fill-opacity:1;fill-rule:nonzero;stroke:none"
       id="path7143"
       inkscape:connector-curvature="0" />
    <path
       d="m -314.73999,403.5657 -13.92809,74.37855 -15.40086,0 20.95526,-111.59308 16.41075,0 50.42729,72.57758 13.79343,-72.57758 15.28304,0 -20.9216,111.59308 -14.8875,0 -51.73172,-74.37855"
       style="fill:#005589;fill-opacity:1;fill-rule:nonzero;stroke:none"
       id="path7145"
       inkscape:connector-curvature="0" />
    <g
       id="g7147"
       transform="matrix(8.415768,0,0,-8.415768,-900.30913,6357.0566)">
      <g
         id="g7149"
         clip-path="url(#clipPath7151)">
        <path
           d="m 101.854,705.244 c -0.218,-1.161 -0.526,-2.879 -1.217,-3.788 -0.669,-0.879 -1.583,-1.353 -2.825,-1.271 -1.009,0.067 -1.423,0.507 -1.673,0.9 -0.439,0.687 -0.476,1.473 0.03,4.173 l 1.237,6.602 -3.684,0 -1.16,-6.18 c -0.069,-0.371 -0.133,-0.717 -0.19,-1.044 l -0.108,-0.63 c -0.169,-1.098 -0.225,-1.94 -0.071,-2.665 l 0.109,-0.383 c 0.067,-0.198 0.153,-0.388 0.261,-0.574 0.191,-0.331 0.421,-0.616 0.701,-0.86 l 0.265,-0.205 c 0.874,-0.634 2.081,-0.931 3.494,-0.97 1.806,-0.049 3.345,0.332 4.248,0.983 1.63,1.173 2.248,2.472 2.848,5.647 l 1.29,6.881 -2.325,0 -1.23,-6.616"
           style="fill:#005589;fill-opacity:1;fill-rule:nonzero;stroke:none"
           id="path7155"
           inkscape:connector-curvature="0" />
        <path
           d="m 55.127,712.473 c -0.854,1.134 -2.605,1.794 -4.135,1.794 -3.436,0 -5.975,-2.942 -6.647,-6.652 -0.781,-4.315 0.412,-7.023 4.037,-7.023 1.976,0 3.575,0.597 4.948,1.725 l -0.494,-2.712 c 0,0 -1.964,-1.22 -5.387,-1.266 -4.704,-0.063 -9.133,2.868 -7.818,9.184 1.368,6.575 6.374,8.71 10.592,8.769 2.241,0.032 4.23,-0.542 5.36,-1.356 l -0.456,-2.463"
           style="fill:#005589;fill-opacity:1;fill-rule:nonzero;stroke:none"
           id="path7157"
           inkscape:connector-curvature="0" />
      </g>
    </g>
  </g>
</svg>
