<?xml version="1.0" encoding="UTF-8" standalone="no"?>
<!-- Created with Inkscape (http://www.inkscape.org/) -->

<svg
   xmlns:dc="http://purl.org/dc/elements/1.1/"
   xmlns:cc="http://creativecommons.org/ns#"
   xmlns:rdf="http://www.w3.org/1999/02/22-rdf-syntax-ns#"
   xmlns:svg="http://www.w3.org/2000/svg"
   xmlns="http://www.w3.org/2000/svg"
   xmlns:sodipodi="http://sodipodi.sourceforge.net/DTD/sodipodi-0.dtd"
   xmlns:inkscape="http://www.inkscape.org/namespaces/inkscape"
   width="1000"
   height="201.02127"
   viewBox="0 0 264.58331 53.186881"
   version="1.1"
   id="svg8"
   inkscape:version="0.92.4 (5da689c313, 2019-01-14)"
   sodipodi:docname="A.svg">
  <defs
     id="defs2">
    <clipPath
       clipPathUnits="userSpaceOnUse"
       id="clipPath81">
      <path
         d="M 0,0 H 595.276 V 841.89 H 0 Z"
         id="path79"
         inkscape:connector-curvature="0" />
    </clipPath>
    <clipPath
       clipPathUnits="userSpaceOnUse"
       id="clipPath1109">
      <path
         d="M 255.65399,137.90701 V 117.882 h 63.594 v 20.02501 h -63.594"
         id="path1107"
         inkscape:connector-curvature="0" />
    </clipPath>
    <clipPath
       clipPathUnits="userSpaceOnUse"
       id="clipPath1117">
      <path
         d="m 257.57019,136.73035 h 59.94449 v -17.45836 h -59.94449 v 17.45836"
         id="path1115"
         inkscape:connector-curvature="0" />
    </clipPath>
    <clipPath
       clipPathUnits="userSpaceOnUse"
       id="clipPath1125">
      <path
         d="m 257.57019,119.27199 h 59.94449 v 17.45836 h -59.94449 z"
         id="path1123"
         inkscape:connector-curvature="0" />
    </clipPath>
    <clipPath
       clipPathUnits="userSpaceOnUse"
       id="clipPath6258">
      <path
         d="M 0,0 H 792 V 612 H 0 Z"
         id="path6256"
         inkscape:connector-curvature="0" />
    </clipPath>
    <clipPath
       clipPathUnits="userSpaceOnUse"
       id="clipPath6214">
      <path
         d="M 0,0 H 792 V 612 H 0 Z"
         id="path6212"
         inkscape:connector-curvature="0" />
    </clipPath>
    <clipPath
       clipPathUnits="userSpaceOnUse"
       id="clipPath6182">
      <path
         d="M 0,0 H 792 V 612 H 0 Z"
         id="path6180"
         inkscape:connector-curvature="0" />
    </clipPath>
    <clipPath
       clipPathUnits="userSpaceOnUse"
       id="clipPath6154">
      <path
         d="M 0,0 H 792 V 612 H 0 Z"
         id="path6152"
         inkscape:connector-curvature="0" />
    </clipPath>
  </defs>
  <sodipodi:namedview
     id="base"
     pagecolor="#ffffff"
     bordercolor="#666666"
     borderopacity="1.0"
     inkscape:pageopacity="0.82352941"
     inkscape:pageshadow="2"
     inkscape:zoom="0.7"
     inkscape:cx="614.32174"
     inkscape:cy="-142.01508"
     inkscape:document-units="px"
     inkscape:current-layer="layer1"
     showgrid="false"
     units="px"
     inkscape:window-width="1920"
     inkscape:window-height="1017"
     inkscape:window-x="1912"
     inkscape:window-y="-8"
     inkscape:window-maximized="1"
     inkscape:pagecheckerboard="true"
     fit-margin-top="0"
     fit-margin-left="0"
     fit-margin-right="0"
     fit-margin-bottom="0">
    <inkscape:grid
       type="xygrid"
       id="grid3605"
       originx="-260.8289"
       originy="-419.64878" />
  </sodipodi:namedview>
  <metadata
     id="metadata5">
    <rdf:RDF>
      <cc:Work
         rdf:about="">
        <dc:format>image/svg+xml</dc:format>
        <dc:type
           rdf:resource="http://purl.org/dc/dcmitype/StillImage" />
        <dc:title></dc:title>
      </cc:Work>
    </rdf:RDF>
  </metadata>
  <g
     inkscape:label="Layer 1"
     inkscape:groupmode="layer"
     id="layer1"
     transform="translate(-109.38687,521.02716)">
    <g
       id="g7069"
       transform="matrix(2.9856113,0,0,-2.9856113,109.38687,-495.90324)">
      <path
         d="M 0,0 8.415,8.415 C 3.881,8.167 0.249,4.534 0,0"
         style="fill:#0077be;fill-opacity:1;fill-rule:nonzero;stroke:none"
         id="path7071"
         inkscape:connector-curvature="0" />
    </g>
    <g
       id="g7073"
       transform="matrix(2.9856113,0,0,-2.9856113,162.64209,-494.42118)">
      <path
         d="M 0,0 C 0,0.039 -0.002,0.077 -0.003,0.115 H -7.19 l -1.629,1.629 h 8.648 c -0.16,0.803 -0.428,1.567 -0.787,2.277 h -7.684 l 1.629,1.628 h 4.997 c -0.754,0.922 -1.689,1.688 -2.75,2.248 -0.019,0.01 -0.039,0.02 -0.058,0.03 C -5.544,8.3 -6.319,8.58 -7.137,8.746 L -17.672,-1.789 c 0.086,-0.422 0.202,-0.833 0.345,-1.231 0.142,-0.394 0.311,-0.774 0.504,-1.14 1.406,-2.664 4.12,-4.529 7.287,-4.743 l -6.015,6.015 1.231,1.231 7.103,-7.104 c 0.845,0.164 1.647,0.448 2.389,0.832 l -7.882,7.882 1.231,1.231 8.141,-8.142 c 0.594,0.477 1.126,1.028 1.581,1.64 l -3.156,3.156 h 4.648 C -0.093,-1.47 0,-0.746 0,0"
         style="fill:#0077be;fill-opacity:1;fill-rule:nonzero;stroke:none"
         id="path7075"
         inkscape:connector-curvature="0" />
    </g>
    <g
       id="g7077"
       transform="matrix(2.9856113,0,0,-2.9856113,176.62127,-503.25738)">
      <path
         d="M 0,0 C 0,0.67 0.118,1.277 0.355,1.821 0.591,2.365 0.914,2.83 1.324,3.216 1.734,3.602 2.217,3.9 2.772,4.109 3.328,4.317 3.921,4.422 4.552,4.422 5.198,4.422 5.809,4.317 6.385,4.109 6.96,3.9 7.441,3.618 7.827,3.263 L 6.101,1.182 C 5.943,1.387 5.746,1.543 5.51,1.649 5.273,1.756 5.009,1.809 4.717,1.809 4.481,1.809 4.26,1.768 4.055,1.685 3.85,1.602 3.671,1.482 3.517,1.324 3.364,1.166 3.243,0.975 3.157,0.751 3.07,0.526 3.027,0.276 3.027,0 c 0,-0.276 0.045,-0.522 0.136,-0.739 0.09,-0.217 0.213,-0.404 0.366,-0.561 0.154,-0.158 0.333,-0.279 0.538,-0.361 0.205,-0.083 0.422,-0.124 0.65,-0.124 0.324,0 0.602,0.067 0.834,0.201 0.232,0.134 0.416,0.291 0.55,0.473 L 7.827,-3.18 C 7.449,-3.559 6.983,-3.86 6.432,-4.085 5.88,-4.31 5.253,-4.422 4.552,-4.422 c -0.631,0 -1.224,0.106 -1.78,0.319 -0.555,0.213 -1.038,0.514 -1.448,0.905 -0.41,0.39 -0.733,0.855 -0.969,1.395 C 0.118,-1.263 0,-0.662 0,0"
         style="fill:#000000;fill-opacity:1;fill-rule:nonzero;stroke:none"
         id="path7079"
         inkscape:connector-curvature="0" />
    </g>
    <g
       id="g7081"
       transform="matrix(2.9856113,0,0,-2.9856113,213.46289,-503.39855)">
      <path
         d="m 0,0 c 0,-0.276 0.042,-0.528 0.124,-0.757 0.083,-0.229 0.197,-0.425 0.343,-0.591 0.146,-0.165 0.321,-0.294 0.526,-0.384 0.205,-0.091 0.426,-0.136 0.663,-0.136 0.236,0 0.454,0.045 0.656,0.136 0.201,0.09 0.376,0.219 0.526,0.384 0.149,0.166 0.266,0.362 0.349,0.591 C 3.269,-0.528 3.31,-0.276 3.31,0 3.31,0.268 3.269,0.514 3.187,0.739 3.104,0.964 2.987,1.153 2.838,1.306 2.688,1.46 2.513,1.58 2.312,1.667 2.11,1.754 1.892,1.797 1.656,1.797 1.419,1.797 1.198,1.754 0.993,1.667 0.788,1.58 0.613,1.46 0.467,1.306 0.321,1.153 0.207,0.964 0.124,0.739 0.042,0.514 0,0.268 0,0 m -2.991,0 c 0,0.67 0.118,1.275 0.355,1.815 0.236,0.54 0.561,0.999 0.975,1.377 0.414,0.378 0.904,0.67 1.472,0.875 C 0.379,4.272 0.993,4.375 1.656,4.375 2.318,4.375 2.932,4.272 3.5,4.067 4.067,3.862 4.56,3.57 4.978,3.192 5.395,2.814 5.723,2.355 5.959,1.815 6.196,1.275 6.314,0.67 6.314,0 6.314,-0.67 6.196,-1.281 5.959,-1.833 5.723,-2.385 5.395,-2.855 4.978,-3.246 4.56,-3.636 4.067,-3.937 3.5,-4.15 2.932,-4.363 2.318,-4.469 1.656,-4.469 c -0.663,0 -1.277,0.106 -1.845,0.319 -0.568,0.213 -1.058,0.514 -1.472,0.904 -0.414,0.391 -0.739,0.861 -0.975,1.413 C -2.873,-1.281 -2.991,-0.67 -2.991,0"
         style="fill:#000000;fill-opacity:1;fill-rule:nonzero;stroke:none"
         id="path7083"
         inkscape:connector-curvature="0" />
    </g>
    <g
       id="g7085"
       transform="matrix(2.9856113,0,0,-2.9856113,246.78527,-505.19891)">
      <path
         d="m 0,0 h 0.551 c 0.094,0 0.198,0.008 0.311,0.024 0.114,0.015 0.219,0.049 0.317,0.1 0.098,0.051 0.18,0.122 0.246,0.213 0.067,0.09 0.1,0.211 0.1,0.361 0,0.149 -0.027,0.267 -0.082,0.354 C 1.388,1.139 1.318,1.204 1.232,1.247 1.146,1.29 1.052,1.318 0.95,1.33 0.849,1.342 0.755,1.348 0.669,1.348 H 0 Z M -2.707,3.535 H 0.899 C 1.308,3.535 1.716,3.494 2.122,3.411 2.528,3.328 2.891,3.182 3.21,2.973 3.529,2.765 3.788,2.485 3.985,2.134 4.181,1.783 4.28,1.344 4.28,0.816 4.28,0.303 4.154,-0.148 3.903,-0.538 3.651,-0.928 3.289,-1.23 2.818,-1.442 L 4.942,-4.836 H 1.71 L 0.106,-1.845 H 0.024 v -2.991 h -2.731 z"
         style="fill:#000000;fill-opacity:1;fill-rule:nonzero;stroke:none"
         id="path7087"
         inkscape:connector-curvature="0" />
    </g>
    <g
       id="g7089"
       transform="matrix(2.9856113,0,0,-2.9856113,280.91377,-490.76078)">
      <path
         d="M 0,0 H -2.814 V 5.995 H -4.871 V 8.371 H 2.057 V 5.995 H 0 Z"
         style="fill:#000000;fill-opacity:1;fill-rule:nonzero;stroke:none"
         id="path7091"
         inkscape:connector-curvature="0" />
    </g>
    <g
       id="g7093"
       transform="matrix(2.9856113,0,0,-2.9856113,294.60309,-515.75331)">
      <path
         d="M 0,0 H 5.758 V -2.341 H 2.648 V -3.062 H 5.569 V -5.25 H 2.648 V -6.03 H 5.959 V -8.371 H 0 Z"
         style="fill:#000000;fill-opacity:1;fill-rule:nonzero;stroke:none"
         id="path7095"
         inkscape:connector-curvature="0" />
    </g>
    <g
       id="g7097"
       transform="matrix(2.9856113,0,0,-2.9856113,317.96553,-515.75331)">
      <path
         d="M 0,0 H 3.18 L 4.564,-5.179 H 4.611 L 5.935,0 H 9.116 L 6.089,-8.371 H 2.968 Z"
         style="fill:#000000;fill-opacity:1;fill-rule:nonzero;stroke:none"
         id="path7099"
         inkscape:connector-curvature="0" />
    </g>
    <g
       id="g7101"
       transform="matrix(2.9856113,0,0,-2.9856113,359.63927,-507.03449)">
      <path
         d="m 0,0 -0.686,-2.069 h 1.36 z M -1.454,2.92 H 1.537 L 4.8,-5.451 H 1.738 l -0.437,1.23 H -1.36 l -0.414,-1.23 h -2.979 z"
         style="fill:#000000;fill-opacity:1;fill-rule:nonzero;stroke:none"
         id="path7103"
         inkscape:connector-curvature="0" />
    </g>
    <g
       id="g7113"
       transform="matrix(2.9856113,0,0,-2.9856113,185.03686,-477.55784)">
      <path
         d="M 0,0 C 0,0.544 -0.398,0.935 -0.923,0.935 -1.45,0.935 -1.847,0.544 -1.847,0 c 0,-0.544 0.397,-0.936 0.924,-0.936 C -0.398,-0.936 0,-0.544 0,0 M 0.631,1.461 V -1.462 H 0 v 0.421 c -0.222,-0.31 -0.567,-0.496 -1.023,-0.496 -0.795,0 -1.456,0.672 -1.456,1.537 0,0.871 0.661,1.537 1.456,1.537 0.456,0 0.801,-0.186 1.023,-0.49 v 0.414 z"
         style="fill:#000000;fill-opacity:1;fill-rule:nonzero;stroke:none"
         id="path7115"
         inkscape:connector-curvature="0" />
    </g>
    <g
       id="g7117"
       transform="matrix(2.9856113,0,0,-2.9856113,196.76611,-477.64527)">
      <path
         d="m 0,0 c 0,0.526 -0.397,0.918 -0.929,0.918 -0.532,0 -0.929,-0.392 -0.929,-0.918 0,-0.526 0.397,-0.918 0.929,-0.918 C -0.397,-0.918 0,-0.526 0,0 m 0.619,1.432 v -2.788 c 0,-0.942 -0.736,-1.38 -1.502,-1.38 -0.643,0 -1.139,0.24 -1.385,0.707 l 0.544,0.316 c 0.128,-0.251 0.345,-0.45 0.853,-0.45 0.544,0 0.871,0.298 0.871,0.807 L 0,-1 c -0.222,-0.315 -0.567,-0.509 -1.017,-0.509 -0.824,0 -1.473,0.673 -1.473,1.509 0,0.836 0.649,1.508 1.473,1.508 0.45,0 0.795,-0.193 1.017,-0.509 v 0.433 z"
         style="fill:#000000;fill-opacity:1;fill-rule:nonzero;stroke:none"
         id="path7119"
         inkscape:connector-curvature="0" />
    </g>
    <g
       id="g7121"
       transform="matrix(2.9856113,0,0,-2.9856113,206.08657,-482.07716)">
      <path
         d="m 0,0 v -0.684 c -0.415,0.029 -0.901,-0.163 -0.901,-0.818 v -1.473 h -0.631 v 2.923 h 0.631 V -0.543 C -0.725,-0.146 -0.368,0 0,0"
         style="fill:#000000;fill-opacity:1;fill-rule:nonzero;stroke:none"
         id="path7123"
         inkscape:connector-curvature="0" />
    </g>
    <path
       d="m 208.18069,-481.92009 h 1.8839 v 8.72695 h -1.8839 z m -0.26235,-2.51389 c 0,-0.66267 0.54333,-1.20617 1.20617,-1.20617 0.66266,0 1.2032,0.54333 1.2032,1.20617 0,0.64489 -0.54079,1.2032 -1.2032,1.2032 -0.66267,0 -1.20617,-0.55856 -1.20617,-1.2032"
       style="fill:#000000;fill-opacity:1;fill-rule:nonzero;stroke:none;stroke-width:2.9856112"
       id="path7125"
       inkscape:connector-curvature="0" />
    <g
       id="g7127"
       transform="matrix(2.9856113,0,0,-2.9856113,219.28359,-475.65482)">
      <path
         d="m 0,0 c 0,-0.584 -0.509,-0.9 -1.141,-0.9 -0.584,0 -1.005,0.263 -1.192,0.684 l 0.544,0.315 c 0.093,-0.263 0.327,-0.42 0.648,-0.42 0.281,0 0.498,0.093 0.498,0.327 0,0.521 -1.573,0.228 -1.573,1.274 0,0.55 0.474,0.895 1.07,0.895 0.479,0 0.877,-0.222 1.081,-0.608 L -0.597,1.269 c -0.105,0.227 -0.31,0.333 -0.549,0.333 -0.228,0 -0.427,-0.1 -0.427,-0.31 C -1.573,0.76 0,1.082 0,0"
         style="fill:#000000;fill-opacity:1;fill-rule:nonzero;stroke:none"
         id="path7129"
         inkscape:connector-curvature="0" />
    </g>
    <g
       id="g7131"
       transform="matrix(2.9856113,0,0,-2.9856113,220.92391,-477.55784)">
      <path
         d="m 0,0 c 0,0.871 0.66,1.537 1.543,1.537 0.573,0 1.07,-0.298 1.304,-0.754 L 2.303,0.468 C 2.174,0.742 1.888,0.918 1.537,0.918 1.023,0.918 0.632,0.526 0.632,0 c 0,-0.526 0.391,-0.918 0.905,-0.918 0.351,0 0.637,0.181 0.778,0.45 l 0.543,-0.31 C 2.613,-1.239 2.116,-1.537 1.543,-1.537 0.66,-1.537 0,-0.865 0,0"
         style="fill:#000000;fill-opacity:1;fill-rule:nonzero;stroke:none"
         id="path7133"
         inkscape:connector-curvature="0" />
    </g>
    <path
       d="m 231.51927,-481.92009 h 1.8839 v 8.72695 h -1.8839 z m -0.26236,-2.51389 c 0,-0.66267 0.53995,-1.20617 1.20312,-1.20617 0.66605,0 1.20626,0.54333 1.20626,1.20617 0,0.64489 -0.5408,1.2032 -1.20626,1.2032 -0.66266,0 -1.20312,-0.55856 -1.20312,-1.2032"
       style="fill:#000000;fill-opacity:1;fill-rule:nonzero;stroke:none;stroke-width:2.9856112"
       id="path7135"
       inkscape:connector-curvature="0" />
    <g
       id="g7137"
       transform="matrix(2.9856113,0,0,-2.9856113,242.88071,-478.2905)">
      <path
         d="M 0,0 C -0.088,0.503 -0.456,0.719 -0.836,0.719 -1.31,0.719 -1.631,0.438 -1.719,0 Z m -0.777,-1.204 c 0.35,0 0.613,0.157 0.754,0.362 l 0.52,-0.304 c -0.269,-0.397 -0.707,-0.637 -1.28,-0.637 -0.965,0 -1.591,0.661 -1.591,1.538 0,0.864 0.626,1.537 1.544,1.537 0.871,0 1.467,-0.701 1.467,-1.543 0,-0.088 -0.012,-0.182 -0.023,-0.263 h -2.327 c 0.099,-0.456 0.468,-0.69 0.936,-0.69"
         style="fill:#000000;fill-opacity:1;fill-rule:nonzero;stroke:none"
         id="path7139"
         inkscape:connector-curvature="0" />
    </g>
    <g
       id="g7141"
       transform="matrix(2.9856113,0,0,-2.9856113,255.08017,-478.55294)">
      <path
         d="m 0,0 v -1.795 h -0.632 v 1.731 c 0,0.444 -0.257,0.678 -0.654,0.678 -0.415,0 -0.743,-0.246 -0.743,-0.842 V -1.795 H -2.66 v 2.923 h 0.631 V 0.754 c 0.194,0.304 0.509,0.45 0.907,0.45 C -0.468,1.204 0,0.76 0,0"
         style="fill:#000000;fill-opacity:1;fill-rule:nonzero;stroke:none"
         id="path7143"
         inkscape:connector-curvature="0" />
    </g>
    <g
       id="g7145"
       transform="matrix(2.9856113,0,0,-2.9856113,257.31614,-477.55784)">
      <path
         d="m 0,0 c 0,0.871 0.66,1.537 1.543,1.537 0.573,0 1.07,-0.298 1.304,-0.754 L 2.303,0.468 C 2.175,0.742 1.888,0.918 1.537,0.918 1.023,0.918 0.631,0.526 0.631,0 c 0,-0.526 0.392,-0.918 0.906,-0.918 0.351,0 0.638,0.181 0.778,0.45 l 0.543,-0.31 C 2.613,-1.239 2.116,-1.537 1.543,-1.537 0.66,-1.537 0,-0.865 0,0"
         style="fill:#000000;fill-opacity:1;fill-rule:nonzero;stroke:none"
         id="path7147"
         inkscape:connector-curvature="0" />
    </g>
    <g
       id="g7149"
       transform="matrix(2.9856113,0,0,-2.9856113,274.36812,-478.2905)">
      <path
         d="M 0,0 C -0.088,0.503 -0.457,0.719 -0.836,0.719 -1.31,0.719 -1.631,0.438 -1.719,0 Z m -0.778,-1.204 c 0.351,0 0.614,0.157 0.754,0.362 l 0.52,-0.304 c -0.269,-0.397 -0.706,-0.637 -1.28,-0.637 -0.964,0 -1.59,0.661 -1.59,1.538 0,0.864 0.626,1.537 1.544,1.537 0.871,0 1.467,-0.701 1.467,-1.543 0,-0.088 -0.012,-0.182 -0.023,-0.263 h -2.327 c 0.099,-0.456 0.467,-0.69 0.935,-0.69"
         style="fill:#000000;fill-opacity:1;fill-rule:nonzero;stroke:none"
         id="path7151"
         inkscape:connector-curvature="0" />
    </g>
  </g>
</svg>
