<?xml version="1.0" encoding="UTF-8" standalone="no"?>
<svg
   xmlns:dc="http://purl.org/dc/elements/1.1/"
   xmlns:cc="http://creativecommons.org/ns#"
   xmlns:rdf="http://www.w3.org/1999/02/22-rdf-syntax-ns#"
   xmlns:svg="http://www.w3.org/2000/svg"
   xmlns="http://www.w3.org/2000/svg"
   xmlns:sodipodi="http://sodipodi.sourceforge.net/DTD/sodipodi-0.dtd"
   xmlns:inkscape="http://www.inkscape.org/namespaces/inkscape"
   viewBox="0 0 998.87199 1000"
   height="1000"
   width="998.87201"
   xml:space="preserve"
   id="svg2"
   version="1.1"
   sodipodi:docname="Cummins.svg"
   inkscape:version="0.92.2 (5c3e80d, 2017-08-06)"><sodipodi:namedview
     pagecolor="#ffffff"
     bordercolor="#666666"
     borderopacity="1"
     objecttolerance="10"
     gridtolerance="10"
     guidetolerance="10"
     inkscape:pageopacity="0"
     inkscape:pageshadow="2"
     inkscape:window-width="1366"
     inkscape:window-height="705"
     id="namedview26"
     showgrid="false"
     inkscape:zoom="0.36535823"
     inkscape:cx="843.87001"
     inkscape:cy="622.28757"
     inkscape:window-x="-8"
     inkscape:window-y="-8"
     inkscape:window-maximized="1"
     inkscape:current-layer="svg2" /><metadata
     id="metadata8"><rdf:RDF><cc:Work
         rdf:about=""><dc:format>image/svg+xml</dc:format><dc:type
           rdf:resource="http://purl.org/dc/dcmitype/StillImage" /><dc:title /></cc:Work></rdf:RDF></metadata><defs
     id="defs6" /><path
     style="fill:#000000;fill-opacity:1;fill-rule:evenodd;stroke:none;stroke-width:3.23060989"
     d="M 500.00781 0 C 223.86496 -3.7895613e-014 0 223.85837 0 499.98828 C -7.5791225e-014 776.12792 223.86496 1000 500.00781 1000 L 998.87305 998.85938 L 998.87305 635.58789 L 538.95703 635.58789 C 464.07151 635.58789 403.36133 574.88349 403.36133 499.98828 C 403.36133 425.11567 464.07151 364.41016 538.95703 364.41016 L 998.87305 363.67383 L 998.87305 0 L 894.54688 0 L 861.60938 20.673828 C 861.57384 20.011538 859.00362 18.566772 856.06055 18.101562 C 853.12068 17.633132 850.05102 18.525471 847.25977 20.244141 C 840.98583 24.130561 838.22945 28.626151 841.17578 33.394531 C 849.46875 46.785421 901.59261 2.0992648 923.8418 38.052734 C 936.20858 58.050204 928.92878 81.337993 895.46289 102.04297 C 874.55761 114.97834 847.36089 122.42459 832.42578 101.49023 L 866.86328 80.181641 C 866.72149 80.501882 869.76106 82.354578 873.2168 82.830078 C 876.61542 83.262988 880.43411 82.422999 883.91992 80.261719 C 889.49919 76.811429 894.28379 71.308984 890.08398 64.521484 C 880.55046 49.111464 832.21778 96.029579 809.17383 58.787109 C 793.96413 34.198929 813.76114 11.7562 832.75391 0 L 500.00781 0 z M 760.60352 52.052734 C 774.7446 52.220706 787.26845 61.55874 797.99609 78.892578 L 833.64062 136.48828 L 797.39258 158.92383 L 765.95312 108.11328 C 760.04756 98.573295 752.38459 91.646065 742.10156 98.003906 C 730.9495 104.91095 732.64515 114.26154 740.25 126.55078 L 770.55664 175.5332 L 734.31445 197.9668 L 674.83398 101.83984 L 707.9375 81.353516 L 718.54883 88.542969 C 719.35326 78.608843 723.30926 68.031438 737.07812 59.505859 C 745.34596 54.393015 753.19628 51.964749 760.60352 52.052734 z M 631.11914 74.347656 L 647.91797 101.49414 L 611.67188 123.92969 L 594.875 96.78125 L 631.11914 74.347656 z M 655.52539 113.78711 L 715.00781 209.9082 L 678.75781 232.33789 L 619.2793 136.21484 L 655.52539 113.78711 z M 587.94141 158.83398 C 602.39498 159.04757 614.04759 169.58516 624.85742 187.05859 L 660.04688 243.91602 L 623.80078 266.35352 L 593.49023 217.375 C 584.75464 203.25078 578.61393 199.18315 569.03516 205.11133 C 558.40322 211.69208 562.32398 222.71161 569.47656 234.25781 L 598.87891 281.76953 L 562.63086 304.20703 L 532.32617 255.22461 C 523.58089 241.10037 517.44784 237.03149 507.85938 242.96289 C 497.23067 249.54364 501.16375 260.55347 508.30664 272.10938 L 537.71484 319.62695 L 501.4668 342.0625 L 441.98047 245.93359 L 475.26562 225.33984 L 483.95117 232.25977 C 483.94417 222.11567 491.92036 211.42588 502.49414 204.68359 C 518.73118 194.32625 532.47351 196.27775 543.18945 203.85352 C 543.8808 187.44525 550.41597 175.02148 563.83594 166.72852 C 572.16688 161.57064 579.66575 159.05966 586.5332 158.8457 C 587.00534 158.83099 587.47516 158.82709 587.94141 158.83398 z M 413.73242 266.63672 C 428.1873 266.85279 439.83822 277.39218 450.65234 294.86133 L 485.84375 351.72656 L 449.59961 374.16211 L 419.28125 325.18359 C 410.54569 311.0529 404.41267 306.9853 394.82422 312.91992 C 384.1955 319.49746 388.12213 330.51375 395.27148 342.06641 L 424.66992 389.57812 L 388.42578 412.00586 L 358.11914 363.0332 C 349.38036 348.90251 343.24214 344.84069 333.66016 350.76562 C 323.03145 357.34638 326.94966 368.36404 334.10547 379.91992 L 363.50977 427.42773 L 327.26367 449.85938 L 267.77734 353.74219 L 301.0625 333.14258 L 309.75391 340.0625 C 309.73691 329.9216 317.71588 319.22997 328.2832 312.49414 C 344.52348 302.13036 358.27422 304.08047 368.98047 311.65625 C 369.67506 295.24474 376.20632 282.82999 389.62305 274.52734 C 397.956 269.37149 405.45604 266.86121 412.32422 266.64844 C 412.79641 266.63381 413.26614 266.62975 413.73242 266.63672 z M 251.39648 363.88281 L 310.875 460.00391 L 277.24219 480.82031 L 268.66797 474.07227 C 265.87351 487.40497 260.99529 494.67091 246.01172 503.94922 C 226.14346 516.23524 205.30199 511.37261 188.27344 483.86719 L 152.06445 425.3457 L 188.30859 402.91797 L 220.44141 454.83008 C 228.61162 468.03682 235.57545 469.55926 244.28516 464.17383 C 254.74589 457.70294 252.94627 447.40116 243.75195 432.53711 L 215.14648 386.31641 L 251.39648 363.88281 z M 109.77734 388.89844 L 132.625 425.81445 L 91.857422 451.04102 C 73.203896 462.5872 67.434936 487.07626 78.984375 505.72656 C 90.527345 524.38011 115.01444 530.14391 133.66797 518.60742 L 174.42969 493.375 L 197.2793 530.29883 L 150.15039 559.4668 C 111.10201 583.635 59.848574 571.57573 35.683594 532.52734 C 11.508947 493.47251 23.582476 442.22161 62.630859 418.05664 L 109.77734 388.89844 z "
     id="path22" /></svg>