<svg xmlns="http://www.w3.org/2000/svg" width="1249.998" height="1092.168" viewBox="0 0 1249.9985 1092.168"><defs><style>.cls-1{fill:#998964;}</style></defs><title>Cummins-Iron-Cross-variation-1965</title><g id="Cummins_Iron_Cross_variation_1965"><path class="cls-1" d="M630.77 1092.168c-41.826 0-80.922-14.826-110.089-41.746-32.908-30.376-50.304-73.273-50.304-124.056v-761.913c0-50.4 17.418-92.969 50.371-123.105 29.157-26.664 68.23-41.348 110.022-41.348s80.865 14.684 110.022 41.348c32.953 30.136 50.371 72.705 50.371 123.105v251.872h-129.251v-251.872c0-27.329-15.104-37.064-29.238-37.064-15.437 0-32.05 11.599-32.05 37.064v761.913c0 19.265 9.476 38.702 30.645 38.702 15.252 0 30.643-11.967 30.643-38.702v-238.318h129.251v238.318c0 50.782-17.396 93.68-50.304 124.056-29.166 26.92-68.263 41.746-110.09 41.746zm0-1053.088c-83.353 0-121.317 64.989-121.317 125.374v761.913c0 61.033 37.965 126.723 121.317 126.723s121.317-65.689 121.317-126.723v-199.24h-51.101v199.24c0 29.275-11.524 47.308-21.191 57.281a67.687 67.687 0 0 1-97.055 0c-9.667-9.974-21.191-28.006-21.191-57.281v-761.913c0-49.457 36.646-76.144 71.125-76.144 33.947 0 68.313 26.154 68.313 76.144v212.792h51.101v-212.792c0-60.383-37.965-125.373-121.319-125.373z" transform="translate(-.001)"/><path d="M29.945 443.162q26.035-26.987 66.258-26.984 53.834 0 78.711 36.177 13.736 20.314 14.757 40.773h-45.046q-4.294-15.714-11.028-23.723-12.043-14.233-35.672-14.233-24.069 0-37.964 20.09-13.906 20.093-13.901 56.86 0 36.774 14.666 55.081 14.659 18.314 37.269 18.311 23.161 0 35.33-15.716 6.723-8.451 11.153-25.354h44.75q-5.781 35.73-29.582 58.12-23.794 22.386-60.978 22.389-46.015 0-72.336-30.246-26.343-30.394-26.332-83.326-.004-57.233 29.945-88.218z"/><path d="M249.826 479.647v94.217q0 13.337 3.091 20.073 5.492 11.907 21.531 11.901 20.562 0 28.157-16.919 3.935-9.179 3.934-24.236v-85.037h40.884v156.307h-39.185v-22.086c-.376.485-1.311 1.916-2.816 4.306a28.722 28.722 0 0 1-5.36 6.307q-9.459 8.606-18.269 11.759a61.272 61.272 0 0 1-20.664 3.159q-34.127 0-45.981-24.954-6.62-13.762-6.625-40.58v-94.217h41.303v.001zM572.608 480.223q9.877 4.012 17.914 14.051a45.305 45.305 0 0 1 8.747 20.079q1.416 7.887 1.411 23.084v98.517h-39.129v-99.521a48.198 48.198 0 0 0-5.162-14.627q-5.375-10.888-19.757-10.897-16.635 0-22.987 14.057a59.619 59.619 0 0 0-4.461 17.248v93.741h-38.804v-93.065c0-9.272-1.413-16.013-3.29-20.221q-5.084-11.325-19.893-11.325-17.216 0-23.135 11.325-3.242 6.458-3.242 19.218v94.069h-40.765v-156.016h39.07v22.799q7.473-12.189 14.104-17.353 11.705-9.169 30.335-9.176 17.625 0 28.492 7.887a45.876 45.876 0 0 1 13.263 18.784q7.899-13.762 19.609-20.221a59.048 59.048 0 0 1 27.65-6.45 52.831 52.831 0 0 1 20.03 4.014zM822.322 480.223q9.905 4.012 17.961 14.051a45.237 45.237 0 0 1 8.77 20.079q1.419 7.887 1.414 23.084l-.285 98.517h-41.294v-99.521q0-8.887-2.829-14.627-5.388-10.888-19.809-10.897-16.679 0-23.048 14.057-3.267 7.46-3.261 17.923v93.065h-40.587v-93.065q0-13.908-2.828-20.221-5.097-11.325-19.946-11.325-17.259 0-23.196 11.325-3.25 6.458-3.25 19.218v94.069h-40.872v-156.016h39.173v22.799q7.493-12.189 14.141-17.353 11.735-9.169 30.415-9.176 17.67 0 28.567 7.887a45.876 45.876 0 0 1 13.297 18.784q7.92-13.762 19.661-20.221a59.332 59.332 0 0 1 27.723-6.45 53.1 53.1 0 0 1 20.083 4.014z" transform="translate(-.001)"/><path d="M919.405 461.006h-40.872v-37.711h40.872v37.711zm-40.872 18.642h40.872v156.307h-40.872v-156.307zM1076.109 488.612q15.138 12.693 15.133 42.09v105.252h-41.294v-95.073q0-12.335-3.228-18.927-5.901-12.053-22.466-12.049-20.356 0-27.94 17.638-3.935 9.324-3.935 23.808v84.603h-40.313v-156.016h39.036v22.799q7.749-12.043 14.654-17.353 12.385-9.461 31.407-9.461 23.795.001 38.946 12.689z"/><path d="M1149.86 586.052q1.266 10.898 5.542 15.488 7.527 8.169 27.849 8.172 11.94 0 18.976-3.582 7.03-3.584 7.037-10.755a11.637 11.637 0 0 0-5.668-10.47q-5.679-3.585-42.172-12.335-26.276-6.594-37.029-16.492-10.743-9.743-10.754-28.102 0-21.65 16.798-37.215 16.798-15.56 47.27-15.557 28.926 0 47.133 11.685 18.219 11.692 20.904 40.368h-40.302q-.855-7.887-4.402-12.477-6.67-8.315-22.694-8.314-13.188 0-18.794 4.157-5.593 4.157-5.6 9.751 0 7.032 5.964 10.179 5.954 3.302 42.081 11.331 24.086 5.739 36.117 17.353 11.873 11.752 11.883 29.397 0 23.223-17.083 37.928-17.09 14.695-52.79 14.695-36.437 0-53.781-15.557-17.363-15.56-17.369-39.65h40.883v.002z" transform="translate(-.001)"/></g></svg>