<?xml version="1.0" encoding="UTF-8" standalone="no"?>
<!-- Created with Inkscape (http://www.inkscape.org/) -->

<svg
   xmlns:dc="http://purl.org/dc/elements/1.1/"
   xmlns:cc="http://creativecommons.org/ns#"
   xmlns:rdf="http://www.w3.org/1999/02/22-rdf-syntax-ns#"
   xmlns:svg="http://www.w3.org/2000/svg"
   xmlns="http://www.w3.org/2000/svg"
   xmlns:sodipodi="http://sodipodi.sourceforge.net/DTD/sodipodi-0.dtd"
   xmlns:inkscape="http://www.inkscape.org/namespaces/inkscape"
   width="282.22223mm"
   height="46.463142mm"
   viewBox="0 0 1000 164.63318"
   id="svg4415"
   version="1.1"
   inkscape:version="0.91 r13725"
   sodipodi:docname="Discover logo.svg">
  <defs
     id="defs4417">
    <clipPath
       clipPathUnits="userSpaceOnUse"
       id="clipPath44">
      <path
         d="m 78.76,712.81 134.653,0 0,28.07 -134.653,0 0,-28.07 z"
         id="path46"
         inkscape:connector-curvature="0" />
    </clipPath>
    <radialGradient
       fx="0"
       fy="0"
       cx="0"
       cy="0"
       r="1"
       gradientUnits="userSpaceOnUse"
       gradientTransform="matrix(10.204285,0,0,-10.204285,147.51859,726.59412)"
       spreadMethod="pad"
       id="radialGradient28">
      <stop
         style="stop-opacity:1;stop-color:#ffefe1"
         offset="0"
         id="stop30" />
      <stop
         style="stop-opacity:1;stop-color:#ffefe1"
         offset="0.00561523"
         id="stop32" />
      <stop
         style="stop-opacity:1;stop-color:#ffefe1"
         offset="0.2671751"
         id="stop34" />
      <stop
         style="stop-opacity:1;stop-color:#ff6600"
         offset="1"
         id="stop36" />
    </radialGradient>
  </defs>
  <sodipodi:namedview
     id="base"
     pagecolor="#ffffff"
     bordercolor="#666666"
     borderopacity="1.0"
     inkscape:pageopacity="0.0"
     inkscape:pageshadow="2"
     inkscape:zoom="0.35"
     inkscape:cx="-411.41297"
     inkscape:cy="89.96328"
     inkscape:document-units="px"
     inkscape:current-layer="layer1"
     showgrid="false"
     fit-margin-top="0"
     fit-margin-left="0"
     fit-margin-right="0"
     fit-margin-bottom="0"
     inkscape:window-width="1366"
     inkscape:window-height="705"
     inkscape:window-x="-8"
     inkscape:window-y="-8"
     inkscape:window-maximized="1" />
  <metadata
     id="metadata4420">
    <rdf:RDF>
      <cc:Work
         rdf:about="">
        <dc:format>image/svg+xml</dc:format>
        <dc:type
           rdf:resource="http://purl.org/dc/dcmitype/StillImage" />
        <dc:title></dc:title>
      </cc:Work>
    </rdf:RDF>
  </metadata>
  <g
     inkscape:label="Layer 1"
     inkscape:groupmode="layer"
     id="layer1"
     transform="translate(-299.27011,-457.6923)">
    <g
       transform="matrix(8.025915,0,0,-8.025915,-364.31897,6372.4634)"
       id="g16">
      <g
         id="g18">
        <g
           id="g24">
          <g
             id="g26">
            <path
               d="m 137.201,726.725 c 0,-5.847 4.427,-10.22 10.332,-10.22 l 0,0 c 5.76,0 10.304,4.43 10.304,10.102 l 0,0 c 0,5.647 -4.513,10.076 -10.304,10.076 l 0,0 c -5.705,0 -10.332,-4.458 -10.332,-9.958"
               style="fill:url(#radialGradient28);stroke:none"
               id="path38"
               inkscape:connector-curvature="0" />
          </g>
        </g>
      </g>
    </g>
    <g
       transform="matrix(8.025915,0,0,-8.025915,-364.31897,6372.4634)"
       id="g40">
      <g
         id="g42"
         clip-path="url(#clipPath44)">
        <g
           id="g48"
           transform="translate(98.7908,726.7179)">
          <path
             d="m 0,0 c 0,5.781 -4.313,9.802 -10.505,9.802 l -5.605,0 0,-19.574 5.574,0 c 2.966,0 5.106,0.704 6.985,2.26 C -1.32,-5.664 0,-2.876 0,0 m -3.932,0.03 c 0,-1.88 -0.793,-3.757 -2.114,-4.931 -1.203,-1.085 -2.758,-1.556 -5.223,-1.556 l -1.027,0 0,12.943 1.027,0 c 2.465,0 3.962,-0.44 5.223,-1.585 1.321,-1.174 2.114,-2.994 2.114,-4.871"
             style="fill:#000000;fill-opacity:1;fill-rule:nonzero;stroke:none"
             id="path50"
             inkscape:connector-curvature="0" />
        </g>
        <path
           d="m 100.552,736.52 3.815,0 0,-19.574 -3.815,0 0,19.574 z"
           style="fill:#000000;fill-opacity:1;fill-rule:nonzero;stroke:none"
           id="path52"
           inkscape:connector-curvature="0" />
        <g
           id="g54"
           transform="translate(112.5819,716.4762)">
          <path
             d="m 0,0 c -2.905,0 -5.018,1.144 -6.777,3.726 l 2.464,2.378 c 0.879,-1.702 2.346,-2.612 4.167,-2.612 1.701,0 2.964,1.175 2.964,2.759 0,0.822 -0.381,1.526 -1.145,2.025 -0.381,0.234 -1.144,0.587 -2.641,1.114 -3.58,1.292 -4.812,2.671 -4.812,5.371 0,3.199 2.641,5.605 6.103,5.605 2.143,0 4.108,-0.734 5.752,-2.171 L 4.08,15.582 c -0.998,1.116 -1.938,1.585 -3.081,1.585 -1.644,0 -2.849,-0.938 -2.849,-2.171 0,-1.057 0.678,-1.614 2.966,-2.466 C 5.459,10.945 6.75,9.537 6.75,6.427 6.75,2.642 3.963,0 0,0"
             style="fill:#000000;fill-opacity:1;fill-rule:nonzero;stroke:none"
             id="path56"
             inkscape:connector-curvature="0" />
        </g>
        <g
           id="g58"
           transform="translate(130.8634,716.5051)">
          <path
             d="m 0,0 c -5.809,0 -10.328,4.461 -10.328,10.213 0,5.693 4.636,10.241 10.416,10.241 1.644,0 3.023,-0.352 4.697,-1.203 l 0,-4.491 C 3.201,16.316 1.819,16.962 0,16.962 c -3.58,0 -6.396,-2.964 -6.396,-6.719 0,-3.963 2.729,-6.751 6.573,-6.751 1.732,0 3.082,0.617 4.608,2.143 l 0,-4.49 C 3.053,0.324 1.646,0 0,0"
             style="fill:#000000;fill-opacity:1;fill-rule:nonzero;stroke:none"
             id="path60"
             inkscape:connector-curvature="0" />
        </g>
        <g
           id="g62"
           transform="translate(167.5457,716.4464)">
          <path
             d="m 0,0 -2.054,0 -8.305,20.073 4.167,0 5.224,-13.147 5.282,13.147 4.138,0 L 0,0 Z"
             style="fill:#000000;fill-opacity:1;fill-rule:nonzero;stroke:none"
             id="path64"
             inkscape:connector-curvature="0" />
        </g>
        <g
           id="g66"
           transform="translate(177.7279,716.9459)">
          <path
             d="m 0,0 0,19.574 10.827,0 0,-3.316 -7.012,0 0,-4.343 6.75,0 0,-3.316 -6.75,0 0,-5.284 7.012,0 L 10.827,0 0,0 Z"
             style="fill:#000000;fill-opacity:1;fill-rule:nonzero;stroke:none"
             id="path68"
             inkscape:connector-curvature="0" />
        </g>
        <g
           id="g70"
           transform="translate(205.3715,716.9459)">
          <path
             d="m 0,0 -6.161,8.246 c 2.874,0.588 4.46,2.553 4.46,5.546 0,3.669 -2.524,5.782 -6.926,5.782 l -5.664,0 0,-19.574 3.814,0 0,7.865 0.499,0 L -4.694,0 0,0 Z m -5.634,13.587 c 0,-1.966 -1.291,-3.023 -3.726,-3.023 l -1.117,0 0,5.928 1.175,0 c 2.377,0 3.668,-0.997 3.668,-2.905"
             style="fill:#000000;fill-opacity:1;fill-rule:nonzero;stroke:none"
             id="path72"
             inkscape:connector-curvature="0" />
        </g>
        <g
           id="g74"
           transform="translate(205.9482,735.0513)">
          <path
             d="m 0,0 c 0,-0.151 -0.107,-0.229 -0.311,-0.229 l -0.075,0 0,0.448 0.08,0 C -0.104,0.219 0,0.146 0,0 m 0.604,-1.188 -0.57,0.713 c 0.242,0.065 0.38,0.242 0.38,0.483 0,0.341 -0.238,0.531 -0.657,0.531 l -0.548,0 0,-1.727 0.405,0 0,0.669 0.485,-0.669 0.505,0 z m 0.725,0.868 c 0,0.825 -0.67,1.503 -1.485,1.503 -0.838,0 -1.506,-0.67 -1.506,-1.503 0,-0.838 0.674,-1.507 1.506,-1.507 0.815,0 1.485,0.678 1.485,1.507 M 1.026,-0.325 c 0,-0.677 -0.534,-1.233 -1.188,-1.233 -0.663,0 -1.202,0.552 -1.202,1.233 0,0.687 0.535,1.235 1.202,1.235 0.654,0 1.188,-0.557 1.188,-1.235"
             style="fill:#000000;fill-opacity:1;fill-rule:nonzero;stroke:none"
             id="path76"
             inkscape:connector-curvature="0" />
        </g>
      </g>
    </g>
  </g>
</svg>
