<?xml version="1.0" encoding="UTF-8" standalone="no"?>
<!-- Created with Inkscape (http://www.inkscape.org/) -->

<svg
   xmlns:dc="http://purl.org/dc/elements/1.1/"
   xmlns:cc="http://creativecommons.org/ns#"
   xmlns:rdf="http://www.w3.org/1999/02/22-rdf-syntax-ns#"
   xmlns:svg="http://www.w3.org/2000/svg"
   xmlns="http://www.w3.org/2000/svg"
   xmlns:sodipodi="http://sodipodi.sourceforge.net/DTD/sodipodi-0.dtd"
   xmlns:inkscape="http://www.inkscape.org/namespaces/inkscape"
   width="1000"
   height="278.9548"
   id="svg4219"
   version="1.1"
   inkscape:version="0.48.5 r10040"
   sodipodi:docname="New document 4">
  <defs
     id="defs4221">
    <clipPath
       clipPathUnits="userSpaceOnUse"
       id="clipPath4135">
      <path
         inkscape:connector-curvature="0"
         d="M 0,792 1224,792 1224,0 0,0 0,792 z"
         id="path4137" />
    </clipPath>
  </defs>
  <sodipodi:namedview
     id="base"
     pagecolor="#ffffff"
     bordercolor="#666666"
     borderopacity="1.0"
     inkscape:pageopacity="0.0"
     inkscape:pageshadow="2"
     inkscape:zoom="0.40506722"
     inkscape:cx="764.30306"
     inkscape:cy="-70.730698"
     inkscape:document-units="px"
     inkscape:current-layer="layer1"
     showgrid="false"
     fit-margin-top="0"
     fit-margin-left="0"
     fit-margin-right="0"
     fit-margin-bottom="0"
     inkscape:window-width="1012"
     inkscape:window-height="1035"
     inkscape:window-x="900"
     inkscape:window-y="-12"
     inkscape:window-maximized="0" />
  <metadata
     id="metadata4224">
    <rdf:RDF>
      <cc:Work
         rdf:about="">
        <dc:format>image/svg+xml</dc:format>
        <dc:type
           rdf:resource="http://purl.org/dc/dcmitype/StillImage" />
        <dc:title></dc:title>
      </cc:Work>
    </rdf:RDF>
  </metadata>
  <g
     inkscape:label="Layer 1"
     inkscape:groupmode="layer"
     id="layer1"
     transform="translate(-503.51145,-47.435917)">
    <g
       id="g4131"
       transform="matrix(8.8308954,0,0,-8.8308954,-4102.6933,974.26361)">
      <g
         id="g4133"
         clip-path="url(#clipPath4135)">
        <g
           id="g4139"
           transform="translate(544.0733,82.7407)">
          <path
             d="m 0,0 c 0,-1.213 -0.728,-1.618 -1.6,-1.618 -0.679,0 -1.727,0.248 -2.581,0.481 l 0,15.131 c 0.854,0.226 1.902,0.473 2.581,0.473 0.872,0 1.6,-0.405 1.6,-1.618 L 0,0 z m -1.029,18.423 c -1.371,0 -3.349,-0.405 -6.928,-1.511 l 0,-20.975 c 3.147,-0.954 5.557,-1.511 6.928,-1.511 3.16,0 4.94,1.933 4.94,5.035 l 0,13.927 c 0,3.101 -1.78,5.035 -4.94,5.035"
             style="fill:#e51d25;fill-opacity:1;fill-rule:nonzero;stroke:none"
             id="path4141"
             inkscape:connector-curvature="0" />
        </g>
        <g
           id="g4143"
           transform="translate(590.1509,79.5805)">
          <path
             d="M 0,0 C 0,-1.213 -0.405,-1.843 -1.933,-1.888 -3.506,-1.933 -3.934,-1.259 -3.934,0 l 0,19.155 c 0,1.259 0.428,1.955 2.001,1.91 C -0.405,21.021 0,20.369 0,19.155 L 0,0 z m -1.933,25.358 c -4.001,0.194 -6.383,-1.573 -6.383,-5.619 l 0,-20.098 c 0,-4.271 2.157,-6.029 6.383,-5.844 4.136,0.18 6.293,1.753 6.293,6.293 l 0,19.186 c 0,4.329 -1.95,5.871 -6.293,6.082"
             style="fill:#e51d25;fill-opacity:1;fill-rule:nonzero;stroke:none"
             id="path4145"
             inkscape:connector-curvature="0" />
        </g>
        <g
           id="g4147"
           transform="translate(627.1119,97.0952)">
          <path
             d="m 0,0 0,-15.833 c 4.909,2.333 7.728,5.044 7.728,7.948 C 7.728,-5.013 4.909,-2.315 0,0"
             style="fill:#e51d25;fill-opacity:1;fill-rule:nonzero;stroke:none"
             id="path4149"
             inkscape:connector-curvature="0" />
        </g>
        <g
           id="g4151"
           transform="translate(521.6011,89.2104)">
          <path
             d="m 0,0 c 0,-2.9 2.814,-5.615 7.723,-7.943 l 0,15.823 C 2.814,5.569 0,2.872 0,0"
             style="fill:#e51d25;fill-opacity:1;fill-rule:nonzero;stroke:none"
             id="path4153"
             inkscape:connector-curvature="0" />
        </g>
        <g
           id="g4155"
           transform="translate(558.9981,80.2827)">
          <path
             d="m 0,0 c 0,-1.214 -0.418,-1.983 -1.933,-1.799 -1.488,0.18 -1.888,0.81 -1.888,2.248 l 0,22.827 C -4.81,23.169 -7.013,22.863 -7.957,22.729 l 0,-23.089 c 0,-3.686 1.79,-5.12 6.024,-5.606 3.875,-0.445 6.248,1.515 6.248,5.606 l 0,24.392 C 3.506,23.986 0.854,23.762 0,23.672 L 0,0 z"
             style="fill:#e51d25;fill-opacity:1;fill-rule:nonzero;stroke:none"
             id="path4157"
             inkscape:connector-curvature="0" />
        </g>
        <g
           id="g4159"
           transform="translate(606.4918,87.8256)">
          <path
             d="m 0,0 -4.788,15.621 c -1.303,0.171 -2.877,0.347 -4.09,0.459 l 0,-29.485 c 0.854,0.081 3.029,0.328 4.153,0.471 L -5.066,4.441 0,-12.255 c 1.079,0.171 2.652,0.445 3.686,0.644 l 0,25.906 c -1.079,0.212 -3.039,0.544 -3.983,0.687 L 0,0 z"
             style="fill:#e51d25;fill-opacity:1;fill-rule:nonzero;stroke:none"
             id="path4161"
             inkscape:connector-curvature="0" />
        </g>
        <g
           id="g4163"
           transform="translate(574.732,90.311)">
          <path
             d="M 0,0 C 0,-1.321 -0.463,-1.991 -2.216,-1.995 L -3.731,-2 l 0,12.124 c 0.674,0.036 1.034,0.045 1.438,0.045 C -0.396,10.169 0,9.449 0,8.101 L 0,0 z m -2.041,14.457 c -0.751,0 -3.488,-0.094 -6.006,-0.242 l 0,-30.726 c 0.854,-0.045 3.102,-0.162 4.316,-0.193 l 0,10.433 1.69,0.004 c 4.522,0.014 6.401,2.041 6.401,5.944 l 0,9.053 c 0,3.822 -2.112,5.727 -6.401,5.727"
             style="fill:#e51d25;fill-opacity:1;fill-rule:nonzero;stroke:none"
             id="path4165"
             inkscape:connector-curvature="0" />
        </g>
        <g
           id="g4167"
           transform="translate(612.313,97.5893)">
          <path
             d="m 0,0 c 1.068,-0.191 2.121,-0.404 3.147,-0.629 l 0,-19.604 c 0.944,0.219 2.697,0.678 3.866,1.024 l 0,17.654 c 1.121,-0.29 2.179,-0.582 3.147,-0.859 l 0,3.78 C 7.107,2.432 3.83,3.3 0,4.1 L 0,0 z"
             style="fill:#e51d25;fill-opacity:1;fill-rule:nonzero;stroke:none"
             id="path4169"
             inkscape:connector-curvature="0" />
        </g>
      </g>
    </g>
  </g>
</svg>
