<?xml version="1.0" encoding="UTF-8" standalone="no"?>
<!-- Created with Inkscape (http://www.inkscape.org/) -->

<svg
   xmlns:dc="http://purl.org/dc/elements/1.1/"
   xmlns:cc="http://creativecommons.org/ns#"
   xmlns:rdf="http://www.w3.org/1999/02/22-rdf-syntax-ns#"
   xmlns:svg="http://www.w3.org/2000/svg"
   xmlns="http://www.w3.org/2000/svg"
   xmlns:sodipodi="http://sodipodi.sourceforge.net/DTD/sodipodi-0.dtd"
   xmlns:inkscape="http://www.inkscape.org/namespaces/inkscape"
   width="1000"
   height="199.19258"
   viewBox="0 0 264.58333 52.703039"
   version="1.1"
   id="svg5835"
   inkscape:version="0.92.4 (5da689c313, 2019-01-14)"
   sodipodi:docname="A.svg">
  <defs
     id="defs5829" />
  <sodipodi:namedview
     id="base"
     pagecolor="#ffffff"
     bordercolor="#666666"
     borderopacity="1.0"
     inkscape:pageopacity="0.0"
     inkscape:pageshadow="2"
     inkscape:zoom="0.35"
     inkscape:cx="1560"
     inkscape:cy="-234.68939"
     inkscape:document-units="mm"
     inkscape:current-layer="layer1"
     showgrid="false"
     units="px"
     fit-margin-top="0"
     fit-margin-left="0"
     fit-margin-right="0"
     fit-margin-bottom="0"
     inkscape:window-width="1920"
     inkscape:window-height="1017"
     inkscape:window-x="1912"
     inkscape:window-y="-8"
     inkscape:window-maximized="1" />
  <metadata
     id="metadata5832">
    <rdf:RDF>
      <cc:Work
         rdf:about="">
        <dc:format>image/svg+xml</dc:format>
        <dc:type
           rdf:resource="http://purl.org/dc/dcmitype/StillImage" />
        <dc:title></dc:title>
      </cc:Work>
    </rdf:RDF>
  </metadata>
  <g
     inkscape:label="Layer 1"
     inkscape:groupmode="layer"
     id="layer1"
     transform="translate(306.91667,-34.035385)">
    <g
       id="g5705"
       transform="matrix(3.2765333,0,0,-3.2765333,-175.16956,35.522933)">
      <path
         d="m 0,0 v -15.255 h 9.188 l 1.435,4.391 H 5.106 V 0 Z"
         style="fill:#0d8ad5;fill-opacity:1;fill-rule:nonzero;stroke:none"
         id="path5707"
         inkscape:connector-curvature="0" />
    </g>
    <g
       id="g5709"
       transform="matrix(3.2765333,0,0,-3.2765333,-306.91667,35.522933)">
      <path
         d="m 0,0 v -15.255 h 11.551 v 4.391 H 5.107 v 1.245 H 10.7 V -5.64 H 5.107 v 1.247 h 6.444 V 0 Z"
         style="fill:#0d8ad5;fill-opacity:1;fill-rule:nonzero;stroke:none"
         id="path5711"
         inkscape:connector-curvature="0" />
    </g>
    <g
       id="g5721"
       transform="matrix(3.2765333,0,0,-3.2765333,-238.27101,71.118534)">
      <path
         d="m 0,0 c -2.118,0 -3.674,1.183 -3.674,3.236 0,2.055 1.532,3.235 3.674,3.235 h 2.348 v 4.392 h -3.512 c -5.136,0 -7.9,-3.249 -7.9,-7.627 0,-4.379 2.788,-7.627 7.924,-7.627 H 2.348 V 0 Z"
         style="fill:#0d8ad5;fill-opacity:1;fill-rule:nonzero;stroke:none"
         id="path5723"
         inkscape:connector-curvature="0" />
    </g>
    <g
       id="g5725"
       transform="matrix(3.2765333,0,0,-3.2765333,-69.78085,46.610064)">
      <path
         d="m 0,0 v -2.324 h 1.561 c 0.962,0 1.331,0.443 1.331,1.161 C 2.892,-0.392 2.508,0 1.561,0 Z m 0.008,-5.722 v -2.683 h 1.7 c 1.043,0 1.499,0.439 1.499,1.343 0,0.852 -0.431,1.34 -1.499,1.34 z m -4.98,9.114 h 8.05 c 3.01,0 4.811,-1.719 4.811,-3.979 0,-1.916 -0.965,-2.963 -2.217,-3.374 v -0.037 c 1.431,-0.412 2.705,-1.601 2.705,-3.507 0,-2.706 -1.816,-4.366 -5.33,-4.366 h -8.019 z"
         style="fill:#0d8ad5;fill-opacity:1;fill-rule:nonzero;stroke:none"
         id="path5727"
         inkscape:connector-curvature="0" />
    </g>
    <g
       id="g5729"
       transform="matrix(3.2765333,0,0,-3.2765333,-115.05599,49.298461)">
      <path
         d="M 0,0 H -0.065 L -1.442,-5.196 H 1.377 Z M 8.47,-11.051 H 2.916 l -0.552,2.039 h -4.807 l -0.538,-2.039 h -5.554 l 4.81,15.271 h 7.4 z"
         style="fill:#0d8ad5;fill-opacity:1;fill-rule:nonzero;stroke:none"
         id="path5731"
         inkscape:connector-curvature="0" />
    </g>
    <g
       id="g5733"
       transform="matrix(3.2765333,0,0,-3.2765333,-201.48504,66.374769)">
      <path
         d="m 0,0 c -0.201,-0.071 -0.415,-0.11 -0.641,-0.11 -0.027,0 -0.054,0.002 -0.081,0.003 l -3.577,-4.654 2.734,4.884 c -0.147,0.08 -0.281,0.18 -0.4,0.294 l -3.412,-4.448 2.91,5.216 c -0.072,0.201 -0.113,0.417 -0.113,0.643 0,0.029 0.004,0.058 0.006,0.087 l -4.693,3.607 4.928,-2.76 c 0.075,0.138 0.169,0.262 0.273,0.377 l -4.453,3.468 5.225,-2.955 c 0.204,0.073 0.424,0.115 0.653,0.115 0.032,0 0.061,-0.003 0.09,-0.004 L 3.025,8.424 0.299,3.523 C 0.438,3.447 0.563,3.354 0.679,3.246 L 4.103,7.668 1.191,2.458 C 1.26,2.26 1.3,2.049 1.3,1.828 1.3,1.81 1.297,1.791 1.296,1.772 L 5.92,-1.794 1.057,0.89 C 0.98,0.751 0.885,0.624 0.778,0.508 l 4.409,-3.395 z m -0.639,9.87 c -4.44,0 -8.042,-3.601 -8.042,-8.043 0,-4.442 3.602,-8.042 8.042,-8.042 4.442,0 8.043,3.6 8.043,8.042 0,4.442 -3.601,8.043 -8.043,8.043"
         style="fill:#0d8ad5;fill-opacity:1;fill-rule:nonzero;stroke:none"
         id="path5735"
         inkscape:connector-curvature="0" />
    </g>
  </g>
</svg>
