<?xml version="1.0" encoding="UTF-8" standalone="no"?>
<!-- Created with Inkscape (http://www.inkscape.org/) -->

<svg
   xmlns:dc="http://purl.org/dc/elements/1.1/"
   xmlns:cc="http://creativecommons.org/ns#"
   xmlns:rdf="http://www.w3.org/1999/02/22-rdf-syntax-ns#"
   xmlns:svg="http://www.w3.org/2000/svg"
   xmlns="http://www.w3.org/2000/svg"
   xmlns:sodipodi="http://sodipodi.sourceforge.net/DTD/sodipodi-0.dtd"
   xmlns:inkscape="http://www.inkscape.org/namespaces/inkscape"
   version="1.1"
   id="svg2393"
   xml:space="preserve"
   width="1000"
   height="438.60733"
   viewBox="0 0 999.99998 438.60732"
   sodipodi:docname="A.svg"
   inkscape:version="0.92.4 (5da689c313, 2019-01-14)"><metadata
     id="metadata2399"><rdf:RDF><cc:Work
         rdf:about=""><dc:format>image/svg+xml</dc:format><dc:type
           rdf:resource="http://purl.org/dc/dcmitype/StillImage" /><dc:title></dc:title></cc:Work></rdf:RDF></metadata><defs
     id="defs2397"><clipPath
       clipPathUnits="userSpaceOnUse"
       id="clipPath2415"><path
         d="M 0,0 H 841.89 V 595.276 H 0 Z"
         id="path2413"
         inkscape:connector-curvature="0" /></clipPath><clipPath
       clipPathUnits="userSpaceOnUse"
       id="clipPath2451"><path
         d="M 0,0 H 841.89 V 595.276 H 0 Z"
         id="path2449"
         inkscape:connector-curvature="0" /></clipPath><clipPath
       clipPathUnits="userSpaceOnUse"
       id="clipPath2475"><path
         d="M 0,0 H 841.89 V 595.276 H 0 Z"
         id="path2473"
         inkscape:connector-curvature="0" /></clipPath><clipPath
       clipPathUnits="userSpaceOnUse"
       id="clipPath2497"><path
         d="M 0,0 H 841.89 V 595.276 H 0 Z"
         id="path2495"
         inkscape:connector-curvature="0" /></clipPath><linearGradient
       x1="0"
       y1="0"
       x2="1"
       y2="0"
       gradientUnits="userSpaceOnUse"
       gradientTransform="matrix(17.673114,-10.323188,-10.323188,-17.673114,102.27248,802.83232)"
       spreadMethod="pad"
       id="linearGradient2986"><stop
         style="stop-opacity:1;stop-color:#18468b"
         offset="0"
         id="stop2976" /><stop
         style="stop-opacity:1;stop-color:#18468b"
         offset="0.20224"
         id="stop2978" /><stop
         style="stop-opacity:1;stop-color:#7787bf"
         offset="0.505615"
         id="stop2980" /><stop
         style="stop-opacity:1;stop-color:#18468b"
         offset="0.80336"
         id="stop2982" /><stop
         style="stop-opacity:1;stop-color:#18468b"
         offset="1"
         id="stop2984" /></linearGradient><linearGradient
       x1="0"
       y1="0"
       x2="1"
       y2="0"
       gradientUnits="userSpaceOnUse"
       gradientTransform="matrix(17.673256,-10.323295,-10.323295,-17.673256,99.496897,798.14749)"
       spreadMethod="pad"
       id="linearGradient2960"><stop
         style="stop-opacity:1;stop-color:#18468b"
         offset="0"
         id="stop2950" /><stop
         style="stop-opacity:1;stop-color:#18468b"
         offset="0.20224"
         id="stop2952" /><stop
         style="stop-opacity:1;stop-color:#7787bf"
         offset="0.505615"
         id="stop2954" /><stop
         style="stop-opacity:1;stop-color:#18468b"
         offset="0.80336"
         id="stop2956" /><stop
         style="stop-opacity:1;stop-color:#18468b"
         offset="1"
         id="stop2958" /></linearGradient><linearGradient
       x1="0"
       y1="0"
       x2="1"
       y2="0"
       gradientUnits="userSpaceOnUse"
       gradientTransform="matrix(17.673114,-10.323188,-10.323188,-17.673114,96.720959,793.4627)"
       spreadMethod="pad"
       id="linearGradient2934"><stop
         style="stop-opacity:1;stop-color:#18468b"
         offset="0"
         id="stop2924" /><stop
         style="stop-opacity:1;stop-color:#18468b"
         offset="0.20224"
         id="stop2926" /><stop
         style="stop-opacity:1;stop-color:#7787bf"
         offset="0.505615"
         id="stop2928" /><stop
         style="stop-opacity:1;stop-color:#18468b"
         offset="0.80336"
         id="stop2930" /><stop
         style="stop-opacity:1;stop-color:#18468b"
         offset="1"
         id="stop2932" /></linearGradient><linearGradient
       x1="0"
       y1="0"
       x2="1"
       y2="0"
       gradientUnits="userSpaceOnUse"
       gradientTransform="matrix(16.439349,-9.6008939,-6.571977,-11.256092,100.05736,797.82703)"
       spreadMethod="pad"
       id="linearGradient2908"><stop
         style="stop-opacity:1;stop-color:#918f90"
         offset="0"
         id="stop2898" /><stop
         style="stop-opacity:1;stop-color:#918f90"
         offset="0.09631842"
         id="stop2900" /><stop
         style="stop-opacity:1;stop-color:#e9e9e9"
         offset="0.5"
         id="stop2902" /><stop
         style="stop-opacity:1;stop-color:#e9e9e9"
         offset="0.63150486"
         id="stop2904" /><stop
         style="stop-opacity:1;stop-color:#918f90"
         offset="1"
         id="stop2906" /></linearGradient><linearGradient
       x1="0"
       y1="0"
       x2="1"
       y2="0"
       gradientUnits="userSpaceOnUse"
       gradientTransform="matrix(16.439242,-9.6008233,-6.5719416,-11.255984,94.511887,788.4692)"
       spreadMethod="pad"
       id="linearGradient2882"><stop
         style="stop-opacity:1;stop-color:#918f90"
         offset="0"
         id="stop2872" /><stop
         style="stop-opacity:1;stop-color:#918f90"
         offset="0.09631842"
         id="stop2874" /><stop
         style="stop-opacity:1;stop-color:#e9e9e9"
         offset="0.5"
         id="stop2876" /><stop
         style="stop-opacity:1;stop-color:#e9e9e9"
         offset="0.63150486"
         id="stop2878" /><stop
         style="stop-opacity:1;stop-color:#918f90"
         offset="1"
         id="stop2880" /></linearGradient><linearGradient
       x1="0"
       y1="0"
       x2="1"
       y2="0"
       gradientUnits="userSpaceOnUse"
       gradientTransform="matrix(3.048e-4,-1.78e-4,-1.219e-4,-2.087e-4,108.05276,773.89827)"
       spreadMethod="pad"
       id="linearGradient2856"><stop
         style="stop-opacity:1;stop-color:#918f90"
         offset="0"
         id="stop2846" /><stop
         style="stop-opacity:1;stop-color:#918f90"
         offset="0.09631842"
         id="stop2848" /><stop
         style="stop-opacity:1;stop-color:#e9e9e9"
         offset="0.5"
         id="stop2850" /><stop
         style="stop-opacity:1;stop-color:#e9e9e9"
         offset="0.63150486"
         id="stop2852" /><stop
         style="stop-opacity:1;stop-color:#918f90"
         offset="1"
         id="stop2854" /></linearGradient><linearGradient
       x1="0"
       y1="0"
       x2="1"
       y2="0"
       gradientUnits="userSpaceOnUse"
       gradientTransform="matrix(3.048e-4,-1.78e-4,-1.219e-4,-2.087e-4,110.8287,778.5822)"
       spreadMethod="pad"
       id="linearGradient2830"><stop
         style="stop-opacity:1;stop-color:#918f90"
         offset="0"
         id="stop2820" /><stop
         style="stop-opacity:1;stop-color:#918f90"
         offset="0.09631842"
         id="stop2822" /><stop
         style="stop-opacity:1;stop-color:#e9e9e9"
         offset="0.5"
         id="stop2824" /><stop
         style="stop-opacity:1;stop-color:#e9e9e9"
         offset="0.63150486"
         id="stop2826" /><stop
         style="stop-opacity:1;stop-color:#918f90"
         offset="1"
         id="stop2828" /></linearGradient><linearGradient
       x1="0"
       y1="0"
       x2="1"
       y2="0"
       gradientUnits="userSpaceOnUse"
       gradientTransform="matrix(16.439385,-9.6008939,-6.572013,-11.256092,97.287118,793.15304)"
       spreadMethod="pad"
       id="linearGradient2804"><stop
         style="stop-opacity:1;stop-color:#918f90"
         offset="0"
         id="stop2794" /><stop
         style="stop-opacity:1;stop-color:#918f90"
         offset="0.09631842"
         id="stop2796" /><stop
         style="stop-opacity:1;stop-color:#e9e9e9"
         offset="0.5"
         id="stop2798" /><stop
         style="stop-opacity:1;stop-color:#e9e9e9"
         offset="0.63150486"
         id="stop2800" /><stop
         style="stop-opacity:1;stop-color:#918f90"
         offset="1"
         id="stop2802" /></linearGradient><linearGradient
       x1="0"
       y1="0"
       x2="1"
       y2="0"
       gradientUnits="userSpaceOnUse"
       gradientTransform="matrix(9.144e-4,-5.34e-4,-3.656e-4,-6.261e-4,119.15403,792.63616)"
       spreadMethod="pad"
       id="linearGradient2778"><stop
         style="stop-opacity:1;stop-color:#918f90"
         offset="0"
         id="stop2768" /><stop
         style="stop-opacity:1;stop-color:#918f90"
         offset="0.09631842"
         id="stop2770" /><stop
         style="stop-opacity:1;stop-color:#e9e9e9"
         offset="0.5"
         id="stop2772" /><stop
         style="stop-opacity:1;stop-color:#e9e9e9"
         offset="0.63150486"
         id="stop2774" /><stop
         style="stop-opacity:1;stop-color:#918f90"
         offset="1"
         id="stop2776" /></linearGradient><linearGradient
       x1="0"
       y1="0"
       x2="1"
       y2="0"
       gradientUnits="userSpaceOnUse"
       gradientTransform="matrix(17.613397,-10.28656,-10.28656,-17.613397,105.08691,807.51675)"
       spreadMethod="pad"
       id="linearGradient2752"><stop
         style="stop-opacity:1;stop-color:#918f90"
         offset="0"
         id="stop2742" /><stop
         style="stop-opacity:1;stop-color:#918f90"
         offset="0.09631842"
         id="stop2744" /><stop
         style="stop-opacity:1;stop-color:#e9e9e9"
         offset="0.5"
         id="stop2746" /><stop
         style="stop-opacity:1;stop-color:#e9e9e9"
         offset="0.63150486"
         id="stop2748" /><stop
         style="stop-opacity:1;stop-color:#918f90"
         offset="1"
         id="stop2750" /></linearGradient><linearGradient
       x1="0"
       y1="0"
       x2="1"
       y2="0"
       gradientUnits="userSpaceOnUse"
       gradientTransform="matrix(16.439277,-9.6008233,-6.5719416,-11.25602,102.83971,802.52315)"
       spreadMethod="pad"
       id="linearGradient2726"><stop
         style="stop-opacity:1;stop-color:#918f90"
         offset="0"
         id="stop2716" /><stop
         style="stop-opacity:1;stop-color:#918f90"
         offset="0.09631842"
         id="stop2718" /><stop
         style="stop-opacity:1;stop-color:#e9e9e9"
         offset="0.5"
         id="stop2720" /><stop
         style="stop-opacity:1;stop-color:#e9e9e9"
         offset="0.63150486"
         id="stop2722" /><stop
         style="stop-opacity:1;stop-color:#918f90"
         offset="1"
         id="stop2724" /></linearGradient><linearGradient
       x1="0"
       y1="0"
       x2="1"
       y2="0"
       gradientUnits="userSpaceOnUse"
       gradientTransform="matrix(7.62e-4,-4.45e-4,-3.046e-4,-5.218e-4,116.37845,787.95186)"
       spreadMethod="pad"
       id="linearGradient2700"><stop
         style="stop-opacity:1;stop-color:#918f90"
         offset="0"
         id="stop2690" /><stop
         style="stop-opacity:1;stop-color:#918f90"
         offset="0.09631842"
         id="stop2692" /><stop
         style="stop-opacity:1;stop-color:#e9e9e9"
         offset="0.5"
         id="stop2694" /><stop
         style="stop-opacity:1;stop-color:#e9e9e9"
         offset="0.63150486"
         id="stop2696" /><stop
         style="stop-opacity:1;stop-color:#918f90"
         offset="1"
         id="stop2698" /></linearGradient><clipPath
       clipPathUnits="userSpaceOnUse"
       id="clipPath2648"><path
         d="m 42.52,745.89 h 164.409 v 67.654 H 42.52 Z"
         id="path2646"
         inkscape:connector-curvature="0" /></clipPath></defs><sodipodi:namedview
     pagecolor="#ffffff"
     bordercolor="#666666"
     borderopacity="1"
     objecttolerance="10"
     gridtolerance="10"
     guidetolerance="10"
     inkscape:pageopacity="0"
     inkscape:pageshadow="2"
     inkscape:window-width="1029"
     inkscape:window-height="1020"
     id="namedview2395"
     showgrid="false"
     fit-margin-top="0"
     fit-margin-left="0"
     fit-margin-right="0"
     fit-margin-bottom="0"
     inkscape:zoom="0.42050376"
     inkscape:cx="771.0948"
     inkscape:cy="54.455427"
     inkscape:window-x="884"
     inkscape:window-y="-3"
     inkscape:window-maximized="0"
     inkscape:current-layer="g2401" /><g
     id="g2401"
     inkscape:groupmode="layer"
     inkscape:label="Invest_in_Harrogate"
     transform="matrix(1.3333333,0,0,-1.3333333,-1550.9326,215.03643)"><g
       transform="matrix(5.8003341,0,0,5.8003341,909.80785,-4549.1914)"
       id="g2642"><g
         clip-path="url(#clipPath2648)"
         id="g2644"><g
           transform="translate(105.5701,762.2023)"
           id="g2650"><path
             inkscape:connector-curvature="0"
             id="path2652"
             style="fill:#18468b;fill-opacity:1;fill-rule:nonzero;stroke:none"
             d="m 0,0 h 1.776 l 5.335,-6.423 h 5.588 L 6.181,0.545 c 1.371,0.432 4.222,1.272 4.222,4.202 0,4.27 -5.776,4.384 -8.627,4.384 H -4.22 C -4.851,9.131 -5,9.064 -5,8.653 V -6.431 c 0,0 0.149,0.004 0.78,0.004 h 3.443 L 0,-6.431 Z m 0,2.386 v 4.36 h 1.368 c 1.926,0 4.036,-0.069 4.036,-2.044 0,-2.09 -2.036,-2.316 -4.441,-2.316 H 0" /></g><g
           transform="translate(153.3889,763.5438)"
           id="g2654"><path
             inkscape:connector-curvature="0"
             id="path2656"
             style="fill:#18468b;fill-opacity:1;fill-rule:nonzero;stroke:none"
             d="m 0,0 c 0,5.495 -3.518,8.175 -9.22,8.175 -5.702,0 -9.219,-2.657 -9.219,-8.175 0,-5.497 3.479,-8.154 9.219,-8.154 C -3.481,-8.154 0,-5.497 0,0 m -9.22,-5.77 c -2.776,0 -3.961,2.227 -3.961,5.77 0,3.542 1.185,5.79 3.961,5.79 2.777,0 3.962,-2.225 3.962,-5.79 0,-3.543 -1.185,-5.77 -3.962,-5.77" /></g><g
           transform="translate(89.2835,762.6794)"
           id="g2658"><path
             inkscape:connector-curvature="0"
             id="path2660"
             style="fill:#18468b;fill-opacity:1;fill-rule:nonzero;stroke:none"
             d="M 0,0 H 7.004 V 2.453 H 0 V 6.2 H 7.814 L 8.878,8.654 H -4.22 -4.285 C -4.797,8.649 -4.968,8.586 -4.997,8.296 V -6.901 L 8.7,-6.904 8.701,-6.427 v 1.499 l 0.003,0.477 H 0 Z" /></g><g
           transform="translate(172.2116,771.3336)"
           id="g2662"><path
             inkscape:connector-curvature="0"
             id="path2664"
             style="fill:#18468b;fill-opacity:1;fill-rule:nonzero;stroke:none"
             d="m 0,0 h -2.704 l -0.778,0.004 c 0,0 0.094,-9.396 0.094,-10.121 l -8.35,9.822 C -11.96,-0.046 -12.034,0 -12.59,0 h -3.036 l -0.087,-0.001 c -0.482,-0.005 -0.653,-0.066 -0.689,-0.336 v -15.226 c 0,0 0.148,0.004 0.776,0.004 h 2.704 c 0.629,0 0.778,-0.004 0.778,-0.004 v 8.658 c 0,1.045 -0.032,1.736 -0.032,2.032 0,0 8.537,-9.986 8.881,-10.366 0.342,-0.382 0.851,-0.32 0.851,-0.32 H 0 l 0.777,-0.009 V 0.004 Z" /></g><g
           transform="translate(48.6847,762.6794)"
           id="g2666"><path
             inkscape:connector-curvature="0"
             id="path2668"
             style="fill:#18468b;fill-opacity:1;fill-rule:nonzero;stroke:none"
             d="M 0,0 H 7.002 V 2.453 H 0 V 6.2 H 7.813 L 8.876,8.654 H -4.223 -4.28 C -4.838,8.649 -4.989,8.575 -4.999,8.215 V -6.901 L 8.699,-6.904 v 0.477 1.499 l 0.005,0.477 H 0 Z" /></g><g
           transform="translate(70.6208,761.7751)"
           id="g2670"><path
             inkscape:connector-curvature="0"
             id="path2672"
             style="fill:#18468b;fill-opacity:1;fill-rule:nonzero;stroke:none"
             d="M 0,0 -5.947,9.259 C -6.168,9.508 -6.243,9.553 -6.798,9.553 H -9.834 L -10.612,9.549 V -6.009 c 0,0 0.149,0.005 0.778,0.005 h 2.703 c 0.63,0 0.776,-0.005 0.776,-0.005 v 8.658 c 0,1.045 -0.029,1.455 -0.029,1.75 0,0 5.867,-9.393 6.447,-10.054 l 0.031,0.001 C 0.68,-4.99 6.242,4.399 6.242,4.399 6.242,4.104 6.21,3.694 6.21,2.649 v -8.658 c 0,0 0.149,0.005 0.777,0.005 H 9.69 c 0.631,0 0.778,-0.005 0.778,-0.005 V 9.549 L 9.69,9.553 H 6.655 C 6.098,9.553 6.026,9.508 5.804,9.259 L 0.159,0 Z" /></g><g
           transform="translate(130.819,764.1602)"
           id="g2674"><path
             inkscape:connector-curvature="0"
             id="path2676"
             style="fill:#18468b;fill-opacity:1;fill-rule:nonzero;stroke:none"
             d="m 0,0 c -3.082,1.475 -7.28,1.608 -7.28,3.334 0,1.362 1.365,1.772 2.976,1.772 2.521,0 4.692,-0.999 4.903,-0.999 0.139,0 0.28,0.09 0.384,0.227 l 0.238,0.308 1.254,1.596 c 0,10e-4 0,10e-4 0,10e-4 C 2.476,6.239 2.47,6.242 2.44,6.254 2.362,6.292 2.144,6.391 1.84,6.51 1.593,6.607 1.44,6.659 1.362,6.683 0.113,7.099 -2.19,7.559 -4.444,7.559 c -4.062,0 -7.703,-1.363 -7.703,-4.633 0,-1.886 0.861,-3.077 2.718,-3.805 3.571,-1.407 7.157,-1.329 7.157,-3.349 0,-1.409 -0.875,-2.089 -2.837,-2.089 -3.011,0 -5.604,0.999 -5.812,0.999 -0.14,0 -0.316,-0.092 -0.386,-0.227 l -0.383,-0.713 -0.672,-1.245 0.549,-0.207 c 1.116,-0.442 4.033,-1.06 6.844,-1.06 4.413,0 7.646,1.445 7.564,4.792 C 2.554,-2.254 1.786,-0.863 0,0" /></g></g></g><g
       transform="matrix(5.8003341,0,0,5.8003341,909.80785,-4549.1914)"
       id="g2678"><g
         id="g2680"><g
           id="g2686"><g
             id="g2688"><path
               inkscape:connector-curvature="0"
               id="path2702"
               style="fill:url(#linearGradient2700);stroke:none"
               d="m 116.373,787.942 c 0.003,0.006 0.009,0.012 0.01,0.019 v 0 z" /></g></g></g></g><g
       transform="matrix(5.8003341,0,0,5.8003341,909.80785,-4549.1914)"
       id="g2704"><g
         id="g2706"><g
           id="g2712"><g
             id="g2714"><path
               inkscape:connector-curvature="0"
               id="path2728"
               style="fill:url(#linearGradient2726);stroke:none"
               d="m 103.892,804.128 c -0.018,-0.036 -0.043,-0.112 -0.019,-0.218 v 0 c 0.055,-0.185 0.233,-0.451 0.474,-0.749 v 0 l 0.106,-0.132 5.576,-6.831 0.035,-0.042 5.403,-6.617 c 0.994,-1.189 1,-1.43 0.916,-1.578 v 0 l 1.972,3.309 c 0.082,0.158 -0.151,0.49 -0.49,0.912 v 0 l -0.106,0.132 -5.579,6.832 -0.032,0.041 -5.403,6.616 c -1.039,1.242 -0.949,1.49 -0.898,1.616 v 0 z" /></g></g></g></g><g
       transform="matrix(5.8003341,0,0,5.8003341,909.80785,-4549.1914)"
       id="g2730"><g
         id="g2732"><g
           id="g2738"><g
             id="g2740"><path
               inkscape:connector-curvature="0"
               id="path2754"
               style="fill:url(#linearGradient2752);stroke:none"
               d="m 106.668,808.812 c -0.018,-0.037 -0.043,-0.114 -0.018,-0.222 v 0 c 0.057,-0.186 0.235,-0.449 0.473,-0.745 v 0 l 0.106,-0.131 5.578,-6.832 0.033,-0.04 5.404,-6.618 c 0.992,-1.19 1.001,-1.43 0.916,-1.579 v 0 l 1.97,3.311 c 0.084,0.157 -0.15,0.488 -0.489,0.909 v 0 l -0.107,0.133 -5.578,6.833 -0.031,0.041 -5.405,6.616 c -1.038,1.242 -0.948,1.489 -0.896,1.615 v 0 z" /></g></g></g></g><g
       transform="matrix(5.8003341,0,0,5.8003341,909.80785,-4549.1914)"
       id="g2756"><g
         id="g2758"><g
           id="g2764"><g
             id="g2766"><path
               inkscape:connector-curvature="0"
               id="path2780"
               style="fill:url(#linearGradient2778);stroke:none"
               d="m 119.15,792.626 0.01,0.019 c -0.004,-0.006 -0.007,-0.013 -0.01,-0.019" /></g></g></g></g><g
       transform="matrix(5.8003341,0,0,5.8003341,909.80785,-4549.1914)"
       id="g2782"><g
         id="g2784"><g
           id="g2790"><g
             id="g2792"><path
               inkscape:connector-curvature="0"
               id="path2806"
               style="fill:url(#linearGradient2804);stroke:none"
               d="m 98.328,794.725 c -0.089,-0.155 0.128,-0.513 0.468,-0.933 v 0 l 0.104,-0.132 5.578,-6.831 0.034,-0.042 5.403,-6.617 c 0.994,-1.191 1.003,-1.43 0.919,-1.578 v 0 l 1.944,3.268 c 0.019,0.036 0.049,0.119 0.015,0.24 v 0 c -0.065,0.176 -0.248,0.424 -0.48,0.712 v 0 l -0.105,0.133 -5.58,6.831 -0.032,0.042 -5.405,6.616 c -1.037,1.242 -0.947,1.482 -0.888,1.608 v 0 z" /></g></g></g></g><g
       transform="matrix(5.8003341,0,0,5.8003341,909.80785,-4549.1914)"
       id="g2808"><g
         id="g2810"><g
           id="g2816"><g
             id="g2818"><path
               inkscape:connector-curvature="0"
               id="path2832"
               style="fill:url(#linearGradient2830);stroke:none"
               d="m 110.824,778.573 0.01,0.019 c -0.003,-0.006 -0.007,-0.013 -0.01,-0.019" /></g></g></g></g><g
       transform="matrix(5.8003341,0,0,5.8003341,909.80785,-4549.1914)"
       id="g2834"><g
         id="g2836"><g
           id="g2842"><g
             id="g2844"><path
               inkscape:connector-curvature="0"
               id="path2858"
               style="fill:url(#linearGradient2856);stroke:none"
               d="m 108.048,773.888 c 0.003,0.007 0.008,0.013 0.011,0.02 v 0 z" /></g></g></g></g><g
       transform="matrix(5.8003341,0,0,5.8003341,909.80785,-4549.1914)"
       id="g2860"><g
         id="g2862"><g
           id="g2868"><g
             id="g2870"><path
               inkscape:connector-curvature="0"
               id="path2884"
               style="fill:url(#linearGradient2882);stroke:none"
               d="m 95.552,790.041 c -0.09,-0.157 0.128,-0.512 0.467,-0.934 v 0 l 0.105,-0.131 5.578,-6.832 0.033,-0.041 5.404,-6.618 c 0.992,-1.188 1.003,-1.428 0.92,-1.577 v 0 l 1.933,3.25 c 0,0 0.07,0.095 0.027,0.255 v 0 c -0.066,0.178 -0.249,0.426 -0.483,0.715 v 0 l -0.105,0.132 -5.579,6.832 -0.032,0.042 -5.404,6.616 c -1.039,1.242 -0.948,1.481 -0.889,1.608 v 0 z" /></g></g></g></g><g
       transform="matrix(5.8003341,0,0,5.8003341,909.80785,-4549.1914)"
       id="g2886"><g
         id="g2888"><g
           id="g2894"><g
             id="g2896"><path
               inkscape:connector-curvature="0"
               id="path2910"
               style="fill:url(#linearGradient2908);stroke:none"
               d="m 101.104,799.41 c -0.089,-0.156 0.127,-0.512 0.467,-0.934 v 0 l 0.106,-0.131 5.577,-6.832 0.033,-0.041 5.404,-6.616 c 0.982,-1.176 0.999,-1.425 0.919,-1.573 v 0 l 1.969,3.303 c 0.082,0.158 -0.15,0.49 -0.49,0.911 v 0 l -0.106,0.132 -5.579,6.832 -0.032,0.042 -5.404,6.616 c -1.038,1.242 -0.949,1.481 -0.89,1.607 v 0 z m 12.49,-16.153 c 0.006,0.009 0.01,0.017 0.016,0.026 v 0 z" /></g></g></g></g><g
       transform="matrix(5.8003341,0,0,5.8003341,909.80785,-4549.1914)"
       id="g2912"><g
         id="g2914"><g
           id="g2920"><g
             id="g2922"><path
               inkscape:connector-curvature="0"
               id="path2936"
               style="fill:url(#linearGradient2934);stroke:none"
               d="m 97.543,793.372 c -0.024,-0.013 -0.048,-0.038 -0.058,-0.062 v 0 l -1.938,-3.271 c 0.082,0.103 0.317,0.292 1.728,-0.316 v 0 l 7.456,-3.102 0.045,-0.019 7.698,-3.201 0.111,-0.044 c 0.232,-0.083 0.762,-0.252 0.981,-0.127 v 0 c 0.023,0.013 0.082,0.088 0.094,0.108 v 0 l 1.908,3.225 c -0.082,-0.102 -0.326,-0.29 -1.734,0.318 v 0 l -7.456,3.101 -0.046,0.017 -7.698,3.202 -0.119,0.048 c -0.176,0.063 -0.506,0.168 -0.753,0.168 v 0 c -0.087,0 -0.162,-0.012 -0.219,-0.045" /></g></g></g></g><g
       transform="matrix(5.8003341,0,0,5.8003341,909.80785,-4549.1914)"
       id="g2938"><g
         id="g2940"><g
           id="g2946"><g
             id="g2948"><path
               inkscape:connector-curvature="0"
               id="path2962"
               style="fill:url(#linearGradient2960);stroke:none"
               d="m 100.318,798.057 c -0.023,-0.013 -0.046,-0.04 -0.057,-0.062 v 0 l -1.939,-3.271 c 0.083,0.103 0.318,0.291 1.728,-0.317 v 0 l 7.457,-3.101 0.046,-0.019 7.697,-3.202 0.111,-0.043 c 0.231,-0.084 0.762,-0.251 0.981,-0.127 v 0 c 0.024,0.012 0.082,0.087 0.095,0.109 v 0 l 1.908,3.224 c -0.083,-0.102 -0.326,-0.29 -1.734,0.316 v 0 l -7.456,3.102 -0.046,0.018 -7.699,3.201 -0.12,0.049 c -0.175,0.063 -0.504,0.168 -0.753,0.168 v 0 c -0.086,0 -0.162,-0.013 -0.219,-0.045" /></g></g></g></g><g
       transform="matrix(5.8003341,0,0,5.8003341,909.80785,-4549.1914)"
       id="g2964"><g
         id="g2966"><g
           id="g2972"><g
             id="g2974"><path
               inkscape:connector-curvature="0"
               id="path2988"
               style="fill:url(#linearGradient2986);stroke:none"
               d="m 103.095,802.742 c -0.025,-0.015 -0.048,-0.04 -0.058,-0.063 v 0 l -1.939,-3.27 c 0.083,0.102 0.319,0.29 1.729,-0.317 v 0 l 7.456,-3.102 0.046,-0.019 7.698,-3.201 0.111,-0.044 c 0.231,-0.083 0.76,-0.252 0.981,-0.127 v 0 c 0.022,0.013 0.082,0.087 0.094,0.108 v 0 l 1.907,3.226 c -0.082,-0.104 -0.326,-0.291 -1.734,0.317 v 0 l -7.456,3.101 -0.046,0.017 -7.698,3.202 -0.119,0.047 c -0.176,0.063 -0.507,0.169 -0.754,0.169 v 0 c -0.086,0 -0.162,-0.013 -0.218,-0.044" /></g></g></g></g></g></svg>