<?xml version="1.0" encoding="UTF-8" standalone="no"?>
<svg
   xmlns:dc="http://purl.org/dc/elements/1.1/"
   xmlns:cc="http://creativecommons.org/ns#"
   xmlns:rdf="http://www.w3.org/1999/02/22-rdf-syntax-ns#"
   xmlns:svg="http://www.w3.org/2000/svg"
   xmlns="http://www.w3.org/2000/svg"
   xmlns:sodipodi="http://sodipodi.sourceforge.net/DTD/sodipodi-0.dtd"
   xmlns:inkscape="http://www.inkscape.org/namespaces/inkscape"
   width="1110.8885"
   height="800"
   version="1.2"
   id="svg2"
   inkscape:version="0.91 r13725"
   sodipodi:docname="HTML_to_SVG (24).svg">
  <metadata
     id="metadata52">
    <rdf:RDF>
      <cc:Work
         rdf:about="">
        <dc:format>image/svg+xml</dc:format>
        <dc:type
           rdf:resource="http://purl.org/dc/dcmitype/StillImage" />
        <dc:title></dc:title>
      </cc:Work>
    </rdf:RDF>
  </metadata>
  <sodipodi:namedview
     pagecolor="#ffffff"
     bordercolor="#666666"
     borderopacity="1"
     objecttolerance="10"
     gridtolerance="10"
     guidetolerance="10"
     inkscape:pageopacity="0"
     inkscape:pageshadow="2"
     inkscape:window-width="1680"
     inkscape:window-height="987"
     id="namedview50"
     showgrid="false"
     fit-margin-top="0"
     fit-margin-left="0"
     fit-margin-right="0"
     fit-margin-bottom="0"
     inkscape:zoom="0.4218755"
     inkscape:cx="-91.851139"
     inkscape:cy="11.761355"
     inkscape:window-x="-8"
     inkscape:window-y="-8"
     inkscape:window-maximized="1"
     inkscape:current-layer="svg2"
     units="px" />
  <desc
     id="desc4">Created by EvoPdf</desc>
  <defs
     id="defs6" />
  <g
     id="g8"
     transform="matrix(49.994448,0,0,49.994448,-25041.68,-399.9713)"
     style="fill:none;fill-rule:evenodd;stroke:#000000;stroke-width:1;stroke-linecap:square;stroke-linejoin:bevel">
    <g
       stroke-miterlimit="2"
       id="g10"
       style="fill:#000000;fill-opacity:1;stroke:#000000;stroke-width:1;stroke-linecap:square;stroke-linejoin:miter;stroke-miterlimit:2;stroke-opacity:1" />
    <g
       stroke-miterlimit="2"
       id="g12"
       style="fill:#000000;fill-opacity:1;stroke:#000000;stroke-width:1;stroke-linecap:square;stroke-linejoin:miter;stroke-miterlimit:2;stroke-opacity:1" />
    <g
       stroke-miterlimit="2"
       id="g14"
       style="fill:#000000;fill-opacity:1;stroke:#000000;stroke-width:1;stroke-linecap:square;stroke-linejoin:miter;stroke-miterlimit:2;stroke-opacity:1" />
    <g
       stroke-miterlimit="2"
       id="g16"
       style="fill:#000000;fill-opacity:1;stroke:#000000;stroke-width:1;stroke-linecap:square;stroke-linejoin:miter;stroke-miterlimit:2;stroke-opacity:1" />
    <g
       stroke-miterlimit="2"
       transform="matrix(0.205076,0,0,0.205076,500.887,8)"
       id="g18"
       style="fill:#000000;fill-opacity:1;stroke:#000000;stroke-width:1;stroke-linecap:square;stroke-linejoin:miter;stroke-miterlimit:2;stroke-opacity:1" />
    <g
       transform="matrix(0.205076,0,0,0.205076,411.261,-109.822)"
       id="g20"
       style="fill:#000000;fill-opacity:1;stroke:none">
      <path
         vector-effect="none"
         d="m 445.42,574.53 c -2,0 -8.36,0.63 -8.36,8.78 l 0,57.9 c 0,0.07 -0.34,5.72 2.72,9 1.547,1.592 3.703,2.444 5.92,2.34 2.181,-0.048 4.271,-0.886 5.88,-2.36 0.419,-0.207 0.911,-0.207 1.33,0 0.505,0.422 0.771,1.065 0.71,1.72 l 1.1,0 0,-36.31 2.72,0 0,-1 -11.55,0 0,1 3.39,0 0,31.2 c 0.15,1.356 -0.206,2.72 -1,3.83 -0.666,0.692 -1.601,1.058 -2.56,1 -0.808,0.02 -1.588,-0.299 -2.15,-0.88 -1.08,-1.11 -1.59,-3.2 -1.51,-6.21 0,-0.08 0,-0.14 0,-0.18 l 0,-63.36 c 0,-0.23 0.25,-5.5 3.16,-5.5 2.91,0 6.39,7.34 7.58,21.37 l 0,2.21 1,0 0,-23.9 -1,0 0,1.95 -0.09,0.06 c -0.228,0.162 -0.5,0.253 -0.78,0.26 -0.38,-0.114 -0.725,-0.324 -1,-0.61 -1.525,-1.367 -3.466,-2.181 -5.51,-2.31 l 0,0 m 79,77.44 12.58,0 0,-1 -4.35,0 0,-30.25 5.4,0 c 1.87,0.12 3.709,-0.524 5.094,-1.786 1.386,-1.261 2.2,-3.031 2.256,-4.904 l 0,-30.73 c 0,-7.4 -9.47,-7.54 -9.56,-7.54 l -11.7,0 0,1 3,0 0,74.24 -2.76,0 0,1 0.04,-0.03 m -31.6,-0.1 11.59,0 0,-1 -3.08,0 -8.33,-75.07 -4.53,0 c -0.41,3.93 -7.4,71 -7.4,71.92 -0.056,1.706 -1.415,3.083 -3.12,3.16 l -0.59,0 0,1 8.1,0 0,-1 -0.43,0 c -0.828,-0.034 -1.605,-0.409 -2.146,-1.036 -0.542,-0.627 -0.8,-1.45 -0.714,-2.274 l 2.8,-27.09 7.54,0 3.26,30.4 -3,0 0,1 0.05,-0.01 m 40.1,-32.41 -0.19,0 0,-42.62 3.19,0 c 3.71,0 4.29,4.93 4.29,5 l 0,33.16 c 0,4.34 -3.27,4.44 -3.3,4.44 l -4,0 0.01,0.02 m -40.43,-0.19 -7.33,0 0,-0.21 3.62,-34.12 3.71,34.33"
         id="path22"
         inkscape:connector-curvature="0"
         style="fill-rule:nonzero" />
    </g>
    <g
       stroke-miterlimit="2"
       transform="matrix(0.205076,0,0,0.205076,500.887,8)"
       id="g24"
       style="fill:#000000;fill-opacity:1;stroke:#000000;stroke-width:1;stroke-linecap:square;stroke-linejoin:miter;stroke-miterlimit:2;stroke-opacity:1" />
    <g
       stroke-miterlimit="2"
       transform="matrix(0.205076,0,0,0.205076,500.887,8)"
       id="g26"
       style="fill:#000000;fill-opacity:1;stroke:#000000;stroke-width:1;stroke-linecap:square;stroke-linejoin:miter;stroke-miterlimit:2;stroke-opacity:1" />
    <g
       stroke-miterlimit="2"
       id="g28"
       style="fill:#000000;fill-opacity:1;stroke:#000000;stroke-width:1;stroke-linecap:square;stroke-linejoin:miter;stroke-miterlimit:2;stroke-opacity:1" />
    <g
       stroke-miterlimit="2"
       id="g30"
       style="fill:#000000;fill-opacity:1;stroke:#000000;stroke-width:1;stroke-linecap:square;stroke-linejoin:miter;stroke-miterlimit:2;stroke-opacity:1" />
    <g
       stroke-miterlimit="2"
       id="g32"
       style="fill:#000000;fill-opacity:1;stroke:#000000;stroke-width:1;stroke-linecap:square;stroke-linejoin:miter;stroke-miterlimit:2;stroke-opacity:1" />
    <g
       stroke-miterlimit="2"
       id="g34"
       style="fill:#000000;fill-opacity:1;stroke:#000000;stroke-width:1;stroke-linecap:square;stroke-linejoin:miter;stroke-miterlimit:2;stroke-opacity:1" />
    <g
       stroke-miterlimit="2"
       transform="matrix(0.205076,0,0,0.205076,500.887,8)"
       id="g36"
       style="fill:#000000;fill-opacity:1;stroke:#000000;stroke-width:1;stroke-linecap:square;stroke-linejoin:miter;stroke-miterlimit:2;stroke-opacity:1" />
    <g
       stroke-miterlimit="2"
       id="g38"
       style="fill:#000000;fill-opacity:1;stroke:#000000;stroke-width:1;stroke-linecap:square;stroke-linejoin:miter;stroke-miterlimit:2;stroke-opacity:1" />
    <g
       stroke-miterlimit="2"
       id="g40"
       style="fill:#000000;fill-opacity:1;stroke:#000000;stroke-width:1;stroke-linecap:square;stroke-linejoin:miter;stroke-miterlimit:2;stroke-opacity:1" />
    <g
       stroke-miterlimit="2"
       id="g42"
       style="fill:#000000;fill-opacity:1;stroke:#000000;stroke-width:1;stroke-linecap:square;stroke-linejoin:miter;stroke-miterlimit:2;stroke-opacity:1" />
    <g
       stroke-miterlimit="2"
       id="g44"
       style="fill:#000000;fill-opacity:1;stroke:#000000;stroke-width:1;stroke-linecap:square;stroke-linejoin:miter;stroke-miterlimit:2;stroke-opacity:1" />
    <g
       stroke-miterlimit="2"
       id="g46"
       style="fill:#000000;fill-opacity:1;stroke:#000000;stroke-width:1;stroke-linecap:square;stroke-linejoin:miter;stroke-miterlimit:2;stroke-opacity:1" />
    <g
       stroke-miterlimit="2"
       id="g48"
       style="fill:#000000;fill-opacity:1;stroke:#000000;stroke-width:1;stroke-linecap:square;stroke-linejoin:miter;stroke-miterlimit:2;stroke-opacity:1" />
  </g>
</svg>
