<?xml version="1.0" encoding="utf-8"?>
<!-- Generator: Adobe Illustrator 23.1.0, SVG Export Plug-In . SVG Version: 6.00 Build 0)  -->
<svg version="1.1"
	 id="svg40" inkscape:version="0.92.3 (2405546, 2018-03-11)" sodipodi:docname="Gap.svg" xmlns:cc="http://creativecommons.org/ns#" xmlns:dc="http://purl.org/dc/elements/1.1/" xmlns:inkscape="http://www.inkscape.org/namespaces/inkscape" xmlns:rdf="http://www.w3.org/1999/02/22-rdf-syntax-ns#" xmlns:sodipodi="http://sodipodi.sourceforge.net/DTD/sodipodi-0.dtd" xmlns:svg="http://www.w3.org/2000/svg"
	 xmlns="http://www.w3.org/2000/svg" xmlns:xlink="http://www.w3.org/1999/xlink" x="0px" y="0px" viewBox="0 0 642.7 459.9"
	 style="enable-background:new 0 0 642.7 459.9;" xml:space="preserve">
<g>
	<path d="M135.2,36.2c-14.2,0-26.9,6.6-35.2,16.9V0H90v38.2H50V0H40v38.2H0v10h40v82.3h10V48.2h40v35.2v47.1h10V81.4
		c0-19.4,15.8-35.2,35.2-35.2s35.2,15.8,35.2,35.2v49.1h10V81.4C180.4,56.5,160.2,36.2,135.2,36.2z"/>
	<path d="M280.5,83.4c0-26-21.1-47.1-47.1-47.1s-47.1,21.1-47.1,47.1s21.1,47.1,47.1,47.1c19.9,0,37-12.4,43.9-29.8l-9.3-3.7
		c-5.4,13.8-18.9,23.5-34.5,23.5c-18.8,0-34.3-14-36.8-32.1h83.9V83.4z M196.6,78.4c2.5-18.1,18-32.1,36.8-32.1s34.3,14,36.8,32.1
		H196.6z"/>
</g>
<g id="g74" transform="matrix(3.6317843,0,0,3.6765876,21.456677,2.4588054)">
	<g id="g79">
		<path id="path2987" inkscape:connector-curvature="0" d="M30.4,46.6C15.9,46.6,4,58.5,4,73.1s11.9,26.4,26.4,26.4
			c7.7,0,14.6-3.3,19.4-8.6v6.5c0,10.8-8.7,19.4-19.4,19.4S11,108.2,11,97.5H4c0,14.6,11.9,26.4,26.4,26.4S56.8,112,56.8,97.5V73.1
			C56.8,58.5,45,46.6,30.4,46.6z M29.4,53.7c0.3,0,0.7,0,1,0c10.8,0,19.4,8.6,19.4,19.4s-8.7,19.4-19.4,19.4S11,83.8,11,73.1
			C11,62.6,19.1,54.2,29.4,53.7z"/>
		<path id="path3768" inkscape:connector-curvature="0" d="M87.1,46.6c-14.6,0-26.4,11.9-26.4,26.4s11.9,26.4,26.4,26.4
			c7.7,0,14.6-3.3,19.4-8.6v9.5h7V73.1C113.6,58.5,101.7,46.6,87.1,46.6z M86.1,53.7c0.3,0,0.7,0,1,0c10.8,0,19.4,8.6,19.4,19.4
			s-8.7,19.4-19.4,19.4c-10.8,0-19.4-8.6-19.4-19.4C67.7,62.6,75.8,54.2,86.1,53.7z"/>
		<path id="path3770" inkscape:connector-curvature="0" d="M144.6,46.6c14.6,0,26.4,11.9,26.4,26.4s-11.9,26.4-26.4,26.4
			c-7.7,0-14.6-3.3-19.4-8.6v33.5h-7V73.1C118.2,58.5,130.1,46.6,144.6,46.6z M145.6,53.7c-0.3,0-0.7,0-1,0
			c-10.8,0-19.4,8.6-19.4,19.4s8.7,19.4,19.4,19.4c10.8,0,19.4-8.6,19.4-19.4C164,62.6,155.9,54.2,145.6,53.7z"/>
	</g>
</g>
</svg>
