<?xml version="1.0" encoding="UTF-8" standalone="no"?>
<!-- Created with Inkscape (http://www.inkscape.org/) -->

<svg
   xmlns:dc="http://purl.org/dc/elements/1.1/"
   xmlns:cc="http://creativecommons.org/ns#"
   xmlns:rdf="http://www.w3.org/1999/02/22-rdf-syntax-ns#"
   xmlns:svg="http://www.w3.org/2000/svg"
   xmlns="http://www.w3.org/2000/svg"
   xmlns:sodipodi="http://sodipodi.sourceforge.net/DTD/sodipodi-0.dtd"
   xmlns:inkscape="http://www.inkscape.org/namespaces/inkscape"
   version="1.1"
   id="svg1253"
   xml:space="preserve"
   width="1000"
   height="582.38641"
   viewBox="0 0 1000 582.38641"
   sodipodi:docname="General Mills logo.svg"
   inkscape:version="0.92.2 (5c3e80d, 2017-08-06)"><metadata
     id="metadata1259"><rdf:RDF><cc:Work
         rdf:about=""><dc:format>image/svg+xml</dc:format><dc:type
           rdf:resource="http://purl.org/dc/dcmitype/StillImage" /><dc:title></dc:title></cc:Work></rdf:RDF></metadata><defs
     id="defs1257"><clipPath
       clipPathUnits="userSpaceOnUse"
       id="clipPath1269"><path
         d="M 533.35,736.15 H 60.65 V 37.85 h 472.7 z"
         id="path1267"
         inkscape:connector-curvature="0" /></clipPath></defs><sodipodi:namedview
     pagecolor="#ffffff"
     bordercolor="#666666"
     borderopacity="1"
     objecttolerance="10"
     gridtolerance="10"
     guidetolerance="10"
     inkscape:pageopacity="0"
     inkscape:pageshadow="2"
     inkscape:window-width="1366"
     inkscape:window-height="705"
     id="namedview1255"
     showgrid="false"
     fit-margin-top="0"
     fit-margin-left="0"
     fit-margin-right="0"
     fit-margin-bottom="0"
     inkscape:zoom="0.36725701"
     inkscape:cx="239.63101"
     inkscape:cy="334.00099"
     inkscape:window-x="-8"
     inkscape:window-y="-8"
     inkscape:window-maximized="1"
     inkscape:current-layer="g1261" /><g
     id="g1261"
     inkscape:groupmode="layer"
     inkscape:label="Final-2020-Annual-Report"
     transform="matrix(1.3333333,0,0,-1.3333333,-13.658643,844.04834)"><g
       id="g1485"><path
         d="m 150.32944,591.15812 h 12.2015 c 12.12532,-1.01414 24.26174,-4.39146 34.41273,-11.3032 12.17928,-8.01001 20.84634,-20.85745 24.476,-34.94123 4.52953,-17.53569 2.62662,-36.39659 -3.76774,-53.2165 -2.08542,-5.9468 -4.24703,-11.87138 -6.36103,-17.80707 9.84309,2.58218 19.47352,7.11172 26.49001,14.66306 7.59578,7.75132 11.45716,18.22607 13.93459,28.60242 17.88961,0.0889 35.7681,0.0175 53.6466,0.0397 -9.24476,-24.56012 -16.05811,-50.50417 -15.58834,-76.94339 0.16982,-30.50533 11.29686,-59.46167 14.32978,-89.62578 2.24096,-20.40354 1.60137,-41.38796 -4.2518,-61.17572 -5.36751,-18.49587 -15.15982,-35.73318 -28.55321,-49.56302 -13.41721,-14.04569 -30.19109,-24.65376 -48.22988,-31.65279 -23.13492,-9.02575 -48.18544,-12.44591 -72.90426,-11.93963 -29.48484,0.61261 -59.390253,7.32121 -84.721691,22.87146 -21.877945,13.2569 -39.927844,33.43667 -48.91391,57.58414 -9.0463756,23.97607 -8.4178906,51.63576 2.477437,74.9024 8.440109,18.19274 23.604691,32.905 41.570475,41.58794 22.182665,10.70329 47.536319,13.39974 71.825049,10.89533 3.39159,8.81624 6.71812,17.66423 10.17638,26.45191 -20.44322,8.75436 -39.05019,23.2603 -49.747133,43.1036 -16.383462,29.79432 -12.676035,70.13004 10.823913,95.12502 11.93169,13.15057 29.07219,21.01775 46.67453,22.34137 m -13.41085,-62.48347 c -4.06611,-9.02416 -4.51684,-19.83696 -0.12062,-28.81826 4.75966,-9.92879 12.31259,-19.16403 22.52865,-23.68722 2.07432,4.74379 3.78995,9.64788 5.67541,14.46468 2.87421,7.68307 6.38325,15.27885 7.34343,23.51105 0.98717,6.83398 -0.0603,14.36945 -4.52953,19.85283 -4.65016,5.54368 -12.78713,7.72275 -19.61001,5.43417 -5.16437,-1.63946 -9.08129,-5.93569 -11.28733,-10.75725 m 55.90342,-104.51896 c -4.02008,-11.11594 -8.3798,-22.11601 -12.2745,-33.2859 12.32529,-5.79921 25.07909,-11.7841 34.76506,-21.6748 -6.07853,-15.48359 -12.1523,-30.96241 -18.46889,-46.3476 -9.559,9.45426 -20.70191,17.48649 -33.27479,22.3747 -6.81811,-18.08799 -13.49338,-36.20931 -20.20198,-54.33697 -17.51347,-0.0397 -35.02852,-0.0222 -52.543573,-0.0111 7.827495,20.94633 15.607383,41.91328 23.395193,62.87548 -17.200807,0.52374 -34.466687,-8.20205 -43.766996,-22.79845 -3.955012,-6.10075 -6.354682,-13.47117 -5.351645,-20.79714 0.955424,-15.47407 8.949563,-30.03714 20.870147,-39.78501 16.289824,-13.48703 37.648794,-18.99104 58.352294,-20.54003 17.11035,-1.17127 34.64286,-0.15554 50.98823,5.37545 14.72813,4.75966 28.34848,13.53782 37.92018,25.83454 12.52685,15.83751 17.42459,36.77749 15.99622,56.70808 -1.39664,15.27409 -5.0755,30.21807 -7.84972,45.2779 -3.2313,16.95799 -5.91823,34.14134 -5.91823,51.45801 -13.68701,-5.2961 -28.04535,-8.78768 -42.637,-10.32715"
         style="fill:#0054a6;fill-opacity:1;fill-rule:nonzero;stroke:none;stroke-width:1"
         id="path1273"
         inkscape:connector-curvature="0" /><path
         d="m 278.57054,536.66561 c 27.01851,20.52734 40.72773,31.98925 49.46622,47.17129 12.30148,21.35262 4.84854,39.46283 -10.73504,46.54122 -14.61386,6.64195 -31.95751,0.40788 -38.73118,-13.92348 -6.77367,14.33136 -24.11891,20.56543 -38.73118,13.92348 -15.58516,-7.07839 -23.03652,-25.1886 -10.73504,-46.54122 8.74325,-15.18204 22.44613,-26.64395 49.46622,-47.17129"
         style="fill:#e42526;fill-opacity:1;fill-rule:nonzero;stroke:none;stroke-width:1"
         id="path1277"
         inkscape:connector-curvature="0" /><path
         d="m 350.41463,478.27047 v 0.21426 c 0,21.50974 16.75325,39.12954 39.66915,39.12954 13.614,0 21.82874,-3.6741 29.71655,-10.37794 l -10.4811,-12.64906 c -5.83571,4.866 -11.02071,7.6799 -19.77665,7.6799 -12.10786,0 -21.72399,-10.70329 -21.72399,-23.5666 v -0.21584 c 0,-13.83461 9.51139,-23.99036 22.90955,-23.99036 6.05154,0 11.45874,1.51091 15.67244,4.5343 v 10.81121 h -16.75325 v 14.37739 h 32.8558 v -32.85739 c -7.77671,-6.59591 -18.48,-11.99835 -32.3146,-11.99835 -23.56026,0 -39.7739,16.53424 -39.7739,38.90894"
         style="fill:#0054a6;fill-opacity:1;fill-rule:nonzero;stroke:none;stroke-width:1"
         id="path1281"
         inkscape:connector-curvature="0" /><path
         d="m 433.9587,469.30027 v 0.21584 c 0,16.53741 11.78251,30.15141 28.64051,30.15141 19.34813,0 28.21358,-15.02015 28.21358,-31.44805 0,-1.29665 -0.11268,-2.8139 -0.21584,-4.32481 H 450.2755 c 1.622,-7.45929 6.81335,-11.34764 14.16155,-11.34764 5.5167,0 9.51139,1.72674 14.05045,5.9468 l 9.40664,-8.32425 c -5.40719,-6.70226 -13.19025,-10.80804 -23.67135,-10.80804 -17.39919,0 -30.26409,12.21419 -30.26409,29.93874 m 40.8547,4.866 c -0.97129,7.34661 -5.29451,12.31735 -12.21419,12.31735 -6.807,0 -11.24131,-4.866 -12.53796,-12.31735 h 24.75215"
         style="fill:#0054a6;fill-opacity:1;fill-rule:nonzero;stroke:none;stroke-width:1"
         id="path1285"
         inkscape:connector-curvature="0" /><path
         d="m 503.02064,498.5899 h 16.4279 v -8.21316 c 3.78519,4.86441 8.65119,9.29555 16.9691,9.29555 12.42845,0 19.67189,-8.21474 19.67189,-21.50974 v -37.50437 h -16.4279 v 32.31461 c 0,7.78305 -3.67409,11.7825 -9.94625,11.7825 -6.26739,0 -10.26684,-3.99945 -10.26684,-11.7825 v -32.31461 h -16.4279 v 57.93172"
         style="fill:#0054a6;fill-opacity:1;fill-rule:nonzero;stroke:none;stroke-width:1"
         id="path1289"
         inkscape:connector-curvature="0" /><path
         d="m 567.54193,469.30027 v 0.21584 c 0,16.53741 11.78409,30.15141 28.64209,30.15141 19.34496,0 28.21041,-15.02015 28.21041,-31.44805 0,-1.29665 -0.10951,-2.8139 -0.21902,-4.32481 h -40.31668 c 1.62359,-7.45929 6.81335,-11.34764 14.16155,-11.34764 5.51194,0 9.5098,1.72674 14.05045,5.9468 l 9.40664,-8.32425 c -5.40719,-6.70226 -13.19025,-10.80804 -23.67135,-10.80804 -17.39919,0 -30.26409,12.21419 -30.26409,29.93874 m 40.8547,4.866 c -0.96971,7.34661 -5.2961,12.31735 -12.21261,12.31735 -6.807,0 -11.24289,-4.866 -12.53795,-12.31735 h 24.75056"
         style="fill:#0054a6;fill-opacity:1;fill-rule:nonzero;stroke:none;stroke-width:1"
         id="path1293"
         inkscape:connector-curvature="0" /><path
         d="m 636.60386,498.5899 h 16.4279 v -11.67141 c 3.35509,7.9989 8.75435,13.1839 18.48,12.7538 v -17.18494 h -0.8602 c -10.91755,0 -17.6198,-6.59592 -17.6198,-20.43211 v -21.39706 h -16.4279 v 57.93172"
         style="fill:#0054a6;fill-opacity:1;fill-rule:nonzero;stroke:none;stroke-width:1"
         id="path1297"
         inkscape:connector-curvature="0" /><path
         d="m 675.62072,457.30351 v 0.21426 c 0,12.65064 9.61931,18.48634 23.346,18.48634 5.8357,0 10.051,-0.97605 14.16154,-2.3838 v 0.97765 c 0,6.807 -4.22164,10.59061 -12.4348,10.59061 -6.26739,0 -10.69853,-1.1919 -15.99304,-3.13926 l -4.10895,12.53955 c 6.3769,2.8139 12.6427,4.65015 22.47944,4.65015 8.97496,0 15.45661,-2.37745 19.56716,-6.48641 4.32321,-4.32004 6.2658,-10.70329 6.2658,-18.48158 v -33.61601 h -15.88829 v 6.27215 c -3.99786,-4.43114 -9.5098,-7.3482 -17.5087,-7.3482 -10.91755,0 -19.88616,6.26581 -19.88616,17.72455 m 37.72021,3.78361 v 2.91864 c -2.81231,1.29665 -6.48641,2.15685 -10.48586,2.15685 -7.02284,0 -11.34606,-2.80755 -11.34606,-7.99414 v -0.2206 c 0,-4.42955 3.67251,-7.02126 8.96861,-7.02126 7.67355,0 12.86331,4.21371 12.86331,10.16051"
         style="fill:#0054a6;fill-opacity:1;fill-rule:nonzero;stroke:none;stroke-width:1"
         id="path1301"
         inkscape:connector-curvature="0" /><path
         inkscape:connector-curvature="0"
         id="path1303"
         style="fill:#0054a6;fill-opacity:1;fill-rule:nonzero;stroke:none;stroke-width:1"
         d="m 743.81611,440.65659 h 16.4279 v 78.90027 h -16.4279 z" /><path
         d="m 353.76497,412.01926 h 17.94039 l 19.8925,-31.99084 19.8814,31.99084 h 17.94356 v -75.65627 h -16.53741 v 49.39163 L 391.59786,353.4416 h -0.43644 l -21.07806,31.98766 v -49.06627 h -16.31839 v 75.65627"
         style="fill:#0054a6;fill-opacity:1;fill-rule:nonzero;stroke:none;stroke-width:1"
         id="path1307"
         inkscape:connector-curvature="0" /><path
         d="m 446.1729,415.26008 h 17.29445 V 400.66844 H 446.1729 Z m 0.4301,-20.96378 h 16.4279 V 336.36458 H 446.603 Z"
         style="fill:#0054a6;fill-opacity:1;fill-rule:nonzero;stroke:none;stroke-width:1"
         id="path1311"
         inkscape:connector-curvature="0" /><path
         inkscape:connector-curvature="0"
         id="path1313"
         style="fill:#0054a6;fill-opacity:1;fill-rule:nonzero;stroke:none;stroke-width:1"
         d="m 479.24295,336.35823 h 16.42949 v 78.90027 h -16.42949 z" /><path
         inkscape:connector-curvature="0"
         id="path1315"
         style="fill:#0054a6;fill-opacity:1;fill-rule:nonzero;stroke:none;stroke-width:1"
         d="m 511.8845,336.35823 h 16.4279 v 78.90027 h -16.4279 z" /><path
         d="m 539.2236,344.03654 7.02284,10.80804 c 6.27216,-4.54065 12.8649,-6.9181 18.27051,-6.9181 4.7549,0 6.91809,1.73151 6.91809,4.3248 v 0.21426 c 0,3.56935 -5.62144,4.75649 -11.99835,6.70384 -8.10999,2.37745 -17.29444,6.1563 -17.29444,17.39761 v 0.2206 c 0,11.77775 9.5098,18.36891 21.1828,18.36891 7.34819,0 15.34709,-2.4822 21.61925,-6.70067 l -6.27216,-11.34765 c -5.72619,3.35351 -11.45715,5.40561 -15.67244,5.40561 -3.99945,0 -6.05155,-1.73151 -6.05155,-3.99945 v -0.21426 c 0,-3.24399 5.51035,-4.7549 11.7825,-6.91809 8.10524,-2.70281 17.5103,-6.59275 17.5103,-17.18335 v -0.22061 c 0,-12.86014 -9.6209,-18.69584 -22.16045,-18.69584 -8.10365,0 -17.18335,2.7028 -24.8569,8.75435"
         style="fill:#0054a6;fill-opacity:1;fill-rule:nonzero;stroke:none;stroke-width:1"
         id="path1319"
         inkscape:connector-curvature="0" /></g></g></svg>