<?xml version="1.0" encoding="UTF-8" standalone="no"?>
<!-- Created with Inkscape (http://www.inkscape.org/) -->

<svg
   xmlns:dc="http://purl.org/dc/elements/1.1/"
   xmlns:cc="http://creativecommons.org/ns#"
   xmlns:rdf="http://www.w3.org/1999/02/22-rdf-syntax-ns#"
   xmlns:svg="http://www.w3.org/2000/svg"
   xmlns="http://www.w3.org/2000/svg"
   xmlns:sodipodi="http://sodipodi.sourceforge.net/DTD/sodipodi-0.dtd"
   xmlns:inkscape="http://www.inkscape.org/namespaces/inkscape"
   width="264.58334mm"
   height="153.30905mm"
   viewBox="0 0 264.58335 153.30905"
   version="1.1"
   id="svg8"
   inkscape:version="0.92.2 (5c3e80d, 2017-08-06)"
   sodipodi:docname="General Mills logo 2003.svg">
  <defs
     id="defs2" />
  <sodipodi:namedview
     id="base"
     pagecolor="#ffffff"
     bordercolor="#666666"
     borderopacity="1.0"
     inkscape:pageopacity="0.0"
     inkscape:pageshadow="2"
     inkscape:zoom="0.35"
     inkscape:cx="301.50347"
     inkscape:cy="186.58245"
     inkscape:document-units="mm"
     inkscape:current-layer="layer1"
     showgrid="false"
     showguides="true"
     inkscape:guide-bbox="true"
     fit-margin-top="0"
     fit-margin-left="0"
     fit-margin-right="0"
     fit-margin-bottom="0"
     inkscape:window-width="1366"
     inkscape:window-height="705"
     inkscape:window-x="-8"
     inkscape:window-y="-8"
     inkscape:window-maximized="1" />
  <metadata
     id="metadata5">
    <rdf:RDF>
      <cc:Work
         rdf:about="">
        <dc:format>image/svg+xml</dc:format>
        <dc:type
           rdf:resource="http://purl.org/dc/dcmitype/StillImage" />
        <dc:title></dc:title>
      </cc:Work>
    </rdf:RDF>
  </metadata>
  <g
     inkscape:label="Layer 1"
     inkscape:groupmode="layer"
     id="layer1"
     transform="translate(168.86357,-1.03032)">
    <g
       id="g1138"
       transform="matrix(3.4081756,0,0,3.4081756,275.25576,-295.53998)"
       style="stroke-width:0.29341212">
      <path
         style="font-style:normal;font-variant:normal;font-weight:normal;font-stretch:normal;font-size:medium;line-height:1.25;font-family:'Incised901 BT';-inkscape-font-specification:'Incised901 BT';letter-spacing:-0.23018751px;word-spacing:0px;fill:#007bd1;fill-opacity:1;stroke:none;stroke-width:0.07763196"
         d="m -88.862275,100.17476 c -0.593378,0 -1.150628,0.11764 -1.671732,0.35347 -0.517303,0.23202 -0.958279,0.56477 -1.323433,0.99839 -0.437425,0.52871 -0.778208,1.16975 -1.021643,1.92288 -0.243438,0.74933 -0.364837,1.5386 -0.364837,2.36781 0,1.04602 0.256482,1.87343 0.76998,2.48202 0.513498,0.60479 1.211471,0.90692 2.093928,0.90692 0.498285,0 1.004239,-0.11575 1.517737,-0.34778 0.517303,-0.23202 1.023258,-0.5728 1.517738,-1.02164 l 0.513662,-3.04633 h -2.559016 l -0.191204,1.13895 h 1.194242 l -0.252695,1.49707 c -0.243438,0.2016 -0.492911,0.35172 -0.74776,0.45062 -0.251042,0.0989 -0.513165,0.14831 -0.787033,0.14831 -0.524909,0 -0.947078,-0.20758 -1.266589,-0.62219 -0.315706,-0.41841 -0.473872,-0.97942 -0.473872,-1.6831 0,-1.18675 0.29889,-2.16429 0.89607,-2.93264 0.600983,-0.76834 1.357776,-1.15238 2.270662,-1.15238 0.471657,0 0.884423,0.11011 1.238168,0.33073 0.357545,0.21681 0.657799,0.54579 0.901237,0.98702 l 0.314193,-1.603 c -0.334727,-0.38798 -0.719281,-0.68071 -1.152904,-0.8785 -0.43362,-0.1978 -0.905205,-0.29663 -1.414899,-0.29663 z"
         id="path843"
         inkscape:connector-curvature="0" />
      <path
         d="m -81.024743,104.81883 q 0.02853,-0.16546 0.03994,-0.29098 0.01712,-0.13123 0.01712,-0.22822 0,-0.59338 -0.405094,-0.94142 -0.399388,-0.34803 -1.089758,-0.34803 -0.810187,0 -1.397857,0.47926 -0.587671,0.47927 -0.821598,1.3351 z m 0.233927,2.2594 -0.211105,1.27233 q -0.633315,0.47356 -1.272335,0.70749 -0.633315,0.23963 -1.278041,0.23963 -1.175342,0 -1.854301,-0.78736 -0.678959,-0.79307 -0.678959,-2.17952 0,-0.99847 0.285277,-1.86571 0.285277,-0.87295 0.815892,-1.48915 0.513499,-0.60479 1.203869,-0.91859 0.696076,-0.31951 1.506263,-0.31951 1.06123,0 1.677429,0.6219 0.621904,0.62191 0.621904,1.69455 0,0.27387 -0.06276,0.67896 -0.05706,0.40509 -0.216811,1.17534 h -4.615782 q -0.01712,0.14264 -0.02853,0.27387 -0.0057,0.12552 -0.0057,0.25104 0,0.85013 0.433621,1.31798 0.433621,0.46215 1.226691,0.46215 0.57626,0 1.181047,-0.27957 0.604787,-0.27957 1.272335,-0.85583 z"
         style="font-style:normal;font-variant:normal;font-weight:normal;font-stretch:normal;font-size:medium;line-height:1.25;font-family:'Incised901 BT';-inkscape-font-specification:'Incised901 BT';letter-spacing:-0.23018751px;word-spacing:0px;fill:#007bd1;fill-opacity:1;stroke:none;stroke-width:0.07763196"
         id="path845"
         inkscape:connector-curvature="0" />
      <path
         d="m -79.680201,109.04093 1.192458,-7.03493 h 1.181046 l -0.290982,1.77442 q 0.37086,-0.99276 1.038408,-1.51196 0.667549,-0.51921 1.563318,-0.51921 0.878654,0 1.363625,0.47927 0.484971,0.47356 0.484971,1.32939 0,0.17116 -0.02853,0.4165 -0.02282,0.23963 -0.07417,0.57626 l -0.764543,4.49026 h -1.352213 l 0.701782,-4.1251 q 0.05706,-0.33093 0.07988,-0.51921 0.02282,-0.18828 0.02282,-0.34233 0,-0.47356 -0.245338,-0.74172 -0.239632,-0.26816 -0.667548,-0.26816 -0.872948,0 -1.472029,0.69607 -0.593377,0.69608 -0.815893,1.96842 l -0.559143,3.33203 z"
         style="font-style:normal;font-variant:normal;font-weight:normal;font-stretch:normal;font-size:medium;line-height:1.25;font-family:'Incised901 BT';-inkscape-font-specification:'Incised901 BT';letter-spacing:-0.23018751px;word-spacing:0px;fill:#007bd1;fill-opacity:1;stroke:none;stroke-width:0.07763196"
         id="path847"
         inkscape:connector-curvature="0" />
      <path
         d="m -67.381021,104.81883 q 0.02853,-0.16546 0.03994,-0.29098 0.01712,-0.13123 0.01712,-0.22822 0,-0.59338 -0.405093,-0.94142 -0.399388,-0.34803 -1.089758,-0.34803 -0.810187,0 -1.397858,0.47926 -0.58767,0.47927 -0.821598,1.3351 z m 0.233927,2.2594 -0.211105,1.27233 q -0.633315,0.47356 -1.272336,0.70749 -0.633315,0.23963 -1.278041,0.23963 -1.175341,0 -1.8543,-0.78736 -0.67896,-0.79307 -0.67896,-2.17952 0,-0.99847 0.285277,-1.86571 0.285277,-0.87295 0.815893,-1.48915 0.513498,-0.60479 1.203869,-0.91859 0.696076,-0.31951 1.506262,-0.31951 1.061231,0 1.677429,0.6219 0.621904,0.62191 0.621904,1.69455 0,0.27387 -0.06276,0.67896 -0.05706,0.40509 -0.21681,1.17534 h -4.615782 q -0.01712,0.14264 -0.02853,0.27387 -0.0057,0.12552 -0.0057,0.25104 0,0.85013 0.433621,1.31798 0.433621,0.46215 1.226692,0.46215 0.576259,0 1.181046,-0.27957 0.604788,-0.27957 1.272336,-0.85583 z"
         style="font-style:normal;font-variant:normal;font-weight:normal;font-stretch:normal;font-size:medium;line-height:1.25;font-family:'Incised901 BT';-inkscape-font-specification:'Incised901 BT';letter-spacing:-0.23018751px;word-spacing:0px;fill:#007bd1;fill-opacity:1;stroke:none;stroke-width:0.07763196"
         id="path849"
         inkscape:connector-curvature="0" />
      <path
         d="m -66.03648,109.04093 1.192458,-7.03493 h 1.203869 l -0.290982,1.74019 q 0.42221,-0.99847 0.918592,-1.48344 0.502087,-0.49068 1.101169,-0.49068 0.148344,0 0.290983,0.0342 0.142638,0.0342 0.290982,0.1084 l -0.205399,1.44921 q -0.171167,-0.1027 -0.348038,-0.14835 -0.171167,-0.0513 -0.365155,-0.0513 -0.718898,0 -1.192458,0.66755 -0.47356,0.66185 -0.701781,1.98553 l -0.536321,3.22363 z"
         style="font-style:normal;font-variant:normal;font-weight:normal;font-stretch:normal;font-size:medium;line-height:1.25;font-family:'Incised901 BT';-inkscape-font-specification:'Incised901 BT';letter-spacing:-0.23018751px;word-spacing:0px;fill:#007bd1;fill-opacity:1;stroke:none;stroke-width:0.07763196"
         id="path851"
         inkscape:connector-curvature="0" />
      <path
         d="m -58.147682,109.04093 0.245338,-1.10117 q -0.399388,0.66185 -0.918592,0.99277 -0.519204,0.33092 -1.16393,0.33092 -0.798776,0 -1.278041,-0.46786 -0.47356,-0.46785 -0.47356,-1.24951 0,-0.74743 0.427916,-1.24951 0.427915,-0.50209 1.312274,-0.78166 l 1.095464,-0.36516 q 0.924297,-0.30239 1.232396,-0.58767 0.313805,-0.29098 0.313805,-0.75883 0,-0.33663 -0.290982,-0.54774 -0.290983,-0.2111 -0.764543,-0.2111 -0.616198,0 -1.238102,0.31951 -0.621904,0.31951 -1.272336,0.96994 l 0.279572,-1.67172 q 0.581965,-0.45074 1.186752,-0.67326 0.604788,-0.22822 1.232397,-0.22822 1.009881,0 1.591846,0.50209 0.581965,0.49638 0.581965,1.35792 0,0.15405 -0.02282,0.37656 -0.02282,0.21681 -0.06847,0.51921 l -0.758837,4.52449 z m 0.581965,-3.58878 q -0.519204,0.39938 -1.489146,0.77024 -0.348038,0.13123 -0.496382,0.1997 -0.47356,0.21681 -0.673254,0.45074 -0.193988,0.22822 -0.193988,0.54202 0,0.38798 0.239633,0.62761 0.245338,0.23963 0.63902,0.23963 0.718898,0 1.220986,-0.58196 0.507793,-0.58767 0.661843,-1.60326 z"
         style="font-style:normal;font-variant:normal;font-weight:normal;font-stretch:normal;font-size:medium;line-height:1.25;font-family:'Incised901 BT';-inkscape-font-specification:'Incised901 BT';letter-spacing:-0.23018751px;word-spacing:0px;fill:#007bd1;fill-opacity:1;stroke:none;stroke-width:0.07763196"
         id="path853"
         inkscape:connector-curvature="0" />
      <path
         d="m -55.507984,109.04093 1.483441,-8.82076 h 1.346507 l -1.48344,8.82076 z"
         style="font-style:normal;font-variant:normal;font-weight:normal;font-stretch:normal;font-size:medium;line-height:1.25;font-family:'Incised901 BT';-inkscape-font-specification:'Incised901 BT';letter-spacing:-0.23018751px;word-spacing:0px;fill:#007bd1;fill-opacity:1;stroke:none;stroke-width:0.07763196"
         id="path855"
         inkscape:connector-curvature="0" />
      <path
         d="m -90.498975,113.64982 q -0.0057,-0.097 -0.01712,-0.27957 -0.05135,-0.69037 -0.05135,-0.93 h -0.1027 l -1.335096,7.85082 h -1.306569 l 1.472029,-8.68383 h 2.384916 l 0.462149,6.95505 3.120931,-6.95505 h 2.247983 l -1.460619,8.68383 h -1.300863 l 1.015586,-5.83106 q 0.131228,-0.75884 0.228222,-1.19817 0.1027,-0.43932 0.228221,-0.82159 h -0.102699 q -0.114111,0.29098 -0.353744,0.80448 -0.06276,0.13693 -0.09129,0.19969 l -3.177987,6.84665 h -1.335096 z"
         style="font-style:normal;font-variant:normal;font-weight:normal;font-stretch:normal;font-size:medium;line-height:1.25;font-family:'Incised901 BT';-inkscape-font-specification:'Incised901 BT';letter-spacing:-0.23018751px;word-spacing:0px;fill:#007bd1;fill-opacity:1;stroke:none;stroke-width:0.07763196"
         id="path890"
         inkscape:connector-curvature="0" />
      <path
         d="m -83.540181,120.29107 1.226692,-7.16045 q 0.09129,0.0685 0.239632,0.097 0.15405,0.0285 0.427916,0.0285 0.353743,0 0.484971,-0.0228 0.131227,-0.0285 0.21681,-0.0913 l -1.21528,7.14904 z m 2.932648,-8.35291 q 0,0.3081 -0.245338,0.47926 -0.239633,0.17117 -0.69037,0.17117 -0.445033,0 -0.650432,-0.11982 -0.199694,-0.11981 -0.199694,-0.39368 0,-0.32522 0.245338,-0.47926 0.245338,-0.15976 0.747426,-0.15976 0.405093,0 0.599082,0.12552 0.193988,0.11982 0.193988,0.37657 z"
         style="font-style:normal;font-variant:normal;font-weight:normal;font-stretch:normal;font-size:medium;line-height:1.25;font-family:'Incised901 BT';-inkscape-font-specification:'Incised901 BT';letter-spacing:-0.23018751px;word-spacing:0px;fill:#007bd1;fill-opacity:1;stroke:none;stroke-width:0.07763196"
         id="path892"
         inkscape:connector-curvature="0" />
      <path
         d="m -80.712199,120.29107 1.483441,-8.82077 h 1.346507 l -1.48344,8.82077 z"
         style="font-style:normal;font-variant:normal;font-weight:normal;font-stretch:normal;font-size:medium;line-height:1.25;font-family:'Incised901 BT';-inkscape-font-specification:'Incised901 BT';letter-spacing:-0.23018751px;word-spacing:0px;fill:#007bd1;fill-opacity:1;stroke:none;stroke-width:0.07763196"
         id="path894"
         inkscape:connector-curvature="0" />
      <path
         d="m -77.907038,120.29107 1.48344,-8.82077 h 1.346508 l -1.483441,8.82077 z"
         style="font-style:normal;font-variant:normal;font-weight:normal;font-stretch:normal;font-size:medium;line-height:1.25;font-family:'Incised901 BT';-inkscape-font-specification:'Incised901 BT';letter-spacing:-0.23018751px;word-spacing:0px;fill:#007bd1;fill-opacity:1;stroke:none;stroke-width:0.07763196"
         id="path896"
         inkscape:connector-curvature="0" />
      <path
         d="m -75.312984,119.75475 0.165461,-1.15823 q 0.462149,0.41651 0.89577,0.6162 0.439326,0.1997 0.878653,0.1997 0.587671,0 0.941414,-0.3024 0.359449,-0.30239 0.359449,-0.79307 0,-0.57626 -0.89577,-0.96994 -0.03423,-0.0171 -0.05135,-0.0228 -0.895769,-0.39368 -1.226691,-0.81589 -0.330921,-0.42221 -0.330921,-1.11258 0,-1.00418 0.74172,-1.68314 0.74172,-0.67896 1.84289,-0.67896 0.513498,0 0.947119,0.15976 0.439327,0.15975 0.804482,0.48497 l -0.188283,1.31798 q -0.405094,-0.35945 -0.787365,-0.53062 -0.382271,-0.17116 -0.787364,-0.17116 -0.564849,0 -0.924298,0.27957 -0.359449,0.27957 -0.359449,0.70178 0,0.53632 1.021292,1.00417 0.142638,0.0685 0.228221,0.10841 0.656138,0.3081 0.94712,0.7189 0.290983,0.40509 0.290983,1.00988 0,1.02129 -0.730309,1.71737 -0.724604,0.69037 -1.831479,0.69037 -0.57626,0 -1.066936,-0.19399 -0.490677,-0.19399 -0.884359,-0.57626 z"
         style="font-style:normal;font-variant:normal;font-weight:normal;font-stretch:normal;font-size:medium;line-height:1.25;font-family:'Incised901 BT';-inkscape-font-specification:'Incised901 BT';letter-spacing:-0.23018751px;word-spacing:0px;fill:#007bd1;fill-opacity:1;stroke:none;stroke-width:0.07763196"
         id="path898"
         inkscape:connector-curvature="0" />
      <path
         style="fill:#007bd1;fill-opacity:1;stroke-width:0.07763195"
         inkscape:connector-curvature="0"
         d="m -98.228236,103.74133 c 0,-5.386362 1.773561,-8.657598 1.773561,-8.657598 h -6.345395 c -0.60433,2.60122 -1.62906,4.361645 -4.36165,5.084208 0.0263,-0.092 0.0526,-0.15765 0.0788,-0.210199 0.51236,-1.471399 1.24805,-4.072623 1.24805,-5.59657 0,-4.059483 -2.81142,-7.343853 -7.80366,-7.343853 -4.76891,0 -8.6576,3.783594 -8.6576,8.578776 0,4.768906 3.03477,8.197796 7.06796,9.642916 -0.35471,0.97218 -0.73569,2.01003 -1.11668,3.08731 -0.51236,-0.0394 -1.03786,-0.0657 -1.58963,-0.0657 -9.57723,0 -12.37551,6.54247 -12.37551,10.64136 0,8.04015 7.47523,13.09807 16.51381,13.09807 7.56719,0 17.380896,-3.95438 17.380896,-15.01613 0,-4.76891 -1.812978,-9.34075 -1.812978,-13.2426 m -18.011488,-8.132098 c 0,-1.707872 1.01158,-2.877109 2.28592,-2.877109 0.80139,0 2.12827,0.433538 2.12827,2.640635 0,0.788248 -0.91962,3.00848 -1.24805,3.954385 -0.0263,0.0788 -0.10511,0.302165 -0.22334,0.630599 -2.15455,-0.880216 -2.9428,-3.231821 -2.9428,-4.34851 z m 2.45671,30.255628 c -5.13676,0 -10.129,-2.4173 -10.129,-6.81836 0,-2.99534 2.32533,-4.62438 5.43892,-4.874 -1.44512,3.96752 -2.60122,7.17307 -2.60122,7.17307 h 6.16148 c 0,0 1.01159,-2.74573 2.29905,-6.27972 2.61436,1.051 3.84929,2.60122 3.84929,2.60122 l 2.03631,-5.51774 c 0,0 -1.35316,-1.34002 -3.92811,-2.44358 0.47295,-1.3006 0.9459,-2.58808 1.37944,-3.77046 2.68004,-0.28901 4.75577,-1.28746 4.75577,-1.28746 0,5.38636 1.65532,8.06641 1.65532,11.82373 0.0263,7.46209 -6.04324,9.3933 -10.91725,9.3933 z"
         id="path862" />
    </g>
  </g>
</svg>
