<?xml version="1.0" encoding="UTF-8" standalone="no"?>
<!-- Created with Inkscape (http://www.inkscape.org/) -->

<svg
   xmlns:dc="http://purl.org/dc/elements/1.1/"
   xmlns:cc="http://creativecommons.org/ns#"
   xmlns:rdf="http://www.w3.org/1999/02/22-rdf-syntax-ns#"
   xmlns:svg="http://www.w3.org/2000/svg"
   xmlns="http://www.w3.org/2000/svg"
   xmlns:sodipodi="http://sodipodi.sourceforge.net/DTD/sodipodi-0.dtd"
   xmlns:inkscape="http://www.inkscape.org/namespaces/inkscape"
   width="264.58334mm"
   height="153.05199mm"
   viewBox="0 0 264.58335 153.05199"
   version="1.1"
   id="svg8"
   inkscape:version="0.92.2 (5c3e80d, 2017-08-06)"
   sodipodi:docname="General Mills logo 1987.svg">
  <defs
     id="defs2" />
  <sodipodi:namedview
     id="base"
     pagecolor="#ffffff"
     bordercolor="#666666"
     borderopacity="1.0"
     inkscape:pageopacity="0.0"
     inkscape:pageshadow="2"
     inkscape:zoom="0.35"
     inkscape:cx="546.19906"
     inkscape:cy="339.17727"
     inkscape:document-units="mm"
     inkscape:current-layer="layer1"
     showgrid="false"
     showguides="false"
     inkscape:guide-bbox="true"
     fit-margin-top="0"
     fit-margin-left="0"
     fit-margin-right="0"
     fit-margin-bottom="0"
     inkscape:window-width="1366"
     inkscape:window-height="705"
     inkscape:window-x="-8"
     inkscape:window-y="-8"
     inkscape:window-maximized="1">
    <sodipodi:guide
       position="18.461939,1.9649187"
       orientation="-0.92410145,0.38214723"
       id="guide1153"
       inkscape:locked="false" />
    <sodipodi:guide
       position="32.352763,-14.824183"
       orientation="-0.92410142,0.3821473"
       id="guide1155"
       inkscape:locked="false" />
    <sodipodi:guide
       position="39.817596,-0.25569143"
       orientation="-0.028266401,-0.99960043"
       id="guide1174"
       inkscape:locked="false" />
  </sodipodi:namedview>
  <metadata
     id="metadata5">
    <rdf:RDF>
      <cc:Work
         rdf:about="">
        <dc:format>image/svg+xml</dc:format>
        <dc:type
           rdf:resource="http://purl.org/dc/dcmitype/StillImage" />
        <dc:title></dc:title>
      </cc:Work>
    </rdf:RDF>
  </metadata>
  <g
     inkscape:label="Layer 1"
     inkscape:groupmode="layer"
     id="layer1"
     transform="translate(178.63206,-167.67195)">
    <g
       id="g1243"
       transform="matrix(0.99139014,0,0,0.99139014,31.437527,-66.187435)"
       style="stroke-width:1.00868464">
      <path
         sodipodi:nodetypes="ccscscscccscczssssccsccsc"
         inkscape:connector-curvature="0"
         id="path1176"
         d="m -113.98732,292.75912 c -23.94527,8.90301 -51.28548,-4.55499 -51.28548,-28.23969 0,-12.84113 11.82071,-28.62906 27.67976,-28.62906 12.83865,0 21.54443,8.57838 22.07241,19.93336 0.29357,6.31358 -2.90798,13.10169 -5.97515,20.51865 l -24.88164,59.44302 -20.49475,-0.81962 30.91254,-74.75212 c 1.05832,-2.55921 0.7933,-5.91548 -3.03657,-5.91548 -4.4077,0 -7.61402,5.29871 -7.61402,9.89052 0,4.39925 3.138,9.79203 12.00398,10.75798 12.81053,1.3957 19.11693,2.65442 33.45946,-8.73817 l 18.076728,0.25043 c -8.696376,12.54108 -13.352012,25.28397 -13.352012,40.4661 0,15.18213 1.263851,9.50571 1.263851,26.00808 0,21.61617 -17.031327,57.33843 -57.067827,57.33843 -33.42192,0 -59.66792,-23.20137 -59.66792,-51.1153 0,-26.29819 21.51733,-43.50217 47.01048,-43.50217 17.06132,0 27.53926,4.67542 39.90747,10.93443 l -7.20482,17.4002 c -10.7544,-4.97278 -25.79395,-8.96221 -35.3875,-8.96221 -11.03405,0 -24.25275,9.20918 -24.25275,24.20803 0,14.97999 16.29047,31.21273 38.17105,31.21273 26.87338,0 38.66348,-20.49047 39.44308,-38.10638 0.5936,-13.41301 -1.89296,-26.88503 0.21963,-39.58176 z"
         style="fill:#01a2e9;fill-opacity:1;stroke:none;stroke-width:0.26688114px;stroke-linecap:butt;stroke-linejoin:miter;stroke-opacity:1" />
      <path
         style="font-style:normal;font-variant:normal;font-weight:normal;font-stretch:normal;font-size:medium;line-height:1.25;font-family:'Incised901 BT';-inkscape-font-specification:'Incised901 BT';letter-spacing:-0.23018751px;word-spacing:0px;fill:#01a2e9;fill-opacity:1;stroke:none;stroke-width:0.2668812"
         d="m -65.675849,281.61237 c -1.978729,0 -3.836983,0.3923 -5.574701,1.17871 -1.725041,0.77372 -3.195557,1.88333 -4.413231,3.32933 -1.458675,1.76307 -2.595078,3.90074 -3.406857,6.41219 -0.811789,2.49877 -1.216617,5.13075 -1.216617,7.89589 0,3.48815 0.855287,6.24731 2.567641,8.27677 1.712354,2.01678 4.039874,3.02429 6.982589,3.02429 1.661624,0 3.348821,-0.38599 5.061176,-1.15974 1.725042,-0.77373 3.412244,-1.91012 5.061177,-3.40685 l 1.712901,-10.15855 h -8.533512 l -0.637604,3.79803 h 3.982419 l -0.842658,4.99227 c -0.811788,0.67226 -1.643703,1.17286 -2.493543,1.50267 -0.837147,0.3298 -1.711244,0.49457 -2.624507,0.49457 -1.750407,0 -3.158207,-0.69222 -4.223675,-2.07481 -1.05278,-1.39527 -1.580214,-3.26606 -1.580214,-5.61261 0,-3.95744 0.996703,-7.21722 2.98811,-9.77943 2.00409,-2.56217 4.527755,-3.84281 7.571943,-3.84281 1.572828,0 2.949271,0.36717 4.128899,1.10287 1.1923,0.723 2.193553,1.82003 3.005343,3.29139 l 1.047733,-5.34549 c -1.116209,-1.2938 -2.398574,-2.26995 -3.844571,-2.92951 -1.445985,-0.65961 -3.018573,-0.98918 -4.718241,-0.98918 z"
         id="path843"
         inkscape:connector-curvature="0" />
      <path
         d="m -39.540151,297.09889 q 0.09514,-0.55176 0.133186,-0.97034 0.05709,-0.43761 0.05709,-0.76103 0,-1.97874 -1.350862,-3.13934 -1.331832,-1.16057 -3.633998,-1.16057 -2.701718,0 -4.661413,1.59817 -1.959697,1.59823 -2.73977,4.45215 z m 0.780073,7.53438 -0.703969,4.24281 q -2.111906,1.57918 -4.242836,2.35926 -2.111906,0.7991 -4.261864,0.7991 -3.919395,0 -6.183508,-2.6256 -2.264116,-2.64464 -2.264116,-7.26802 0,-3.32958 0.951309,-6.22154 0.951309,-2.91103 2.720743,-4.96586 1.712357,-2.01678 4.014524,-3.0632 2.321193,-1.06547 5.022912,-1.06547 3.538867,0 5.593697,2.07383 2.073853,2.07388 2.073853,5.65081 0,0.91327 -0.209285,2.26411 -0.190276,1.35084 -0.722995,3.91939 h -15.392178 q -0.05709,0.47565 -0.09513,0.91328 -0.01901,0.41856 -0.01901,0.83712 0,2.83492 1.44599,4.39505 1.445988,1.54113 4.090628,1.54113 1.921645,0 3.938418,-0.93228 2.016775,-0.93227 4.242837,-2.85392 z"
         style="font-style:normal;font-variant:normal;font-weight:normal;font-stretch:normal;font-size:medium;line-height:1.25;font-family:'Incised901 BT';-inkscape-font-specification:'Incised901 BT';letter-spacing:-0.23018751px;word-spacing:0px;fill:#01a2e9;fill-opacity:1;stroke:none;stroke-width:0.2668812"
         id="path845"
         inkscape:connector-curvature="0" />
      <path
         d="m -35.056527,311.17825 3.976471,-23.45927 h 3.938418 l -0.970334,5.91713 q 1.236701,-3.31054 3.462763,-5.04191 2.226066,-1.7314 5.213173,-1.7314 2.930034,0 4.547258,1.59822 1.617227,1.57917 1.617227,4.43309 0,0.57077 -0.09514,1.38889 -0.07609,0.79909 -0.247333,1.92165 l -2.54951,14.9736 h -4.509204 l 2.340221,-13.7559 q 0.190278,-1.10355 0.266375,-1.73141 0.0761,-0.62784 0.0761,-1.14155 0,-1.57918 -0.818126,-2.47341 -0.799097,-0.89423 -2.226061,-0.89423 -2.911007,0 -4.908754,2.32117 -1.978725,2.32121 -2.720745,6.56407 l -1.864568,11.11126 z"
         style="font-style:normal;font-variant:normal;font-weight:normal;font-stretch:normal;font-size:medium;line-height:1.25;font-family:'Incised901 BT';-inkscape-font-specification:'Incised901 BT';letter-spacing:-0.23018751px;word-spacing:0px;fill:#01a2e9;fill-opacity:1;stroke:none;stroke-width:0.2668812"
         id="path847"
         inkscape:connector-curvature="0" />
      <path
         d="m 5.9573622,297.09889 q 0.095143,-0.55176 0.1331877,-0.97034 0.057092,-0.43761 0.057092,-0.76103 0,-1.97874 -1.3508575,-3.13934 -1.3318336,-1.16057 -3.6339998,-1.16057 -2.7017177,0 -4.6614152,1.59817 -1.9596953,1.59823 -2.7397716,4.45215 z m 0.7800734,7.53438 -0.7039687,4.24281 q -2.1119063,1.57918 -4.24284,2.35926 -2.11190617,0.7991 -4.2618637,0.7991 -3.9193918,0 -6.1835073,-2.6256 -2.2641159,-2.64464 -2.2641159,-7.26802 0,-3.32958 0.9513077,-6.22154 0.9513086,-2.91103 2.7207464,-4.96586 1.7123536,-2.01678 4.0145242,-3.0632 2.32119383,-1.06547 5.0229086,-1.06547 3.5388713,0 5.5936974,2.07383 2.0738535,2.07388 2.0738535,5.65081 0,0.91327 -0.2092844,2.26411 -0.1902776,1.35084 -0.7229935,3.91939 h -15.392178 q -0.057092,0.47565 -0.095143,0.91328 -0.01901,0.41856 -0.01901,0.83712 0,2.83492 1.4459888,4.39505 1.4459903,1.54113 4.0906319,1.54113 1.9216423,0 3.938416,-0.93228 2.0167776,-0.93227 4.24284,-2.85392 z"
         style="font-style:normal;font-variant:normal;font-weight:normal;font-stretch:normal;font-size:medium;line-height:1.25;font-family:'Incised901 BT';-inkscape-font-specification:'Incised901 BT';letter-spacing:-0.23018751px;word-spacing:0px;fill:#01a2e9;fill-opacity:1;stroke:none;stroke-width:0.2668812"
         id="path849"
         inkscape:connector-curvature="0" />
      <path
         d="m 10.440982,311.17825 3.976472,-23.45927 h 4.014523 l -0.970332,5.80298 q 1.407936,-3.32958 3.063213,-4.94679 1.674303,-1.63628 3.672052,-1.63628 0.494681,0 0.970337,0.11405 0.475653,0.11405 0.970333,0.36148 l -0.68494,4.83266 q -0.570788,-0.34247 -1.160598,-0.49469 -0.570788,-0.17108 -1.217676,-0.17108 -2.397298,0 -3.976472,2.22607 -1.579174,2.20706 -2.340218,6.62111 l -1.788462,10.7498 z"
         style="font-style:normal;font-variant:normal;font-weight:normal;font-stretch:normal;font-size:medium;line-height:1.25;font-family:'Incised901 BT';-inkscape-font-specification:'Incised901 BT';letter-spacing:-0.23018751px;word-spacing:0px;fill:#01a2e9;fill-opacity:1;stroke:none;stroke-width:0.2668812"
         id="path851"
         inkscape:connector-curvature="0" />
      <path
         d="m 36.747637,311.17825 0.818125,-3.67206 q -1.331833,2.20707 -3.063214,3.31059 -1.731382,1.1035 -3.881341,1.1035 -2.663666,0 -4.261864,-1.56016 -1.579172,-1.56012 -1.579172,-4.16673 0,-2.49243 1.426964,-4.16671 1.426962,-1.67431 4.376021,-2.60659 l 3.653026,-1.21769 q 3.08224,-1.00838 4.109653,-1.95969 1.046441,-0.97033 1.046441,-2.53047 0,-1.12255 -0.970334,-1.82653 -0.970336,-0.70396 -2.54951,-0.70396 -2.054826,0 -4.12868,1.06547 -2.073854,1.06545 -4.242839,3.23443 l 0.932284,-5.57465 q 1.940671,-1.50308 3.957444,-2.2451 2.016777,-0.76106 4.109656,-0.76106 3.367635,0 5.308305,1.67433 1.94067,1.65527 1.94067,4.52823 0,0.5137 -0.07609,1.25571 -0.0761,0.72298 -0.228327,1.73139 l -2.530481,15.08775 z m 1.94067,-11.96745 q -1.731382,1.33182 -4.965833,2.5685 -1.160597,0.43763 -1.655277,0.66595 -1.579174,0.72298 -2.24509,1.50308 -0.646888,0.76103 -0.646888,1.80747 0,1.29378 0.7991,2.09287 0.818124,0.79909 2.130931,0.79909 2.397298,0 4.071602,-1.94066 1.693329,-1.95969 2.207038,-5.34635 z"
         style="font-style:normal;font-variant:normal;font-weight:normal;font-stretch:normal;font-size:medium;line-height:1.25;font-family:'Incised901 BT';-inkscape-font-specification:'Incised901 BT';letter-spacing:-0.23018751px;word-spacing:0px;fill:#01a2e9;fill-opacity:1;stroke:none;stroke-width:0.2668812"
         id="path853"
         inkscape:connector-curvature="0" />
      <path
         d="m 45.550197,311.17825 4.94681,-29.41445 h 4.490176 l -4.946805,29.41445 z"
         style="font-style:normal;font-variant:normal;font-weight:normal;font-stretch:normal;font-size:medium;line-height:1.25;font-family:'Incised901 BT';-inkscape-font-specification:'Incised901 BT';letter-spacing:-0.23018751px;word-spacing:0px;fill:#01a2e9;fill-opacity:1;stroke:none;stroke-width:0.2668812"
         id="path855"
         inkscape:connector-curvature="0" />
      <path
         d="m -75.153203,324.77104 q -0.01901,-0.32347 -0.05709,-0.93228 -0.171236,-2.30217 -0.171236,-3.10127 h -0.342473 l -4.452124,26.18003 h -4.356996 l 4.908753,-28.95785 h 7.952944 l 1.54112,23.1929 10.407322,-23.1929 h 7.496314 l -4.870704,28.95785 h -4.337967 l 3.386658,-19.44475 q 0.437605,-2.5305 0.761049,-3.99552 0.342472,-1.465 0.761045,-2.73976 h -0.342468 q -0.380525,0.97033 -1.179626,2.68269 -0.209284,0.45662 -0.304423,0.66592 l -10.597585,22.83142 h -4.452124 z"
         style="font-style:normal;font-variant:normal;font-weight:normal;font-stretch:normal;font-size:medium;line-height:1.25;font-family:'Incised901 BT';-inkscape-font-specification:'Incised901 BT';letter-spacing:-0.23018751px;word-spacing:0px;fill:#01a2e9;fill-opacity:1;stroke:none;stroke-width:0.2668812"
         id="path890"
         inkscape:connector-curvature="0" />
      <path
         d="m -51.94782,346.91752 4.090632,-23.87785 q 0.304423,0.22843 0.799098,0.32346 0.513707,0.095 1.426965,0.095 1.179621,0 1.617224,-0.076 0.437602,-0.095 0.722993,-0.30446 l -4.052575,23.83982 z m 9.779457,-27.85434 q 0,1.02743 -0.818125,1.59819 -0.7991,0.5708 -2.302165,0.5708 -1.484045,0 -2.168986,-0.39957 -0.665917,-0.39953 -0.665917,-1.31279 0,-1.08451 0.818124,-1.59818 0.818126,-0.53276 2.492431,-0.53276 1.350858,0 1.997749,0.41859 0.646889,0.39955 0.646889,1.25572 z"
         style="font-style:normal;font-variant:normal;font-weight:normal;font-stretch:normal;font-size:medium;line-height:1.25;font-family:'Incised901 BT';-inkscape-font-specification:'Incised901 BT';letter-spacing:-0.23018751px;word-spacing:0px;fill:#01a2e9;fill-opacity:1;stroke:none;stroke-width:0.2668812"
         id="path892"
         inkscape:connector-curvature="0" />
      <path
         d="m -42.517391,346.91752 4.946808,-29.41449 h 4.490177 l -4.946805,29.41449 z"
         style="font-style:normal;font-variant:normal;font-weight:normal;font-stretch:normal;font-size:medium;line-height:1.25;font-family:'Incised901 BT';-inkscape-font-specification:'Incised901 BT';letter-spacing:-0.23018751px;word-spacing:0px;fill:#01a2e9;fill-opacity:1;stroke:none;stroke-width:0.2668812"
         id="path894"
         inkscape:connector-curvature="0" />
      <path
         d="m -33.163063,346.91752 4.946806,-29.41449 h 4.490179 l -4.946809,29.41449 z"
         style="font-style:normal;font-variant:normal;font-weight:normal;font-stretch:normal;font-size:medium;line-height:1.25;font-family:'Incised901 BT';-inkscape-font-specification:'Incised901 BT';letter-spacing:-0.23018751px;word-spacing:0px;fill:#01a2e9;fill-opacity:1;stroke:none;stroke-width:0.2668812"
         id="path896"
         inkscape:connector-curvature="0" />
      <path
         d="m -24.512709,345.12906 0.551759,-3.86233 q 1.541122,1.38892 2.98711,2.05482 1.465015,0.66595 2.930032,0.66595 1.959697,0 3.139318,-1.00841 1.198648,-1.00837 1.198648,-2.64464 0,-1.92165 -2.987108,-3.23444 -0.114146,-0.0571 -0.171237,-0.0761 -2.987107,-1.3128 -4.090628,-2.72075 -1.103516,-1.40793 -1.103516,-3.7101 0,-3.34861 2.473401,-5.61273 2.473403,-2.26412 6.145458,-2.26412 1.712355,0 3.158344,0.53275 1.4650169,0.5327 2.6826934,1.6172 l -0.6278639,4.39506 q -1.3508619,-1.19866 -2.6256145,-1.76946 -1.274753,-0.57076 -2.625611,-0.57076 -1.883594,0 -3.082243,0.93228 -1.198649,0.93228 -1.198649,2.34022 0,1.78846 3.405687,3.3486 0.475653,0.22843 0.761044,0.36151 2.188015,1.02741 3.158348,2.3973 0.9703368,1.35085 0.9703368,3.36763 0,3.40569 -2.4353498,5.72689 -2.416327,2.30217 -6.107406,2.30217 -1.921647,0 -3.557896,-0.6469 -1.636252,-0.64689 -2.949057,-1.92164 z"
         style="font-style:normal;font-variant:normal;font-weight:normal;font-stretch:normal;font-size:medium;line-height:1.25;font-family:'Incised901 BT';-inkscape-font-specification:'Incised901 BT';letter-spacing:-0.23018751px;word-spacing:0px;fill:#01a2e9;fill-opacity:1;stroke:none;stroke-width:0.2668812"
         id="path898"
         inkscape:connector-curvature="0" />
    </g>
  </g>
</svg>
