<?xml version="1.0" encoding="UTF-8" standalone="no"?>
<svg
   xmlns:dc="http://purl.org/dc/elements/1.1/"
   xmlns:cc="http://creativecommons.org/ns#"
   xmlns:rdf="http://www.w3.org/1999/02/22-rdf-syntax-ns#"
   xmlns:svg="http://www.w3.org/2000/svg"
   xmlns="http://www.w3.org/2000/svg"
   xmlns:sodipodi="http://sodipodi.sourceforge.net/DTD/sodipodi-0.dtd"
   xmlns:inkscape="http://www.inkscape.org/namespaces/inkscape"
   version="1.1"
   id="Layer_1"
   x="0px"
   y="0px"
   width="823"
   height="302"
   viewBox="0 0 823 302"
   enable-background="new 0 0 595.276 841.89"
   xml:space="preserve"
   inkscape:version="0.48.2 r9819"
   sodipodi:docname="Kellogg's_logo.svg"><metadata
   id="metadata21"><rdf:RDF><cc:Work
       rdf:about=""><dc:format>image/svg+xml</dc:format><dc:type
         rdf:resource="http://purl.org/dc/dcmitype/StillImage" /></cc:Work></rdf:RDF></metadata><defs
   id="defs19" /><sodipodi:namedview
   pagecolor="#ffffff"
   bordercolor="#666666"
   borderopacity="1"
   objecttolerance="10"
   gridtolerance="10"
   guidetolerance="10"
   inkscape:pageopacity="0"
   inkscape:pageshadow="2"
   inkscape:window-width="1920"
   inkscape:window-height="1028"
   id="namedview17"
   showgrid="false"
   inkscape:zoom="0.5533132"
   inkscape:cx="909.19188"
   inkscape:cy="31.457695"
   inkscape:window-x="-8"
   inkscape:window-y="-8"
   inkscape:window-maximized="1"
   inkscape:current-layer="Layer_1" />
<path
   clip-path="none"
   d="m 674.03053,137.04268 c 0,-0.14999 -0.12857,-0.33569 -0.12857,-0.5214 0.18571,0.0928 0.37141,0.12142 0.5214,0.21428 -0.0857,0.15713 -0.27856,0.22141 -0.39283,0.30712 M 774.8744,105.20176 c -10.03511,-10.620787 -24.84849,-13.977725 -38.76907,-8.778041 -2.92125,1.107075 -5.72823,2.342714 -8.52091,3.664061 0.0571,-0.307122 0.17856,-0.671386 0.20713,-1.042792 0,0.05714 0.24284,-1.171357 0.24284,-1.171357 0.95708,-4.806851 2.19272,-11.520729 -1.44277,-20.54161 -8.00666,-19.555954 -20.51304,-21.927239 -32.64088,-22.598627 h -0.1 c -12.77779,-0.67853 -28.26257,9.513708 -32.57659,21.370131 -1.78561,4.614005 -2.64984,9.178013 -2.64984,13.577746 0,6.742448 2.27129,13.120629 6.4996,18.998849 -1.69275,3.11409 -3.17123,6.64959 -3.17123,10.80648 v 0.31427 c -0.34284,-0.22142 -0.64996,-0.34284 -0.98566,-0.55711 -2.86411,-10.40651 -11.64215,-17.24181 -21.9558,-16.72041 -21.37013,1.0785 -42.43314,9.60656 -59.98922,23.34144 -0.54996,-2.12844 -1.44991,-4.31403 -2.64984,-6.34247 -4.74257,-8.19236 -13.42061,-12.72066 -23.14859,-11.885 -2.49985,0.24285 -5.02112,0.89281 -7.54954,1.72133 -2.06416,-1.4142 -4.5283,-2.86411 -8.12808,-3.66407 -15.15622,-3.32837 -27.34834,1.50706 -37.1406,5.38539 -7.87809,3.1141 -14.74196,5.76394 -23.43429,5.02112 -3.19266,-0.30712 -8.24236,-1.69275 -12.7778,-3.0141 -7.44954,-2.09273 -14.47054,-4.1926 -21.09157,-3.66406 -1.13565,0.0286 -2.15701,0.21427 -3.22838,0.42854 -5.67108,-4.15689 -12.8135,-5.87821 -20.78445,-4.614 -2.5927,0.39997 -5.20682,1.02137 -7.82095,1.66418 0.33569,-0.39997 0.54282,-0.73567 0.7071,-1.19992 l 5.59966,-8.835181 c 8.04237,-12.506383 16.99897,-26.512675 16.99897,-46.532887 0,-2.064161 -0.0929,-4.342594 -0.27142,-6.592457 -1.0785,-10.685065 -6.04249,-16.813264 -10.01367,-20.01307 -5.35682,-4.278311 -12.34925,-6.156768 -19.6131,-5.328247 -20.68446,2.492705 -39.88329,13.949152 -56.56799,29.748192 -3.23552,-5.821075 -8.2495,-9.363717 -13.18491,-11.577868 -41.56891,-18.320315 -83.26637,33.933653 -104.75792,73.538388 -0.58568,-0.58568 -1.07851,-1.20707 -1.66419,-1.72846 -5.17111,-4.43545 -11.45645,-6.92816 -18.19889,-7.44955 16.81326,-13.456328 32.18376,-29.283937 43.72591,-50.075531 3.26409,-5.906784 4.90685,-12.313538 4.90685,-18.477449 0,-4.828278 -0.9928,-9.449426 -3.02125,-13.699168 C 249.01349,4.3864533 234.38581,-2.7274002 219.50814,0.97237504 208.54452,3.6793534 200.75928,10.578934 196.08099,15.81433 c 0,0.02857 -16.90611,19.984501 -16.90611,19.984501 -3.69978,4.399732 -7.3567,8.713756 -11.20646,13.056349 -0.21428,-1.321348 -0.67854,-2.614127 -1.17136,-3.906905 -2.77126,-6.221051 -8.18522,-10.692208 -14.59912,-11.892135 l -1.53562,-0.278554 -1.72846,0.03571 c -19.54881,0.185703 -34.14793,9.763692 -47.08286,18.227464 -5.206823,3.44979 -10.127952,6.685308 -15.399061,9.392286 l -4.86399,2.556988 -8.035226,4.221172 -7.913805,3.942617 c -16.934685,8.463772 -34.419337,17.148959 -48.36849,33.747955 -6.935293,8.15664 -10.3779408,17.42751 -10.3779408,26.20555 0,6.62102 1.8427452,12.89921 5.6925108,18.38459 3.078385,4.24974 7.056715,7.38527 11.706432,9.48514 -8.799465,9.29944 -16.7561247,19.94879 -21.9200967,33.10513 -1.57847554,4.18546 -2.371284515998,8.49234 -2.371284515998,12.71352 0,12.68494 6.956720215998,24.48422 18.598870215998,29.3125 13.577746,5.67108 28.912529,3.39265 40.090421,-5.87821 6.621027,-5.54252 12.37782,-11.5493 17.556076,-17.8632 0.149991,8.93517 2.307003,18.10604 7.542399,27.34833 6.006778,10.4708 17.127535,17.33467 30.548145,18.906 14.62768,1.72847 29.10537,-3.07839 37.91198,-12.53495 4.37116,-4.67829 6.62103,-9.48514 6.62103,-14.28485 0,-1.57133 -0.31427,-3.14267 -0.71424,-4.714 8.25664,3.97833 17.22038,5.48538 24.3628,6.1282 15.61334,1.42134 28.48398,-5.75679 38.85478,-11.51359 0.71425,-0.43568 1.4142,-0.8928 2.12845,-1.26421 6.3139,5.47824 13.73488,9.20659 22.32721,10.62793 16.22044,2.67841 32.94086,-2.56413 46.6186,-10.1351 5.69251,6.59246 13.5206,11.39217 21.3987,13.36348 13.3349,3.1998 27.56261,0 39.14048,-8.86375 1.40705,-1.11422 2.74269,-2.28558 3.99975,-3.4855 4.74971,5.26396 10.77792,9.39228 17.55608,11.67072 14.53483,4.80685 29.09823,3.23551 42.03316,-4.58544 10.37794,-6.19248 19.47025,-13.79916 26.89122,-22.29865 1.32849,2.37129 2.95697,4.49973 4.86399,6.49961 -16.74898,9.11373 -33.22655,21.64868 -42.58312,38.89764 -3.23552,5.90678 -4.83542,12.59209 -4.83542,19.1774 0,6.19248 1.50705,12.29211 4.46401,17.30609 4.79971,8.3495 13.1492,13.24206 22.77719,13.49204 41.69746,1.01423 66.94593,-25.31275 80.89508,-44.12589 -1.04279,4.43545 -1.69275,9.1423 -1.69275,14.25628 v 1.84274 c 0.27855,13.52061 10.28509,25.53417 23.80569,28.57684 26.76266,6.1282 45.69723,-10.15653 55.92518,-18.99885 13.18491,-11.20646 23.09145,-24.66279 32.58373,-37.69057 l 11.27075,-14.9348 c 2.92839,-3.69263 10.77791,-8.92803 18.81314,-13.8563 1.47848,2.77126 3.13552,5.32824 5.32825,7.94237 5.02112,6.07106 10.99933,10.19224 17.64893,12.32068 18.25603,5.82108 37.41201,2.89268 52.66108,-7.82095 14.49912,-10.19224 24.29138,-23.86998 30.11246,-41.76175 2.19272,-6.98529 2.64984,-13.79202 2.64984,-20.10592 0,-2.307 -0.0643,-4.62115 -0.0928,-6.77102 -0.0643,-2.09987 -0.0643,-4.06404 -0.0643,-5.9425 0,-1.60704 0.0643,-3.11409 0.0928,-4.55686 6.59246,-0.95709 16.47043,-3.63549 21.49156,-14.62768 1.66418,-3.51408 2.50699,-7.24242 2.50699,-10.90648 -0.0286,-6.39962 -2.53556,-12.69209 -7.21385,-17.74178"
   id="path33-7"
   style="fill:#ffffff" /><path
   d="m 109.31484,131.47873 c 3.26408,4.98541 3.57121,10.92791 1.99987,16.47757 -7.08528,26.54125 -28.576831,54.41098 -13.149197,81.53791 7.970947,13.89201 32.055197,13.89201 41.904597,3.26408 7.44955,-7.94237 -7.17814,1.99988 -9.75655,-11.735 -5.32111,-28.32685 22.35578,-58.28931 8.2495,-91.23731 36.76919,-24.94134 78.03811,-45.575805 100.94387,-86.994717 2.74269,-4.899702 4.0069,-11.606438 1.44277,-16.934686 -3.1641,-6.528174 -9.69227,-10.685065 -17.47751,-8.749468 -5.97821,1.478482 -11.1279,5.356817 -14.87767,9.670841 -27.99116,31.933774 -54.2967,68.581548 -93.33719,94.13714 l -5.94249,10.56364"
   id="path37-4"
   style="fill:#e2001a"
   clip-path="none" /><path
   d="m 107.56494,128.92174 c -19.434531,27.31263 -31.198102,62.94618 -59.524953,86.53046 -6.528175,5.44967 -15.370494,6.49961 -23.098596,3.35694 -7.999514,-3.35694 -9.999393,-13.30633 -7.070999,-20.63446 16.134734,-41.11179 66.081699,-55.58234 78.645221,-98.04404 0.214273,-1.02137 -1.349917,-2.249867 -3.47836,-1.571337 -22.72719,7.142427 -27.498329,38.769077 -50.932619,45.761507 -5.606803,1.62847 -12.256399,0.79995 -16.013313,-4.40688 -5.606802,-8.00665 -1.478482,-18.00605 3.849766,-24.29138 13.73488,-16.356147 32.555165,-24.112818 51.146892,-33.662238 4.099751,-2.064161 8.963741,-4.678287 13.02778,-6.80673 19.513101,-10.099386 33.747951,-25.591302 54.996661,-25.834144 2.15701,0.492827 3.7212,3.971187 2.29986,6.371041 -13.51347,21.527264 -25.2699,39.940431 -37.74057,61.653401 -0.40711,0.82137 -6.47817,10.95647 -6.10677,11.57786"
   id="path39-0"
   style="fill:#e2001a"
   clip-path="none" /><path
   d="m 692.95795,71.268104 c 9.29943,0.557109 13.89201,1.4142 18.19889,12.32068 2.06416,4.956842 1.19993,7.728102 0.24999,12.499241 -1.72847,9.363715 -22.60577,30.698135 -32.29804,24.605645 -1.94274,-1.33563 2.0213,-6.16391 4.11403,-9.69941 1.52134,-2.62127 1.11422,-5.72822 -0.26426,-6.99243 -9.51371,-8.528054 -8.5352,-15.641907 -6.09963,-22.205794 2.02844,-5.321105 10.82791,-10.770774 16.09902,-10.527932"
   id="path41-9"
   style="fill:#e2001a"
   clip-path="none" /><path
   d="m 561.84448,257.69963 c 9.478,-7.11385 16.3133,-17.8632 20.93445,-25.40559 1.23564,-2.0356 -1.87132,0.30712 -6.68531,1.65704 -5.8425,1.66418 -29.46964,17.67749 -26.44839,27.01264 0.12856,0.14999 2.12844,1.62847 2.49984,1.62847 3.8712,-0.35712 6.57818,-2.57841 9.69941,-4.89256 M 703.33589,192.875 c 11.97784,-8.80661 18.34888,-29.86961 14.01343,-45.01869 -8.44234,3.1998 -23.34858,15.76333 -33.29083,25.36989 -11.89214,11.52072 -1.84989,2.4927 4.25688,4.1926 5.62823,1.62847 13.54204,9.63513 9.69227,13.73488 -1.4142,1.50705 2.77126,3.59978 5.32825,1.72132 m -63.439,-73.77409 c 5.72822,-0.30712 7.57811,9.91369 2.54984,11.97785 -16.8704,7.14956 -47.38998,15.42763 -48.34706,41.5689 -0.1857,1.94274 4.0069,6.84244 10.0351,4.24974 18.23461,-7.99951 22.9129,-29.77676 38.64765,-42.21172 8.89232,-6.92815 17.95606,3.10695 14.59912,12.16355 -4.28546,11.48501 -10.53508,21.67725 -17.18467,32.08376 -3.19981,5.04969 3.44265,1.99988 4.95684,1.07851 34.52647,-21.15586 58.725,-53.6396 96.85126,-67.99587 6.80673,-2.54985 14.7491,-1.78561 20.75588,4.56401 2.42842,2.64269 3.47122,6.43532 1.72132,10.3708 -2.74983,6.07106 -10.0351,4.83542 -16.17044,5.94963 -2.2213,0.36427 -4.55687,3.17124 -5.27111,5.54252 -4.14975,13.88488 0.86423,28.63398 -3.43551,42.34029 -4.28545,13.42775 -11.57786,24.63422 -23.86997,33.31226 -11.20647,7.97809 -24.94135,9.6137 -37.94056,5.54966 -4.05689,-1.29277 -7.27098,-3.84976 -10.07081,-7.17813 -17.14896,-20.44876 10.47793,-32.7623 -5.14255,-23.76999 -12.81351,7.3567 -36.6192,19.86308 -44.74728,30.04818 -14.07772,17.95605 -25.15561,36.2478 -41.69747,50.35408 -11.94213,10.40651 -24.4128,19.2774 -41.41891,15.36335 -6.74245,-1.50705 -10.67792,-7.75667 -10.81363,-12.87064 -1.26421,-41.63319 54.8181,-51.36117 77.69528,-70.88855 -2.307,-1.10708 -13.39204,7.23527 -22.94146,6.77816 -4.74257,-0.18571 -12.09212,-1.02137 -15.85618,-6.9353 -6.40675,-10.27794 -5.04969,-21.05586 0,-30.35529 14.89195,-27.59119 44.17589,-49.40415 77.09532,-51.08976"
   id="path43-4"
   style="fill:#e2001a"
   clip-path="none" /><path
   d="m 192.8669,160.33412 c 4.09975,-5.63537 8.04237,-12.16355 8.28521,-18.3846 0.0928,-3.63549 -0.12856,-4.24974 -3.78548,-3.99975 -5.66394,0.48568 -23.04146,20.74874 -21.15586,32.66944 0.3357,1.97131 7.11386,-0.77138 7.79239,-1.23564 3.34979,-2.5927 6.88529,-6.24962 8.86374,-9.04945 m 92.62295,-44.80442 c 9.05659,-12.16355 16.32043,-21.834387 19.92736,-30.583855 0.24284,-0.642818 -1.14279,-3.385509 -3.51407,-3.264088 -11.63501,0.407118 -28.26972,22.455783 -37.16918,39.019063 -3.13552,5.7925 -8.77803,20.57017 -7.87809,23.95568 2.79983,2.09273 20.84159,-18.63458 28.63398,-29.1268 m 76.5882,-3.24266 c 12.32068,-16.65613 27.77688,-40.340406 20.9773,-41.140357 -7.76382,-0.214273 -36.44065,30.790987 -46.62574,61.774817 -0.67853,1.75704 -1.34992,5.91393 -0.67853,5.59966 4.92113,-1.7856 18.81314,-16.04188 26.32697,-26.23412 m -158.18325,5.64251 c 11.47788,-2.83554 20.17021,6.6496 19.2774,16.66328 -2.09987,23.34144 -13.94915,37.31916 -35.99781,53.78959 -2.09987,1.69275 0.36426,3.26408 1.87846,3.2998 15.21336,0.24284 34.69789,-16.69185 36.26922,-21.34156 2.62127,-7.32813 4.89971,-19.67738 7.11386,-25.86272 2.09987,-5.82107 5.26396,-12.47781 7.79238,-17.8632 17.46323,-35.626405 56.2323,-88.90174 87.98037,-74.895448 7.14242,3.142666 7.76381,9.028023 5.22825,18.756003 -11.88499,44.961555 -49.45413,81.516475 -75.68826,101.222425 -17.1561,12.99206 22.19151,11.2636 32.7623,2.77126 2.8284,-2.27844 9.02088,-5.14255 9.8494,-9.54942 7.91381,-42.24744 53.15392,-123.663918 106.21498,-130.013532 5.38538,-0.642818 10.40651,2.007021 11.24217,10.442222 2.05702,21.955809 -9.73512,34.333629 -20.09164,51.946844 -18.41316,31.105256 -42.15458,49.861256 -65.06033,73.509816 -4.1926,4.39974 -3.11409,15.6062 9.07802,16.96326 5.20683,0.55711 10.16367,-2.33557 14.22771,-2.67841 -0.43569,19.58452 -19.74166,35.5407 -38.22625,31.06954 -8.68519,-2.09273 -16.96326,-10.09939 -16.74898,-17.33466 0.3714,-10.96362 -1.72133,-4.95684 -3.04982,-3.75691 -18.10604,15.67761 -54.43955,29.84104 -70.02431,3.32836 -11.98499,2.79983 -27.19835,17.85606 -43.91162,16.29187 -11.08504,-1.08565 -22.07723,-3.76405 -28.01973,-11.735 -2.15701,-2.92839 -9.7994,3.50693 -14.90624,0.79995 -6.971,-3.72834 -4.92827,-7.63525 -1.84988,-11.05647 3.38551,-3.91405 13.21348,-4.09261 13.79916,-11.29931 2.69269,-28.92682 22.12008,-56.38943 50.86119,-63.46758"
   id="path45-8"
   style="fill:#e2001a"
   clip-path="none" /><path
   d="m 456.61516,258.5353 c 6.52818,-4.59258 26.54125,-25.65559 21.22014,-25.06991 -5.7925,0.55711 -26.33411,12.37782 -32.73372,21.67726 -2.12844,3.04981 -0.89995,5.91392 2.24272,6.43532 3.26409,0.22142 6.62102,-1.14279 9.27086,-3.04267 m 81.70218,-128.63504 c -9.42085,1.50705 -36.71205,21.31299 -45.95435,36.51921 -2.02845,3.35693 -3.26409,7.63525 -1.6499,11.27074 1.68561,3.63549 5.44967,5.02112 9.47086,3.54264 19.59166,-7.08528 23.07002,-29.80533 34.96216,-44.49729 1.65704,-4.37117 20.72731,-19.55596 26.91265,-8.89946 7.29955,12.72065 -17.27038,43.54021 -29.74819,64.41751 -1.01423,1.66419 -1.16422,4.07118 1.27135,3.08553 6.2139,-2.34272 12.68494,-9.428 16.07759,-12.01356 8.92803,4.43545 -13.05635,36.03353 -38.71193,42.71169 -7.27099,1.84989 -27.0055,58.72501 -82.40214,57.43223 -11.45645,-0.24284 -13.57775,-15.49192 -8.19236,-25.46988 14.32056,-26.51268 52.35396,-40.98323 70.70285,-46.52575 0.30712,-0.0643 6.64959,-5.84964 7.66382,-8.87089 0.8928,-2.92125 -0.57854,-1.75703 -1.51419,-1.38563 -12.62067,5.69966 -24.28424,8.31378 -33.79795,1.4142 -19.3774,-13.88487 -0.37141,-42.89025 15.66333,-54.77524 -9.82083,0.98565 -17.58464,0.61425 -24.34852,-3.4855 -1.94274,-1.25707 -4.84256,5.14254 -5.42824,9.94939 -2.74269,25.15562 -20.99872,46.25433 -41.29035,58.47502 -8.87089,5.35682 -18.44174,6.24962 -28.26971,2.98553 -9.94939,-3.29265 -16.22758,-12.71351 -17.14896,-22.07723 -3.4855,-34.98359 24.75564,-66.48167 59.18212,-72.05276 5.79251,-0.95709 10.07082,1.29278 12.74923,7.50668 l -1.34992,1.32849 c -16.0776,5.32825 -27.86259,21.61298 -33.10513,33.56225 -2.55699,5.79251 -7.29956,22.3915 5.35681,19.86308 19.67738,-3.87834 29.53392,-31.65522 26.14127,-45.2044 l 0.27856,-4.34259 c 5.25682,-3.57121 10.96362,-8.40663 12.04212,-8.40663 h 0.3357 c 7.08528,-0.49283 21.163,5.7925 31.25524,6.64959 25.38417,2.28558 38.22625,-15.14907 58.6393,-10.68506 1.72132,0.39998 3.11409,1.75704 4.49258,2.89982 1.75704,1.2285 2.16415,5.10684 1.4142,4.89256 -0.15713,0 -1.24278,0.12857 -1.6999,0.18571"
   id="path47-8"
   style="fill:#e2001a"
   clip-path="none" /><path
   d="m 823.00005,96.509428 c 0,-8.699472 -6.50675,-13.76345 -13.84202,-13.76345 -7.31384,-0.02143 -13.79202,5.013981 -13.79202,13.713453 -0.0571,8.728039 6.47104,13.763449 13.73488,13.763449 7.32099,-0.007 13.82059,-5.04255 13.89916,-13.713452 M 806.8796,95.116655 v -3.592639 l 2.22843,0.07857 c 1.21422,0 2.78555,0.05 2.78555,1.62133 0,1.614188 -0.8071,1.892742 -2.20701,1.892742 h -2.80697 z m 0,2.556988 h 1.46419 l 3.42123,6.199627 h 3.74262 l -3.74262,-6.478182 c 1.94273,-0.128563 3.54264,-1.114218 3.54264,-3.792626 0,-3.442648 -2.24987,-4.578294 -6.04964,-4.578294 h -5.54252 v 14.849102 h 3.1641 v -6.199627 z m 12.09926,-1.164215 c 0,6.349612 -4.53544,10.549362 -9.87083,10.549362 v -0.05 c -5.44252,0.05 -9.84226,-4.19974 -9.78512,-10.549359 0,-6.299617 4.39259,-10.52079 9.84226,-10.52079 5.30682,0 9.81369,4.21403 9.81369,10.570787"
   id="path61-1"
   clip-path="none" /></svg>