<?xml version="1.0" encoding="UTF-8" standalone="no"?>
<!-- Created with Inkscape (http://www.inkscape.org/) -->

<svg
   xmlns:dc="http://purl.org/dc/elements/1.1/"
   xmlns:cc="http://creativecommons.org/ns#"
   xmlns:rdf="http://www.w3.org/1999/02/22-rdf-syntax-ns#"
   xmlns:svg="http://www.w3.org/2000/svg"
   xmlns="http://www.w3.org/2000/svg"
   xmlns:sodipodi="http://sodipodi.sourceforge.net/DTD/sodipodi-0.dtd"
   xmlns:inkscape="http://www.inkscape.org/namespaces/inkscape"
   width="187.08501"
   height="67.954002"
   id="svg2"
   version="1.1"
   inkscape:version="0.48.4 r9939"
   sodipodi:docname="New document 1">
  <defs
     id="defs4" />
  <sodipodi:namedview
     id="base"
     pagecolor="#ffffff"
     bordercolor="#666666"
     borderopacity="1.0"
     inkscape:pageopacity="0.0"
     inkscape:pageshadow="2"
     inkscape:zoom="3.936596"
     inkscape:cx="86.710777"
     inkscape:cy="59.555631"
     inkscape:document-units="px"
     inkscape:current-layer="g3043"
     showgrid="false"
     fit-margin-top="0"
     fit-margin-left="0"
     fit-margin-right="0"
     fit-margin-bottom="0"
     inkscape:window-width="1366"
     inkscape:window-height="706"
     inkscape:window-x="-8"
     inkscape:window-y="-8"
     inkscape:window-maximized="1" />
  <metadata
     id="metadata7">
    <rdf:RDF>
      <cc:Work
         rdf:about="">
        <dc:format>image/svg+xml</dc:format>
        <dc:type
           rdf:resource="http://purl.org/dc/dcmitype/StillImage" />
        <dc:title></dc:title>
      </cc:Work>
    </rdf:RDF>
  </metadata>
  <g
     inkscape:label="Layer 1"
     inkscape:groupmode="layer"
     id="layer1"
     transform="translate(-65.86191,-541.81112)">
    <g
       id="g3043"
       transform="translate(-145.97409,179.41112)">
	
	<polygon
   id="polygon3047"
   points="253.831,414.152 259.231,414.152 259.231,412.379 251.977,412.379 251.977,412.379 251.977,426.242 253.831,426.242 253.831,419.875 258.989,419.875 258.989,418.182 253.831,418.182 "
   clip-rule="evenodd"
   style="fill-rule:evenodd" />

	<path
   id="path3049"
   d="m 263.826,411.734 h -2.015 v 2.014 h 2.015 v -2.014 l 0,0 0,0 z m -2.015,4.272 v 10.236 h 2.015 v -10.236 h -2.015 l 0,0 z"
   clip-rule="evenodd"
   inkscape:connector-curvature="0"
   style="fill-rule:evenodd" />

	<path
   id="path3051"
   d="m 266.889,416.006 v 10.236 h 1.854 v -4.836 c 0,-2.74 1.128,-4.031 3.144,-4.031 1.451,0.082 2.096,1.209 2.096,3.467 v 5.4 h 1.935 v -6.045 c 0,-2.982 -1.209,-4.434 -3.789,-4.434 -1.612,0 -2.66,0.645 -3.385,1.854 l 0,0 v -1.611 h -1.855 l 0,0 z"
   clip-rule="evenodd"
   inkscape:connector-curvature="0"
   style="fill-rule:evenodd" />

	<path
   id="path3053"
   d="m 279.544,418.262 c 0.806,-0.645 1.692,-0.887 2.902,-0.887 1.773,0 2.579,0.807 2.579,2.5 h -2.015 c -1.209,0 -2.176,0.322 -3.063,0.725 -1.128,0.645 -1.612,1.451 -1.612,2.66 0,2.016 1.209,3.063 3.708,3.063 1.371,0 2.418,-0.482 3.144,-1.451 l 0,0 v 1.371 h 1.692 l -0.081,-6.367 c 0,-2.822 -1.37,-4.111 -4.03,-4.111 -1.128,0 -2.176,0.242 -3.385,0.887 l 0.161,1.61 0,0 0,0 z m 5.481,3.951 c 0,1.691 -0.967,2.658 -2.821,2.658 -1.37,0 -2.015,-0.563 -2.015,-1.611 0,-1.369 1.209,-2.016 3.627,-2.016 l 1.209,0.162 v 0.807 l 0,0 z"
   clip-rule="evenodd"
   inkscape:connector-curvature="0"
   style="fill-rule:evenodd" />

	<path
   id="path3055"
   d="m 289.861,416.006 v 10.236 h 1.854 v -4.836 c 0,-2.74 1.128,-4.031 3.144,-4.031 1.451,0.082 2.096,1.209 2.096,3.467 v 5.4 h 1.773 v -6.045 c 0,-2.982 -1.209,-4.434 -3.789,-4.434 -1.612,0 -2.66,0.645 -3.305,1.854 l 0,0 v -1.611 h -1.773 l 0,0 z"
   clip-rule="evenodd"
   inkscape:connector-curvature="0"
   style="fill-rule:evenodd" />

	<path
   id="path3057"
   d="m 308.401,416.166 -2.258,-0.402 c -1.531,0 -2.821,0.484 -3.789,1.611 -0.967,0.887 -1.37,2.258 -1.37,3.709 0,1.531 0.403,2.74 1.37,3.787 0.968,0.969 2.257,1.451 3.789,1.451 l 2.418,-0.402 -0.16,-1.611 c -0.646,0.402 -1.371,0.563 -2.016,0.563 -1.209,0 -2.016,-0.402 -2.66,-1.209 -0.564,-0.645 -0.806,-1.611 -0.806,-2.578 0,-0.887 0.242,-1.854 0.806,-2.66 0.645,-0.645 1.451,-1.049 2.499,-1.049 l 2.015,0.404 0.162,-1.614 0,0 z"
   clip-rule="evenodd"
   inkscape:connector-curvature="0"
   style="fill-rule:evenodd" />

	<path
   id="path3059"
   d="m 312.673,411.734 h -2.096 v 2.014 h 2.096 v -2.014 l 0,0 0,0 z m -2.015,4.272 v 10.236 h 1.934 v -10.236 h -1.934 l 0,0 z"
   clip-rule="evenodd"
   inkscape:connector-curvature="0"
   style="fill-rule:evenodd" />

	<path
   id="path3061"
   d="m 319.686,415.764 c -1.209,0 -2.257,0.242 -3.386,0.887 v 1.611 c 0.968,-0.645 1.935,-0.887 3.144,-0.887 1.612,0 2.419,0.807 2.419,2.5 h -2.016 c -1.209,0 -2.176,0.322 -2.982,0.725 -1.209,0.645 -1.773,1.451 -1.773,2.66 0,2.016 1.209,3.063 3.789,3.063 1.37,0 2.418,-0.482 3.063,-1.451 l 0,0 v 1.371 h 1.935 l -0.161,-6.367 c -0.002,-2.823 -1.372,-4.112 -4.032,-4.112 l 0,0 0,0 z m -2.58,7.496 c 0,-1.369 1.209,-2.016 3.546,-2.016 l 1.21,0.162 v 0.807 c 0,1.691 -0.968,2.658 -2.821,2.658 -1.209,0 -1.935,-0.562 -1.935,-1.611 l 0,0 z"
   clip-rule="evenodd"
   inkscape:connector-curvature="0"
   style="fill-rule:evenodd" />

	<polygon
   id="polygon3063"
   points="328.794,426.242 328.794,411.33 326.94,411.33 326.94,411.33 326.94,426.242 "
   clip-rule="evenodd"
   style="fill-rule:evenodd" />

	<path
   id="path3065"
   d="m 336.21,419.23 c 0,2.176 0.645,3.869 2.015,5.238 1.371,1.209 3.063,1.854 5.401,1.854 1.45,0 2.901,-0.08 4.11,-0.482 v -7.256 H 342.9 v 1.613 h 2.821 v 4.271 l -2.096,0.162 c -1.532,0 -2.741,-0.564 -3.789,-1.531 -0.967,-0.887 -1.451,-2.258 -1.451,-3.869 0,-1.613 0.484,-2.982 1.451,-3.869 0.968,-0.969 2.257,-1.533 3.869,-1.533 1.531,0 2.821,0.324 3.788,0.969 l 0.162,-2.016 c -1.371,-0.402 -2.741,-0.645 -4.03,-0.645 -2.177,0 -3.95,0.645 -5.24,1.854 -1.531,1.371 -2.175,3.063 -2.175,5.24 l 0,0 z"
   clip-rule="evenodd"
   inkscape:connector-curvature="0"
   style="fill-rule:evenodd" />

	<path
   id="path3067"
   d="m 350.558,416.006 v 10.236 h 1.935 v -4.756 c 0,-2.66 0.887,-4.029 2.821,-4.029 l 0.887,0.16 v -1.773 l -1.209,-0.08 c -1.209,0 -2.016,0.645 -2.499,1.854 h -0.161 v -1.611 h -1.774 l 0,-0.001 z"
   clip-rule="evenodd"
   inkscape:connector-curvature="0"
   style="fill-rule:evenodd" />

	<path
   id="path3069"
   d="m 364.664,418.424 c 0.563,0.807 0.806,1.773 0.806,2.66 0,0.967 -0.242,1.934 -0.806,2.578 -0.483,0.807 -1.29,1.209 -2.419,1.209 -0.886,0 -1.692,-0.402 -2.257,-1.209 -0.563,-0.645 -0.806,-1.611 -0.806,-2.578 0,-0.887 0.242,-1.854 0.806,-2.66 0.646,-0.645 1.371,-1.049 2.257,-1.049 0.968,0 1.774,0.404 2.419,1.049 l 0,0 0,0 z m -2.419,-2.66 c -1.45,0 -2.659,0.484 -3.627,1.611 -0.887,0.887 -1.451,2.258 -1.451,3.709 0,1.531 0.564,2.82 1.451,3.787 0.968,0.969 2.177,1.451 3.627,1.451 1.532,0 2.821,-0.482 3.789,-1.451 0.967,-1.047 1.451,-2.256 1.451,-3.787 0,-1.451 -0.484,-2.822 -1.451,-3.709 -0.968,-1.127 -2.177,-1.611 -3.789,-1.611 l 0,0 z"
   clip-rule="evenodd"
   inkscape:connector-curvature="0"
   style="fill-rule:evenodd" />

	<path
   id="path3071"
   d="m 369.5,416.006 v 6.045 c 0,2.82 1.209,4.271 3.788,4.271 1.612,0 2.66,-0.482 3.386,-1.691 l 0,0 v 1.611 h 1.693 v -10.236 h -1.854 v 4.676 c 0,2.82 -1.048,4.189 -3.063,4.189 -1.371,-0.16 -2.016,-1.369 -2.016,-3.627 v -5.238 H 369.5 l 0,0 z"
   clip-rule="evenodd"
   inkscape:connector-curvature="0"
   style="fill-rule:evenodd" />

	<path
   id="path3073"
   d="m 388.201,418.424 c 0.402,0.645 0.645,1.611 0.563,2.66 0.081,0.967 -0.161,1.773 -0.726,2.578 -0.483,0.807 -1.209,1.209 -2.096,1.209 -0.967,0 -1.773,-0.402 -2.337,-1.209 -0.403,-0.645 -0.646,-1.611 -0.646,-2.578 0,-0.887 0.242,-1.854 0.646,-2.66 0.726,-0.645 1.37,-1.049 2.337,-1.049 0.888,0 1.695,0.404 2.259,1.049 l 0,0 0,0 z m -7.094,-2.418 v 14.348 h 1.854 v -5.643 c 0.646,1.129 1.854,1.611 3.386,1.611 1.451,0 2.66,-0.482 3.305,-1.611 0.726,-0.887 1.129,-2.258 1.129,-3.869 0,-1.451 -0.403,-2.58 -1.129,-3.467 -0.806,-1.127 -1.854,-1.611 -3.305,-1.611 -1.531,0 -2.74,0.484 -3.386,1.693 l 0,0 v -1.451 h -1.854 l 0,0 z"
   clip-rule="evenodd"
   inkscape:connector-curvature="0"
   style="fill-rule:evenodd" />

	<path
   id="path3075"
   d="m 214.898,364.579 h 27.003 c 0.967,0 1.612,0.242 2.176,0.806 0.645,0.645 0.887,1.29 0.887,2.096 v 27.971 c 0,0.806 -0.242,1.451 -0.887,2.176 -0.564,0.484 -1.209,0.807 -2.176,0.807 h -6.207 l -1.693,-1.531 c -0.564,-0.242 -0.806,-0.484 -0.726,-0.807 l 0.967,-1.451 1.612,0.403 c 0.403,0.161 0.807,0.161 1.371,-0.242 0.403,-0.162 0.806,-0.403 1.048,-0.806 l 0.403,-0.564 0.403,-0.564 c 0.242,-0.081 0.403,-0.403 0.403,-0.484 0.161,-0.725 0,-1.209 -0.242,-1.612 -0.322,-0.564 -0.726,-0.967 -1.209,-1.128 -0.403,-0.081 -0.726,-0.403 -0.726,-0.806 l 0.322,-0.403 c 0.242,-0.081 0.403,-0.242 0.403,-0.483 0,-0.403 -0.162,-0.726 -0.403,-0.726 v -0.081 c 0.403,-0.161 0.645,-0.323 0.484,-0.726 l -0.242,-0.645 c -0.161,-0.403 0,-0.564 0.162,-0.645 h 1.612 c 0.645,-0.161 1.048,-0.403 1.048,-0.806 0,-0.403 -0.403,-1.128 -1.048,-2.176 l -1.209,-1.612 -0.161,-0.564 0.645,-0.484 c 0.403,-0.403 0.564,-0.806 0.403,-1.128 l -0.242,-0.242 -0.403,-0.242 -0.162,-0.403 -0.887,-2.821 c 0.484,-0.403 0.806,-0.726 0.887,-0.807 0.323,-0.725 0.403,-1.209 0.323,-1.612 0.081,-0.806 0,-1.532 -0.403,-2.015 l -0.967,-0.806 -1.209,-0.806 -1.773,-0.564 -1.047,-0.242 c -0.403,0.081 -0.645,0.081 -0.807,0 l -0.645,-0.161 h -0.967 l -2.176,0.403 h -2.418 l -1.209,0.242 c -0.081,0.161 -0.403,0.322 -0.645,0.322 l -0.806,0.242 -0.564,0.403 -0.483,0.564 c -0.403,0 -0.564,0.081 -0.726,0.403 l -0.242,0.242 -0.403,0.242 -0.645,0.726 -1.128,0.806 -1.209,1.451 -1.29,3.627 -0.161,1.209 c -0.242,0.564 -0.403,1.209 -0.403,1.854 l 0.162,0.806 0.242,0.564 0.161,1.773 0.645,2.015 0.403,0.645 c 0.161,0.564 0.242,0.967 0.645,1.209 l 1.129,1.371 c 0.403,0.242 0.483,0.645 0.645,1.29 l -0.967,0.322 -1.451,2.902 -1.048,1.612 -0.726,1.128 0.323,0.484 0.08,0.403 -1.29,1.531 H 214.9 c -0.806,0 -1.451,-0.322 -2.177,-0.807 -0.645,-0.725 -0.887,-1.37 -0.887,-2.176 V 367.48 c 0,-0.806 0.242,-1.451 0.887,-2.096 0.724,-0.563 1.369,-0.805 2.175,-0.805 l 0,0 z"
   clip-rule="evenodd"
   inkscape:connector-curvature="0"
   style="fill:#800000;fill-rule:evenodd" />

	<path
   id="path3077"
   d="m 251.977,365.869 c 2.015,0 3.224,0.161 3.788,0.564 0.484,0.403 0.807,1.209 0.887,2.58 l -0.08,25.875 c 0,0.806 -0.162,1.37 -0.564,1.612 -0.645,0.403 -1.773,0.563 -3.466,0.563 -0.726,0 -1.129,0.242 -1.129,0.807 0,0.402 0.162,0.564 0.403,0.564 h 25.31 c 0.081,0 0.242,-0.162 0.403,-0.322 l 1.692,-8.948 c 0,-0.403 -0.242,-0.564 -0.887,-0.564 l -0.403,0.242 -0.322,1.128 c -0.887,2.902 -2.257,4.836 -3.708,5.723 -1.531,0.806 -3.95,1.209 -7.254,1.209 l -3.95,-0.403 c -0.645,-0.081 -1.048,-0.645 -1.209,-1.612 v -25.875 c 0,-1.371 0.322,-2.176 0.967,-2.58 0.645,-0.403 2.015,-0.564 4.03,-0.564 0.403,0 0.645,-0.242 0.645,-0.806 0,-0.403 -0.081,-0.645 -0.483,-0.645 h -14.832 c -0.242,0 -0.403,0.242 -0.403,0.645 0,0.564 0.162,0.807 0.565,0.807 l 0,0 z"
   clip-rule="evenodd"
   inkscape:connector-curvature="0"
   style="fill:#800000;fill-rule:evenodd" />

	<path
   id="path3079"
   d="m 284.622,369.657 c 0.645,0 1.37,-0.242 1.773,-0.806 0.483,-0.403 0.806,-1.048 0.806,-1.773 0,-0.645 -0.322,-1.209 -0.806,-1.612 -0.403,-0.483 -1.129,-0.806 -1.773,-0.806 -0.645,0 -1.371,0.323 -1.773,0.806 -0.403,0.403 -0.645,0.967 -0.645,1.612 0,0.725 0.242,1.37 0.645,1.773 0.402,0.564 1.128,0.806 1.773,0.806 l 0,0 z"
   clip-rule="evenodd"
   inkscape:connector-curvature="0"
   style="fill:#800000;fill-rule:evenodd" />

	<path
   id="path3081"
   d="m 331.615,378.927 c -1.451,-1.371 -3.466,-2.015 -6.287,-2.015 -3.063,0 -5.643,1.048 -7.657,3.063 -2.177,2.015 -3.225,4.836 -3.225,8.383 0,3.305 0.967,5.884 2.982,7.899 1.692,1.854 4.11,2.821 6.932,2.821 3.225,0 6.046,-1.371 8.384,-4.03 l 0.402,-0.645 -0.322,-0.564 -0.483,-0.242 -0.322,0.242 -0.483,0.564 c -1.532,1.29 -3.145,2.015 -4.756,2.015 -3.225,0 -5.481,-1.128 -6.852,-3.224 -0.887,-1.531 -1.29,-3.144 -1.29,-4.836 0,-3.627 0.806,-6.368 2.257,-8.061 1.209,-1.532 2.66,-2.176 4.434,-2.176 1.774,0 2.66,0.806 2.982,2.257 0.403,1.371 0.645,2.176 0.806,2.58 0.242,0.403 0.807,0.564 1.451,0.564 0.806,0 1.451,-0.322 1.854,-0.806 0.402,-0.403 0.725,-0.806 0.725,-1.209 -10e-4,-0.968 -0.564,-1.774 -1.532,-2.58 l 0,0 z"
   clip-rule="evenodd"
   inkscape:connector-curvature="0"
   style="fill:#800000;fill-rule:evenodd" />

	<path
   id="path3083"
   d="m 350.154,381.345 c 0.968,1.773 1.532,3.869 1.532,6.69 0,6.609 -2.177,9.834 -6.61,9.834 -4.433,0 -6.609,-3.225 -6.609,-9.834 0,-2.821 0.564,-4.917 1.531,-6.69 1.209,-2.176 2.821,-3.224 5.078,-3.224 2.257,0 4.03,1.047 5.078,3.224 l 0,0 0,0 z m -5.078,-4.433 c -3.224,0 -5.884,1.048 -7.899,3.224 -2.176,2.176 -3.224,4.836 -3.224,7.899 0,3.144 1.048,5.804 3.224,7.98 2.016,2.014 4.676,3.063 7.899,3.063 3.386,0 6.046,-1.049 8.061,-3.063 2.016,-2.015 2.982,-4.595 2.982,-7.98 0,-3.224 -1.128,-5.884 -3.144,-8.061 -2.095,-2.015 -4.835,-3.062 -7.899,-3.062 l 0,0 z"
   clip-rule="evenodd"
   inkscape:connector-curvature="0"
   style="fill:#800000;fill-rule:evenodd" />

	<path
   id="path3085"
   d="m 278.818,397.305 1.612,-0.08 c 0.967,0 1.612,-0.403 2.015,-1.129 0.161,-0.403 0.322,-2.66 0.322,-6.852 v -6.529 c 0,-0.967 -0.161,-1.612 -0.564,-2.015 -0.403,-0.403 -1.048,-0.726 -2.257,-0.806 -0.322,0 -0.403,-0.161 -0.403,-0.564 0,-0.403 0.081,-0.645 0.242,-0.645 2.257,-0.403 4.03,-0.967 5.239,-1.612 l 0.967,-0.564 0.484,-0.242 c 0.161,0 0.322,0.242 0.322,0.645 v 1.048 l -0.16,16.04 c 0,1.451 0.161,2.257 0.242,2.66 0.322,0.402 0.967,0.564 1.935,0.564 h 2.902 c 0.967,0 1.612,-0.403 2.015,-1.129 0.161,-0.403 0.322,-2.66 0.322,-6.852 v -6.529 c 0,-0.967 -0.161,-1.612 -0.564,-2.015 -0.403,-0.403 -1.048,-0.726 -2.257,-0.806 -0.323,0 -0.403,-0.161 -0.403,-0.564 0,-0.403 0.081,-0.645 0.403,-0.645 2.095,-0.403 3.869,-0.967 5.078,-1.612 l 0.968,-0.564 0.483,-0.242 0.161,0.645 v 3.385 c 3.224,-2.337 5.804,-3.385 7.497,-3.385 4.191,0 6.207,2.418 6.207,7.093 v 11.607 c 0,1.048 1.048,1.612 3.063,1.612 0.402,0 0.563,0.242 0.563,0.645 0,0.403 -0.241,0.564 -0.645,0.564 h -9.995 c -0.081,0 -0.242,-0.162 -0.242,-0.564 0,-0.402 0.242,-0.645 0.645,-0.645 l 2.337,-0.322 c 0.403,-0.081 0.484,-0.646 0.484,-1.451 v -8.464 c 0,-2.58 -0.242,-4.434 -0.807,-5.4 -0.806,-1.29 -2.257,-2.016 -4.514,-2.016 -0.967,0 -1.935,0.323 -2.982,0.806 l -1.612,1.371 V 394 c 0,1.451 0.161,2.257 0.242,2.66 0.322,0.402 0.967,0.564 1.934,0.564 l 1.209,0.08 c 0.081,0.162 0.081,0.322 0.081,0.564 0,0.402 -0.081,0.564 -0.403,0.564 H 279.14 c -0.322,0 -0.403,-0.162 -0.403,-0.404 l 0.081,-0.723 0,0 z"
   clip-rule="evenodd"
   inkscape:connector-curvature="0"
   style="fill:#800000;fill-rule:evenodd" />

	<path
   id="path3087"
   d="M 363.213,364.176 V 394 c 0,1.451 0.161,2.257 0.242,2.66 0.322,0.402 0.967,0.564 1.934,0.564 h 2.499 c 0.968,0 1.532,-0.403 1.935,-1.129 0.081,-0.403 0.242,-2.66 0.242,-6.852 v -6.529 c 0,-0.967 -0.161,-1.612 -0.564,-2.015 -0.403,-0.403 -1.048,-0.726 -2.257,-0.806 -0.242,0 -0.403,-0.161 -0.403,-0.564 0,-0.403 0.161,-0.645 0.403,-0.645 2.177,-0.403 3.869,-0.967 5.078,-1.612 l 1.129,-0.564 0.483,-0.242 0.161,0.645 -0.161,3.385 c 3.385,-2.337 5.804,-3.385 7.415,-3.385 4.192,0 6.288,2.418 6.288,7.093 v 11.607 c 0,0.483 0.161,0.887 0.402,1.048 0.403,0.402 1.371,0.564 2.741,0.564 0.402,0 0.483,0.242 0.483,0.645 0,0.403 -0.241,0.564 -0.806,0.564 h -9.673 c -0.242,0 -0.403,-0.162 -0.403,-0.564 0,-0.402 0.322,-0.645 0.726,-0.645 l 2.257,-0.322 c 0.403,-0.081 0.564,-0.646 0.564,-1.451 v -8.464 c 0,-2.58 -0.322,-4.434 -0.807,-5.4 -0.806,-1.29 -2.337,-2.016 -4.594,-2.016 -0.807,0 -1.773,0.323 -2.982,0.806 -0.887,0.564 -1.451,0.967 -1.612,1.371 V 394 c 0,1.451 0.161,2.257 0.322,2.66 0.242,0.402 0.887,0.564 1.854,0.564 l 1.209,0.08 0.242,0.564 c 0,0.402 -0.08,0.564 -0.483,0.564 h -21.28 c -0.08,0 -0.241,-0.162 -0.241,-0.404 l 0.161,-0.725 1.611,-0.08 c 0.807,0 1.29,-0.403 1.693,-1.129 0.161,-0.403 0.322,-3.305 0.322,-8.706 v -16.686 c 0,-2.096 -0.161,-3.466 -0.403,-4.03 -0.322,-0.483 -1.128,-0.806 -2.418,-0.887 -0.322,-0.161 -0.403,-0.322 -0.403,-0.725 0,-0.403 0.081,-0.484 0.403,-0.484 1.451,-0.322 3.063,-0.726 4.514,-1.37 l 2.016,-0.806 c 0.161,0 0.322,0.161 0.322,0.564 l -0.161,1.212 0,0 z"
   clip-rule="evenodd"
   inkscape:connector-curvature="0"
   style="fill:#800000;fill-rule:evenodd" />

	<polygon
   id="polygon3089"
   points="251.977,405.365 390.458,405.365 390.458,406.494 390.458,406.494 251.977,406.494 "
   clip-rule="evenodd"
   style="fill:#800000;fill-rule:evenodd" />

	<path
   id="path3091"
   d="m 392.231,419.23 c 0,0.967 0.241,1.773 0.967,2.418 0.645,0.645 1.451,0.967 2.418,0.967 0.887,0 1.693,-0.322 2.418,-0.967 0.646,-0.645 0.887,-1.451 0.887,-2.418 0,-0.969 -0.241,-1.855 -0.887,-2.58 -0.725,-0.645 -1.531,-0.887 -2.418,-0.887 -0.967,0 -1.773,0.242 -2.418,0.887 -0.725,0.725 -0.967,1.612 -0.967,2.58 l 0,0 0,0 z m 1.371,-2.177 c 0.483,-0.645 1.209,-0.887 2.015,-0.887 0.807,0 1.451,0.242 2.016,0.887 0.483,0.564 0.806,1.209 0.806,2.178 0,0.805 -0.322,1.451 -0.806,2.014 -0.564,0.564 -1.209,0.807 -2.016,0.807 -0.806,0 -1.531,-0.242 -2.015,-0.807 -0.564,-0.563 -0.807,-1.209 -0.807,-2.014 0,-0.969 0.242,-1.614 0.807,-2.178 l 0,0 0,0 z m 2.095,0.726 c 0.564,0 0.806,0.08 0.806,0.482 0,0.404 -0.241,0.564 -0.806,0.564 h -0.645 v -1.047 h 0.645 l 0,10e-4 0,0 z m -0.242,1.612 1.048,1.613 h 0.726 l -1.129,-1.613 c 0.727,0 0.968,-0.402 0.968,-1.129 0,-0.645 -0.403,-0.887 -1.209,-0.887 h -1.451 v 3.629 h 0.646 v -1.613 h 0.401 l 0,0 z"
   clip-rule="evenodd"
   inkscape:connector-curvature="0"
   style="fill-rule:evenodd" />

</g>
  </g>
</svg>
