<?xml version="1.0" encoding="utf-8"?>
<!-- Generator: Adobe Illustrator 23.0.3, SVG Export Plug-In . SVG Version: 6.00 Build 0)  -->
<svg version="1.1"
	 id="svg2985" inkscape:version="0.91 r13725" sodipodi:docname="MasterCard_early_1990s_logo.svg" xmlns:cc="http://creativecommons.org/ns#" xmlns:dc="http://purl.org/dc/elements/1.1/" xmlns:inkscape="http://www.inkscape.org/namespaces/inkscape" xmlns:rdf="http://www.w3.org/1999/02/22-rdf-syntax-ns#" xmlns:sodipodi="http://sodipodi.sourceforge.net/DTD/sodipodi-0.dtd" xmlns:svg="http://www.w3.org/2000/svg"
	 xmlns="http://www.w3.org/2000/svg" xmlns:xlink="http://www.w3.org/1999/xlink" x="0px" y="0px" viewBox="0 0 1025.2 612.3"
	 style="enable-background:new 0 0 1025.2 612.3;" xml:space="preserve">
<style type="text/css">
	.st0{fill-rule:evenodd;clip-rule:evenodd;fill:#FF0018;}
	.st1{fill-rule:evenodd;clip-rule:evenodd;fill:#FFAA18;}
	.st2{fill:#FFAA18;}
	.st3{fill:#FFFFFF;}
</style>
<g>
	<g>
		<ellipse class="st0" cx="307.9" cy="306.1" rx="307.9" ry="306.1"/>
		<path class="st1" d="M717.4,0C638.7,0,567,29.3,512.6,77.5c8.2,7.2,16,14.9,23.3,23h-46.6c-5.5,6-10.8,12.3-15.8,18.8h78.2
			c4.2,5.5,8.3,11,12.1,16.8H461.4c-4.1,6.1-8,12.4-11.7,18.8h125.9c3.7,6.5,7.2,13.1,10.4,19.9H439.2c-2.9,6.2-5.7,12.4-8.2,18.8
			h163.2c2.3,5.7,4.3,11.4,6.3,17.3H424.7c-2,6.2-3.9,12.5-5.5,18.8H606c1.6,6,2.9,12.1,4.1,18.3h-195c-1.2,6.2-2.2,12.5-3.1,18.8
			h201.2c1.7,12.9,2.5,26.1,2.5,39.4c0,3.5-0.1,7-0.2,10.4H409.7c0.2,6.3,0.6,12.6,1.2,18.8h203.4c-0.6,6-1.3,11.9-2.2,17.8h-199
			c1,6.3,2.2,12.6,3.5,18.8h191.9c-1.4,6.2-2.9,12.3-4.6,18.3H421.3c1.8,6.4,3.9,12.6,6.1,18.8h170.5c-2.2,6.2-4.6,12.3-7.3,18.3
			h-156c2.7,6.1,5.5,12.1,8.5,18H582c-3.2,6.1-6.5,12.2-10.1,18H453.2c3.9,6.4,8,12.7,12.3,18.8h94.1c-4.3,6.1-8.9,12-13.6,17.8
			h-66.9c5.4,6.5,11,12.8,16.9,18.8h33.2c-5.3,5.5-10.9,10.8-16.6,15.8c54.4,48.2,126.1,77.6,204.8,77.6
			c170,0,307.9-137.1,307.9-306.1S887.4,0,717.4,0z"/>
		<g>
			<path class="st2" d="M991.3,481L991.3,481L991.3,481z"/>
			<path class="st2" d="M993.9,497.4c-0.3-0.3-0.8-0.6-1.3-0.8c1.4-0.1,2.4-0.6,3.2-1.4s1.2-1.8,1.2-3c0-0.8-0.2-1.6-0.7-2.3
				c-0.5-0.7-1.1-1.2-2-1.5c-0.8-0.3-2.2-0.4-4-0.4H985v15.7l0,0h2.6V497h1.5c0.9,0,1.6,0.2,2,0.5c0.7,0.5,1.6,1.7,2.6,3.6l1.4,2.5
				h3.1l-1.9-3.1C995.3,499.1,994.5,498,993.9,497.4z M990.6,494.8h-3.1V490h2.9c1.2,0,2.1,0.1,2.5,0.3c0.5,0.2,0.8,0.5,1.1,0.8
				c0.3,0.4,0.4,0.8,0.4,1.2c0,0.7-0.3,1.3-0.8,1.7C993,494.5,992,494.8,990.6,494.8z"/>
			<path class="st2" d="M1003.9,488.2c-1.3-2.3-3.1-4.2-5.4-5.4c-2.3-1.3-4.7-1.9-7.1-1.9c-2.4,0-4.8,0.6-7.2,1.9
				c-2.3,1.2-4.1,3-5.5,5.4c-1.3,2.3-2,4.8-2,7.3s0.6,4.9,1.9,7.2c1.3,2.3,3.1,4.1,5.4,5.4c2.3,1.3,4.7,1.9,7.3,1.9
				c2.5,0,4.9-0.6,7.2-1.9s4.1-3.1,5.4-5.4c1.3-2.3,1.9-4.7,1.9-7.2C1005.9,493,1005.2,490.6,1003.9,488.2z M1001.9,501.6
				c-1.1,1.9-2.6,3.4-4.5,4.5s-3.9,1.6-6,1.6s-4.1-0.5-6-1.6s-3.4-2.6-4.5-4.5s-1.6-3.9-1.6-6s0.5-4.1,1.6-6.1s2.6-3.5,4.5-4.5
				c1.9-1.1,3.9-1.6,6-1.6l0,0c2,0,4,0.5,6,1.6c2,1,3.5,2.5,4.5,4.5c1.1,1.9,1.6,4,1.6,6.1S1002.9,499.6,1001.9,501.6z"/>
		</g>
		<polygon class="st0" points="445.3,346.1 445.3,293 561.5,293 544.7,385.3 386.5,385.3 386.5,346.1 		"/>
	</g>
	<g>
		<g>
			<path class="st3" d="M409.5,300.1h17l4.1-25.9h-16.1l3.3-16.1h-32.2c-0.7,0.6-19,90.4-19,101.4c0,16.2,10.6,23.4,25.6,23.3
				c11.8-0.1,20.9-2.9,24.1-3.6l4-23.4c-2.2,0-5.4,0.8-8.3,0.8c-11.2,0-12.4-5.1-11.7-8.9L409.5,300.1z"/>
			<path class="st3" d="M524.7,336.4c0,0,4.2-17.8,4.2-25.1c0-18.1-10.6-40.2-45.9-40.2c-32.4,0-56.3,29.8-56.3,63.5l0,0
				c0,38.9,30,48.1,55.6,48.1c23.6,0,34-4.5,34-4.5l5.7-26.5c0,0-18,6.8-34.2,6.8c-34.6,0-28.5-22-28.5-22L524.7,336.4L524.7,336.4z
				 M483.1,295.8c18.2,0,14.8,17.4,14.8,18.8h-35.7C462.2,312.8,465.6,295.8,483.1,295.8z"/>
			<path class="st3" d="M634.1,325.1c0-32.5,19.6-50.3,41.5-50.3c16.4,0,29.6,7.9,29.6,7.9l5.3-29.1c0,0-19.5-6.7-36.3-6.7
				c-37.2,0-73.3,27.5-73.3,79.3c0,34.3,19.5,56.9,57.9,56.9c10.9,0,28.2-3.8,28.2-3.8l5.8-30c0,0-15.8,6.8-26.6,6.8
				C643.3,356,634.1,341.1,634.1,325.1z"/>
			<path class="st3" d="M239.4,271.6c-22.1,0-39,6.1-39,6.1l-4.7,23.7c0,0,14-4.8,35.1-4.8c12,0,20.8,1.2,20.8,9.5
				c0,5.1-1.1,6.9-1.1,6.9s-9.5-0.7-13.8-0.7c-27.8,0-57.1,10.1-57.1,40.7c0,24.1,19.2,29.6,31.1,29.6c22.7,0,32.5-12.6,33-12.6
				l-1.1,10.5H271l12.6-75.7C283.6,272.6,250.8,271.6,239.4,271.6z M223.5,359.6c-10,0-12.6-6.5-12.6-10.4c0-7.5,4.8-16.6,28.4-16.6
				c5.5,0,6.1,0.5,7,0.6l0,0C246.9,337.9,242.9,359.6,223.5,359.6z"/>
			<path class="st3" d="M341.8,297c4.5,0,22,1.2,22,1.2l4.1-24.3c0,0-11.3-2.2-29.7-2.2c-23.8,0-48,8.1-48,35.9
				c0,31.5,40.3,28.3,40.3,41.6c0,8.9-11.3,9.6-19.9,9.6c-15,0-28.5-4.4-28.6-4.2l-4.3,24c0.8,0.2,9.1,3.4,36.1,3.4l0,0
				c7.3,0,48.7,1.6,48.7-35c0-34.2-38.4-27.4-38.4-41.1C324.1,299.1,330.3,297,341.8,297z"/>
			<path class="st3" d="M953.6,249.8l-6.9,36.8c0,0-12.1-14.3-31.1-14.3c-29.5,0-54.1,30.4-54.1,65.3c0,22.5,13.1,44.6,39.9,44.6
				c19.3,0,30-11.5,30-11.5l-1.4,9.8h31.3l24.6-130.8L953.6,249.8z M912.8,355.5c-11.6,0-17-8.3-17-21.3c0-21.3,11.2-35.4,25.4-35.4
				c11.6,0,17.5,6.8,17.5,22.8C938.7,336.1,930.2,355.5,912.8,355.5z"/>
			<polygon class="st3" points="140.2,249.7 108.5,330 106.8,249.7 59.8,249.7 34.1,380.6 65.1,380.6 84.7,281.9 87.6,380.6 
				109.8,380.6 151.1,281.9 132.8,380.6 165.8,380.6 191.2,249.7 			"/>
			<path class="st3" d="M600.3,272.9c-14.4,0-25.1,16.8-25.1,16.8l2.9-15.5h-30L528,380.8h33.1c9.4-45.5,11.1-82.5,33.5-75.7
				c3.9-17.6,7.7-24.4,12-31.9C606.5,273.2,604.5,272.9,600.3,272.9z"/>
			<path class="st3" d="M761.2,271.6L761.2,271.6c-22.1,0-39,6.1-39,6.1l-4.7,23.7c0,0,14-4.8,35.1-4.8c12,0,20.7,1.2,20.7,9.5
				c0,5.1-1.1,6.9-1.1,6.9s-9.5-0.7-13.8-0.7c-27.8,0-57.1,10.1-57.1,40.7c0,24.1,19.2,29.6,31.1,29.6c22.7,0,32.5-12.6,33-12.6
				l-1.1,10.5h28.3l12.6-75.7C805.5,272.6,772.6,271.6,761.2,271.6z M745.4,359.6c-10,0-12.6-6.5-12.6-10.4
				c0-7.5,4.8-16.6,28.4-16.6c5.5,0,6.1,0.5,7,0.6l0,0C768.8,337.9,764.8,359.6,745.4,359.6z"/>
			<path class="st3" d="M876.8,273.2c0,0-2-0.4-6.2-0.4c-14.4,0-25.1,16.8-25.1,16.8l2.9-15.5h-30l-20.1,106.6h33.1
				c9.4-45.5,11.1-82.5,33.5-75.7C868.7,287.5,872.5,280.7,876.8,273.2z"/>
		</g>
		<g>
			<path class="st3" d="M991.3,355.9L991.3,355.9L991.3,355.9z"/>
			<path class="st3" d="M1003.9,363.2c-1.3-2.3-3.1-4.2-5.4-5.4c-2.3-1.3-4.7-1.9-7.1-1.9c-2.4,0-4.8,0.6-7.2,1.9
				c-2.3,1.2-4.1,3-5.5,5.4c-1.3,2.3-2,4.8-2,7.3s0.6,4.9,1.9,7.2c1.3,2.3,3.1,4.1,5.4,5.4c2.3,1.3,4.7,1.9,7.3,1.9
				c2.5,0,4.9-0.6,7.2-1.9s4.1-3.1,5.4-5.4c1.3-2.3,1.9-4.7,1.9-7.2C1005.9,367.9,1005.2,365.5,1003.9,363.2z M1001.9,376.5
				c-1.1,1.9-2.6,3.4-4.5,4.5s-3.9,1.6-6,1.6s-4.1-0.5-6-1.6s-3.4-2.6-4.5-4.5s-1.6-3.9-1.6-6s0.5-4.1,1.6-6.1s2.6-3.5,4.5-4.5
				c1.9-1.1,3.9-1.6,6-1.6l0,0c2,0,4,0.5,6,1.6c2,1,3.5,2.5,4.5,4.5c1.1,1.9,1.6,4,1.6,6.1S1002.9,374.6,1001.9,376.5z"/>
			<path class="st3" d="M993.9,372.3c-0.3-0.3-0.8-0.6-1.3-0.8c1.4-0.1,2.4-0.6,3.2-1.4s1.2-1.8,1.2-3c0-0.8-0.2-1.6-0.7-2.3
				c-0.5-0.7-1.1-1.2-2-1.5c-0.8-0.3-2.2-0.4-4-0.4H985v15.7l0,0h2.6v-6.7h1.5c0.9,0,1.6,0.2,2,0.5c0.7,0.5,1.6,1.7,2.6,3.6l1.4,2.5
				h3.1l-1.9-3.1C995.3,374,994.5,373,993.9,372.3z M990.6,369.7h-3.1V365h2.9c1.2,0,2.1,0.1,2.5,0.3c0.5,0.2,0.8,0.5,1.1,0.8
				c0.3,0.4,0.4,0.8,0.4,1.2c0,0.7-0.3,1.3-0.8,1.7C993,369.5,992,369.7,990.6,369.7z"/>
		</g>
	</g>
</g>
</svg>
