<?xml version="1.0" encoding="utf-8"?>
<!-- Generator: Adobe Illustrator 23.0.3, SVG Export Plug-In . SVG Version: 6.00 Build 0)  -->
<svg version="1.1"
	 id="svg3185" inkscape:version="0.48.5 r10040" sodipodi:docname="3378318496_e571615abd.jpg" xmlns:cc="http://creativecommons.org/ns#" xmlns:dc="http://purl.org/dc/elements/1.1/" xmlns:inkscape="http://www.inkscape.org/namespaces/inkscape" xmlns:rdf="http://www.w3.org/1999/02/22-rdf-syntax-ns#" xmlns:sodipodi="http://sodipodi.sourceforge.net/DTD/sodipodi-0.dtd" xmlns:svg="http://www.w3.org/2000/svg"
	 xmlns="http://www.w3.org/2000/svg" xmlns:xlink="http://www.w3.org/1999/xlink" x="0px" y="0px" viewBox="0 0 800 498.9"
	 style="enable-background:new 0 0 800 498.9;" xml:space="preserve">
<style type="text/css">
	.st0{fill-rule:evenodd;clip-rule:evenodd;fill:#FFFFFF;}
	.st1{fill-rule:evenodd;clip-rule:evenodd;fill:#FC1010;}
	.st2{fill-rule:evenodd;clip-rule:evenodd;fill:#AA0805;}
	.st3{fill-rule:evenodd;clip-rule:evenodd;fill:#CF7914;}
	.st4{fill-rule:evenodd;clip-rule:evenodd;}
	.st5{fill:#FFFFFF;}
</style>
<g>
	<g>
		<path class="st0" d="M751.3,1.6H48.7c-26.1,0-47.1,21-47.1,47.1v401.5c0,26.1,21,47.1,47.1,47.1h702.5c26.1,0,47.1-21,47.1-47.1
			V48.7C798.4,22.6,777.4,1.6,751.3,1.6z"/>
		<path d="M751.3,498.9H48.7C21.9,498.9,0,477,0,450.2V48.7C0,21.9,21.9,0,48.7,0h702.5C778.1,0,800,21.9,800,48.7v401.5
			C800,477,778.1,498.9,751.3,498.9z M48.7,3.3C23.7,3.3,3.3,23.7,3.3,48.7v401.5c0,25.1,20.4,45.4,45.4,45.4h702.5
			c25.1,0,45.4-20.4,45.4-45.4V48.7c0-25.1-20.4-45.4-45.4-45.4H48.7z"/>
	</g>
	<ellipse class="st1" cx="247.6" cy="252.6" rx="226.1" ry="228.6"/>
	<path class="st2" d="M776.1,252.6c0-126.3-101.2-228.6-226.1-228.6S323.8,126.3,323.8,252.6S425,481.2,549.9,481.2
		S776.1,378.8,776.1,252.6L776.1,252.6z"/>
	<path class="st3" d="M550,23.9c-58.1,0-111.1,22.2-151.2,58.7c46,41.8,75,102.5,75,170s-29,128.2-75,170
		c40.1,36.4,93.1,58.6,151.2,58.6c124.9,0,226.1-102.4,226.1-228.6S674.8,23.9,550,23.9z"/>
	<g>
		<g>
			<ellipse class="st4" cx="722" cy="396.9" rx="43.6" ry="43.5"/>
			<g>
				<ellipse class="st5" cx="723.6" cy="368.6" rx="15.9" ry="9.3"/>
				<path class="st5" d="M745.6,418.2c-2.8-0.1-6.6,1.2-6.9-2.4v-34.4h-42.4v3.2h9.1c1.4,0.1,2.7,0.3,3.5,2.4v28.8
					c-0.4,2.1-1.6,2.3-4.5,2.3h-11.5l-0.1,3.5h61v-3.5H745.6z"/>
			</g>
		</g>
		<g>
			<rect x="671.6" y="445.5" width="3.2" height="13.8"/>
			<polygon points="684.4,454 684.4,454 680.2,445.5 676.9,445.5 676.9,459.2 679.9,459.2 679.9,450.7 679.9,450.7 684.2,459.2 
				687.4,459.2 687.4,445.5 684.4,445.5 			"/>
			<polygon points="688.8,448.6 692.4,448.6 692.4,459.2 695.6,459.2 695.6,448.6 699.2,448.6 699.2,445.5 688.8,445.5 			"/>
			<polygon points="703.8,453.5 709.8,453.5 709.8,450.8 703.8,450.8 703.8,448.4 710.3,448.4 710.3,445.5 700.6,445.5 700.6,459.2 
				710.5,459.2 710.5,456.2 703.8,456.2 			"/>
			<path d="M722.6,456.1c0-0.7-0.2-1.4-0.4-2s-0.7-1.1-1.3-1.3v0c0.6-0.3,1.1-0.8,1.4-1.4c0.3-0.6,0.5-1.3,0.5-2.1
				c0-1.4-0.5-2.4-1.3-3c-0.8-0.6-1.8-0.9-2.9-0.9h-6.2l0,13.8h3.2v-5h2.4c0.7,0,1.2,0.3,1.4,0.9c0.2,0.6,0.3,1.2,0.4,1.9
				c0,0.2,0.1,0.6,0.1,1.1s0.1,0.9,0.3,1.1h3.1c-0.2-0.3-0.3-0.8-0.4-1.5C722.7,457,722.6,456.5,722.6,456.1z M719.2,451
				c-0.2,0.3-0.6,0.4-1.1,0.4h-2.7v-3.1h2.5c0.5,0,0.8,0.1,1.1,0.4c0.3,0.2,0.5,0.6,0.5,1.1C719.6,450.4,719.5,450.8,719.2,451z"/>
			<path d="M733.1,451.7c0.5-0.3,0.9-0.7,1.2-1.1c0.3-0.5,0.4-1,0.4-1.6c-0.1-1.4-0.5-2.3-1.4-2.8c-0.9-0.5-1.9-0.7-3-0.6h-5.7v13.8
				h5.8c1.3,0,2.5-0.3,3.3-0.9c0.9-0.6,1.4-1.8,1.4-3.4c0-0.8-0.2-1.5-0.6-2C734.3,452.3,733.8,451.9,733.1,451.7z M727.8,448.3h2.5
				c0.3,0,0.6,0.1,0.9,0.3c0.3,0.2,0.4,0.5,0.4,1c0,0.5-0.2,0.8-0.4,1c-0.3,0.2-0.6,0.3-0.9,0.3h-2.5V448.3z M731.6,456
				c-0.3,0.2-0.7,0.4-1.2,0.3h-2.5v-3.2h2.5c0.5,0,0.9,0.1,1.2,0.4c0.3,0.2,0.5,0.7,0.5,1.3C732,455.4,731.9,455.8,731.6,456z"/>
			<path d="M740.2,445.5l-4.5,13.8h3.3l0.8-2.5h4.2l0.7,2.5h3.3l-4.5-13.8H740.2z M740.4,454.1l1.4-4.8h0l1.3,4.8H740.4z"/>
			<polygon points="756.4,454 756.4,454 752.1,445.5 748.9,445.5 748.9,459.2 751.9,459.2 751.9,450.7 751.9,450.7 756.1,459.2 
				759.4,459.2 759.4,445.5 756.4,445.5 			"/>
			<polygon points="768.1,450.9 772.6,445.5 768.7,445.5 764.7,450.8 764.7,445.5 761.5,445.5 761.5,459.2 764.7,459.2 764.7,455 
				766,453.5 769.3,459.2 773.2,459.2 			"/>
			<g>
				<path d="M772.1,422.2c-0.7-1-1.5-1.8-2.6-2.3c-1.1-0.5-2.2-0.8-3.4-0.8c-1.2,0-2.4,0.3-3.5,0.8c-1.1,0.5-1.9,1.3-2.6,2.3
					s-1,2.2-1,3.7c0,1.4,0.4,2.7,1,3.7c0.7,1,1.5,1.8,2.6,2.3c1.1,0.5,2.2,0.8,3.5,0.8c1.2,0,2.4-0.3,3.4-0.8
					c1.1-0.5,1.9-1.3,2.6-2.3c0.7-1,1-2.2,1-3.7C773.1,424.4,772.8,423.2,772.1,422.2z M769.4,429.5c-0.9,0.9-2,1.4-3.3,1.4
					c-1.3,0-2.5-0.5-3.4-1.4c-0.9-0.9-1.4-2.1-1.4-3.6c0-1.5,0.5-2.7,1.4-3.6c0.9-0.9,2-1.4,3.4-1.4c1.3,0,2.4,0.5,3.3,1.4
					c0.9,0.9,1.4,2.1,1.4,3.6C770.8,427.4,770.4,428.6,769.4,429.5z"/>
				<path d="M769.2,424.4c0-0.9-0.3-1.5-0.8-1.8c-0.5-0.3-1.3-0.5-2.3-0.5h-2.8v7.4h1.8l0-3.1h0.5l1.7,3.1h1.7l-1.9-3.2
					c0.6,0,1.1-0.2,1.5-0.5S769.2,425.1,769.2,424.4z M767.2,425c-0.2,0.1-0.4,0.2-0.7,0.2h-1.3v-1.7h0.9c0.3,0,0.6,0,0.9,0.1
					s0.5,0.3,0.5,0.7C767.4,424.6,767.3,424.9,767.2,425z"/>
			</g>
		</g>
	</g>
	<g>
		<path class="st5" d="M131.2,172.4c-1.2-2.1-2.9-3.8-5.2-5.1c-2.3-1.3-5.4-2-9.1-2c-6.2,0-11.3,2.8-15.3,8.3
			c-1.3-3-3.1-5.1-5.6-6.4c-2.5-1.3-5.4-1.9-8.7-1.9c-3,0-5.7,0.8-8.1,2.3c-2.5,1.5-4.4,3.6-6,6.2H73v-7H57.4v51.3h16.1v-25
			c0-5.1,0.6-8.8,1.9-10.8c1.3-2.1,3.4-3.1,6.3-3.1c2.1,0,3.6,0.8,4.6,2.5c1,1.7,1.5,4.1,1.5,7.3v29.2h16.1v-25.1
			c0-4.8,0.5-8.3,1.4-10.5c0.9-2.2,3-3.3,6.1-3.3c2.1,0,3.7,0.8,4.9,2.3c1.2,1.6,1.8,3.7,1.8,6.5v30.2h16.1v-30.7
			c0-3-0.2-5.7-0.6-8.2C133.1,176.8,132.3,174.5,131.2,172.4z"/>
		<path class="st5" d="M190.6,204.9v-22.5c0-3.5-0.6-6.4-1.8-8.7c-1.2-2.3-2.9-4-5.1-5.3c-2.1-1.3-4.5-2.1-7.2-2.6
			c-2.6-0.5-5.6-0.7-8.8-0.7c-3,0-5.9,0.3-8.5,0.8c-2.6,0.6-5,1.5-7.1,2.7c-2.3,1.4-4.1,3.2-5.4,5.5c-1.4,2.3-2.1,5-2.2,8.3h15
			c0.8-4.3,3.4-6.4,8-6.4c2,0,3.7,0.4,5.3,1.3c1.6,0.9,2.4,2.2,2.4,4c0,1.5-0.3,2.6-1,3.3c-0.7,0.7-1.7,1.2-3.3,1.5
			c-1.3,0.3-3.5,0.6-6.5,1.1c-3.5,0.5-6.3,1-8.6,1.5c-2.3,0.5-4.5,1.4-6.5,2.5c-2,1.1-3.7,2.7-5,4.8c-1.3,2.1-1.9,4.7-1.9,8
			c0,5.1,1.6,8.9,4.7,11.6c3.1,2.6,7.1,4,12.1,4c3.1,0,6.1-0.5,8.9-1.5s5.3-2.6,7.2-4.8c0.3,2.1,0.6,3.7,0.9,4.8h16.2
			c-0.8-1.8-1.3-3.7-1.6-5.7C190.7,210.4,190.6,207.9,190.6,204.9z M172.9,205.7c-1.5,2.3-4,3.4-7.6,3.4c-2,0-3.6-0.5-4.8-1.4
			c-1.3-1-1.9-2.4-1.9-4.4c0-1.8,0.6-3.3,1.8-4.3s2.8-1.7,4.8-2.3c0.8-0.2,2-0.5,3.8-0.9c1.4-0.3,2.7-0.5,3.6-0.8s1.8-0.6,2.5-1.1
			C175.1,199.6,174.3,203.5,172.9,205.7z"/>
		<path class="st5" d="M243.3,193.3c-0.9-1.3-2.2-2.5-3.9-3.6c-1.6-1.1-3.6-1.9-6-2.3c-1-0.3-2.5-0.6-4.5-0.9
			c-2-0.4-3.7-0.8-5.3-1.1c-1.6-0.4-3-0.8-4.2-1.2s-2.2-1-3-1.7c-0.8-0.7-1.1-1.5-1.1-2.4c0-1.6,0.7-2.6,2-3.1
			c1.4-0.5,3-0.7,4.9-0.7c2.1,0,3.8,0.4,5.1,1.3c1.4,0.9,2.1,2.4,2.1,4.5h14.8c-0.1-3.2-0.8-5.9-2.1-8.1c-1.3-2.2-3-3.9-5.2-5.1
			c-2.1-1.2-4.5-2.1-7.1-2.6c-2.6-0.5-5.3-0.8-8.2-0.8c-2.6,0-5.2,0.3-7.8,0.8c-2.6,0.5-5,1.4-7.2,2.6c-2.2,1.2-4,2.8-5.3,4.9
			c-1.4,2.1-2,4.6-2,7.5c0,2.8,0.5,5.1,1.5,6.9c1,1.8,2.3,3.3,3.9,4.4c1.6,1.1,3.4,1.9,5.3,2.5s4.3,1.2,7.4,1.9
			c2.3,0.5,3.8,0.8,4.7,1.1c0.3,0.1,0.5,0.1,0.8,0.2c2.1,0.5,3.9,1.1,5.2,1.8c1.3,0.7,1.9,1.9,1.9,3.5c0,1.8-0.8,3.2-2.4,4.1
			c-1.6,0.9-3.3,1.3-5.2,1.3c-2.5,0-4.4-0.6-6-1.8c-1.8-1.4-2.6-3.3-2.6-5.7l-15.3,0c0.1,3.4,0.9,6.3,2.2,8.8s3.2,4.3,5.4,5.7
			c2.3,1.4,4.8,2.4,7.5,3c2.7,0.6,5.7,0.9,8.8,0.9c3,0,5.8-0.3,8.6-1c2.8-0.7,5.3-1.7,7.5-3.1c2.2-1.4,4-3.3,5.4-5.7
			c1.4-2.4,2-5.2,2-8.5c0-1.2-0.2-2.5-0.6-3.9C244.9,196,244.3,194.7,243.3,193.3z"/>
		<path class="st5" d="M279.3,205.9c-2,0-3.4-0.3-4.3-1c-0.9-0.7-1.4-2-1.4-3.9v-23.3h9.9v-10.9h-9.9v-15.5h-16.1v15.5h-8.1v10.9
			h8.1v22.8c0,3.6,0.3,6.6,0.8,8.9c0.5,2.3,1.4,4.1,2.7,5.4c1.3,1.4,3,2.3,5.2,2.9c2.2,0.6,5,0.9,8.5,0.9c1.1,0,2.8-0.1,5-0.3
			c1.7-0.1,3-0.2,3.8-0.2v-12.4c-0.5,0-1.2,0-2.2,0.1C280.4,205.9,279.7,205.9,279.3,205.9z"/>
		<path class="st5" d="M333.8,173.6c-2.2-2.7-4.9-4.7-8.1-6.2c-3.2-1.5-6.9-2.2-11-2.2c-3.6,0-7,0.7-10.2,2c-3.2,1.3-6,3.2-8.5,5.6
			c-2.4,2.4-4.3,5.3-5.7,8.6c-1.4,3.3-2.1,6.9-2.1,10.8c0,8.5,2.5,15.2,7.4,20c4.9,4.8,11.4,7.3,19.5,7.3c5.9,0,11-1.4,15.5-4.3
			c4.5-2.9,7.5-7.1,8.8-12.7h-15c-0.8,1.8-2,3.2-3.6,4.2c-1.7,1-3.5,1.5-5.5,1.5c-3.3,0-6-1.1-7.9-3.2c-1.9-2.1-2.9-4.9-3.1-8.5h36
			c0,0,0-0.4,0-1.1c0.1-0.4,0.1-0.7,0.1-1c0-4.2-0.6-8-1.7-11.5C337.6,179.4,336,176.3,333.8,173.6z M304.3,187.1
			c0.5-3.2,1.7-5.7,3.5-7.6c1.8-1.9,4.1-2.9,6.9-2.9c2.6,0,4.9,1,6.7,3c1.8,2,2.8,4.5,2.9,7.5H304.3z"/>
		<path class="st5" d="M370.4,168.3c-2.6,1.7-4.5,4.2-5.7,7.4h-0.2v-9h-15.6l0,51.3H365v-25.4c0-3.4,1.1-6.3,3.2-8.7
			c2.1-2.3,5.1-3.5,8.9-3.5c1.8,0,3.8,0.3,6.1,1v-15.3c-1.1-0.3-2.3-0.4-3.8-0.4C376,165.7,373,166.6,370.4,168.3z"/>
		<path class="st5" d="M447.5,204.4c-1.5,1.5-3.6,2.3-6.3,2.3c-3.2,0-5.5-1.3-7.1-4c-1.6-2.6-2.4-5.8-2.4-9.5c0-2,0.1-3.9,0.4-5.6
			c0.3-1.7,0.8-3.3,1.5-4.7c0.7-1.4,1.8-2.6,3.2-3.5c1.4-0.9,3.2-1.3,5.3-1.3c2.1,0,3.9,0.7,5.4,2.1c1.5,1.4,2.3,3.2,2.4,5.3l15.6,0
			c-0.6-6.5-3.1-11.5-7.7-15c-4.6-3.5-10.1-5.3-16.5-5.3c-3.9,0-7.4,0.7-10.6,2c-3.2,1.4-5.9,3.3-8.1,5.8c-2.3,2.5-4,5.5-5.2,8.9
			c-1.2,3.4-1.8,7.2-1.8,11.3c0,3.8,0.6,7.4,1.9,10.6c1.3,3.3,3.1,6.1,5.4,8.4c2.3,2.3,5,4.1,8.2,5.4s6.6,1.9,10.2,1.9
			c6.7,0,12.3-1.9,16.8-5.8c4.5-3.9,7.2-9.1,7.8-15.9h-15.6C450,200.7,449,202.9,447.5,204.4z"/>
		<path class="st5" d="M520,172.1c-1.2-2-3-3.7-5.4-4.9c-2.4-1.3-5.6-1.9-9.4-1.9c-3,0-6,0.8-8.8,2.3c-2.9,1.5-4.9,3.6-6.1,6.2h-0.2
			v-26.3H474l0,70.6h16.1v-28c0-3.1,0.7-5.7,2.2-7.8c1.5-2.1,3.6-3.2,6.5-3.2c3.5,0,5.7,1.1,6.6,3.2c0.9,2.1,1.4,5.8,1.4,10.9v24.8
			h16.1v-32.9c0-2.4-0.2-4.6-0.6-6.8C522,176.2,521.2,174.1,520,172.1z"/>
		<path class="st5" d="M579.1,204.9v-22.5c0-3.5-0.6-6.4-1.8-8.7c-1.2-2.3-2.9-4-5.1-5.3c-2.1-1.3-4.5-2.1-7.2-2.6
			c-2.6-0.5-5.6-0.7-8.8-0.7c-3,0-5.9,0.3-8.5,0.8c-2.6,0.6-5,1.5-7.1,2.7c-2.3,1.4-4.1,3.2-5.4,5.5c-1.4,2.3-2.1,5-2.2,8.3h15
			c0.8-4.3,3.4-6.4,8-6.4c2,0,3.7,0.4,5.3,1.3c1.6,0.9,2.4,2.2,2.4,4c0,1.5-0.3,2.6-1,3.3c-0.7,0.7-1.7,1.2-3.3,1.5
			c-1.3,0.3-3.5,0.6-6.5,1.1c-3.5,0.5-6.3,1-8.6,1.5c-2.3,0.5-4.5,1.4-6.5,2.5c-2,1.1-3.7,2.7-5,4.8c-1.3,2.1-1.9,4.7-1.9,8
			c0,5.1,1.6,8.9,4.7,11.6s7.1,4,12.1,4c3.1,0,6.1-0.5,8.9-1.5c2.9-1,5.3-2.6,7.2-4.8c0.3,2.1,0.6,3.7,0.9,4.8H581
			c-0.8-1.8-1.3-3.7-1.6-5.7C579.2,210.4,579.1,207.9,579.1,204.9z M561.4,205.7c-1.5,2.3-4,3.4-7.6,3.4c-2,0-3.6-0.5-4.8-1.4
			c-1.3-1-1.9-2.4-1.9-4.4h0c0-1.8,0.6-3.3,1.8-4.3c1.2-1,2.8-1.7,4.8-2.3c0.8-0.2,2-0.5,3.8-0.9c1.4-0.3,2.7-0.5,3.6-0.8
			c1-0.3,1.8-0.6,2.5-1.1C563.6,199.6,562.9,203.5,561.4,205.7z"/>
		<path class="st5" d="M611.8,168.3c-2.6,1.7-4.5,4.2-5.7,7.4H606v-9h-15.6l0,51.3h16.1v-25.4c0-3.4,1.1-6.3,3.2-8.7
			c2.1-2.3,5.1-3.5,8.9-3.5c1.8,0,3.8,0.3,6.1,1v-15.3c-1.1-0.3-2.3-0.4-3.8-0.4C617.4,165.7,614.4,166.6,611.8,168.3z"/>
		<path class="st5" d="M662.1,173.2h-0.2c-2.8-5.3-7.2-7.9-13.1-7.9c-3.3,0-6.4,0.6-9.1,1.9c-2.7,1.3-5,3.1-6.9,5.4
			c-1.9,2.3-3.3,5-4.2,8.1c-0.9,3-1.4,6.3-1.4,9.7c0,7.6,1.8,13.8,5.4,18.5c3.6,4.7,9,7,16.1,7c2.6,0,5-0.7,7.4-2
			c2.3-1.3,4.2-3.2,5.7-5.5h0.2v4.8c0,1.8-0.1,3.4-0.3,4.8c-0.2,1.4-0.6,2.6-1.1,3.7c-0.6,1.1-1.4,1.9-2.6,2.6
			c-1.1,0.6-2.6,0.9-4.4,0.9c-2.6,0-4.5-0.4-5.9-1.1c-1.4-0.8-2.4-2.3-2.7-4.5h-16.1c0.4,3.3,1.4,6,2.8,8.2c1.4,2.2,3.3,3.9,5.4,5
			c2.2,1.2,4.6,2,7.2,2.5c2.6,0.5,5.5,0.7,8.6,0.7c5.4,0,9.7-0.8,13.1-2.4c3.4-1.6,5.9-3.7,7.5-6.1c1.6-2.5,2.7-5,3.2-7.6
			c0.5-2.6,0.7-5.3,0.7-8.1v-45.1h-15.4V173.2z M662.3,191.1c0,3.4-0.8,6.3-2.5,8.6c-1.6,2.3-4.1,3.4-7.3,3.4
			c-3.1,0-5.4-1.2-6.9-3.5c-1.5-2.3-2.3-5.2-2.3-8.6c0-3.6,0.7-6.7,2.2-9.2c1.5-2.5,3.9-3.7,7.1-3.7c3.3,0,5.8,1.2,7.3,3.7
			C661.5,184.3,662.3,187.4,662.3,191.1L662.3,191.1z"/>
		<path class="st5" d="M737.6,194.4c0-4.2-0.6-8-1.7-11.5c-1.1-3.5-2.7-6.6-4.9-9.3c-2.2-2.7-4.9-4.7-8.1-6.2
			c-3.2-1.5-6.9-2.2-11-2.2c-3.6,0-7,0.7-10.2,2c-3.2,1.3-6,3.2-8.5,5.6c-2.4,2.4-4.3,5.3-5.7,8.6c-1.4,3.3-2.1,6.9-2.1,10.8
			c0,8.5,2.5,15.2,7.4,20c4.9,4.8,11.4,7.3,19.5,7.3c5.9,0,11-1.4,15.5-4.3c4.5-2.9,7.5-7.1,8.8-12.7h-15c-0.8,1.8-2,3.2-3.6,4.2
			c-1.7,1-3.5,1.5-5.5,1.5c-3.3,0-6-1.1-7.9-3.2c-1.9-2.1-2.9-4.9-3.1-8.5h36c0,0,0-0.4,0-1.1C737.6,195,737.6,194.7,737.6,194.4z
			 M701.5,187.1c0.5-3.2,1.7-5.7,3.5-7.6c1.8-1.9,4.1-2.9,6.9-2.9c2.6,0,4.9,1,6.7,3c1.8,2,2.8,4.5,2.9,7.5H701.5z"/>
		<g>
			<path d="M749.7,207c0-1-0.3-1.8-1-2.1c-0.7-0.4-1.6-0.6-2.8-0.6h-3.3v8.9h2.2v-3.7h0.5l2,3.7h2.1l-2.3-3.8c0.8,0,1.4-0.2,1.8-0.6
				C749.4,208.4,749.6,207.8,749.7,207z M747.2,207.7c-0.2,0.1-0.5,0.2-0.9,0.2l-1.6,0v-2h1.1c0.3,0,0.7,0,1.1,0.1
				c0.4,0.1,0.6,0.4,0.6,0.8C747.5,207.3,747.4,207.6,747.2,207.7z"/>
			<path d="M753.2,204.3c-0.8-1.2-1.8-2.1-3.1-2.8c-1.3-0.6-2.7-1-4.1-1c-1.5,0-2.9,0.3-4.2,1c-1.3,0.6-2.3,1.6-3.1,2.8
				c-0.8,1.2-1.2,2.7-1.2,4.4c0,1.7,0.4,3.2,1.2,4.4s1.8,2.1,3.1,2.8c1.3,0.6,2.7,1,4.2,1c1.5,0,2.9-0.3,4.1-1
				c1.3-0.6,2.3-1.6,3.1-2.8c0.8-1.2,1.2-2.7,1.2-4.4C754.4,207,754,205.5,753.2,204.3z M750,213.1c-1.1,1.1-2.4,1.7-4,1.7
				c-1.6,0-3-0.6-4.1-1.7c-1.1-1.1-1.6-2.6-1.7-4.4c0-1.8,0.6-3.3,1.7-4.4c1.1-1.1,2.4-1.7,4.1-1.7c1.6,0,2.9,0.6,4,1.7
				c1.1,1.1,1.7,2.6,1.7,4.4C751.6,210.6,751,212,750,213.1z"/>
		</g>
	</g>
	<g>
		<polygon class="st5" points="105.9,273.3 115.6,273.3 115.6,296.1 126.2,296.1 126.2,273.3 135.9,273.3 135.9,265.4 105.9,265.4 
					"/>
		<polygon class="st5" points="160.4,276.1 150.5,276.1 150.5,265.4 139.8,265.4 139.8,296.1 150.5,296.1 150.5,284 160.4,284 
			160.4,296.1 171.1,296.1 171.1,265.4 160.4,265.4 		"/>
		<polygon class="st5" points="187.2,284.4 203.5,284.4 203.5,277.1 187.2,277.1 187.2,273.3 205.1,273.3 205.1,265.4 176.6,265.4 
			176.6,296.1 205.7,296.1 205.7,288.3 187.2,288.3 		"/>
		<rect x="226.7" y="265.4" class="st5" width="10.6" height="30.7"/>
		<polygon class="st5" points="263.9,281.9 263.8,281.9 253.7,265.4 242.8,265.4 242.8,296.1 252.9,296.1 252.9,279.4 253,279.4 
			263.6,296.1 273.9,296.1 273.9,265.4 263.9,265.4 		"/>
		<polygon class="st5" points="277.9,273.3 287.6,273.3 287.6,296.1 298.2,296.1 298.2,273.3 307.9,273.3 307.9,265.4 277.9,265.4 
					"/>
		<polygon class="st5" points="322.4,284.4 338.7,284.4 338.7,277.1 322.4,277.1 322.4,273.3 340.4,273.3 340.4,265.4 311.8,265.4 
			311.8,296.1 340.9,296.1 340.9,288.3 322.4,288.3 		"/>
		<path class="st5" d="M377.2,289.6c-0.2-1.9-0.7-3.6-1.6-4.9c-0.9-1.3-2-2.2-3.5-2.8c1.8-0.6,3.1-1.7,3.9-3.1
			c0.8-1.4,1.3-3,1.3-4.6c-0.1-2.9-1.2-5.1-3.4-6.6c-2.2-1.5-4.8-2.2-7.9-2.2h-20.3v30.7h10.6v-10.7h5.7c2,0.1,3.3,0.7,3.9,1.9
			c0.6,1.2,0.9,2.6,0.9,4.1c0.1,0.8,0.2,1.6,0.3,2.4c0.1,0.8,0.3,1.6,0.6,2.3h10.6c-0.5-0.8-0.8-1.8-0.9-3.2
			C377.4,291.5,377.3,290.4,377.2,289.6z M365.1,278.4c-1,0.4-2,0.5-3.1,0.5h-5.6v-6.1h5c2,0,3.4,0.3,4.2,0.8
			c0.8,0.5,1.1,1.3,1.1,2.3C366.6,277.1,366.1,278,365.1,278.4z"/>
		<path class="st5" d="M407.3,279.2c1.3-0.6,2.3-1.4,3.1-2.3c0.8-0.9,1.1-2.2,1.2-3.7c0.1-1.7-0.6-3.4-2.1-5
			c-1.5-1.7-4.5-2.5-8.9-2.7h-18.9v30.7h19.6c3.1,0,5.9-0.8,8.3-2.4c2.4-1.6,3.7-3.9,3.8-7c-0.1-2.2-0.7-4-1.8-5.2
			C410.3,280.4,408.9,279.6,407.3,279.2z M392.2,272.7h5.6c1.1,0,2,0.1,2.6,0.5c0.6,0.3,1,0.9,1,1.6c0,1-0.3,1.7-1,2
			c-0.6,0.4-1.5,0.5-2.7,0.5h-5.6V272.7z M401.4,288.2c-0.8,0.4-1.8,0.6-2.9,0.6h-6.2v-5.7h6.7c2.5,0,3.7,0.9,3.7,2.8
			C402.6,287.1,402.2,287.8,401.4,288.2z"/>
		<path class="st5" d="M427,265.4l-12.7,30.7h10.7l1.5-4.4h11l1.5,4.4h11l-12.6-30.7H427z M428.8,285.2l3.3-9.5h0.1l3.1,9.5H428.8z"
			/>
		<polygon class="st5" points="473.4,281.9 473.3,281.9 463.3,265.4 452.4,265.4 452.4,296.1 462.5,296.1 462.5,279.4 462.5,279.4 
			473.1,296.1 483.5,296.1 483.5,265.4 473.4,265.4 		"/>
		<polygon class="st5" points="522.7,265.4 509.6,265.4 500.1,276 500,276 500,265.4 489.4,265.4 489.4,296.1 500,296.1 500,287.1 
			503,284.2 511.5,296.1 524.7,296.1 510.2,277.4 		"/>
		<path class="st5" d="M562.9,287.7c-0.8,0.9-2.1,1.4-3.9,1.5c-2.5-0.1-4.2-1-5.2-2.7c-1-1.7-1.5-3.6-1.4-5.8c0-2.2,0.4-4.1,1.4-5.8
			c1-1.7,2.7-2.6,5.2-2.7c2.1,0.1,3.6,0.7,4.3,1.8c0.8,1.1,1.2,2,1.2,2.7h10.3c-0.5-3.9-2-6.9-4.6-9c-2.6-2.1-6.3-3.2-11-3.2
			c-5.4,0.1-9.6,1.5-12.7,4.4c-3.1,2.9-4.7,6.8-4.8,11.7c0,4.6,1.6,8.5,4.6,11.4c3,3,7.3,4.5,12.9,4.6c3.4,0,6.2-0.7,8.6-1.9
			c2.3-1.2,4.1-2.8,5.3-4.8c1.2-1.9,1.8-4,1.8-6.1h-10.4C564.3,285.6,563.8,286.8,562.9,287.7z"/>
		<path class="st5" d="M589.1,265.4l-12.7,30.7h10.7l1.5-4.4h11l1.5,4.4h11l-12.6-30.7H589.1z M591,285.2l3.3-9.5h0.1l3.1,9.5H591z"
			/>
		<path class="st5" d="M645.9,289.6c-0.2-1.9-0.7-3.6-1.6-4.9c-0.9-1.3-2-2.2-3.5-2.8c1.8-0.6,3.1-1.7,3.9-3.1
			c0.8-1.4,1.3-3,1.3-4.6c-0.1-2.9-1.2-5.1-3.4-6.6c-2.2-1.5-4.8-2.2-7.9-2.2h-20.3v30.7h10.6v-10.7h5.7c2,0.1,3.3,0.7,3.9,1.9
			c0.6,1.2,0.9,2.6,0.9,4.1c0.1,0.8,0.2,1.6,0.3,2.4c0.1,0.8,0.3,1.6,0.6,2.3h10.6c-0.5-0.8-0.8-1.8-0.9-3.2
			C646.1,291.5,646,290.4,645.9,289.6z M633.8,278.4c-1,0.4-2,0.5-3.1,0.5h-5.6v-6.1h5c2,0,3.4,0.3,4.2,0.8c0.8,0.5,1.1,1.3,1.1,2.3
			C635.3,277.1,634.8,278,633.8,278.4z"/>
		<path class="st5" d="M681.8,273.3c-1-2.3-2.7-4.2-5-5.6c-2.3-1.5-5.3-2.2-9.1-2.2h-17.5v30.7h15.4c6-0.1,10.4-1.4,13.3-4.1
			c2.9-2.7,4.3-6.5,4.3-11.2C683.3,278.1,682.9,275.6,681.8,273.3z M671.4,285.5c-1,1.7-3.1,2.6-6.3,2.7h-4.2l0-15h3.4
			c2.5,0.1,4.4,0.5,5.6,1.5c1.2,0.9,2,2,2.3,3.1c0.3,1.1,0.5,2.1,0.4,2.8C672.8,282.2,672.3,283.8,671.4,285.5z"/>
		<g>
			<path d="M691.3,290.2c0-0.9-0.3-1.5-0.8-1.8s-1.3-0.5-2.3-0.5h-2.8v7.4h1.8l0-3.1h0.5l1.7,3.1h1.7l-1.9-3.2
				c0.6,0,1.1-0.2,1.5-0.5C691.1,291.4,691.3,290.9,691.3,290.2z M689.3,290.8c-0.2,0.1-0.4,0.2-0.7,0.2h-1.3v-1.7h0.9
				c0.3,0,0.6,0,0.9,0.1s0.5,0.3,0.5,0.7C689.5,290.4,689.5,290.7,689.3,290.8z"/>
			<path d="M694.3,288c-0.7-1-1.5-1.8-2.6-2.3c-1.1-0.5-2.2-0.8-3.4-0.8c-1.2,0-2.4,0.3-3.5,0.8c-1.1,0.5-1.9,1.3-2.6,2.3
				c-0.7,1-1,2.2-1,3.7c0,1.4,0.4,2.7,1,3.7c0.7,1,1.5,1.8,2.6,2.3c1.1,0.5,2.2,0.8,3.5,0.8c1.2,0,2.4-0.3,3.4-0.8
				c1.1-0.5,1.9-1.3,2.6-2.3c0.7-1,1-2.2,1-3.7C695.3,290.2,694.9,289,694.3,288z M691.6,295.3c-0.9,0.9-2,1.4-3.3,1.4
				c-1.3,0-2.5-0.5-3.4-1.4c-0.9-0.9-1.4-2.1-1.4-3.6c0-1.5,0.5-2.7,1.4-3.6c0.9-0.9,2-1.4,3.4-1.4c1.3,0,2.4,0.5,3.3,1.4
				c0.9,0.9,1.4,2.1,1.4,3.6C693,293.2,692.5,294.4,691.6,295.3z"/>
		</g>
	</g>
</g>
</svg>
