<?xml version="1.0" encoding="utf-8"?>
<!-- Generator: Adobe Illustrator 23.0.3, SVG Export Plug-In . SVG Version: 6.00 Build 0)  -->
<svg version="1.1"
	 id="svg2" inkscape:version="0.48.5 r10040" sodipodi:docname="mastercard1979.svg" xmlns:cc="http://creativecommons.org/ns#" xmlns:dc="http://purl.org/dc/elements/1.1/" xmlns:inkscape="http://www.inkscape.org/namespaces/inkscape" xmlns:rdf="http://www.w3.org/1999/02/22-rdf-syntax-ns#" xmlns:sodipodi="http://sodipodi.sourceforge.net/DTD/sodipodi-0.dtd" xmlns:svg="http://www.w3.org/2000/svg"
	 xmlns="http://www.w3.org/2000/svg" xmlns:xlink="http://www.w3.org/1999/xlink" x="0px" y="0px" viewBox="0 0 726 428.8"
	 style="enable-background:new 0 0 726 428.8;" xml:space="preserve">
<style type="text/css">
	.st0{fill:#FC1010;}
	.st1{fill:#CF7914;}
	.st2{fill:#AA0805;}
	.st3{fill:#FFFFFF;}
</style>
<g>
	<g>
		<ellipse class="st0" cx="212.2" cy="214.4" rx="212.2" ry="214.4"/>
		<ellipse class="st1" cx="512.7" cy="214.4" rx="213.3" ry="214.4"/>
		<path class="st2" d="M299.5,214.4c0,59.3,23.9,113,62.6,151.8c38.5-38.8,62.3-92.5,62.3-151.8s-23.8-113-62.3-151.8
			C323.4,101.4,299.5,155.1,299.5,214.4z"/>
	</g>
	<g>
		<g>
			<path class="st3" d="M86.8,172.8c-2.1,6.4-4.4,12.9-6.4,19.4c-2.4,7.7-4.8,15.3-6.9,22.8c-2.4-7.7-4.8-15.4-7.3-23.2
				c-3.6-11.1-7.3-22.2-11.2-33.3H24.4v0v89.1h20.8v-35.1c-0.1-8.2-0.4-16.3-0.5-24.4c1.9,6.1,3.9,12.2,5.7,18.1
				c1.5,4.7,3,9,4.4,13.3l9.6,28.2h16.7c1.9-5.6,3.9-11.2,5.8-16.8c2.3-6.6,4.6-13.3,6.8-19.8c2.6-7.8,5-15.7,7.5-23.5
				c-0.3,8-0.5,16-0.5,24.1v36h21.7v-89.1H91.5C90,163.2,88.5,168,86.8,172.8z"/>
			<path class="st3" d="M178.2,183.6c-2.8-1.9-8.2-5.6-17.2-5.6c-10.4,0-19.9,5-26.2,13.1c-6.8,9.1-7.6,18.3-7.6,22.3
				c0,14.6,8.2,23.7,12.2,27.3c8.1,7.3,16.1,8.2,20.4,8.2c10.3,0,15.8-4.4,19.2-6.8v5.4h20.2v-68.2h-21V183.6z M163.7,229.1
				c-4.1,0-8.2-1.8-11.1-4.5v0c-3.1-2.9-4.8-6.8-4.8-10.9c0-8.5,7.1-15.5,15.7-15.5c8.7,0,15.7,6.9,15.8,15.4
				C179.3,222.1,172.4,229,163.7,229.1z"/>
			<path class="st3" d="M250.9,211.3c-4.6-3.4-9-4.4-14.4-5.7c-4.1-1.1-6.8-1.9-8.4-2.9c-1.4-1-2.3-2.5-2.3-4.4c0-2.8,2.1-5.2,5-5.2
				c0.9,0,1.9,0.3,2.7,0.8c2.2,1.3,2.6,3.3,2.8,5.7h19.9c-0.1-1-0.1-3.7-1.2-6.6c-1.9-5.8-8.2-14.8-23.8-14.8
				c-9.6,0-19.7,4.2-24.3,13c-1,1.8-2.3,4.8-2.3,9.7c0,2.5,0.3,8.5,5.4,13.5c2.8,2.7,6.4,4.7,14.4,6.7c5.5,1.4,8.6,1.8,10.5,4
				c0.9,1.3,1.2,2.7,1.2,3.3c0,1.5-1.2,5.3-5.8,5.4c-0.5,0-1.9-0.1-3.2-0.9c-3-1.5-3.1-4.8-3.3-5.8h-21.1c0.3,1.5,0.5,5.2,2.6,9
				c1.3,2.5,3.3,4.8,5.5,6.6c3.3,2.8,9.3,6.4,19.5,6.4c12.1,0,19-5.2,22.2-8.7c5.3-5.6,5.7-11.1,5.7-14.3
				C258.3,220,256.1,214.9,250.9,211.3z"/>
			<polygon class="st3" points="285.1,158.5 264.2,158.5 264.2,179.2 256.5,179.2 256.5,195.1 263.9,195.1 263.9,247.6 285,247.6 
				285,195.2 294,195.2 294,179.3 285.1,179.3 			"/>
			<path class="st3" d="M353.9,186.7c-9-7.6-19-8.5-23.1-8.5c-10.7,0-21.1,4.8-27.9,12.9c-7.5,8.8-8.4,18.3-8.4,22.6
				c0,10.5,5,20.8,13.1,27.4c9.1,7.3,19,8.1,23.4,8.1c13.4,0,21.2-6.4,24.8-10c5.3-5,7.1-9.5,8.4-12.4h-21.5
				c-1.3,1.3-1.8,1.6-2.7,2.1c-2.4,1.6-5.9,2.4-9,2.4c-5.5,0-10.8-2.3-14.1-6.7c-1.2-1.5-2.3-3.9-2.4-4.2h51.8h0
				c0.3-2.4,0.5-4.7,0.5-7.1C366.8,203.2,361.8,193.1,353.9,186.7z M315.5,205.6c0.6-1.3,1.3-2.4,2.3-3.4c0.3-0.4,1.5-1.8,3.1-2.7
				c3.1-2.1,6.3-3.2,10-3.2c9.9,0,13.9,6.2,15.6,9.2H315.5z"/>
			<path class="st3" d="M392.4,184.9c-1.7,1.6-3.2,3.7-3.6,4.2v-9.5h-19.5v68h21v-38c0.1-3.4,0.5-4.8,1.5-6.3c3.2-4.8,11.4-5,12.1-5
				c1.7-0.1,3,0.1,4.4,0.3v-19.2C405.5,179.3,398.6,178.8,392.4,184.9z"/>
			<path class="st3" d="M474.1,218.2c-3.5,4-8.5,6.3-9.9,6.8c-1.5,0.5-4.1,1.3-7.8,1.3c-14,0-20.4-10.4-22.2-14.5
				c-0.6-1.5-1.7-4.4-1.8-8.7c0-9.3,5.4-17.8,14.3-21.5c1.7-0.8,5-2,9.8-2c7.3,0,13.9,3.2,18.3,8.8c0.8,1.1,1.5,2.1,2.2,3.4H502
				c-1.5-5.2-4.8-15.7-15.9-24.6c-12-9.6-24-10.6-30-10.6c-11.6,0-19.9,3.9-23.7,6.1c-7.3,4.3-23.5,16.8-23.5,41
				c0,12.8,4.9,21,7.8,25.1c4.6,6.6,16.8,20.5,39.9,20.5c5.3,0,9.4-0.8,11.3-1.3c6.4-1.5,21-7.1,29.7-23c1.4-2.7,2.6-5.2,4.5-11H477
				C475.6,216.3,475,217.1,474.1,218.2z"/>
			<path class="st3" d="M554.1,183.6c-2.8-1.9-8.2-5.6-17.2-5.6c-10.4,0-19.9,5-26.2,13.1c-6.8,9.1-7.6,18.3-7.6,22.3
				c0,14.6,8.2,23.7,12.2,27.3c8.1,7.3,16.1,8.2,20.4,8.2c10.3,0,15.8-4.4,19.2-6.8v5.4H575v-68.2h-21V183.6z M539.6,229.1
				c-4.1,0-8.2-1.8-11.1-4.5v0c-3.1-2.9-4.8-6.8-4.8-10.9c0-8.5,7.1-15.5,15.7-15.5c8.7,0,15.7,6.9,15.8,15.4
				C555.2,222.1,548.3,229,539.6,229.1z"/>
			<path class="st3" d="M621.5,179.3c-2.7,0-9.6-0.5-15.8,5.6c-1.7,1.6-3.2,3.7-3.6,4.2v-9.5h-19.5v68h21v-38
				c0.1-3.4,0.5-4.8,1.5-6.3c3.2-4.8,11.4-5,12.1-5c1.7-0.1,3,0.1,4.4,0.3V179.3z"/>
			<path class="st3" d="M672.4,158.5v25.2c-3-1.9-8.2-5.6-17.2-5.6c-10.4,0-20.1,5-26.2,13.1c-6.9,9-7.6,18.3-7.6,22.3
				c0,14.6,8.2,23.7,12.1,27.3c8.1,7.3,16.1,8.2,20.6,8.2c10.2,0,15.8-4.4,19-6.8l0.1,5.3h20.1v-89.1H672.4z M657.8,229.1
				c-4.1,0-8.2-1.8-11.1-4.4h0c-3-3-4.6-6.9-4.6-11c0-8.5,6.9-15.4,15.7-15.4c8.6-0.1,15.7,6.8,15.7,15.4
				C673.4,222.1,666.5,229.1,657.8,229.1z"/>
		</g>
		<g>
			<polygon class="st3" points="706.2,241.1 704.4,245.5 702.5,241.1 700.3,241.1 700.3,247.6 702,247.6 702,243.7 703.7,247.6 
				705,247.6 706.6,243.7 706.6,247.6 708.3,247.6 708.3,241.1 			"/>
			<polygon class="st3" points="695,242.6 696.3,242.6 696.3,247.6 698,247.6 698,242.6 699.4,242.6 699.4,241.1 695,241.1 			"/>
		</g>
	</g>
</g>
</svg>
