<?xml version="1.0" encoding="UTF-8" standalone="no"?>
<!-- Creator: CorelDRAW -->

<svg
   xmlns:dc="http://purl.org/dc/elements/1.1/"
   xmlns:cc="http://creativecommons.org/ns#"
   xmlns:rdf="http://www.w3.org/1999/02/22-rdf-syntax-ns#"
   xmlns:svg="http://www.w3.org/2000/svg"
   xmlns="http://www.w3.org/2000/svg"
   xmlns:sodipodi="http://sodipodi.sourceforge.net/DTD/sodipodi-0.dtd"
   xmlns:inkscape="http://www.inkscape.org/namespaces/inkscape"
   xml:space="preserve"
   width="48.157501mm"
   height="41.194698mm"
   style="clip-rule:evenodd;fill-rule:evenodd;image-rendering:optimizeQuality;shape-rendering:geometricPrecision;text-rendering:geometricPrecision"
   viewBox="0 0 48.157501 41.194698"
   id="svg2"
   version="1.1"
   inkscape:version="0.91 r13725"
   sodipodi:docname="mcdonalds.svg"><metadata
     id="metadata24"><rdf:RDF><cc:Work
         rdf:about=""><dc:format>image/svg+xml</dc:format><dc:type
           rdf:resource="http://purl.org/dc/dcmitype/StillImage" /><dc:title></dc:title></cc:Work></rdf:RDF></metadata><sodipodi:namedview
     pagecolor="#ffffff"
     bordercolor="#666666"
     borderopacity="1"
     objecttolerance="10"
     gridtolerance="10"
     guidetolerance="10"
     inkscape:pageopacity="0"
     inkscape:pageshadow="2"
     inkscape:window-width="1366"
     inkscape:window-height="705"
     id="namedview22"
     showgrid="false"
     fit-margin-top="0"
     fit-margin-left="0"
     fit-margin-right="0"
     fit-margin-bottom="0"
     inkscape:zoom="1.2685914"
     inkscape:cx="126.62811"
     inkscape:cy="70.580236"
     inkscape:window-x="-8"
     inkscape:window-y="-8"
     inkscape:window-maximized="1"
     inkscape:current-layer="svg2" /><defs
     id="defs4"><style
       type="text/css"
       id="style6"><![CDATA[
    .fil0 {fill:#F1BB00}
   ]]></style></defs><g
     id="Layer_x0020_1"
     transform="translate(-8.1375,-235.2459)"><metadata
       id="CorelCorpID_0Corel-Layer" /><path
       class="fil0"
       d="m 56.2714,275.231 c -0.2121,-10.3114 -1.8729,-20.2351 -4.6786,-27.943 -2.8287,-7.7655 -6.3583,-12.0421 -9.9377,-12.0421 -2.2234,0 -4.3129,1.6184 -6.2113,4.8121 -1.1765,1.9812 -2.2719,4.5816 -3.2257,7.6433 -0.9552,-3.0617 -2.0496,-5.6621 -3.228,-7.6433 -1.897,-3.1937 -3.9864,-4.8121 -6.2107,-4.8121 -3.5815,0 -7.1108,4.2766 -9.9367,12.0421 -2.8064,7.7079 -4.4672,17.6316 -4.6792,27.9416 l -0.026,1.211 7.1867,0 0.0144,-1.1688 c 0.2789,-21.5416 5.409,-35.2052 7.4996,-35.2052 1.4088,0 5.0064,9.4618 5.5528,32.8851 l 0.0279,1.1545 7.5975,0 0.0274,-1.1545 c 0.5444,-23.4233 4.1433,-32.8851 5.552,-32.8851 2.0909,0 7.2202,13.6636 7.4988,35.2052 l 0.0158,1.1688 7.1846,0 -0.0236,-1.2096 z"
       id="path10"
       inkscape:connector-curvature="0"
       style="fill:#f1bb00" /><path
       class="fil0"
       d="m 55.7271,275.244 c -0.2098,-10.2527 -1.8614,-20.111 -4.6462,-27.761 -2.7,-7.4236 -6.1361,-11.6811 -9.4258,-11.6811 -3.5995,0 -6.9901,5.0017 -9.437,13.8189 -2.4478,-8.8172 -5.8386,-13.8189 -9.4387,-13.8189 -3.2884,0 -6.7249,4.2575 -9.4271,11.6811 -2.7848,7.65 -4.4339,17.5083 -4.6453,27.761 l -0.013,0.6387 6.0933,0 0.0074,-0.6183 c 0.2829,-21.831 5.4412,-35.7544 8.0435,-35.7544 2.2298,0 5.589,11.6163 6.097,33.4273 l 0.0161,0.6124 6.5334,0 0.0133,-0.6124 c 0.5087,-21.811 3.8693,-33.4273 6.0978,-33.4273 2.6033,0 7.7618,13.9234 8.0432,35.7544 l 0.0088,0.6183 6.0926,0 -0.0133,-0.6387 z"
       id="path12"
       inkscape:connector-curvature="0"
       style="fill:#f1bb00" /><path
       class="fil0"
       d="m 22.7115,237.66 0,1.2317 c -3.553,0.3718 -8.2696,16.2629 -8.5286,36.365 l -2.4179,-2.4735 0,-0.0625 c 0.7687,-19.7095 6.1408,-34.9031 10.9465,-35.0607 z"
       id="path14"
       inkscape:connector-curvature="0"
       style="fill:#f1bb00" /><path
       class="fil0"
       d="m 22.5872,236.438 0.4132,0 c 3.5627,0.2405 6.9543,6.2783 9.2117,15.606 l 0,18.0259 c -0.8789,-18.6188 -4.7961,-32.4133 -9.4253,-32.4133 -0.9556,0 -1.9343,0.6009 -2.8962,1.7145 l 0,-1.7386 c 0.8994,-0.7329 1.8056,-1.1424 2.6966,-1.1945 z"
       id="path16"
       inkscape:connector-curvature="0"
       style="fill:#f1bb00" /><path
       class="fil0"
       d="m 43.2723,238.209 0,1.727 c -0.5742,-0.6867 -1.1395,-1.053 -1.6765,-1.053 -3.4302,0 -6.263,14.82 -6.7095,34.041 l -2.6661,-2.7286 0,-0.043 c 0.8704,-18.6606 4.7916,-32.4959 9.4283,-32.4959 0.5363,0 1.0798,0.1898 1.6238,0.5525 z"
       id="path18"
       inkscape:connector-curvature="0"
       style="fill:#f1bb00" /><path
       class="fil0"
       d="m 55.1063,274.966 0,0.2831 -2.4224,-2.4786 -0.0111,0.0101 c -0.7055,-18.2946 -5.3781,-32.713 -9.887,-34.8501 l 0,-1.3102 c 5.7736,1.9167 11.8509,18.1024 12.3205,38.3457 z"
       id="path20"
       inkscape:connector-curvature="0"
       style="fill:#f1bb00" /></g></svg>