<?xml version="1.0" encoding="UTF-8" standalone="no"?>
<!-- Created with Inkscape (http://www.inkscape.org/) -->

<svg
   xmlns:dc="http://purl.org/dc/elements/1.1/"
   xmlns:cc="http://creativecommons.org/ns#"
   xmlns:rdf="http://www.w3.org/1999/02/22-rdf-syntax-ns#"
   xmlns:svg="http://www.w3.org/2000/svg"
   xmlns="http://www.w3.org/2000/svg"
   xmlns:sodipodi="http://sodipodi.sourceforge.net/DTD/sodipodi-0.dtd"
   xmlns:inkscape="http://www.inkscape.org/namespaces/inkscape"
   version="1.1"
   width="450"
   height="450"
   id="svg2"
   xml:space="preserve"
   inkscape:version="0.92.2 (5c3e80d, 2017-08-06)"
   sodipodi:docname="McDonald's_(pre-2003).svg"><metadata
     id="metadata21"><rdf:RDF><cc:Work
         rdf:about=""><dc:format>image/svg+xml</dc:format><dc:type
           rdf:resource="http://purl.org/dc/dcmitype/StillImage" /><dc:title /></cc:Work></rdf:RDF></metadata><sodipodi:namedview
     pagecolor="#ffffff"
     bordercolor="#666666"
     borderopacity="1"
     objecttolerance="10"
     gridtolerance="10"
     guidetolerance="10"
     inkscape:pageopacity="0"
     inkscape:pageshadow="2"
     inkscape:window-width="1600"
     inkscape:window-height="837"
     id="namedview19"
     showgrid="false"
     inkscape:zoom="1.3842203"
     inkscape:cx="263.52314"
     inkscape:cy="235.37675"
     inkscape:window-x="-8"
     inkscape:window-y="-8"
     inkscape:window-maximized="1"
     inkscape:current-layer="svg2"
     fit-margin-top="0"
     fit-margin-left="0"
     fit-margin-right="0"
     fit-margin-bottom="0" /><defs
     id="defs6" /><g
     id="g825"><g
       id="g12"
       transform="matrix(1.25,0,0,-1.25,-54.676497,491.43416)"><path
         inkscape:connector-curvature="0"
         style="fill:#d52b1e;fill-opacity:1;fill-rule:evenodd;stroke:none;stroke-width:1.14878261"
         id="path18"
         d="m 61.925318,393.14733 c -10.043443,0 -18.18412,-10.74546 -18.18412,-23.99683 V 57.147134 c 0,-13.254348 8.140677,-23.999802 18.18412,-23.999802 H 385.55563 c 10.04323,0 18.18557,10.745454 18.18557,23.999802 V 369.1505 c 0,13.25137 -8.14234,23.99683 -18.18557,23.99683 H 61.925318" /><path
         inkscape:connector-curvature="0"
         style="fill:#fdc82f;fill-opacity:1;fill-rule:evenodd;stroke:none"
         id="path20"
         d="m 223.37215,232.35338 c 4.89851,36.22162 21.04635,101.55081 51.84302,101.55081 35.95328,0 78.19715,-120.77081 78.18691,-220.75686 H 320.2469 c 0,104.87022 -25.68677,199.36146 -44.16936,199.36556 -19.28002,0.002 -36.17675,-64.27427 -36.17675,-186.73439 h -33.11033 c 0,122.46012 -16.79431,186.73439 -36.17717,186.73439 -18.44899,0 -44.11711,-94.51296 -44.11711,-199.36556 H 93.3412 c 0.0311,100.07249 42.16787,220.76915 78.18588,220.75686 30.75386,-0.0102 46.90723,-65.321 51.84507,-101.55081" /></g><path
       class="fil0"
       d="m 400.95456,339.34038 h 1.89459 c 1.58991,0 3.04759,-0.0771 3.04759,-1.92888 0,-1.55472 -1.3233,-1.78956 -2.5541,-1.78956 h -2.38808 z m -1.80932,-5.188 h 4.49894 c 2.76238,0 4.062,1.09527 4.062,3.33604 0,2.11845 -1.32762,2.99876 -3.04798,3.18323 l 3.31473,5.1625 H 406.032 l -3.15942,-5.02305 h -1.91802 v 5.02305 h -1.80932 z m 3.88551,14.382 c 4.59065,0 8.15981,-3.68798 8.15981,-8.57664 0,-4.79525 -3.56942,-8.48296 -8.16009,-8.48296 -4.65657,0 -8.21017,3.68771 -8.21017,8.48296 0,4.88866 3.5536,8.57664 8.21045,8.57664 z m 0,-18.5302 c 5.424,0 9.96925,4.3022 9.96925,9.95356 C 413,345.69507 408.45475,350 403.03047,350 397.57875,350 393,345.69507 393,339.95774 c 0,-5.65136 4.57875,-9.95356 10.03075,-9.95356 z"
       id="path32"
       inkscape:connector-curvature="0"
       style="clip-rule:evenodd;fill:#fdc82f;fill-opacity:1;fill-rule:evenodd;stroke-width:2.79963231;image-rendering:optimizeQuality;shape-rendering:geometricPrecision;text-rendering:geometricPrecision" /></g></svg>