<?xml version="1.0" encoding="UTF-8" standalone="no"?>
<!-- Created with Inkscape (http://www.inkscape.org/) -->

<svg
   xmlns:dc="http://purl.org/dc/elements/1.1/"
   xmlns:cc="http://creativecommons.org/ns#"
   xmlns:rdf="http://www.w3.org/1999/02/22-rdf-syntax-ns#"
   xmlns:svg="http://www.w3.org/2000/svg"
   xmlns="http://www.w3.org/2000/svg"
   xmlns:sodipodi="http://sodipodi.sourceforge.net/DTD/sodipodi-0.dtd"
   xmlns:inkscape="http://www.inkscape.org/namespaces/inkscape"
   id="svg2985"
   version="1.1"
   inkscape:version="0.48.3.1 r9886"
   width="400"
   height="67.886635"
   sodipodi:docname="McDonalds1953.jpg">
  <metadata
     id="metadata2991">
    <rdf:RDF>
      <cc:Work
         rdf:about="">
        <dc:format>image/svg+xml</dc:format>
        <dc:type
           rdf:resource="http://purl.org/dc/dcmitype/StillImage" />
        <dc:title></dc:title>
      </cc:Work>
    </rdf:RDF>
  </metadata>
  <defs
     id="defs2989" />
  <sodipodi:namedview
     pagecolor="#ffffff"
     bordercolor="#666666"
     borderopacity="1"
     objecttolerance="10"
     gridtolerance="10"
     guidetolerance="10"
     inkscape:pageopacity="0"
     inkscape:pageshadow="2"
     inkscape:window-width="1366"
     inkscape:window-height="709"
     id="namedview2987"
     showgrid="false"
     fit-margin-top="0"
     fit-margin-left="0"
     fit-margin-right="0"
     fit-margin-bottom="0"
     inkscape:zoom="1.5389305"
     inkscape:cx="209.43842"
     inkscape:cy="20.035967"
     inkscape:window-x="-8"
     inkscape:window-y="-8"
     inkscape:window-maximized="1"
     inkscape:current-layer="svg2985" />
  <path
     style="fill:#da0b1e;fill-opacity:0.99607843;stroke:none"
     d="M 7.0052901,67.519672 C 2.5557861,67.347121 -1.3728826,57.472778 0.4619263,52.690442 6.5325591,36.309888 24.443219,9.9591265 33.404078,0.9254695 c 2.7444,-1.915945 7.014139,0.05597 8.300505,4.419228 1.086293,3.684632 -0.414928,9.3206805 -1.051699,15.1599325 0.337066,0.181922 0.274553,1.029811 1.272198,0.110769 L 59.349128,1.1011905 c 3.40827,-3.8213326 7.931602,3.097889 9.786849,8.601936 0.89993,3.2208015 0.477213,5.6134155 0.02093,7.8498775 -4.363872,16.564426 -12.435506,35.907952 -16.912739,46.315501 -1.141901,3.179182 -2.85385,4.624141 -5.785,3.781982 -3.594274,-1.032685 -7.427666,-4.3142 -6.496769,-7.472195 l 6.032721,-19.20839 c 0.07442,-0.797374 -0.628927,-1.075717 -1.122879,-0.357162 -5.969164,7.584349 -12.453519,21.364394 -16.899518,21.012003 -2.52347,0.268357 -6.723644,-0.66204 -6.12849,-6.081331 l 1.994641,-16.913631 c 0.06483,-0.930739 -0.78099,-0.668119 -0.893076,-0.313132 -1.878461,3.633207 -6.770191,14.559473 -10.611396,21.953273 -1.146886,2.2076 -2.059438,4.314565 -2.8751599,5.649757 -0.837671,1.371119 -1.671598,1.742366 -2.453947,1.599993 z"
     id="path2995"
     inkscape:connector-curvature="0"
     sodipodi:nodetypes="cccsccccccscccccccssc" />
  <path
     style="fill:#da0b1e;fill-opacity:0.99607843;stroke:none"
     d="m 93.201092,35.208549 c -4.886003,8.717513 -12.032778,9.86091 -15.611931,9.888595 -3.663362,-0.05186 -8.909383,-1.88431 -8.895242,-9.170352 0.32814,-12.173205 12.434325,-22.63982 23.384403,-25.218466 6.09764,-1.7540875 10.772788,0.06008 11.096118,5.043694 -0.50529,6.673603 -7.380618,7.203666 -12.652661,6.611813 -0.418693,-0.06027 -0.806915,-0.09308 -1.286279,-0.100868 -4.713201,0.0073 -12.254154,6.655902 -12.104857,11.187829 0.871626,4.304625 7.393838,0.0637 12.167436,-3.750717 3.541163,-2.289779 6.227763,0.418015 3.903013,5.508472 z"
     id="path3765"
     inkscape:connector-curvature="0"
     sodipodi:nodetypes="cccccccccc" />
  <path
     style="fill:#da0b1e;fill-opacity:0.99607843;stroke:none"
     d="m 138.34615,0.4926265 c -6.45971,0.084901 -13.06408,0.67494 -17.05992,0.96898 -2.11778,0.156443 -3.25072,0.404287 -3.43547,2.172863 -0.48982,4.3126 -0.007,9.0071635 -2.9363,15.9441185 L 103.8446,44.566516 c -0.21999,1.45055 -0.9814,2.612035 -0.29363,5.197254 1.06778,4.457858 4.46975,12.386584 12.74355,13.007817 15.39536,0.325339 34.38411,-16.986577 41.54867,-32.622313 3.43464,-6.324421 5.17247,-18.833397 0.85153,-24.4593935 -2.87271,-4.429258 -11.55958,-5.3127695 -20.34857,-5.197254 z m 1.43878,13.0371795 c 1.64848,0.01707 3.08718,0.186849 3.72911,0.381719 5.45834,1.664301 3.87633,9.033475 2.29031,12.215016 -5.01971,12.584659 -23.27288,27.650164 -26.86716,23.930859 -2.1293,-4.177177 4.09809,-12.668122 8.51528,-20.642201 3.73263,-6.100043 4.11539,-11.249066 5.43215,-13.741893 0.86995,-1.71971 4.15287,-2.171947 6.90031,-2.1435 z"
     id="path3767"
     inkscape:connector-curvature="0" />
  <path
     style="fill:#da0b1e;fill-opacity:0.99607843;stroke:none"
     d="m 179.36628,20.547567 c -4.91493,-0.06864 -10.03819,3.310922 -13.47762,6.900309 -3.96854,4.276849 -7.473,8.629205 -10.45324,15.444948 -2.32494,5.44839 -2.34462,12.980489 3.28866,16.707557 6.03387,3.611941 12.21416,0.681606 16.06157,-2.290316 8.15522,-6.895616 12.50805,-15.489993 13.85935,-21.640544 0.98211,-5.158209 0.63427,-10.207612 -4.49255,-13.771255 -1.52235,-0.912803 -3.14786,-1.327818 -4.78617,-1.350699 z m -1.20388,9.513618 c 0.95691,0.331228 2.20142,1.669487 1.04914,4.465821 -2.10024,4.917171 -4.65396,9.054668 -7.36738,13.102331 -1.12648,1.956247 -3.51523,4.101132 -5.80869,2.98596 -1.77786,-1.085231 -0.63404,-3.986938 -0.14681,-5.109165 1.7838,-4.108935 5.10263,-9.259546 7.39948,-12.596734 1.39724,-2.169959 3.16907,-3.361852 4.87426,-2.848213 z"
     id="path3772"
     inkscape:connector-curvature="0"
     sodipodi:nodetypes="sccccccsccccccc" />
  <path
     style="fill:#da0b1e;fill-opacity:0.99607843;stroke:none"
     d="m 195.25413,56.064537 c -1.76078,2.654241 -3.76258,4.786972 -7.48691,2.17362 -2.45666,-2.088962 -1.69253,-5.466075 -0.36244,-7.849183 l 13.76626,-26.204192 c 1.10074,-2.135938 2.7162,-3.855543 6.8833,-1.932106 4.84599,1.530566 9.75354,-2.359365 15.15063,-0.504526 4.51088,1.886963 5.91145,6.973948 3.98498,12.110024 -3.46497,7.766168 -8.31734,16.235027 -13.28227,24.990823 -1.28838,1.95362 -2.26279,3.214064 -4.55425,2.737272 -1.3587,-0.304647 -3.43783,-1.212061 -4.43877,-2.382059 -1.68523,-2.433537 -0.73292,-4.503931 -0.12076,-5.917076 l 8.81524,-17.751227 c 0.50682,-1.910112 -0.54534,-3.022314 -1.64682,-3.24506 -2.04816,-0.414186 -3.58952,0.702987 -4.51177,2.158251 -3.71296,6.147623 -8.13095,14.410293 -12.19642,21.615439 z"
     id="path3777"
     inkscape:connector-curvature="0"
     sodipodi:nodetypes="ccccccccccccscc" />
  <path
     style="fill:#da0b1e;fill-opacity:0.99607843;stroke:none"
     d="m 254.94669,20.753108 c -7.16135,-0.08965 -18.62163,3.63247 -18.11698,9.366803 0.11691,1.328387 0.89445,2.498854 2.99503,2.466493 5.34409,-0.180036 9.706,-3.371329 13.38953,-2.936301 1.29359,0.517436 1.86021,0.990591 1.9086,2.525219 -0.14685,0.891661 -0.0826,1.692603 -1.46815,2.260953 -11.73596,2.102914 -25.1528,5.377925 -31.56525,17.500358 -1.15916,2.043787 -3.03673,9.728373 6.40114,11.334125 5.49836,0.830805 10.63747,-1.572068 15.65049,-5.109165 1.72943,-0.580243 3.23237,2.440154 5.78451,2.81885 1.64121,0.243528 4.54351,0.18407 6.66541,-4.37509 3.74952,-8.157356 7.95407,-16.239888 11.24603,-24.488757 1.72908,-6.565083 -3.69173,-10.528138 -11.5103,-11.304762 -0.43446,-0.04041 -0.90264,-0.05275 -1.38006,-0.05873 z m -8.66209,22.403983 c 2.20053,0.06104 3.67168,2.405662 0.7928,4.287 -2.55337,1.48768 -8.31387,4.849912 -11.36349,5.226618 -2.79233,0.167744 -2.80143,-2.196315 -1.43878,-3.229932 1.71954,-1.759309 6.93418,-3.946111 10.42387,-5.93133 0.54244,-0.263599 1.07778,-0.366442 1.5856,-0.352356 z"
     id="path3779"
     inkscape:connector-curvature="0"
     sodipodi:nodetypes="sscccccccscccssccccs" />
  <path
     style="fill:#da0b1e;fill-opacity:0.99607843;stroke:none"
     d="m 276.60061,57.146153 c -1.47272,3.089726 -3.30742,5.62005 -9.06908,2.081429 -3.32039,-2.477892 -2.09131,-4.955784 -1.18939,-7.433676 7.11065,-15.455172 13.04038,-30.024658 21.55766,-46.5348065 3.20037,-6.3501934 5.95362,-5.3975814 8.02837,-4.4602056 4.05624,2.5439076 3.30481,7.0405736 2.08143,11.0018391 -6.71936,15.532107 -9.53046,20.274319 -21.40899,45.34542 z"
     id="path3785"
     inkscape:connector-curvature="0"
     sodipodi:nodetypes="ccccccc" />
  <path
     style="fill:#da0b1e;fill-opacity:0.99607843;stroke:none"
     d="m 333.75703,10.857771 c -0.86638,0.033 -1.77915,0.369324 -2.7014,1.115795 -4.05314,4.303516 -3.39464,10.630188 -12.33247,12.772913 -9.60353,2.722137 -27.66916,4.710817 -32.85721,22.433345 -0.84916,3.872245 -1.18177,13.335991 7.13521,14.123612 4.92286,-0.399965 4.02561,0.453613 13.54446,-6.164275 0.86407,-0.552192 2.1734,-0.90702 3.02439,-0.440445 2.28946,1.328966 1.41366,7.986027 9.1937,7.221343 3.77947,-0.51269 5.82784,-6.635943 7.33153,-10.864316 4.85185,-14.641431 16.1881,-27.431915 12.82968,-35.822882 -0.43234,-1.915938 -2.56874,-4.474073 -5.16789,-4.37509 z m -17.9408,23.519778 c 2.5363,0.05001 3.57004,2.937862 1.29197,4.815534 -3.22317,2.619416 -12.04085,6.934269 -17.471,7.986741 -3.6076,0.163728 -3.27117,-3.152503 -2.02605,-4.404452 3.06129,-2.687402 11.32406,-6.608276 17.03056,-8.251008 0.41812,-0.120679 0.81219,-0.153959 1.17452,-0.146815 z"
     id="path3787"
     inkscape:connector-curvature="0"
     sodipodi:nodetypes="scccccccccssccccs" />
  <path
     style="fill:#da0b1e;fill-opacity:0.99607843;stroke:none"
     d="m 358.58826,18.23565 c 3.89564,-2.64522 6.50296,-5.222596 7.6288,-9.1545605 4.72036,-11.3523432 -14.38537,-8.5247218 -17.06078,-0.138706 -0.402,1.5607795 -0.0738,3.0417205 1.54908,4.3550965 0.97881,0.580315 1.03773,0.805931 1.2993,1.853788 l 0.20315,2.945677 c 0.82376,3.030705 3.01515,2.097251 6.38045,0.138705 z"
     id="path3792"
     inkscape:connector-curvature="0"
     sodipodi:nodetypes="ccccccc" />
  <path
     style="fill:#da0b1e;fill-opacity:0.99607843;stroke:none"
     d="m 371.50529,41.060864 c 1.23817,0.722132 3.07489,2.483526 3.43459,4.950898 0.23524,1.613662 -0.16127,3.460315 -1.77013,5.244398 -3.29906,3.656816 -13.07458,7.781344 -19.00516,8.373969 -10.94394,1.093595 -16.96206,-1.303946 -19.96203,-3.916622 -3.01247,-2.40271 -1.45588,-6.790371 1.91542,-7.517473 1.52131,-0.742137 14.15545,0.59114 21.36064,0 1.36537,-0.293578 1.94253,-0.9163 2.21929,-1.664466 0.35134,-1.144277 -0.61726,-2.201379 -1.66417,-2.667408 -2.94156,-2.039453 -13.21404,-2.694471 -11.30459,-9.885527 1.55289,-4.547004 10.05357,-9.425122 15.84764,-11.4773 8.17288,-2.881392 14.58674,-3.296285 19.31399,-2.601217 4.39258,1.225089 4.0486,4.524653 3.19023,7.628801 -5.16926,12.671216 -12.09669,9.705984 -13.31573,8.183624 -2.25199,-1.961916 -1.08756,-6.864147 -6.38046,-4.854692 -1.5409,0.834373 -3.8733,3.176511 -1.38705,5.132102 z"
     id="path3794"
     inkscape:connector-curvature="0"
     sodipodi:nodetypes="cscsccccccccccccc" />
  <path
     style="font-size:40px;font-style:normal;font-variant:normal;font-weight:bold;font-stretch:normal;text-align:center;line-height:125%;letter-spacing:-1.73000002px;word-spacing:0px;text-anchor:middle;fill:#da0b1e;fill-opacity:0.99607843;stroke:none;font-family:Futura Std Condensed;-inkscape-font-specification:Futura Std Condensed"
     d="m 394.30357,15.056683 c -1.62563,0.0391 -2.97542,0.589162 -4.05209,1.644329 -1.07669,1.055185 -1.6331,2.391072 -1.6737,3.99337 0.0406,1.617458 0.59701,2.956048 1.6737,4.022734 1.07667,1.066689 2.42646,1.634005 4.05209,1.673692 1.61806,-0.03969 2.9518,-0.607003 4.02274,-1.673692 1.07092,-1.066687 1.63339,-2.405276 1.67369,-4.022734 -0.0402,-1.602298 -0.60277,-2.938185 -1.67369,-3.99337 -1.07094,-1.055167 -2.40468,-1.605237 -4.02274,-1.644329 z m 0,1.086431 c 1.29723,0.03303 2.37257,0.46127 3.22993,1.321336 0.85735,0.860085 1.28921,1.939067 1.32134,3.229932 -0.0321,1.305116 -0.46399,2.390436 -1.32134,3.259295 -0.85736,0.868864 -1.9327,1.340074 -3.22993,1.380062 -1.31753,-0.03999 -2.40164,-0.511198 -3.25929,-1.380062 -0.85766,-0.868859 -1.32011,-1.954179 -1.3507,-3.259295 0.0305,-1.290865 0.49304,-2.369846 1.3507,-3.229932 0.85765,-0.860066 1.94176,-1.288304 3.25929,-1.321336 z"
     id="path3821"
     inkscape:connector-curvature="0" />
  <path
     style="font-size:40px;font-style:normal;font-variant:normal;font-weight:bold;font-stretch:normal;text-align:center;line-height:125%;letter-spacing:-1.73000002px;word-spacing:0px;text-anchor:middle;fill:#da0b1e;fill-opacity:0.99607843;stroke:none;font-family:Futura Std Condensed;-inkscape-font-specification:Futura Std Condensed"
     d="m 391.95453,17.611265 0,6.166234 1.20388,0 0,-2.613308 1.20389,0 1.3507,2.613308 1.40942,0 -1.49751,-2.613308 c 0.54742,-0.03089 0.97509,-0.180508 1.26261,-0.440446 0.28747,-0.259925 0.43831,-0.649478 0.44044,-1.203883 0.004,-0.323849 -0.0383,-0.631835 -0.14681,-0.910254 -0.10847,-0.278405 -0.31522,-0.518995 -0.58726,-0.704712 -0.24056,-0.139955 -0.51982,-0.229723 -0.82217,-0.264268 -0.30234,-0.03453 -0.5819,-0.03481 -0.85152,-0.02936 l -2.96567,0 z m 1.20388,0.910254 1.49752,0 c 0.32203,-0.01666 0.62303,0.0048 0.93962,0.08809 0.31657,0.08332 0.50459,0.321488 0.52853,0.704712 -0.006,0.38324 -0.11184,0.63651 -0.32299,0.763439 -0.21117,0.126943 -0.50405,0.192846 -0.85153,0.176178 l -1.79115,0 0,-1.732418 z"
     id="path3817"
     inkscape:connector-curvature="0" />
</svg>
