<?xml version="1.0" encoding="UTF-8" standalone="no"?>
<!-- Created with Inkscape (http://www.inkscape.org/) -->

<svg
   xmlns:dc="http://purl.org/dc/elements/1.1/"
   xmlns:cc="http://creativecommons.org/ns#"
   xmlns:rdf="http://www.w3.org/1999/02/22-rdf-syntax-ns#"
   xmlns:svg="http://www.w3.org/2000/svg"
   xmlns="http://www.w3.org/2000/svg"
   xmlns:sodipodi="http://sodipodi.sourceforge.net/DTD/sodipodi-0.dtd"
   xmlns:inkscape="http://www.inkscape.org/namespaces/inkscape"
   id="svg2985"
   version="1.1"
   inkscape:version="0.48.3.1 r9886"
   width="400"
   height="266.42316"
   sodipodi:docname="McDonald's_1960_Logo_(Circle).svg">
  <metadata
     id="metadata2991">
    <rdf:RDF>
      <cc:Work
         rdf:about="">
        <dc:format>image/svg+xml</dc:format>
        <dc:type
           rdf:resource="http://purl.org/dc/dcmitype/StillImage" />
        <dc:title></dc:title>
      </cc:Work>
    </rdf:RDF>
  </metadata>
  <defs
     id="defs2989" />
  <sodipodi:namedview
     pagecolor="#ffffff"
     bordercolor="#666666"
     borderopacity="1"
     objecttolerance="10"
     gridtolerance="10"
     guidetolerance="10"
     inkscape:pageopacity="0"
     inkscape:pageshadow="2"
     inkscape:window-width="1366"
     inkscape:window-height="709"
     id="namedview2987"
     showgrid="false"
     showguides="true"
     inkscape:guide-bbox="true"
     inkscape:object-paths="false"
     inkscape:object-nodes="false"
     inkscape:snap-object-midpoints="false"
     fit-margin-top="0"
     fit-margin-left="0"
     fit-margin-right="0"
     fit-margin-bottom="0"
     inkscape:zoom="1.9893165"
     inkscape:cx="200"
     inkscape:cy="133.21158"
     inkscape:window-x="-8"
     inkscape:window-y="-8"
     inkscape:window-maximized="1"
     inkscape:current-layer="svg2985"
     inkscape:snap-page="false"
     inkscape:snap-nodes="true"
     inkscape:snap-smooth-nodes="false"
     inkscape:snap-midpoints="false"
     inkscape:snap-intersection-paths="false">
    <inkscape:grid
       type="xygrid"
       id="grid3006"
       empspacing="5"
       visible="true"
       enabled="true"
       snapvisiblegridlinesonly="true"
       originx="-48.1875px"
       originy="-128.92228px" />
  </sodipodi:namedview>
  <path
     style="font-size:medium;font-style:normal;font-variant:normal;font-weight:normal;font-stretch:normal;text-indent:0;text-align:start;text-decoration:none;line-height:normal;letter-spacing:normal;word-spacing:normal;text-transform:none;direction:ltr;block-progression:tb;writing-mode:lr-tb;text-anchor:start;baseline-shift:baseline;color:#000000;fill:#fd1502;fill-opacity:1;stroke:none;stroke-width:3.20000005;marker:none;visibility:visible;display:inline;overflow:visible;enable-background:accumulate;font-family:Sans;-inkscape-font-specification:Sans"
     d="M 146.46986,0 C 130.17628,0 115.21993,12.875495 101.65392,32.4382 88.54163,51.346632 76.50065,77.019806 66.227992,105.63756 L 7.967277,95.038236 0,93.544376 l 4.197048,6.971364 11.524097,18.78001 4.837276,7.89614 1.849546,-9.10546 0.640228,-3.13 37.77343,6.90023 c -8.356902,25.74801 -15.390856,53.09688 -20.345011,79.74391 l -0.782501,4.33932 4.410458,0 17.499555,0 3.130002,0 0.426818,-3.20113 C 67.811404,182.73217 75.84936,152.8881 83.94096,125.98258 l 90.91232,16.57478 c -5.2874,19.47148 -9.91676,39.52065 -13.51592,59.11435 l -0.7825,4.26818 4.41046,0 17.28615,0 3.13,0 0.42682,-3.13 c 2.12531,-15.68058 6.94864,-35.52263 11.7375,-56.05548 l 13.23138,2.41863 c 4.01179,19.23941 8.03012,35.15791 10.74159,53.63685 l 0.49796,3.13 3.13,0 17.49955,0 4.33932,0 -0.7825,-4.33932 c -2.95342,-15.88561 -6.57127,-32.01238 -10.52818,-47.94593 l 98.8796,17.99751 c 2.44465,11.36193 4.30328,22.11568 5.4775,31.08661 l 0.35568,3.20113 3.20114,0 17.49956,0 4.41045,0 -0.7825,-4.26818 c -1.54433,-8.40709 -3.39078,-16.97533 -5.26409,-25.46683 l 28.73911,5.19295 2.48977,0.49796 1.35159,-2.20523 5.2641,-8.74978 2.70318,-4.55273 -5.19296,-0.92477 -39.4807,-7.18478 C 345.47539,118.36318 332.40473,79.597246 317.12609,50.43571 309.33537,35.565971 300.95457,23.16174 292.01494,14.298417 283.07531,5.435094 273.38703,0 263.06242,0 250.92628,0 239.66551,7.436053 229.4149,19.277965 220.44832,29.636518 212.13584,44.045442 204.37489,60.32367 196.8609,44.042858 188.79514,29.720596 179.9751,19.349102 169.89349,7.494123 158.71621,0 146.46986,0 z m 0,23.33274 c 6.84772,0 15.05554,6.496142 23.19046,18.495465 7.95844,11.738998 15.64408,28.248791 22.55024,46.594341 -4.55289,11.973014 -8.74471,24.751734 -12.66228,37.844574 L 89.56073,109.83461 c 8.11208,-22.480744 17.41717,-44.062028 27.24525,-59.896855 5.22029,-8.410849 10.55028,-15.262708 15.65,-19.847056 5.09973,-4.584349 9.88084,-6.757959 14.01388,-6.757959 z m 116.59256,0 c 5.33648,0 11.61861,3.932773 18.21092,11.737507 6.59231,7.804733 13.2914,19.190029 19.56251,32.509337 11.80767,25.078482 22.01964,56.956796 29.37934,86.075056 l -99.09301,-17.99751 c -4.48581,-16.32692 -9.46331,-32.12733 -14.86751,-46.878894 7.20381,-18.41429 15.16917,-35.075476 23.33274,-46.878894 8.34272,-12.062435 16.74248,-18.566602 23.47501,-18.566602 z m -59.11424,100.87143 c 0.67898,2.30229 1.41406,4.59843 2.06296,6.90023 l -3.9125,-0.71137 c 0.60842,-2.06352 1.21788,-4.12683 1.84954,-6.18886 z"
     id="path3058"
     inkscape:connector-curvature="0"
     sodipodi:nodetypes="sscccccccccccccccccccccccccccccccccccccccccccccccsssscsssscccsssssscccsscccc" />
  <path
     style="fill:#ffc111;fill-opacity:1;stroke:none"
     d="m 146.4363,3.652063 c -28.60437,0 -56.94211,46.918772 -77.806636,106.145537 L 7.325122,98.616276 l 11.489783,18.776914 1.34947,-6.67025 45.342228,8.25107 C 56.625238,145.6869 49.247141,174.44397 44.069291,202.2942 l 17.504568,0 c 2.81331,-21.23584 11.321308,-52.69359 19.740831,-80.42848 l 98.01017,17.85158 c -5.70778,20.55175 -10.5668,41.80979 -14.38151,62.5769 l 17.27322,0 c 2.29134,-16.90553 7.5232,-38.0048 12.56936,-59.76229 l 19.04682,3.47007 c 4.16696,20.32279 8.43268,36.77153 11.29701,56.29222 l 17.50456,0 c -3.27641,-17.62293 -7.21507,-35.60576 -11.72111,-53.20773 l 106.76242,19.4324 c 2.78072,12.47673 4.66298,24.03659 5.9377,33.77533 l 17.50456,0 c -1.86248,-10.13908 -3.98694,-20.41173 -6.32324,-30.65227 l 34.08378,6.20757 5.28222,-8.79084 -41.7565,-7.59559 C 332.67708,80.365906 299.17561,3.652063 263.03062,3.652063 c -21.24372,0 -41.56232,26.496865 -58.72127,64.813163 C 187.71775,30.153162 167.93605,3.652063 146.4363,3.652063 z m 0,16.039427 c 17.86009,0 35.49486,30.632974 49.66054,68.630236 -5.08585,13.246544 -9.80751,27.442134 -14.11159,42.103494 L 84.47631,112.65077 C 101.45557,64.301231 124.87942,19.69149 146.4363,19.69149 z m 116.59432,0 c 28.03715,0 57.40077,77.261876 72.29309,138.64852 L 228.21426,138.83049 C 223.45515,121.2888 218.13256,104.28076 212.32905,88.591616 227.10544,50.465599 245.34133,19.69149 263.03062,19.69149 z m -58.95261,91.91825 c 2.53325,8.00177 4.91442,16.0993 7.09435,24.13626 l -13.7646,-2.50617 c 2.07943,-7.21312 4.29663,-14.46129 6.67025,-21.63009 z"
     id="path3020"
     inkscape:connector-curvature="0"
     sodipodi:nodetypes="scccccccccccccccccccccccscsscccsscccscccc" />
  <path
     style="fill:#fd1502;fill-opacity:1;stroke:none"
     d="m 40.788057,217.01634 -6.627739,48.20178 13.255489,0 2.711342,-23.49837 6.32648,23.49837 c 3.815978,0 7.631955,0 11.447919,0 l 6.326483,-23.49837 2.711349,23.49837 13.25549,0 -6.62775,-48.20178 -15.665572,0 -5.723953,24.70341 -5.723966,-24.70341 z"
     id="path3025"
     inkscape:connector-curvature="0"
     sodipodi:nodetypes="cccccccccccccc" />
  <path
     inkscape:connector-curvature="0"
     style="fill:#fd1502;fill-opacity:1;fill-rule:evenodd;stroke:none"
     d="m 187.74352,230.27182 c -9.81653,0 -17.77438,8.09275 -17.77438,18.07568 0,9.98289 7.95785,18.07566 17.77438,18.07566 9.81652,0 17.7744,-8.09277 17.7744,-18.07566 0,-9.98293 -7.95788,-18.07568 -17.7744,-18.07568 z m 0,10.8454 c 3.16157,0 5.72396,3.23711 5.72396,7.23028 0,3.99316 -2.56239,7.23026 -5.72396,7.23026 -3.16158,0 -5.72397,-3.2371 -5.72397,-7.23026 0,-3.99317 2.56239,-7.23028 5.72397,-7.23028 z"
     id="path3820" />
  <path
     style="fill:#fd1502;fill-opacity:1;fill-rule:evenodd;stroke:none"
     d="m 109.05211,230.26854 c -9.81653,0 -17.7841,8.08572 -17.7841,18.06865 0,9.98293 7.96757,18.06865 17.7841,18.06865 5.55897,0 15.48436,-2.36893 15.93455,-14.72524 l -11.38182,0 c -0.55113,1.99751 -1.49776,3.7782 -4.55273,3.9125 -3.16157,0 -5.69091,-3.26273 -5.69091,-7.25591 0,-3.99318 2.52934,-7.25591 5.69091,-7.25591 3.05497,0.1343 4.0016,1.91499 4.55273,3.9125 l 11.38182,0 c -0.45019,-12.35631 -10.37558,-14.72524 -15.93455,-14.72524 z"
     id="path3820-9"
     inkscape:connector-curvature="0" />
  <rect
     style="fill:#fd1502;fill-opacity:1;fill-rule:evenodd;stroke:none"
     id="rect3848"
     width="12.652963"
     height="48.201767"
     x="281.09521"
     y="217.0163" />
  <path
     style="font-size:20px;font-style:normal;font-variant:normal;font-weight:normal;font-stretch:normal;text-align:center;line-height:125%;letter-spacing:0px;word-spacing:0px;text-anchor:middle;fill:#fd1502;fill-opacity:1;stroke:none;font-family:HelveticaNeueLT Std Med;-inkscape-font-specification:Sans"
     d="m 128.75689,217.03717 0,24.11524 0,24.11524 18.42433,0 c 6.63132,-0.0633 11.77111,-2.15824 15.4366,-6.33114 3.66538,-4.17296 5.56605,-10.26103 5.61978,-17.7841 -0.0537,-7.52306 -1.9544,-13.61113 -5.61978,-17.7841 -3.66549,-4.17289 -8.80528,-6.26781 -15.4366,-6.33114 l -18.42433,0 z m 12.66228,13.23137 6.61569,0 c 2.37919,0.0285 4.23351,0.96766 5.54864,2.84546 1.31505,1.87784 1.97253,4.65305 1.99182,8.03841 -0.0192,3.38537 -0.67677,6.16058 -1.99182,8.03842 -1.31513,1.87779 -3.16945,2.817 -5.54864,2.84545 l -6.61569,0 0,-10.88387 0,-10.88387 z"
     id="path4268"
     inkscape:connector-curvature="0" />
  <path
     inkscape:connector-curvature="0"
     style="fill:#fd1502;fill-opacity:1;fill-rule:evenodd;stroke:none"
     d="m 229.39644,230.87435 c -3.13528,0.0137 -6.2603,0.922 -8.45412,2.71136 l 0,-1.50632 -12.65297,0 0,33.13873 12.65297,0 0,-18.97944 c 0.57911,-4.46837 7.23026,-5.93064 7.23026,0 l 0,18.97944 12.65297,0 c 0,-8.93742 0,-16.90442 0,-25.84184 0,-4.6136 -3.76375,-8.50193 -11.42911,-8.50193 z"
     id="rect3848-0"
     sodipodi:nodetypes="cccccccccccc" />
  <path
     style="fill:#fd1502;fill-opacity:1;fill-rule:evenodd;stroke:none"
     d="m 260.2881,230.90877 c -8.7923,0 -16.2191,3.6082 -16.2191,12.23546 l 12.09319,0 c 0.0754,-2.74509 1.75829,-4.26818 4.19705,-4.26818 0.0487,0 0.094,-0.001 0.14227,0 0.2199,0.007 0.42782,0.0355 0.64023,0.071 0.77738,0.12998 1.50431,0.4514 2.06296,0.99591 1.14432,0.99668 0.9959,3.41942 0.9959,4.83728 -17.31161,-2.55821 -20.34501,3.41466 -20.70069,9.39 -0.40228,6.75805 5.21015,12.23546 12.37774,12.23546 3.23548,0 6.18936,-1.06688 8.46523,-2.91659 l 0.85363,1.70727 12.59115,0 c -0.89138,-1.06627 -0.9009,-1.68503 -1.13818,-2.41863 0.0314,-7.18849 0.071,-12.70232 0.071,-19.63365 0,-8.48376 -7.19256,-12.11705 -15.79228,-12.23546 -0.22263,-0.002 -0.45036,9e-5 -0.64012,1.1e-4 z m -0.71136,20.20274 c 2.74529,0 4.97955,1.48166 4.97955,3.34341 0,1.86177 -2.23426,3.41455 -4.97955,3.41455 -2.7453,0 -4.97955,-1.55278 -4.97955,-3.41455 0,-1.86175 2.23425,-3.34341 4.97955,-3.34341 z"
     id="path4040"
     inkscape:connector-curvature="0"
     sodipodi:nodetypes="cccsccccsscccccccsssss" />
  <path
     inkscape:connector-curvature="0"
     style="fill:#fd1502;fill-opacity:1;fill-rule:evenodd;stroke:none"
     d="m 319.87644,217.01634 0,15.45846 c -2.20141,-1.40536 -4.73286,-2.20298 -7.41856,-2.20298 -8.54809,0 -15.47728,8.09275 -15.47728,18.07568 0,9.90051 6.81949,17.92474 15.27018,18.05683 0.0658,10e-4 0.12224,0.0182 0.18825,0.0182 2.72251,0 5.264,-0.94554 7.43739,-2.57954 l 0,1.3745 12.65297,0 0,-48.20178 -12.65297,0 z m -5.72397,24.10088 c 3.16158,0 5.72397,3.23711 5.72397,7.23028 0,3.99316 -2.56239,7.23026 -5.72397,7.23026 -3.16157,0 -5.72394,-3.2371 -5.72394,-7.23026 0,-3.99317 2.56237,-7.23028 5.72394,-7.23028 z"
     id="rect3848-8" />
  <path
     style="fill:#fd1502;fill-opacity:1;stroke:none"
     d="m 333.55368,232.07939 5.72397,-15.06305 10.24287,0 -7.83279,15.06305 z"
     id="path4148"
     inkscape:connector-curvature="0" />
  <path
     style="fill:#fd1502;fill-opacity:1;stroke:none"
     d="m 354.70216,232.07939 c -9.27912,0 -16.60827,3.20155 -16.26811,12.22406 0.0549,1.45428 1.04264,6.12299 9.03783,7.56725 3.83453,0.93176 6.40064,1.00527 9.64036,2.3284 2.4819,1.01365 1.20504,4.36573 -2.41008,4.36573 -3.61514,0 -4.21767,-2.03735 -4.21767,-4.36573 l -12.05044,0 c 0,8.24807 5.86783,12.22406 16.26811,12.22406 9.2791,0 16.70135,-3.20155 16.26809,-12.22406 0,-7.85833 -8.75345,-6.6941 -18.67819,-9.89565 -2.4101,-1.16423 -1.20504,-4.36573 2.4101,-4.36573 3.61512,0 4.21765,2.03733 4.21765,4.36573 l 12.05044,0 c 0,-8.24811 -5.86783,-12.22406 -16.26809,-12.22406 z"
     id="path4185"
     inkscape:connector-curvature="0"
     sodipodi:nodetypes="sscssccsccsccs" />
  <path
     style="font-size:20.05221939px;font-style:normal;font-variant:normal;font-weight:bold;font-stretch:normal;text-align:center;line-height:125%;letter-spacing:0px;word-spacing:0px;text-anchor:middle;fill:#fd1502;fill-opacity:1;stroke:none;font-family:Helvetica;-inkscape-font-specification:Helvetica Bold"
     d="m 204.07801,211.15042 c -1.58656,3e-5 -3.09197,0.40199 -4.54966,1.19526 -1.45767,0.79329 -2.59797,1.91112 -3.43151,3.39296 -0.83353,1.48185 -1.27235,3.04655 -1.27235,4.6653 0,1.61073 0.41637,3.1265 1.23379,4.58822 0.81744,1.46172 1.96981,2.61406 3.43153,3.4315 1.4617,0.81742 2.97749,1.23379 4.5882,1.23379 1.61068,0 3.16501,-0.41637 4.62675,-1.23379 1.4617,-0.81744 2.5755,-1.96978 3.39297,-3.4315 0.8174,-1.46172 1.23377,-2.97749 1.23379,-4.58822 -2e-5,-1.61875 -0.40028,-3.18345 -1.23379,-4.6653 -0.83356,-1.48184 -1.97386,-2.59967 -3.43153,-3.39296 -1.45769,-0.79327 -3.00166,-1.19523 -4.58819,-1.19526 z m 0.0385,1.81215 c 1.27244,2e-5 2.49104,0.32771 3.66285,0.96393 1.17178,0.63622 2.065,1.54558 2.73749,2.73749 0.67246,1.19195 1.041,2.4353 1.04102,3.73995 -2e-5,1.29664 -0.34209,2.5256 -1.00246,3.70141 -0.6604,1.17584 -1.56573,2.07712 -2.73749,2.73751 -1.1718,0.66038 -2.40482,1.00245 -3.70141,1.00245 -1.28859,0 -2.52559,-0.34207 -3.70142,-1.00245 -1.17581,-0.66039 -2.11968,-1.56167 -2.77605,-2.73751 -0.65634,-1.17581 -0.96393,-2.40477 -0.9639,-3.70141 -3e-5,-1.30465 0.33,-2.548 1.00246,-3.73995 0.67246,-1.19191 1.60828,-2.10127 2.77605,-2.73749 1.16776,-0.63622 2.39039,-0.96391 3.66286,-0.96393 z m -4.20265,2.58329 0,9.79331 2.00493,0 0,-4.00987 0.50123,0 c 0.55571,0 1.02562,0.10768 1.38804,0.38555 0.3624,0.27786 0.79377,0.97237 1.34947,2.04349 l 0.84824,1.58083 2.46761,0 -1.15669,-1.9664 c -0.41075,-0.70064 -0.66015,-1.09862 -0.73258,-1.19522 -0.28188,-0.37048 -0.49441,-0.63825 -0.65546,-0.77115 -0.16116,-0.13294 -0.39604,-0.23423 -0.69402,-0.347 0.83757,-0.12088 1.46473,-0.46056 1.92783,-0.96391 0.46306,-0.50333 0.694,-1.1034 0.694,-1.81214 0,-0.5154 -0.10153,-0.96521 -0.34699,-1.38802 -0.24566,-0.42281 -0.55894,-0.75853 -0.92536,-0.96392 -0.36643,-0.20533 -0.88187,-0.32917 -1.54226,-0.38555 -0.22559,-0.0159 -1.25464,0 -3.12306,0 l -2.00493,0 z m 2.00493,1.54223 0.80968,0 c 1.13554,3e-5 1.83065,0.0615 2.12062,0.15434 0.28989,0.0927 0.49838,0.21079 0.65545,0.42411 0.15707,0.21352 0.23133,0.45876 0.23133,0.73258 0,0.28186 -0.0703,0.54965 -0.23133,0.77112 -0.16116,0.22149 -0.37762,0.37408 -0.65545,0.46267 -0.27786,0.0885 -0.96896,0.11564 -2.12062,0.11564 l -0.80968,0 0,-2.66039 z"
     id="path4190"
     inkscape:connector-curvature="0" />
</svg>
