<?xml version="1.0" encoding="utf-8"?>
<!-- Generator: Adobe Illustrator 12.0.0, SVG Export Plug-In . SVG Version: 6.00 Build 51448)  -->
<!DOCTYPE svg PUBLIC "-//W3C//DTD SVG 1.1//EN" "http://www.w3.org/Graphics/SVG/1.1/DTD/svg11.dtd" [
	<!ENTITY ns_svg "http://www.w3.org/2000/svg">
	<!ENTITY ns_xlink "http://www.w3.org/1999/xlink">
]>
<svg  version="1.1" id="Layer_1" xmlns="&ns_svg;" xmlns:xlink="&ns_xlink;" width="247.604" height="35.268"
	 viewBox="0 0 247.604 35.268" overflow="visible" enable-background="new 0 0 247.604 35.268" xml:space="preserve">
<g>
	<rect x="0.001" y="0.001" fill-rule="evenodd" clip-rule="evenodd" fill="none" width="247.603" height="35.267"/>
	<path fill="#BF9C5C" d="M29.001,23.661c0.167,2.804,2.634,1.568,2.634,2.736c0,0.334-0.434,0.334-0.801,0.334
		c-0.634,0-1.8-0.134-3.134-0.134c-1.033,0-2.1,0.134-2.933,0.134c-0.3,0-0.367-0.167-0.367-0.3c0-1.001,2.1-0.268,2.066-2.737
		L24.93,10.723c-0.211-0.955-0.375-1.284-0.575-1.284c-0.233,0-0.532,0.301-0.866,1.001l-6.901,14.088
		c-0.166,0.3-0.7,1.669-1.033,1.669c-0.334,0-0.568-0.735-0.667-0.968L7.54,9.421c-0.1-0.267-0.267-0.367-0.4-0.367
		c-0.101,0-0.2,0.167-0.233,0.501L4.096,22.831c-0.752,3.651,2.268,2.333,2.268,3.534c0,0.334-0.367,0.367-0.833,0.367
		c-0.433,0-1.296-0.134-2.297-0.134c-1.733,0-2.3,0.134-2.9,0.134C0.1,26.731,0,26.564,0,26.331c0-1.136,1.756,0.177,2.229-3.271
		C3.006,17.403,4,13.402,4.559,9.909C5.583,3.51,4.348,4.57,3.848,3.463C3.724,3.19,4.114,3.096,4.415,3.096
		c0.6,0,1.2,0.134,1.833,0.134c0.6,0,1.2-0.134,1.8-0.134c0.467,0,0.533,0.568,0.7,0.935l6.84,16.958
		c0.367,0.702,0.5,1.002,0.733,1.002c0.167,0,0.5-0.701,1.033-1.803l7.935-15.957c0.2-0.367,0.467-1.168,0.867-1.135
		c0.333,0,1.4,0.134,1.566,0.134c0.767,0,1.067-0.134,1.601-0.134c0.2,0,0.333,0.201,0.333,0.401c0,1.067-2.494-0.425-2.361,3.548
		L29.001,23.661z"/>
	<path fill="#BF9C5C" d="M86.184,23.661c0.167,2.804,2.633,1.568,2.633,2.736c0,0.334-0.434,0.334-0.8,0.334
		c-0.633,0-1.8-0.134-3.134-0.134c-1.034,0-2.1,0.134-2.933,0.134c-0.3,0-0.367-0.167-0.367-0.3c0-1.001,2.1-0.268,2.067-2.737
		l-1.538-12.971c-0.212-0.955-0.375-1.284-0.574-1.284c-0.233,0-0.534,0.301-0.868,1.001l-6.899,14.088
		c-0.167,0.3-0.701,1.669-1.034,1.669s-0.566-0.735-0.666-0.968L64.722,9.421c-0.101-0.267-0.267-0.367-0.4-0.367
		c-0.101,0-0.201,0.167-0.234,0.501l-2.81,13.276c-0.753,3.651,2.268,2.333,2.268,3.534c0,0.334-0.367,0.367-0.833,0.367
		c-0.433,0-1.297-0.134-2.297-0.134c-1.733,0-2.3,0.134-2.9,0.134c-0.233,0-0.333-0.167-0.333-0.4c0-1.136,1.756,0.177,2.229-3.271
		c0.777-5.657,1.771-9.658,2.331-13.151c1.024-6.398-0.212-5.338-0.712-6.445c-0.123-0.273,0.267-0.367,0.567-0.367
		c0.6,0,1.2,0.134,1.833,0.134c0.6,0,1.2-0.134,1.8-0.134c0.467,0,0.534,0.568,0.7,0.935l6.84,16.958
		c0.366,0.702,0.5,1.002,0.733,1.002c0.167,0,0.5-0.701,1.034-1.803l7.934-15.957c0.201-0.367,0.467-1.168,0.867-1.135
		c0.333,0,1.4,0.134,1.567,0.134c0.766,0,1.066-0.134,1.6-0.134c0.2,0,0.333,0.201,0.333,0.401c0,1.067-2.494-0.425-2.36,3.548
		L86.184,23.661z"/>
	<path fill="#BF9C5C" d="M147.994,23.661c0.168,2.804,2.635,1.568,2.635,2.736c0,0.334-0.434,0.334-0.801,0.334
		c-0.633,0-1.799-0.134-3.135-0.134c-1.031,0-2.098,0.134-2.932,0.134c-0.301,0-0.367-0.167-0.367-0.3
		c0-1.001,2.1-0.268,2.066-2.737l-1.537-12.971c-0.213-0.955-0.375-1.284-0.574-1.284c-0.234,0-0.533,0.301-0.867,1.001l-6.9,14.088
		c-0.168,0.3-0.701,1.669-1.035,1.669c-0.332,0-0.566-0.735-0.666-0.968l-7.348-15.808c-0.1-0.267-0.268-0.367-0.399-0.367
		c-0.101,0-0.2,0.167-0.233,0.501l-2.811,13.276c-0.752,3.651,2.269,2.333,2.269,3.534c0,0.334-0.367,0.367-0.835,0.367
		c-0.433,0-1.296-0.134-2.297-0.134c-1.732,0-2.299,0.134-2.899,0.134c-0.233,0-0.333-0.167-0.333-0.4
		c0-1.136,1.756,0.177,2.229-3.271c0.777-5.657,1.771-9.658,2.33-13.151c1.023-6.398-0.211-5.338-0.712-6.445
		c-0.124-0.273,0.267-0.367,0.567-0.367c0.6,0,1.199,0.134,1.832,0.134c0.603,0,1.201-0.134,1.801-0.134
		c0.467,0,0.534,0.568,0.7,0.935l6.841,16.958c0.367,0.702,0.5,1.002,0.732,1.002c0.168,0,0.5-0.701,1.033-1.803l7.936-15.957
		c0.199-0.367,0.467-1.168,0.865-1.135c0.334,0,1.4,0.134,1.568,0.134c0.766,0,1.066-0.134,1.602-0.134
		c0.197,0,0.332,0.201,0.332,0.401c0,1.067-2.494-0.425-2.361,3.548L147.994,23.661z"/>
	<path fill="#BF9C5C" d="M154.221,5.967c-0.031-2.437-2.699-1.77-2.699-2.504c0-0.3,0.066-0.367,0.332-0.367
		c1.234,0,2.436,0.134,3.668,0.134c1.033,0,2.068-0.134,3.1-0.134c0.535,0,0.635,0.067,0.635,0.334c0,0.801-2.4,0.033-2.4,2.537
		v17.926c0,2.27,2.967,1.502,2.967,2.503c0,0.234-0.1,0.334-0.666,0.334c-0.768,0-2.201-0.134-3.635-0.134
		c-2.033,0-2.732,0.134-3.199,0.134c-0.6,0-0.701-0.167-0.701-0.501c0-0.968,2.6,0.134,2.6-3.171V5.967z"/>
	<path fill="#BF9C5C" d="M167.156,5.433c0-1.302,0.016-1.245,0.281-1.235c3.264,0.121,6.365,1.369,6.365,5.442
		c0,4.14-3.199,4.741-4.633,4.741c-1.566,0-2.014,0.167-2.014-0.467V5.433z M172.104,14.647c2.334-0.935,4.199-3.171,4.199-5.775
		c0-6.443-7.367-5.776-7.9-5.776c-1.732,0-2.012,0.134-3.947,0.134c-1.699,0-1.533-0.134-2.133-0.134
		c-0.4,0-0.666,0.201-0.666,0.401c0,1.134,2.867-0.234,2.867,2.971V23.46c0,2.537-2.434,2.07-2.434,2.904
		c0,0.2,0.133,0.367,0.332,0.367c1.268,0,2.533-0.134,3.801-0.134c2.768,0,3.533,0.134,3.834,0.134c0.268,0,0.566,0.067,0.566-0.267
		c0-1.136-3.467-0.101-3.467-2.972V16.45c0-0.333-0.199-0.935,0.867-0.935c3.734,0,1.613-0.101,2.813,1.769l3.701,5.842
		c1.268,1.902,2.568,3.605,5,3.605c0.301,0,2.168,0,2.168-0.4c0-0.801-1.633,0.434-4.035-3.238L172.104,14.647z"/>
	<path fill="#BF9C5C" d="M191.703,7.303c0.191-0.401,0.354-0.401,0.514,0l4.188,10.711c0.16,0.434,0.193,0.667-0.514,0.667h-8.518
		c-0.418,0-0.645-0.133-0.418-0.6L191.703,7.303z M197.771,21.491c0.322,0.901,0.994,2.437,0.994,3.17
		c0,1.269-1.926,0.935-1.926,1.736c0,0.334,0.514,0.334,0.707,0.334c0.865,0,1.734-0.134,2.602-0.134
		c1.316,0,2.633,0.134,3.949,0.134c0.225,0,0.451,0,0.451-0.3c0-0.835-1.863-0.1-2.828-1.636c-0.738-1.168-1.123-2.57-1.604-3.806
		l-6.68-17.191c-0.098-0.267-0.322-1.235-0.674-1.235c-0.42,0-0.516,0.534-2.41,4.74l-7.674,17.025
		c-0.836,1.903-2.346,1.335-2.346,2.037c0,0.2,0.098,0.367,0.289,0.367c0.836,0,1.703-0.134,2.57-0.134
		c0.898,0,1.797,0.134,2.697,0.134c0.416,0,0.865,0.101,0.865-0.501c0-0.869-2.279,0.134-2.279-2.203
		c0-0.434,0.129-0.935,0.227-1.169l0.586-1.351c0.322-0.701,0.9-0.701,1.51-0.701h9.805c0.898,0,1.092,0.5,1.414,1.269
		L197.771,21.491z"/>
	<path fill="#BF9C5C" d="M223.814,17.095c0.266,0,0.898-0.134,0.898,0.3c0,0.701-1.699-0.067-1.699,2.169v4.029
		c-1.053,2.309-3.174,3.371-9.109,3.371c-7.367,0-11.936-4.573-11.936-11.984c0-7.21,5.402-12.184,12.469-12.184
		c5.77,0,7.434,2.27,8.367,2.27c0.367,0,0.5-0.601,0.867-0.601c0.467,0,0.334,0.5,0.367,0.768l0.332,4.373
		c0,0.268-0.031,0.601-0.365,0.601c-0.867,0-2.367-6.443-10.234-6.443c-6.002,0-9.002,5.075-9.002,10.583
		c0,5.909,3.402,11.551,9.836,11.551c3.033,0,5.775-1.502,5.775-4.34v-2.392c0-1.568-2.9-0.868-2.9-1.702
		c0-0.434,0.467-0.367,0.768-0.367H223.814z"/>
	<path fill="#BF9C5C" d="M54.353,17.095c0.267,0,0.9-0.134,0.9,0.3c0,0.701-1.7-0.067-1.7,2.169v4.029
		c-1.052,2.309-3.176,3.371-9.11,3.371c-7.367,0-11.935-4.573-11.935-11.984c0-7.21,5.401-12.184,12.468-12.184
		c5.768,0,7.435,2.27,8.367,2.27c0.367,0,0.501-0.601,0.867-0.601c0.467,0,0.333,0.5,0.367,0.768l0.333,4.373
		c0,0.268-0.033,0.601-0.367,0.601c-0.867,0-2.367-6.443-10.234-6.443c-6.001,0-9.001,5.075-9.001,10.583
		c0,5.909,3.401,11.551,9.834,11.551c3.034,0,5.777-1.502,5.777-4.34v-2.392c0-1.568-2.9-0.868-2.9-1.702
		c0-0.434,0.467-0.367,0.767-0.367H54.353z"/>
	<g>
		<rect fill="none" width="244.219" height="28.498"/>
		<path fill="#BF9C5C" d="M230.24,12.811c0,1.134-0.066,1.134,1.266,1.134h3.604c3.465,0,2.564-2.67,3.365-2.67
			c0.266,0,0.367,0.367,0.367,0.635c0,1.168-0.066,2.303-0.066,3.371c0,0.868,0.066,1.737,0.066,2.637
			c0,0.301-0.133,0.435-0.367,0.435c-1.033,0,0.1-2.938-2.701-2.938h-4.932c-0.701,0-0.602,0.568-0.602,1.069v6.142
			c0,1.97-0.268,2.771,2.533,2.771c7.701,0,8.836-3.439,9.27-3.439c0.232,0,0.266,0.334,0.266,0.401c0,1.202-0.865,2.37-1.666,3.238
			c-1.068,1.202-1.801,1.135-3.268,1.135c-2.533,0-5.066-0.201-7.6-0.134c-1.336,0.034-2.734,0.134-4.068,0.134
			c-0.301,0-0.5-0.067-0.5-0.334c0.066-0.4,0.4-0.333,1.467-0.867c0.867-0.402,0.934-1.336,0.934-2.905V7.403
			c0-1.502,0-3.104-1.799-3.372c-0.268-0.066-1-0.133-1-0.534c0-0.268,0.197-0.401,1.166-0.401c6.301,0,8.033,0.134,9.434,0.134
			c0.666,0,3.734-0.134,4.768-0.134c0.268,0,0.334,0.334,0.334,0.735c0,3.706-0.469,3.972-0.668,3.972
			c-0.801,0-0.268-1.602-0.801-2.37c-0.865-1.135-4.334-0.935-5.666-0.935c-3.201,0-3.135-0.133-3.135,2.104V12.811z"/>
		<path fill="#BF9C5C" d="M99.245,1.548c2.194-1.825,4.554-1.659,6.376-1.369c0.754,0.121,2.029,1.161,2.194,1.99
			c0.166,0.829,0.746,2.985,0.166,3.192c-0.58,0.207-2.774,0.332-3.147,0.207c-0.373-0.124-0.455-0.953-0.662-1.865
			c-0.208-0.913-1.201-1.576-1.781-1.907C101.842,1.482,99.824,1.216,99.245,1.548"/>
	</g>
	<path fill="#BF9C5C" d="M91.212,9.84c0.248-3.234,3.519-5.97,4.844-6.717c1.133-0.638,2.712-1.364,3.934-1.119
		c1.035,0.207,3.395,1.7,3.974,2.819c0.452,0.872-0.179,1.151-0.579,1.451c-0.497,0.374-1.408,0.995-1.781,0.913
		c-0.372-0.083-0.87-0.954-1.614-1.203c-0.746-0.249-3.271-0.539-4.182-0.125c-0.911,0.415-3.184,1.985-3.52,2.364
		C91.957,8.596,91.377,9.425,91.212,9.84"/>
	<path fill="#BF9C5C" d="M93.986,23.688c-2.732-2.156-4.016-6.095-3.933-8.458c0.054-1.534,1.318-4.904,2.525-6.137
		c2.195-2.238,4.803-2.487,5.424-2.57c0.622-0.083,2.485,0.373,2.568,0.83c0.083,0.456,0.083,0.746-0.415,0.871
		c-0.497,0.124-2.146,0.934-2.94,1.493c-1.532,1.078-3.933,4.81-4.14,6.758c-0.207,1.948,0.165,4.52,0.539,5.887
		C93.791,23.012,93.779,23.356,93.986,23.688"/>
	<path fill="#BF9C5C" d="M100.584,8.568c-1.201,1.202-2.488,6.74-2.522,8.82c-0.038,2.299,0.162,4.968,0.603,6.092
		c0.456,1.162,1.573,3.897,2.733,4.975c-1.656-0.248-3.166-1.103-4.348-2.114c-1.987-1.7-3.042-4.73-3.146-6.095
		c-0.207-2.695,0.349-5.226,0.994-6.26C96.139,11.996,98.265,9.73,100.584,8.568"/>
	<path fill="#BF9C5C" d="M100.238,11.748c0.042,0.663-0.041,2.985,0.291,3.482c0.331,0.499,2.153,3.192,2.733,3.897
		c0.579,0.704,1.904,2.156,1.78,4.768c-0.105,2.202-2.443,4.063-2.898,4.478c-1.656-1.616-2.774-5.017-3.064-6.592
		c-0.29-1.576-0.538-3.565-0.124-6.011C99.102,14.902,99.41,13.074,100.238,11.748"/>
	<path fill="#BF9C5C" d="M107.856,13.447c-0.414,0.788-1.322,2.889-1.201,3.897c0.166,1.369,0.787,2.57,1.656,3.483
		c0.87,0.912,1.242,1.823,1.325,3.316c0.102,1.824-1.2,3.234-1.491,3.565c-1.283,0.789-4.678,0.789-5.134,0.789
		c0.621-0.332,2.112-2.613,2.402-3.442c0.289-0.829,0.248-3.275,0.166-4.105c-0.083-0.828-0.456-2.86,0-4.602
		C105.739,15.739,106.945,14.111,107.856,13.447"/>
	<path fill="#BF9C5C" d="M113.156,2.833c-0.867-1.011-2.525-1.742-3.188-1.949c-0.663-0.207-1.905-0.291-1.823,0.125
		c0.083,0.415,0.373,1.493,0.704,1.907c0.332,0.415,0.828,0.83,1.242,0.29c0.414-0.539,1.027-0.754,1.482-0.63
		S112.783,2.584,113.156,2.833"/>
	<path fill="#BF9C5C" d="M116.428,22.154c0.621-1.41,0.538-3.441,0.289-4.81c-0.219-1.208-0.787-3.358-1.904-4.603
		c0.166-0.663,0.166-1.616-0.373-2.362c-0.537-0.747-1.076-0.913-1.572-1.287c-0.498-0.372-0.621-0.746-1.118-1.492
		c-0.497-0.747-0.622-0.54-0.994-0.913c-0.372-0.372-0.331-0.456-0.745-0.539c-0.414-0.083-0.911-0.539-0.704-1.078
		c0.237-0.619,0.497-1.244,1.035-1.451c0.538-0.207,2.401-0.456,3.685,0.208c1.284,0.663,2.94,2.488,3.893,5.141
		c0.812,2.26,1.076,3.11,0.869,5.432C118.643,16.02,118.125,19.874,116.428,22.154"/>
	<path fill="#BF9C5C" d="M109.099,27.586c0.497-0.456,1.242-2.198,1.407-2.778c0.166-0.581,0.166-2.943-0.082-3.524
		c0.58,0,1.904-0.581,2.277-0.996c0.373-0.415,1.242-2.778,0.994-3.317c-0.125-0.704-0.125-0.663-0.373-0.994
		c-0.083,0.332,0.124,0.621-0.083,0.953c-0.207,0.332-0.083,0.125-0.248,0.457c-0.166,0.332-0.415,0.622-0.745,0.664
		c-0.332,0.042-0.787,0.042-0.994-0.125c-0.042-0.498-0.166-0.539-0.042-0.996c-0.497,0.374-0.827,0.457-0.704,0.912
		c-0.165,0.291-0.207,0.539-0.165,0.912c0.042,0.374,0.249,0.415,0.372,0.789c0.125,0.373-0.289,0.622-0.662,0.414
		s-1.491-0.704-1.905-1.203c-0.414-0.497-1.117-0.787-1.076-2.073c0.021-0.674,0.911-2.57,1.49-2.902
		c0.58-0.332,0.207-0.167,0.414,0.249s0.456,0.664,0.869,0.664c0.414,0,0.662,0.207,1.16,0c0.289,0.415,0.455,0.663,0.373,1.286
		c0.33-0.374,0.703-0.664,0.413-1.203c0.622-0.29,0.828-0.332,1.118-0.54c0.455,0.291,0.58,0.581,0.58,1.037
		c0.289-0.373,0.207-1.409,0.041-1.658c0.123-0.374,0.041-0.623,0.33-0.705c0.291-0.083,0.332-0.083,0.457,0.166
		c0.123,0.249-0.025-0.081,0.455,0.58c1.324,1.824,1.619,4.23,1.656,5.225c0.082,2.239-0.746,3.524-1.533,4.602
		C114.109,24.559,111.377,27.005,109.099,27.586"/>
	<path fill="#BF9C5C" d="M101.936,12.037c0.953-0.124,3.271-0.083,4.596,0.665c-1.988,0.539-3.146,4.27-2.236,5.514
		C103.385,16.971,101.894,15.645,101.936,12.037"/>
	<path fill="#BF9C5C" d="M102.143,10.586c0.662-0.166,2.939-0.746,4.596-0.206c-0.124-0.457-0.662-1.991-1.697-1.991
		c-1.118,0-1.077,0.29-1.863,0.996C102.45,10.036,102.64,10.297,102.143,10.586"/>
	<path fill="#BF9C5C" d="M111.186,6.945c-0.283-0.242-1.137-0.07-1.701,0.997c0.414,0.291,2.153,0.219,2.535,0.042
		C111.854,7.57,111.476,7.194,111.186,6.945"/>
	<path fill="#BF9C5C" d="M114.527,10.483c-0.013,0.074-0.207,0.235-0.289,0.31c-0.08,0.073-0.43,0.363-0.563,0.443
		c-0.135,0.081-0.336,0.115-0.49,0.141c-0.154,0.027-0.303,0.027-0.564-0.04c-0.262-0.068-0.31-0.27-0.457-0.418
		c-0.147-0.147-0.101-0.161-0.201-0.262c-0.102-0.1-0.168-0.079-0.336-0.147s-0.067-0.176-0.041-0.243
		c0.027-0.067,0.202,0.007,0.344,0c0.141-0.007,0.188,0,0.355,0.067c0.168,0.068,0.322,0.128,0.504,0.169
		c0.182,0.04,0.188,0.013,0.242-0.035c0.053-0.047,0.456-0.497,0.543-0.618c0.088-0.121,0.088-0.148,0.08-0.276
		C113.527,9.474,114.541,10.201,114.527,10.483"/>
	<path fill="#BF9C5C" d="M242.99,2.977c0.684,0,1.229,0.557,1.229,1.251c0,0.707-0.545,1.258-1.234,1.258
		c-0.684,0-1.238-0.551-1.238-1.258c0-0.695,0.555-1.251,1.238-1.251H242.99z M242.984,3.171c-0.549,0-1,0.473-1,1.057
		c0,0.596,0.451,1.063,1.006,1.063c0.557,0.005,1-0.468,1-1.058s-0.443-1.063-1-1.063H242.984z M242.752,4.958h-0.223V3.561
		c0.117-0.017,0.229-0.033,0.396-0.033c0.209,0,0.348,0.044,0.432,0.105c0.082,0.061,0.129,0.156,0.129,0.29
		c0,0.184-0.123,0.295-0.273,0.339v0.011c0.123,0.022,0.205,0.133,0.232,0.339c0.033,0.218,0.066,0.301,0.09,0.345h-0.234
		c-0.031-0.044-0.066-0.172-0.094-0.356c-0.033-0.178-0.121-0.245-0.301-0.245h-0.154V4.958z M242.752,4.185h0.16
		c0.186,0,0.34-0.067,0.34-0.239c0-0.123-0.09-0.245-0.34-0.245c-0.072,0-0.121,0.005-0.16,0.011V4.185z"/>
</g>
</svg>
