<?xml version="1.0" encoding="UTF-8" standalone="no"?>
<!-- Created with Inkscape (http://www.inkscape.org/) -->

<svg
   xmlns:dc="http://purl.org/dc/elements/1.1/"
   xmlns:cc="http://creativecommons.org/ns#"
   xmlns:rdf="http://www.w3.org/1999/02/22-rdf-syntax-ns#"
   xmlns:svg="http://www.w3.org/2000/svg"
   xmlns="http://www.w3.org/2000/svg"
   xmlns:sodipodi="http://sodipodi.sourceforge.net/DTD/sodipodi-0.dtd"
   xmlns:inkscape="http://www.inkscape.org/namespaces/inkscape"
   id="svg3399"
   version="1.1"
   inkscape:version="0.91 r13725"
   width="1000"
   height="463.755"
   xml:space="preserve"
   sodipodi:docname="Netflix.svg"><metadata
     id="metadata3405"><rdf:RDF><cc:Work
         rdf:about=""><dc:format>image/svg+xml</dc:format><dc:type
           rdf:resource="http://purl.org/dc/dcmitype/StillImage" /><dc:title></dc:title></cc:Work></rdf:RDF></metadata><defs
     id="defs3403" /><sodipodi:namedview
     pagecolor="#ffffff"
     bordercolor="#666666"
     borderopacity="1"
     objecttolerance="10"
     gridtolerance="10"
     guidetolerance="10"
     inkscape:pageopacity="0"
     inkscape:pageshadow="2"
     inkscape:window-width="1366"
     inkscape:window-height="705"
     id="namedview3401"
     showgrid="false"
     fit-margin-left="0.5"
     fit-margin-bottom="0.5"
     fit-margin-top="0.5"
     fit-margin-right="0.5"
     inkscape:zoom="0.58712835"
     inkscape:cx="596.30951"
     inkscape:cy="183.01478"
     inkscape:window-x="-8"
     inkscape:window-y="-8"
     inkscape:window-maximized="1"
     inkscape:current-layer="g3407" /><g
     id="g3407"
     inkscape:groupmode="layer"
     inkscape:label="Netflix_Web_Logo"
     transform="matrix(1.25,0,0,-1.25,0.5,463.25499)"><path
       inkscape:connector-curvature="0"
       id="path3411"
       style="fill:#b4131d;fill-opacity:1;fill-rule:nonzero;stroke:none"
       d="m -0.4,-0.40000616 800,0 0,371.00389616 -800,0 0,-371.00389616 z" /><path
       inkscape:connector-curvature="0"
       id="path3413"
       style="fill:#000000;fill-opacity:1;fill-rule:nonzero;stroke:none"
       d="m 137.52337,278.85125 0,-3.1724 c 0,0 -0.0113,-5.60628 -0.0113,-10.47401 -4.87221,5.39815 -12.29622,13.64641 -12.29622,13.64641 l -33.862657,0 0.01127,-168.16168 19.511387,-15.40705 20.34127,2.546163 c 0,0 0.0847,8.880707 0.14683,14.910307 6.67882,-5.49889 15.82446,-13.007585 15.82446,-13.007585 l 33.31533,3.392945 0,158.42247 -18.07766,17.26975 -24.90274,0.0346" /><path
       inkscape:connector-curvature="0"
       id="path3415"
       style="fill:#000000;fill-opacity:1;fill-rule:nonzero;stroke:none"
       d="m 342.65205,278.87293 -57.89533,0 0,-22.40196 c 0,0 15.30559,-12.02479 17.41138,-13.6782 0,-2.99898 0,-115.45421 0,-115.45421 l 19.15584,-15.37873 23.17519,0.58708 c 0,0 0,124.27827 0,130.25597 4.18266,0.0346 17.12232,0.13008 17.12232,0.13008 l 0,16.31007 -17.55736,19.6299 -1.41204,0" /><path
       inkscape:connector-curvature="0"
       id="path3417"
       style="fill:#000000;fill-opacity:1;fill-rule:nonzero;stroke:none"
       d="m 576.64268,278.85125 -22.80375,0 0,-154.57265 19.45068,-18.03213 23.00464,-1.90821 0,156.78509 -18.36526,17.7279 -1.28631,0" /><path
       inkscape:connector-curvature="0"
       id="path3419"
       style="fill:#000000;fill-opacity:1;fill-rule:nonzero;stroke:none"
       d="m 689.92868,184.354 c 0.2139,1.14033 13.79238,75.54953 13.79238,75.54953 l -18.51848,18.93616 -24.12908,0 c 0,0 -1.24294,-7.78577 -2.04363,-12.67373 -4.78245,5.18136 -11.68081,12.67373 -11.68081,12.67373 l -24.86907,0 c 0,0 14.18116,-74.25744 14.39073,-75.32984 -0.17488,-1.08396 -13.59583,-84.54383 -13.59583,-84.54383 l 26.36062,-20.053371 15.73917,-1.87425 c 0,0 0,9.117741 0,14.074641 6.61653,-5.14884 21.67354,-16.886159 21.67354,-16.886159 l 20.79914,-2.862393 c 0,0 -17.69322,91.837622 -17.91868,92.989512" /><path
       inkscape:connector-curvature="0"
       id="path3421"
       style="fill:#000000;fill-opacity:1;fill-rule:nonzero;stroke:none"
       d="m 514.11665,150.88114 c 0,9.89733 0,110.79576 0,110.79576 l -18.12247,17.17435 -24.35021,0 0,-150.80696 19.32061,-16.91434 44.0755,-2.19062 -0.97702,19.53971 c 0,0 -15.50938,17.41731 -19.94641,22.4021" /><path
       inkscape:connector-curvature="0"
       id="path3423"
       style="fill:#000000;fill-opacity:1;fill-rule:nonzero;stroke:none"
       d="m 249.77642,245.41163 c 4.39223,0 18.92315,0 18.92315,0 l 0,16.17566 -18.05453,17.2972 -1.27042,0 -42.12146,-0.0332 0,-156.86473 19.03733,-14.99486 42.40908,2.65904 0,17.35473 c 0,0 -17.42728,19.27392 -18.92315,20.93455 0,2.03207 0,23.08992 0,28.0357 4.41391,0 19.17752,0 19.17752,0 l 0,17.49087 c 0,0 -17.50099,17.50676 -19.17752,19.1833 0,2.23586 0,27.65268 0,32.76178" /><path
       inkscape:connector-curvature="0"
       id="path3425"
       style="fill:#000000;fill-opacity:1;fill-rule:nonzero;stroke:none"
       d="m 426.47874,245.42319 c 4.40379,0 18.93038,0 18.93038,0 l 0,16.17422 -18.05454,17.28708 -1.27041,0 -42.12724,-0.0332 0,-149.75681 19.31338,-16.03373 23.20843,-0.15812 c 0,0 0,57.3483 0,63.07886 4.42692,0 19.18474,-0.006 19.18474,-0.006 l 0,17.49087 c 0,0 -17.50243,17.50676 -19.18474,19.1833 0,2.23586 0,27.66425 0,32.77334" /><path
       inkscape:connector-curvature="0"
       id="path3427"
       style="fill:#ffffff;fill-opacity:1;fill-rule:nonzero;stroke:none"
       d="m 558.88733,127.16353 c 0,0 5.87653,-0.28789 15.96608,-1.03308 l 0,148.24908 -15.96608,-0.0274 0,-147.18854" /><path
       inkscape:connector-curvature="0"
       id="path3429"
       style="fill:#ffffff;fill-opacity:1;fill-rule:nonzero;stroke:none"
       d="m 289.80944,259.57111 17.40561,0 0,-128.95811 c 0,0 3.7375,0.29369 15.93718,0.57031 l 0.0853,128.35889 17.61951,0 0,14.79252 -51.04757,0.0173 0,-14.78096" /><path
       inkscape:connector-curvature="0"
       id="path3431"
       style="fill:#ffffff;fill-opacity:1;fill-rule:nonzero;stroke:none"
       d="m 143.06735,146.94563 -1.12906,-0.13586 -19.45502,127.52495 -25.913425,0.0274 0.01127,-160.06502 c 0,0 5.148835,0.73955 16.090095,1.98163 l -1.1292,121.66938 1.12357,0.10116 18.51211,-119.86797 c 0,0 6.32877,0.7452 27.84477,2.87367 l 0,153.29704 -16.53091,0 0.5758,-127.40644" /><path
       inkscape:connector-curvature="0"
       id="path3433"
       style="fill:#ffffff;fill-opacity:1;fill-rule:nonzero;stroke:none"
       d="m 683.0968,274.37953 -18.01551,0 -9.04461,-57.19003 -1.06662,0 -9.39437,57.19003 -17.67587,0 13.80249,-70.73961 -13.34578,-82.68664 17.18591,-1.63722 8.84083,68.17133 1.08397,-0.0231 8.58067,-70.07896 18.8451,-2.08324 -13.47008,86.31591 13.67387,72.76156" /><path
       inkscape:connector-curvature="0"
       id="path3435"
       style="fill:#ffffff;fill-opacity:1;fill-rule:nonzero;stroke:none"
       d="m 492.75384,274.39109 -16.05136,-0.0289 0,-143.22974 c 0,0 10.87435,-0.31045 37.10343,-1.48474 l 0,14.53743 c 0,0 -2.93538,0.29917 -21.05207,0.93221 l 0,129.27375" /><path
       inkscape:connector-curvature="0"
       id="path3437"
       style="fill:#ffffff;fill-opacity:1;fill-rule:nonzero;stroke:none"
       d="m 212.30011,125.39089 c 0,0 9.47386,0.6605 36.8664,2.41624 l 0,14.63353 -20.71387,-1.42259 0,51.27924 20.71387,0.0173 0,14.90958 -20.78757,-0.0115 0,52.34688 20.86561,0 0,14.80263 -36.94444,-0.0101 0,-148.96118" /><path
       inkscape:connector-curvature="0"
       id="path3439"
       style="fill:#ffffff;fill-opacity:1;fill-rule:nonzero;stroke:none"
       d="m 389.00965,132.3011 16.16265,0 0,59.99621 20.70809,0.0173 0,14.91537 -20.79191,-0.0173 0,52.34688 20.86561,0 0,14.80263 -36.94444,-0.0101 0,-142.05097" /></g></svg>