<?xml version="1.0" encoding="UTF-8" standalone="no"?>
<svg
   xmlns:dc="http://purl.org/dc/elements/1.1/"
   xmlns:cc="http://creativecommons.org/ns#"
   xmlns:rdf="http://www.w3.org/1999/02/22-rdf-syntax-ns#"
   xmlns:svg="http://www.w3.org/2000/svg"
   xmlns="http://www.w3.org/2000/svg"
   viewBox="0 0 562.29999 70.5"
   height="70.5"
   width="562.29999"
   xml:space="preserve"
   id="svg2"
   version="1.1"><metadata
     id="metadata8"><rdf:RDF><cc:Work
         rdf:about=""><dc:format>image/svg+xml</dc:format><dc:type
           rdf:resource="http://purl.org/dc/dcmitype/StillImage" /><dc:title></dc:title></cc:Work></rdf:RDF></metadata><defs
     id="defs6" /><g
     transform="matrix(1.3333333,0,0,1.3333333,0,1.7625e-6)"
     id="g10"><path
       d="m 399.148,30.824 22.5,-30.523 V 51.602 H 414 V 24 L 399.074,43.875 384.301,24 v 27.602 h -7.653 V 0.227 Z M 224.324,38.25 c -0.148,-2.625 -1.347,-7.875 -8.176,-13.352 l -6,-5.25 c -2.546,-2.023 -3.75,-4.199 -3.824,-6.75 0,-2.921 1.949,-4.949 4.875,-5.097 0.074,0 3.75,-0.449 6,2.699 l 0.074,0.148 6.079,-4.125 -0.079,-0.148 C 222.227,4.727 217.5,0.227 211.125,0.523 c -3.602,0.153 -6.824,1.579 -9.074,3.829 -2.324,2.398 -3.449,5.546 -3.227,9.222 0.227,4.278 2.699,8.25 7.875,12.449 l 5.625,4.954 c 3.153,2.546 4.5,4.722 4.653,7.273 0.148,1.875 -0.528,3.676 -1.727,5.023 -1.051,1.204 -2.25,1.727 -3.898,1.875 h -0.375 c -4.727,0 -6.676,-3.375 -7.801,-5.398 l -0.301,-0.523 -6.523,3.148 c 0.597,1.648 4.125,9.977 14.472,9.977 h 0.153 c 3.75,-0.227 7.199,-1.727 9.671,-4.278 2.551,-2.551 3.903,-6.074 3.676,-9.824 z M 74.176,0 C 59.625,0 47.773,11.852 47.773,26.398 c 0,14.551 11.852,26.403 26.403,26.403 14.551,0 26.398,-11.852 26.398,-26.403 C 100.648,11.852 88.801,0 74.176,0 Z m 0,45.227 c -10.352,0 -18.75,-8.403 -18.75,-18.75 0,-10.352 8.398,-18.75 18.75,-18.75 10.347,0 18.75,8.398 18.75,18.75 C 93,36.75 84.523,45.227 74.176,45.227 Z M 340.352,0 c -14.551,0 -26.403,11.852 -26.403,26.398 0,14.551 11.852,26.403 26.403,26.403 14.546,0 26.398,-11.852 26.398,-26.403 C 366.75,11.852 354.898,0 340.352,0 Z m 0,45.227 c -10.352,0 -18.75,-8.403 -18.75,-18.75 0,-10.352 8.398,-18.75 18.75,-18.75 10.347,0 18.75,8.398 18.75,18.75 0,10.273 -8.403,18.75 -18.75,18.75 z M 37.727,52.875 V 1.273 H 30.074 V 33.301 L 0,0.227 v 51.296 h 7.648 v -31.5 l 0.301,0.301 z M 262.949,1.273 h -32.097 v 7.051 h 12.074 v 43.199 h 7.949 V 8.324 h 12.074 z m 33.528,31.352 0.148,-0.074 c 0.824,-0.375 1.648,-0.903 2.324,-1.426 4.125,-3.074 6.602,-8.102 6.602,-13.574 0,-9 -6.676,-16.352 -14.852,-16.352 H 273 v 50.25 h 7.648 V 33.824 h 0.153 c 0,0 4.125,0 7.199,0 h 0.074 l 0.074,0.074 11.625,17.551 H 309 Z m -6.602,-6.375 h -9.148 V 8.773 h 9.148 c 4.426,0 7.949,3.903 7.949,8.704 0,4.875 -3.523,8.773 -7.949,8.773 z M 168.523,1.273 h -12.449 v 50.25 h 12.449 c 12.153,0 21.75,-11.25 21.75,-25.125 0,-13.796 -9.671,-25.125 -21.75,-25.125 z m -0.222,43.051 h -4.653 V 8.551 h 4.653 c 8.25,0 14.472,8.023 14.472,17.926 0,9.824 -6.222,17.847 -14.472,17.847 z m -34.278,-11.699 0.153,-0.074 c 0.824,-0.375 1.648,-0.903 2.324,-1.426 4.125,-3.074 6.602,-8.102 6.602,-13.574 0,-9 -6.676,-16.352 -14.852,-16.352 h -17.699 v 50.25 h 7.648 V 33.824 h 0.153 c 0,0 4.125,0 7.199,0 h 0.074 l 0.074,0.074 11.625,17.551 h 9.153 z m -6.597,-6.375 h -9.153 V 8.773 h 9.153 c 4.426,0 7.949,3.903 7.949,8.704 0,4.875 -3.523,8.773 -7.949,8.773 z"
       style="fill:#000000;fill-opacity:1;fill-rule:nonzero;stroke:none"
       id="path14" /></g></svg>