<?xml version="1.0" encoding="UTF-8" standalone="no"?>
<!-- Created with Inkscape (http://www.inkscape.org/) -->

<svg
   xmlns:dc="http://purl.org/dc/elements/1.1/"
   xmlns:cc="http://creativecommons.org/ns#"
   xmlns:rdf="http://www.w3.org/1999/02/22-rdf-syntax-ns#"
   xmlns:svg="http://www.w3.org/2000/svg"
   xmlns="http://www.w3.org/2000/svg"
   xmlns:sodipodi="http://sodipodi.sourceforge.net/DTD/sodipodi-0.dtd"
   xmlns:inkscape="http://www.inkscape.org/namespaces/inkscape"
   id="svg2"
   version="1.1"
   inkscape:version="0.48.2 r9819"
   width="1200"
   height="932"
   sodipodi:docname="ppg1966.svg">
  <metadata
     id="metadata8">
    <rdf:RDF>
      <cc:Work
         rdf:about="">
        <dc:format>image/svg+xml</dc:format>
        <dc:type
           rdf:resource="http://purl.org/dc/dcmitype/StillImage" />
        <dc:title />
      </cc:Work>
    </rdf:RDF>
  </metadata>
  <defs
     id="defs6" />
  <sodipodi:namedview
     pagecolor="#ffffff"
     bordercolor="#666666"
     borderopacity="1"
     objecttolerance="10"
     gridtolerance="10"
     guidetolerance="10"
     inkscape:pageopacity="0"
     inkscape:pageshadow="2"
     inkscape:window-width="1920"
     inkscape:window-height="1057"
     id="namedview4"
     showgrid="false"
     inkscape:zoom="0.59"
     inkscape:cx="335.59322"
     inkscape:cy="466"
     inkscape:window-x="-8"
     inkscape:window-y="-8"
     inkscape:window-maximized="1"
     inkscape:current-layer="svg2" />
  <path
     style="fill:#0071a1;fill-opacity:1"
     d="m 182.5,931.58031 c -44.83062,-4.2755 -87.001283,-23.5628 -119.862103,-54.8203 -32.42426,-30.8422 -52.62637,-69.87901 -60.3241699,-116.5651 -1.72133998,-10.43971 -1.81372998,-25.36389 -1.81372998,-293 0,-268.23874 0.089,-282.53679 1.82393998,-293 C 10.752827,123.36086 34.007447,81.536704 71.499997,49.779554 99.576277,25.998234 130.6633,11.615874 169.5,4.4400336 l 12,-2.21724 408,-0.31107 c 275.17356,-0.2098 412.7713,0.0271 422.656,0.72771 42.5473,3.01565 79.5295,17.2630904 111.7042,43.0341504 10.5593,8.45778 27.0877,25.10128 34.2824,34.52133 22.779,29.824556 36.8124,65.134036 40.8214,102.710586 1.3871,13.00148 1.4045,555.39417 0.018,568.78941 -4.0048,38.69787 -19.8428,76.9584 -44.1927,106.7576 -26.664,32.6313 -63.343,56.3571 -103.8289,67.1617 -26.462,7.062 15.0317,6.4425 -444.9606,6.6434 -227.975,0.1 -418.55,-0.2052 -423.5,-0.6773 z M 544,844.50411 c -8.85149,-4.2754 -18.64721,-14.1446 -22.8918,-23.06348 -6.85482,-14.4035 -6.47815,-5.82072 -6.83511,-155.74572 l -0.32261,-135.5 32.77476,32.67241 32.77476,32.6724 7,2.01485 c 14.39496,4.14336 22.64699,5.2951 38,5.30366 35.35641,0.0197 75.84849,-10.45807 106.54392,-27.56942 17.95936,-10.01155 28.35889,-17.95204 43.96858,-33.57193 15.21112,-15.22104 24.3629,-27.04448 32.70154,-42.24804 2.63228,-4.79933 5.05488,-8.73683 5.38356,-8.75 0.32867,-0.0132 0.89598,5.03857 1.26069,11.22607 2.80939,47.66387 17.17684,95.04898 38.44705,126.80177 17.30036,25.82649 36.61709,42.94555 63.69466,56.44811 26.91855,13.42326 54.2271,20.69171 88.5,23.55517 28.4107,2.37368 90.1211,-0.96117 128,-6.91717 l 10.5,-1.651 0.2541,-117.24344 0.2542,-117.24344 -65.5042,0 c -36.0272,0 -65.4788,0.3375 -65.4478,0.75 0.031,0.4125 3.1397,2.22016 6.9083,4.01701 13.624,6.49587 23.0891,19.61978 26.4921,36.73299 1.3652,6.86558 1.552,16.22125 1.3171,65.97672 l -0.2738,57.97671 -5.5,1.31427 c -7.5535,1.80498 -26.9064,1.76848 -35.5165,-0.067 -25.48767,-5.43334 -47.18874,-21.30681 -57.76584,-42.25341 -3.95291,-7.82822 -9.30169,-24.02411 -12.07549,-36.56412 -5.64175,-25.50555 -7.94815,-50.31557 -7.93746,-85.38318 0.0115,-37.7886 3.44835,-72.52335 8.79705,-88.90864 6.95633,-21.31014 21.90239,-42.77293 39.7046,-57.01645 15.59918,-12.4809 33.22844,-19.19586 56.90434,-21.67488 32.4907,-3.40197 71.6233,8.57014 101.2092,30.96364 3.5241,2.66737 6.9188,5.1658 7.5438,5.55206 0.8428,0.52093 1.1363,-12.69437 1.1363,-51.17225 l 0,-51.87455 -15.75,-2.1886 c -116.4153,-16.17693 -187.86816,-4.4154 -242.85487,39.97522 -14.14708,11.4209 -31.19316,31.57274 -38.88601,45.97096 l -3.21891,6.02463 -0.69628,-13.32557 C 839.96553,260.21746 831.02542,219.08685 815.8967,187.69491 787.19304,128.13512 739.07117,99.030004 654.79156,90.255114 622.70592,86.914484 598.9579,86.484244 487.25,87.219824 l -109.25,0.7194 -0.0423,110.627836 -0.0423,110.62785 -2.29794,-5.5 c -14.73804,-35.27477 -39.9721,-55.95992 -81.11752,-66.4946 -28.99791,-7.42449 -52.87235,-8.67806 -158,-8.29608 l -80.000003,0.29068 -0.25206,238.25 -0.25207,238.25 72.002063,0 c 39.60114,0 72.00207,-0.20394 72.00207,-0.45321 0,-0.24926 -2.11438,-1.38849 -4.69863,-2.53163 -10.65423,-4.71287 -20.71951,-15.3909 -25.18382,-26.71692 -4.9533,-12.56663 -5.11755,-15.45447 -5.11755,-89.97466 l 0,-69.76073 20.75,20.61274 20.75,20.61274 7.5,1.35584 c 12.39477,2.2407 39.24401,1.74775 52.83379,-0.97003 53.32934,-10.66515 88.99739,-38.92114 108.77918,-86.17414 l 2.30249,-5.5 0.0423,190.75 0.0422,190.75 86.25,-0.025 86.25,-0.026 -6.5,-3.1397 z m 34,-332.31647 c -20.52335,-2.81101 -43.45621,-10.52167 -58.76947,-19.75992 l -5.26947,-3.17899 0.26947,-145.02691 0.26947,-145.02691 2.63517,-5.62001 c 3.28889,-7.01421 8.57535,-12.9298 16.15383,-18.07624 12.22523,-8.302 25.09066,-12.13767 45.711,-13.62817 65.66968,-4.74682 107.12015,27.76681 123.43802,96.82442 5.23068,22.13635 6.04941,31.66751 6.05593,70.5 0.006,35.75673 -0.37487,41.75548 -4.0953,64.5 -8.92504,54.56242 -32.18983,93.86015 -65.39865,110.46814 -17.99682,9.00035 -36.29822,11.40791 -61,8.02459 z M 203,495.73789 c -13.64859,-1.40801 -27.03054,-5.9201 -34.77072,-11.72389 l -3.27071,-2.45247 0.27071,-89.68331 0.27072,-89.68331 2.72863,-4.64161 c 2.95903,-5.03353 9.92952,-10.28647 15.7122,-11.84066 6.90446,-1.85569 23.64116,-3.20088 31.4742,-2.5297 38.18865,3.27223 59.81984,26.13161 67.19663,71.01197 2.17747,13.24777 2.44025,47.66931 0.47713,62.5 -4.19385,31.683 -12.30773,51.49188 -26.54785,64.81283 -6.93088,6.48349 -13.6992,10.16169 -23.04094,12.52143 -7.71905,1.94985 -20.9677,2.69209 -30.5,1.70872 z"
     id="path2989"
     inkscape:connector-curvature="0" />
</svg>
