<?xml version="1.0" encoding="UTF-8" standalone="no"?>
<!-- Created with Inkscape (http://www.inkscape.org/) -->

<svg
   xmlns:dc="http://purl.org/dc/elements/1.1/"
   xmlns:cc="http://creativecommons.org/ns#"
   xmlns:rdf="http://www.w3.org/1999/02/22-rdf-syntax-ns#"
   xmlns:svg="http://www.w3.org/2000/svg"
   xmlns="http://www.w3.org/2000/svg"
   xmlns:sodipodi="http://sodipodi.sourceforge.net/DTD/sodipodi-0.dtd"
   xmlns:inkscape="http://www.inkscape.org/namespaces/inkscape"
   id="svg2"
   version="1.1"
   inkscape:version="0.48.2 r9819"
   width="293"
   height="364"
   sodipodi:docname="ppg64.png">
  <sodipodi:namedview
     pagecolor="#ffffff"
     bordercolor="#666666"
     borderopacity="1"
     objecttolerance="10"
     gridtolerance="10"
     guidetolerance="10"
     inkscape:pageopacity="0"
     inkscape:pageshadow="2"
     inkscape:window-width="1920"
     inkscape:window-height="1057"
     id="namedview4"
     showgrid="false"
     inkscape:zoom="1.9827809"
     inkscape:cx="310.09852"
     inkscape:cy="219.48857"
     inkscape:window-x="-8"
     inkscape:window-y="-8"
     inkscape:window-maximized="1"
     inkscape:current-layer="svg2" />
  <metadata
     id="metadata8">
    <rdf:RDF>
      <cc:Work
         rdf:about="">
        <dc:format>image/svg+xml</dc:format>
        <dc:type
           rdf:resource="http://purl.org/dc/dcmitype/StillImage" />
        <dc:title></dc:title>
      </cc:Work>
    </rdf:RDF>
  </metadata>
  <defs
     id="defs6" />
  <g
     id="g4020"
     transform="translate(-375.73491,110.95527)">
    <path
       id="path3781-8"
       d="m 490.90625,-89.8125 c 0.35718,1.061541 0.51381,2.224217 0.5,3.46875 -0.002,0.227616 -0.0565,0.461628 -0.0937,0.6875 0.027,-0.05109 0.0773,-0.09697 0.125,-0.09375 0.29203,0.01972 0.16391,0.564001 0.25,0.84375 0.49971,1.837924 0.62946,3.813397 0.25,5.6875 0.009,0.411829 -0.002,0.452579 0,0.5625 9.71144,-0.126534 20.31368,-0.216113 33.5,-0.25 75.56024,-0.194183 81.29381,-0.09157 89.25,1.65625 12.11007,2.660347 20.62316,8.273486 24.28125,16 5.01633,10.59537 5.0165,10.561393 5.78125,32.125 0.40962,11.55 0.68125,63.79328 0.59375,116.09375 l -0.15625,95.09375 -3.90625,7.65625 c -5.46999,10.77701 -10.14498,14.79761 -21.15625,18.15625 l -8.8125,2.6875 -80.5625,0.34375 c -16.67417,0.0703 -30.1201,0.10937 -41.5,0.0937 0.0342,0.88493 -0.0693,1.66901 -0.53125,2.5 0.54098,1.0197 0.46476,0.30292 0.5,1.84375 -0.0503,0.38051 -0.083,0.78026 -0.15625,1.15625 0.23802,0.48042 0.47446,0.9338 0.65625,1.4375 0.58251,1.61404 0.89706,3.56752 0.53125,5.28125 12.88131,-0.14299 27.24786,-0.29264 44.4375,-0.40625 85.84402,-0.56733 85.7316,-0.5877 97.5,-6.5625 3.3,-1.67541 6.91204,-4.16456 8.0625,-5.53125 1.15046,-1.36669 3.34458,-3.23054 4.875,-4.15625 2.02443,-1.22451 3.45736,-3.59553 5.25,-8.6875 5.72817,-16.27085 5.47408,-10.66164 5.34375,-107.5 -0.0662,-49.225 -0.35055,-100.714425 -0.625,-114.4375 -0.49111,-24.556726 -0.56248,-25.1085 -3.59375,-34.25 -2.68231,-8.089145 -3.85129,-10.142742 -9.1875,-15.96875 -6.55644,-7.158243 -15.29511,-12.137421 -25.25,-14.375 -3.36767,-0.756956 -33.49888,-1.09695 -96.5625,-1.09375 0,0 -14.07016,-0.05395 -29.59375,-0.0625 z m -21.5625,11.15625 c -0.008,0.01257 -0.0235,0.01896 -0.0312,0.03125 0.0402,0.01224 0.0845,0.01901 0.125,0.03125 -0.0295,-0.02309 -0.0639,-0.03997 -0.0937,-0.0625 z m 18.0625,13.5625 c -16.54564,-0.02196 -33.01765,0.133717 -44.21875,0.5 -23.34353,0.763348 -26.39855,1.941123 -26.46875,10.21875 -0.0379,4.471078 0.97174,5.622429 11.8125,13.21875 5.86731,4.111338 8.29411,6.459431 9.0625,8.8125 0.69347,2.123624 1.0115,25.4186536 0.9375,68.71875 -0.0616,36.025 -0.0367,78.88355 0.0625,95.25 0.20847,34.39141 0.49143,33.16901 -9.25,39.375 -6.5209,4.15428 -11.65625,10.96338 -11.65625,15.40625 0,1.53287 1.05988,3.64946 2.5625,5.0625 2.53075,2.37986 2.98456,2.41542 24.75,2.90625 12.19459,0.275 39.65468,0.58285 61.03125,0.65625 36.83058,0.12651 38.96516,0.0348 40.75,-1.75 4.14557,-4.14557 1.40262,-8.13015 -6.96875,-10.0625 -3.677,-0.84875 -6.02817,-2.10996 -7.75,-4.15625 l -2.46875,-2.9375 0.21875,-30.46875 c 0.22926,-32.52297 0.33924,-33.21234 5.1875,-33.34375 1.19821,-0.0325 7.5875,-0.0426 14.1875,-0.0312 21.11044,0.0362 35.46107,-3.50697 47.71875,-11.8125 11.05099,-7.487913 15.79536,-14.15678 19.375,-27.09375 4.06709,-14.69863 2.89942,-27.13563 -3.65625,-38.59375 -3.60778,-6.30574 -3.62614,-4.502891 0.21875,-24.625 0.60279,-3.1545974 0.82404,-7.4296 0.5,-9.5 -0.32405,-2.0704 -1.04643,-6.836262 -1.625,-10.59375 -0.94956,-6.166951 -4.28531,-14.375537 -9.9375,-24.40625 -2.52876,-4.487702 -12.04911,-13.624184 -18.34375,-17.625 -7.09306,-4.508282 -17.17344,-8.396027 -24.90625,-9.625 -3.49648,-0.555694 -8.81875,-1.510607 -11.84375,-2.125 -3.92448,-0.797082 -31.70518,-1.338398 -59.28125,-1.375 z m 27.28125,10.4375 c 39.86693,0.08205 54.81028,3.855048 69.78125,17.59375 13.72414,12.594487 18.97154,24.959769 17.71875,41.8125 -1.35173,18.183716 -4.95203,27.38972 -15.28125,39.125 -8.93515,10.15145 -17.12342,14.55414 -33.6875,18.0625 -17.60403,3.72863 -24.53125,3.0471 -24.53125,-2.40625 0,-4.44516 4.15971,-7.09334 13.5,-8.625 9.86004,-1.61688 22.97956,-11.99188 28.125,-22.21875 4.5254,-8.99451 5.73236,-16.080574 5.125,-29.84375 -0.46371,-10.507809 -0.77238,-11.995869 -3.875,-18.15625 -3.64689,-7.241069 -12.51675,-16.750165 -19.375,-20.75 -7.65365,-4.463724 -12.91987,-5.0625 -44.84375,-5.0625 -29.38355,0 -29.86728,0.02534 -31.59375,2.15625 -1.62943,2.011134 -1.71756,5.468742 -1.3125,49 0.27867,29.947806 0.81139,47.29376 1.46875,48.09375 0.72658,0.88422 4.01876,1.20355 11.25,1.03125 10.81677,-0.25772 13.53125,0.58216 13.53125,4.3125 0,3.39894 -3.9495,4.86433 -12.78125,4.75 -12.58975,-0.16298 -14.21131,1.73915 -13.46875,15.65625 0.0587,1.1 0.1273,19.296777 0.1875,40.4375 0.13543,47.58653 0.75551,51.3847 9,55.5625 5.35908,2.71565 7.51097,4.89195 6.75,6.875 -0.42208,1.09997 -3.50011,1.3476 -14.875,1.25 -24.1318,-0.20714 -39.26864,-0.62909 -40.625,-1.125 -2.34633,-0.85787 0.56744,-4.34171 5.875,-7.03125 4.07549,-2.06521 5.40964,-3.42888 7.09375,-7.25 2.05718,-4.66758 2.09328,-5.49309 1.90625,-103.6875 -0.21604,-113.425061 0.52925,-104.501874 -9.21875,-110.75 -6.22995,-3.993182 -8.41972,-6.314626 -6.90625,-7.25 1.21032,-0.748023 47.27201,-1.63205 81.0625,-1.5625 z m -3.3125,19.8125 c 5.81846,0.0028 11.89785,0.259851 17.3125,0.8125 14.11342,1.440493 19.30994,3.298102 25.59375,9.125 4.35065,4.034301 11.40625,18.06222 11.40625,22.6875 0,5.31868 -0.13667,5.33675 -36.6875,5.34375 -28.9842,0.00583 -34.36848,0.22879 -37.6875,1.625 -4.63518,1.94986 -4.35159,1.92372 -5.3125,0.375 -1.04691,-1.68735 -1.2718,-35.19045 -0.25,-36.84375 1.18832,-1.922742 12.82438,-3.131254 25.625,-3.125 z m -120.71875,32.8125 c -0.33948,20.008583 -0.69747,45.297344 -0.59375,60.71875 0.26186,38.93432 1.04483,81.36918 0.53125,123.65625 0.94868,0.1053 1.59336,0.26633 2.21875,0.59375 0.18075,0.002 0.33936,0.0142 0.53125,0 l 4.0625,0 4.84375,0 C 401.09168,162.42249 400.49938,53.868533 400.96875,-2.03125 l -7.875,0 -2.4375,0 z M 486.25,8.59375 c 0.64384,-0.035332 1.84059,0.8192857 2.84375,2.0625 1.14646,1.42082 3.95494,3.30811 6.25,4.21875 2.29505,0.91064 4.40181,2.28676 4.6875,3.03125 0.28569,0.7445 0.83781,5.18021 1.21875,9.875 0.74727,9.20969 -0.34734,13.85412 -3.65625,15.625 -3.03495,1.62426 -6.66473,1.08194 -9.59375,-1.4375 l -2.8125,-2.40625 -0.0625,-15.125 c -0.0484,-8.97717 0.32136,-15.41977 0.90625,-15.78125 0.0679,-0.041932 0.12677,-0.057453 0.21875,-0.0625 z m 55.875,14.25 c 5.85972,-0.02974 12.64146,0.524269 14.40625,1.46875 1.17406,0.62834 2.15625,1.99064 2.15625,3.03125 0,2.51143 -6.08219,7.44657 -13.5,10.96875 -12.04063,5.71723 -14.99303,4.98722 -15.78125,-3.9375 -0.62956,-7.12829 0.38603,-9.56639 4.46875,-10.8125 1.57414,-0.48045 4.73417,-0.700905 8.25,-0.71875 z m 44.1875,36.6875 c 0.98469,-0.01538 1.66519,0.567635 2.28125,1.71875 1.07432,2.00739 -1.53875,7.68436 -1.9375,9.625 -0.51469,2.50492 -2.02347,3.56964 -2.59375,5.6875 -0.77947,2.89476 -1.93537,3.86115 -6.53125,7.625 -3.36245,2.75372 -7.49904,5.29345 -9.21875,5.65625 -1.71971,0.3628 -5.6,1.12843 -8.625,1.6875 -9.31109,1.72086 -23.11256,1.89598 -26.75,0.34375 -3.192,-1.36216 -3.25,-1.50931 -3.25,-7.90625 0,-8.06002 1.06503,-8.83854 12.5,-9.125 4.4,-0.11023 10.025,-0.73593 12.5,-1.375 8.93273,-2.30653 21.57459,-7.60163 25.8125,-10.8125 2.78089,-2.106951 4.54647,-3.105223 5.8125,-3.125 z M 493.375,75.3125 c 2.47038,0.02143 4.97269,0.722685 6.375,2.125 2.03979,2.03979 2.04252,2.686917 1.6875,45.90625 -0.28419,34.59749 -0.63687,44.17156 -1.6875,45.4375 -2.12871,2.56492 -4.86212,1.87228 -9.375,-2.34375 L 486.1875,162.5 486.125,149.6875 c -0.0318,-7.04866 -0.20408,-25.75913 -0.375,-41.59375 -0.28521,-26.421283 -0.1589,-28.95147 1.46875,-30.75 1.24827,-1.37932 3.68587,-2.052681 6.15625,-2.03125 z m 102.59375,41.875 c -7.58208,0.056 -8.98334,0.39234 -16.53125,4.0625 -6.51217,3.16653 -9.01953,5.05596 -11.84375,8.84375 -7.93898,10.64761 -9.90625,16.50497 -9.90625,29.5 0,10.947 2.38811,17.10093 9.5,24.4375 5.57319,5.74926 8.34781,7.47104 17.5,10.9375 1.925,0.72911 7.325,1.3513 12,1.375 7.41842,0.0376 9.28292,-0.35283 14.8125,-2.96875 5.06789,-2.39752 7.1299,-2.84767 10.28125,-2.34375 6.52237,1.04297 7.8883,-1.04212 7.9375,-12.0625 0.0385,-8.60362 0.20053,-9.28733 3,-12.5625 2.89623,-3.38837 3.6569,-6.41337 2.1875,-8.65625 -0.46026,-0.70253 -5.74208,-1.26283 -14.125,-1.5 l -13.375,-0.375 -2.09375,2.78125 -2.0625,2.78125 4.34375,3.96875 c 4.1926,3.83241 4.32481,4.14227 3.8125,8.6875 -0.429,3.80606 -1.2588,5.38377 -4.25,8.125 -3.5443,3.24812 -3.95938,3.35737 -10.0625,2.96875 -7.77764,-0.49524 -10.88497,-2.96976 -14.9375,-12 -2.52637,-5.62949 -2.66489,-6.73625 -2.3125,-17.65625 0.32267,-9.99886 0.74018,-12.4489 3,-17.3125 2.91894,-6.28213 5.13734,-8.14447 11.875,-9.9375 5.58367,-1.48594 8.26709,-0.86352 14.5625,3.34375 4.00573,2.67706 5.18756,4.13797 6.46875,8.1875 0.91847,2.90304 2.64143,5.75194 4.1875,6.90625 2.48867,1.85806 2.76789,1.86664 5.1875,0.28125 2.35045,-1.54007 2.5524,-2.23246 2.5625,-8.875 0.006,-3.97482 0.26845,-8.84618 0.59375,-10.8125 0.47705,-2.88356 0.12106,-4.14819 -1.875,-6.46875 -2.38985,-2.77837 -2.62574,-2.81018 -6.40625,-1.5625 -3.3573,1.10801 -4.74051,1.03697 -9.8125,-0.4375 -3.60765,-1.04877 -9.1589,-1.69365 -14.21875,-1.65625 z M 397.3125,190.5 l -0.0312,0.1875 c 0.0758,0.0332 0.17206,0.058 0.25,0.0937 0.003,-0.0937 -0.004,-0.18758 0,-0.28125 l -0.125,0 -0.0937,0 z m 76.90625,20.4375 c 0.11387,0.12153 0.18145,0.19877 0.28125,0.3125 0.048,-0.10058 0.10645,-0.21617 0.15625,-0.3125 -0.13624,-9.8e-4 -0.30205,0.001 -0.4375,0 z m 14.21875,4.375 c -0.009,0.004 0.13103,0.28193 0.375,0.71875 -0.003,-0.0204 0.003,-0.0422 0,-0.0625 -0.009,-0.0587 -0.35665,-0.66503 -0.375,-0.65625 z"
       style="fill:#000000"
       inkscape:connector-curvature="0" />
    <path
       sodipodi:nodetypes="cc"
       inkscape:connector-curvature="0"
       id="path3985"
       d="M 395.9249,-36.349006 395.41985,42.782"
       style="fill:none;stroke:#000000;stroke-width:11.10000038;stroke-linecap:square;stroke-linejoin:miter;stroke-miterlimit:4;stroke-opacity:1;stroke-dasharray:none" />
    <path
       sodipodi:nodetypes="cc"
       inkscape:connector-curvature="0"
       id="path3987"
       d="m 497.9713,-84.28 -62.61777,0"
       style="fill:none;stroke:#000000;stroke-width:11.10000038;stroke-linecap:butt;stroke-linejoin:miter;stroke-miterlimit:4;stroke-opacity:1;stroke-dasharray:none" />
    <path
       sodipodi:nodetypes="cc"
       inkscape:connector-curvature="0"
       id="path3989"
       d="m 436.86868,-84.484848 c 0,0 -40.90908,-0.50505 -40.90908,43.434344"
       style="fill:none;stroke:#000000;stroke-width:11.19999981;stroke-linecap:butt;stroke-linejoin:miter;stroke-miterlimit:4;stroke-opacity:1;stroke-dasharray:none" />
    <path
       sodipodi:nodetypes="cc"
       inkscape:connector-curvature="0"
       id="path4016"
       d="m 495.9511,217.035 -63.12282,0"
       style="fill:none;stroke:#000000;stroke-width:11.69999981;stroke-linecap:butt;stroke-linejoin:miter;stroke-miterlimit:4;stroke-opacity:1;stroke-dasharray:none" />
    <path
       sodipodi:nodetypes="cc"
       inkscape:connector-curvature="0"
       id="path4018"
       d="m 434.2386,216.73209 c 0,0 -37.82567,5.54776 -37.82567,-34.79961"
       style="fill:none;stroke:#000000;stroke-width:11.5;stroke-linecap:butt;stroke-linejoin:miter;stroke-miterlimit:4;stroke-opacity:1;stroke-dasharray:none" />
  </g>
</svg>
