<?xml version="1.0" encoding="UTF-8" standalone="no"?>
<!-- Created with Inkscape (http://www.inkscape.org/) -->

<svg xmlns:dc="http://purl.org/dc/elements/1.1/" xmlns:cc="http://creativecommons.org/ns#" xmlns:rdf="http://www.w3.org/1999/02/22-rdf-syntax-ns#" xmlns:svg="http://www.w3.org/2000/svg" xmlns="http://www.w3.org/2000/svg" xmlns:sodipodi="http://sodipodi.sourceforge.net/DTD/sodipodi-0.dtd" xmlns:inkscape="http://www.inkscape.org/namespaces/inkscape" id="svg2985" version="1.1" inkscape:version="0.48.5 r10040" width="1030.9036" height="674.7948" sodipodi:docname="Principal-financial-group-logo-png-webcontentpage.jpg">
  <metadata id="metadata2991">
    <rdf:RDF>
      <cc:Work rdf:about="">
        <dc:format>image/svg+xml</dc:format>
        <dc:type rdf:resource="http://purl.org/dc/dcmitype/StillImage" />
        <dc:title></dc:title>
      </cc:Work>
    </rdf:RDF>
  </metadata>
  <defs id="defs2989" />
  <sodipodi:namedview pagecolor="#ffffff" bordercolor="#666666" borderopacity="1" objecttolerance="10" gridtolerance="10" guidetolerance="10" inkscape:pageopacity="0" inkscape:pageshadow="2" inkscape:window-width="1366" inkscape:window-height="706" id="namedview2987" showgrid="false" fit-margin-top="0" fit-margin-left="0" fit-margin-right="0" fit-margin-bottom="0" inkscape:zoom="0.71287239" inkscape:cx="631.12076" inkscape:cy="229.6131" inkscape:window-x="-8" inkscape:window-y="-8" inkscape:window-maximized="1" inkscape:current-layer="svg2985" />
  <g id="g3200" transform="translate(0.5,0.5)">
    <path inkscape:connector-curvature="0" id="path2995" d="M 0,611.73796 0,0 1000.1233,0 z" style="fill:#003466;fill-opacity:1;stroke:black;stroke-width:1px;stroke-linecap:butt;stroke-linejoin:miter;stroke-opacity:1" />
    <path inkscape:connector-curvature="0" id="path3026" style="font-size:60px;font-style:normal;font-weight:bold;text-align:start;text-anchor:start;fill:white;font-family:Univers 55" d="m 20.685451,208.21995 29.369583,0 0,-43.78199 18.995254,-0.16839 c 3.08971,0.10881 7.211433,-0.1087 12.36518,-0.65252 5.153605,-0.54373 9.896323,-2.06627 14.228173,-4.56764 2.453468,-1.15064 5.619339,-4.32202 9.497629,-9.51417 3.87809,-5.19203 6.02115,-13.07839 6.42916,-23.65911 -0.064,-7.91084 -1.43388,-14.61144 -4.10955,-20.10183 -2.67587,-5.49018 -6.27401,-9.791192 -10.794417,-12.903051 -4.404914,-2.985335 -9.038048,-4.80257 -13.899417,-5.451702 -4.861513,-0.648891 -9.385057,-0.908496 -13.570641,-0.77881 l -48.510954,0 z m 29.369583,-99.01465 12.858325,0 c 4.493051,-0.27353 8.69392,0.48423 12.602619,2.27329 3.908567,1.78927 5.990739,6.25166 6.246518,13.38719 -0.331878,7.82681 -2.554078,12.5909 -6.666604,14.29229 -4.112656,1.70153 -8.12479,2.38212 -12.036414,2.04176 l -13.004444,0 z" />
    <path inkscape:connector-curvature="0" id="path3028" style="font-size:60px;font-style:normal;font-weight:bold;text-align:start;text-anchor:start;fill:white;font-family:Univers 55" d="m 119.19847,208.21995 27.32394,0 0,-35.86755 c -0.2527,-4.92544 0.83709,-9.8509 3.26938,-14.77642 2.4322,-4.92542 7.72286,-7.5776 15.87199,-7.95654 0.8736,6e-5 1.68333,0.0422 2.4292,0.1263 0.74575,0.0842 1.88425,0.21055 3.4155,0.37888 l 0,-27.11115 c -3.43382,-0.49457 -7.74428,0.15795 -12.93139,1.95756 -5.18721,1.79977 -9.49767,7.20937 -12.93138,16.2288 l -0.43835,-17.51279 -26.73948,0 0.73059,18.01797 z" />
    <path inkscape:connector-curvature="0" id="path3030" style="font-size:60px;font-style:normal;font-weight:bold;text-align:start;text-anchor:start;fill:white;font-family:Univers 55" d="m 179.0184,109.54209 28.05453,0 0,-22.564567 -28.05453,0 z m 0.29223,98.67786 27.47006,0 0,-84.53291 -27.47006,0 z" />
    <path inkscape:connector-curvature="0" id="path3032" style="font-size:60px;font-style:normal;font-weight:bold;text-align:start;text-anchor:start;fill:white;font-family:Univers 55" d="m 219.66517,208.21995 27.84981,0 0,-48.49697 c -0.0772,-1.17454 0.0772,-3.16614 0.46332,-5.97481 0.38608,-2.80856 1.4672,-5.44878 3.24336,-7.92067 1.77608,-2.47177 4.71055,-3.7898 8.80337,-3.9541 5.49484,0.37544 8.83953,2.61365 10.03413,6.71464 1.1945,4.10111 1.67231,7.81275 1.43346,11.13494 l 0,48.49697 27.99875,0 0,-51.19125 c 0.16901,-4.09229 -0.16925,-8.85509 -1.01492,-14.2884 -0.84588,-5.43318 -3.21404,-10.22092 -7.10449,-14.36323 -3.89064,-4.14216 -10.3185,-6.32294 -19.28362,-6.54235 -7.59856,0.21759 -13.25167,1.88748 -16.95935,5.00967 -3.70776,3.12235 -6.34504,6.39197 -7.91188,9.80885 l -0.29786,-12.9662 -27.99873,0 0.74465,18.01797 z" />
    <path inkscape:connector-curvature="0" id="path3034" style="font-size:60px;font-style:normal;font-weight:bold;text-align:start;text-anchor:start;fill:white;font-family:Univers 55" d="m 388.8965,153.32407 c -0.0343,-2.50127 -0.48721,-5.53935 -1.35898,-9.11423 -0.87194,-3.57476 -2.85146,-7.3285 -5.93855,-11.26123 -4.53622,-5.14641 -9.64947,-8.4932 -15.33974,-10.04039 -5.69039,-1.54702 -10.65472,-2.24164 -14.89296,-2.08385 -10.92465,-0.22444 -20.49957,3.04517 -28.72477,9.80885 -8.22527,6.76382 -12.55042,18.36884 -12.97548,34.81509 0.2606,15.20094 4.2817,26.47619 12.06326,33.8258 7.78155,7.34962 17.75981,11.00513 29.93486,10.96654 11.48302,-0.12278 20.61113,-3.28715 27.38442,-9.49311 6.77311,-6.20594 10.2047,-14.71676 10.29473,-25.53247 l -28.2966,0 c 0.17364,3.51521 -0.32272,7.17774 -1.48929,10.98759 -1.16667,3.80989 -4.04597,5.8727 -8.63791,6.18842 -3.57746,0.24557 -6.51261,-1.5085 -8.80546,-5.26227 -2.29295,-3.75371 -3.47817,-10.98054 -3.55569,-21.6805 -0.11495,-7.59163 0.71048,-13.87827 2.47594,-18.85993 1.76541,-4.98154 5.15976,-7.56355 10.18307,-7.74604 3.60837,0.10881 6.18362,1.53314 7.72571,4.27295 1.542,2.73994 2.29283,6.14287 2.25258,10.20878 z" />
    <path inkscape:connector-curvature="0" id="path3036" style="font-size:60px;font-style:normal;font-weight:bold;text-align:start;text-anchor:start;fill:white;font-family:Univers 55" d="m 398.23097,109.54209 28.59448,0 0,-22.564567 -28.59448,0 z m 0.29786,98.67786 27.99878,0 0,-84.53291 -27.99878,0 z" />
    <path inkscape:connector-curvature="0" id="path3038" style="font-size:60px;font-style:normal;font-weight:bold;text-align:start;text-anchor:start;fill:white;font-family:Univers 55" d="m 437.35672,123.68704 c 0.0714,1.54367 0.15197,3.12936 0.24207,4.75707 0.0899,1.62787 0.20774,4.6449 0.35368,9.05109 l 0,102.71927 27.99876,0 0,-42.09806 c 1.542,2.33294 4.04278,4.82374 7.50232,7.4724 3.45947,2.64867 8.4548,4.08702 14.98603,4.31506 8.81781,0.15085 16.5001,-3.3503 23.04685,-10.50347 6.54661,-7.15314 9.9844,-18.86341 10.31339,-35.13083 -0.1656,-11.44854 -2.01893,-20.28393 -5.56003,-26.50619 -3.54132,-6.22213 -7.77754,-10.51717 -12.70867,-12.88513 -4.93131,-2.3678 -9.56467,-3.49457 -13.90008,-3.38031 -7.69788,0.32634 -13.41301,2.15761 -17.14553,5.4938 -3.73257,3.33635 -6.20853,6.22006 -7.42787,8.65115 l -0.29787,-11.95585 z m 27.99873,41.92967 c -0.0884,-1.85747 0.0882,-4.822 0.52954,-8.89361 0.44123,-4.0715 1.67679,-7.87176 3.70668,-11.40078 2.02981,-3.5289 5.38349,-5.40823 10.06104,-5.63802 5.77097,0.50524 9.49419,3.5363 11.16971,9.09318 1.67538,5.557 2.42003,10.60876 2.23395,15.1553 0.14563,6.65504 -0.74161,12.75224 -2.66212,18.29161 -1.92062,5.53942 -5.74936,8.47927 -11.48619,8.81955 -4.19952,-0.18917 -7.26819,-1.88764 -9.20605,-5.09543 -1.93798,-3.20774 -3.16433,-6.78971 -3.67911,-10.74592 -0.51485,-3.95614 -0.73734,-7.15144 -0.66745,-9.58588 z" />
    <path inkscape:connector-curvature="0" id="path3040" style="font-size:60px;font-style:normal;font-weight:bold;text-align:start;text-anchor:start;fill:white;font-family:Univers 55" d="m 605.69451,208.21995 c -0.64855,-3.97827 -1.06434,-6.96723 -1.24728,-8.96689 -0.18313,-1.99965 -0.26382,-4.39924 -0.24207,-7.19877 l 0,-39.40379 c 0.0248,-4.57811 -0.4717,-8.76686 -1.48929,-12.56627 -1.01777,-3.79928 -2.70565,-7.01978 -5.06362,-9.6615 -4.23833,-4.2378 -9.20264,-6.96014 -14.89296,-8.16703 -5.69039,-1.20673 -10.35685,-1.73997 -13.99936,-1.59972 -6.85701,0.021 -12.98793,0.94729 -18.39278,2.77846 -5.40493,1.83135 -9.59979,4.44143 -12.58457,7.83025 -2.70866,3.36792 -4.3655,6.65156 -4.97051,9.85094 -0.60503,3.19952 -0.88429,5.80959 -0.83775,7.83024 l 26.80735,0 c 0.0248,-4.73246 1.01764,-8.06522 2.97856,-9.99829 1.96087,-1.93293 4.29411,-2.86611 6.9997,-2.79952 4.11413,0.16146 6.75762,1.9436 7.9305,5.34646 1.17275,3.40299 1.65677,7.45843 1.45208,12.16634 -16.20236,-0.85594 -28.73724,1.06654 -37.60473,5.76743 -8.86751,4.701 -13.36021,12.76978 -13.47811,24.20639 -0.0465,7.65134 2.05709,13.90289 6.31089,18.75468 4.25377,4.8518 10.93698,7.35664 20.04963,7.51451 7.5209,-0.21751 13.10577,-1.8032 16.75459,-4.75709 3.64871,-2.95387 6.25497,-5.97089 7.81879,-9.05107 -8e-5,2.67323 0.0745,4.98862 0.22331,6.94618 0.14905,1.95756 0.37229,3.68358 0.6702,5.17806 z m -27.7009,-39.90897 c 0.11787,1.86989 0.0682,4.2765 -0.14879,7.21982 -0.21723,2.94339 -0.86262,5.81307 -1.93608,8.60906 -1.51109,3.28367 -3.32928,5.47276 -5.45458,6.56729 -2.12538,1.09457 -3.98078,1.59974 -5.56625,1.51553 -3.36025,-0.0877 -5.91066,-1.21732 -7.65124,-3.38889 -1.74064,-2.17155 -2.6156,-4.8588 -2.62486,-8.06178 0.22965,-5.81301 2.63724,-9.38432 7.22307,-10.71396 4.58575,-1.32956 9.97202,-1.91191 16.15886,-1.74707 z" />
    <path inkscape:connector-curvature="0" id="path3042" style="font-size:60px;font-style:normal;font-weight:bold;text-align:start;text-anchor:start;fill:white;font-family:Univers 55" d="m 618.6527,208.21995 27.99873,0 0,-121.57921 -27.99873,0 z" />
    <path inkscape:connector-curvature="0" id="path3046" style="font-size:30px;font-style:normal;font-weight:normal;text-align:start;text-anchor:start;fill:white;font-family:Helvetica" d="m 682.08475,143.96136 c 3.90063,-0.0806 7.18975,-1.45197 9.86733,-4.11404 2.67754,-2.66207 4.07227,-6.13114 4.18418,-10.40723 -0.11203,-4.23934 -1.50664,-7.68607 -4.18418,-10.34018 -2.67758,-2.65407 -5.9667,-4.02222 -9.86733,-4.10446 -3.93589,0.0823 -7.24644,1.45039 -9.93167,4.10446 -2.68524,2.65411 -4.08304,6.10084 -4.19338,10.34018 0.11032,4.27609 1.50814,7.74516 4.19338,10.40723 2.68523,2.66207 5.99578,4.03342 9.93167,4.11404 z m -11.32947,-14.52127 c 0.0743,-3.50179 1.16712,-6.36421 3.27838,-8.58728 2.11125,-2.22303 4.79495,-3.37088 8.05109,-3.44354 3.22091,0.0727 5.88315,1.22051 7.98676,3.44354 2.10355,2.22307 3.19328,5.08549 3.26917,8.58728 -0.076,3.55529 -1.16562,6.44486 -3.26917,8.6687 -2.10361,2.22385 -4.76585,3.3701 -7.98676,3.43874 -3.25614,-0.0686 -5.93984,-1.21489 -8.05109,-3.43874 -2.11126,-2.22384 -3.20406,-5.11341 -3.27838,-8.6687 z m 8.38675,1.14944 2.7956,0 4.23015,7.24148 2.72204,0 -4.56124,-7.35642 c 1.20312,-0.13887 2.19018,-0.56992 2.96113,-1.29313 0.7709,-0.72317 1.16939,-1.82472 1.19548,-3.30464 7.3e-4,-1.63953 -0.46978,-2.84325 -1.41159,-3.61116 -0.94183,-0.76787 -2.35956,-1.14782 -4.25314,-1.13986 l -6.10615,0 0,16.70521 2.42772,0 z m 0,-2.14563 0,-5.17248 3.31058,0 c 0.88587,-0.0272 1.67978,0.12293 2.38176,0.4502 0.70194,0.32729 1.07286,0.9946 1.11273,2.00194 -0.0336,1.23647 -0.42611,2.01074 -1.17709,2.32283 -0.75103,0.31212 -1.65838,0.44462 -2.72203,0.39751 z" />
    <path d="m 476.48612,500.93677 10.16208,-47.80967 32.48022,0 3.58092,-16.84721 -32.48022,0 5.96821,-28.0787 33.99799,0 3.58092,-16.84722 -56.91627,0 -23.29214,109.5828 z" style="font-size:60px;font-style:italic;font-weight:bold;text-align:start;text-anchor:start;fill:#003466;fill-opacity:1;font-family:Univers 47 CondensedLight" id="path3092" inkscape:connector-curvature="0" />
    <path d="m 559.76665,424.28952 -21.40051,0 -16.2916,76.64725 21.40052,0 z m -14.39997,-32.93555 -3.58092,16.84722 21.40051,0 3.58093,-16.84722 z" style="font-size:60px;font-style:italic;font-weight:bold;text-align:start;text-anchor:start;fill:#003466;fill-opacity:1;font-family:Univers 47 CondensedLight" id="path3094" inkscape:connector-curvature="0" />
    <path d="m 600.0402,424.28952 -21.40052,0 -16.29159,76.64725 21.40051,0 11.22669,-52.8183 c 0.65092,-3.49397 1.74948,-6.3714 3.29567,-8.6323 1.5461,-2.26078 3.98921,-3.43072 7.32934,-3.50984 3.30642,0.0791 5.25217,1.24906 5.83728,3.50984 0.585,2.2609 0.46034,5.13833 -0.37396,8.6323 l -11.22668,52.8183 21.40051,0 13.06554,-61.46957 c 0.9745,-5.34374 -0.068,-9.45436 -3.12737,-12.33187 -3.05957,-2.87736 -7.20884,-4.33188 -12.44783,-4.36357 -1.97182,-0.006 -3.86604,0.15818 -5.68265,0.49327 -1.81673,0.33525 -3.56393,0.87912 -5.24159,1.6316 -1.58893,0.67675 -3.14485,1.60005 -4.66776,2.76992 -1.52302,1.17002 -3.00212,2.62455 -4.43733,4.36359 l -0.30355,0 z" style="font-size:60px;font-style:italic;font-weight:bold;text-align:start;text-anchor:start;fill:#003466;fill-opacity:1;font-family:Univers 47 CondensedLight" id="path3096" inkscape:connector-curvature="0" />
    <path d="m 683.2943,463.90325 c -0.52303,2.94094 -1.23649,6.36809 -2.14039,10.28146 -0.90399,3.91343 -2.40922,7.36307 -4.51569,10.34893 -2.10656,2.98589 -5.22516,4.558 -9.35581,4.71633 -3.34844,-0.16443 -5.25159,-1.50511 -5.70944,-4.02209 -0.45792,-2.51695 -0.32528,-5.22363 0.3979,-8.12006 1.48863,-6.49791 4.06532,-10.34923 7.73008,-11.554 3.66467,-1.20469 8.19579,-1.75488 13.59335,-1.65057 z m 24.23577,-15.48123 c 1.94613,-7.17771 1.51199,-13.19818 -1.30244,-18.06143 -2.81456,-4.8631 -10.78269,-7.39271 -23.90442,-7.58883 -4.11297,-0.019 -7.95009,0.36054 -11.51138,1.13832 -3.56138,0.77793 -6.75729,2.06803 -9.58775,3.87031 -2.88712,1.72653 -5.3367,4.11701 -7.34874,7.17145 -2.0121,3.05457 -3.51599,6.88693 -4.5117,11.49709 l 20.94519,0 c 0.53838,-3.14299 1.52475,-5.84967 2.95913,-8.12006 1.43428,-2.27027 3.95731,-3.45918 7.5691,-3.56675 3.73416,0.0602 5.91914,1.11626 6.55492,3.16834 0.63568,2.05221 0.5387,4.73992 -0.29093,8.06314 l -1.25816,5.91929 c -10.20925,-0.62919 -19.51488,0.51546 -27.91691,3.43395 -8.40208,2.91858 -14.10003,10.47579 -17.09386,22.67165 -1.54067,6.86158 -1.23078,12.6038 0.92967,17.22665 2.16042,4.62287 6.89857,7.026 14.21446,7.2094 4.59935,0.006 8.73088,-0.95493 12.39461,-2.88376 3.66365,-1.92883 7.03831,-4.86317 10.12398,-8.80305 l 0.30355,0 -1.2508,10.16904 19.88274,0 c 0.25785,-2.35886 0.52928,-4.73669 0.8143,-7.13351 0.28486,-2.39679 0.67013,-4.77462 1.15577,-7.1335 z" style="font-size:60px;font-style:italic;font-weight:bold;text-align:start;text-anchor:start;fill:#003466;fill-opacity:1;font-family:Univers 47 CondensedLight" id="path3098" inkscape:connector-curvature="0" />
    <path d="m 751.81888,424.28952 -21.40054,0 -16.29159,76.64725 21.40054,0 11.22666,-52.8183 c 0.65093,-3.49397 1.74948,-6.3714 3.29567,-8.6323 1.54612,-2.26078 3.98923,-3.43072 7.32934,-3.50984 3.30643,0.0791 5.25218,1.24906 5.83728,3.50984 0.58501,2.2609 0.46035,5.13833 -0.37395,8.6323 l -11.22669,52.8183 21.40051,0 13.06554,-61.46957 c 0.9745,-5.34374 -0.068,-9.45436 -3.12737,-12.33187 -3.05956,-2.87736 -7.20883,-4.33188 -12.44783,-4.36357 -1.97181,-0.006 -3.86603,0.15818 -5.68264,0.49327 -1.81674,0.33525 -3.56392,0.87912 -5.2416,1.6316 -1.58892,0.67675 -3.14483,1.60005 -4.66775,2.76992 -1.52303,1.17002 -3.00213,2.62455 -4.43733,4.36359 l -0.30356,0 z" style="font-size:60px;font-style:italic;font-weight:bold;text-align:start;text-anchor:start;fill:#003466;fill-opacity:1;font-family:Univers 47 CondensedLight" id="path3100" inkscape:connector-curvature="0" />
    <path d="m 860.9079,451.60934 c 2.06146,-9.96662 0.9213,-17.27719 -3.42043,-21.93174 -4.34191,-4.65442 -11.4794,-6.95636 -21.41251,-6.90584 -13.71947,0.30995 -23.27923,4.16761 -28.67928,11.57297 -5.40011,7.4055 -9.01525,16.49945 -10.84542,27.28187 -3.01532,12.19276 -3.34073,21.99499 -0.97625,29.40674 2.36446,7.41177 10.21919,11.21883 23.56415,11.4212 10.05506,0.0601 18.27175,-2.29878 24.65012,-7.07659 6.37825,-4.7778 10.69121,-12.33501 12.93898,-22.67165 l -21.40054,0 c -1.06774,5.05292 -2.7133,8.98647 -4.93668,11.80064 -2.22348,2.81421 -5.00629,4.24344 -8.34841,4.28769 -3.92317,0.27828 -6.16952,-1.5304 -6.73909,-5.42602 -0.56963,-3.89558 0.39915,-11.54765 2.90633,-22.95623 1.5362,-7.97139 3.31507,-13.96024 5.33661,-17.96657 2.02144,-4.00621 5.23012,-6.01092 9.62603,-6.01415 3.33688,-0.079 5.53006,1.02772 6.57961,3.32012 1.0494,2.29252 0.96817,6.24503 -0.24386,11.85756 z" style="font-size:60px;font-style:italic;font-weight:bold;text-align:start;text-anchor:start;fill:#003466;fill-opacity:1;font-family:Univers 47 CondensedLight" id="path3102" inkscape:connector-curvature="0" />
    <path d="m 905.41887,424.28952 -21.40054,0 -16.29159,76.64725 21.40054,0 z m -14.39998,-32.93555 -3.58094,16.84722 21.40054,0 3.58092,-16.84722 z" style="font-size:60px;font-style:italic;font-weight:bold;text-align:start;text-anchor:start;fill:#003466;fill-opacity:1;font-family:Univers 47 CondensedLight" id="path3104" inkscape:connector-curvature="0" />
    <path d="m 953.05716,463.90325 c -0.52303,2.94094 -1.23649,6.36809 -2.14038,10.28146 -0.904,3.91343 -2.40921,7.36307 -4.5157,10.34893 -2.10656,2.98589 -5.22515,4.558 -9.35579,4.71633 -3.34846,-0.16443 -5.25159,-1.50511 -5.70945,-4.02209 -0.45792,-2.51695 -0.32529,-5.22363 0.39791,-8.12006 1.48862,-6.49791 4.06531,-10.34923 7.73006,-11.554 3.66467,-1.20469 8.1958,-1.75488 13.59335,-1.65057 z m 24.23576,-15.48123 c 1.94614,-7.17771 1.512,-13.19818 -1.30241,-18.06143 -2.81456,-4.8631 -10.78271,-7.39271 -23.90443,-7.58883 -4.11297,-0.019 -7.95009,0.36054 -11.51138,1.13832 -3.56138,0.77793 -6.75728,2.06803 -9.58775,3.87031 -2.88711,1.72653 -5.33669,4.11701 -7.34875,7.17145 -2.01208,3.05457 -3.51597,6.88693 -4.51169,11.49709 l 20.9452,0 c 0.53836,-3.14299 1.52474,-5.84967 2.95913,-8.12006 1.43428,-2.27027 3.9573,-3.45918 7.5691,-3.56675 3.73416,0.0602 5.91911,1.11626 6.55491,3.16834 0.63568,2.05221 0.53869,4.73992 -0.29093,8.06314 l -1.25817,5.91929 c -10.20924,-0.62919 -19.51487,0.51546 -27.9169,3.43395 -8.40207,2.91858 -14.10004,10.47579 -17.09385,22.67165 -1.54068,6.86158 -1.2308,12.6038 0.92967,17.22665 2.16042,4.62287 6.89857,7.026 14.21445,7.2094 4.59935,0.006 8.73089,-0.95493 12.3946,-2.88376 3.66366,-1.92883 7.03831,-4.86317 10.124,-8.80305 l 0.30355,0 -1.25081,10.16904 19.88276,0 c 0.25782,-2.35886 0.52925,-4.73669 0.81426,-7.13351 0.28489,-2.39679 0.67016,-4.77462 1.1558,-7.1335 z" style="font-size:60px;font-style:italic;font-weight:bold;text-align:start;text-anchor:start;fill:#003466;fill-opacity:1;font-family:Univers 47 CondensedLight" id="path3106" inkscape:connector-curvature="0" />
    <path d="m 1009.0031,391.35397 -23.29215,109.5828 21.40055,0 23.2921,-109.5828 z" style="font-size:60px;font-style:italic;font-weight:bold;text-align:start;text-anchor:start;fill:#003466;fill-opacity:1;font-family:Univers 47 CondensedLight" id="path3108" inkscape:connector-curvature="0" />
    <path d="m 533.08716,565.47087 c 2.98636,-11.50646 1.98865,-20.29055 -2.99312,-26.35221 -4.98195,-6.06149 -13.15473,-9.11598 -24.51833,-9.16354 -12.31923,0.17631 -21.81921,2.94385 -28.49996,8.30275 -6.68084,5.35913 -11.60511,12.25279 -14.77283,20.68098 -3.16778,8.42837 -5.64167,17.33447 -7.42168,26.71834 -3.11737,13.80234 -4.62722,24.9345 -4.52956,33.39649 0.0976,8.46204 2.82809,14.61368 8.19138,18.45492 5.36324,3.84127 14.38465,5.73193 27.06423,5.67197 4.90139,-0.0759 10.51904,-0.53122 16.85298,-1.366 6.3338,-0.83476 11.29504,-1.59366 14.88372,-2.27663 l 11.80738,-55.55029 -35.36398,0 -3.58092,16.8472 12.44569,0 -5.1617,24.28429 c -1.89619,0.61976 -3.86299,1.12569 -5.9004,1.51776 -2.03752,0.39212 -4.01568,0.59447 -5.9345,0.60711 -6.49176,0.46166 -10.33648,-1.97939 -11.53417,-7.32322 -1.19776,-5.34379 0.0434,-16.36025 3.7236,-33.0494 2.03759,-10.98475 4.6322,-20.39491 7.78385,-28.23045 3.15154,-7.8354 8.18379,-11.93335 15.09674,-12.29393 5.85648,0.16139 9.26258,2.07755 10.2183,5.74855 0.95557,3.67119 0.74782,8.12962 -0.62323,13.37531 z" style="font-size:60px;font-style:italic;font-weight:bold;text-align:start;text-anchor:start;fill:#003466;fill-opacity:1;font-family:Univers 47 CondensedLight" id="path3112" inkscape:connector-curvature="0" />
    <path d="m 552.11977,564.71201 -16.29159,76.64724 21.40051,0 8.87166,-41.7386 c 0.49559,-4.1169 2.1772,-8.10104 5.04484,-11.95242 2.86755,-3.85128 8.78646,-5.63466 17.75674,-5.35012 l 4.06483,-19.12387 c -4.35068,-0.0759 -8.42197,0.721 -12.21389,2.39047 -3.79202,1.66961 -7.15482,4.66722 -10.08841,8.99278 l -0.30355,0 2.09694,-9.86548 z" style="font-size:60px;font-style:italic;font-weight:bold;text-align:start;text-anchor:start;fill:#003466;fill-opacity:1;font-family:Univers 47 CondensedLight" id="path3114" inkscape:connector-curvature="0" />
    <path d="m 618.24897,629.21711 c -3.92317,0.27826 -6.16952,-1.53041 -6.73908,-5.42601 -0.56962,-3.8956 0.39915,-11.54765 2.90632,-22.95625 1.53621,-7.97139 3.31508,-13.96025 5.33661,-17.96657 2.02145,-4.0062 5.23013,-6.01092 9.62605,-6.01413 4.39447,0.003 6.75093,2.00793 7.06939,6.01415 0.31834,4.00633 -0.44868,9.99516 -2.30108,17.96655 -2.34276,11.4086 -4.62693,19.06065 -6.85251,22.95625 -2.22568,3.8956 -5.24091,5.70427 -9.0457,5.42601 z m -2.90346,13.65991 c 13.43094,-0.20238 22.90406,-4.00944 28.41938,-11.4212 5.51518,-7.41176 9.35676,-17.214 11.52472,-29.40674 1.64021,-7.07349 2.40262,-13.53431 2.28723,-19.38246 -0.11555,-5.84801 -2.0467,-10.53248 -5.79347,-14.0534 -3.74692,-3.52075 -10.24726,-5.3271 -19.50105,-5.41898 -13.71949,0.30994 -23.27924,4.16759 -28.6793,11.57298 -5.40011,7.40548 -9.01524,16.49943 -10.84541,27.28186 -3.01532,12.19276 -3.34074,21.99498 -0.97625,29.40674 2.36446,7.41176 10.21917,11.21882 23.56415,11.4212 z" style="font-size:60px;font-style:italic;font-weight:bold;text-align:start;text-anchor:start;fill:#003466;fill-opacity:1;font-family:Univers 47 CondensedLight" id="path3116" inkscape:connector-curvature="0" />
    <path d="m 699.60163,641.35925 22.1594,0 c 0.30273,-2.51064 0.65703,-5.04024 1.06283,-7.58883 0.40568,-2.54859 0.87379,-5.07818 1.40433,-7.58886 l 13.06554,-61.46955 -21.40051,0 -11.29122,53.12185 c -0.64832,3.4814 -1.73612,6.30823 -3.26339,8.48051 -1.52738,2.17233 -3.95973,3.29167 -7.29709,3.35808 -3.30921,-0.0663 -5.26571,-1.18575 -5.86956,-3.35808 -0.6039,-2.17228 -0.48999,-4.99911 0.34173,-8.48051 l 11.29119,-53.12185 -21.40051,0 -13.06554,61.46955 c -0.97459,5.34383 0.0679,9.45445 3.12737,12.33187 3.05948,2.87744 7.20875,4.33197 12.44783,4.36359 3.9975,0.0412 7.62855,-0.64823 10.89318,-2.06796 3.26453,-1.41974 6.30992,-3.81655 9.13614,-7.19042 l 0.30356,0 z" style="font-size:60px;font-style:italic;font-weight:bold;text-align:start;text-anchor:start;fill:#003466;fill-opacity:1;font-family:Univers 47 CondensedLight" id="path3118" inkscape:connector-curvature="0" />
    <path d="m 770.53797,629.67245 c -3.56195,0.0665 -5.4588,-2.07745 -5.69059,-6.43155 -0.23197,-4.35407 0.71688,-11.31682 2.8462,-20.88826 1.46563,-7.78802 3.13383,-14.02982 5.00465,-18.72547 1.87075,-4.69552 4.92514,-7.10499 9.16318,-7.22836 4.40374,0.12345 6.56666,2.53284 6.4888,7.22836 -0.0779,4.69565 -1.04422,10.93745 -2.89875,18.72547 -1.93014,9.57144 -3.96028,16.53419 -6.09042,20.88826 -2.13027,4.3541 -5.07128,6.49795 -8.82307,6.43155 z m -16.24427,-64.96044 -23.29213,109.58279 21.40052,0 8.54903,-40.22085 0.30356,0 c 1.48424,3.22211 3.49065,5.50509 6.01924,6.84894 2.52853,1.34385 5.71651,1.99523 9.56397,1.95413 7.08574,-0.19858 12.56708,-2.44905 16.44403,-6.75125 3.87684,-4.30221 6.73921,-9.46448 8.58711,-15.48686 1.84773,-6.02233 3.27093,-11.71301 4.26953,-17.07207 1.30826,-5.46767 2.33891,-11.29514 3.09199,-17.48242 0.7529,-6.18718 0.0883,-11.49749 -1.99349,-15.93095 -2.08205,-4.4333 -6.72126,-6.75303 -13.9177,-6.95923 -4.08163,-0.0473 -7.78035,0.69255 -11.09618,2.21974 -3.31593,1.52733 -6.34741,4.12649 -9.09443,7.79751 l -0.30355,0 1.80659,-8.49948 z" style="font-size:60px;font-style:italic;font-weight:bold;text-align:start;text-anchor:start;fill:#003466;fill-opacity:1;font-family:Univers 47 CondensedLight" id="path3120" inkscape:connector-curvature="0" />
  </g>
</svg>
