<?xml version="1.0" encoding="UTF-8" standalone="no"?>
<!-- Created with Inkscape (http://www.inkscape.org/) -->

<svg xmlns:dc="http://purl.org/dc/elements/1.1/" xmlns:cc="http://creativecommons.org/ns#" xmlns:rdf="http://www.w3.org/1999/02/22-rdf-syntax-ns#" xmlns:svg="http://www.w3.org/2000/svg" xmlns="http://www.w3.org/2000/svg" xmlns:xlink="http://www.w3.org/1999/xlink" xmlns:sodipodi="http://sodipodi.sourceforge.net/DTD/sodipodi-0.dtd" xmlns:inkscape="http://www.inkscape.org/namespaces/inkscape" id="svg2985" version="1.1" inkscape:version="0.48.5 r10040" width="964.74548" height="286.28262" sodipodi:docname="Principal_financial_logo.jpg">
  <metadata id="metadata2991">
    <rdf:RDF>
      <cc:Work rdf:about="">
        <dc:format>image/svg+xml</dc:format>
        <dc:type rdf:resource="http://purl.org/dc/dcmitype/StillImage" />
        <dc:title></dc:title>
      </cc:Work>
    </rdf:RDF>
  </metadata>
  <defs id="defs2989">
    <linearGradient inkscape:collect="always" id="linearGradient3014">
      <stop style="stop-color:#00b9d9;stop-opacity:1" offset="0" id="stop3016" />
      <stop style="stop-color:#0377c7;stop-opacity:1" offset="1" id="stop3018" />
    </linearGradient>
    <linearGradient inkscape:collect="always" xlink:href="#linearGradient3014" id="linearGradient3020" x1="147.64403" y1="18.042128" x2="147.64403" y2="297.99054" gradientUnits="userSpaceOnUse" />
    <linearGradient inkscape:collect="always" xlink:href="#linearGradient3014" id="linearGradient3117" gradientUnits="userSpaceOnUse" x1="147.64403" y1="18.042128" x2="147.64403" y2="297.99054" gradientTransform="translate(17.351571,17.311137)" />
  </defs>
  <sodipodi:namedview pagecolor="#ffffff" bordercolor="#666666" borderopacity="1" objecttolerance="10" gridtolerance="10" guidetolerance="10" inkscape:pageopacity="0" inkscape:pageshadow="2" inkscape:window-width="1366" inkscape:window-height="706" id="namedview2987" showgrid="false" fit-margin-top="0" fit-margin-left="0" fit-margin-right="0" fit-margin-bottom="0" inkscape:zoom="0.51142479" inkscape:cx="957.04539" inkscape:cy="114.86778" inkscape:window-x="-8" inkscape:window-y="-8" inkscape:window-maximized="1" inkscape:current-layer="svg2985" />
  <g id="g3105" transform="translate(-17.351571,-17.311137)">
    <path id="path2999" d="m 150.1875,17.3125 c -2.05933,0.0099 -4.13239,0.09994 -6.25,0.21875 -131.451069,7.375305 -126.5625,136.25 -126.5625,136.25 1.780532,95.22054 85.09237,145.29519 140.15625,149.8125 l 0,-100.75 c -0.33638,-0.0144 -62.6875,-2.80179 -62.6875,-65.53125 0,-29.45756 11.41056,-44.930575 24.5,-53 0.0508,-0.03408 0.10528,-0.05983 0.15625,-0.09375 8.50395,-5.65878 19.06581,-9 30.5,-9 28.14568,0 50.96875,20.309278 50.96875,45.34375 0,22.74573 -18.85088,41.56159 -43.40625,44.8125 l 0,37.0625 c 0.34623,0.003 91.72101,0.79889 92.03125,-87.90625 C 249.75594,68.157432 214.02674,17.006815 150.1875,17.3125 z" style="fill:url(#linearGradient3117);fill-opacity:1;stroke:none" inkscape:connector-curvature="0" />
    <path sodipodi:nodetypes="cccccscccccsccc" inkscape:connector-curvature="0" id="path3057" style="font-size:60px;font-style:normal;font-weight:normal;text-align:start;text-anchor:start;fill:#58595b;fill-opacity:1;font-family:Trebuchet MS" d="m 314.21277,157.41968 0,45.79541 -19.93686,0 0,-127.849001 c 13.50758,0.01139 18.62411,0.422439 30.03556,0.07577 46.25141,1.57e-4 59.92812,16.555647 60.42791,40.404141 0.65919,31.45497 -22.96413,41.61566 -53.34927,41.61566 -5.28505,0 -10.62985,-0.0532 -17.17734,-0.042 z m 0,-65.518894 0,49.455214 c 7.1898,-0.0112 8.94597,0.042 9.35529,0.042 31.28789,-0.23541 41.22084,-3.39387 41.69186,-24.67486 0.491,-22.183621 -13.37215,-24.864154 -43.88439,-24.864301 -2.33873,1.12e-4 -3.12855,-0.06441 -7.16276,0.04198 z" />
    <path sodipodi:nodetypes="ccsscccccccc" inkscape:connector-curvature="0" id="path3059" style="font-size:60px;font-style:normal;font-weight:normal;text-align:start;text-anchor:start;fill:#58595b;fill-opacity:1;font-family:Trebuchet MS" d="m 451.66224,126.29128 c -3.62503,-1.70285 -8.54731,-1.67643 -12.2307,-1.67651 -5.90525,8e-5 -11.84532,2.00268 -16.25957,7.37341 -4.41432,5.37087 -6.52389,10.47333 -6.52389,18.03859 l 0,53.18832 -18.7116,0 0,-92.77636 15.88284,0 0.68281,11.88673 c 6.08057,-11.03027 15.11377,-14.49704 27.09962,-14.49714 2.98178,10e-5 6.59631,0.32476 12.20924,1.36418 z" />
    <path sodipodi:nodetypes="csccccccccccscc" inkscape:connector-curvature="0" id="path3063" style="font-size:60px;font-style:normal;font-weight:normal;text-align:start;text-anchor:start;fill:#58595b;fill-opacity:1;font-family:Trebuchet MS" d="m 574.83295,203.21509 0,-55.30755 c 0,-9.87529 -3.70167,-15.27271 -6.99668,-19.22869 -3.9203,-3.15207 -6.49162,-4.6835 -14.2334,-4.68358 -4.15889,8e-5 -7.5273,0.8583 -12.06999,3.11049 -4.54278,2.25235 -9.72662,8.23943 -11.71138,17.15747 l 0,58.95186 -18.23492,0 0,-94.19722 15.63399,0 0.72549,12.75009 c 6.01428,-9.12451 18.15751,-14.66917 31.78575,-14.66927 22.52164,10e-5 34.13982,13.96624 34.13982,38.68342 l 0,57.43298 z" />
    <path sodipodi:nodetypes="ccccssssccssssccc" inkscape:connector-curvature="0" id="path3065" style="font-size:60px;font-style:normal;font-weight:normal;text-align:start;text-anchor:start;fill:#58595b;fill-opacity:1;font-family:Trebuchet MS" d="m 688.05186,118.74263 -8.60574,14.00495 c -1.64094,-1.68091 -9.17025,-5.62893 -13.32891,-7.1361 -4.15881,-1.50701 -7.77602,-1.63282 -11.79325,-1.6329 -8.77019,8e-5 -15.4943,4.32166 -20.64319,10.61078 -5.14894,6.28927 -6.5464,11.30211 -6.5464,22.25743 0,10.89745 3.02337,16.84695 8.28546,22.55647 5.26207,5.70956 10.75636,7.9366 20.09235,7.93659 7.24238,10e-6 16.58151,-2.39846 23.93716,-8.13701 l 8.87635,13.4408 c -8.65706,5.73854 -23.77336,11.58951 -36.56071,11.58951 -12.39138,0 -22.63266,-4.26042 -30.72379,-12.78127 -8.09116,-8.52084 -12.99986,-18.95732 -12.99986,-34.60509 0,-18.36995 5.0643,-26.75076 13.46669,-35.73541 8.40232,-8.98447 19.9025,-13.47675 34.50059,-13.47685 4.69619,1e-4 9.78853,1.01448 15.27699,3.04316 5.48835,2.02887 14.16341,5.92032 16.76626,8.06494 z" />
    <path sodipodi:nodetypes="cccccccccsssccccsccccc" inkscape:connector-curvature="0" id="path3069" style="font-size:60px;font-style:normal;font-weight:normal;text-align:start;text-anchor:start;fill:#58595b;fill-opacity:1;font-family:Trebuchet MS" d="m 765.5266,195.21065 0,44.79652 -18.51512,0 0,-130.98019 15.63979,0 1.48644,11.58112 c 6.75032,-6.23697 16.26185,-13.29065 28.02398,-13.29078 14.25071,1e-4 22.22008,4.10039 30.15809,12.30088 7.93784,8.20067 12.13827,20.56001 12.13837,36.38361 -1e-4,14.09118 -5.73643,27.1026 -13.73677,36.02505 -8.0005,8.92247 -15.28124,12.45778 -29.48106,12.45778 -4.25029,0 -10.83005,-1.52475 -15.60895,-3.12069 -4.49686,-1.50175 -8.72975,-4.36303 -10.10477,-6.1533 z m 0.69444,-50.29378 0,30.90649 c 0.77781,6.30464 5.66517,7.32875 9.98484,9.66955 3.62516,1.41491 8.19825,2.46955 11.63601,2.46955 14.95023,1e-5 26.70775,-10.73991 27.17081,-31.52537 -10e-5,-11.72331 -1.69931,-19.37335 -6.94952,-24.80197 -5.25034,-5.42848 -10.41232,-7.67987 -17.11831,-7.67987 -2.50018,8e-5 -11.00263,0.5771 -15.20649,4.16163 -3.62523,1.61709 -10.28578,12.92695 -9.51734,16.79999 z" />
    <path sodipodi:nodetypes="cssssccccccccscccccccssscc" inkscape:connector-curvature="0" id="path3071" style="font-size:60px;font-style:normal;font-weight:normal;text-align:start;text-anchor:start;fill:#58595b;fill-opacity:1;font-family:Trebuchet MS" d="m 905.90289,192.5601 c -6.66533,8.25834 -15.01603,12.3875 -28.75581,12.3875 -7.36693,0 -17.57393,-3.22078 -22.98213,-8.50497 -5.40823,-5.28416 -8.80678,-11.27459 -8.80678,-19.12869 0,-9.41332 2.66116,-18.75735 10.99275,-25.25433 8.33159,-6.49689 18.84228,-8.00925 31.7636,-8.00931 3.508,6e-5 11.76617,0.75082 16.20973,2.25228 0,-16.17415 -6.78226,-22.86988 -20.34662,-22.86996 -10.40722,8e-5 -22.35241,2.19341 -27.96527,7.73739 l -6.32165,-15.50963 c 3.15725,-2.54094 10.42119,-4.48955 16.00484,-6.30878 5.58359,-1.81905 13.00207,-2.49714 18.08877,-2.49724 13.62283,1e-4 21.7823,3.06088 27.95068,9.18235 6.16822,6.12164 11.22005,10.52855 11.22005,30.81331 l 0,33.26435 c -1.2e-4,10.92062 6.04348,8.7103 11.76502,7.95236 l 1.15741,15.5211 c -6.66655,2.43055 -17.40988,0.32026 -20.77168,-1.58551 -3.36194,-1.90576 -7.74129,-5.05317 -9.20291,-9.44222 z m -1.57864,-33.52136 c -5.26211,-1.15496 -12.07055,-2.42692 -17.41603,-1.964 -8.41936,4e-5 -11.26151,0.89505 -15.98015,4.327 -4.27489,3.1092 -7.17061,6.43324 -7.17058,12.26602 -3e-5,9.64437 5.5275,15.50818 17.04561,15.50819 10.27109,1e-5 17.72568,-3.02998 22.94245,-15.68718 1.04701,-5.73633 1.21027,-9.56518 0.5787,-14.45003 z" />
    <path sodipodi:nodetypes="sccscccs" inkscape:connector-curvature="0" id="path3073" style="font-size:60px;font-style:normal;font-weight:normal;text-align:start;text-anchor:start;fill:#58595b;fill-opacity:1;font-family:Trebuchet MS" d="m 946.88876,176.96744 0,-106.849028 18.3,0 0.77772,104.076998 c 0.0371,4.96643 0.0644,10.60745 2.95859,13.46609 2.98051,1.38963 8.58096,0.48578 11.3573,-0.81044 l 1.81469,16.54109 c -20.96958,3.02449 -35.2083,-2.86081 -35.2083,-26.42471 z" />
    <path id="rect3096" d="m 477.375,71.75 c -6.86732,0 -12.4375,5.600633 -12.4375,12.53125 0,6.930616 5.57018,12.5625 12.4375,12.5625 6.86732,0 12.4375,-5.631884 12.4375,-12.5625 0,-6.930617 -5.57018,-12.53125 -12.4375,-12.53125 z m -9.09375,37.53125 0,93.65625 18.65625,0 0,-93.65625 -18.65625,0 z" style="fill:#58595b;fill-opacity:1;fill-rule:evenodd;stroke:none" inkscape:connector-curvature="0" />
    <path inkscape:connector-curvature="0" style="fill:#58595b;fill-opacity:1;fill-rule:evenodd;stroke:none" d="m 713.35275,71.75 c -6.86732,0 -12.4375,5.600633 -12.4375,12.53125 0,6.930616 5.57018,12.5625 12.4375,12.5625 6.86732,0 12.4375,-5.631884 12.4375,-12.5625 0,-6.930617 -5.57018,-12.53125 -12.4375,-12.53125 z m -9.09375,37.53125 0,93.65625 18.65625,0 0,-93.65625 -18.65625,0 z" id="path3103" />
  </g>
</svg>
