<?xml version="1.0" encoding="UTF-8" standalone="no"?>
<svg
   xmlns:dc="http://purl.org/dc/elements/1.1/"
   xmlns:cc="http://creativecommons.org/ns#"
   xmlns:rdf="http://www.w3.org/1999/02/22-rdf-syntax-ns#"
   xmlns:svg="http://www.w3.org/2000/svg"
   xmlns="http://www.w3.org/2000/svg"
   xmlns:sodipodi="http://sodipodi.sourceforge.net/DTD/sodipodi-0.dtd"
   xmlns:inkscape="http://www.inkscape.org/namespaces/inkscape"
   version="1.1"
   id="svg10602"
   viewBox="0 0 1000 218.135"
   height="218.13499"
   width="1000"
   inkscape:version="0.91 r13725"
   sodipodi:docname="Qualcomm.svg">
  <sodipodi:namedview
     pagecolor="#ffffff"
     bordercolor="#666666"
     borderopacity="1"
     objecttolerance="10"
     gridtolerance="10"
     guidetolerance="10"
     inkscape:pageopacity="0"
     inkscape:pageshadow="2"
     inkscape:window-width="1366"
     inkscape:window-height="705"
     id="namedview4171"
     showgrid="false"
     inkscape:zoom="0.62549801"
     inkscape:cx="760.59905"
     inkscape:cy="360.49038"
     inkscape:window-x="-8"
     inkscape:window-y="-8"
     inkscape:window-maximized="1"
     inkscape:current-layer="svg10602" />
  <defs
     id="defs10604">
    <clipPath
       id="clipPath10558"
       clipPathUnits="userSpaceOnUse">
      <path
         id="path10560"
         d="M 0,0 612,0 612,792 0,792 0,0 Z"
         inkscape:connector-curvature="0" />
    </clipPath>
    <clipPath
       id="clipPath10526"
       clipPathUnits="userSpaceOnUse">
      <path
         id="path10528"
         d="M 0,0 612,0 612,792 0,792 0,0 Z"
         inkscape:connector-curvature="0" />
    </clipPath>
  </defs>
  <metadata
     id="metadata10607">
    <rdf:RDF>
      <cc:Work
         rdf:about="">
        <dc:format>image/svg+xml</dc:format>
        <dc:type
           rdf:resource="http://purl.org/dc/dcmitype/StillImage" />
        <dc:title></dc:title>
      </cc:Work>
    </rdf:RDF>
  </metadata>
  <path
     id="path10532"
     style="opacity:1;fill:#000000;fill-opacity:1;fill-rule:nonzero;stroke:none"
     d="m 406.955,133.61792 c 0,4.11149 4.77526,8.89456 8.87894,8.89456 l 60.85238,-0.0391 -13.61906,-21.92794 -35.25026,0 0,-84.353856 -20.85419,0 -0.008,97.426286 z"
     inkscape:connector-curvature="0" />
  <path
     id="path10536"
     style="opacity:1;fill:#000000;fill-opacity:1;fill-rule:nonzero;stroke:none"
     d="M 183.76753,91.881423 C 183.76753,41.141824 142.62921,-3.9249512e-4 91.881807,-3.9249512e-4 41.138303,-3.9249512e-4 -1.2207e-5,41.141824 -1.2207e-5,91.881423 c 0,50.743507 41.138315207,91.885727 91.881819207,91.885727 5.396085,0 10.522753,-0.50368 15.665043,-1.39392 l -0.15618,35.76175 25.8403,0 0,-44.49232 c 29.84246,-15.18869 50.53656,-45.99167 50.53656,-81.761237 m -50.53656,42.875847 0,-29.58476 -25.8403,7.37959 0.0273,36.66761 c -4.95877,1.34707 -10.151822,2.17874 -15.536193,2.17874 -32.868484,0 -59.517022,-26.64463 -59.517022,-59.517027 0,-32.864579 26.648538,-59.513118 59.517022,-59.513118 32.872383,0 59.517023,26.648539 59.517023,59.513118 0,16.824697 -6.96181,32.036817 -18.16786,42.875847"
     inkscape:connector-curvature="0" />
  <path
     id="path10540"
     style="opacity:1;fill:#000000;fill-opacity:1;fill-rule:nonzero;stroke:none"
     d="m 268.52472,142.52341 -60.04414,0 c -4.11148,0 -8.94532,-4.76745 -8.94532,-8.87894 l -0.0429,-97.453613 20.8581,0 0,84.353853 36.17563,0 0,-84.353853 20.862,0 0.0195,97.453613 c 0,4.11149 -4.77136,8.87894 -8.88285,8.87894"
     inkscape:connector-curvature="0" />
  <path
     id="path10544"
     style="opacity:1;fill:#000000;fill-opacity:1;fill-rule:nonzero;stroke:none"
     d="m 548.58544,40.113756 c -8.33621,-4.884589 -18.10929,-7.699768 -28.47587,-7.699768 -31.13486,0 -56.38167,25.242901 -56.38167,56.377765 0,31.146587 25.24681,56.393387 56.38167,56.393387 9.73014,0 19.03467,-2.53795 27.02728,-6.87981 L 536.9616,119.9969 c -5.02125,2.72928 -10.7336,4.29891 -16.85203,4.29891 -19.60864,0 -35.50405,-15.89541 -35.50405,-35.504057 0,-19.60083 15.89541,-35.496244 35.50405,-35.496244 6.62212,0 12.84597,1.874183 18.15225,5.032962 l 10.32362,-18.214715 z"
     inkscape:connector-curvature="0" />
  <path
     id="path10548"
     style="opacity:1;fill:#000000;fill-opacity:1;fill-rule:nonzero;stroke:none"
     d="m 596.88626,32.710734 c -31.13486,0 -56.33482,25.38737 -56.33482,56.526139 0,31.138777 25.19996,56.233307 56.33482,56.233307 31.14658,0 56.39338,-25.24681 56.39338,-56.377776 0,-31.142673 -25.2468,-56.38167 -56.39338,-56.38167 m 0,91.877916 c -19.59693,0 -35.45329,-15.75094 -35.45329,-35.351777 0,-19.60083 15.85636,-35.644617 35.45329,-35.644617 19.60864,0 35.51577,15.895414 35.51577,35.500148 0,19.604736 -15.90713,35.496246 -35.51577,35.496246"
     inkscape:connector-curvature="0" />
  <path
     id="path10552"
     style="opacity:1;fill:#000000;fill-opacity:1;fill-rule:nonzero;stroke:none"
     d="m 352.51002,36.376237 -20.67068,0 -46.51487,105.578983 22.14659,0 10.92883,-23.26721 48.21336,0.0117 0.98785,2.23341 9.2772,21.02208 22.1466,0 -46.51488,-105.578977 z m -27.14051,65.002913 16.77394,-38.151338 16.8325,38.151338 -33.60644,0 z"
     inkscape:connector-curvature="0" />
  <path
     id="path10564"
     style="opacity:1;fill:#000000;fill-opacity:1;fill-rule:nonzero;stroke:none"
     d="M 988.73497,129.4506 950.54068,41.317138 c -2.28416,-4.248148 -6.20432,-6.208231 -11.75659,-6.208231 -5.54055,0 -9.46072,1.960083 -11.74488,6.208231 L 898.96161,105.94522 870.884,41.317138 c -2.27244,-4.248148 -6.19261,-6.208231 -11.74488,-6.208231 -5.55226,0 -9.47243,1.960083 -11.75659,6.208231 l -28.0776,64.776452 -28.06589,-64.776452 c -2.28416,-4.248148 -6.20433,-6.208231 -11.74488,-6.208231 -5.55227,0 -9.47244,1.960083 -11.7566,6.208231 l -28.0776,64.628082 -28.06589,-64.628082 c -2.29587,-4.248148 -6.20823,-6.208231 -11.75659,-6.208231 -5.55227,0 -9.46463,1.960083 -11.7566,6.208231 L 649.8866,129.4506 c -5.25552,13.79086 13.71667,20.88933 19.91319,9.7926 l 30.03769,-70.18425 30.02597,70.18425 c 3.92407,7.18437 16.00084,6.86029 19.59302,0 l 30.03769,-70.18425 30.02597,70.18425 c 1.9718,3.52581 5.22819,5.04077 8.5822,5.25943 0.41778,0.0664 0.79652,0.0859 1.2026,0.10542 0.41778,-0.0195 0.80824,-0.039 1.21431,-0.10542 3.35401,-0.21866 6.62211,-1.73362 8.59001,-5.25943 L 859.13912,69.05895 889.169,139.2432 c 3.58828,6.86029 15.66505,7.18437 19.5774,0 l 30.03769,-70.18425 30.02988,70.18425 c 6.21604,11.09673 25.16871,3.99826 19.921,-9.7926"
     inkscape:connector-curvature="0" />
  <path
     id="path10568"
     style="opacity:1;fill:#000000;fill-opacity:1;fill-rule:nonzero;stroke:none"
     d="m 987.53276,37.096322 c -6.7822,0 -12.52188,5.22038 -12.52188,12.295421 0,7.141418 5.73968,12.361798 12.52188,12.361798 6.71582,0 12.46722,-5.22038 12.46722,-12.361798 0,-7.075041 -5.7514,-12.295421 -12.46722,-12.295421 m 0,22.603427 c -5.64598,0 -10.0425,-4.369189 -10.0425,-10.308006 0,-5.833394 4.39652,-10.241629 10.0425,-10.241629 5.5796,0 9.98393,4.408235 9.98393,10.241629 0,5.938817 -4.40433,10.308006 -9.98393,10.308006 m 5.67331,-13.337935 c 0,-2.803465 -1.65943,-4.045112 -5.02125,-4.045112 l -5.4078,0 0,14.216459 2.13969,0 0,-6.161376 2.4833,0 3.75227,6.161376 2.41301,0 -4.04121,-6.25899 c 2.08112,-0.261605 3.68199,-1.370496 3.68199,-3.912357 m -8.28936,2.182642 0,-4.400425 2.94013,0 c 1.50325,0 3.0963,0.327982 3.0963,2.088933 0,2.182642 -1.62038,2.311492 -3.45943,2.311492 l -2.577,0 z"
     inkscape:connector-curvature="0" />
</svg>
