<?xml version="1.0" encoding="UTF-8" standalone="no"?>
<!-- Created with Inkscape (http://www.inkscape.org/) -->

<svg
   xmlns:dc="http://purl.org/dc/elements/1.1/"
   xmlns:cc="http://creativecommons.org/ns#"
   xmlns:rdf="http://www.w3.org/1999/02/22-rdf-syntax-ns#"
   xmlns:svg="http://www.w3.org/2000/svg"
   xmlns="http://www.w3.org/2000/svg"
   xmlns:sodipodi="http://sodipodi.sourceforge.net/DTD/sodipodi-0.dtd"
   xmlns:inkscape="http://www.inkscape.org/namespaces/inkscape"
   width="1000"
   height="183.75667"
   id="svg10772"
   version="1.1"
   inkscape:version="0.48.5 r10040"
   sodipodi:docname="New document 2">
  <defs
     id="defs10774" />
  <sodipodi:namedview
     id="base"
     pagecolor="#ffffff"
     bordercolor="#666666"
     borderopacity="1.0"
     inkscape:pageopacity="0.0"
     inkscape:pageshadow="2"
     inkscape:zoom="0.40845084"
     inkscape:cx="482.05523"
     inkscape:cy="-372.07726"
     inkscape:document-units="px"
     inkscape:current-layer="g4754"
     showgrid="false"
     fit-margin-top="0"
     fit-margin-left="0"
     fit-margin-right="0"
     fit-margin-bottom="0"
     inkscape:window-width="1021"
     inkscape:window-height="1042"
     inkscape:window-x="893"
     inkscape:window-y="-18"
     inkscape:window-maximized="0" />
  <metadata
     id="metadata10777">
    <rdf:RDF>
      <cc:Work
         rdf:about="">
        <dc:format>image/svg+xml</dc:format>
        <dc:type
           rdf:resource="http://purl.org/dc/dcmitype/StillImage" />
        <dc:title></dc:title>
      </cc:Work>
    </rdf:RDF>
  </metadata>
  <g
     inkscape:label="Layer 1"
     inkscape:groupmode="layer"
     id="layer1"
     transform="translate(-300.04948,-362.33951)">
    <g
       style="fill:#222222;fill-opacity:1;stroke:none"
       id="g4754"
       transform="matrix(6.6710678,0,0,6.6710678,299.58251,360.92735)">
      <path
         style="fill-rule:nonzero"
         inkscape:connector-curvature="0"
         id="path4756"
         d="m 40.521541,8.1048395 -1.933427,0 c -0.361013,0 -0.720021,0.3269176 -0.720021,0.720021 l 0,8.1568955 c 0,2.522079 -1.573416,4.323134 -4.225861,4.323134 -2.719634,0 -4.094493,-1.736875 -4.094493,-4.35723 l 0,-8.1227995 C 29.54443,8.4285681 29.224031,8.1081087 28.827718,8.1048395 l -1.932424,0 c -0.394106,0 -0.752111,0.3269176 -0.752111,0.720021 l 0,8.6803645 c 0,4.02931 2.521077,6.746937 6.615569,6.746937 2.454891,0 4.126583,-0.982758 5.109341,-2.4228 l 0,1.309676 c 0,0.393103 0.359008,0.687931 0.720021,0.687931 l 1.932424,0 c 0.393104,0 0.754117,-0.326918 0.754117,-0.721024 l 0,-14.2469888 C 41.270343,8.4442822 40.935202,8.1091817 40.520538,8.1048395 M 17.230166,19.195971 15.725944,15.277973 C 15.595578,14.951056 15.33284,14.656228 14.743185,14.656228 l -1.963511,0 c -0.492382,0 -0.885485,0.326918 -0.655841,0.949666 l 1.985573,5.154468 c -0.657846,0.162456 -1.3538,0.250703 -2.084851,0.250703 -4.8466041,0 -8.2862587,-3.800668 -8.2862587,-8.779643 0,-4.9779722 3.4396546,-8.7776373 8.2862587,-8.7776373 4.849612,0 8.288263,3.7996651 8.288263,8.7776373 0,2.891115 -1.161259,5.382107 -3.082652,6.965551 M 12.025557,0.21168464 C 5.4079829,0.21168464 0.07,5.3531158 0.07,12.231422 c 0,6.879309 5.3389857,12.021743 11.954555,12.021743 1.13318,0 2.226248,-0.154433 3.262156,-0.439233 l 1.290622,3.354416 c 0.131369,0.359007 0.393104,0.588652 0.885486,0.588652 l 2.063793,0 c 0.490376,0 0.851389,-0.326918 0.621745,-0.949666 L 18.465634,22.42002 C 21.78495,20.336171 23.981115,16.641801 23.981115,12.231422 23.980112,5.3531158 18.640123,0.21268745 12.023552,0.21268745 M 149.91459,23.040762 144.44424,8.7275874 c -0.16346,-0.4261962 -0.45829,-0.6237507 -0.85139,-0.6237507 l -2.35762,0 c -0.39411,0 -0.68793,0.1975545 -0.85239,0.6237507 L 136.55208,19.175914 132.62105,8.7265846 c -0.16346,-0.4251934 -0.45829,-0.6217451 -0.85239,-0.6217451 l -2.32453,0 c -0.3931,0 -0.68793,0.1965517 -0.85239,0.6217451 L 124.7279,19.175914 120.86305,8.7265846 c -0.16346,-0.4251934 -0.45829,-0.6217451 -0.85139,-0.6217451 l -2.32653,0 c -0.3921,0 -0.68693,0.1965517 -0.85039,0.6217451 L 112.9358,19.175914 109.07095,8.7265846 c -0.16346,-0.4251934 -0.45829,-0.6217451 -0.85139,-0.6217451 l -2.35762,0 c -0.3931,0 -0.68793,0.1965517 -0.85239,0.6217451 L 99.539194,23.041765 c -0.163458,0.393103 0.03209,0.786207 0.524476,0.786207 l 2.09588,0 c 0.3931,0 0.72002,-0.197555 0.85139,-0.590658 l 4.02831,-10.807335 4.02931,10.807335 c 0.16345,0.427199 0.45828,0.591661 0.85239,0.591661 l 1.93142,0 c 0.3931,0 0.68793,-0.164462 0.85139,-0.591661 l 4.12658,-10.807335 3.99622,10.807335 c 0.16346,0.393103 0.45828,0.591661 0.85139,0.591661 l 2.0307,0 c 0.3941,0 0.68793,-0.198558 0.85239,-0.591661 l 4.02931,-10.807335 4.09249,10.807335 c 0.16346,0.427199 0.46029,0.591661 0.85239,0.591661 l 1.93343,0 c 0.39109,0 0.68793,-0.164462 0.85139,-0.591661 l 4.0614,-10.743154 3.99521,10.743154 c 0.13037,0.393103 0.45929,0.591661 0.85139,0.591661 l 2.16207,0 c 0.49138,0 0.68793,-0.394107 0.52447,-0.78721 M 51.789168,21.108338 c -2.816907,0 -4.815517,-2.293437 -4.815517,-5.141431 0,-2.883092 1.99861,-5.111347 4.815517,-5.111347 2.78281,0 4.81351,2.228255 4.81351,5.111347 0,2.847994 -2.0307,5.141431 -4.81351,5.141431 m 7.466958,-13.0045013 -1.932424,0 c -0.413862,0.00543 -0.747799,0.3402149 -0.752111,0.7541167 l 0,1.3096756 c -0.982758,-1.4731344 -2.883092,-2.5210759 -5.14444,-2.5210759 -4.256948,0 -7.924242,3.3744719 -7.924242,8.2862579 0,4.979978 3.667294,8.320354 7.892152,8.320354 2.293438,0 4.159676,-1.048944 5.17653,-2.522079 l 0,1.373856 c 0,0.394107 0.359008,0.722027 0.752111,0.722027 l 1.932424,0 c 0.393104,0 0.722027,-0.32792 0.722027,-0.722027 l 0,-14.2459858 C 59.982966,8.6630463 59.90946,8.4732836 59.77398,8.3317363 59.638399,8.190179 59.452076,8.1085198 59.256126,8.1048395 M 81.333093,20.355224 c -0.394106,-0.524472 -0.78721,-0.361013 -1.146218,-0.163458 -0.852392,0.491379 -1.801055,0.949665 -2.981368,0.949665 -2.849999,0 -4.750333,-2.261347 -4.750333,-5.175527 0,-2.915182 1.900334,-5.20862 4.750333,-5.20862 1.180313,0 2.195162,0.426197 3.046551,0.950669 0.361014,0.229644 0.786207,0.361013 1.14722,-0.131369 l 0.91557,-1.277586 C 82.707952,9.742436 82.382037,9.3814226 82.15139,9.2179638 80.807618,8.2041181 79.039655,7.6465531 77.107231,7.6465531 c -4.879696,0 -8.122799,3.6031139 -8.122799,8.3193509 0,4.717241 3.243103,8.286258 8.122799,8.286258 1.932424,0 3.700387,-0.556562 5.044159,-1.57141 0.230647,-0.163459 0.589655,-0.556562 0.163458,-1.081035 l -0.982758,-1.244493 0.001,0 m 10.088316,0.720021 c -2.817909,0 -4.815516,-2.259341 -4.815516,-5.109341 0,-2.882089 1.997607,-5.109341 4.815516,-5.109341 2.815904,0 4.813511,2.226249 4.813511,5.109341 0,2.85 -1.997607,5.109341 -4.813511,5.109341 m 0,-13.395599 c -4.585872,0 -8.254168,3.603113 -8.254168,8.286258 0,4.716238 3.668296,8.286258 8.253165,8.286258 4.585872,0 8.254168,-3.57002 8.254168,-8.286258 0,-4.683145 -3.668296,-8.286258 -8.253165,-8.286258 m -25.385252,-7.04276791 -1.932424,0 c -0.40955,0.0164 -0.737771,0.34461729 -0.754117,0.75411671 l 0,21.6828602 c 0,0.393104 0.361013,0.754117 0.754117,0.754117 l 1.932424,0 c 0.426196,0 0.721023,-0.361013 0.721023,-0.754117 l 0,-21.6828602 c 0,-0.3931034 -0.294827,-0.75411671 -0.721023,-0.75411671"
         vector-effect="none"
         sodipodi:nodetypes="csssssccsssscssssccccssccssssccssccssccccccsscccsscccsscccssccsscccsscccsscccsscccssccssscccccssscsssscccccsssccccssscccccsssccsssccccsssssc" />
    </g>
  </g>
</svg>
