<?xml version="1.0" encoding="UTF-8" standalone="no"?>
<!DOCTYPE svg PUBLIC "-//W3C//DTD SVG 1.1//EN" "http://www.w3.org/Graphics/SVG/1.1/DTD/svg11.dtd">
<svg width="100%" height="100%" viewBox="0 0 180 66" version="1.1" xmlns="http://www.w3.org/2000/svg" xmlns:xlink="http://www.w3.org/1999/xlink" xml:space="preserve" xmlns:serif="http://www.serif.com/" style="fill-rule:evenodd;clip-rule:evenodd;stroke-linejoin:round;stroke-miterlimit:1.41421;">
    <g transform="matrix(1,0,0,1,-368,-465)">
        <path d="M428.431,522.859C428.921,522.859 429.3,522.744 429.562,522.509C429.826,522.276 429.955,521.966 429.955,521.58L429.955,521.554C429.955,521.122 429.818,520.798 429.542,520.584C429.266,520.368 428.882,520.258 428.39,520.258L426.41,520.258L426.41,522.859L428.431,522.859ZM424.418,518.462L428.558,518.462C429.706,518.462 430.586,518.767 431.198,519.382C431.717,519.898 431.974,520.586 431.974,521.45L431.974,521.477C431.974,522.209 431.794,522.804 431.438,523.267C431.078,523.728 430.61,524.066 430.034,524.282L432.245,527.515L429.917,527.515L427.978,524.618L427.951,524.618L426.41,524.618L426.41,527.515L424.418,527.515" style="fill:rgb(162,71,152);fill-rule:nonzero;"/>
        <path d="M435.065,518.46L441.883,518.46L441.883,520.234L437.033,520.234L437.033,522.07L441.3,522.07L441.3,523.843L437.033,523.843L437.033,525.744L441.948,525.744L441.948,527.518L435.065,527.518" style="fill:rgb(162,71,152);fill-rule:nonzero;"/>
        <path d="M447.228,520.298L444.473,520.298L444.473,518.462L451.978,518.462L451.978,520.298L449.22,520.298L449.22,527.518L447.228,527.518" style="fill:rgb(162,71,152);fill-rule:nonzero;"/>
        <path d="M458.621,523.726L457.418,520.79L456.216,523.726L458.621,523.726ZM456.526,518.398L458.362,518.398L462.242,527.518L460.162,527.518L459.334,525.485L455.503,525.485L454.675,527.518L452.645,527.518" style="fill:rgb(162,71,152);fill-rule:nonzero;"/>
        <rect x="464.537" y="518.46" width="1.992" height="9.055" style="fill:rgb(162,71,152);fill-rule:nonzero;"/>
        <path d="M470.083,518.46L472.075,518.46L472.075,525.72L476.592,525.72L476.592,527.518L470.083,527.518" style="fill:rgb(162,71,152);fill-rule:nonzero;"/>
        <path d="M430.344,505.891C430.344,506.052 430.474,506.179 430.63,506.179L435.264,506.179C435.427,506.179 435.55,506.045 435.55,505.891L435.55,475.478C435.55,475.322 435.42,475.19 435.264,475.19L430.63,475.19C430.469,475.19 430.344,475.32 430.344,475.478L430.344,492.84C430.344,494.184 430.116,495.432 429.67,496.548C429.223,497.662 428.611,498.634 427.848,499.43C427.09,500.225 426.17,500.842 425.114,501.266C424.056,501.694 422.894,501.91 421.663,501.91C419.1,501.91 417.11,501.127 415.752,499.589C414.379,498.036 413.683,495.883 413.683,493.19L413.683,475.478C413.683,475.32 413.551,475.19 413.4,475.19L408.706,475.19C408.55,475.19 408.42,475.322 408.42,475.478L408.42,494.34C408.42,496.166 408.694,497.863 409.231,499.378C409.774,500.902 410.568,502.234 411.59,503.34C412.618,504.446 413.882,505.313 415.351,505.918C416.81,506.518 418.502,506.822 420.377,506.822C423.055,506.822 425.273,506.22 426.967,505.03C428.282,504.106 429.415,503.014 430.344,501.773" style="fill:rgb(162,71,152);fill-rule:nonzero;"/>
        <path d="M523.846,484.992C524.388,483.797 525.084,482.746 525.91,481.87C526.728,480.998 527.69,480.312 528.768,479.832C529.843,479.352 531.012,479.112 532.241,479.112C533.657,479.112 534.931,479.374 536.023,479.89C537.118,480.406 538.058,481.116 538.822,482.002C539.585,482.892 540.202,483.943 540.653,485.114C541.022,486.082 541.277,487.102 541.421,488.16C541.435,488.314 541.291,488.455 541.118,488.465L523.178,488.465C523.027,488.45 522.878,488.326 522.898,488.182C523.08,487.056 523.392,485.986 523.846,484.992ZM545.743,501.01C545.846,500.89 545.82,500.688 545.688,500.58L545.683,500.575L542.825,498.014L542.813,498.005C542.683,497.885 542.515,497.854 542.4,497.962L542.314,498.05C541.102,499.301 539.748,500.318 538.289,501.074C536.854,501.823 535.092,502.202 533.057,502.202C531.782,502.202 530.549,501.984 529.39,501.552C528.23,501.125 527.17,500.486 526.236,499.666C525.302,498.845 524.525,497.82 523.93,496.625C523.418,495.61 523.075,494.455 522.888,493.188C522.866,493.046 523.03,492.91 523.19,492.91L546.523,492.91C546.643,492.91 546.742,492.78 546.756,492.655L546.766,492.569C546.806,492.197 546.826,491.887 546.826,491.621L546.826,490.949C546.826,488.7 546.506,486.554 545.875,484.577C545.237,482.59 544.289,480.835 543.055,479.362C541.817,477.886 540.278,476.7 538.483,475.843C536.686,474.984 534.624,474.55 532.356,474.55C530.206,474.55 528.197,474.972 526.38,475.81C524.57,476.645 522.986,477.806 521.666,479.263C520.354,480.718 519.314,482.45 518.58,484.414C517.848,486.377 517.476,488.496 517.476,490.716C517.476,493.092 517.889,495.305 518.702,497.29C519.516,499.274 520.634,500.998 522.029,502.411C523.423,503.825 525.077,504.934 526.949,505.711C528.818,506.486 530.834,506.88 532.942,506.88C535.872,506.88 538.37,506.345 540.367,505.286C542.347,504.24 544.133,502.826 545.678,501.082L545.738,501.014" style="fill:rgb(162,71,152);fill-rule:nonzero;"/>
        <path d="M461.405,479.998L461.405,474.958C461.395,474.802 461.27,474.674 461.11,474.67L461.033,474.667C459.552,474.631 458.158,474.809 456.876,475.21C455.597,475.608 454.397,476.208 453.317,476.988C452.239,477.768 451.27,478.709 450.434,479.782C449.93,480.43 449.474,481.118 449.069,481.843L449.069,475.478C449.069,475.301 448.922,475.19 448.786,475.19L444.091,475.19C443.933,475.19 443.806,475.322 443.806,475.478L443.806,505.891C443.806,506.064 443.947,506.179 444.091,506.179L448.786,506.179C448.942,506.179 449.069,506.05 449.069,505.891L449.069,493.754C449.069,491.546 449.376,489.574 449.981,487.891C450.583,486.216 451.421,484.795 452.472,483.667C453.518,482.546 454.762,481.692 456.168,481.13C457.577,480.566 459.091,480.281 460.673,480.281L461.119,480.281C461.285,480.281 461.405,480.142 461.405,479.998Z" style="fill:rgb(162,71,152);fill-rule:nonzero;"/>
        <path d="M486.031,497.779C485.532,498.715 484.841,499.536 483.974,500.218C483.098,500.906 482.071,501.442 480.917,501.814C479.76,502.188 478.486,502.378 477.13,502.378C476.158,502.378 475.224,502.246 474.355,501.986C473.489,501.73 472.714,501.355 472.051,500.878C471.401,500.41 470.88,499.817 470.503,499.116C470.126,498.418 469.934,497.628 469.934,496.766L469.934,496.649C469.934,494.94 470.635,493.603 472.08,492.566C473.542,491.51 475.654,490.978 478.354,490.978C480.185,490.978 481.826,491.112 483.235,491.381C484.543,491.628 485.731,491.892 486.77,492.17L486.77,494.671C486.77,495.806 486.521,496.85 486.031,497.779ZM486.713,505.891C486.713,506.045 486.835,506.179 486.998,506.179L491.633,506.179C491.791,506.179 491.918,506.05 491.918,505.891L491.918,487.325C491.918,483.418 490.819,480.336 488.65,478.169C486.365,475.882 482.988,474.725 478.618,474.725C476.374,474.725 474.353,474.967 472.61,475.45C470.921,475.918 469.222,476.549 467.563,477.324L467.383,477.41C467.261,477.478 467.251,477.672 467.328,477.778L469.982,481.166C470.059,481.25 470.17,481.289 470.28,481.26L470.378,481.219C471.377,480.809 472.382,480.47 473.366,480.209C474.794,479.83 476.402,479.635 478.15,479.635C480.886,479.635 483.022,480.3 484.502,481.606C485.969,482.897 486.713,484.843 486.713,487.39L486.713,487.817C485.491,487.488 484.236,487.214 482.974,487.008C481.538,486.77 479.815,486.65 477.857,486.65C475.922,486.65 474.13,486.874 472.524,487.308C470.909,487.747 469.49,488.395 468.31,489.235C467.117,490.087 466.181,491.165 465.53,492.442C464.885,493.718 464.554,495.221 464.554,496.913L464.554,497.028C464.554,498.643 464.897,500.083 465.566,501.305C466.234,502.517 467.126,503.549 468.214,504.377C469.298,505.202 470.561,505.822 471.965,506.222C473.357,506.621 474.79,506.822 476.22,506.822C478.925,506.822 481.222,506.285 483.048,505.222C484.5,504.377 485.726,503.41 486.713,502.339" style="fill:rgb(162,71,152);fill-rule:nonzero;"/>
        <path d="M515.46,504.871L513.082,501.84C512.945,501.679 512.753,501.588 512.542,501.626L512.534,501.629C511.939,501.734 511.351,501.792 510.742,501.792C509.314,501.792 508.154,501.446 507.293,500.767C506.458,500.107 506.035,498.893 506.035,497.158L506.035,479.93L514.042,479.93C514.2,479.93 514.327,479.801 514.327,479.645L514.327,475.464C514.315,475.327 514.217,475.219 514.085,475.19L506.035,475.19L506.035,466.358C506.035,466.2 505.908,466.073 505.75,466.073L501.055,466.073C500.906,466.073 500.772,466.195 500.772,466.358L500.772,475.19L496.008,475.19C495.842,475.19 495.725,475.33 495.725,475.478L495.725,479.645C495.725,479.796 495.845,479.93 496.008,479.93L500.772,479.93L500.772,497.789C500.772,499.351 500.995,500.714 501.439,501.845C501.89,502.99 502.522,503.93 503.323,504.648C504.125,505.368 505.087,505.896 506.189,506.222C507.271,506.542 508.447,506.705 509.688,506.705C510.804,506.705 511.826,506.592 512.731,506.374C513.629,506.155 514.49,505.819 515.292,505.38L515.45,505.294C515.563,505.234 515.582,505.015 515.46,504.871Z" style="fill:rgb(162,71,152);fill-rule:nonzero;"/>
        <path d="M395.102,490.714C395.102,492.408 394.807,493.961 394.226,495.331C393.643,496.702 392.844,497.902 391.85,498.895C390.857,499.886 389.717,500.666 388.462,501.209C385.922,502.31 383.035,502.27 380.606,501.238C379.373,500.717 378.276,499.958 377.342,498.986C376.406,498.014 375.655,496.817 375.11,495.427C374.568,494.038 374.29,492.451 374.29,490.714L374.29,490.598C374.29,488.822 374.568,487.217 375.11,485.825C375.655,484.438 376.397,483.25 377.311,482.297C378.226,481.346 379.313,480.61 380.544,480.108C381.775,479.602 383.124,479.345 384.55,479.345C385.894,479.345 387.211,479.621 388.462,480.161C389.717,480.706 390.859,481.476 391.853,482.45C392.846,483.425 393.643,484.615 394.226,485.983C394.807,487.354 395.102,488.906 395.102,490.598L395.102,490.714ZM414.226,527.222L414.226,522.562C414.221,522.394 414.086,522.25 413.918,522.25C404.808,522.108 400.178,515.777 400.178,503.419L400.178,500.626L400.19,500.626L400.19,475.481C400.19,475.334 400.073,475.193 399.905,475.193L395.206,475.193C395.05,475.193 394.927,475.322 394.927,475.483L394.927,480.197C394.507,479.662 394.051,479.141 393.562,478.639C392.786,477.842 391.906,477.134 390.95,476.537C389.99,475.937 388.898,475.45 387.701,475.092C386.501,474.732 385.166,474.55 383.731,474.55C381.859,474.55 380.018,474.922 378.264,475.661C376.51,476.398 374.916,477.468 373.526,478.838C372.132,480.211 371.002,481.915 370.169,483.902C369.334,485.892 368.911,488.162 368.911,490.656L368.911,490.774C368.911,493.308 369.334,495.59 370.169,497.558C371.002,499.526 372.132,501.221 373.526,502.591C374.918,503.966 376.514,505.025 378.269,505.742C380.018,506.46 381.859,506.822 383.731,506.822C385.164,506.822 386.491,506.64 387.67,506.28C388.85,505.92 389.935,505.411 390.9,504.77C391.855,504.132 392.736,503.386 393.511,502.548C394.008,502.013 394.476,501.454 394.918,500.882L394.918,503.419C394.918,512.527 397.255,519.206 401.868,523.255C404.99,525.996 409.169,527.46 413.959,527.513C414.108,527.513 414.221,527.374 414.226,527.222Z" style="fill:rgb(162,71,152);fill-rule:nonzero;"/>
        <path d="M479.712,527.65L478.884,527.65L478.884,525.509L481.051,525.509L481.051,527.316C481.051,529.082 480.168,529.79 478.574,529.817L478.402,528.974C479.323,528.881 479.779,528.413 479.712,527.65Z" style="fill:rgb(162,71,152);fill-rule:nonzero;"/>
        <rect x="487.114" y="518.283" width="2.06" height="9.367" style="fill:rgb(162,71,152);fill-rule:nonzero;"/>
        <path d="M498.084,527.65L493.548,521.695L493.548,527.65L491.515,527.65L491.515,518.285L493.414,518.285L497.803,524.05L497.803,518.285L499.836,518.285L499.836,527.65" style="fill:rgb(162,71,152);fill-rule:nonzero;"/>
        <path d="M506.474,527.81C503.717,527.81 501.67,525.682 501.67,522.994L501.67,522.965C501.67,520.303 503.678,518.122 506.554,518.122C508.32,518.122 509.378,518.712 510.245,519.569L508.937,521.081C508.212,520.423 507.478,520.022 506.539,520.022C504.96,520.022 503.825,521.333 503.825,522.938L503.825,522.965C503.825,524.57 504.934,525.912 506.539,525.912C507.612,525.912 508.265,525.482 509.004,524.813L510.312,526.138C509.35,527.167 508.279,527.81 506.474,527.81Z" style="fill:rgb(162,71,152);fill-rule:nonzero;"/>
        <rect x="511.666" y="525.508" width="2.166" height="2.142" style="fill:rgb(162,71,152);fill-rule:nonzero;"/>
    </g>
</svg>
