<?xml version="1.0" encoding="UTF-8" standalone="no"?>
<svg
   xmlns:dc="http://purl.org/dc/elements/1.1/"
   xmlns:cc="http://creativecommons.org/ns#"
   xmlns:rdf="http://www.w3.org/1999/02/22-rdf-syntax-ns#"
   xmlns:svg="http://www.w3.org/2000/svg"
   xmlns="http://www.w3.org/2000/svg"
   viewBox="0 0 4946.3574 2314.1072"
   height="2314.1072"
   width="4946.3574"
   xml:space="preserve"
   id="svg2"
   version="1.1"><metadata
     id="metadata8"><rdf:RDF><cc:Work
         rdf:about=""><dc:format>image/svg+xml</dc:format><dc:type
           rdf:resource="http://purl.org/dc/dcmitype/StillImage" /></cc:Work></rdf:RDF></metadata><defs
     id="defs6" /><g
     transform="matrix(1.3333333,0,0,-1.3333333,-1.2576916,2314.7432)"
     id="g10"><g
       transform="scale(0.1)"
       id="g12"><g
         transform="scale(1.06484)"
         id="g14"><path
           id="path16"
           style="fill:#0c4d91;fill-opacity:1;fill-rule:nonzero;stroke:none"
           d="m 21.7866,16300 v -6.7 c 0.631,-2065.4 1.2106,-4130.8 -1.427,-4996.4 -1.7645,-573.5 -4.912,-620.3 -6.7902,-648.4 -0.9868,-14.8 -1.6141,-24.5 -1.5774,-96.5 0,-15.4 0.0367,-33.5 0.1137,-54.2 0.3669,-117.7 1.6141,-316.4 3.0044,-539.05 1.8049,-282.46 3.7858,-602.82 4.5562,-843.32 1.0969,-334.16 -0.2274,-513.76 -2.3478,-706.27 L 16.0309,8299.91 14.5672,8170.67 C 11.0822,7855.37 7.23042,7391.1 9.5782,6936.76 11.9553,6482.51 20.5467,6037.31 157.488,5576.53 294.393,5115.77 559.464,4639.91 881.26,4167.56 1203.05,3695.15 1581.96,3225.7 2047.15,2771.67 2512.38,2317.62 3063.89,1878.96 3633.74,1498.4 4203.62,1117.8 4791.81,795.343 5301.24,556.17 5810.6,316.99 6241.28,161.116 6671.54,5.3522 l 0.04,-0.03669 0.15,-0.03668 2.19,-0.79971 2.28,0.77036 C 7000.23,117.466 7392.67,255.618 7992.57,539.295 c 599.71,283.601 1407.24,712.955 2209.93,1314.315 802.6,601.39 1532.2,1348.91 2050.7,2040.77 518.5,691.85 826,1328.4 958.1,1908.96 99.2,436.32 99.3,840.72 89.2,1128.88 -1.8,51.98 -3.9,99.7 -5.9,143.69 -1.6,36.65 -3.1,70.51 -4.2,100.88 -1.7,48.79 -2.3,89.36 -2.1,127.99 0.3,57.66 2.5,111.56 5.3,183.67 5.6,145.5 14.2,364.46 16.8,838.24 4.8,865.88 -10.2,2582.41 -25.2,4299.01 v 0.6 0.7 0 l -5.2,3660.7 v 6.7 h -6.8 L 28.5035,16300 Z" /></g><path
         id="path18"
         style="fill:#8dc546;fill-opacity:1;fill-rule:nonzero;stroke:none"
         d="m 4271.8,15978.9 -3.75,-3 c -25.67,-20.4 -51.6,-41 -128.91,-97.7 v 0 l -8.01,-5.9 v 0 c -5.23,-3.8 -3.51,-2.5 -8.9,-6.5 v 0 c -78.64,-57.7 -200.08,-148.2 -333.17,-285.7 -143.04,-147.8 -299.8,-350 -401.68,-585.5 -101.83,-235.4 -148.71,-503.9 -132.26,-740.9 16.52,-237.4 96.56,-443.1 253.08,-670.3 156.37,-226.9 389.26,-475.5 529.65,-613.4 140.63,-138.2 189.18,-166 237.85,-193.8 l 4.3,-2.4 3.79,3.1 3.28,2.7 v 0 c 176.95,145.4 354.26,291.4 530.98,491.2 177.69,200.9 355.11,456.7 436.75,745.6 81.68,289 67.39,610.7 -51.21,908.9 -118.55,297.9 -341.21,572 -512.93,743.1 -172.07,171.4 -293.55,239.9 -414.64,308.2 z" /><path
         id="path20"
         style="fill:#8dc546;fill-opacity:1;fill-rule:nonzero;stroke:none"
         d="m 1536.17,12879.9 -0.55,-4.7 c -3.78,-32.3 -7.61,-64.8 -22.34,-158.6 h 0.04 l -1.56,-9.7 h 0.04 c -1.06,-6.3 -0.75,-4.2 -1.76,-10.8 h 0.04 c -15,-95.3 -37.15,-243.6 -34.73,-432.9 2.62,-203.5 33.63,-454.9 126.33,-691.3 92.7,-236.3 246.99,-457.5 423.91,-612.5 177.18,-155.1 376.79,-243.7 645.15,-294 268.05,-50.3 604.92,-62.4 799.69,-61.4 195.12,1.1 248.59,15.4 302.15,29.9 l 4.69,1.3 0.5,4.8 0.43,4.2 h 0.04 c 22.81,225.5 45.47,451.6 30.2,715.2 -15.39,265 -69.18,568.3 -213.36,828.1 -144.22,259.8 -378.6,475.8 -669.81,602.4 -291.05,126.5 -638.59,163.7 -878.47,164.1 -240.35,0.3 -373.44,-36.3 -506.06,-72.9 z" /><path
         id="path22"
         style="fill:#8dc546;fill-opacity:1;fill-rule:nonzero;stroke:none"
         d="m 6981.56,12848.4 0.55,-4.8 c 3.79,-32.2 7.66,-64.8 22.38,-158.5 h -0.04 l 1.57,-9.7 h -0.04 c 1.01,-6.3 0.7,-4.3 1.72,-10.8 h -0.04 c 15.04,-95.3 37.18,-243.6 34.72,-433 -2.61,-203.5 -33.63,-454.8 -126.33,-691.2 -92.69,-236.3 -246.99,-457.5 -423.9,-612.5 -177.19,-155.2 -376.8,-243.8 -645.16,-294.1 -268.04,-50.2 -604.92,-62.4 -799.69,-61.3 -195.11,1.1 -248.59,15.4 -302.14,29.9 l -4.69,1.2 -0.51,4.9 v -0.1 l -0.43,4.3 h -0.04 c -22.81,225.5 -45.47,451.6 -30.19,715.2 15.39,265 69.22,568.3 213.36,828.1 144.22,259.9 378.59,475.8 669.8,602.4 291.06,126.5 638.59,163.7 878.48,164.1 240.35,0.3 373.44,-36.4 506.05,-72.9 z" /><path
         id="path24"
         style="fill:#ffffff;fill-opacity:1;fill-rule:nonzero;stroke:none"
         d="m 12584.1,9266.29 h -6.8 l -10995.19,-15 h -7.23 l 0.08,-7.23 c 5.24,-374.26 10.43,-748.44 -0.51,-1196.44 -1.44,-59.14 -3.2,-120.04 -4.96,-181.33 -11.52,-402.81 -24.18,-843.75 35.24,-1200.7 68.51,-411.8 232.81,-711.53 429.72,-1038.29 196.88,-326.68 427.07,-681.48 672.31,-975.93 245.23,-294.46 505.54,-528.56 765.31,-762.15 l 1.99,-1.84 h 2.74 l 7203.5,-19.65 2.6,-0.03 2,1.71 c 85.1,71.8 170.2,143.56 408.9,400.63 238.6,256.91 631,699.22 860.7,997.15 230,298.36 297.2,452.19 394.9,685.11 97.8,232.9 226.5,545.59 270.8,1110.55 44.2,564.45 4.2,1380.9 -35.7,2196.64 z" /><path
         id="path26"
         style="fill:#ffffff;fill-opacity:1;fill-rule:nonzero;stroke:none"
         d="m 4212.77,3262.85 18.17,-12.97 c 247.34,-177.07 494.68,-354.14 716.79,-498.43 222.11,-144.26 418.64,-255.55 615.08,-366.8 l 0.2,-0.08 0.08,-0.08 1.48,-0.82 h 1.88 l 3065.19,-2.77 h 1.95 l 1.68,1.01 10.32,6.1 v -0.04 c 226.6,133.75 453.12,267.69 664.45,408.48 214.49,142.93 413.36,292.89 611.91,442.61 l 17,12.82 -21.29,0.03 -5682.54,10.9 z" /><path
         id="path28"
         style="fill:#ffffff;fill-opacity:1;fill-rule:nonzero;stroke:none"
         d="m 11186.1,14482.3 c -57.9,0 -114.2,-19 -168.8,-67.5 -127.1,-112.8 -246.4,-387.2 -331.9,-583.4 -7.2,-16.5 -11.8,-27.1 -18.6,-42.6 -51.1,-117 -88.1,-196 -121.6,-267.5 -23.1,-49.4 -44.6,-95.4 -67.6,-147 -19.5,-43.9 -40.8,-93.5 -61.6,-141.9 -21.1,-49.3 -42.4,-98.9 -62.6,-144.2 -16.7,-37.7 -32.9,-72.8 -47.5,-102.3 -49.6,-99.9 -83.5,-139.1 -157,-206.7 -64.2,-59.1 -159.21,-140.3 -229.64,-200.4 -4.73,-4 -25.78,-22 -29.34,-25 l -16.01,-13.7 v -0.1 c -4.26,-3.6 -10.71,-9.1 -14.96,-12.7 v -0.1 c -56.96,-48.6 -121.84,-103.5 -412.86,-344.1 v -0.1 l -60.19,-49.7 -71.6,-59.2 v -0.1 c -360.59,-298.1 -914.69,-757.6 -1268.05,-1072.7 -400.35,-357 -544.1,-529.5 -687.7,-701.9 l -9.72,-11.7 h 15.15 l 2838.42,-11.7 h 4.3 l 2,3.8 c 56.7,106.7 113.2,213.1 263.3,482.7 150,269.6 393.5,702.1 537.6,950.5 144,248 188.5,311.6 379.7,454.3 130.9,97.5 330.3,232 516.9,357.8 87.3,58.9 171.9,115.9 245.4,166.4 230.2,158.3 351.9,252.8 430.7,344.4 80.1,93.1 115.7,184.2 0.2,367.4 -114.3,181.5 -377.8,455.6 -591.8,637.5 -214.3,182.3 -379.4,272.5 -533.6,350.7 -92.7,47 -183.3,90.8 -271,90.8 z" /><g
         transform="scale(2.27651)"
         id="g30"><path
           id="path32"
           style="fill:#0c4d91;fill-opacity:1;fill-rule:nonzero;stroke:none"
           d="m 14211.7,7625.96 c -3,0 -3.4,-3.67 -3.3,-3.67 l 0.1,-0.04 v -0.02 c 0,0.02 0,0.02 0,0.02 l 0.2,-0.03 c 0,0 0,-0.04 0,-0.07 l -0.2,-0.02 c -0.5,-10.07 -0.8,-99.21 -1,-491.36 -0.2,-536.24 0.1,-1610.23 0.4,-2701.35 v -3.14 h 3.1 l 2085.1,-0.89 h 3.1 v 3.14 l 0.8,434.48 v 3.16 l -3.2,-0.02 -1587.9,-6.01 -0.6,655.65 1346.7,4.05 3.1,0.02 0.1,3.1 1.4,417.68 0.1,3.16 h -3.2 l -1347.8,-2.85 4.2,1243.9 -0.1,-0.03 c 53.6,1.39 108.9,2.69 261.3,2.69 35.6,0 77.3,-0.08 124.9,-0.24 254.9,-0.86 696,-4.23 1138.4,-7.62 l 1.7,-0.01 3.2,-0.04 v 3.19 l -3,438.02 v 3.19 l -3.3,-0.07 v 0 l -0.1,-0.01 v -0.02 c -90.7,-1.87 -181.4,-3.78 -372.1,-4.53 -78.7,-0.31 -176.2,-0.43 -282.2,-0.43 -148.8,0 -320.1,0.24 -488.8,0.46 h -1.9 v -0.02 l -875.7,-3.62 c -0.1,2.73 -0.2,5.22 -0.2,6.54 v -0.01 c 0.1,0.03 -0.3,3.67 -3.3,3.67 z" /></g><g
         transform="scale(1.91075)"
         id="g34"><path
           id="path36"
           style="fill:#0c4d91;fill-opacity:1;fill-rule:nonzero;stroke:none"
           d="m 13452,9077.89 v -3.76 l 3.4,-515.93 v -3.72 h 3.7 l 1125.7,1.28 -3.8,-3285.22 v -3.78 l 3.8,0.02 587.1,5.07 3.7,0.02 v 3.72 l -6,3278.62 1126.5,0.47 3.7,0.02 v 3.72 l 0.2,513.3 v 3.74 h -3.7 l -2840.5,2.43 z" /></g><g
         transform="scale(1.34196)"
         id="g38"><path
           id="path40"
           style="fill:#0c4d91;fill-opacity:1;fill-rule:nonzero;stroke:none"
           d="m 12553.6,12930.5 v -5.4 l 9.9,-5429.46 0.1,-5.45 5.4,0.15 825.7,19.67 5.2,0.15 v 5.21 l -3.5,1393.43 0.2,-0.02 c 154.5,-3.44 308.6,-6.85 446.9,-6.85 l 0.5,-0.02 c 140.1,0.02 268.7,1.13 352.6,7.39 81.6,6.08 120.2,17.2 163,25.93 l 0.1,-0.03 978.2,-1438.86 1.6,-2.39 2.9,0.06 947.7,22.23 9.9,0.24 -5.6,8.09 -1140.6,1650.63 -0.1,-0.02 c 79.5,37.26 160.3,75.62 286.9,160.21 129.4,86.48 307,221.57 435.1,380.24 128.1,158.76 206.4,340.77 257.6,505.47 51.1,164.6 75.1,312.2 90.3,464.7 15.2,152.4 21.7,310.1 4,505 -17.7,195 -59.5,427.7 -203.6,687 -143.8,259.1 -389.8,544.7 -685.7,727.9 -296,183.2 -641.6,263.6 -978.4,298.7 -196.5,20.5 -390,25.5 -576.4,25.5 -92.7,0 -182.9,-1.2 -271.5,-2.4 -38.8,-0.5 -78.1,-1.1 -115.9,-1.5 -78.1,-0.8 -155.1,-1.2 -229.7,-1.2 -210.3,0 -408.8,2.8 -607.4,5.7 z m 1097.9,-740.7 v 0 c 1.4,0 2.9,0 4.3,0 61.5,0 128.6,-0.9 205,-3.1 v 0 h 0.1 c 199,-5.8 455.6,-27.7 668.4,-82.2 212.7,-54.4 378.6,-144.5 500.2,-258 121.7,-113.6 203.7,-243.8 255.7,-371 51.9,-127.1 77,-248 90.4,-396.9 13.4,-149 15,-325.5 -18.6,-503 -33.6,-177.5 -102.5,-355.8 -203.2,-490.7 -100.7,-134.65 -233.5,-226.29 -387.2,-297.51 -153.6,-71.2 -327.6,-121.88 -559.7,-144.3 -125.8,-12.13 -268.7,-15.95 -419.5,-15.95 -125.7,0 -256.7,2.65 -388,5.33 l -0.2,-0.03 -4.8,2553.36 h -0.2 c 81.2,2.1 162.6,4 257.3,4 z" /></g><g
         transform="scale(1.50096)"
         id="g42"><path
           id="path44"
           style="fill:#8dc546;fill-opacity:1;fill-rule:nonzero;stroke:none"
           d="m 16299.8,5694.76 h -4.8 l -740.5,-0.66 h -4.9 l 0.1,-4.81 0.9,-70.77 v 0.09 l 1.5,-4771.342 v -4.71 l 4.7,-0.026 738.4,-4.45 4.8,-0.026 v 4.791 l -0.2,4847.143 z" /></g><g
         transform="scale(1.50094)"
         id="g46"><path
           id="path48"
           style="fill:#0c4d91;fill-opacity:1;fill-rule:nonzero;stroke:none"
           d="m 16299.8,11563.1 h -4.8 l -740.5,-0.6 h -4.9 l 0.1,-4.8 0.9,-70.8 v 0.1 l 1.5,-4771.43 v -4.74 l 4.7,-0.02 738.4,-4.43 4.8,-0.05 v 4.79 l -0.2,4847.28 z" /></g><g
         transform="scale(1.38084)"
         id="g50"><path
           id="path52"
           style="fill:#8dc546;fill-opacity:1;fill-rule:nonzero;stroke:none"
           d="m 13911.4,6240.16 -1.4,-3.16 -423.4,-973.8 v -0.11 c -138.4,-332.96 -276.5,-665.27 -358.6,-855.63 -25.5,-58.93 -45.4,-103.93 -68,-154.94 -29.1,-65.74 -62.3,-140.74 -116.8,-266.99 -39.9,-92.51 -90.7,-211.43 -159.9,-374.66 -236.6,-558.57 -684.2,-1628.54 -1131.7,-2698.124 l -3.1,-7.33 7.9,0.144 775.6,14.484 3.3,0.06 1.3,3.134 307.1,740.672 2404.5,9.61 292.1,-748.044 1.3,-3.339 3.6,0.057 847,11.488 7.8,0.108 -3.1,7.134 -2306,5294.806 -1.3,3.02 -3.3,0.08 -71.5,1.25 z m 22.1,-1481.63 183.5,-574.16 0.1,-0.19 0.1,-0.18 732.4,-1818.56 -1827.1,-8.74 c 209.4,507.22 418.7,1014.22 571.1,1416.38 150.5,397.15 245.6,692.2 339.8,985.45 z" /></g><g
         transform="scale(1.97279)"
         id="g54"><path
           id="path56"
           style="fill:#8dc546;fill-opacity:1;fill-rule:nonzero;stroke:none"
           d="m 14132.2,4340.25 c -68.6,0 -134.5,-1.05 -199.1,-2.08 -25,-0.4 -43.8,-0.69 -68.5,-1.03 -87.2,-1.21 -172.1,-1.64 -256.3,-1.64 -115.7,0 -229.5,0.83 -343.1,1.66 l -8.3,0.06 v -8.34 l -12.7,-3692.288 v -8.354 l 8.4,0.016 c 464.2,1.368 928.8,2.716 1240.2,24.357 311.9,21.663 470.7,63.696 657.7,141.119 186.6,77.221 402.1,189.91 583.5,367.78 181.5,177.97 328.5,420.74 424.6,750.6 96,329.62 141.4,747.26 17,1140.09 -124.4,392.64 -418.2,759.71 -724.3,972.5 -306.5,213.04 -625.1,271.34 -893.2,296.88 -156.4,14.91 -295.6,18.67 -425.9,18.67 z m -71.3,-517.02 c 89.9,0 180.9,-1.46 275.7,-6.18 173.2,-8.61 357.2,-28.03 522.7,-83.61 165.3,-55.55 312.4,-147.22 434.3,-281.05 122.2,-134.05 219.5,-310.59 273.6,-446.75 53.8,-135.55 64.7,-230.68 68.7,-382.94 v -0.04 c 4,-152.62 1.1,-361.18 -41.5,-547.21 -42.5,-185.71 -124.7,-349.21 -264.7,-501.95 -140.1,-152.88 -337.9,-294.75 -595.2,-361.01 -166.8,-42.91 -358.9,-54.17 -560.5,-54.17 -107.1,0 -216.8,3.17 -326.6,6.44 l -0.2,-0.03 1.1,2656.6 -0.1,-0.02 c 70.5,1 141.2,1.92 212.7,1.92 z" /></g></g></g></svg>