<?xml version="1.0" encoding="UTF-8" standalone="no"?>
<svg
   xmlns:dc="http://purl.org/dc/elements/1.1/"
   xmlns:cc="http://creativecommons.org/ns#"
   xmlns:rdf="http://www.w3.org/1999/02/22-rdf-syntax-ns#"
   xmlns:svg="http://www.w3.org/2000/svg"
   xmlns="http://www.w3.org/2000/svg"
   xmlns:sodipodi="http://sodipodi.sourceforge.net/DTD/sodipodi-0.dtd"
   xmlns:inkscape="http://www.inkscape.org/namespaces/inkscape"
   version="1.1"
   id="Layer_1"
   x="0px"
   y="0px"
   width="2000.0002"
   height="1702.3104"
   viewBox="0 0 2000.0002 1702.3104"
   enable-background="new 0 0 125.063 107.698"
   xml:space="preserve"
   inkscape:version="0.92.4 (5da689c313, 2019-01-14)"
   sodipodi:docname="Rite_Aid.svg"><metadata
     id="metadata33"><rdf:RDF><cc:Work
         rdf:about=""><dc:format>image/svg+xml</dc:format><dc:type
           rdf:resource="http://purl.org/dc/dcmitype/StillImage" /><dc:title></dc:title></cc:Work></rdf:RDF></metadata><defs
     id="defs31" /><sodipodi:namedview
     pagecolor="#ffffff"
     bordercolor="#666666"
     borderopacity="1"
     objecttolerance="10"
     gridtolerance="10"
     guidetolerance="10"
     inkscape:pageopacity="0"
     inkscape:pageshadow="2"
     inkscape:window-width="1920"
     inkscape:window-height="1017"
     id="namedview29"
     showgrid="false"
     inkscape:zoom="0.2739141"
     inkscape:cx="2144.0538"
     inkscape:cy="829.2909"
     inkscape:window-x="1912"
     inkscape:window-y="-8"
     inkscape:window-maximized="1"
     inkscape:current-layer="g3"
     fit-margin-top="0"
     fit-margin-left="0"
     fit-margin-right="0"
     fit-margin-bottom="0" /><g
     id="g3"
     transform="translate(0,1595.1124)"><path
       d="m 2000,-926.00933 v -565.61797 c 0,-48.7178 -41.0585,-103.4851 -107.6028,-103.4851 H 114.93436 c -73.729105,0 -114.78762573,37.805 -114.78762573,107.0945 v 371.6787 c 0.52530504,1.3895 0.7794849,190.39765 0.10167194,190.39765 H 1999.9322 l 0.068,-0.0678 z"
       id="path9"
       inkscape:connector-curvature="0"
       style="fill:#004f99;stroke-width:16.94532394" /><path
       d="m 0.31618751,-861.88822 c 0.45752375,0.25418 -0.71170361,208.12247 -0.16945324,207.648 v 276.02238 C 4.264448,-210.71331 201.52496,-160.55515 201.88081,-160.55515 L 996.71818,107.198 1794.1651,-161.04656 c -0.1694,0.49141 205.818,-50.15816 205.818,-220.74674 v -479.75602 l -0.068,-0.10167 H 0.75676593 Z"
       id="path11"
       inkscape:connector-curvature="0"
       style="fill:#ef3e42;stroke-width:16.94532394" /><path
       d="m 377.5191,-208.3918 c 0.55919,0.35585 195.32875,-530.03279 194.17646,-531.0834 h 126.03932 c 0.77949,0.20334 208.12247,530.32086 206.25849,531.0834 h -125.7682 l -32.19611,-84.82829 H 532.14518 l -30.53548,84.82829 z m 329.72211,-187.21194 -67.18821,-178.65455 -1.57591,-2.05039 -64.76503,180.70494 z"
       id="path13"
       inkscape:connector-curvature="0"
       style="fill:#ffffff;stroke-width:16.94532394" /><polygon
       points="60.025,54.199 60.025,54.199 67.388,54.199 67.388,85.298 60.025,85.298 "
       id="polygon15"
       transform="matrix(16.945324,0,0,16.945324,-59.551642,-1654.8108)"
       style="fill:#ffffff" /><path
       d="m 1171.8142,-736.39115 h 259.8227 c 77.4401,0 200.8868,64.96837 201.9882,252.79034 0.8304,148.13603 -64.2905,274.19229 -246.0122,274.19229 h -215.7987 z m 118.6851,431.47878 h 79.1346 c 119.3968,0 147.2549,-79.65996 146.4076,-166.31835 -1.0506,-104.14596 -26.2991,-166.58948 -138.4263,-166.58948 h -87.1159 z"
       id="path17"
       inkscape:connector-curvature="0"
       style="fill:#ffffff;stroke-width:16.94532394" /><polygon
       points="48.871,8.648 48.871,8.648 56.57,8.648 56.57,37.52 48.871,37.52 "
       id="polygon19"
       transform="matrix(16.945324,0,0,16.945324,-59.551642,-1654.8108)"
       style="fill:#ffffff" /><polygon
       points="66.255,15.125 58.822,15.125 58.822,8.648 58.822,8.648 81.102,8.648 81.102,15.125 73.773,15.125 73.773,37.52 66.255,37.52 "
       id="polygon21"
       transform="matrix(16.945324,0,0,16.945324,-59.551642,-1654.8108)"
       style="fill:#ffffff" /><polygon
       points="90.792,20.125 103.628,20.125 103.628,20.125 103.628,26.236 90.792,26.236 90.792,31.409 105.892,31.409 105.892,37.52 83.759,37.52 83.759,8.648 105.892,8.648 105.892,15.125 90.792,15.125 "
       id="polygon23"
       transform="matrix(16.945324,0,0,16.945324,-59.551642,-1654.8108)"
       style="fill:#ffffff" /><path
       d="M 288.18335,-1507.4203 H 546.0234 c 125.3954,0 176.70584,72.0006 176.70584,167.5892 0,56.3093 -34.31428,121.4472 -104.72211,149.1358 0.59309,-0.2203 113.02532,174.2488 110.89021,172.5034 H 573.44093 c 0.62698,0.322 -189.90624,-256.8572 -190.49933,-256.9758 0.84727,0.1355 139.74809,0 140.01921,0 15.25079,0 72.18708,-2.5418 72.72933,-62.9858 0.52531,-60.6982 -51.19182,-65.8326 -72.93267,-65.8326 H 407.00396 v 385.7942 H 288.1664 v -489.2284 z"
       id="path25"
       inkscape:connector-curvature="0"
       style="fill:#ffffff;stroke-width:16.94532394" /></g></svg>