<?xml version="1.0" encoding="UTF-8" standalone="no"?>
<!-- Generator: Adobe Illustrator 19.0.0, SVG Export Plug-In . SVG Version: 6.00 Build 0)  -->

<svg
   xmlns:dc="http://purl.org/dc/elements/1.1/"
   xmlns:cc="http://creativecommons.org/ns#"
   xmlns:rdf="http://www.w3.org/1999/02/22-rdf-syntax-ns#"
   xmlns:svg="http://www.w3.org/2000/svg"
   xmlns="http://www.w3.org/2000/svg"
   xmlns:sodipodi="http://sodipodi.sourceforge.net/DTD/sodipodi-0.dtd"
   xmlns:inkscape="http://www.inkscape.org/namespaces/inkscape"
   version="1.1"
   id="Layer_1"
   x="0px"
   y="0px"
   viewBox="0 0 1000 403.45111"
   xml:space="preserve"
   sodipodi:docname="Ross-Stores-01.svg"
   width="1000"
   height="403.45111"
   inkscape:version="0.92.4 (5da689c313, 2019-01-14)"><metadata
   id="metadata1008"><rdf:RDF><cc:Work
       rdf:about=""><dc:format>image/svg+xml</dc:format><dc:type
         rdf:resource="http://purl.org/dc/dcmitype/StillImage" /><dc:title></dc:title></cc:Work></rdf:RDF></metadata><defs
   id="defs1006" /><sodipodi:namedview
   pagecolor="#ffffff"
   bordercolor="#666666"
   borderopacity="1"
   objecttolerance="10"
   gridtolerance="10"
   guidetolerance="10"
   inkscape:pageopacity="0"
   inkscape:pageshadow="2"
   inkscape:window-width="1920"
   inkscape:window-height="1017"
   id="namedview1004"
   showgrid="false"
   fit-margin-top="0"
   fit-margin-left="0"
   fit-margin-right="0"
   fit-margin-bottom="0"
   inkscape:zoom="0.472"
   inkscape:cx="182.5"
   inkscape:cy="73.699992"
   inkscape:window-x="-8"
   inkscape:window-y="-8"
   inkscape:window-maximized="1"
   inkscape:current-layer="Layer_1" />
<style
   type="text/css"
   id="style978">
	.st0{fill:#0060A9;}
</style>
<g
   id="XMLID_1_"
   transform="matrix(2.7389756,0,0,2.7389756,-184.88085,-483.1553)">
	<path
   id="XMLID_2_"
   class="st0"
   d="m 101.2,320.6 c 0,1.6 -1.4,3 -3,3 -1.6,0 -3,-1.4 -3,-3 v -15.2 c 0,-1.6 1.4,-3 3,-3 1.6,0 3,1.4 3,3 z"
   inkscape:connector-curvature="0"
   style="fill:#0060a9" />
	<path
   id="XMLID_3_"
   class="st0"
   d="m 117.3,323.6 c 1.6,0 3,-1.4 3,-3 0,-1.6 -1.4,-3 -3,-3 h -6.1 c -1.3,0 -2.3,-1 -2.3,-2.3 0,-0.6 0.3,-1.3 0.8,-1.6 l 8,-7.1 c 1.5,-1.4 2.5,-3.4 2.5,-5.7 0,-4.2 -3.4,-7.6 -7.6,-7.6 H 98.2 c -1.6,0 -3,1.4 -3,3 0,1.6 1.4,3 3,3 h 14.5 c 0.9,0 1.5,0.6 1.5,1.5 0,0.4 -0.1,0.8 -0.4,1 l -8.1,7.5 c -1.6,1.5 -2.7,3.7 -2.7,6.1 0,4.6 3.7,8.2 8.2,8.2 z"
   inkscape:connector-curvature="0"
   style="fill:#0060a9" />
	<path
   id="XMLID_4_"
   class="st0"
   d="m 151.1,323.6 c -1.6,0 -3,-1.4 -3,-3 0,-1.6 1.4,-3 3,-3 h 14.5 c 1.3,0 2.3,-1 2.3,-2.3 0,-1 -0.6,-1.8 -1.5,-2.2 L 153,307.8 c -2.8,-1.1 -4.8,-3.9 -4.8,-7.1 0,-4.2 3.4,-7.6 7.6,-7.6 h 15.1 c 1.6,0 3,1.4 3,3 0,1.6 -1.4,3 -3,3 h -15.1 c -0.9,0 -1.5,0.6 -1.5,1.5 0,0.6 0.4,1.1 0.9,1.4 l 13.4,5.5 c 3,1.1 5.3,4.2 5.3,7.7 0,4.6 -3.7,8.2 -8.2,8.2 z"
   inkscape:connector-curvature="0"
   style="fill:#0060a9" />
	<path
   id="XMLID_5_"
   class="st0"
   d="m 73.6,317.5 h 3.9 c 4.9,0 9,-4.1 9,-9.1 0,-5.1 -4.1,-9.1 -9,-9.1 h -7 c -1.6,0 -3,-1.4 -3,-3 0,-1.6 1.4,-3 3,-3 h 7 c 8.4,0 15.2,6.8 15.2,15.2 0,8.4 -6.8,15.2 -15.2,15.2 h -7 c -1.6,0 -3,-1.4 -3,-3 v -15.2 c 0,-1.6 1.4,-3 3,-3 1.6,0 3,1.4 3,3 v 12 z"
   inkscape:connector-curvature="0"
   style="fill:#0060a9" />
	<path
   id="XMLID_6_"
   class="st0"
   d="m 129,317.5 h 13.6 c 1.6,0 3,1.4 3,3 0,1.6 -1.4,3 -3,3 H 126 c -1.6,0 -3,-1.4 -3,-3 v -15.2 c 0,-1.6 1.4,-3 3,-3 h 16.6 c 1.6,0 3,1.4 3,3 0,1.6 -1.4,3 -3,3 H 129 Z"
   inkscape:connector-curvature="0"
   style="fill:#0060a9" />
	<path
   id="XMLID_7_"
   class="st0"
   d="m 142.5,299.3 c 1.6,0 3,-1.4 3,-3 0,-1.6 -1.4,-3 -3,-3 h -16.6 c -1.6,0 -3,1.4 -3,3 0,1.6 1.4,3 3,3 z"
   inkscape:connector-curvature="0"
   style="fill:#0060a9" />
	<path
   id="XMLID_8_"
   class="st0"
   d="m 179.4,323.6 c -1.6,0 -3,-1.4 -3,-3 0,-1.6 1.4,-3 3,-3 h 14.5 c 1.3,0 2.3,-1 2.3,-2.3 0,-1 -0.6,-1.8 -1.5,-2.2 l -13.4,-5.3 c -2.8,-1.1 -4.8,-3.9 -4.8,-7.1 0,-4.2 3.4,-7.6 7.6,-7.6 H 199 c 1.6,0 3,1.4 3,3 0,1.6 -1.4,3 -3,3 h -15.1 c -0.9,0 -1.5,0.6 -1.5,1.5 0,0.6 0.4,1.1 0.9,1.4 l 13.4,5.5 c 3,1.1 5.3,4.2 5.3,7.7 0,4.6 -3.7,8.2 -8.2,8.2 z"
   inkscape:connector-curvature="0"
   style="fill:#0060a9" />
	<path
   id="XMLID_9_"
   class="st0"
   d="m 334.2,317.5 h 13.6 c 1.6,0 3,1.4 3,3 0,1.6 -1.4,3 -3,3 h -16.6 c -1.6,0 -3,-1.4 -3,-3 v -24.4 c 0,-1.6 1.4,-3 3,-3 1.6,0 3,1.4 3,3 z"
   inkscape:connector-curvature="0"
   style="fill:#0060a9" />
	<path
   id="XMLID_10_"
   class="st0"
   d="m 251.8,299.1 c 2.8,-3.7 7.2,-6 12,-6 8.4,0 15.2,6.8 15.2,15.2 0,8.4 -6.8,15.2 -15.2,15.2 -8.4,0 -15.2,-6.8 -15.2,-15.2 0,-1.5 0.3,-2.9 0.6,-4.2 0.5,-1.1 1.5,-1.9 2.8,-1.9 1.6,0 3,1.4 3,3 0,0.3 0,0.5 -0.1,0.8 -0.1,0.8 -0.3,1.5 -0.3,2.3 0,5.1 4.1,9.3 9.1,9.3 5.1,0 9.1,-4.2 9.1,-9.3 0,-5.1 -4.1,-9.3 -9.1,-9.3 h -11.9 z"
   inkscape:connector-curvature="0"
   style="fill:#0060a9" />
	<path
   id="XMLID_11_"
   class="st0"
   d="m 229.6,308.4 h 13.6 c 1.6,0 3,-1.4 3,-3 0,-1.6 -1.4,-3 -3,-3 h -16.5 c -1.6,0 -3,1.4 -3,3 v 15.2 c 0,1.6 1.4,3 3,3 1.6,0 3,-1.4 3,-3 z"
   inkscape:connector-curvature="0"
   style="fill:#0060a9" />
	<path
   id="XMLID_12_"
   class="st0"
   d="m 243.2,299.3 c 1.6,0 3,-1.4 3,-3 0,-1.6 -1.4,-3 -3,-3 h -16.5 c -1.6,0 -3,1.4 -3,3 0,1.6 1.4,3 3,3 z"
   inkscape:connector-curvature="0"
   style="fill:#0060a9" />
	<path
   id="XMLID_13_"
   class="st0"
   d="m 287.8,320.6 c 0,1.6 -1.4,3 -3,3 -1.6,0 -3,-1.4 -3,-3 v -15.2 c 0,-1.6 1.4,-3 3,-3 1.6,0 3,1.4 3,3 z"
   inkscape:connector-curvature="0"
   style="fill:#0060a9" />
	<path
   id="XMLID_14_"
   class="st0"
   d="m 303.8,323.6 c 1.6,0 3,-1.4 3,-3 0,-1.6 -1.4,-3 -3,-3 h -6.1 c -1.3,0 -2.3,-1 -2.3,-2.3 0,-0.6 0.3,-1.3 0.8,-1.6 l 8,-7.1 c 1.5,-1.4 2.5,-3.4 2.5,-5.7 0,-4.2 -3.4,-7.6 -7.6,-7.6 h -14.5 c -1.6,0 -3,1.4 -3,3 0,1.6 1.4,3 3,3 h 14.5 c 0.9,0 1.5,0.6 1.5,1.5 0,0.4 -0.1,0.8 -0.5,1 l -8.1,7.5 c -1.6,1.5 -2.7,3.7 -2.7,6.1 0,4.6 3.7,8.2 8.2,8.2 z"
   inkscape:connector-curvature="0"
   style="fill:#0060a9" />
	<path
   id="XMLID_15_"
   class="st0"
   d="m 409.8,323.6 c -1.6,0 -3,-1.4 -3,-3 0,-1.6 1.4,-3 3,-3 h 14.5 c 1.3,0 2.3,-1 2.3,-2.3 0,-1 -0.6,-1.8 -1.5,-2.2 l -13.4,-5.3 c -2.8,-1.1 -4.8,-3.9 -4.8,-7.1 0,-4.2 3.4,-7.6 7.6,-7.6 h 15.1 c 1.6,0 3,1.4 3,3 0,1.6 -1.4,3 -3,3 h -15.1 c -0.9,0 -1.5,0.6 -1.5,1.5 0,0.6 0.4,1.1 0.9,1.4 l 13.4,5.5 c 3,1.1 5.3,4.2 5.3,7.7 0,4.6 -3.7,8.2 -8.2,8.2 z"
   inkscape:connector-curvature="0"
   style="fill:#0060a9" />
	<path
   id="XMLID_16_"
   class="st0"
   d="m 359.4,317.5 h 13.4 c 1.6,0 3,1.4 3,3 0,1.6 -1.4,3 -3,3 h -16.5 c -1.6,0 -3,-1.4 -3,-3 v -15.2 c 0,-1.6 1.4,-3 3,-3 h 16.5 c 1.6,0 3,1.4 3,3 0,1.6 -1.4,3 -3,3 h -13.4 z"
   inkscape:connector-curvature="0"
   style="fill:#0060a9" />
	<path
   id="XMLID_17_"
   class="st0"
   d="m 372.9,299.3 c 1.6,0 3,-1.4 3,-3 0,-1.6 -1.4,-3 -3,-3 h -16.5 c -1.6,0 -3,1.4 -3,3 0,1.6 1.4,3 3,3 z"
   inkscape:connector-curvature="0"
   style="fill:#0060a9" />
	<path
   id="XMLID_18_"
   class="st0"
   d="m 381.5,323.6 c -1.6,0 -3,-1.4 -3,-3 0,-1.6 1.4,-3 3,-3 H 396 c 1.3,0 2.3,-1 2.3,-2.3 0,-1 -0.6,-1.8 -1.5,-2.2 l -13.4,-5.3 c -2.8,-1.1 -4.8,-3.9 -4.8,-7.1 0,-4.2 3.4,-7.6 7.6,-7.6 h 15.1 c 1.6,0 3,1.4 3,3 0,1.6 -1.4,3 -3,3 h -15.1 c -0.9,0 -1.5,0.6 -1.5,1.5 0,0.6 0.4,1.1 0.9,1.4 l 13.4,5.5 c 3,1.1 5.3,4.2 5.3,7.7 0,4.6 -3.7,8.2 -8.2,8.2 z"
   inkscape:connector-curvature="0"
   style="fill:#0060a9" />
	<path
   id="XMLID_19_"
   class="st0"
   d="m 165.3,195.7 c 8.9,-11.7 23.1,-19.3 38.9,-19.3 27,0 49,21.9 49,49 0,27 -21.9,49 -49,49 -27,0 -49,-21.9 -49,-49 0,-4.7 0.6,-9.3 1.9,-13.6 1.4,-3.7 4.9,-6.2 9,-6.2 5.5,0 9.8,4.4 9.8,9.9 0,0.9 -0.1,1.8 -0.4,2.7 -0.6,2.3 -0.9,4.7 -0.9,7.2 0,16.4 13.2,29.7 29.4,29.7 16.2,0 29.4,-13.3 29.4,-29.7 0,-16.4 -13.2,-29.7 -29.4,-29.7 z"
   inkscape:connector-curvature="0"
   style="fill:#0060a9" />
	<path
   id="XMLID_20_"
   class="st0"
   d="m 87.4,264.5 c 0,5.5 -4.4,9.8 -9.8,9.8 -5.5,0 -9.8,-4.4 -9.8,-9.8 v -49.1 c 0,-5.5 4.4,-9.8 9.8,-9.8 5.5,0 9.8,4.4 9.8,9.8 z"
   inkscape:connector-curvature="0"
   style="fill:#0060a9" />
	<path
   id="XMLID_21_"
   class="st0"
   d="m 139,274.3 c 5.5,0 9.8,-4.4 9.8,-9.8 0,-5.5 -4.4,-9.8 -9.8,-9.8 h -19.4 c -3.9,0 -7.2,-3.2 -7.2,-7.1 0,-2.2 0.9,-4.1 2.4,-5.3 l 25.9,-23 c 5.1,-4.4 8.1,-11 8.1,-18.3 0,-13.6 -11,-24.6 -24.6,-24.6 H 77.6 c -5.5,0 -9.8,4.4 -9.8,9.8 0,5.5 4.4,9.8 9.8,9.8 h 46.5 c 2.7,0 4.9,2.2 4.9,4.9 0,1.4 -0.5,2.5 -1.4,3.4 l -26.1,24 c -5.2,4.8 -8.5,11.8 -8.5,19.4 0,14.7 11.9,26.6 26.6,26.6 z"
   inkscape:connector-curvature="0"
   style="fill:#0060a9" />
	<path
   id="XMLID_22_"
   class="st0"
   d="m 269.9,274.3 c -5.5,0 -9.8,-4.4 -9.8,-9.8 0,-5.5 4.4,-9.8 9.8,-9.8 h 46.5 c 3.9,0 7.1,-3.2 7.1,-7.1 0,-3 -1.9,-5.7 -4.7,-6.7 l -43.2,-17 c -9.1,-3.6 -15.6,-12.4 -15.6,-22.8 0,-13.6 11,-24.6 24.6,-24.6 h 48.6 c 5.5,0 9.8,4.4 9.8,9.8 0,5.3 -4.4,9.8 -9.8,9.8 h -48.6 c -2.7,0 -4.9,2.2 -4.9,4.9 0,2 1.1,3.7 2.9,4.4 L 326,223 c 10,3.8 17.1,13.6 17.1,24.9 0,14.7 -11.9,26.6 -26.6,26.6 z"
   inkscape:connector-curvature="0"
   style="fill:#0060a9" />
	<path
   id="XMLID_23_"
   class="st0"
   d="m 359.3,274.3 c -5.5,0 -9.8,-4.4 -9.8,-9.8 0,-5.5 4.4,-9.8 9.8,-9.8 h 46.5 c 3.9,0 7.1,-3.2 7.1,-7.1 0,-3 -1.9,-5.7 -4.7,-6.7 l -43.2,-17 c -9.1,-3.6 -15.6,-12.4 -15.6,-22.8 0,-13.6 11,-24.6 24.6,-24.6 h 48.6 c 5.5,0 9.8,4.4 9.8,9.8 0,5.3 -4.4,9.8 -9.8,9.8 H 374 c -2.7,0 -4.9,2.2 -4.9,4.9 0,2 1.1,3.7 2.9,4.4 l 43.4,17.6 c 10,3.8 17.1,13.6 17.1,24.9 0,14.7 -11.9,26.6 -26.6,26.6 z"
   inkscape:connector-curvature="0"
   style="fill:#0060a9" />
</g>
</svg>