<?xml version="1.0" encoding="utf-8"?>
<!-- Generator: Adobe Illustrator 16.0.3, SVG Export Plug-In . SVG Version: 6.00 Build 0)  -->
<!DOCTYPE svg PUBLIC "-//W3C//DTD SVG 1.1//EN" "http://www.w3.org/Graphics/SVG/1.1/DTD/svg11.dtd">
<svg version="1.1"
	 id="svg140" xmlns:dc="http://purl.org/dc/elements/1.1/" xmlns:rdf="http://www.w3.org/1999/02/22-rdf-syntax-ns#" xmlns:svg="http://www.w3.org/2000/svg" xmlns:cc="http://creativecommons.org/ns#"
	 xmlns="http://www.w3.org/2000/svg" xmlns:xlink="http://www.w3.org/1999/xlink" x="0px" y="0px" width="143.826px"
	 height="276.63px" viewBox="80.75 22.081 143.826 276.63" enable-background="new 80.75 22.081 143.826 276.63"
	 xml:space="preserve">
<g id="Layer1000" transform="translate(-154.3773,-168.0921)">
	<path id="path23" fill="#0067B1" d="M283.917,466.804l-1.244-0.188l-1.207-0.397l-0.914-0.518l-1.021-0.874l-0.875-1.181
		l-0.596-1.231l-0.399-1.394l-0.172-0.993v-1.644l0.304-2.996l0.902-5.513l1.536-7.464l1.142-5.911l0.385-2.716l-0.135-0.357
		l-0.768-0.357l-3.128-1.285l-4.414-2.107l-4.878-2.902l-2.982-1.987l-3.909-2.981l-2.333-2.107l-2.519-2.491l-1.935-2.106
		l-2.942-3.435l-0.637-0.834l-1.231-1.575l-2.982-4.189l-0.53-0.862l-1.074-1.631l-0.278-0.21l-0.092,0.145l0.04,1.035l0.304,2.861
		l0.598,3.924l1.563,6.934l0.398,2.701l0.065,2.717l-0.092,1.42l-0.279,1.404l-0.477,1.404l-0.477,0.82l-0.676,0.955l-0.955,0.916
		l-1.02,0.676l-0.969,0.396l-0.967,0.186l-1.193-0.025l-0.954-0.279l-0.848-0.438l-0.915-0.715l-0.676-0.702l-0.796-1.364
		l-0.596-1.658l-0.266-1.975v-2.584l0.238-2.266l1.061-5.329l1.259-5.024l0.384-2.094l0.173-1.656l0.106-0.41l0.278-2.705
		l0.08-4.811l-0.158-3.221l-0.106-0.902l-0.105-1.59l-0.503-2.876l-0.187-1.048l-1.1-4.346l-1.021-4.269l-0.796-5.964l-0.278-4.334
		l0.04-3.301l0.041-0.477l0.014-1.908l0.093-2.269l0.092-0.595l0.12-1.83l0.583-4.334l0.756-4.03l0.834-3.524l1.232-4.121
		l0.994-2.943l1.828-4.506l1.79-3.803l2.147-3.898l1.312-2.174l2.387-3.577l2.744-3.619l2.186-2.625l0.505-0.517l0.715-0.795
		l2.757-2.783l0.623-0.557l2.519-2.268l3.565-2.783l1.591-1.125l1.829-1.273l0.146-0.251l-0.066-0.346l-0.663-1.204l-0.357-1.168
		l-0.265-1.816l0.039-1.351l0.425-1.816l0.636-1.459l1.034-1.708l0.979-1.247l2.002-1.855l1.021-0.729l0.172-0.278l-0.093-0.265
		l-0.782-0.65l-0.795-1.101l-0.397-0.861l-0.146-0.675l-0.039-1.273l0.226-1.152l0.557-1.365l0.597-0.955l0.914-1.035l0.796-0.714
		l1.471-0.955l1.405-0.596l2.081-0.597l2.135-0.344l1.55-0.04l1.576-0.067l0.122-0.146l-0.093-0.277l-0.464-0.676l-0.518-1.075
		l-0.238-0.994l-0.014-0.967l0.132-0.768l0.358-0.849l0.556-0.834l0.717-0.716l1.1-0.675l0.915-0.318l0.701-0.147h1.592l1.125,0.226
		l1.803,0.635l1.55,0.835l1.021,0.678l1.605,1.351l1.14,1.193l1.869,2.451l1.071,1.723l0.73,1.353l0.224,0.238l0.096-0.251
		l-0.082-1.299l-0.53-2.902l-0.556-4.163l-0.478-2.916l-0.675-2.637l-0.398-1.06l-0.464-0.691l-0.517-0.423l-0.639-0.531
		l-0.396-0.729l-0.2-0.967l-0.131-0.901l-0.358-0.529l-0.714-0.876l-1.115-1.231l-0.49-0.318l-0.479-0.04l-0.753,0.212l-0.518-0.065
		l-0.53-0.359l-0.808-0.861l-0.319-0.133l-0.346,0.093l-0.874,0.716l-0.345,0.131l-0.424-0.065L288,253.849l-1.63-1.669
		l-2.465-3.248l-2.228-3.54l-1.033-1.948l-1.152-2.65l-1.365-3.725l-0.518-0.822l-1.63-1.909l-2.929-3.036l-3.313-3.445
		l-0.743-0.516l-0.596-0.199l-1.021-0.173l-0.489-0.278l-0.438-0.688l-0.318-1.114l-0.186-1.47l0.04-0.994l0.424-2.241l0.479-1.443
		l0.874-2.056l1.353-2.598l1.709-2.982l1.631-2.413l1.749-2.266l2.349-2.783l0.304-0.318l1.764-1.79l3.021-2.665l1.538-1.207
		l1.762-1.297l1.711-1.113l3.167-1.949l3.604-1.67l2.889-0.915l2.28-0.463l1.79-0.082l1.575,0.226l1.09,0.359l0.57,0.397
		l0.275,0.423l0.135,0.85l-0.147,0.967l0.104,0.425l0.482,0.623l2.85,3.233l1.388,1.472l3.077,3.406l1.392,1.431l0.744,0.479
		l2.158,0.807l2.068,0.994l1.617,0.955l2.621,1.83l2.432,1.947l3.15,3.048l1.102,1.393l0.226,0.423l-0.027,0.438l-0.236,0.451
		l-0.664,0.794l0.037,0.386l0.4,0.528l0.82,1.127l0.225,0.61l-0.063,0.49l-0.386,0.741l-0.041,0.318l0.359,0.571l1.313,1.392
		l0.741,0.635l0.781,0.438l1.035,0.172l0.527,0.318l0.558,0.849l0.241,0.608l0.13,0.822l-0.093,0.968l-0.278,1.019l-0.597,1.579
		l-1.229,2.424l-1.631,2.771l-1.671,2.424l-2.188,2.903l-2.063,2.386l-2.071,2.267l-2.862,2.743l-0.662,0.531l-0.638,0.583
		l-3.419,2.704l-2.981,2.12l-0.332,0.465l-0.133,0.544l-0.16,11.531l-0.038,2.426l-0.265,6.654l0.054,0.158h0.186l0.436-0.743
		l0.531-1.007l0.625-1.021l0.727-1.114l1.195-1.511l1.431-1.55l0.387-0.318l1.112-0.875l1.511-0.953l1.18-0.558l1.578-0.477
		l1.208-0.225l1.666,0.106l0.902,0.239l1.11,0.517l0.862,0.597l0.915,0.994l0.477,0.928l0.358,1.085l0.066,1.141l-0.226,0.955
		l-0.318,0.78l-0.543,0.903v0.132l0.211,0.094h1.907l1.595,0.303l1.615,0.637l0.9,0.558l0.967,0.94l0.545,0.822l0.516,1.154
		l0.216,0.98l0.036,0.98l-0.212,1.06l-0.394,0.848l-0.626,0.849l-0.917,0.743l-0.873,0.49l-0.094,0.172l0.162,0.172l1.112,0.451
		l0.782,0.423l1.38,0.809l2.49,1.87l1.947,2.027l0.915,1.353l0.636,1.378l0.355,1.299l0.136,0.994l-0.042,1.285l-0.248,1.272
		l-0.521,1.247l-0.661,1.021l-0.093,0.332l0.133,0.264l6.39,4.386l2.784,2.148l1.644,1.418l1.096,0.887l2.986,2.865l2.517,2.808
		l1.7,1.989l1.906,2.386l1.75,2.438l2.304,3.578l3.181,5.594l2.23,4.93l1.124,3.01l0.266,0.77l0.531,1.51l0.118,0.531l0.979,3.221
		l0.174,0.729l0.701,3.088l0.811,5.195l0.437,3.977l0.291,4.64l-0.041,5.01l-0.357,6.798l-0.411,3.844l-0.249,1.656l-0.413,2.414
		l-0.225,1.522l-0.515,3.194l-0.2,2.676l0.012,0.822l-0.025,0.453l0.015,5.301l0.184,2.451l0.109,1.166l-0.027,0.346l0.104,1.563
		l-0.063,1.419l0.092,0.437l-0.133,0.398l-0.465,4.121l-0.397,2.307l-0.583,2.703l-0.186,0.61l-0.818,2.901l-0.947,2.836
		l-0.443,1.365l-0.229,0.228h-0.372l-0.261-0.267l-0.322-1.008l-0.566-3.287l-0.993-3.856L368,406.016l-0.21-1.936l-0.093-0.158
		h-0.105l-0.266,0.307l-0.926,1.589l-2.535,3.553l-2.555,3.168l-1.341,1.511l-3.595,3.659l-1.06,0.968l-2.543,2.268l-2.07,1.695
		l-2.979,2.227l-3.777,2.505l-3.34,1.987l-3.457,1.75l-3.965,1.711l-3.738,1.311l-3.725,1.075l-2.97,0.755l-4.438,0.875
		l-4.772,0.622l-3.9,0.319l-6.118-0.041l-2.031-0.158l-1.112-0.039l-5.208-0.637l-5.342-1.102l-3.408-0.888l-0.171,0.132
		l-0.064,0.186l0.053,1.061l0.132,0.824l0.397,2.557l2.465,12.234l0.358,2.32l0.318,2.092l0.079,3.154l-0.092,1.484l-0.358,1.579
		l-0.676,1.495l-0.834,1.033l-0.875,0.797l-0.822,0.479l-1.18,0.354L283.917,466.804z"/>
	<path id="path25" fill="#EF4135" d="M284.277,463.619l-0.915-0.026l-1.02-0.316l-0.744-0.477l-0.675-0.824l-0.519-1.099
		l-0.344-1.552l-0.079-1.23l0.276-3.103l0.464-2.783l0.451-2.308l0.065-0.598l0.704-3.51l0.782-4.562l0.105-0.755l0.306-1.366
		l0.609-3.444l0.105-0.134l0.119,0.212l0.333,2.202l0.516,3.749l1.657,8.551l0.212,1.377l0.451,2.811l0.224,2.426l0.055,1.949
		l-0.226,1.734l-0.398,1.193l-0.556,0.822l-0.624,0.555l-0.899,0.4L284.277,463.619z"/>
	<path id="path27" fill="#0067B1" d="M371.555,458.888l-1.418-0.187l-1.034-0.315l-0.899-0.556l-0.92-0.838l-0.713-1.099
		l-0.438-0.982l-0.274-1.141l-0.111-1.643l0.043-0.476l-0.043-0.358l0.241-2.268l0.78-3.83l0.916-3.42l0.502-1.656l0.691-2.467
		l1.458-4.982l1.152-5.223l0.568-3.365l0.16-0.293l0.24-0.119l0.225,0.053l0.156,0.252l0.146,0.836l0.12,1.67l0.196,2.585
		l0.306,2.28l0.121,1.14l0.581,3.473l0.212,1.325l0.836,3.923l1.18,5.832l0.293,2.798l0.054,2.133l-0.132,1.723l-0.335,1.182
		l-0.556,1.204l-0.597,0.837l-0.675,0.77l-0.701,0.502l-0.903,0.438l-0.915,0.227L371.555,458.888z"/>
	<path id="path29" fill="#0067B1" d="M253.063,456.779l-1.511-0.038l-1.272-0.307l-1.22-0.596l-0.795-0.635l-0.702-0.743
		l-0.716-1.153l-0.397-1.073l-0.332-1.271l-0.172-1.896l0.026-1.553l0.397-3.061l0.915-4.531l0.954-4.137l0.742-2.93l0.49-2.32
		l0.345-1.484l0.371-1.854l1.22-5.78l0.822-5.192l0.092-1.088l0.213-0.357l0.198-0.053l0.226,0.092l0.119,0.424l0.411,3.313
		l0.834,5.092l1.71,8.125l0.795,3.271l0.079,0.427l0.345,1.522l0.57,2.969l0.371,1.83l0.517,3.696l0.118,2.428l-0.079,2.025
		l-0.305,1.632l-0.517,1.498l-0.438,0.834l-0.715,0.94l-0.464,0.478l-0.239,0.239l-1.312,0.755l-1.048,0.358L253.063,456.779z"/>
	<path id="path31" fill="#EF4135" d="M371.516,455.865l-0.944-0.065l-0.583-0.238l-0.713-0.635l-0.397-0.609l-0.4-1.102l-0.168-0.98
		l-0.015-1.934l0.238-1.713l0.212-1.006l0.21-1.378l1.072-4.479l0.941-3.396l0.89-4.2l0.144-0.171l0.216,0.779l0.358,2.971
		l0.633,4.812l0.359,2.107l0.688,5.196l0.042,1.351l-0.042,0.318v0.557l-0.185,1.047l-0.358,1.008l-0.555,0.861l-0.745,0.557
		L371.516,455.865z"/>
	<path id="path33" fill="#EF4135" d="M252.784,453.638l-0.874-0.023l-0.742-0.2l-0.742-0.437l-0.716-0.702l-0.517-0.835
		l-0.438-1.209l-0.187-0.809l-0.066-1.404l0.292-2.811l0.795-4.412l1.34-6.004l1.522-8.244l0.081-0.133l0.146,0.357l0.452,3.262
		l0.622,2.967l0.174,1.035l1.126,5.051l0.384,2.307l0.252,1.351l0.358,2.743l0.079,2.546l-0.305,2.173l-0.319,0.956l-0.516,0.979
		l-0.677,0.757l-0.781,0.516L252.784,453.638z"/>
	<path id="path35" fill="#FFFFFF" d="M310.678,435.668l-0.73-0.104l-1.481-0.479l-0.465-0.317l-0.319-0.49l-0.211-0.702
		l-0.346-0.874l-0.354-0.307l-0.521-0.291l-0.315-0.41l-0.148-1.83l-0.077-1.748l-0.185-1.764l0.092-0.278l0.607-0.187l0.718-0.078
		h0.992l0.185,0.104l-0.29,0.797l0.041,1.313l0.132,0.357l0.676,0.877l0.487,0.264l0.562,0.066l0.412-0.146l0.674-0.72l0.331-0.145
		l0.767-0.186l0.137,0.065l0.025,0.451l-0.012,0.386l0.274,0.715l0.293,0.607l-0.065,0.57l-0.052,0.425l0.183,0.664l0.465,0.647
		l0.027,0.438l-0.268,0.742l-0.438,0.703l-0.304,0.356l-0.373,0.198l-0.769,0.212L310.678,435.668z"/>
	<path id="path37" fill="#FFFFFF" d="M298.231,435.63l-0.569-0.027l-0.622-0.133l-0.636-0.066l-0.146-0.119l0.424-0.227l2.106-0.769
		l0.729-0.356l0.397-0.465l0.411-0.757l0.37-0.237l0.795-0.105l0.625,0.025l0.079,0.119l-0.053,0.188l-0.253,0.158l-0.862,0.291
		l-0.224,0.266l-0.253,0.875l-0.305,0.398L298.231,435.63z"/>
	<path id="path39" fill="#FFFFFF" d="M303.044,431.729l-0.411-0.024l-0.107-0.45l-0.039-0.994l0.122-1.472l-0.054-0.81l0.039-0.477
		l0.186-0.875l0.133-0.438l0.213-0.105h1.032l0.251,0.146l0.148,0.489l0.274,2.307l0.042,1.91l-0.146,0.303l-0.249,0.146
		L303.044,431.729z"/>
	<path id="path41" fill="#EF4135" d="M321.137,429.066L320.42,429l-0.729-0.317l-0.714-0.678l-0.401-0.646l-0.554-1.433
		l-0.266-1.789l-0.025-1.578l0.225-2.955l0.543-2.783l0.252-0.875l0.066-0.41l0.211-0.941l0.543-2.24l0.199-0.875l0.929-4.358
		l0.306-1.856l0.105-0.025l0.146,0.529l0.305,1.949l0.518,2.639l0.634,2.662l0.426,1.472l0.555,2.173l0.531,2.957l0.173,2.094
		l-0.05,2.69l-0.295,1.483l-0.515,1.299l-0.518,0.822l-0.641,0.557l-0.727,0.357L321.137,429.066z"/>
	<path id="path43" fill="#EF4135" d="M242.248,427.395l-0.703-0.025l-0.583-0.236l-0.835-0.638l-0.636-0.901l-0.396-0.914
		l-0.306-1.381l-0.12-1.509l0.039-1.948l0.426-3.074l1.153-5.447l0.649-3.049l0.105-0.701l0.332-2.201l0.146-1.286l0.133-0.663
		l0.238-2.781v-4.732l-0.317-3.143l-0.743-4.625l-0.994-5.631l-0.477-2.666l-1.167-8.111l-0.238-3.578l0.171-7.741l1.009-7.712
		l0.795-3.923l0.796-3.128l1.231-3.936l1.432-3.925l2.228-5.037l2.267-4.229l2.981-4.756l1.948-2.705l2.545-3.141l2.784-3.063
		l2.981-2.982l3.182-2.703l2.491-1.869l2.624-1.791l1.034-0.649l0.239-0.317l0.331-0.04l0.411-0.146l0.531,0.04l1.139,0.251
		l1.272-0.039l1.034-0.226l1.142-0.477l1.139-0.716l1.073-0.875l0.491-0.463l0.306,0.025l0.237,0.345l0.49,0.689l0.503,0.478
		l0.822,0.477l0.967,0.358l0.426,0.066l1.431-0.041l0.994-0.305l0.849-0.477l0.993-0.754l1.791-1.909l2.757-3.366l0.9-0.756
		l0.916-0.556l0.939-0.359l0.809-0.251l0.188-0.253l-0.066-0.291l-0.571-0.199l-0.558-0.027l-1.165,0.187l-1.048,0.397l-1.035,0.597
		l-0.98,0.795l-2.398,2.492l-0.714,0.795l-1.063,0.836l-0.714,0.276l-0.901,0.067l-0.902-0.226l-0.503-0.318l-0.397-0.504
		l-0.291-0.888l-0.014-0.769l0.305-1.271l0.717-1.459l0.954-1.18l0.994-0.915l1.229-0.874l1.339-0.676l1.961-0.716l1.54-0.319
		l2.371-0.145l2.334,0.265l1.604,0.397l2.65,1.073l1.192,0.678l1.656,1.312l0.438,0.583l0.447,0.676l0.215,0.105l0.292-0.067
		l0.16-0.278l0.145-0.808v-6.282l-0.236-5.209l-0.24-3.578l-0.145-1.286l-0.216-3.167l-0.184-1.644l-0.569-5.872l-0.503-3.34
		l-0.397-1.749l-0.597-1.854l-0.557-0.996l-0.861-1.019l-0.318-0.691l-0.066-0.25l0.026-0.927l0.517-2.015l1.033-2.453l1.352-2.386
		l1.949-2.929l1.946-2.544l2.385-2.666l3.184-3.221l1.193-1.074l1.512-1.392l2.652-2.146l3.19-2.345l3.482-2.188l2.256-1.193
		l1.515-0.676l1.36-0.397l1.145-0.066l0.607,0.224l0.437,0.531l0.105,0.675l-0.265,1.392l-0.873,1.976l-2.626,4.042l-1.271,1.671
		l-0.665,0.807l-1.445,1.816l-2.81,3.102l-2.876,2.903l-4.573,3.897l-2.729,2.042l-1.313,1.193l-0.517,0.847l-0.278,0.689
		l-0.067,0.703l0.093,9.332l0.136,2.81l-0.03,0.423l0.044,0.716l-0.014,6.35l-0.16,8.189l-0.067,0.928l-0.234,5.408l-0.268,4.68
		l0.13,0.396l0.175,0.146h0.343l2.058-1.458l0.992-0.519l1.576-0.635l1.287-0.318l0.7-0.106l1.752,0.04l1.072,0.265l0.861,0.359
		l1.061,0.676l0.716,0.716l0.715,1.141l0.295,0.886l0.051,0.929l-0.185,1.127l-0.397,0.915l-0.676,0.795l-1.22,0.795l-0.954,0.371
		l-0.254,0.265l0.136,0.278l0.292,0.201l0.716,0.066l1.152-0.186l1.101-0.438l0.859-0.597l0.875-0.979l0.518-1.021l0.359-1.152
		l0.092-0.941l-0.133-1.152l-0.237-0.716l-0.479-0.942l-0.16-0.278l0.32,0.041l1.313,0.875l0.672,0.503l1.512,1.207l0.759,0.701
		l2.226,2.123l1.114,1.073l1.804,1.497l1.509,0.995l1.125,0.557l0.835,0.224l1.236,0.079l1.19-0.119l0.489,0.187l2.426,1.392
		l2.664,1.71l3.896,2.783l3.5,2.94l0.674,0.625l2.269,2.16l0.396,0.424l1.511,1.563l2.269,2.625l0.414,0.584l0.657,0.797
		l1.869,2.465l0.371,0.556l2.969,4.414l1.113,1.856l1.631,3.153l1.125,2.468l0.16,0.449l0.982,2.372l1.391,3.923l1.232,4.188
		l0.477,1.869l0.627,3.287l0.66,4.469l0.318,2.902l0.024,0.541l0.093,1.645l0.04,1.18l-0.116,0.396l0.194,0.861l0.041,5.396
		l-0.025,1.896l-0.055,2.45l-0.223,1.882l-0.082,1.59l-0.079,0.318l-0.104,1.393l-0.238,1.973l-0.835,5.158l-0.427,4.465
		l-0.175,1.221l0.025,5.71l0.191,5.833l-0.107,2.598l-0.188,1.67l-0.716,3.776l-0.319,0.851l-0.154-0.025l-0.188-0.387l-0.927-2.822
		l-0.979-2.678l-0.533-2.346l-0.314-3.142l0.104-5.991l-0.162-2.664l-0.62-4.479l-0.66-3.184l-0.241-0.914l-0.248-2.24l0.063-3.061
		l0.185-2.042l0.215-1.299l0.039-1.946l-0.188-1.354l-0.555-1.789l-0.478-1.021l-0.598-0.912l-0.836-0.863l-0.688-0.436
		l-0.798-0.279l-0.795-0.027l-0.823,0.266l-0.777,0.598l-0.719,0.822l-0.478,0.873l-0.676,1.909l-0.316,1.591l-0.414,3.021
		l-0.596,2.039l-0.463,1.379l-0.596,3.035l-0.132,1.789l0.027,1.406l0.154,0.993l0.105,1.073l0.387,1.645l0.293,1.217l0.223,0.771
		l0.902,4.122l0.188,2.229l-0.069,0.992l-0.345,1.18l-0.504,0.914l-0.52,0.584l-0.619,0.397l-0.359,0.104l-0.607-0.026l-0.491-0.198
		l-0.543-0.396l-0.519-0.609l-0.436-0.796l-0.279-1.153l-0.067-1.393l0.104-1.378l0.28-1.96l1.233-5.46l0.583-2.308l0.303-2.054
		l0.067-1.724l-0.212-1.272l-0.438-1.405l-0.677-1.43l-1.151-1.816l-1.512-1.869l-1.59-1.432l-2.07-1.511l-2.767-1.683l-1.604-1.393
		l-0.901-0.994l-0.835-1.22l-1.244-1.987l-1.672-2.387l-1.432-1.432l-1.263-0.836l-0.979-0.398l-1.164-0.316l-0.898-0.105
		l-1.354,0.064l-1.55,0.357l-0.966,0.438l-1.072,0.795l-0.799,0.796l-0.795,1.142l-0.412,0.926l-0.465,0.928l-0.556,1.947
		l-0.451,3.115l-0.195,4.176l0.023,0.543l-0.115,3.299l-0.309,2.89l-0.518,2.228l-0.795,2.399l-0.875,2.162l-0.781,1.788
		l-0.872,2.771l-0.479,2.066l-0.173,0.768l-0.106-0.027l-0.728-2.69l-1.116-2.704l-1.109-2.371l-1.396-2.611l-0.821-1.43
		l-1.19-2.228l-0.718-1.75l-0.713-2.214l-0.798-3.551l-0.929-5.342l-0.714-2.625l-0.678-1.631l-0.596-1.061l-0.637-0.834
		l-0.186-0.159l-0.439-0.397l-0.556-0.359l-0.701-0.186h-0.874l-0.784,0.305l-0.659,0.519l-0.6,0.86l-0.714,1.591l-0.85,2.161
		l-0.675,1.18l-0.915,1.193l-2.651,2.557l-0.796,1.102l-0.517,1.021l-0.383,1.353l-0.16,0.994l-0.119,3.219l0.239,3.701l1.271,7.314
		l0.106,2.586l-0.067,0.992l-0.225,0.941l-0.463,0.717l-0.518,0.383l-0.543,0.227l-0.559-0.027l-0.409-0.238l-0.438-0.463
		l-0.318-0.584l-0.239-0.754l-0.146-0.916l0.105-2.188l0.397-2.08l0.928-4.201l0.438-2.465l0.119-1.949l-0.225-2.014l-0.477-1.977
		l-0.783-2.291l-0.477-1.764l-0.347-2.371l-0.21-1.856l-0.293-1.392l-0.556-1.431l-0.795-1.353l-0.834-1.021l-0.982-0.755
		l-0.755-0.397l-0.94-0.238l-0.398-0.066l-1.191,0.066l-1.034,0.279l-1.102,0.516l-1.258,0.955l-1.963,1.736l-1.497,0.994
		l-1.232,0.598l-1.961,0.635l-3.193,0.729l-1.418,0.559l-1.075,0.74l-1.298,1.326l-0.874,1.272l-0.598,1.101l-0.438,1.323
		l-0.345,1.604l-0.079,2.346l0.04,1.79l-0.015,3.168l-0.331,2.702l-0.357,1.271l-2.173,4.958l-0.729,2.438l-0.12,0.119l-0.131-0.662
		l-0.226-1.326l-0.994-2.996l-0.623-1.443l-0.715-2.095l-0.478-2.187l-0.265-2.082l-0.279-4.533l-0.225-1.393l-0.278-0.649
		l-0.504-0.478l-0.424-0.146l-0.517,0.067l-0.45,0.238l-0.398,0.424l-0.437,0.914l-0.398,1.498l-0.649,4.254l-0.517,1.815
		l-0.755,1.75l-0.344,0.755l-0.756,2.016l-0.318,1.336l-0.133,0.426l-0.198,0.267L252.148,389l-0.292-0.265l-0.237-0.678
		l-0.438-1.643l-1.272-3.234l-0.305-1.192l-0.357-2.704l-0.053-2.451l-0.173-0.556l-0.278-0.345l-0.424-0.172l-0.477,0.133
		l-0.359,0.463l-0.278,0.582l-0.438,1.513l-0.265,2.306l-0.146,1.471l-0.173,1.354l-1.298,5.262l-1.102,4.133l-0.715,3.646
		l-0.385,2.743l-0.079,2.466l0.119,2.465l0.305,2.664l0.066,0.307l0.093,0.861l0.994,5.526l0.81,4.399l0.305,3.073l-0.066,1.658
		l-0.252,1.457l-0.49,1.392l-0.516,0.783l-0.227,0.196l-0.676,0.521L242.248,427.395z"/>
	<path id="path45" fill="#FFFFFF" d="M310.162,425.846l-0.385-0.025v-0.105l0.346-0.027l0.105,0.066L310.162,425.846z"/>
	<path id="path47" fill="#FFFFFF" d="M302.883,425.289h-1.112l-0.253-0.146l-0.557-0.887l-0.226-0.677l-0.225-1.774l0.065-1.248
		l-0.146-0.289l-0.251-0.16l-1.022-0.213l-0.344-0.264l-0.598-0.994l-0.225-0.742l0.053-0.479l0.213-0.294l0.423-0.329l0.067-0.371
		l-0.344-0.955l0.092-0.211l0.608-0.185l1.604-0.228l0.317-0.158l0.134-0.317l-0.094-0.267l-0.25-0.145l-1.035,0.038l-1.153,0.147
		l-0.369-0.096l-0.187-0.371l0.026-0.568l0.118-0.201l0.214-0.051l0.674,0.066l0.53-0.227l0.598-0.464l0.794-1.048l0.105-0.291
		l-0.066-0.569L300.671,409l-0.834-1.733l-0.503-0.822l-0.397-0.703l-0.597-0.889l-0.146-0.398l0.067-0.793l0.094-0.438
		l-0.054-0.478l-0.292-0.53l-0.557-0.717l-1.273-1.271l-0.582-0.596l-0.85-0.875l-0.292-0.104l-0.859,0.051l-0.371-0.226
		l-0.398-0.039l-0.636,0.093l-0.664-0.226l-0.967-0.463l-1.339-0.451l-0.186-0.16v-0.225l0.331-0.199l2.373-0.648l0.343-0.266
		v-0.371l-0.184-0.227l-0.411-0.039l-2.85,0.782l-0.426,0.024l-0.304-0.146l-0.396-0.384l-0.371-0.146l-0.61,0.067l-0.929,0.265
		l-0.967,0.065l-1.272-0.078l-0.862,0.226l-1.125,0.543l-1.364,0.33l-0.954,0.359l-0.201,0.264l-0.171,0.676l-0.333,0.199
		l-1.02,0.213l-0.146,0.105l-0.132,0.648l-0.384,0.385l-0.027,0.465l0.014,0.305l-0.239,0.305l-1.113,0.49l-0.385,0.397
		l-0.688,1.021l-0.742,0.635l-1.749,1.287l-0.637,0.701l-0.478,0.822l-0.517,1.168l-0.252,0.674l-0.557,0.85l-0.093,0.253
		l0.066,0.477l0.384,0.796l0.172,0.57l0.464,0.542l0.227,0.517l-0.066,0.254l-0.198,0.094l-0.85-0.174l-1.364-0.385l-0.584-0.027
		l-0.291,0.146l-0.133,0.237l0.094,0.267l0.716,0.278l2.346,0.728l0.225,0.188l0.066,0.346l-0.04,0.516l0.105,0.254l0.386,0.502
		l-0.04,0.305l-0.306,0.307l-1.245,0.608l-0.386,0.386l-0.276,0.756l-0.133,0.608l-0.213,0.172l-0.383-0.065l-1.192-0.556
		l-4.042-2.268l-4.177-2.704l-2.346-1.669l-1.841-1.539l-0.187-0.372l0.04-0.542l0.279-0.756l0.211-0.146l0.385,0.067l2.69,1.219
		h0.412l0.172-0.252l-0.027-0.425l-0.226-0.266l-2.995-1.442l-0.318-0.334l-0.053-0.158l0.08-2.465l-0.146-1.829l0.093-0.331
		l0.292-0.104l0.835-0.041h0.955l2.266-0.158l0.251-0.107l0.2-0.289l-0.027-0.267l-0.225-0.187l-0.558-0.025l-3.977,0.119
		l-0.264-0.106l-0.19-0.295l-0.529-1.854l-0.596-1.432l-0.054-0.252l0.105-0.252l0.902-0.597l5.924-3.353l0.518-0.465l0.04-0.266
		l-0.147-0.212h-0.344l-0.967,0.477l-4.772,2.81l-1.312,0.717l-0.386,0.066l-0.292-0.187l-0.569-0.901l-1.393-1.709l-1.616-1.512
		l-1.271-0.967l-0.106-0.213l0.146-1.18l0.412-2.519l0.146-1.126l0.159-0.332l0.105,0.105l0.809,3.379l0.637,1.775l1.033,1.909
		l0.995,1.261l0.795,0.834l0.211,0.145l0.212-0.025l0.292-1.113l0.583-1.102l0.636-1.789l0.65-2.2l0.636-1.392l0.464-0.901
		l0.915-2.306l0.371-1.645l0.238-1.656l0.119-0.213l0.146,0.121l0.266,1.299l0.119,1.273l0.544,2.663l1.033,3.007l0.543,1.34
		l0.438,1.523l0.264,1.882l0.066,1.974l-0.105,1.287l-0.464,2.545l-1.378,4.916l-0.53,3.407l-0.014,1.099l0.16,1.192l0.344,1.127
		l0.478,0.994l0.583,0.757l0.717,0.598l0.782,0.396l0.636,0.146l1.113-0.039l0.861-0.305l0.821-0.517l0.716-0.757l0.518-0.782
		l0.477-1.244l0.265-1.326v-1.631l-0.251-2.291l-1.259-7.012l-0.08-0.796l0.039-1.949l0.464-2.066l0.914-2.255l1.182-2.411
		l0.992-2.703l0.465-1.977l0.317-2.385l0.04-2.506l-0.079-0.754l0.039-1.987l0.227-1.272l0.276-1.061l0.398-0.782l0.717-0.915
		l0.754-0.675l1.26-0.757l2.094-0.795l2.333-0.728l1.986-0.956l1.5-0.953l2.717-2.056l1.418-0.874l0.979-0.398l0.717-0.145
		l0.729,0.066l0.888,0.318l0.346,0.264l0.557,0.795l0.358,0.97l0.728,4.479l0.678,2.053l1.059,2.24l0.319,1.006l0.25,1.896
		l0.013,1.539l-0.263,2.134l-0.717,3.313l-0.385,1.287l-0.557,2.396l-0.21,1.737l-0.014,2.254l0.263,1.442l0.518,1.326l0.559,0.942
		l0.715,0.795l0.94,0.675l0.81,0.318l0.609,0.105l1.06-0.066l1.075-0.316l0.662-0.398l0.758-0.674l0.595-0.822l0.478-1.061
		l0.344-1.313l0.12-0.995l-0.079-1.749l-0.424-2.836l-1.646-7.622l-0.079-0.716l0.04-2.346l0.227-1.363l0.317-0.809l0.517-0.822
		l0.675-0.717l2.053-1.604l0.954-0.954l0.798-1.179l0.478-0.942l0.569-1.737l0.477-0.781l0.345-0.317l0.423-0.094l0.451,0.173
		l0.56,0.542l0.633,1.008l0.639,1.498l0.715,2.649l0.556,2.759l0.332,1.79l0.637,2.081l0.757,1.987l0.836,1.709l0.303,0.531
		l0.651,1.299l1.934,3.523l2.106,4.6l0.835,2.385l0.72,3.143l0.29,2.055l0.037,1.937l-0.211,0.954l-0.186,0.158h-0.396l-0.676-0.315
		l-0.478-0.465l-0.172-0.45l-0.203-0.861l-0.342-0.438l-0.423-0.227l-0.427,0.065l-1.221,0.756l-0.714,0.703l-0.836,0.515
		l-1.83,0.612l-0.993,0.662l-0.661,0.146l-0.743-0.027l-0.385-0.157l-0.277-0.306l-0.356-0.941l-0.042-0.993l0.198-1.032
		l-0.093-0.453l-0.743-0.635l-0.489-0.199l-0.451-0.053l-1.033,0.065l-1.032-0.199l-0.648,0.067l-2.136,0.74l-0.834-0.024
		l-0.292,0.198l-0.173,0.265h-0.187l-0.358-0.81l-0.37-0.899l-0.186-0.228l-0.344-0.039l-0.292,0.187l-0.092,0.371l0.955,2.851
		l0.091,0.584l-0.091,0.463l-0.639,0.836l-0.119,0.384l0.132,0.278l0.705,0.518l0.556,0.291l0.359,0.424l0.517,1.749l0.834,3.354
		l0.742,3.59l-0.04,1.154l0.147,0.371l0.264,0.356l0.437,2.028l0.891,5.726l0.211,2.015l-0.146,0.293l-0.691,0.186L302.883,425.289z
		"/>
	<path id="path49" fill="#FFFFFF" d="M305.708,425.013l-0.308-0.146l-0.092-0.291l-0.157-1.988l0.092-0.055l0.516,0.465l0.464,0.146
		l1.274,0.08l0.674-0.119l0.135,0.063l-0.026,0.306l-0.332,0.664l0.041,0.502l-0.308,0.146l-1.458,0.186L305.708,425.013z"/>
	<path id="path51" fill="#FFFFFF" d="M309.641,424.574l-0.45-0.067l-0.063-0.25l0.188-0.425l1.216-1.896l0.319-0.532l0.797-0.873
		l0.715-0.503l0.9-0.477l0.293,0.023l0.274,0.199l0.11,0.268l-0.069,0.514l-0.315,0.57l-0.822,1.154l-0.719,1.244l-0.753,0.744
		l-1.339,0.266L309.641,424.574z"/>
	<path id="path53" fill="#FFFFFF" d="M305.189,422.068h-0.118l-0.267-1.405l-0.793-5.145l-0.253-1.053l2.147-0.521l1.191-0.255
		l2.705-0.647l0.504,0.066l0.426,0.424l0.104,0.426l-0.146,0.793l0.171,0.49l0.385,0.358l0.438,0.33l0.131,0.279l-0.211,0.545
		l-2.894,3.031l-0.646,1.156l-0.479,0.461l-0.688,0.227l-1.155,0.041l-0.372,0.146L305.189,422.068z"/>
	<path id="path55" fill="#FFFFFF" d="M267.258,419.285l-0.954-0.065l-0.783-0.199l-0.622-0.396l-1.313-0.941l-0.557-0.371
		l-2.028-1.694l-0.384-0.147l-1.232,0.198l-0.49-0.185l-0.955-0.797l-2.584-2.424l-1.153-1.26l-0.211-0.371l0.172-0.027l2.452,1.711
		l0.954,0.703l4.348,2.979l1.949,1.089l2.53,1.419l0.955,0.49l0.093,0.146L267.258,419.285z"/>
	<path id="path57" fill="#0067B1" d="M305.589,417.378l-0.425-0.107l-0.464-0.424l-0.13-0.385l0.051-0.344l0.346-0.386l0.53-0.238
		l1.229-0.237l0.729-0.027l0.412,0.146l0.17,0.332l-0.132,0.716l-0.199,0.53l-0.289,0.146l-0.812-0.133L305.589,417.378z"/>
	<path id="path59" fill="#FFFFFF" d="M304.157,413.321l-0.504-0.025l-0.227-0.266l-0.752-3.395l-0.665-3.035l0.027-0.371
		l0.383,0.039l0.705,0.134l0.583-0.054l0.263-0.133l0.357-0.264h0.411l0.941,0.225l0.357,0.211l0.32,0.387l0.569,1.205l0.584,0.662
		l0.022,0.424l-0.037,0.599l0.184,0.411l0.464,0.438l0.295,0.914l0.422,0.477v0.199l-0.438,0.199l-2.201,0.557L304.157,413.321z"/>
	<path id="path61" fill="#EF4135" d="M263.322,410.221l-0.597-0.066l-0.57-0.32l-0.357-0.383l-0.318-0.742l-0.106-0.757l0.081-1.629
		l0.423-2.89l1.434-7.211l0.079-0.105l0.105,0.199l1.127,8.311l0.093,1.775l-0.04,1.83l-0.226,0.994l-0.357,0.582l-0.411,0.305
		L263.322,410.221z"/>
	<path id="path63" fill="#FFFFFF" d="M252.864,409.145l-0.331-0.104l-0.597-0.625l-1.63-2.146l-1.472-2.213l-0.608-0.941
		l-1.141-1.775l-1.352-2.453l-0.438-1.19l-0.065-0.558l0.226-1.045l0.794-2.4l0.583-1.563l0.252-0.703l0.251-0.121l0.345,0.094
		l1.26,0.955l0.796,0.861l1.353,1.709l0.755,1.233l0.756,1.577l0.597,1.656l0.317,1.313l0.292,1.949l0.053,2.16l-0.172,1.764
		l-0.451,2.053l-0.238,0.451L252.864,409.145z"/>
	<path id="path65" fill="#FFFFFF" d="M336.883,403.221l-0.611-0.067l-0.541-0.132l-0.625-0.065l-0.342-0.305l-0.203-0.347
		l-0.038-0.276l0.187-0.291l0.278-0.12l0.567-0.134l0.504-0.582l0.516-0.519l2.125-1.588l0.227-0.041l0.076,0.025l-0.038,0.293
		l-0.558,0.861l-0.78,0.809l-0.188,0.449l0.063,0.373l0.307,0.236l0.505,0.067l1.338-0.388l0.504-0.356l1.832-2.134l0.104-0.305
		l0.105-0.478l0.397-0.729l0.423-0.315l0.465-0.106l0.542-0.053l0.23-0.134l0.131-0.356v-0.942l0.315-0.556l0.901-0.608l0.438-0.345
		l0.992-0.332l0.873-0.598l0.306-0.185l0.438-0.106l1.113-0.066l0.77-0.237l0.268-0.146l0.366,0.039l0.241,0.371l0.04,0.504
		l-0.308,0.385l-0.873,0.477l-0.793,0.332l-0.812,0.596l-1.549,2.256l-0.756,0.675l-0.479,0.239l-0.647,0.025l-0.306-0.015
		l-0.506,0.198l-0.757,0.717l-0.516,0.701l-0.953,1.472l-0.452,0.836l-0.342,0.397l-0.53,0.197l-0.822,0.174l-0.398-0.133
		l-0.543-0.346h-0.422l-0.545,0.359l-0.279,0.186l-0.699,0.145L336.883,403.221z"/>
	<path id="path67" fill="#FFFFFF" d="M366.025,402.227l-0.25-0.094l-0.094-0.355l0.039-0.65l0.067-0.769l-0.106-0.466l-0.505-0.543
		l-0.316-0.317l-0.106-0.267l0.025-0.437l0.359-0.769l0.347-0.557l0.13-0.677l-0.092-0.608l-0.396-0.783l-0.477-0.45l0.025-0.728
		l0.647-1.752l0.147-0.754l-0.147-0.332l-0.343-0.318l-0.852-0.635l-0.344-0.438v-0.346l0.318-0.567l0.78-1.366l0.56-1.246
		l-0.041-0.531l-0.228-0.172l-0.235,0.092l-0.559,0.941l-0.531,1.035l-0.831,1.152l-0.333,0.238l-0.294-0.026l-0.739-0.437
		l-0.758-0.095l-0.33-0.198l-0.197-0.478l-0.438-2.015l-0.146-1.142l-0.04-2.104l0.237-1.91l0.623-2.199l0.902-2.65l0.226-0.994
		l0.118-2.107l0.184-0.741l0.56-0.942l0.583-0.477l0.464-0.145l0.506,0.066l0.504,0.277l0.395,0.49l0.44,0.809l0.438,1.432
		l0.146,1.021v2.466l-0.199,2.624l-0.188,1.312l-0.054,1.354l0.371,3.523l0.291,1.408l0.508,1.748l0.556,2.916l0.25,2.664
		l0.038,2.957l-0.146,2.516l-0.144,0.504l-1.074,1.816L366.025,402.227z"/>
	<path id="path69" fill="#FFFFFF" d="M327.02,402.147l-0.374-0.104l-0.869-0.597l-0.602-0.467l-0.341-0.063l-0.877,0.277
		l-0.834-0.024l-0.211-0.16l-0.146-0.57l-0.028-1.444l0.176-0.517l0.25-0.146l0.992,0.079l0.519-0.039l0.701,0.146l0.346,0.281
		l0.836,1.481l0.371,0.729l0.305,0.623v0.346L327.02,402.147z"/>
	<path id="path71" fill="#FFFFFF" d="M328.81,401.591l-0.387-0.023l-0.304-0.373l-1.593-2.811l-0.17-0.516l0.093-0.559l0.318-0.545
		l0.463-0.355l0.504-0.093l0.864,0.04l0.423-0.198l0.967-1.498l0.582-0.558l0.187-0.065l0.992,0.026l0.215-0.133l0.078-0.33
		l-0.278-0.414l-0.61-0.356l-0.516-0.146l-0.623,0.066l-0.65,0.133l-0.849-0.026l-0.809-0.345l-0.407,0.041l-0.531,0.356
		l-0.718,0.662l-0.583,0.397l-1.072,0.067l-0.174-0.093l-0.131-0.518l-0.267-0.238l-0.065-0.146l0.065-0.423l2.028-4.319
		l1.216-3.021l0.759-2.559l0.357-1.738l0.414-2.782l0.286-5.354l0.146-4.215l0.318-1.643l0.358-1.271l0.675-1.445l0.756-0.98
		l0.799-0.677l0.929-0.437l1.03-0.266h1.076l0.967,0.186l1.084,0.398l1.262,0.833l0.914,0.955l1.033,1.577l1.684,3.154l0.875,1.299
		l0.794,0.914l1.538,1.353l1.683,1.231l3.025,1.724l2.249,1.472l1.078,1.033l0.871,1.232l0.677,1.484l0.187,0.994l0.12,2.066
		l-0.228,2.201l-0.196,0.994l-0.15,0.16l-0.22,0.025l-0.598-0.039l-0.398,0.039l-0.598-0.039l-1.592,0.384l-0.261-0.052l-0.03-0.293
		l0.479-0.648l2.092-2.703l0.955-1.393l0.146-0.424l-0.066-0.531l-0.236-0.132l-0.266,0.172l-1.233,1.55l-2.24,2.93l-0.609,0.558
		h-0.344l-0.584-0.464l-4.136-4.229l-4.651-5.129l-0.528-0.664l-2.612-3.219l-0.334-0.664l0.057-0.292l0.505-0.489l1.508-1.3
		l1.727-1.563l0.197-0.396l-0.133-0.385l-0.25-0.066l-0.254,0.145l-2.479,2.135l-1.258,0.954l-0.426,0.106l-0.253-0.133l-1.352-1.67
		l-1.086-1.471l-0.662-0.928l-0.81-1.221l-0.224-0.344l-0.215-0.292l-0.238-0.04l-0.224,0.198l-0.105,0.253l0.063,0.396l0.427,0.742
		l3.271,4.441l0.427,0.516l0.132,0.346l-0.334,0.412l-2.941,2.424l-2.014,1.564l-0.279,0.411v0.424l0.104,0.106l0.322-0.027
		l0.638-0.411l2.517-1.974l1.381-1.114l0.912-0.649l0.344-0.121l0.254,0.095l0.634,0.741l2.561,3.142l0.702,0.795l1.923,2.226
		l5.643,6.123l0.271,0.239l0.991,1.009l0.095,0.277l-0.082,0.145l-2.267,0.559l-0.543,0.025l-0.634-0.158l-0.939-0.025l-0.51-0.238
		l-0.542-0.387l-0.354-0.104l-0.639,0.066l-1.382,0.516l-0.657,0.359l-0.321,0.344l-1.27,1.642l-0.481,0.347l-0.594,0.331
		l-0.598,0.662l-0.233,0.531l-0.149,0.569l0.066,0.664l0.237,0.463l0.388,0.316l0.342,0.105l1.828-0.117l0.216,0.105l0.093,0.278
		l-0.519,1.658l-0.051,0.94l-0.268,0.33l-1.671,1.313l-0.267,0.105l-0.422-0.064l-0.982-0.385l-0.98-0.227l-0.703,0.026
		l-0.505,0.237l-0.395,0.545l-0.927,1.803l-0.308,0.305l-0.385,0.064l-0.754-0.276l-0.422,0.063l-0.893,0.467L328.81,401.591z"/>
	<path id="path73" fill="#0067B1" d="M268.133,400.718l-0.61-0.025l-0.278-0.16l-0.092-0.277l0.132-0.266l0.649-0.186l3.698-0.386
		l4.043-0.676l0.225-0.158l0.04-0.358l-0.479-1.445l-1.351-3.458l-1.393-2.955l-0.86-1.711l-0.928-2.079l-0.252-0.238l-0.251-0.027
		l-0.503,0.133l-0.214-0.105l-0.039-0.279l0.239-0.385l0.266-0.316l0.025-0.346l-0.039-0.437l0.146-0.267l0.265-0.026l0.543,0.491
		l0.424-0.066l2.651-1.537l2.12-1.127l6.189-3.605l4.851-2.836l0.637-0.479l0.094-0.303l-0.214-0.65l-0.955-1.709l-1.693-2.652
		l-0.557-0.889l-0.955-1.498l-0.135-0.384l0.055-0.292l0.213-0.133l0.25,0.054l0.558,0.662l1.83,2.625l1.788,2.981l0.568,1.047
		l0.347,0.344l0.372-0.039l1.614-0.902l0.451-0.039l0.229,0.25l-0.026,0.358l-0.253,0.292l-1.379,0.85l-0.276,0.303l-0.066,0.424
		l0.304,0.689l2.055,3.819l0.479,1.058l0.079,0.504l-0.161,0.346l-0.185,0.093l-0.237-0.133l-0.518-0.819l-2.279-4.508l-0.518-0.742
		l-0.304-0.041l-1.048,0.479l-1.417,0.861L285.058,378l-0.505,0.345l-0.451,0.17l-5.207,3.01l-7.012,3.949l-0.227,0.238l0.041,0.424
		l1.776,3.539l1.086,2.399l0.862,2.067l1.392,4.029v0.344l-0.384,0.463l-0.173,0.559l-0.451,0.158l-4.732,0.703L268.133,400.718z"/>
	<path id="path75" fill="#FFFFFF" d="M277.913,400.16l-0.33-0.063l-0.105-0.213l0.053-0.267l0.226-0.146l0.438-0.106l0.464,0.026
		l0.118,0.146l-0.052,0.24l-0.53,0.276L277.913,400.16z"/>
	<path id="path77" fill="#0067B1" d="M301.692,392.486l-0.253-0.106l-0.066-0.371l0.146-0.291l0.836-0.359l1.59-0.608l4.174-1.829
		l4.175-2.027l1.66-0.902h0.316l0.199,0.227l0.041,0.277l-0.162,0.239l-1.06,0.637l-5.053,2.464l-3.575,1.592l-2.652,0.994
		L301.692,392.486z"/>
	<path id="path79" fill="#FFFFFF" d="M276.085,354.432l-0.332-0.172l-0.104-0.265l-0.049-11.69l0.119-0.291l0.384-0.146h7.735
		l0.333,0.146l0.146,0.49l-0.021,1.67l-0.134,0.33l-0.251,0.146h-4.729l-0.491,0.146l-0.146,0.41l0.021,0.995l0.132,0.291
		l0.49,0.147h3.659l0.292,0.145l0.118,0.332l0.015,1.936l-0.106,0.33l-0.252,0.16l-3.804,0.039l-0.411,0.146l-0.145,0.371
		l0.04,1.192l0.145,0.251l0.333,0.105h4.745l0.451,0.146l0.12,0.172l0.012,2.067l-0.146,0.253l-0.253,0.105L276.085,354.432z"/>
	<path id="path81" fill="#FFFFFF" d="M319.98,354.274l-2.248-0.04l-0.291-0.132l-0.131-0.332l-0.031-8.838l-0.135-0.305
		l-0.303-0.134l-2.6-0.052l-0.277-0.186l-0.107-0.385v-1.764l0.107-0.213l0.452-0.146l8.987-0.038l0.54,0.145l0.146,0.188
		l-0.014,2.014l-0.202,0.332l-0.409,0.106l-2.611,0.039l-0.287,0.146l-0.109,0.291l-0.039,8.867l-0.132,0.291L319.98,354.274z"/>
	<path id="path83" fill="#FFFFFF" d="M328.689,354.234l-1.709-0.011l-0.334-0.145l-0.131-0.357l-0.049-11.488l0.065-0.346
		l0.211-0.146l2.101,0.007l0.366,0.146l0.148,0.371l0.006,3.498l0.109,0.531l0.274,0.158l4.31,0.027l0.45-0.146l0.132-0.357
		l0.024-3.934l0.138-0.201l0.369-0.131h1.956l0.343,0.145l0.147,0.279l0.043,11.492l-0.121,0.395l-0.249,0.148l-2.24-0.041
		l-0.21-0.146l-0.106-0.425l-0.013-3.616l-0.104-0.425l-0.29-0.146l-4.652,0.011l-0.169,0.172l-0.093,0.463l0.032,3.74l-0.105,0.252
		l-0.331,0.186L328.689,354.234z"/>
	<path id="path85" fill="#FFFFFF" d="M294.167,348.669l0.207-0.146l-0.065-0.305l-1.313-3.539h-0.146l-1.14,3.471l-0.12,0.341
		l0.21,0.159L294.167,348.669z M287.258,354.354l-0.251-0.105l-0.066-0.132l3.843-11.867l0.265-0.384l0.267-0.105l3.06,0.03
		l0.412,0.146l0.239,0.344l4.732,11.602l-0.04,0.305l-0.291,0.146l-2.188,0.022l-0.647-0.145l-0.24-0.305l-0.656-1.941l-0.313-0.209
		l-4.317,0.002l-0.398,0.199l-0.607,1.924l-0.201,0.295l-0.526,0.182h-2.072V354.354z"/>
	<path id="path87" fill="#FFFFFF" d="M307.498,347.315l0.503-0.184l0.424-0.359l0.211-0.396l0.077-0.662l-0.21-0.597l-0.541-0.438
		l-0.783-0.186l-2.026-0.027l-0.304,0.145l-0.108,0.305l0.016,2.043l0.104,0.252l0.372,0.146h2.027L307.498,347.315z
		 M309.641,354.274l-0.367-0.145l-2.518-3.605l-0.372-0.278l-1.461,0.026l-0.105,0.119l-0.064,0.306l0.026,3.036l-0.092,0.33
		l-0.372,0.172h-2.106l-0.293-0.145l-0.132-0.318l-0.042-11.538l0.158-0.371l0.333-0.106l5.939-0.006l1.129,0.186l0.807,0.318
		l0.742,0.516l0.635,0.744l0.438,0.953l0.147,0.742l-0.094,1.18l-0.174,0.688l-0.396,0.769l-0.674,0.836l-0.744,0.596l-0.054,0.227
		l2.757,4.414l-0.053,0.209l-0.291,0.106L309.641,354.274z"/>
	<path id="path89" fill="#FFFFFF" d="M301.015,338.41l-0.331-0.147l-0.107-0.33l-0.046-11.43l0.146-0.33l0.251-0.106l1.994-0.022
		l0.421,0.145l0.135,0.25l0.013,3.688l0.136,0.424l0.29,0.146h4.177l0.33-0.106l0.159-0.277l-0.006-3.646l0.041-0.371l0.187-0.188
		l0.305-0.064h2.03l0.41,0.146l0.132,0.477l0.028,11.186l-0.147,0.412l-0.408,0.146L309,338.393l-0.293-0.133l-0.104-0.306
		l-0.019-3.88l-0.159-0.251l-0.49-0.106H304l-0.292,0.106l-0.146,0.33v3.698l-0.147,0.41l-0.488,0.147H301.015z"/>
	<path id="path91" fill="#FFFFFF" d="M294.454,338.449h-2.185l-0.333-0.146l-0.105-0.252l-0.028-8.813l-0.136-0.344l-0.45-0.146
		l-2.765,0.012l-0.253-0.187l-0.104-0.502V326.6l0.145-0.332l0.332-0.146l9.647-0.038l0.358,0.105l0.158,0.343l-0.014,2.028
		l-0.329,0.238l-0.519,0.066l-2.613-0.037l-0.25,0.105l-0.12,0.199l-0.013,8.889l-0.092,0.24L294.454,338.449z"/>
	<path id="path93" fill="#FFFFFF" d="M323.678,338.341l-7.476,0.029l-0.408-0.146l-0.133-0.396l-0.035-11.376l0.123-0.292
		l0.367-0.146l7.484-0.01l0.449,0.145l0.146,0.291l-0.027,1.885l-0.126,0.285l-0.314,0.156l-4.5,0.021l-0.412,0.146l-0.106,0.213
		l-0.023,0.861l0.117,0.438l0.198,0.145l0.423,0.066l3.42-0.039l0.371,0.146l0.133,0.316v2.063l-0.172,0.277l-0.372,0.133
		l-3.615,0.006l-0.333,0.146l-0.105,0.332l0.027,1.046l0.185,0.239l0.228,0.065h4.771l0.367,0.146l0.11,0.292l0.01,2.223
		l-0.255,0.225L323.678,338.341z"/>
	<path id="path95" fill="#FFFFFF" d="M280.419,323.737l-1.351-0.064l-1.273-0.279l-0.9-0.358l-1.259-0.795l-0.835-0.795
		l-0.677-1.021l-0.517-1.313l-0.252-1.219l-0.053-1.153l0.186-1.245l0.397-1.206l0.518-0.979l0.635-0.836l0.954-0.836l0.941-0.556
		l1.313-0.438l1.021-0.186l1.033-0.039l1.736,0.184l1.484,0.438l0.543,0.318l0.187,0.266l0.082,0.313v2.207l-0.159,0.266
		l-0.229,0.053l-1.536-0.755l-1.353-0.305l-0.994-0.041l-0.994,0.146l-0.862,0.398l-0.623,0.438l-0.556,0.664l-0.358,0.781
		l-0.226,0.954l0.026,0.929l0.238,0.914l0.518,0.848l0.662,0.623l0.756,0.438l1.034,0.319l1.18,0.064l1.113-0.186l0.901-0.396
		l0.875-0.559l0.29-0.186l0.175,0.041l0.121,0.233l0.024,2.084l-0.146,0.466l-0.424,0.424l-0.901,0.436l-1.432,0.386
		L280.419,323.737z"/>
	<path id="path97" fill="#FFFFFF" d="M307.856,322.783l-3.223-0.015l-0.25-0.105l-0.199-0.332l-3.66-11.04l-0.066-0.556l0.133-0.174
		l0.625-0.154l1.708,0.049l0.37,0.105l0.24,0.451l2.479,8.151l0.186,0.212h0.24l0.091-0.184l2.506-8.008l0.304-0.584l0.452-0.246
		l1.761,0.022l0.531,0.146l0.094,0.213l-0.132,0.635l-3.738,11.188l-0.212,0.158L307.856,322.783z"/>
	<path id="path99" fill="#FFFFFF" d="M315.094,322.704l-0.296-0.105l-0.272-0.354l0.01-11.47l0.105-0.25l0.213-0.16l0.356-0.065
		l7.478-0.041l0.41,0.146l0.104,0.251l-0.004,1.825l-0.137,0.451l-0.385,0.158L318,313.108l-0.216,0.145l-0.093,0.305v1.088
		l0.093,0.318l0.413,0.145l3.692,0.029l0.451,0.146l0.146,0.332l0.015,2.01l-0.212,0.16l-0.356,0.066h-3.828l-0.293,0.105
		l-0.158,0.239l0.023,1.206l0.147,0.371l0.288,0.105l4.907,0.032l0.274,0.159l0.111,0.332v1.863l-0.147,0.291l-0.292,0.106
		L315.094,322.704z"/>
	<path id="path101" fill="#FFFFFF" d="M293.381,320.477l0.979-0.305l0.595-0.398l0.625-0.715l0.396-0.822l0.225-1.02l-0.013-1.062
		l-0.252-1.033l-0.559-0.903l-0.753-0.715l-0.81-0.438l-0.994-0.186l-0.796,0.039l-0.915,0.266l-0.781,0.478l-0.624,0.675
		l-0.477,0.85l-0.224,1.033l0.038,1.232l0.266,0.861l0.517,0.9l0.676,0.596l0.69,0.399l1.033,0.278l0.956,0.027L293.381,320.477z
		 M292.943,323.3l-1.392-0.039l-1.033-0.187l-1.1-0.478l-0.861-0.556l-0.955-0.876l-0.796-1.18l-0.518-1.232l-0.225-1.221v-1.749
		l0.304-1.272l0.438-1.047l0.875-1.234l0.954-0.873l0.849-0.518l0.993-0.398l1.629-0.305l1.551,0.041l1.272,0.305l1.378,0.597
		l1.181,0.955l0.714,0.899l0.358,0.664l0.438,1.193l0.225,1.271v1.272l-0.225,1.363l-0.438,1.127l-0.715,1.14l-0.678,0.717
		l-0.861,0.597l-1.073,0.517l-1.234,0.357L292.943,323.3z"/>
	<path id="path103" fill="#FFFFFF" d="M332.228,315.984l0.664-0.187l0.502-0.386l0.279-0.463l0.106-0.754l-0.188-0.544l-0.314-0.344
		l-0.494-0.238l-2.764-0.006l-0.292,0.146l-0.104,0.25l0.022,2.009l0.104,0.371l0.295,0.145L332.228,315.984L332.228,315.984z
		 M336.841,322.585l-2.536-0.025l-0.412-0.158l-1.771-3.012l-0.343-0.438l-0.464-0.145h-1.152l-0.334,0.131l-0.131,0.293
		l-0.012,2.955l-0.146,0.252l-0.251,0.105h-1.948l-0.411-0.146l-0.118-0.267l0.007-11.662l0.211-0.187l0.438-0.067h5.319
		l1.423,0.174l0.675,0.209l0.781,0.479l0.596,0.624l0.414,0.729l0.302,1.062l0.095,0.81l-0.055,0.926l-0.316,0.902l-0.396,0.662
		l-0.544,0.557l-0.798,0.596l-0.051,0.253l2.229,3.735l0.118,0.412l-0.146,0.174L336.841,322.585z"/>
	<path id="path105" fill="#EF4135" d="M274.136,301.628l-1.021-0.065l-0.98-0.318l-0.795-0.622l-0.357-0.518l-0.317-0.689
		l-0.265-1.206l0.026-1.192l0.317-1.513l0.397-0.965l1.113-1.83l1.192-1.313l0.743-0.676l2.16-1.551l2.53-1.351l2.56-1.034
		l3.603-0.875l1.897-0.266l2.624-0.079l2.146,0.225l1.748,0.357l1.777,0.52l1.987,0.875l1.379,0.795l1.829,1.392l1.432,1.43
		l0.757,1.061l0.026,0.186l-0.372-0.186l-1.353-0.941l-2.066-1.034l-1.937-0.676l-1.788-0.384l-2.228-0.278l-2.146,0.039
		l-2.121,0.384l-1.844,0.558l-1.828,0.875l-1.616,0.996l-0.994,0.875l-1.273,1.417l-1.63,2.465l-1.525,2.706l-1.032,1.152
		l-0.862,0.637l-1.021,0.437L274.136,301.628z"/>
	<path id="path107" fill="#EF4135" d="M338.474,300.596l-0.998-0.027l-0.861-0.237l-1.18-0.756l-2.939-2.625l-2.08-1.816
		l-1.063-0.848l-0.955-0.782l-2.279-1.549l-1.418-0.757l-2.291-0.956l-1.963-0.436l-1.934-0.226l-1.271,0.041l-1.564,0.303
		l-1.964,0.637l-0.424,0.16l-0.133-0.054l0.357-0.384l0.877-0.596l2.028-1.073l1.813-0.756l2.799-0.754l1.693-0.305l1.752-0.197
		l3.061,0.078l2.229,0.264l2.317,0.517l1.686,0.637l1.51,0.716l1.42,0.915l1.907,1.59l1.151,1.258l0.838,1.392l0.45,1.087
		l0.263,1.048l0.025,1.154l-0.183,0.966l-0.315,0.769l-0.588,0.782l-0.794,0.517L338.474,300.596z"/>
	<path id="path109" fill="#0067B1" d="M316.959,299.72l-0.291-0.065l-0.315-0.424l-0.49-0.914l-0.639-0.874l-0.7-0.598l-1.06-0.556
		l-0.878-0.224l-0.795-0.041l-0.954,0.147l-0.21-0.054l-0.068-0.291l0.146-0.293l0.584-0.477l0.898-0.438l0.715-0.183l0.914-0.041
		l1.021,0.224l0.758,0.465l0.544,0.558l0.396,0.622l0.256,0.849l0.234,2.426L316.959,299.72z"/>
	<path id="path111" fill="#EF4135" d="M302.686,289.78l-0.411-0.303l-1.208-1.181l-1.788-1.47l-1.814-1.273l-2.016-0.995
		l-1.911-0.676l-2.438-0.594l-1.735-0.228l-0.914-0.079l-2.307,0.041l-2.241,0.345l-2.81,0.754l-2.679,1.02l-1.06,0.226
		l-0.888-0.065l-0.769-0.278l-0.543-0.438l-0.279-0.452l-0.172-0.755l0.132-1.06l0.398-0.994l0.596-0.862l0.782-0.676l1.114-0.755
		l1.22-0.596l1.617-0.517l1.961-0.425l1.114-0.119l2.344,0.04l2.401,0.425l2.081,0.714l2.889,1.433l2.268,1.472l1.948,1.471
		l2.188,2.146l1.231,1.473l1.313,2.054l0.411,0.888l0.025,0.186L302.686,289.78z"/>
	<path id="path113" fill="#EF4135" d="M311.988,289.064l-0.104-0.066l0.372-0.861l1.392-1.949l2.653-2.876l1.944-1.538l2.359-1.549
		l2.57-1.353l2.545-0.915l1.938-0.384l0.954-0.118l1.988,0.039l1.164,0.226l0.837,0.357l0.793,0.504l0.559,0.571l0.397,0.701
		l0.146,0.625l-0.028,0.741l-0.359,0.82l-0.554,0.718l-0.929,0.515l-1.474,0.438l-1.509,0.146l-6.085,0.357l-2.241,0.344
		l-1.536,0.399l-2.026,0.676l-1.499,0.636l-2.188,1.232l-1.895,1.458L311.988,289.064z"/>
	<path id="path115" fill="#EF4135" d="M311.035,286.918l-0.092-0.054l0.037-0.57l0.601-2.438l0.793-2.532l1.273-2.864l1.432-2.624
		l0.956-1.339l1.709-1.909l0.74-0.716l1.234-0.953l1.271-0.795l1.578-0.637l0.956-0.226l1.43,0.041l0.824,0.265l0.7,0.544
		l0.396,0.504l0.255,0.769l0.055,0.822l-0.228,0.703l-0.52,0.781l-0.913,0.874l-1.431,0.915l-2.105,1.073l-1.871,0.928l-1.393,0.915
		l-2.769,2.067l-1.712,1.671l-1.114,1.377l-1.231,1.961l-0.688,1.26L311.035,286.918z"/>
	<path id="path117" fill="#EF4135" d="M302.962,286.839l-0.25-0.251l-1.285-2.03l-0.994-1.312l-1.869-1.948l-2.424-1.988
		l-2.692-1.708l-4.452-2.4l-1.073-0.795l-0.678-0.741l-0.477-0.903l-0.186-0.676l0.027-0.888l0.357-0.809l0.503-0.503l0.623-0.357
		l0.675-0.186l0.954-0.041l1.272,0.265l1.657,0.797l1.578,0.992l2.16,1.896l1.617,1.764l1.79,2.426l1.072,1.854l0.836,1.909
		l0.714,2.254l0.56,2.307l0.065,0.874L302.962,286.839z"/>
	<path id="path119" fill="#FFFFFF" d="M297.754,253.757l-0.328-0.066l-0.519-0.504l-0.397-0.557l-0.105-0.385l0.026-0.702
		l0.197-0.913l1.233-2.864l1.591-2.731l2.665-3.857l3.1-3.656l1.354-1.445l1.908-1.896l3.02-2.625l4.201-3.181l3.023-1.87
		l3.141-1.747l2.51-1.075l1.651-0.343l0.622,0.104l0.667,0.558l0.234,0.411l-0.037,0.265l-0.305,0.265l-2.881,1.287l-2.884,1.629
		l-1.554,1.021l-0.752,0.49l-3.026,2.187l-0.835,0.702l-2.504,2.042l-3.341,2.982l-2.782,3.061l-0.729,0.861l-1.3,1.525
		l-2.425,3.259l-1.71,2.625l-1.948,3.526l-0.568,1.365L297.754,253.757z"/>
	<path id="path121" fill="#FFFFFF" d="M293.539,251.649l-0.517-0.027l-0.412-0.316l-2.442-2.741l0.337-1.422l-0.039-0.583
		l-0.213-0.411l-1.271-1.47l-2.346-2.625l-5.528-5.964l-5.884-6.361l-2.228-2.507l-0.743-0.768l-0.436-0.662l-0.093-0.57
		l0.172-1.153l0.636-2.201l1.033-2.571l1.271-2.544l1.233-2.175l1.271-1.909l2.743-3.617l1.709-1.87l2.107-2.027l1.497-1.274
		l2.228-1.71l3.195-2.026l3.366-1.75l2.689-1.114l2.107-0.714l1.232-0.266l1.191-0.041l0.662,0.187l0.466,0.357l2.266,2.466
		l0.678,0.78l2.277,2.545l1.299,1.445l5.502,5.991l1.139,1.166l0.652,0.782l5.129,5.487l0.451,0.278l0.438,0.054l0.99-0.186
		l0.598,0.025l0.413,0.28l0.831,0.901l0.492,0.635l0.545,0.636l0.064,0.346l-0.228,0.583L325.68,222l-0.343,0.158l-1.577,0.49
		l-3.444,1.551l-2.106,1.152l-5.04,3.341l-2.505,1.988l-3.271,2.941l-2.812,2.824l-2.042,2.412l-1.298,1.631l-2.027,2.797
		l-2.028,3.26l-1.034,1.922l-0.636,1.446l-0.411,1.245l-0.148,0.147l-0.464,0.104l-0.53,0.067L293.539,251.649z"/>
	<path id="path123" fill="#FFFFFF" d="M288.33,251.053l-0.25-0.146l-0.875-0.915l-0.451-0.622l-1.935-2.744l-1.353-2.16
		l-0.993-1.816l-0.293-0.768l-0.014-0.133l0.333,0.106l1.75,1.708l2.863,3.262l0.556,0.901l0.093,0.491l-0.211,1.181l0.171,0.556
		l0.622,0.915L288.33,251.053z"/>
	<path id="path125" fill="#EF4135" d="M291.95,241.788l-0.915-0.027l-1.02-0.278l-1.114-0.597l-1.101-0.875l-1.432-1.511
		l-1.669-2.175l-1.154-1.922l-0.608-1.51l-0.345-1.299l-0.106-1.22l0.132-1.1l0.333-1.286l0.782-1.618l-0.04-0.397l-0.677-1.06
		l-1.536-1.988l-0.771-1.114l-1.498-1.963l-0.29-0.596l0.093-0.49l0.635-1.099l0.556-0.784l0.333-0.065l0.25,0.146l1.869,2.292
		l8.67,11.254l2.479,3.3l1.339,1.708l0.994,1.313l0.104,0.305l-0.025,0.386l-1.151,1.934l-0.875,1.074l-0.704,0.596l-0.78,0.438
		L291.95,241.788z"/>
	<path id="path127" fill="#FFFFFF" d="M291.512,237.772l-0.688-0.027l-0.836-0.359l-0.796-0.635l-0.994-1.073l-1.51-2.107
		l-0.596-1.127l-0.358-1.087l-0.066-0.384l0.026-0.743l0.198-0.596l0.159-0.184h0.304l0.438,0.463l5.092,6.521l0.316,0.595
		l-0.04,0.253l-0.265,0.305L291.512,237.772z"/>
	<path id="path129" fill="#EF4135" d="M297.04,236.182l-0.293-0.146l-2.916-5.209l-3.208-5.552l-3.935-7.159l-2.942-5.552
		l-0.065-0.398l0.264-0.53l0.836-0.993l0.385-0.359l0.397-0.357l0.331-0.092l0.345,0.171l1.033,0.994l0.637,0.675l7.768,8.112
		l1.313,1.299l0.146,0.026l-0.079-0.266l-2.109-3.366l-5.712-8.708l-0.596-1.06v-0.424l0.438-0.544l1.431-1.074l0.609-0.25
		l0.293,0.052l1.313,1.073l0.755,0.743l11.573,11.066l4.73,4.495l0.262,0.41l-0.063,0.332l-0.741,0.597l-1.351,0.875l-0.371,0.092
		l-0.388-0.172l-0.714-0.702l-2.398-2.465l-1.143-1.127l-0.954-1.034l-0.715-0.741l-3.816-3.99l-2.108-2.292l-0.438-0.239
		l0.117,0.357l0.599,1.021l2.252,3.539l2.718,4.374l1.26,1.909l1.126,1.79l1.456,2.266l0.11,0.424l-0.188,0.371l-1.75,1.631
		l-0.291,0.146l-0.306-0.067l-0.596-0.542l-3.248-3.434l-1.908-2.107l-5.979-6.19l-0.316-0.21l-0.028,0.145l0.357,0.771l3.965,6.653
		l4.572,8.124l0.172,0.571l-0.201,0.41l-1.324,1.617L297.04,236.182z"/>
	<path id="path131" fill="#FFFFFF" d="M270.32,224.054l-0.292-0.106l-0.637-0.741l-0.186-0.465l0.039-0.875l0.186-0.953l0.796-2.307
		l0.994-2.254l1.511-2.69l2.453-3.618l0.569-0.848l1.219-1.418l0.927-1.152l0.385-0.398l2.162-2.306l1.034-0.994l0.862-0.729
		l1.125-0.981l2.85-2.107l2.942-1.789l2.875-1.552l2.73-1.193l2.28-0.716l1.483-0.265l0.664,0.027l0.384,0.16l0.756,0.742
		l0.132,0.292l-0.118,0.146l-2.294,0.45l-2.663,0.915l-3.486,1.629l-2.464,1.353l-3.444,2.306l-2.521,2.028l-1.774,1.588
		l-1.869,1.99l-2.585,3.167l-1.709,2.399l-2.028,3.287l-1.511,2.981l-0.835,2.148l-0.77,2.664L270.32,224.054z"/>
	<path id="path133" fill="#EF4135" d="M312.027,221.589l-1.203-0.186l-1.06-0.397l-1.053-0.637l-2.184-1.909l-0.757-0.86
		l-0.092-0.253l0.133-0.264l0.584-0.398l1.418-0.754l0.355-0.027l0.331,0.186l0.719,0.702l0.688,0.637l0.862,0.556l0.835,0.212
		l0.453-0.093l0.34-0.266l0.135-0.49l-0.213-0.595l-0.674-0.783l-0.744-0.635l-1.588-0.996l-2.058-0.994l-3.604-1.523l-3.299-1.631
		l-1.936-1.312l-1.033-1.021l-0.796-1.071l-0.438-1.075l-0.187-0.98l0.067-0.915l0.237-0.809l0.517-0.795l0.704-0.637l0.848-0.397
		l1.206-0.265h1.273l0.994,0.226l1.378,0.556l1.815,1.193l1.354,1.233l0.289,0.477l-0.133,0.305l-0.9,0.517l-1.139,0.477
		l-0.398,0.027l-0.492-0.305l-0.967-0.863l-0.968-0.556l-0.875-0.225l-0.584,0.104l-0.344,0.305l-0.159,0.425l0.04,0.477l0.277,0.53
		l0.703,0.717l1.352,0.914l1.565,0.834l0.739,0.278l0.359,0.133l0.385,0.226l3.645,1.522l1.908,0.955l1.896,1.152l1.19,0.956
		l0.876,0.915l0.758,1.073l0.409,0.875l0.267,1.075l0.024,0.847l-0.144,0.742l-0.397,0.743l-0.585,0.691l-0.796,0.542l-0.941,0.397
		l-0.712,0.145L312.027,221.589z"/>
	<path id="path135" fill="#FFFFFF" d="M326.105,215.347l-0.37-0.266l-0.757-0.662l-0.502-0.226l-0.571,0.068l-0.425,0.131
		l-0.461-0.067l-0.785-0.714l-1.68-1.816l-3.011-3.194l-0.146-0.332l0.426,0.067l2.013,1.232l2.663,1.949l2.146,1.909l1.393,1.55
		l0.117,0.305L326.105,215.347z"/>
	<path id="path137" fill="#0067B1" d="M351.927,452.63c0.683,0,1.141-0.115,1.141-0.871c0-0.677-0.726-0.759-1.284-0.759h-1.002
		v1.63H351.927z M349.364,449.911h2.483c1.683,0,2.64,0.493,2.64,1.975c0,1.205-0.73,1.682-1.749,1.765l1.749,2.866h-1.454
		l-1.576-2.801h-0.676v2.801h-1.417V449.911L349.364,449.911z M351.75,457.865c2.353,0,4.232-1.881,4.232-4.629
		c0-2.734-1.881-4.625-4.232-4.625c-2.386,0-4.231,1.891-4.231,4.625C347.517,455.984,349.364,457.865,351.75,457.865z
		 M351.75,447.296c3.273,0,5.943,2.664,5.943,5.94c0,3.278-2.67,5.942-5.943,5.942c-3.277,0-5.942-2.664-5.942-5.942
		C345.807,449.96,348.472,447.296,351.75,447.296z"/>
</g>
</svg>
