<?xml version="1.0" encoding="UTF-8" standalone="no"?>
<svg
   xmlns:dc="http://purl.org/dc/elements/1.1/"
   xmlns:cc="http://creativecommons.org/ns#"
   xmlns:rdf="http://www.w3.org/1999/02/22-rdf-syntax-ns#"
   xmlns:svg="http://www.w3.org/2000/svg"
   xmlns="http://www.w3.org/2000/svg"
   viewBox="0 0 303.24521 455.81561"
   id="svg140"
   height="455.81561"
   width="303.24521"
   version="1.1">
  <metadata
     id="metadata146">
    <rdf:RDF>
      <cc:Work
         rdf:about="">
        <dc:format>image/svg+xml</dc:format>
        <dc:type
           rdf:resource="http://purl.org/dc/dcmitype/StillImage" />
      </cc:Work>
    </rdf:RDF>
  </metadata>
  <defs
     id="defs144" />
  <g
     transform="translate(-154.3773,-168.0921)"
     id="Layer1000">
    <g
       id="Layer1001">
      <path
         id="path2"
         style="fill:#005ba2;fill-rule:evenodd"
         d="M 285.3902,605.8263 C 273.394,592.6889 258.5747,588.9709 248.6146,588.358 v -49.034 h -9.8067 v 7.5856 h -10.7262 v -7.5856 h -8.2745 v 38.0013 c 0,5.8228 -3.8308,13.2551 -16.6263,13.2551 -5.8228,0 -9.6535,-2.4517 -11.5684,-5.4403 -2.1452,2.9886 -5.7467,5.3631 -12.1052,5.3631 -11.4924,0 -17.0087,-7.5843 -17.0087,-13.2538 v -29.0379 h -7.2791 v 75.6962 h 156.3732 c -4.2905,-0.6129 -13.3311,-3.984 -26.2025,-18.0814 z m -46.5823,-17.3151 v 0 h -10.7262 v -37.9241 h 10.7262 z" />
      <path
         id="path4"
         style="fill:#005ba2;fill-rule:evenodd"
         d="m 320.6333,515.7264 c 3.2179,-1.6857 6.589,-3.5244 6.589,-11.4925 0,-10.8794 -6.4358,-16.0892 -13.3311,-16.0892 H 289.221 v 51.1793 h 10.7262 v -18.2346 h 9.6535 c 3.2178,0 5.5163,1.9921 5.5163,4.4438 v 13.7908 h 10.8795 v -15.7829 c -0.1533,-3.6775 -3.0647,-5.976 -5.3632,-7.8147 z m -10.8793,-4.2906 v 0 h -9.8068 v -13.0247 h 10.1131 c 3.0647,0.1533 6.1293,2.1453 6.1293,6.1293 0,3.9841 -1.8387,6.8954 -6.4356,6.8954 z" />
      <path
         id="path6"
         style="fill:#005ba2;fill-rule:evenodd"
         d="m 228.0817,488.1447 v 20.8394 H 210.6132 V 488.1447 H 199.887 v 51.1793 h -3.3711 v 36.393 c 0.4598,3.8308 3.4471,5.2098 6.5117,5.2098 2.8354,0 5.5936,-1.4563 6.0534,-5.363 V 539.324 h 1.5322 v -20.6863 h 17.4685 v 20.6863 h 10.7262 v -51.1793 z" />
      <path
         id="path8"
         style="fill:#005ba2;fill-rule:evenodd"
         d="m 181.6525,508.6777 c -1.2258,0 -5.2858,0 -6.7421,0 -9.5004,0 -9.9601,-2.605 -9.9601,-5.2099 0,-3.5268 1.8387,-5.0567 4.7502,-5.0567 h 23.9041 v -10.2664 h -25.5897 c -7.5856,0 -13.6376,6.8193 -13.6376,14.4037 v 0.8434 c 0,8.5037 5.0567,15.2459 15.936,15.2459 h 7.3552 c 3.371,-0.1533 6.4357,1.8388 6.4357,4.9034 0,3.6776 -0.9193,5.6695 -5.3631,5.6695 h -23.5977 v 10.1134 h 18.0814 v 36.3158 c 0.3824,3.8307 3.061,5.363 6.2825,5.363 3.5243,0 5.8987,-1.5323 6.2824,-5.363 V 539.324 c 5.8989,-2.2985 9.3471,-7.5084 9.3471,-15.9361 0,-6.8966 -3.8307,-14.4038 -13.4843,-14.7102 z" />
      <path
         id="path10"
         style="fill:#005ba2;fill-rule:evenodd"
         d="m 325.9965,579.2413 h 8.4277 v -12.6422 h -8.581 c -4.5969,0.1532 -9.8068,-0.7662 -9.6536,6.4357 0.1532,7.2019 5.9761,5.9001 9.8069,6.2065 z" />
      <path
         id="path12"
         style="fill:#005ba2;fill-rule:evenodd"
         d="m 457.6223,539.324 v -37.5418 c 0,-10.1132 -7.5084,-13.6375 -11.6456,-13.6375 -4.1373,0 -26.0493,0 -26.0493,0 v 51.1793 h -8.7343 v -51.1793 h -10.7262 v 51.1793 h -0.7002 c 8.3107,1.8988 9.4345,7.8655 9.4345,12.7182 v 36.469 h -10.7263 v -34.7063 c -0.4597,-3.908 -3.2179,-5.363 -6.0533,-5.363 -3.0646,0 -6.052,1.379 -6.5117,5.2097 v 34.8596 h -10.7262 v -34.7836 c -0.3837,-3.8307 -2.7581,-5.363 -6.2824,-5.363 -3.2216,0 -5.9001,1.5323 -6.2825,5.363 v 34.7836 h -10.7263 v -36.469 c 0,-4.8372 4.0193,-11.0092 12.3359,-12.7182 l -10.1636,0.0939 c 4.5883,-0.6769 7.3705,-2.9546 9.1668,-5.4571 1.7624,2.7507 5.1522,5.0412 10.2198,5.3894 3.6336,0.8407 5.9867,2.6931 7.5551,4.8772 1.3493,-2.1051 4.3003,-3.9781 7.9612,-4.9034 H 376.96 c 11.0695,-0.7923 14.4663,-7.6971 14.4663,-13.178 v -38.0013 h -10.7262 v 36.2398 c -0.4597,3.9068 -3.2179,5.3631 -6.0532,5.3631 -3.0647,0 -6.0521,-1.3791 -6.5119,-5.2098 v -36.3931 h -10.7261 v 36.3158 c -0.3837,3.8308 -2.7581,5.3631 -6.2825,5.3631 -3.2215,0 -5.9,-1.5323 -6.2825,-5.3631 v -36.3158 h -10.7262 l 0.076,37.9253 c 0,5.1364 4.5151,12.0926 13.9097,13.3556 L 332.279,539.324 c 2.4516,0 12.5649,2.7582 12.5649,13.6376 v 35.5496 h -25.13 c -4.5969,0 -13.7908,-4.1373 -13.7908,-15.3231 0,-11.186 7.6616,-15.4765 14.4038,-15.4765 h 14.0973 v -5.0565 c 0.1532,-2.9114 -1.5324,-4.5969 -5.3632,-4.4436 h -21.4524 v -8.8875 h -7.6614 v 7.5856 H 289.221 v -7.5856 h -7.3551 v 47.5017 c 5.2099,1.0726 15.7828,9.0407 22.0653,13.3311 6.7421,3.9841 11.9519,2.9115 17.928,3.0647 v 9.8067 c -10.8794,0.7663 -18.8474,-3.3711 -27.1219,-10.8794 -4.8151,-4.3676 -15.1699,-12.565 -23.5976,-15.7828 v -47.042 h 10.7262 v -10.1134 h -17.9281 c -3.984,0 -6.589,-2.4517 -6.589,-5.0565 v -5.5164 h 22.3718 v -9.6536 h -22.3718 v -4.1372 c 0,-3.9841 1.6857,-6.4358 5.9761,-6.4358 h 18.3877 v -10.2664 h -22.2185 c -7.2019,0 -12.8714,7.0486 -12.8714,14.0972 v 24.0574 c 0,7.8148 5.2099,11.4923 10.8794,13.0247 h 1.8387 v 46.5823 c 16.2425,1.6856 32.0254,17.162 36.7756,21.1459 12.7181,9.3472 18.2345,8.581 25.7428,8.7342 v 8.1213 h 135.7631 v -74.4704 h -26.5091 c -3.3711,0 -6.1293,1.379 -6.1293,4.1372 0,2.9114 1.2259,5.2098 9.9601,5.2098 1.4563,0 5.5163,0 6.7422,0 9.6536,0.3064 13.3311,8.4265 13.3311,15.3231 0,8.4278 -3.5243,14.8635 -13.3311,14.8635 h -26.6623 v -10.2665 h 23.5977 c 4.4437,0 5.5163,-1.3791 5.5163,-5.0567 0,-3.0646 -3.0646,-5.0566 -6.4357,-4.9034 h -7.3551 c -10.8795,0 -15.9361,-6.7422 -15.9361,-15.2458 v -0.8434 c 0,-7.2407 5.3104,-12.8026 14.8579,-13.2921 l 1.3847,-0.039 v -40.9129 h 10.8793 c 3.5244,0 5.3632,2.4517 5.3632,5.3632 v 35.5497 z m -157.6751,49.1872 v 0 H 289.221 v -37.9241 h 10.7262 z m 141.2441,19.1983 v 0 c 2.4518,0 4.6461,1.7038 4.6461,4.6337 0,2.9299 -2.1943,4.634 -4.6461,4.634 -2.4639,0 -4.6583,-1.7041 -4.6583,-4.634 0,-2.9299 2.1944,-4.6337 4.6583,-4.6337 z" />
      <path
         id="path14"
         style="fill:#005ba2;fill-rule:evenodd"
         d="m 441.1913,608.7881 c -1.8387,0 -3.322,1.4221 -3.322,3.5551 0,2.1331 1.4833,3.5673 3.322,3.5551 v 0.0122 c 1.7899,0 3.3099,-1.4342 3.3099,-3.5673 0,-2.133 -1.52,-3.5551 -3.3099,-3.5551 z m 0.8826,6.0436 v 0 l -1.1523,-2.0961 h -0.5026 v 2.0961 h -1.0664 v -4.9893 h 1.8632 c 1.2872,0 2.0473,0.3678 2.0473,1.5079 0,0.9195 -0.5394,1.2504 -1.2014,1.2994 l 1.275,2.182 z" />
      <path
         id="path16"
         style="fill:#005ba2;fill-rule:evenodd"
         d="m 441.3629,611.8897 c 0.4781,0 0.7601,-0.098 0.7601,-0.6498 0,-0.5149 -0.5516,-0.5516 -0.9562,-0.5516 h -0.7478 v 1.2014 z" />
    </g>
    <path
       id="path19"
       style="fill:#005ba2;fill-rule:evenodd"
       d="M 154.3774,476.3224 H 457.6225 V 168.0921 H 154.3774 Z" />
    <path
       id="path21"
       style="fill:#ffffff;fill-rule:evenodd"
       d="m 284.3952,469.7823 -1.9876,-0.1184 -1.4183,-0.3052 -1.1132,-0.478 -1.3118,-0.8338 -1.2994,-1.1543 -0.915,-1.1795 -0.6356,-1.1523 -0.5172,-1.2851 -0.4642,-2.042 -0.1198,-1.2717 0.0133,-2.3333 0.0263,-0.3706 v -0.8343 l 0.266,-1.8175 0.3973,-2.49 0.0396,-0.4766 0.4246,-1.8299 0.8481,-4.5334 1.1137,-5.0505 0.1709,-0.4633 0.107,-0.743 0.212,-0.6485 0.0659,-0.7952 0.2928,-1.2315 0.0788,-0.9551 -0.0655,-0.172 -0.7965,-0.2125 -5.6456,-2.7039 -2.744,-1.5109 -0.7679,-0.4651 -1.7239,-0.9265 -1.5502,-1.0344 -0.4374,-0.3452 -2.8629,-1.9613 -1.5506,-1.2316 -2.8624,-2.5453 -0.6767,-0.7025 h -0.1982 l -0.053,0.1853 0.649,2.8891 0.3448,1.021 0.702,3.1552 0.0664,0.595 0.2387,1.0225 0.7154,3.3122 0.9016,4.0568 1.1662,5.7783 0.1198,1.021 0.1715,0.9938 0.1332,1.6175 0.0263,1.8815 -0.3844,2.4379 -0.5163,1.8161 -0.7163,1.8142 -1.1537,1.8567 -1.5511,1.3916 -1.3372,0.7158 -1.6704,0.5172 -1.0998,0.1853 -1.8691,0.0387 -1.3654,-0.224 -1.7229,-0.5964 -1.1529,-0.6753 -0.9804,-0.7564 -1.3127,-1.351 -0.7149,-1.1409 -0.7565,-1.8295 -0.1991,-0.8863 -0.2517,-1.4317 -0.0129,-3.5128 0.5167,-4.1356 0.862,-4.2153 0.3052,-1.2717 0.4493,-2.266 0.2393,-0.8085 0.4909,-2.0553 -0.0272,-0.2918 -0.3185,0.0406 -1.2975,0.6232 -1.7235,0.5172 -0.8486,0.1045 -1.6299,-0.0386 -1.392,-0.3453 -0.9012,-0.3558 -1.5114,-1.0224 -0.5826,-0.5946 -0.6762,-0.8357 -0.9145,-1.7101 -0.649,-1.8562 -0.3711,-1.83 -0.1456,-0.967 -0.054,-0.1853 -0.0253,-2.3987 0.33,-3.0745 0.3457,-1.7368 0.2909,-1.6834 1.3385,-5.6183 1.0745,-4.904 0.2111,-3.1422 0.0134,-1.3778 0.0797,-1.4321 -0.0401,-0.3974 0.106,-2.2526 -0.2641,-3.3543 -0.9412,-5.2883 -0.1992,-0.8472 -0.7554,-3.2483 -0.3845,-1.2984 -0.4641,-1.9613 -0.6223,-3.7517 -0.1461,-1.1656 -0.1065,-0.5698 -0.4771,-4.6919 -0.0793,-3.6976 0.0397,-0.7565 0.0797,-3.5376 0.1061,-1.2063 0.0128,-1.2603 0.6896,-6.3074 0.4905,-2.5726 0.7956,-3.3524 0.7812,-2.4398 0.3314,-1.3104 1.0736,-3.2616 1.2598,-3.7636 0.2115,-0.5964 0.7818,-1.8835 0.3318,-0.8204 1.511,-3.2478 0.2646,-0.5038 0.3715,-0.809 2.5043,-4.3868 3.0224,-4.5606 0.8615,-1.073 0.6494,-1.0325 1.5774,-1.9493 0.4909,-0.6366 2.8892,-3.1136 0.5697,-0.6232 0.3042,-0.2779 0.5176,-0.5172 0.9279,-0.8744 0.384,-0.3978 1.8022,-1.7096 3.8968,-3.4589 2.1075,-1.5516 0.7812,-0.4513 0.2393,-0.2645 -0.0397,-0.4365 -0.4641,-1.6442 -0.1051,-0.8491 -0.0535,-1.5768 0.0931,-0.7278 0.0263,-0.7025 0.2378,-0.9551 0.5167,-1.4589 1.0344,-2.0267 0.9412,-1.3649 1.6032,-1.6962 0.6628,-0.5965 0.0406,-0.1986 -0.6633,-1.3801 -0.3582,-1.1137 -0.1724,-1.0458 0.0273,-1.5769 0.2244,-1.3529 0.3586,-1.021 0.7956,-1.4169 1.033,-1.3529 0.7956,-0.8744 1.7893,-1.5109 1.7364,-1.0325 1.5902,-0.6776 2.1075,-0.596 2.0138,-0.2125 0.1743,-0.118 v -0.3586 l -0.0936,-0.4112 -0.0807,-1.3123 0.1466,-1.0195 0.3171,-1.0998 0.4771,-0.9551 1.3127,-1.5907 0.9016,-0.7546 0.9938,-0.5577 1.3128,-0.3959 0.9413,-0.1466 h 1.9875 l 1.286,0.2239 2.2794,0.7164 1.5902,0.7564 1.5368,0.9145 1.0745,0.7951 0.6365,0.7818 0.0922,0.1585 h 0.1843 l -0.0396,-0.4365 -0.5559,-2.4933 -0.3982,-1.1251 -0.4375,-0.7817 -0.4226,-0.4384 -1.1934,-0.7679 -0.4374,-0.5444 -0.2512,-0.6891 -0.1996,-1.4049 -0.2775,-0.7293 -0.5974,-0.7683 -0.6223,-0.544 -0.702,-0.2244 -0.3839,0.0659 -0.7302,0.5439 -0.3983,-0.0401 -0.648,-0.4771 -0.7173,-0.5425 -0.383,-0.042 -0.3309,0.2393 -0.5563,0.4651 -0.319,-0.0272 -0.757,-0.6886 -0.913,-0.9556 -1.7885,-2.1461 -2.1618,-3.0091 -0.3849,-0.5171 -1.5105,-2.4647 -1.9083,-3.9235 -0.371,-0.9403 -0.3444,-0.7292 -0.6895,-1.4575 -0.2646,-0.4919 -0.371,-0.9278 -0.9542,-1.5096 -0.7564,-0.967 -2.9422,-3.2096 -0.3438,-0.3572 -0.3587,-0.3973 -1.404,-1.4303 -0.6232,-0.531 -0.7555,-0.6619 -0.7822,-0.2259 -1.0071,-0.0267 -0.756,-0.3592 -0.4766,-0.4632 -0.3983,-0.5172 -0.5563,-1.8142 -0.2244,-0.9551 -0.0669,-2.5711 0.3706,-1.9761 0.318,-1.351 0.9542,-2.7292 0.8357,-2.0147 0.4642,-0.863 1.0463,-1.9608 1.233,-2.148 0.8214,-1.2717 0.4508,-0.7144 2.7039,-3.6456 2.3858,-2.5845 0.6222,-0.5965 0.7689,-0.7951 1.339,-1.287 0.3186,-0.3438 1.1136,-0.9938 0.6743,-0.5305 0.8753,-0.7431 3.5406,-2.6232 1.7473,-1.0458 1.0349,-0.6638 3.2588,-1.83 0.5582,-0.2913 0.9542,-0.5038 2.5711,-0.9532 2.6786,-0.6776 1.6155,-0.1834 3.1814,0.0387 1.7335,0.3438 1.3802,0.5573 0.7688,0.6237 0.3849,0.5153 0.3453,0.9823 v 1.0344 l -0.107,0.4226 0.095,0.3844 0.4762,0.6772 1.7354,2.0401 0.6499,0.7817 1.3801,1.5649 1.4446,1.6562 0.6991,0.6891 0.4905,0.6232 0.8768,0.7951 1.3137,0.6891 1.0597,0.6232 1.9594,0.8882 2.1107,1.1524 2.7392,1.8295 2.8491,2.2659 4.2602,3.777 1.7473,1.7888 0.8353,1.181 0.064,0.3439 -0.224,0.4126 -0.7426,0.755 -0.4365,0.436 -0.2106,0.3978 0.4499,0.7158 0.6604,0.8357 0.118,0.2125 0.042,0.3434 -0.2779,0.8357 -0.2412,0.3978 0.0927,0.2507 0.903,0.8763 1.031,0.8204 0.6132,0.278 1.0076,0.212 0.8238,0.3591 0.4766,0.4246 0.5812,0.7545 0.2545,0.7684 0.118,0.6365 -0.2407,1.9088 -1.0463,2.9818 -1.2737,2.8643 -1.4321,2.5841 -1.2703,1.9746 -0.2794,0.3706 -0.0372,0.106 -0.9551,1.3529 -0.5057,0.6757 -1.6423,2.2254 -2.8624,3.2617 -1.341,1.3237 -0.6332,0.7565 -4.1127,3.8041 -2.6079,2.1074 -1.6308,1.1543 -0.7932,0.4899 -0.3992,0.3171 -0.064,0.5306 -0.0153,10.1789 0.1194,0.2527 h 0.2244 l 1.7483,-1.4995 1.7641,-1.2718 1.4183,-0.755 0.9169,-0.318 0.9785,-0.2259 1.4723,-0.1585 1.7894,0.0792 1.3256,0.2259 1.5248,0.5153 1.3396,0.8357 1.1504,0.9551 1.233,1.5907 0.5578,1.3104 0.3166,1.3796 0.0287,0.8611 -0.1901,1.4183 0.0788,0.2259 0.1891,0.0659 1.1504,0.0792 1.8701,0.4647 1.2602,0.7144 0.9819,0.797 0.7937,0.8205 1.1523,1.6442 0.3199,0.7411 0.4232,1.7369 v 1.073 l -0.2245,1.2197 -0.5573,1.4188 -0.5578,0.7951 -0.3032,0.2512 v 0.1986 l 0.8357,0.5845 0.554,0.2512 1.2234,0.8759 1.9842,1.7874 0.649,0.7025 0.7832,0.915 0.4785,0.7951 0.9924,1.9761 0.5171,1.6829 0.1834,0.861 v 2.1461 l -0.1432,0.7163 -0.3568,0.9279 -0.4364,0.5965 -0.3453,0.3844 0.0387,0.2254 0.5811,0.4231 0.8778,0.5711 2.5152,1.7369 2.8118,2.1986 1.0459,0.9026 0.8629,0.6891 1.3629,1.2989 0.6232,0.4905 0.5205,0.4632 0.4346,0.3706 1.0091,0.9804 0.5831,0.5305 0.5291,0.6237 0.9011,0.8085 2.3214,2.5706 0.1819,0.1605 0.3725,0.4766 0.6605,0.7545 1.3949,1.6695 0.4498,0.7163 0.4227,0.4766 2.4278,3.499 0.49,0.7971 1.0195,1.6695 0.9265,1.6829 0.4632,0.7296 0.4398,0.6891 0.2121,0.4766 0.9417,1.6175 0.9269,2.094 0.5033,0.8625 1.523,3.7903 0.1905,0.3572 0.5138,1.2856 1.5502,4.6919 0.0926,0.4379 0.4393,1.5382 0.2531,0.6098 0.064,0.6079 1.0884,5.5143 0.234,1.5109 0.2679,2.32 0.0926,0.3839 0.0927,1.1003 0.094,0.8476 0.2106,4.2149 0.0253,0.5831 0.0426,0.318 -0.0273,0.2918 0.0387,1.1136 -0.0387,0.7952 -0.0406,2.306 -0.1193,1.193 -0.0793,2.6632 -0.4346,5.9656 -0.7311,6.1088 -0.969,5.9115 -0.1174,3.7923 0.1447,2.5959 -0.0406,0.8763 0.0792,0.9532 0.1734,3.6055 0.0926,1.1657 -0.064,0.4379 -0.0539,2.4918 -0.1347,1.2197 -0.1433,1.7502 -0.4126,2.4379 -0.7144,3.2211 -1.9508,6.8112 -0.6618,1.7369 -0.1452,0.6891 0.0406,1.7101 0.3013,2.7425 0.1232,0.4246 0.0793,0.8085 0.2794,1.7368 0.2359,1.7641 0.637,3.5109 0.8204,3.3118 0.1333,0.7703 0.2927,1.233 0.8224,4.8233 0.5152,4.2287 0.0678,1.4842 -0.1972,2.2655 -0.2426,1.1408 -0.755,1.9608 -0.7139,1.1271 -1.1929,1.1929 -0.9838,0.6771 -1.4942,0.7145 -1.6294,0.4785 -0.9164,0.1041 -1.1538,-0.0387 -1.3109,-0.2254 -1.8414,-0.7163 -1.4742,-0.9938 -1.0324,-1.0984 -0.6505,-0.8763 -0.8223,-1.8161 -0.3973,-1.3644 -0.1433,-0.743 -0.0673,-1.5769 0.0539,-0.7292 -0.0133,-0.4637 0.1179,-1.7368 0.6113,-3.1132 1.1929,-4.6666 1.0597,-3.3796 1.6423,-6.0042 0.2258,-0.6485 0.5712,-2.042 0.2646,-0.8878 0.3572,-1.4049 0.1719,-0.9804 0.4632,-1.9222 0.1041,-1.934 -0.34,-1.9222 -0.16,-0.6891 -0.2244,-1.021 -0.4007,-1.4708 -0.2106,-0.7679 -0.7564,-2.4398 -0.266,-0.6891 -0.3677,-1.0864 -0.266,-0.8238 -0.2527,-0.5559 -0.1986,-0.0387 -0.2665,0.2646 -1.5635,2.2268 -2.744,3.3409 -1.3763,1.3257 -0.6891,0.7412 -0.8357,0.7956 -0.9164,0.8739 -0.979,0.8089 -1.2836,1.1404 -2.4933,1.9475 -0.4766,0.3978 -1.4322,1.0864 -0.6738,0.5444 -0.7984,0.596 -0.8491,0.6351 -5.1957,3.3796 -4.1055,2.1614 -0.9016,0.4632 -2.8352,1.2063 -0.4127,0.2259 -1.6188,0.6098 -0.7665,0.3439 -2.7832,0.9145 -7.4884,1.9474 -5.9522,1.0616 -2.8638,0.3586 -3.3004,0.3171 -2.3461,0.0401 -3.1786,-0.0401 -2.9436,-0.1198 -3.0487,-0.3439 -1.0468,-0.1714 -1.3123,-0.1065 -3.1427,-0.5711 -1.4575,-0.2254 -2.0535,-0.4232 H 289.63 l -0.0525,0.2527 0.4503,2.7024 0.7703,3.8562 0.2235,0.9704 0.8887,3.723 0.3061,1.882 0.171,0.8223 0.0659,0.5425 0.0654,0.8219 0.2273,1.7755 0.1447,3.7521 -0.158,1.7488 -0.3324,1.5649 -0.3586,1.127 -0.9938,1.7216 -0.6352,0.8763 -0.7564,0.7545 -1.0597,0.9145 -0.8357,0.5158 -1.2449,0.3997 -1.1404,0.2378 z" />
    <path
       id="path23"
       style="fill:#005ba2;fill-rule:evenodd"
       d="m 283.9176,466.8019 -1.245,-0.1872 -1.2062,-0.3973 -0.9145,-0.5172 -1.0201,-0.8749 -0.8753,-1.179 -0.5955,-1.2331 -0.3988,-1.3915 -0.1719,-0.9943 v -1.6423 l 0.3042,-2.9971 0.9016,-5.5123 1.5363,-7.4631 1.1418,-5.9116 0.3839,-2.7158 -0.1337,-0.3587 -0.7679,-0.3572 -3.1279,-1.2855 -4.414,-2.1075 -4.8777,-2.9025 -2.9823,-1.988 -3.9087,-2.9818 -2.3333,-2.1079 -2.5191,-2.4914 -1.9345,-2.1074 -2.9417,-3.4336 -0.6366,-0.8338 -1.2316,-1.5769 -2.9832,-4.1881 -0.5301,-0.8629 -1.074,-1.6308 -0.2779,-0.2101 -0.0922,0.1447 0.0396,1.0343 0.3037,2.8624 0.597,3.9236 1.5635,6.9326 0.3982,2.7019 0.066,2.7177 -0.0922,1.4184 -0.2789,1.4049 -0.4771,1.405 -0.477,0.8204 -0.6753,0.9556 -0.9551,0.9145 -1.02,0.6757 -0.9685,0.3973 -0.9661,0.1853 -1.1939,-0.0253 -0.9541,-0.2794 -0.8481,-0.4379 -0.915,-0.7144 -0.6753,-0.7025 -0.7956,-1.3648 -0.5959,-1.6576 -0.2656,-1.9746 v -2.584 l 0.2393,-2.266 1.0602,-5.3285 1.2588,-5.0238 0.3834,-2.0941 0.1734,-1.6561 0.106,-0.4112 0.2779,-2.7038 0.0798,-4.8113 -0.1586,-3.2197 -0.1064,-0.903 -0.1061,-1.5903 -0.5038,-2.8757 -0.1853,-1.0478 -1.1002,-4.3466 -1.0206,-4.2674 -0.7956,-5.9636 -0.2779,-4.3347 0.0396,-3.3004 0.0402,-0.4766 0.0133,-1.9087 0.0927,-2.2679 0.0921,-0.5946 0.1194,-1.8294 0.5831,-4.3347 0.7565,-4.0301 0.8342,-3.5243 1.2326,-4.1222 0.9938,-2.9431 1.8295,-4.5066 1.7893,-3.8023 2.1471,-3.8982 1.3118,-2.1733 2.3858,-3.5783 2.744,-3.6189 2.1858,-2.6246 0.5047,-0.5172 0.7154,-0.7951 2.7569,-2.7831 0.6232,-0.5559 2.5172,-2.2679 3.5663,-2.7831 1.5897,-1.1251 1.83,-1.2736 0.1457,-0.2512 -0.0659,-0.3453 -0.6634,-1.2044 -0.3581,-1.1676 -0.2646,-1.8161 0.0397,-1.351 0.4245,-1.8161 0.6356,-1.4589 1.0339,-1.7087 0.9804,-1.2464 2.0019,-1.8548 1.02,-0.7297 0.1724,-0.2779 -0.0926,-0.2646 -0.7818,-0.6499 -0.7951,-1.1003 -0.3973,-0.861 -0.1471,-0.6753 -0.0391,-1.2736 0.2254,-1.1523 0.5563,-1.3648 0.5969,-0.9551 0.9141,-1.0344 0.7956,-0.7144 1.4708,-0.9551 1.405,-0.5965 2.0802,-0.5964 2.1356,-0.3439 1.5496,-0.0401 1.5759,-0.0673 0.1218,-0.1452 -0.0931,-0.2779 -0.4642,-0.6753 -0.5167,-1.0749 -0.2388,-0.9943 -0.0134,-0.967 0.1318,-0.7679 0.3587,-0.8491 0.5563,-0.8338 0.7159,-0.7163 1.1002,-0.6753 0.9145,-0.3185 0.7011,-0.1466 h 1.5926 l 1.1251,0.2259 1.8032,0.6351 1.5497,0.8352 1.02,0.6777 1.606,1.351 1.1385,1.1929 1.8691,2.4508 1.0726,1.7234 0.7302,1.3529 0.2239,0.2378 0.0951,-0.2511 -0.0822,-1.299 -0.5296,-2.9025 -0.5558,-4.1628 -0.4771,-2.9164 -0.6748,-2.6365 -0.3983,-1.0597 -0.4637,-0.6906 -0.5167,-0.4231 -0.6384,-0.5305 -0.3959,-0.7297 -0.1997,-0.967 -0.1313,-0.9012 -0.3586,-0.5291 -0.7139,-0.8758 -1.1156,-1.2316 -0.4904,-0.3185 -0.4771,-0.0402 -0.7536,0.2121 -0.5176,-0.0655 -0.5301,-0.3591 -0.808,-0.861 -0.319,-0.1328 -0.3458,0.0927 -0.8734,0.7158 -0.3439,0.1314 -0.4245,-0.0655 -0.5444,-0.3572 -1.6304,-1.6695 -2.4646,-3.2483 -2.2277,-3.5395 -1.033,-1.9475 -1.1518,-2.6499 -1.3653,-3.7249 -0.5182,-0.8218 -1.6299,-1.9088 -2.9292,-3.0358 -3.3133,-3.4455 -0.743,-0.5153 -0.5955,-0.1991 -1.021,-0.1734 -0.49,-0.2779 -0.4379,-0.6891 -0.3185,-1.1136 -0.1848,-1.4704 0.0396,-0.9943 0.4245,-2.2406 0.4771,-1.4436 0.8744,-2.0554 1.3524,-2.5979 1.7092,-2.9818 1.6308,-2.4126 1.7483,-2.2659 2.3476,-2.7832 0.3037,-0.318 1.7636,-1.7894 3.021,-2.6652 1.5382,-1.2063 1.7617,-1.297 1.711,-1.1137 3.1676,-1.9488 3.604,-1.67 2.8892,-0.9145 2.2803,-0.4632 1.7899,-0.0812 1.5759,0.2259 1.0888,0.3591 0.5707,0.3973 0.275,0.4231 0.1347,0.8491 -0.1481,0.967 0.1051,0.4246 0.4819,0.6232 2.8495,3.233 1.3873,1.4722 3.0778,3.4064 1.3906,1.4303 0.745,0.4785 2.1575,0.807 2.0688,0.9938 1.6174,0.9551 2.6213,1.83 2.4312,1.9474 3.1504,3.0477 1.1017,1.393 0.2259,0.4226 -0.0287,0.4384 -0.2359,0.4513 -0.6638,0.7937 0.0372,0.3859 0.3993,0.5286 0.8218,1.127 0.224,0.6099 -0.064,0.4904 -0.3858,0.7412 -0.0402,0.3185 0.3587,0.5711 1.3123,1.3916 0.7416,0.6351 0.7813,0.438 1.0363,0.1719 0.5272,0.3185 0.5558,0.8491 0.2426,0.6079 0.1299,0.8223 -0.0926,0.9685 -0.2799,1.0191 -0.5945,1.5788 -1.2316,2.424 -1.6308,2.7717 -1.6695,2.424 -2.1882,2.903 -2.0639,2.3854 -2.0721,2.2674 -2.8624,2.7426 -0.6619,0.531 -0.6371,0.5826 -3.4197,2.7039 -2.9813,2.1193 -0.3324,0.4652 -0.1318,0.5439 -0.1609,11.5304 -0.0382,2.4259 -0.2646,6.6542 0.054,0.1586 h 0.1843 l 0.436,-0.7431 0.5315,-1.0072 0.6251,-1.021 0.7259,-1.1136 1.1958,-1.5114 1.4302,-1.5497 0.3859,-0.3185 1.1136,-0.8744 1.5096,-0.9532 1.179,-0.5578 1.5788,-0.477 1.2077,-0.2254 1.6662,0.106 0.903,0.2392 1.1103,0.5172 0.8625,0.5965 0.915,0.9937 0.4766,0.9284 0.3586,1.085 0.0673,1.1404 -0.2254,0.9551 -0.3185,0.7803 -0.5425,0.903 v 0.1314 l 0.2106,0.094 h 1.9069 l 1.5955,0.3033 1.6141,0.637 0.9011,0.5578 0.967,0.9398 0.5444,0.8224 0.5153,1.1537 0.2159,0.9804 0.0367,0.9809 -0.212,1.0592 -0.3944,0.8477 -0.6252,0.849 -0.9164,0.7431 -0.8744,0.49 -0.0926,0.1719 0.1619,0.1719 1.1136,0.4513 0.7818,0.4231 1.3796,0.8085 2.4899,1.8701 1.9475,2.0267 0.915,1.3529 0.6365,1.3777 0.3558,1.2989 0.1347,0.9943 -0.042,1.2851 -0.2479,1.2722 -0.5219,1.2468 -0.6605,1.0206 -0.0926,0.3319 0.1327,0.2645 6.3887,4.3853 2.7845,2.1481 1.6428,1.4183 1.0965,0.8877 2.9851,2.8644 2.5172,2.808 1.6996,1.9899 1.9073,2.3854 1.7488,2.4393 2.3046,3.5768 3.1805,5.595 2.2306,4.9292 1.1237,3.0105 0.266,0.7684 0.531,1.5109 0.118,0.5306 0.9804,3.2196 0.1733,0.7292 0.7025,3.0883 0.809,5.1953 0.436,3.9761 0.2918,4.6398 -0.0406,5.01 -0.3591,6.7979 -0.4107,3.8442 -0.2493,1.6562 -0.4131,2.414 -0.224,1.5229 -0.5138,3.1943 -0.202,2.6771 0.0115,0.8219 -0.0249,0.4518 0.0134,5.3017 0.1834,2.4508 0.1098,1.1662 -0.0272,0.3452 0.1046,1.5635 -0.064,1.4183 0.0926,0.4365 -0.1332,0.3992 -0.4651,4.1208 -0.3974,2.3061 -0.5831,2.7039 -0.1852,0.6098 -0.8186,2.903 -0.9469,2.8352 -0.4446,1.3663 -0.2293,0.2259 h -0.3724 l -0.2608,-0.2665 -0.3219,-1.0072 -0.5678,-3.2869 -0.9923,-3.8577 -2.2168,-7.8055 -0.2106,-1.9355 -0.0926,-0.1585 h -0.1065 l -0.2646,0.3051 -0.9264,1.5888 -2.5353,3.553 -2.554,3.1685 -1.3409,1.5096 -3.5936,3.6594 -1.0596,0.967 -2.5425,2.2674 -2.0702,1.6963 -2.9818,2.2258 -3.7774,2.5048 -3.339,1.988 -3.457,1.7488 -3.9656,1.7115 -3.7382,1.3109 -3.7235,1.075 -2.9698,0.7545 -4.4374,0.8758 -4.7722,0.6218 -3.9006,0.3185 -6.1183,-0.0406 -2.031,-0.1581 -1.1122,-0.0386 -5.2087,-0.6371 -5.3418,-1.1017 -3.4073,-0.8863 -0.1715,0.1313 -0.0654,0.1853 0.0525,1.0597 0.1318,0.8242 0.3978,2.5573 2.4647,12.2338 0.3586,2.32 0.319,2.0926 0.0793,3.1551 -0.0922,1.4843 -0.3586,1.5787 -0.6762,1.4957 -0.8343,1.033 -0.8754,0.797 -0.8223,0.4771 -1.1795,0.3562 z" />
    <path
       id="path25"
       style="fill:#cf0017;fill-rule:evenodd"
       d="m 284.2767,463.6195 -0.915,-0.0272 -1.02,-0.3166 -0.7435,-0.4766 -0.6748,-0.8242 -0.5177,-1.0984 -0.3443,-1.5516 -0.0788,-1.2316 0.276,-3.1012 0.4642,-2.7831 0.4508,-2.308 0.0659,-0.5965 0.7039,-3.5109 0.7823,-4.5606 0.106,-0.7545 0.3051,-1.3663 0.6098,-3.445 0.1056,-0.1332 0.1184,0.212 0.3324,2.202 0.5162,3.7487 1.6571,8.5515 0.212,1.3763 0.4509,2.8099 0.2234,2.4259 0.055,1.9494 -0.2259,1.7349 -0.3983,1.1929 -0.5559,0.8223 -0.6232,0.5559 -0.9001,0.3992 z" />
    <path
       id="path27"
       style="fill:#00529e;fill-rule:evenodd"
       d="m 371.5549,458.887 -1.4183,-0.1853 -1.0344,-0.3166 -0.8997,-0.5558 -0.9197,-0.8377 -0.713,-1.0983 -0.4379,-0.9823 -0.2746,-1.1404 -0.1113,-1.6423 0.0425,-0.4752 -0.0425,-0.3591 0.2412,-2.2674 0.7798,-3.8295 0.9164,-3.4197 0.5024,-1.6561 0.692,-2.4666 1.4574,-4.9832 1.1524,-5.2224 0.5692,-3.3658 0.1605,-0.2918 0.2406,-0.1194 0.224,0.0521 0.1552,0.2526 0.1481,0.8357 0.1198,1.6695 0.1968,2.5845 0.3051,2.2808 0.1213,1.1389 0.5812,3.4723 0.2125,1.3257 0.8352,3.9221 1.1796,5.8323 0.2932,2.7965 0.0521,2.1346 -0.1299,1.7216 -0.3353,1.181 -0.5558,1.2048 -0.5965,0.8372 -0.6753,0.7683 -0.701,0.502 -0.903,0.4379 -0.9145,0.2258 z" />
    <path
       id="path29"
       style="fill:#00529e;fill-rule:evenodd"
       d="m 253.0632,456.7796 -1.511,-0.0387 -1.2726,-0.3051 -1.2197,-0.5965 -0.7951,-0.6351 -0.702,-0.7426 -0.7158,-1.1543 -0.3974,-1.073 -0.3319,-1.2722 -0.1719,-1.8949 0.0258,-1.5516 0.3983,-3.061 0.9145,-4.532 0.9541,-4.136 0.7417,-2.9298 0.4904,-2.3194 0.3448,-1.4843 0.3711,-1.8548 1.2196,-5.7802 0.8219,-5.1938 0.0921,-1.0869 0.213,-0.3587 0.1982,-0.0525 0.2259,0.0927 0.1189,0.4231 0.4107,3.3137 0.8343,5.0911 1.7106,8.125 0.7955,3.2717 0.0788,0.4246 0.3453,1.5233 0.5697,2.9699 0.3711,1.8295 0.5172,3.6962 0.1184,2.4279 -0.0788,2.0267 -0.3052,1.6303 -0.5167,1.4981 -0.4379,0.8338 -0.7149,0.9417 -0.4637,0.4766 -0.2392,0.2393 -1.3123,0.755 -1.0473,0.3586 z" />
    <path
       id="path31"
       style="fill:#cf0017;fill-rule:evenodd"
       d="m 371.5162,455.8646 -0.945,-0.0654 -0.5831,-0.2378 -0.7125,-0.6352 -0.3978,-0.6098 -0.4007,-1.1017 -0.1686,-0.9804 -0.0133,-1.9341 0.2373,-1.7115 0.2125,-1.0057 0.2106,-1.3782 1.0712,-4.4794 0.9417,-3.3949 0.8896,-4.2015 0.1433,-0.17 0.2159,0.7798 0.3586,2.9699 0.6332,4.8118 0.3591,2.1074 0.6872,5.1957 0.0421,1.351 -0.0421,0.3185 v 0.5559 l -0.1833,1.0477 -0.3592,1.0077 -0.5539,0.8605 -0.745,0.5564 z" />
    <path
       id="path33"
       style="fill:#cf0017;fill-rule:evenodd"
       d="m 252.7838,453.6392 -0.8743,-0.0253 -0.7417,-0.2005 -0.7426,-0.436 -0.7149,-0.7025 -0.5171,-0.8343 -0.438,-1.2077 -0.1857,-0.8085 -0.0664,-1.4054 0.2923,-2.8099 0.7941,-4.4121 1.3395,-6.0042 1.5234,-8.2449 0.0807,-0.1313 0.1447,0.3572 0.4513,3.2612 0.6227,2.967 0.1729,1.0344 1.1265,5.0505 0.384,2.3066 0.2517,1.351 0.3581,2.7425 0.0793,2.5458 -0.3047,2.1729 -0.3185,0.9555 -0.5162,0.9819 -0.6767,0.755 -0.7813,0.5153 z" />
    <path
       id="path35"
       style="fill:#ffffff;fill-rule:evenodd"
       d="m 310.678,435.6672 -0.7307,-0.1046 -1.4823,-0.4785 -0.4641,-0.3185 -0.3205,-0.49 -0.2106,-0.7025 -0.3443,-0.8744 -0.3567,-0.3051 -0.5196,-0.2913 -0.3161,-0.4112 -0.1481,-1.8295 -0.0773,-1.7487 -0.1844,-1.7636 0.0922,-0.2784 0.6074,-0.1853 0.7183,-0.0788 h 0.9923 l 0.1844,0.1041 -0.2894,0.797 0.041,1.3109 0.1314,0.3586 0.6747,0.8758 0.4886,0.2646 0.5596,0.0659 0.4127,-0.1447 0.6743,-0.7178 0.3309,-0.1451 0.7669,-0.1853 0.1361,0.0659 0.0249,0.4513 -0.0115,0.3844 0.2765,0.7158 0.2927,0.608 -0.0673,0.5711 -0.0511,0.4245 0.1829,0.6638 0.4637,0.6471 0.0277,0.4379 -0.2665,0.7431 -0.4374,0.7025 -0.3042,0.3572 -0.372,0.1986 -0.7684,0.2125 z" />
    <path
       id="path37"
       style="fill:#ffffff;fill-rule:evenodd"
       d="m 298.2312,435.6285 -0.5693,-0.0272 -0.6222,-0.1332 -0.6361,-0.0655 -0.1466,-0.1198 0.4245,-0.2254 2.1074,-0.7684 0.7288,-0.3572 0.3983,-0.4652 0.4111,-0.7564 0.3701,-0.2373 0.7947,-0.106 0.6251,0.0267 0.0788,0.1179 -0.0526,0.1872 -0.2535,0.1581 -0.862,0.2918 -0.2235,0.2646 -0.2536,0.8758 -0.3037,0.3978 z" />
    <path
       id="path39"
       style="fill:#ffffff;fill-rule:evenodd"
       d="m 303.0444,431.7298 -0.4121,-0.0253 -0.1075,-0.4513 -0.0392,-0.9938 0.1218,-1.4708 -0.0539,-0.809 0.0391,-0.4766 0.1858,-0.8744 0.1327,-0.4379 0.2135,-0.106 h 1.032 l 0.2512,0.1466 0.148,0.49 0.2751,2.3065 0.0425,1.9088 -0.1476,0.3032 -0.2488,0.1466 z" />
    <path
       id="path41"
       style="fill:#cf0017;fill-rule:evenodd"
       d="m 321.1373,429.0665 -0.7178,-0.0673 -0.7292,-0.3166 -0.7144,-0.6777 -0.4007,-0.6466 -0.5544,-1.4321 -0.2646,-1.7889 -0.0253,-1.5788 0.224,-2.9551 0.5425,-2.7831 0.2526,-0.8759 0.0659,-0.4092 0.2106,-0.9417 0.5439,-2.2407 0.1992,-0.8744 0.9283,-4.36 0.3047,-1.8567 0.106,-0.0253 0.1466,0.5291 0.3052,1.9493 0.5171,2.638 0.6333,2.6638 0.4264,1.4704 0.554,2.1733 0.531,2.957 0.1734,2.094 -0.0507,2.69 -0.2946,1.4843 -0.5138,1.2989 -0.5172,0.8204 -0.6404,0.5578 -0.7259,0.3572 z" />
    <path
       id="path43"
       style="fill:#cf0017;fill-rule:evenodd"
       d="m 242.2477,427.397 -0.703,-0.0272 -0.583,-0.2374 -0.8353,-0.637 -0.6356,-0.9011 -0.3973,-0.9145 -0.3047,-1.3802 -0.1199,-1.5095 0.0392,-1.9474 0.4245,-3.0759 1.1538,-5.4469 0.649,-3.0478 0.106,-0.7024 0.3314,-2.2015 0.1457,-1.2856 0.1327,-0.6623 0.2383,-2.7827 v -4.7325 l -0.3171,-3.1418 -0.743,-4.6246 -0.9938,-5.6317 -0.4771,-2.6652 -1.1666,-8.1121 -0.2383,-3.5783 0.1714,-7.7411 1.0076,-7.7124 0.7952,-3.9235 0.796,-3.127 1.2321,-3.9369 1.4312,-3.9235 2.2273,-5.0372 2.2665,-4.2287 2.9818,-4.7573 1.9484,-2.7044 2.5448,-3.1399 2.7837,-3.063 2.9818,-2.9818 3.1809,-2.7024 2.4914,-1.8696 2.6241,-1.7908 1.0344,-0.649 0.2383,-0.3167 0.3314,-0.0401 0.4107,-0.1466 0.5305,0.0401 1.139,0.2512 1.2727,-0.0386 1.0339,-0.2259 1.1408,-0.4766 1.1394,-0.7163 1.0726,-0.8744 0.4905,-0.4633 0.3061,0.0254 0.2368,0.3452 0.4905,0.6891 0.5033,0.4771 0.8224,0.4766 0.9675,0.3586 0.4245,0.0659 1.4312,-0.0406 0.9938,-0.3046 0.8491,-0.4771 0.9933,-0.7545 1.7903,-1.9088 2.7574,-3.3658 0.9002,-0.7564 0.9159,-0.5563 0.9398,-0.3587 0.8075,-0.2512 0.1877,-0.2526 -0.0673,-0.2913 -0.5712,-0.1987 -0.5563,-0.0272 -1.1648,0.1872 -1.0477,0.3973 -1.0348,0.5965 -0.9809,0.7951 -2.3983,2.4919 -0.7144,0.7951 -1.0625,0.8357 -0.714,0.276 -0.9016,0.0673 -0.9016,-0.2254 -0.5033,-0.3185 -0.3983,-0.5038 -0.2908,-0.8878 -0.0134,-0.7683 0.3042,-1.2717 0.7173,-1.459 0.9541,-1.1795 0.9938,-0.9145 1.2306,-0.8744 1.3391,-0.6757 1.9613,-0.7159 1.5396,-0.3185 2.371,-0.1447 2.3343,0.2646 1.6026,0.3973 2.6509,1.073 1.1924,0.6777 1.6557,1.3123 0.4393,0.5826 0.4475,0.6757 0.2154,0.106 0.2913,-0.0673 0.1595,-0.2779 0.1447,-0.8085 v -6.2822 l -0.2369,-5.2091 -0.2402,-3.5782 -0.1447,-1.2856 -0.2154,-3.1671 -0.1843,-1.6442 -0.5688,-5.8714 -0.5028,-3.3405 -0.3983,-1.7488 -0.5955,-1.8548 -0.5573,-0.9957 -0.861,-1.0191 -0.319,-0.691 -0.0659,-0.2507 0.0263,-0.9269 0.5167,-2.0148 1.0329,-2.4527 1.3524,-2.3858 1.9489,-2.9293 1.9465,-2.5439 2.3853,-2.6652 3.1819,-3.221 1.1944,-1.0736 1.5124,-1.3915 2.6513,-2.1462 3.191,-2.3452 3.4837,-2.1881 2.256,-1.1929 1.5128,-0.6758 1.361,-0.3973 1.1443,-0.0659 0.6079,0.224 0.4365,0.531 0.106,0.6753 -0.2646,1.3915 -0.8725,1.9761 -2.6265,4.042 -1.2703,1.671 -0.6652,0.807 -1.4455,1.8161 -2.8099,3.1012 -2.8758,2.903 -4.5725,3.8968 -2.7292,2.0416 -1.3123,1.1929 -0.5158,0.8471 -0.2794,0.6891 -0.0673,0.7025 0.0922,9.3318 0.1361,2.8099 -0.0311,0.4231 0.0444,0.7158 -0.0133,6.3495 -0.161,8.1895 -0.0673,0.9279 -0.2354,5.4082 -0.2665,4.68 0.1299,0.3959 0.1748,0.1466 h 0.3419 l 2.0582,-1.4575 0.9919,-0.5186 1.5764,-0.6352 1.287,-0.3185 0.7005,-0.106 1.7522,0.0401 1.0716,0.2646 0.8624,0.3591 1.0597,0.6753 0.7163,0.7158 0.714,1.1409 0.2951,0.8858 0.0501,0.9284 -0.1833,1.127 -0.3978,0.915 -0.6772,0.7951 -1.2177,0.7951 -0.9556,0.3706 -0.2526,0.2645 0.1346,0.278 0.2918,0.2005 0.7159,0.0659 1.1523,-0.1857 1.1003,-0.4379 0.8591,-0.5965 0.8758,-0.9804 0.5172,-1.021 0.3591,-1.1523 0.0926,-0.9417 -0.1332,-1.1524 -0.2373,-0.7158 -0.4785,-0.9417 -0.16,-0.278 0.3214,0.0406 1.3127,0.8744 0.672,0.5033 1.5114,1.2063 0.7579,0.7011 2.2253,2.1227 1.1137,1.073 1.8042,1.4976 1.5095,0.9943 1.1237,0.5573 0.8357,0.2239 1.2363,0.0793 1.1915,-0.1194 0.4886,0.1868 2.4259,1.3915 2.6652,1.7101 3.8963,2.7832 3.4995,2.9412 0.6738,0.6237 2.2674,2.1595 0.3978,0.4245 1.511,1.5635 2.2674,2.6246 0.4131,0.5831 0.6585,0.797 1.8701,2.4646 0.3706,0.5559 2.9684,4.414 1.1136,1.8562 1.6309,3.1537 1.1251,2.4666 0.1599,0.4498 0.9824,2.372 1.3915,3.9235 1.2316,4.1881 0.4766,1.8687 0.6271,3.2865 0.6599,4.4679 0.3185,2.9026 0.0254,0.5425 0.0926,1.6442 0.0406,1.1795 -0.118,0.3973 0.1954,0.861 0.042,5.3959 -0.0268,1.8954 -0.0539,2.4512 -0.2226,1.882 -0.0826,1.5903 -0.0788,0.3185 -0.1046,1.3916 -0.2378,1.9741 -0.8352,5.1571 -0.4265,4.466 -0.1733,1.2197 0.0253,5.711 0.1901,5.8323 -0.106,2.5978 -0.1887,1.6696 -0.7144,3.7769 -0.3199,0.8491 -0.1553,-0.0253 -0.1886,-0.3854 -0.9264,-2.8238 -0.9804,-2.6771 -0.5325,-2.3448 -0.3152,-3.1422 0.1046,-5.9904 -0.1619,-2.6638 -0.6198,-4.4794 -0.6605,-3.1824 -0.2426,-0.9149 -0.2474,-2.2388 0.064,-3.0611 0.1834,-2.042 0.2159,-1.2989 0.0386,-1.9474 -0.1872,-1.3529 -0.5558,-1.7889 -0.4766,-1.021 -0.5965,-0.9131 -0.8357,-0.8625 -0.6872,-0.4364 -0.7984,-0.2794 -0.7937,-0.0272 -0.8238,0.266 -0.7784,0.5964 -0.7192,0.8224 -0.4766,0.8744 -0.6757,1.9087 -0.3166,1.5903 -0.4131,3.0224 -0.596,2.0401 -0.4637,1.3782 -0.5945,3.0357 -0.1314,1.7889 0.0268,1.405 0.1552,0.9942 0.106,1.0731 0.3859,1.6442 0.2932,1.2182 0.2225,0.7698 0.9026,4.1222 0.1891,2.2273 -0.0693,0.9923 -0.3452,1.181 -0.5038,0.9145 -0.5191,0.5831 -0.6199,0.3978 -0.3586,0.106 -0.6084,-0.0272 -0.4919,-0.1987 -0.5425,-0.3973 -0.5172,-0.6098 -0.4365,-0.7956 -0.2793,-1.1538 -0.0674,-1.3915 0.1041,-1.3782 0.2799,-1.9609 1.2349,-5.4602 0.5831,-2.308 0.3014,-2.0535 0.0692,-1.7235 -0.2125,-1.2717 -0.4379,-1.4054 -0.6758,-1.4303 -1.1523,-1.8161 -1.5129,-1.8696 -1.5883,-1.4307 -2.0706,-1.511 -2.7665,-1.6829 -1.6055,-1.3915 -0.9011,-0.9943 -0.8357,-1.2196 -1.2431,-1.9876 -1.6728,-2.3858 -1.4303,-1.4317 -1.2622,-0.8357 -0.9804,-0.3978 -1.1642,-0.3166 -0.8992,-0.1061 -1.3549,0.0655 -1.5496,0.3572 -0.9656,0.4384 -1.0731,0.7951 -0.7984,0.7951 -0.7951,1.1404 -0.4112,0.9264 -0.4651,0.9284 -0.5559,1.9474 -0.4499,3.1151 -0.1967,4.1761 0.0248,0.5425 -0.116,3.3004 -0.3085,2.8891 -0.5172,2.2273 -0.7951,2.3992 -0.8758,2.1614 -0.7799,1.7875 -0.8729,2.7712 -0.4785,2.0673 -0.1734,0.7679 -0.106,-0.0268 -0.7278,-2.6905 -1.1155,-2.7038 -1.1103,-2.372 -1.395,-2.6113 -0.8218,-1.4302 -1.1905,-2.2273 -0.7183,-1.7502 -0.713,-2.2139 -0.7975,-3.5511 -0.9278,-5.3409 -0.714,-2.6246 -0.6767,-1.6308 -0.5969,-1.0597 -0.6351,-0.8352 -0.1858,-0.1586 -0.4393,-0.3978 -0.5559,-0.3586 -0.7011,-0.1853 h -0.8739 l -0.7841,0.3047 -0.66,0.5172 -0.5988,0.861 -0.7144,1.5902 -0.8496,2.1619 -0.6743,1.179 -0.915,1.193 -2.6518,2.5572 -0.7965,1.1017 -0.5163,1.0191 -0.3834,1.3529 -0.1595,0.9938 -0.1185,3.2196 0.2388,3.6996 1.2712,7.3151 0.1075,2.5859 -0.0678,0.9924 -0.224,0.9417 -0.4637,0.7158 -0.5181,0.384 -0.543,0.2259 -0.5578,-0.0268 -0.4093,-0.2392 -0.4374,-0.4633 -0.318,-0.5831 -0.2402,-0.755 -0.1447,-0.9145 0.105,-2.1886 0.3983,-2.0802 0.9279,-4.2019 0.4374,-2.4646 0.1184,-1.9494 -0.2235,-2.0129 -0.477,-1.9761 -0.7832,-2.2912 -0.4771,-1.7641 -0.3457,-2.372 -0.2106,-1.8562 -0.2928,-1.3916 -0.5558,-1.4302 -0.7947,-1.3529 -0.8342,-1.021 -0.9819,-0.755 -0.7555,-0.3974 -0.9407,-0.2392 -0.3983,-0.0659 -1.1924,0.0659 -1.0335,0.2798 -1.1007,0.5153 -1.2583,0.9551 -1.9633,1.7368 -1.4971,0.9943 -1.232,0.5965 -1.9609,0.6351 -3.1943,0.7292 -1.4183,0.5578 -1.0745,0.7411 -1.2984,1.3257 -0.8744,1.2722 -0.5965,1.1003 -0.4374,1.3237 -0.3448,1.6056 -0.0793,2.3452 0.0397,1.7894 -0.0139,3.1685 -0.3309,2.7025 -0.3582,1.2717 -2.1733,4.9584 -0.7288,2.4393 -0.1198,0.1179 -0.1313,-0.6623 -0.2259,-1.3257 -0.9943,-2.9952 -0.6227,-1.4441 -0.7154,-2.094 -0.477,-2.1867 -0.2651,-2.0807 -0.2793,-4.5334 -0.225,-1.3916 -0.2784,-0.6504 -0.5038,-0.4766 -0.4241,-0.1466 -0.5171,0.0674 -0.4499,0.2378 -0.3983,0.4245 -0.4369,0.9145 -0.3983,1.4981 -0.649,4.2535 -0.5172,1.8161 -0.7555,1.7502 -0.3438,0.755 -0.7564,2.0148 -0.3176,1.3376 -0.1328,0.4246 -0.1981,0.2664 -0.3716,0.0387 -0.2922,-0.2645 -0.2374,-0.6772 -0.4379,-1.6428 -1.2727,-3.2344 -0.3051,-1.1929 -0.3567,-2.7039 -0.053,-2.4513 -0.1729,-0.5558 -0.2779,-0.3453 -0.4241,-0.1719 -0.4771,0.1332 -0.3586,0.4633 -0.2784,0.5826 -0.4379,1.5114 -0.2641,2.3061 -0.1457,1.4708 -0.1729,1.3529 -1.2979,5.2612 -1.1008,4.1341 -0.7153,3.6456 -0.3849,2.7431 -0.0793,2.466 0.1194,2.4646 0.3051,2.6638 0.0659,0.3066 0.0927,0.861 0.9937,5.5272 0.8095,4.3987 0.3042,3.0744 -0.0659,1.6581 -0.2522,1.457 -0.4904,1.3915 -0.5162,0.7837 -0.2259,0.1967 -0.6757,0.5191 z" />
    <path
       id="path45"
       style="fill:#ffffff;fill-rule:evenodd"
       d="m 310.1627,425.8455 -0.3849,-0.0254 v -0.106 l 0.3453,-0.0272 0.1055,0.0659 z" />
    <path
       id="path47"
       style="fill:#ffffff;fill-rule:evenodd"
       d="m 302.883,425.2896 h -1.1118 l -0.2531,-0.1466 -0.5558,-0.8864 -0.2254,-0.6771 -0.2254,-1.7755 0.0659,-1.2469 -0.1452,-0.2899 -0.2512,-0.16 -1.022,-0.212 -0.3438,-0.2646 -0.5974,-0.9942 -0.224,-0.7426 0.053,-0.4771 0.2125,-0.2932 0.4227,-0.33 0.0678,-0.3725 -0.3443,-0.9532 0.0921,-0.2125 0.6084,-0.1833 1.6046,-0.2259 0.3171,-0.16 0.1337,-0.3166 -0.0941,-0.2665 -0.2502,-0.1447 -1.0344,0.0387 -1.1537,0.1466 -0.3697,-0.0945 -0.1862,-0.3706 0.0263,-0.5693 0.1184,-0.2005 0.2139,-0.0521 0.6743,0.0673 0.5301,-0.2258 0.5974,-0.4633 0.7942,-1.0477 0.1055,-0.2918 -0.0659,-0.5692 -0.3963,-1.3262 -0.8343,-1.7349 -0.5033,-0.8223 -0.3983,-0.7025 -0.597,-0.8892 -0.1466,-0.3978 0.0678,-0.7937 0.0936,-0.4379 -0.0539,-0.4766 -0.2918,-0.5306 -0.5559,-0.7163 -1.2736,-1.2717 -0.5821,-0.5964 -0.8491,-0.8744 -0.2927,-0.1061 -0.8601,0.0521 -0.3706,-0.2259 -0.3983,-0.0387 -0.636,0.0927 -0.6638,-0.2254 -0.9671,-0.4637 -1.339,-0.4494 -0.1844,-0.1604 v -0.2255 l 0.331,-0.1991 2.3724,-0.6485 0.3434,-0.266 v -0.3706 l -0.1843,-0.2259 -0.4112,-0.0386 -2.8495,0.7817 -0.4246,0.0253 -0.3042,-0.1452 -0.3978,-0.3839 -0.3705,-0.1466 -0.6099,0.0673 -0.9283,0.2646 -0.9671,0.0659 -1.2722,-0.0779 -0.8619,0.2245 -1.1256,0.5439 -1.3653,0.33 -0.9542,0.3591 -0.201,0.2646 -0.171,0.6752 -0.3323,0.1992 -1.0191,0.212 -0.1462,0.106 -0.1322,0.649 -0.3845,0.3854 -0.0272,0.4637 0.0139,0.3047 -0.2388,0.3051 -1.1137,0.49 -0.3839,0.3978 -0.6891,1.021 -0.7421,0.6351 -1.7493,1.287 -0.637,0.7006 -0.4766,0.8223 -0.5172,1.1676 -0.2522,0.6738 -0.5568,0.8491 -0.0921,0.2527 0.0659,0.4765 0.3844,0.7952 0.1724,0.5711 0.4642,0.5425 0.2254,0.5158 -0.0664,0.2526 -0.1992,0.0941 -0.8486,-0.1734 -1.3638,-0.3839 -0.5846,-0.0273 -0.2908,0.1466 -0.1332,0.2379 0.0936,0.266 0.7153,0.2779 2.3462,0.7278 0.2245,0.1872 0.0668,0.3452 -0.0396,0.5153 0.106,0.2531 0.3845,0.5034 -0.0397,0.3032 -0.3051,0.3066 -1.246,0.6084 -0.3849,0.3858 -0.2774,0.7546 -0.1323,0.6098 -0.213,0.1719 -0.3835,-0.0654 -1.1929,-0.5564 -4.0424,-2.2674 -4.1757,-2.7038 -2.3462,-1.6695 -1.8414,-1.5382 -0.1858,-0.3725 0.0396,-0.5425 0.2785,-0.7545 0.2115,-0.1466 0.3849,0.0673 2.69,1.2196 h 0.4117 l 0.1724,-0.2526 -0.0272,-0.4245 -0.2259,-0.2646 -2.9947,-1.4436 -0.3185,-0.3333 -0.0526,-0.1586 0.0802,-2.4646 -0.1461,-1.8295 0.0922,-0.3305 0.2922,-0.106 0.8348,-0.0406 h 0.9546 l 2.266,-0.158 0.2517,-0.108 0.1996,-0.2898 -0.0268,-0.266 -0.2254,-0.1853 -0.5568,-0.0272 -3.977,0.1198 -0.2641,-0.1065 -0.1867,-0.2913 -0.5296,-1.8548 -0.596,-1.4321 -0.0535,-0.2507 0.106,-0.2527 0.9016,-0.5964 5.9245,-3.3529 0.5167,-0.4646 0.0401,-0.2646 -0.1466,-0.2125 h -0.3438 l -0.9671,0.4771 -4.7716,2.8098 -1.3123,0.7159 -0.3849,0.0659 -0.2918,-0.1853 -0.5697,-0.9011 -1.3921,-1.7101 -1.616,-1.511 -1.2722,-0.967 -0.1065,-0.2125 0.1452,-1.1791 0.4116,-2.5186 0.1462,-1.1256 0.159,-0.3319 0.1051,0.106 0.8089,3.3797 0.6366,1.7755 1.0329,1.9087 0.9948,1.2603 0.7951,0.8338 0.2115,0.1466 0.2125,-0.0267 0.2923,-1.1137 0.5831,-1.1003 0.6356,-1.7889 0.6499,-2.2 0.6357,-1.3916 0.4641,-0.9016 0.915,-2.3061 0.3711,-1.6442 0.2383,-1.6561 0.1189,-0.2125 0.1461,0.1198 0.2646,1.299 0.1189,1.2736 0.5444,2.6633 1.0334,3.0071 0.5435,1.3395 0.4374,1.5243 0.2646,1.8821 0.0659,1.9741 -0.1056,1.2856 -0.4637,2.5458 -1.3787,4.9159 -0.5296,3.4078 -0.0138,1.0983 0.1595,1.193 0.3443,1.127 0.4771,0.9942 0.5826,0.7565 0.7168,0.596 0.7822,0.3978 0.6356,0.1446 1.1132,-0.0386 0.862,-0.3047 0.8213,-0.5172 0.7164,-0.7564 0.5167,-0.7818 0.477,-1.2449 0.2646,-1.3262 v -1.6303 l -0.2512,-2.2913 -1.2588,-7.0119 -0.0798,-0.7951 0.0392,-1.9493 0.4642,-2.0669 0.914,-2.254 1.1805,-2.4111 0.9933,-2.7039 0.4637,-1.9761 0.3185,-2.3854 0.0397,-2.5052 -0.0788,-0.7545 0.0391,-1.988 0.2259,-1.2722 0.2775,-1.0611 0.3978,-0.7818 0.7168,-0.915 0.7545,-0.6752 1.2598,-0.7565 2.0931,-0.7951 2.3328,-0.7278 1.9875,-0.9555 1.4991,-0.9532 2.7158,-2.0554 1.4183,-0.8744 0.9804,-0.3978 0.7173,-0.1447 0.7273,0.0659 0.8882,0.3181 0.3458,0.2645 0.5558,0.7951 0.3587,0.969 0.7273,4.4794 0.6781,2.0535 1.0592,2.2406 0.319,1.0062 0.2502,1.8949 0.0134,1.5382 -0.2636,2.1346 -0.7173,3.3118 -0.3849,1.2875 -0.5558,2.3973 -0.2106,1.7368 -0.0134,2.2541 0.2631,1.4436 0.5167,1.3262 0.5583,0.9417 0.7154,0.7951 0.9407,0.6753 0.8095,0.3185 0.6088,0.106 1.0597,-0.0673 1.0745,-0.3167 0.6624,-0.3992 0.7574,-0.6738 0.5955,-0.8223 0.477,-1.0612 0.3439,-1.3123 0.1198,-0.9942 -0.0788,-1.7488 -0.4245,-2.8366 -1.6452,-7.6217 -0.0792,-0.7159 0.0396,-2.3452 0.2273,-1.3644 0.3176,-0.8089 0.5167,-0.8219 0.6757,-0.7163 2.053,-1.6036 0.9541,-0.9537 0.7976,-1.179 0.477,-0.9418 0.5693,-1.7368 0.477,-0.7818 0.3453,-0.317 0.4231,-0.0941 0.4508,0.1733 0.5578,0.5425 0.6332,1.0076 0.6385,1.4976 0.7154,2.65 0.5549,2.7578 0.3324,1.7894 0.636,2.0806 0.757,1.9876 0.8357,1.7101 0.3027,0.5306 0.6514,1.2989 1.9341,3.5243 2.106,4.5993 0.8352,2.3853 0.7197,3.1423 0.2898,2.0535 0.0368,1.9359 -0.2106,0.9551 -0.1853,0.1581 h -0.3959 l -0.6771,-0.3166 -0.4766,-0.4651 -0.1719,-0.4494 -0.2025,-0.863 -0.3419,-0.436 -0.4227,-0.2258 -0.4264,0.0659 -1.2206,0.7559 -0.713,0.703 -0.8357,0.5153 -1.8305,0.6117 -0.9937,0.6619 -0.6615,0.1447 -0.744,-0.0268 -0.3849,-0.1585 -0.276,-0.3047 -0.3572,-0.9417 -0.0411,-0.9924 0.1973,-1.0343 -0.0922,-0.4518 -0.7436,-0.6347 -0.489,-0.1991 -0.4517,-0.054 -1.0334,0.0659 -1.0315,-0.1986 -0.6486,0.0673 -2.136,0.7412 -0.8338,-0.0253 -0.2913,0.1986 -0.1729,0.2646 h -0.1858 l -0.3591,-0.8085 -0.3696,-0.9011 -0.1863,-0.2259 -0.3433,-0.0387 -0.2918,0.1853 -0.0922,0.3706 0.9547,2.8505 0.0916,0.5826 -0.0916,0.4637 -0.6385,0.8352 -0.1189,0.3844 0.1318,0.278 0.7044,0.5171 0.5558,0.2913 0.3587,0.4246 0.5167,1.7488 0.8342,3.3543 0.7417,3.5897 -0.0392,1.1542 0.1466,0.3725 0.2646,0.3567 0.4369,2.0287 0.8897,5.7243 0.2106,2.0153 -0.1447,0.2913 -0.6924,0.1867 z" />
    <path
       id="path49"
       style="fill:#ffffff;fill-rule:evenodd"
       d="m 305.7077,425.0112 -0.3076,-0.1462 -0.0921,-0.2917 -0.1567,-1.9881 0.0922,-0.0535 0.5153,0.4647 0.4641,0.1466 1.2746,0.0793 0.6748,-0.1194 0.1332,0.0654 -0.0262,0.3052 -0.3324,0.6638 0.0411,0.5019 -0.3076,0.1466 -1.4575,0.1853 z" />
    <path
       id="path51"
       style="fill:#ffffff;fill-rule:evenodd"
       d="m 309.6412,424.5733 -0.4508,-0.0674 -0.064,-0.2493 0.1872,-0.4245 1.2164,-1.8954 0.319,-0.532 0.7979,-0.8729 0.714,-0.5038 0.9002,-0.4766 0.2941,0.0253 0.2751,0.1986 0.1098,0.2665 -0.0692,0.5153 -0.3157,0.5692 -0.8228,1.1543 -0.7187,1.2449 -0.7531,0.7445 -1.3395,0.2646 z" />
    <path
       id="path53"
       style="fill:#ffffff;fill-rule:evenodd"
       d="m 305.1895,422.068 h -0.1184 l -0.2665,-1.4049 -0.7932,-5.1432 -0.2531,-1.053 2.1485,-0.522 1.1915,-0.2531 2.7043,-0.6485 0.5039,0.0659 0.4255,0.4246 0.105,0.4245 -0.1456,0.7932 0.1709,0.4905 0.3849,0.3586 0.4389,0.3305 0.1304,0.2793 -0.2106,0.5444 -2.8925,3.0325 -0.6466,1.1556 -0.4785,0.4618 -0.6877,0.2254 -1.1552,0.0421 -0.3715,0.1451 z" />
    <path
       id="path55"
       style="fill:#ffffff;fill-rule:evenodd"
       d="m 267.2579,419.2854 -0.9542,-0.0659 -0.7827,-0.2006 -0.6222,-0.3959 -1.3123,-0.9417 -0.5569,-0.3706 -2.0276,-1.6962 -0.384,-0.1467 -1.2335,0.1987 -0.4899,-0.1853 -0.9547,-0.7951 -2.584,-2.4245 -1.1533,-1.2603 -0.2115,-0.3705 0.1719,-0.0268 2.4517,1.7101 0.9542,0.7025 4.3481,2.9799 1.9484,1.0883 2.5305,1.4188 0.9546,0.49 0.0931,0.1466 z" />
    <path
       id="path57"
       style="fill:#00529e;fill-rule:evenodd"
       d="m 305.5878,417.3766 -0.4245,-0.1065 -0.4642,-0.4245 -0.1299,-0.384 0.0511,-0.3438 0.3453,-0.3859 0.5315,-0.2373 1.2292,-0.2393 0.7302,-0.0267 0.413,0.1466 0.1696,0.3319 -0.1318,0.7139 -0.1992,0.5325 -0.2894,0.1452 -0.8109,-0.1318 z" />
    <path
       id="path59"
       style="fill:#ffffff;fill-rule:evenodd"
       d="m 304.1566,413.3213 -0.5038,-0.0268 -0.2269,-0.2645 -0.7526,-3.393 -0.6647,-3.0358 0.0282,-0.3706 0.3829,0.0387 0.7049,0.1332 0.5826,-0.0525 0.2617,-0.1327 0.3587,-0.2646 h 0.4111 l 0.9413,0.224 0.3586,0.212 0.3204,0.3859 0.5693,1.2062 0.5826,0.6605 0.0248,0.4245 -0.0382,0.5979 0.1829,0.4112 0.4637,0.4365 0.2947,0.9145 0.4226,0.477 v 0.1987 l -0.4374,0.1987 -2.2011,0.5563 z" />
    <path
       id="path61"
       style="fill:#e7304b;fill-rule:evenodd"
       d="m 263.3219,410.2201 -0.5969,-0.0659 -0.5697,-0.32 -0.3582,-0.3825 -0.3181,-0.7431 -0.1064,-0.7564 0.0802,-1.6289 0.4231,-2.8892 1.4326,-7.2105 0.0793,-0.106 0.1055,0.1986 1.1271,8.3103 0.0921,1.776 -0.0396,1.8295 -0.2249,0.9938 -0.3582,0.5831 -0.4107,0.3047 z" />
    <path
       id="path63"
       style="fill:#ffffff;fill-rule:evenodd"
       d="m 252.8636,409.1465 -0.3305,-0.106 -0.5974,-0.6251 -1.6299,-2.1461 -1.4708,-2.212 -0.6094,-0.9417 -1.1403,-1.7755 -1.352,-2.4532 -0.4374,-1.1924 -0.0659,-0.5564 0.2259,-1.0458 0.7941,-2.4007 0.5836,-1.5635 0.2517,-0.7024 0.2516,-0.1199 0.3443,0.0927 1.2598,0.9555 0.7956,0.8606 1.3515,1.7101 0.755,1.233 0.7559,1.5769 0.5965,1.6561 0.3176,1.3123 0.2917,1.9494 0.0526,2.1594 -0.1719,1.7641 -0.4508,2.052 -0.2379,0.4513 z" />
    <path
       id="path65"
       style="fill:#ffffff;fill-rule:evenodd"
       d="m 336.8825,403.2216 -0.6117,-0.0673 -0.5406,-0.1314 -0.6251,-0.0659 -0.342,-0.3046 -0.202,-0.3453 -0.0386,-0.2779 0.1867,-0.2918 0.2779,-0.1194 0.5678,-0.1332 0.5038,-0.5831 0.5153,-0.5172 2.1246,-1.5883 0.2259,-0.0406 0.0774,0.0253 -0.0387,0.2932 -0.5578,0.861 -0.7798,0.8085 -0.1887,0.4498 0.0655,0.3721 0.3051,0.2378 0.5053,0.0673 1.3376,-0.3858 0.5038,-0.3573 1.8314,-2.1346 0.1041,-0.3047 0.1065,-0.4766 0.3973,-0.7297 0.4231,-0.3166 0.4647,-0.106 0.5425,-0.054 0.2292,-0.1332 0.1313,-0.3572 v -0.9417 l 0.3166,-0.5559 0.9016,-0.6084 0.4394,-0.3453 0.9923,-0.3318 0.873,-0.5965 0.3047,-0.1853 0.4379,-0.106 1.1136,-0.0673 0.7703,-0.2374 0.266,-0.1466 0.3672,0.0401 0.2407,0.3706 0.0406,0.5038 -0.308,0.3844 -0.873,0.4766 -0.7932,0.3319 -0.8104,0.5965 -1.5482,2.254 -0.7564,0.6757 -0.4785,0.2388 -0.6485,0.0253 -0.3052,-0.0133 -0.5052,0.1986 -0.7565,0.7163 -0.5157,0.7025 -0.9532,1.4709 -0.4518,0.8352 -0.3419,0.3978 -0.5306,0.1987 -0.8237,0.1738 -0.3978,-0.1333 -0.5425,-0.3452 h -0.4227 l -0.5444,0.3586 -0.2793,0.1853 -0.6992,0.1452 z" />
    <path
       id="path67"
       style="fill:#ffffff;fill-rule:evenodd"
       d="m 366.0259,402.2278 -0.2512,-0.0926 -0.0927,-0.3572 0.0387,-0.6505 0.0678,-0.7679 -0.1065,-0.4651 -0.5052,-0.5425 -0.3166,-0.3185 -0.1065,-0.266 0.0253,-0.4365 0.3591,-0.7684 0.3472,-0.5573 0.1294,-0.6757 -0.0908,-0.6098 -0.3978,-0.7818 -0.4765,-0.4512 0.0253,-0.7278 0.6485,-1.7507 0.148,-0.7545 -0.148,-0.3319 -0.3419,-0.3186 -0.851,-0.6351 -0.3434,-0.4379 v -0.3453 l 0.3181,-0.5678 0.7803,-1.3663 0.5592,-1.2468 -0.0406,-0.5306 -0.2273,-0.1719 -0.2359,0.0926 -0.5578,0.9418 -0.532,1.0343 -0.8309,1.1524 -0.3334,0.2392 -0.2932,-0.0267 -0.7397,-0.4365 -0.7579,-0.0941 -0.3304,-0.1991 -0.1968,-0.4766 -0.4398,-2.0148 -0.1433,-1.1409 -0.0406,-2.1055 0.2379,-1.9087 0.6217,-2.2006 0.9026,-2.6513 0.2259,-0.9943 0.1179,-2.1074 0.1839,-0.7412 0.5592,-0.9417 0.5826,-0.4771 0.4637,-0.1447 0.5052,0.066 0.5039,0.2779 0.3958,0.4899 0.4399,0.809 0.436,1.4317 0.1466,1.0196 v 2.466 l -0.1987,2.6232 -0.1872,1.3123 -0.0539,1.3529 0.3724,3.5243 0.2899,1.4069 0.5072,1.7487 0.5558,2.916 0.2493,2.6637 0.0387,2.9565 -0.1447,2.5167 -0.1433,0.5038 -1.0749,1.8161 z" />
    <path
       id="path69"
       style="fill:#ffffff;fill-rule:evenodd"
       d="m 327.0202,402.1485 -0.3739,-0.106 -0.8692,-0.5964 -0.6017,-0.4652 -0.34,-0.0654 -0.8763,0.2779 -0.8338,-0.0253 -0.2106,-0.1599 -0.148,-0.5698 -0.0287,-1.4455 0.1767,-0.5172 0.2493,-0.1447 0.9923,0.0793 0.5172,-0.0387 0.7025,0.1447 0.3452,0.2799 0.8358,1.4823 0.3705,0.7297 0.3052,0.6232 v 0.3452 z" />
    <path
       id="path71"
       style="fill:#ffffff;fill-rule:evenodd"
       d="m 328.811,401.5908 -0.3873,-0.0253 -0.3033,-0.3721 -1.5921,-2.8103 -0.17,-0.5153 0.0926,-0.5578 0.3186,-0.5439 0.4632,-0.3572 0.5038,-0.0927 0.8639,0.0406 0.4231,-0.1991 0.967,-1.4976 0.5812,-0.5578 0.1853,-0.0654 0.9938,0.0267 0.2139,-0.1327 0.0793,-0.3305 -0.2794,-0.4126 -0.6103,-0.3572 -0.5153,-0.1452 -0.6232,0.0659 -0.6504,0.1333 -0.8491,-0.0272 -0.807,-0.3453 -0.4093,0.0406 -0.5305,0.3572 -0.7178,0.6619 -0.5831,0.3978 -1.073,0.0673 -0.1734,-0.0926 -0.1299,-0.5172 -0.266,-0.2393 -0.0673,-0.1466 0.0673,-0.4231 2.0282,-4.3194 1.2163,-3.0224 0.7583,-2.5587 0.3572,-1.7373 0.4141,-2.7827 0.2865,-5.3543 0.1466,-4.2148 0.3185,-1.6428 0.3587,-1.2717 0.6738,-1.4455 0.7564,-0.9805 0.7985,-0.6771 0.9284,-0.4365 1.031,-0.2646 h 1.0749 l 0.9671,0.1853 1.085,0.3978 1.2617,0.8338 0.913,0.9551 1.033,1.5769 1.6843,3.1537 0.8744,1.2989 0.7937,0.915 1.5396,1.3524 1.6814,1.2316 3.0258,1.7235 2.2492,1.4709 1.0778,1.0343 0.8711,1.2331 0.6772,1.4842 0.1852,0.9942 0.1199,2.0669 -0.2259,2.2005 -0.1972,0.9938 -0.15,0.16 -0.2206,0.0253 -0.5964,-0.0387 -0.3993,0.0387 -0.5979,-0.0387 -1.5902,0.3839 -0.2612,-0.052 -0.0306,-0.2932 0.4785,-0.6485 2.0926,-2.7039 0.9551,-1.3916 0.1466,-0.4245 -0.0673,-0.5306 -0.2359,-0.1318 -0.266,0.1719 -1.2335,1.5502 -2.2407,2.9297 -0.6098,0.5573 h -0.3433 l -0.5846,-0.4646 -4.1346,-4.2287 -4.6527,-5.1284 -0.5277,-0.6638 -2.6127,-3.2192 -0.3338,-0.6638 0.0559,-0.2913 0.5052,-0.4904 1.5076,-1.2989 1.7269,-1.5635 0.1972,-0.3974 -0.1332,-0.3844 -0.2508,-0.0673 -0.2526,0.1466 -2.4799,2.1346 -1.2569,0.9537 -0.426,0.106 -0.2531,-0.1332 -1.351,-1.6695 -1.0849,-1.4709 -0.6619,-0.9279 -0.8104,-1.2201 -0.224,-0.3434 -0.2139,-0.2917 -0.2379,-0.0401 -0.2239,0.1986 -0.106,0.2526 0.0639,0.3959 0.426,0.7431 3.2717,4.4407 0.4265,0.5158 0.1313,0.3452 -0.3333,0.4112 -2.9417,2.424 -2.0134,1.565 -0.2794,0.4111 v 0.4246 l 0.1041,0.1065 0.3219,-0.0273 0.6385,-0.4111 2.5152,-1.9742 1.3802,-1.1137 0.913,-0.6504 0.3434,-0.1194 0.2545,0.0941 0.6333,0.7412 2.5591,3.1422 0.7025,0.7952 1.9221,2.2253 5.6437,6.1241 0.2698,0.2388 0.9905,1.0076 0.0945,0.2779 -0.0812,0.1452 -2.2655,0.5573 -0.5444,0.0253 -0.6332,-0.158 -0.9403,-0.0253 -0.5086,-0.2393 -0.5425,-0.3859 -0.3557,-0.1045 -0.6385,0.0659 -1.3797,0.5171 -0.6585,0.3587 -0.3219,0.3438 -1.2683,1.6423 -0.4819,0.3458 -0.595,0.3319 -0.596,0.6618 -0.2345,0.5306 -0.1499,0.5697 0.0673,0.6638 0.2378,0.4632 0.3873,0.3166 0.342,0.106 1.828,-0.1179 0.2154,0.106 0.0926,0.2784 -0.5186,1.6576 -0.0506,0.9398 -0.266,0.3305 -1.6714,1.3123 -0.266,0.106 -0.4231,-0.0654 -0.9819,-0.3845 -0.9809,-0.2254 -0.7039,0.0268 -0.5038,0.2373 -0.3944,0.5444 -0.9265,1.8028 -0.3066,0.3046 -0.3858,0.0659 -0.7531,-0.2779 -0.4226,0.0654 -0.8911,0.4652 z" />
    <path
       id="path73"
       style="fill:#00529e;fill-rule:evenodd"
       d="m 268.1327,400.7164 -0.6103,-0.0253 -0.2784,-0.16 -0.0922,-0.2779 0.1323,-0.2646 0.6495,-0.1867 3.6976,-0.3845 4.043,-0.6752 0.2249,-0.1586 0.0401,-0.3586 -0.478,-1.4455 -1.3505,-3.4589 -1.393,-2.9546 -0.8606,-1.7115 -0.9278,-2.0793 -0.2522,-0.2392 -0.2512,-0.0268 -0.5033,0.1333 -0.2135,-0.1065 -0.0387,-0.278 0.2388,-0.3858 0.2646,-0.3166 0.0262,-0.3453 -0.0391,-0.4365 0.1452,-0.266 0.265,-0.0272 0.543,0.4923 0.4245,-0.0678 2.6514,-1.5362 2.1198,-1.1271 6.19,-3.605 4.85,-2.8371 0.637,-0.4771 0.0936,-0.3032 -0.2139,-0.6499 -0.9547,-1.7101 -1.6943,-2.6519 -0.5559,-0.8877 -0.9546,-1.4976 -0.1347,-0.384 0.0545,-0.2918 0.212,-0.1327 0.2503,0.0535 0.5577,0.6623 1.8295,2.6246 1.788,2.9819 0.5692,1.0482 0.3457,0.3433 0.3716,-0.0387 1.6155,-0.903 0.4508,-0.0387 0.2273,0.2512 -0.0262,0.3587 -0.2536,0.2913 -1.3787,0.849 -0.2765,0.3033 -0.0668,0.4245 0.3037,0.6891 2.0553,3.8195 0.4785,1.0577 0.0788,0.5038 -0.1609,0.3453 -0.1843,0.0927 -0.2383,-0.1328 -0.5167,-0.8204 -2.2803,-4.5067 -0.5167,-0.743 -0.3042,-0.0406 -1.0478,0.4785 -1.4169,0.861 -1.0348,0.5712 -0.5052,0.3438 -0.4509,0.1714 -5.2067,3.0091 -7.0118,3.9488 -0.2259,0.2393 0.0406,0.4245 1.776,3.5377 1.0864,2.4006 0.8615,2.0673 1.3921,4.0281 v 0.3453 l -0.3844,0.4632 -0.1724,0.5578 -0.4508,0.1586 -4.7321,0.7024 z" />
    <path
       id="path75"
       style="fill:#ffffff;fill-rule:evenodd"
       d="m 277.9129,400.1605 -0.33,-0.0654 -0.106,-0.2125 0.053,-0.266 0.225,-0.1466 0.4374,-0.106 0.4642,0.0267 0.1184,0.1466 -0.0525,0.2393 -0.5301,0.2779 z" />
    <path
       id="path77"
       style="fill:#00529e;fill-rule:evenodd"
       d="m 301.6924,392.4854 -0.2531,-0.1065 -0.0659,-0.3706 0.1447,-0.2913 0.8357,-0.3587 1.5903,-0.6084 4.1738,-1.8294 4.1756,-2.0268 1.6595,-0.903 h 0.3162 l 0.1996,0.2259 0.0406,0.2779 -0.1614,0.2393 -1.0593,0.6365 -5.0524,2.4647 -3.5749,1.5907 -2.6528,0.9938 z" />
    <path
       id="path79"
       style="fill:#ffffff;fill-rule:evenodd"
       d="m 276.0853,354.4333 -0.3314,-0.1719 -0.1055,-0.2645 -0.0492,-11.6899 0.1189,-0.2913 0.3844,-0.1467 h 7.7363 l 0.3324,0.1467 0.1447,0.4899 -0.021,1.6695 -0.1337,0.3305 -0.2512,0.1461 h -4.7301 l -0.4905,0.1466 -0.1447,0.4112 0.0196,0.9943 0.1318,0.2913 0.49,0.1466 h 3.6589 l 0.2918,0.1447 0.1185,0.3319 0.0143,1.9359 -0.1065,0.33 -0.2522,0.16 -3.8036,0.0387 -0.4112,0.1466 -0.1452,0.3706 0.0397,1.1929 0.1447,0.2512 0.3323,0.106 h 4.745 l 0.4508,0.1466 0.1203,0.1719 0.0115,2.0668 -0.1452,0.2527 -0.2531,0.1065 z" />
    <path
       id="path81"
       style="fill:#ffffff;fill-rule:evenodd"
       d="m 319.9802,354.2748 -2.2474,-0.0406 -0.2918,-0.1313 -0.1313,-0.3319 -0.0301,-8.8394 -0.1351,-0.3047 -0.3033,-0.1333 -2.5983,-0.052 -0.2779,-0.1858 -0.107,-0.3839 v -1.7636 l 0.107,-0.2125 0.4522,-0.1466 8.9879,-0.0387 0.5406,0.1447 0.1466,0.1872 -0.0133,2.0148 -0.2025,0.3319 -0.4093,0.106 -2.6112,0.0391 -0.288,0.1447 -0.1093,0.2913 -0.0392,8.8667 -0.1313,0.2913 z" />
    <path
       id="path83"
       style="fill:#ffffff;fill-rule:evenodd"
       d="m 328.6897,354.2342 -1.7096,-0.01 -0.3338,-0.1447 -0.1314,-0.3572 -0.0487,-11.4894 0.0674,-0.3457 0.2106,-0.1447 2.0988,0.007 0.3672,0.1466 0.1485,0.3706 0.007,3.499 0.1094,0.531 0.2746,0.1581 4.3094,0.0272 0.4498,-0.1466 0.1313,-0.3572 0.0253,-3.9355 0.1366,-0.2006 0.3706,-0.1313 h 1.956 l 0.342,0.1447 0.1485,0.2798 0.0434,11.4913 -0.1213,0.3959 -0.2492,0.1466 -2.2407,-0.0406 -0.2106,-0.1447 -0.106,-0.4245 -0.0134,-3.617 -0.1046,-0.4245 -0.2898,-0.1466 -4.6528,0.01 -0.1686,0.1733 -0.0926,0.4633 0.032,3.7401 -0.106,0.2526 -0.3319,0.1853 z" />
    <path
       id="path85"
       style="fill:#ffffff;fill-rule:evenodd"
       d="m 294.1672,348.6684 0.2073,-0.1452 -0.0659,-0.3047 -1.3123,-3.5396 h -0.1452 l -1.1394,3.4723 -0.1208,0.34 0.2106,0.1586 z m -6.9096,5.6857 -0.2512,-0.106 -0.0659,-0.1314 3.8433,-11.8671 0.2641,-0.3839 0.2669,-0.1065 3.0597,0.0306 0.4116,0.1466 0.2388,0.3433 4.7316,11.6011 -0.0397,0.3047 -0.2913,0.1452 -2.1881,0.0234 -0.648,-0.1447 -0.2402,-0.3052 -0.6562,-1.9407 -0.3147,-0.2106 -4.317,0.003 -0.3983,0.1987 -0.6084,1.9226 -0.2011,0.2961 -0.5262,0.1805 z" />
    <path
       id="path87"
       style="fill:#ffffff;fill-rule:evenodd"
       d="m 307.4975,347.3155 0.5034,-0.1839 0.4231,-0.3586 0.2106,-0.3978 0.0788,-0.6619 -0.2106,-0.5965 -0.5411,-0.4379 -0.7846,-0.1853 -2.0258,-0.0286 -0.3042,0.1447 -0.1084,0.3051 0.0148,2.0435 0.1051,0.2512 0.372,0.1466 h 2.0267 z m 2.1437,6.9593 -0.3682,-0.1466 -2.5171,-3.6036 -0.372,-0.2794 -1.4608,0.0268 -0.1056,0.1198 -0.064,0.3047 0.0263,3.0358 -0.0922,0.3305 -0.372,0.1714 h -2.1065 l -0.2927,-0.1447 -0.1318,-0.3185 -0.0425,-11.5381 0.1576,-0.371 0.3324,-0.106 5.9402,-0.007 1.1284,0.1872 0.8061,0.318 0.7422,0.5158 0.6351,0.743 0.4374,0.9532 0.1481,0.7431 -0.0936,1.1795 -0.1729,0.6887 -0.3964,0.7683 -0.6747,0.8357 -0.7436,0.5965 -0.054,0.2254 2.7574,4.414 -0.053,0.2106 -0.2913,0.106 z" />
    <path
       id="path89"
       style="fill:#ffffff;fill-rule:evenodd"
       d="m 301.0148,338.4102 -0.3305,-0.1466 -0.1069,-0.33 -0.0464,-11.4306 0.1467,-0.3305 0.2516,-0.106 1.9933,-0.0234 0.4212,0.1466 0.1347,0.2507 0.0133,3.6862 0.1361,0.4245 0.2894,0.1447 h 4.1757 l 0.331,-0.106 0.1595,-0.2779 -0.005,-3.6456 0.0411,-0.3706 0.1857,-0.1872 0.3042,-0.0654 h 2.0301 l 0.4102,0.1466 0.1318,0.4766 0.0291,11.1861 -0.148,0.4112 -0.4078,0.1466 -2.1552,-0.0168 -0.2928,-0.1332 -0.1055,-0.3047 -0.0181,-3.88 -0.1595,-0.2512 -0.4905,-0.1061 H 304 l -0.2928,0.1061 -0.1466,0.3304 v 3.6977 l -0.1476,0.4112 -0.4894,0.1466 z" />
    <path
       id="path91"
       style="fill:#ffffff;fill-rule:evenodd"
       d="m 294.4538,338.4488 h -2.1848 l -0.3324,-0.1447 -0.1055,-0.2526 -0.0296,-8.8127 -0.1347,-0.3438 -0.4508,-0.1466 -2.7641,0.0119 -0.2531,-0.1872 -0.1055,-0.5019 v -1.4722 l 0.1447,-0.3305 0.3324,-0.1466 9.6474,-0.0387 0.3586,0.1065 0.1581,0.3434 -0.0134,2.0286 -0.329,0.2373 -0.5177,0.0674 -2.6145,-0.0368 -0.2503,0.106 -0.1194,0.1987 -0.0124,8.89 -0.0917,0.2393 z" />
    <path
       id="path93"
       style="fill:#ffffff;fill-rule:evenodd"
       d="m 323.6778,338.3395 -7.4751,0.0301 -0.4073,-0.1466 -0.1332,-0.3959 -0.0354,-11.3767 0.1228,-0.2913 0.3677,-0.1447 7.4846,-0.01 0.4484,0.1447 0.1466,0.2913 -0.0272,1.8835 -0.1261,0.2846 -0.3152,0.1571 -4.4999,0.0215 -0.4126,0.1466 -0.106,0.2125 -0.0239,0.861 0.1165,0.4379 0.1987,0.1447 0.4231,0.0659 3.4197,-0.0387 0.3706,0.1462 0.1332,0.3171 v 2.062 l -0.1719,0.278 -0.3725,0.1327 -3.615,0.005 -0.3338,0.1466 -0.1046,0.3319 0.0272,1.0463 0.1834,0.2392 0.2278,0.0655 h 4.7707 l 0.3672,0.1466 0.1099,0.2913 0.01,2.2225 -0.2545,0.2254 z" />
    <path
       id="path95"
       style="fill:#ffffff;fill-rule:evenodd"
       d="m 280.4186,323.7365 -1.351,-0.0654 -1.2731,-0.2784 -0.9011,-0.3586 -1.2589,-0.7952 -0.8352,-0.7951 -0.6762,-1.021 -0.5167,-1.3123 -0.2522,-1.2182 -0.0525,-1.1538 0.1858,-1.2449 0.3973,-1.2063 0.5172,-0.9804 0.6356,-0.8357 0.9541,-0.8357 0.9413,-0.5559 1.3123,-0.4379 1.02,-0.1853 1.033,-0.0387 1.7373,0.1834 1.4842,0.4379 0.543,0.3185 0.1872,0.2646 0.0812,0.3118 v 2.2082 l -0.16,0.2646 -0.2273,0.0525 -1.5363,-0.755 -1.3524,-0.3047 -0.9938,-0.0406 -0.9938,0.1447 -0.8619,0.3993 -0.6228,0.4364 -0.5563,0.6638 -0.3582,0.7818 -0.2259,0.9536 0.0263,0.9284 0.2393,0.9145 0.5162,0.8476 0.6624,0.6232 0.7564,0.438 1.0334,0.3185 1.18,0.0654 1.1132,-0.1853 0.9016,-0.3973 0.8753,-0.5578 0.2894,-0.1853 0.1748,0.0406 0.1204,0.234 0.0243,2.084 -0.1447,0.4652 -0.4245,0.4245 -0.9016,0.436 -1.4312,0.3859 z" />
    <path
       id="path97"
       style="fill:#ffffff;fill-rule:evenodd"
       d="m 307.8562,322.7829 -3.2225,-0.0134 -0.2503,-0.106 -0.1991,-0.3319 -3.6599,-11.04 -0.0659,-0.5558 0.1318,-0.1734 0.6251,-0.1552 1.7082,0.0492 0.3705,0.106 0.2402,0.4513 2.478,8.1508 0.1853,0.212 h 0.2402 l 0.0913,-0.1834 2.5052,-8.0075 0.3046,-0.5845 0.4518,-0.246 1.7593,0.022 0.5329,0.1466 0.0922,0.2121 -0.1304,0.6351 -3.7392,11.1866 -0.2125,0.158 z" />
    <path
       id="path99"
       style="fill:#ffffff;fill-rule:evenodd"
       d="m 315.0929,322.7041 -0.2951,-0.1065 -0.2732,-0.3534 0.01,-11.4698 0.1055,-0.2507 0.214,-0.16 0.3572,-0.0659 7.4765,-0.0406 0.4092,0.1467 0.1046,0.2511 -0.005,1.8262 -0.1361,0.4498 -0.3845,0.1586 -4.6766,0.0181 -0.2154,0.1452 -0.0931,0.3047 v 1.0869 l 0.0931,0.318 0.4126,0.1452 3.6929,0.0301 0.4513,0.1466 0.1452,0.3319 0.0148,2.01 -0.2121,0.16 -0.3572,0.0659 h -3.8275 l -0.2932,0.106 -0.1586,0.2392 0.0239,1.2063 0.148,0.3706 0.288,0.106 4.9078,0.032 0.2746,0.1586 0.1112,0.3319 v 1.8629 l -0.1485,0.2918 -0.2913,0.106 z" />
    <path
       id="path101"
       style="fill:#ffffff;fill-rule:evenodd"
       d="m 293.3812,320.4768 0.9804,-0.3052 0.5955,-0.3973 0.6251,-0.7163 0.3969,-0.8219 0.2249,-1.0191 -0.0129,-1.0615 -0.2517,-1.0325 -0.5578,-0.9031 -0.7535,-0.7163 -0.8095,-0.436 -0.9938,-0.1853 -0.796,0.0387 -0.915,0.266 -0.7808,0.4771 -0.6242,0.6752 -0.477,0.8491 -0.2235,1.033 0.0391,1.233 0.2651,0.8624 0.5167,0.8997 0.6757,0.5965 0.6901,0.3992 1.0329,0.278 0.9556,0.0272 z m -0.4379,2.8218 -1.3916,-0.0387 -1.0334,-0.1853 -1.0989,-0.477 -0.8619,-0.5559 -0.9546,-0.8758 -0.7961,-1.1796 -0.5167,-1.233 -0.225,-1.2196 v -1.7488 l 0.3042,-1.2717 0.4375,-1.0483 0.8753,-1.233 0.9542,-0.8744 0.849,-0.5172 0.9933,-0.3978 1.629,-0.3046 1.5515,0.0406 1.2717,0.3046 1.3787,0.5965 1.181,0.9551 0.7139,0.8997 0.3587,0.6638 0.4379,1.1929 0.2239,1.2717 v 1.2736 l -0.2239,1.363 -0.4379,1.127 -0.7149,1.1404 -0.6767,0.7163 -0.862,0.5964 -1.0726,0.5172 -1.2339,0.3572 z" />
    <path
       id="path103"
       style="fill:#ffffff;fill-rule:evenodd"
       d="m 332.2278,315.9835 0.6653,-0.1853 0.5019,-0.3858 0.2784,-0.4632 0.1074,-0.7546 -0.1886,-0.5444 -0.3152,-0.3433 -0.4933,-0.2393 -2.7645,-0.005 -0.2918,0.1451 -0.1041,0.2508 0.022,2.008 0.1041,0.3706 0.2951,0.1466 z m 4.6127,6.6007 -2.5358,-0.0253 -0.4126,-0.1581 -1.7708,-3.0109 -0.3433,-0.4379 -0.4632,-0.1447 h -1.1524 l -0.3338,0.1313 -0.1313,0.2932 -0.0119,2.9551 -0.1466,0.2526 -0.2507,0.1041 h -1.9494 l -0.4112,-0.1447 -0.1179,-0.266 0.007,-11.6631 0.2106,-0.1853 0.4364,-0.0674 h 5.3204 l 1.4236,0.1734 0.6738,0.2106 0.7817,0.4785 0.5946,0.6232 0.4145,0.7278 0.3013,1.0616 0.0946,0.8085 -0.054,0.9264 -0.3166,0.903 -0.3978,0.6624 -0.5439,0.5559 -0.797,0.5964 -0.0507,0.2526 2.2273,3.7364 0.118,0.4112 -0.1466,0.1738 z" />
    <path
       id="path105"
       style="fill:#e7304b;fill-rule:evenodd"
       d="m 274.136,301.6284 -1.0201,-0.0654 -0.9813,-0.3185 -0.7951,-0.6218 -0.3577,-0.5172 -0.3176,-0.6891 -0.2646,-1.2063 0.0263,-1.1924 0.3181,-1.5129 0.3973,-0.9656 1.1127,-1.8295 1.1929,-1.3123 0.7431,-0.6757 2.1599,-1.5516 2.5301,-1.3509 2.5601,-1.0344 3.6031,-0.8744 1.8973,-0.266 2.6236,-0.0793 2.1476,0.2254 1.7483,0.3572 1.7769,0.5191 1.9871,0.8744 1.3787,0.7951 1.8295,1.3916 1.4312,1.4303 0.7569,1.0611 0.0263,0.1858 -0.3715,-0.1858 -1.3525,-0.9417 -2.0663,-1.0344 -1.936,-0.6753 -1.7889,-0.3844 -2.2273,-0.2779 -2.147,0.0387 -2.1208,0.3844 -1.8429,0.5573 -1.829,0.8744 -1.616,0.9957 -0.9938,0.8744 -1.2731,1.4168 -1.6299,2.4647 -1.5258,2.7058 -1.0324,1.1523 -0.862,0.6366 -1.0201,0.4364 z" />
    <path
       id="path107"
       style="fill:#e7304b;fill-rule:evenodd"
       d="m 338.4747,300.596 -0.9976,-0.0273 -0.8625,-0.2373 -1.1791,-0.7564 -2.9398,-2.6251 -2.0792,-1.8157 -1.0645,-0.8476 -0.9551,-0.7817 -2.2798,-1.5497 -1.4183,-0.7564 -2.2913,-0.9556 -1.9627,-0.436 -1.9336,-0.2259 -1.2703,0.0406 -1.5654,0.3032 -1.9636,0.6366 -0.4232,0.16 -0.1332,-0.054 0.3587,-0.3839 0.8767,-0.5965 2.0277,-1.073 1.8142,-0.7565 2.7984,-0.7545 1.6929,-0.3051 1.7522,-0.1973 3.0611,0.0779 2.2272,0.2641 2.3181,0.5171 1.6848,0.6371 1.5095,0.7158 1.4202,0.915 1.9069,1.5903 1.1523,1.2583 0.8376,1.3916 0.4499,1.0869 0.2626,1.0477 0.0253,1.1542 -0.1819,0.9666 -0.3166,0.7684 -0.5865,0.7817 -0.7937,0.5172 z" />
    <path
       id="path109"
       style="fill:#00529e;fill-rule:evenodd"
       d="m 316.9592,299.7197 -0.2913,-0.0655 -0.3166,-0.4245 -0.4905,-0.9135 -0.6385,-0.874 -0.7,-0.5983 -1.0592,-0.5559 -0.8768,-0.224 -0.7947,-0.0406 -0.9546,0.1466 -0.2101,-0.0539 -0.0693,-0.2913 0.1481,-0.2932 0.5826,-0.4766 0.8997,-0.4384 0.7144,-0.1834 0.9145,-0.0406 1.0215,0.224 0.7564,0.4651 0.544,0.5578 0.3958,0.6218 0.2565,0.849 0.234,2.426 z" />
    <path
       id="path111"
       style="fill:#e7304b;fill-rule:evenodd"
       d="m 302.6862,289.78 -0.4111,-0.3033 -1.2078,-1.1809 -1.7879,-1.4704 -1.8152,-1.2736 -2.0147,-0.9943 -1.9107,-0.6757 -2.4379,-0.5946 -1.7354,-0.2273 -0.9136,-0.0793 -2.3065,0.0406 -2.2407,0.3453 -2.8099,0.7545 -2.6785,1.0196 -1.0597,0.2254 -0.8878,-0.0654 -0.7684,-0.278 -0.5429,-0.4379 -0.2789,-0.4517 -0.1719,-0.7546 0.1322,-1.0596 0.3983,-0.9943 0.5955,-0.8624 0.7822,-0.6758 1.1137,-0.7545 1.2196,-0.5965 1.6165,-0.5171 1.9613,-0.4246 1.1142,-0.1194 2.3438,0.0401 2.4006,0.4246 2.0812,0.7144 2.8886,1.4322 2.2674,1.4722 1.948,1.4709 2.1867,2.1461 1.232,1.4723 1.3128,2.0539 0.4112,0.8878 0.0262,0.1853 z" />
    <path
       id="path113"
       style="fill:#e7304b;fill-rule:evenodd"
       d="m 311.9889,289.0641 -0.1051,-0.0659 0.3715,-0.8605 1.3921,-1.9494 2.6532,-2.8758 1.9461,-1.5381 2.3586,-1.5497 2.5706,-1.3529 2.5453,-0.915 1.9375,-0.3839 0.9536,-0.118 1.9881,0.0387 1.1642,0.2259 0.8372,0.3572 0.7932,0.5038 0.5577,0.5707 0.3978,0.701 0.1467,0.6251 -0.0287,0.7412 -0.3591,0.8204 -0.554,0.7178 -0.9283,0.5152 -1.4728,0.4384 -1.509,0.1466 -6.0854,0.3568 -2.2407,0.3438 -1.5363,0.3992 -2.0267,0.6758 -1.4995,0.6365 -2.1862,1.2316 -1.8954,1.4575 z" />
    <path
       id="path115"
       style="fill:#e7304b;fill-rule:evenodd"
       d="m 311.0347,286.918 -0.0921,-0.0539 0.0382,-0.5698 0.6002,-2.4374 0.7928,-2.5324 1.2736,-2.8639 1.4317,-2.6231 0.9556,-1.3391 1.7096,-1.9087 0.7397,-0.7164 1.2349,-0.9531 1.2703,-0.7952 1.5783,-0.637 0.9556,-0.2259 1.4302,0.0406 0.8238,0.2646 0.7006,0.5439 0.3959,0.5038 0.2545,0.7684 0.054,0.8218 -0.2273,0.703 -0.5191,0.7813 -0.9131,0.8744 -1.4303,0.9149 -2.106,1.0731 -1.8715,0.9283 -1.3916,0.915 -2.7678,2.0669 -1.7125,1.6714 -1.1137,1.3777 -1.2325,1.9613 -0.6877,1.2598 z" />
    <path
       id="path117"
       style="fill:#e7304b;fill-rule:evenodd"
       d="m 302.9622,286.8388 -0.2497,-0.2512 -1.2865,-2.0301 -0.9938,-1.3123 -1.8691,-1.9474 -2.4245,-1.9881 -2.692,-1.7082 -4.4517,-2.4006 -1.074,-0.7951 -0.6767,-0.7412 -0.4771,-0.903 -0.1852,-0.6757 0.0272,-0.8878 0.3577,-0.8085 0.5033,-0.5038 0.6232,-0.3572 0.6748,-0.1853 0.9541,-0.0406 1.2732,0.2646 1.657,0.797 1.5774,0.9919 2.1604,1.8953 1.617,1.7641 1.7903,2.426 1.0726,1.8548 0.8357,1.9087 0.7139,2.254 0.5588,2.3066 0.0659,0.8739 z" />
    <path
       id="path119"
       style="fill:#ffffff;fill-rule:evenodd"
       d="m 297.7541,253.7566 -0.329,-0.0659 -0.5182,-0.5038 -0.3982,-0.5573 -0.1051,-0.3845 0.0263,-0.7024 0.1986,-0.9131 1.2326,-2.8639 1.5907,-2.7311 2.6652,-3.8576 3.0988,-3.6556 1.3538,-1.4456 1.9083,-1.8954 3.0205,-2.6246 4.201,-3.1809 3.0238,-1.8701 3.1404,-1.7469 2.5086,-1.0749 1.6523,-0.3434 0.6218,0.1041 0.6671,0.5578 0.2359,0.4112 -0.0387,0.2645 -0.3032,0.2646 -2.8811,1.287 -2.8839,1.6289 -1.5535,1.021 -0.753,0.4904 -3.0258,2.1867 -0.8352,0.7025 -2.5043,2.0415 -3.34,2.9823 -2.7822,3.0611 -0.7282,0.8606 -1.2999,1.5248 -2.4245,3.2597 -1.7106,2.6246 -1.9484,3.5262 -0.5692,1.3649 z" />
    <path
       id="path121"
       style="fill:#ffffff;fill-rule:evenodd"
       d="m 293.5388,251.6492 -0.5163,-0.0273 -0.4116,-0.3166 -2.4427,-2.7411 0.3367,-1.4217 -0.0391,-0.583 -0.2121,-0.4112 -1.2722,-1.4704 -2.3457,-2.6251 -5.5281,-5.9636 -5.8843,-6.3614 -2.2264,-2.5067 -0.743,-0.7683 -0.436,-0.6619 -0.0936,-0.5697 0.1724,-1.1538 0.6361,-2.2005 1.0334,-2.5707 1.2726,-2.5439 1.2331,-2.1747 1.2717,-1.9088 2.744,-3.6169 1.7096,-1.8701 2.1074,-2.0267 1.4971,-1.2737 2.2278,-1.7101 3.1948,-2.0267 3.3658,-1.7502 2.6905,-1.1136 2.1069,-0.7145 1.2326,-0.2659 1.1924,-0.0406 0.6614,0.1872 0.4661,0.3572 2.2645,2.466 0.6777,0.7803 2.2769,2.5454 1.2999,1.4455 5.5014,5.9909 1.1389,1.1657 0.6519,0.7817 5.1298,5.487 0.4498,0.278 0.4399,0.0539 0.9904,-0.1853 0.5979,0.0253 0.4131,0.2794 0.8304,0.9016 0.4933,0.6352 0.5444,0.6365 0.064,0.3453 -0.2259,0.5831 -0.3992,0.9804 -0.3419,0.1585 -1.5783,0.49 -3.4436,1.5516 -2.106,1.1523 -5.0405,3.3409 -2.5043,1.9881 -3.2721,2.9412 -2.8104,2.8237 -2.042,2.4126 -1.2985,1.6308 -2.0281,2.7965 -2.0286,3.2598 -1.0335,1.9221 -0.636,1.4456 -0.4103,1.2449 -0.148,0.1466 -0.4642,0.1046 -0.5296,0.0674 z" />
    <path
       id="path123"
       style="fill:#ffffff;fill-rule:evenodd"
       d="m 288.3302,251.0527 -0.2498,-0.1466 -0.8753,-0.915 -0.4509,-0.6217 -1.935,-2.744 -1.3524,-2.16 -0.9933,-1.8161 -0.2932,-0.7684 -0.0129,-0.1327 0.3324,0.106 1.7502,1.7082 2.8629,3.2616 0.5559,0.9012 0.0921,0.4904 -0.2106,1.181 0.171,0.5558 0.6222,0.915 z" />
    <path
       id="path125"
       style="fill:#cf0017;fill-rule:evenodd"
       d="m 291.9495,241.7883 -0.9145,-0.0268 -1.02,-0.2779 -1.1137,-0.5965 -1.1007,-0.8744 -1.4313,-1.5109 -1.6685,-2.1752 -1.1547,-1.9222 -0.6089,-1.5095 -0.3453,-1.2989 -0.1055,-1.2197 0.1318,-1.0998 0.3324,-1.2856 0.7817,-1.6174 -0.0396,-0.3973 -0.6767,-1.0597 -1.5363,-1.988 -0.7698,-1.1137 -1.4976,-1.9627 -0.2908,-0.5965 0.0936,-0.4899 0.6351,-1.0984 0.5559,-0.7837 0.3324,-0.0654 0.2502,0.1447 1.8687,2.2927 8.6703,11.2539 2.4776,3.3004 1.3395,1.7082 0.9938,1.3123 0.105,0.3051 -0.0263,0.3859 -1.1518,1.9336 -0.8753,1.0735 -0.704,0.596 -0.7798,0.4384 z" />
    <path
       id="path127"
       style="fill:#ffffff;fill-rule:evenodd"
       d="m 291.5121,237.7721 -0.6877,-0.0268 -0.8357,-0.3591 -0.7966,-0.6351 -0.9933,-1.0731 -1.5105,-2.1074 -0.5955,-1.127 -0.3586,-1.0869 -0.0659,-0.3839 0.0263,-0.7431 0.1977,-0.596 0.1595,-0.1838 h 0.3042 l 0.4374,0.4632 5.0907,6.5214 0.3175,0.5945 -0.0396,0.2531 -0.265,0.3047 z" />
    <path
       id="path129"
       style="fill:#cf0017;fill-rule:evenodd"
       d="m 297.0397,236.1819 -0.2928,-0.1467 -2.9154,-5.2091 -3.2082,-5.5524 -3.935,-7.1585 -2.9417,-5.5524 -0.0668,-0.3978 0.2641,-0.5306 0.8362,-0.9923 0.3849,-0.3591 0.3968,-0.3568 0.3305,-0.0926 0.3452,0.1714 1.033,0.9943 0.637,0.6752 7.7669,8.1122 1.3128,1.2989 0.1447,0.0267 -0.0788,-0.266 -2.1094,-3.3662 -5.7119,-8.7081 -0.5955,-1.0597 v -0.4245 l 0.4374,-0.5439 1.4312,-1.0736 0.6089,-0.2507 0.2927,0.0521 1.3119,1.073 0.755,0.7431 11.5729,11.0667 4.7315,4.4947 0.2617,0.4092 -0.0645,0.3319 -0.7416,0.5965 -1.351,0.8744 -0.3715,0.0926 -0.3854,-0.1719 -0.7149,-0.7025 -2.3992,-2.4646 -1.1413,-1.127 -0.9537,-1.0344 -0.7154,-0.7411 -3.817,-3.9895 -2.1079,-2.2927 -0.4374,-0.2392 0.1184,0.3572 0.5974,1.0205 2.2521,3.5396 2.7178,4.3734 1.2602,1.9087 1.1265,1.7894 1.4561,2.266 0.1098,0.4245 -0.1877,0.3706 -1.7492,1.6308 -0.2913,0.1466 -0.3061,-0.0673 -0.5955,-0.5425 -3.2478,-3.4336 -1.9083,-2.1074 -5.9789,-6.1895 -0.3157,-0.2106 -0.0277,0.1447 0.3567,0.7698 3.9647,6.6527 4.5725,8.1236 0.1724,0.5712 -0.2006,0.4097 -1.3242,1.617 z" />
    <path
       id="path131"
       style="fill:#ffffff;fill-rule:evenodd"
       d="m 270.3199,224.054 -0.2923,-0.1065 -0.6365,-0.7411 -0.1848,-0.4651 0.0391,-0.8744 0.1853,-0.9532 0.7956,-2.3066 0.9938,-2.254 1.5109,-2.6905 2.4532,-3.6184 0.5697,-0.8477 1.2182,-1.4183 0.9274,-1.1523 0.385,-0.3978 2.1618,-2.3061 1.0334,-0.9942 0.862,-0.7292 1.1251,-0.9809 2.8495,-2.1075 2.9417,-1.7888 2.8758,-1.5516 2.7311,-1.1929 2.2803,-0.7159 1.4838,-0.2645 0.6638,0.0267 0.383,0.16 0.7564,0.7416 0.1318,0.2913 -0.1184,0.1466 -2.2937,0.4499 -2.6633,0.9145 -3.4861,1.6294 -2.4646,1.3529 -3.4451,2.3061 -2.5205,2.0281 -1.775,1.5888 -1.8686,1.9895 -2.585,3.1676 -1.7092,2.3987 -2.0281,3.287 -1.511,2.9818 -0.8352,2.148 -0.7689,2.6633 z" />
    <path
       id="path133"
       style="fill:#cf0017;fill-rule:evenodd"
       d="m 312.0271,221.5889 -1.203,-0.1853 -1.0597,-0.3973 -1.051,-0.637 -2.1843,-1.9088 -0.757,-0.8605 -0.0921,-0.2531 0.1327,-0.2641 0.5845,-0.3978 1.4179,-0.7545 0.3572,-0.0273 0.3305,0.1853 0.7177,0.7025 0.6877,0.6371 0.862,0.5558 0.8357,0.212 0.4522,-0.0926 0.3405,-0.266 0.1351,-0.4904 -0.2139,-0.5946 -0.6729,-0.7832 -0.7449,-0.6351 -1.5884,-0.9957 -2.0563,-0.9942 -3.6045,-1.5229 -3.2994,-1.6309 -1.935,-1.3123 -1.0344,-1.021 -0.7946,-1.0711 -0.438,-1.075 -0.1857,-0.9804 0.0673,-0.915 0.2369,-0.8085 0.5167,-0.7951 0.7039,-0.637 0.8476,-0.3973 1.2059,-0.2646 h 1.2731 l 0.9938,0.2259 1.3782,0.5558 1.8161,1.193 1.3538,1.233 0.2894,0.4766 -0.1327,0.3051 -0.9002,0.5172 -1.1385,0.4766 -0.3982,0.0272 -0.4914,-0.3051 -0.9671,-0.8625 -0.9675,-0.5558 -0.8749,-0.2245 -0.584,0.1046 -0.3438,0.3051 -0.1595,0.4246 0.0396,0.4766 0.2779,0.5305 0.7025,0.7164 1.3505,0.9145 1.5668,0.8338 0.7393,0.2784 0.3586,0.1327 0.3849,0.2259 3.6456,1.5229 1.9083,0.9551 1.8954,1.1523 1.1924,0.9556 0.8754,0.9145 0.7564,1.0731 0.4112,0.8744 0.2646,1.0749 0.0253,0.8472 -0.1433,0.7416 -0.3978,0.7426 -0.5845,0.691 -0.7961,0.5425 -0.9422,0.3973 -0.7125,0.1452 z" />
    <path
       id="path135"
       style="fill:#ffffff;fill-rule:evenodd"
       d="m 326.1057,215.3474 -0.3706,-0.266 -0.7564,-0.6624 -0.5024,-0.2259 -0.5712,0.0678 -0.4245,0.1314 -0.4613,-0.0674 -0.7851,-0.7144 -1.6796,-1.8161 -3.0104,-3.1943 -0.1466,-0.3319 0.4259,0.0673 2.0134,1.2316 2.6633,1.9494 2.1466,1.9087 1.3915,1.5497 0.118,0.3051 z" />
    <path
       id="path137"
       style="fill:#ffffff;fill-rule:evenodd"
       d="m 351.9267,452.6283 c 0.6824,0 1.1404,-0.1146 1.1404,-0.8706 0,-0.6757 -0.7259,-0.7583 -1.2837,-0.7583 h -1.0023 v 1.6289 z m -2.5625,-2.7173 h 2.4832 c 1.6829,0 2.6399,0.4938 2.6399,1.9747 0,1.2044 -0.7311,1.681 -1.7488,1.7636 l 1.7488,2.8657 h -1.4536 l -1.5769,-2.7998 h -0.6757 v 2.7998 h -1.4169 z m 2.3858,7.9536 c 2.3515,0 4.2316,-1.8801 4.2316,-4.6279 0,-2.7345 -1.8801,-4.626 -4.2316,-4.626 -2.3858,0 -4.232,1.8915 -4.232,4.626 0,2.7478 1.8462,4.6279 4.232,4.6279 z m 0,-10.5701 c 3.2731,0 5.9436,2.6652 5.9436,5.9422 0,3.2783 -2.6705,5.9435 -5.9436,5.9435 -3.2784,0 -5.9435,-2.6652 -5.9435,-5.9435 0,-3.277 2.6651,-5.9422 5.9435,-5.9422 z" />
  </g>
</svg>
