<?xml version="1.0" encoding="utf-8"?>
<!-- Generator: Adobe Illustrator 16.0.3, SVG Export Plug-In . SVG Version: 6.00 Build 0)  -->
<!DOCTYPE svg PUBLIC "-//W3C//DTD SVG 1.1//EN" "http://www.w3.org/Graphics/SVG/1.1/DTD/svg11.dtd">
<svg version="1.1"
	 id="svg140" xmlns:rdf="http://www.w3.org/1999/02/22-rdf-syntax-ns#" xmlns:dc="http://purl.org/dc/elements/1.1/" xmlns:svg="http://www.w3.org/2000/svg" xmlns:cc="http://creativecommons.org/ns#"
	 xmlns="http://www.w3.org/2000/svg" xmlns:xlink="http://www.w3.org/1999/xlink" x="0px" y="0px" width="303.246px"
	 height="135.764px" viewBox="0 320.052 303.246 135.764" enable-background="new 0 320.052 303.246 135.764" xml:space="preserve">
<g id="Layer1000" transform="translate(-154.3773,-168.0921)">
	<g id="Layer1001">
		<path id="path2" fill="#005BA2" d="M285.39,605.826c-11.996-13.137-26.815-16.855-36.775-17.469v-49.033h-9.807v7.586h-10.726
			v-7.586h-8.275v38.002c0,5.822-3.831,13.254-16.626,13.254c-5.823,0-9.654-2.451-11.568-5.439
			c-2.146,2.988-5.747,5.363-12.105,5.363c-11.492,0-17.009-7.584-17.009-13.254v-29.039h-7.279v75.697h156.373
			C307.303,623.295,298.262,619.924,285.39,605.826z M238.808,588.512L238.808,588.512h-10.726v-37.924h10.726V588.512z"/>
		<path id="path4" fill="#005BA2" d="M320.633,515.726c3.219-1.686,6.59-3.524,6.59-11.492c0-10.88-6.436-16.09-13.332-16.09
			h-24.669v51.18h10.726V521.09h9.654c3.217,0,5.516,1.992,5.516,4.443v13.791h10.879v-15.783
			C325.844,519.863,322.932,517.564,320.633,515.726L320.633,515.726z M309.754,511.435L309.754,511.435h-9.807v-13.024h10.113
			c3.064,0.153,6.129,2.146,6.129,6.13S314.351,511.435,309.754,511.435z"/>
		<path id="path6" fill="#005BA2" d="M228.082,488.144v20.84h-17.469v-20.84h-10.726v51.18h-3.371v36.393
			c0.459,3.832,3.447,5.211,6.512,5.211c2.835,0,5.593-1.457,6.053-5.363v-36.24h1.532v-20.687h17.469v20.687h10.726v-51.18H228.082
			z"/>
		<path id="path8" fill="#005BA2" d="M181.653,508.678c-1.226,0-5.286,0-6.742,0c-9.5,0-9.96-2.605-9.96-5.21
			c0-3.526,1.839-5.057,4.75-5.057h23.904v-10.267h-25.589c-7.586,0-13.638,6.82-13.638,14.404v0.844
			c0,8.503,5.057,15.245,15.936,15.245h7.355c3.371-0.153,6.436,1.839,6.436,4.903c0,3.678-0.919,5.67-5.363,5.67h-23.598v10.113
			h18.082v36.316c0.382,3.83,3.061,5.361,6.282,5.361c3.524,0,5.899-1.531,6.283-5.361v-36.316
			c5.898-2.299,9.347-7.508,9.347-15.936C195.137,516.492,191.306,508.984,181.653,508.678L181.653,508.678z"/>
		<path id="path10" fill="#005BA2" d="M325.996,579.242h8.428v-12.643h-8.58c-4.598,0.152-9.807-0.766-9.654,6.436
			C316.343,580.236,322.166,578.935,325.996,579.242L325.996,579.242z"/>
		<path id="path12" fill="#005BA2" d="M457.623,539.324v-37.542c0-10.113-7.509-13.638-11.646-13.638c-4.137,0-26.049,0-26.049,0
			v51.18h-8.734v-51.18h-10.727v51.18h-0.699c8.311,1.898,9.434,7.865,9.434,12.719v36.469h-10.727v-34.707
			c-0.459-3.908-3.217-5.363-6.053-5.363c-3.064,0-6.053,1.38-6.512,5.211v34.859h-10.727v-34.783
			c-0.383-3.832-2.758-5.363-6.282-5.363c-3.222,0-5.899,1.531-6.282,5.363v34.783h-10.727v-36.469
			c0-4.838,4.02-11.01,12.336-12.719l-10.164,0.094c4.589-0.677,7.371-2.955,9.168-5.457c1.762,2.75,5.151,5.041,10.219,5.39
			c3.634,0.841,5.987,2.692,7.556,4.877c1.349-2.104,4.3-3.978,7.961-4.903H376.96c11.069-0.793,14.466-7.697,14.466-13.178v-38.002
			H380.7v36.24c-0.46,3.906-3.218,5.363-6.054,5.363c-3.064,0-6.052-1.379-6.512-5.21v-36.394h-10.726v36.316
			c-0.384,3.83-2.759,5.363-6.282,5.363c-3.223,0-5.9-1.533-6.283-5.363v-36.316h-10.727l0.076,37.926
			c0,5.137,4.516,12.092,13.91,13.355l-15.824-0.102c2.451,0,12.564,2.758,12.564,13.638v35.55h-25.13
			c-4.597,0-13.791-4.139-13.791-15.324s7.662-15.476,14.404-15.476h14.097v-5.057c0.154-2.911-1.531-4.597-5.363-4.444h-21.451
			v-8.887h-7.662v7.586h-10.726v-7.586h-7.355v47.502c5.209,1.072,15.783,9.041,22.065,13.33c6.743,3.984,11.952,2.912,17.928,3.064
			v9.807c-10.879,0.768-18.848-3.371-27.122-10.879c-4.815-4.367-15.17-12.564-23.598-15.783v-47.041h10.727v-10.113h-17.928
			c-3.984,0-6.589-2.451-6.589-5.057v-5.517h22.372v-9.653h-22.372v-4.137c0-3.984,1.686-6.437,5.976-6.437h18.388v-10.267h-22.219
			c-7.202,0-12.871,7.049-12.871,14.098v24.057c0,7.815,5.209,11.492,10.879,13.025h1.838v46.582
			c16.243,1.686,32.025,17.162,36.776,21.146c12.717,9.348,18.235,8.58,25.743,8.734v8.121h135.764v-74.471h-26.51
			c-3.371,0-6.129,1.379-6.129,4.137c0,2.912,1.226,5.21,9.96,5.21c1.456,0,5.517,0,6.742,0c9.653,0.307,13.331,8.427,13.331,15.323
			c0,8.428-3.524,14.863-13.331,14.863h-26.663v-10.266h23.598c4.444,0,5.518-1.379,5.518-5.057c0-3.064-3.064-5.057-6.436-4.904
			h-7.355c-10.88,0-15.937-6.742-15.937-15.246v-0.843c0-7.241,5.311-12.803,14.858-13.292l1.385-0.039v-40.913h10.879
			c3.524,0,5.363,2.452,5.363,5.363v35.55H457.623z M299.947,588.512L299.947,588.512h-10.726v-37.924h10.726V588.512z
			 M441.191,607.709L441.191,607.709c2.451,0,4.646,1.705,4.646,4.635s-2.195,4.633-4.646,4.633c-2.464,0-4.658-1.703-4.658-4.633
			S438.727,607.709,441.191,607.709z"/>
		<path id="path14" fill="#005BA2" d="M441.191,608.789c-1.839,0-3.322,1.422-3.322,3.555s1.483,3.566,3.322,3.555v0.012
			c1.79,0,3.311-1.434,3.311-3.566S442.981,608.789,441.191,608.789z M442.074,614.832L442.074,614.832l-1.152-2.096h-0.503v2.096
			h-1.066v-4.99h1.863c1.287,0,2.048,0.369,2.048,1.508c0,0.92-0.54,1.252-1.201,1.301l1.274,2.182H442.074z"/>
		<path id="path16" fill="#005BA2" d="M441.363,611.89c0.479,0,0.76-0.1,0.76-0.65c0-0.516-0.551-0.551-0.956-0.551h-0.748v1.201
			H441.363z"/>
	</g>
</g>
</svg>
