<?xml version="1.0" encoding="UTF-8" standalone="no"?>
<!-- Generator: Adobe Illustrator 16.0.3, SVG Export Plug-In . SVG Version: 6.00 Build 0)  -->

<svg
   xmlns:dc="http://purl.org/dc/elements/1.1/"
   xmlns:cc="http://creativecommons.org/ns#"
   xmlns:rdf="http://www.w3.org/1999/02/22-rdf-syntax-ns#"
   xmlns:svg="http://www.w3.org/2000/svg"
   xmlns="http://www.w3.org/2000/svg"
   xmlns:sodipodi="http://sodipodi.sourceforge.net/DTD/sodipodi-0.dtd"
   xmlns:inkscape="http://www.inkscape.org/namespaces/inkscape"
   version="1.1"
   id="Southwest_Logo_1_"
   x="0px"
   y="0px"
   width="1000"
   height="146.5056"
   viewBox="0 0 1000 146.5056"
   enable-background="new 0 0 223 34"
   xml:space="preserve"
   inkscape:version="0.48.5 r10040"
   sodipodi:docname="Southwest_Airlines_2014.svg"><metadata
   id="metadata43"><rdf:RDF><cc:Work
       rdf:about=""><dc:format>image/svg+xml</dc:format><dc:type
         rdf:resource="http://purl.org/dc/dcmitype/StillImage" /><dc:title /></cc:Work></rdf:RDF></metadata><defs
   id="defs41" /><sodipodi:namedview
   pagecolor="#ffffff"
   bordercolor="#666666"
   borderopacity="1"
   objecttolerance="10"
   gridtolerance="10"
   guidetolerance="10"
   inkscape:pageopacity="0"
   inkscape:pageshadow="2"
   inkscape:window-width="1034"
   inkscape:window-height="1018"
   id="namedview39"
   showgrid="false"
   fit-margin-left="0"
   fit-margin-bottom="0"
   fit-margin-top="0"
   fit-margin-right="0"
   inkscape:zoom="0.33136283"
   inkscape:cx="1044.8741"
   inkscape:cy="-156.89162"
   inkscape:window-x="878"
   inkscape:window-y="2"
   inkscape:window-maximized="0"
   inkscape:current-layer="g4" />
<g
   id="Type"
   style="fill:#2e4bb1;fill-opacity:1"
   transform="matrix(4.6848402,0,0,4.6848402,-2.1035099,-9.1060504)">
	<g
   id="g4"
   style="fill:#2e4bb1;fill-opacity:1">
		<path
   d="m 59.058611,26.998783 c -0.910911,0.17017 -1.973974,0.319319 -3.117117,0.319319 -3.195195,-0.004 -3.898899,-1.103103 -3.897898,-3.171171 l 0,-12.173174 -6.012012,0 -0.01201,12.774775 c -0.005,5.665666 3.17017,8.262263 9.632633,8.26927 3.135135,0.002 6.051051,-0.576577 9.473473,-1.450451 l 0,-19.593594 -6.067067,0 z m 19.516517,0.558558 c -2.186186,-0.002 -2.487488,-1.031031 -2.486487,-2.680681 l 0.007,-7.852853 4.986988,0.005 0,-5.055055 -4.986988,0 0,-6.0150149 -6.022022,0 0,6.0140139 -3.038038,10e-4 0,5.042042 3.038038,0.003 -0.007,8.246247 c -0.003,3.630631 0.734735,7.768769 6.714715,7.773774 1.828829,0.002 3.323324,-0.438439 4.956957,-0.900901 l -0.598598,-5.007007 c -0.884885,0.256256 -1.65966,0.426426 -2.564565,0.426426 z M 15.45901,16.300084 C 14.344896,15.873657 13.101653,15.473257 11.76832,15.104888 8.25881,14.113897 7.1787299,13.560344 7.1797309,12.019803 c 0.001,-1.81982 1.3513514,-2.6556554 4.4984991,-2.6526524 2.585585,0.002 4.882883,0.6706704 7.219219,1.5485484 L 20.160712,5.0188021 C 17.468019,4.0157991 14.910462,3.1219052 11.80836,3.1199032 4.5651162,3.1138972 0.57012112,7.2290124 0.56511612,12.16695 c -0.003003,3.657658 1.64964968,6.142143 5.21521538,7.583584 1.047047,0.422423 2.2542543,0.840841 3.5915916,1.234234 3.9319319,1.207208 5.0770769,1.772773 5.0760759,3.285286 -10e-4,1.833834 -1.499499,2.810811 -4.5805804,2.807808 -2.8318319,-0.003 -5.4354355,-0.781782 -8.1581583,-2.034034 L 0.449,30.992777 c 2.971972,1.173173 5.9319321,2.043043 9.4924927,2.046046 7.3693693,0.007 11.1921923,-4.119119 11.1961963,-9.072072 0.004,-4.050051 -2.28028,-6.366367 -5.678679,-7.666667 z m 78.861864,-5.368369 c -1.973974,-0.002 -3.85986,0.456457 -5.198198,0.920921 l 0,-9.908909 -6.013013,0 0,31.044045 5.993994,0 0.01301,-15.561562 c 1.084084,-0.415416 2.335335,-0.825826 3.814815,-0.824825 2.341341,0.002 3.188188,0.8999 3.186186,3.087087 l -0.01101,13.2993 5.995002,0 0.011,-13.952954 c 0.005,-5.484484 -2.471477,-8.099099 -7.791798,-8.103103 z m -60.86887,-0.0991 c -6.08008,-0.005 -10.987988,4.264264 -10.993994,11.011011 -0.006,6.748749 4.877878,11.190191 10.973974,11.195196 6.092092,0.006 10.983984,-4.411412 10.98999,-11.174175 0.006,-6.762763 -4.894895,-11.026026 -10.96997,-11.032032 z m -0.01502,16.300301 c -2.613614,-0.002 -4.706707,-1.87988 -4.703704,-5.280281 0.003,-3.4004 2.031031,-5.193193 4.712713,-5.191191 2.677678,0.002 4.662663,1.772773 4.65966,5.197197 -0.002,3.42943 -2.057058,5.278279 -4.668669,5.274275 z m 134.847846,-6.93994 c -0.85586,-0.297298 -1.81782,-0.604605 -2.86587,-0.906907 -2.1061,-0.554555 -2.92292,-0.907908 -2.92192,-1.775776 0.001,-0.915916 0.81582,-1.525526 2.66767,-1.524525 1.98799,0.002 3.81982,0.411412 5.78278,0.97998 l 0.95596,-5.193193 c -2.16417,-0.473473 -4.30731,-0.88989 -6.73574,-0.892893 -5.69369,-0.005 -8.75876,2.908909 -8.76276,6.882883 -0.002,2.822823 1.36837,4.606607 4.20721,5.806807 0.8018,0.341341 1.74474,0.686687 2.81481,1.022022 2.21922,0.640641 3.3003,0.900901 3.3003,1.902903 -0.002,0.953954 -1.31531,1.387388 -3.07707,1.385386 -2.16817,-0.002 -4.1922,-0.355356 -6.28129,-1.17918 l -0.93493,5.15916 c 2.58659,0.736736 5.01301,1.221221 7.7047,1.223223 5.98699,0.006 8.67268,-3.131131 8.67668,-7.002002 0.003,-2.64965 -1.13914,-4.696697 -4.53053,-5.887888 z M 145.70226,10.85664 c -6.35436,-0.006 -10.76277,4.422423 -10.76877,11.398399 -0.005,6.508508 3.92592,10.801802 10.87387,10.807808 3.10511,0.002 5.63664,-0.867868 8.24024,-1.975976 l -0.9029,-4.971972 c -1.96196,0.882883 -3.99099,1.57057 -6.36036,1.568568 -3.58158,-0.004 -5.05706,-1.542542 -5.28829,-3.716716 l 13.4965,0.01201 c 0,0 0.19519,-2.448449 0.19519,-2.924925 0.008,-5.664665 -3.13213,-10.192193 -9.48548,-10.197198 z m -4.12012,9.097097 c 0.38338,-1.843843 1.34334,-4.128128 3.86887,-4.126126 2.6026,0.003 3.38638,2.642643 3.45345,4.132132 z m 43.09209,7.603604 c -2.18619,-0.002 -2.47548,-1.031031 -2.47347,-2.680681 l 0.008,-7.804805 5.04405,0.005 0,-5.103103 -5.04605,0 0,-6.0150149 -6.03303,0 0,6.0140139 -3.06607,10e-4 0,5.09009 3.06607,0.003 -0.008,8.198199 c -0.004,3.630631 0.87788,7.768769 6.85786,7.773774 1.82883,0.002 3.33634,-0.438439 4.97097,-0.900901 l -0.74274,-5.007007 c -0.88389,0.256256 -1.67167,0.426426 -2.57758,0.426426 z m -55.31632,-15.583584 -3.75776,11.55956 -3.89089,-11.55956 -5.24324,0 -3.88989,11.55956 -3.75876,-11.55956 -6.53353,0 7.46046,21.012013 5.54454,0 3.82983,-11.372373 3.76977,11.372373 5.54455,0 7.45946,-21.012013 z"
   id="path6"
   style="fill:#2e4bb1;fill-opacity:1"
   inkscape:connector-curvature="0"
   sodipodi:nodetypes="cccccccccccccccccccccccccccccccccccccccccccccccccccccccccccscsccsscccccccccccccccccccccccccccccccccccccccccccccccccccccccccccccccc" />
	</g>
</g>
<g
   id="g8"
   transform="matrix(4.6895298,0,0,4.6895298,-2.1056155,-9.2618216)">
	<g
   id="g10">
		<path
   d="m 206.955,10.784 c -2.029,0 -3.663,0.707 -4.969,1.45 -1.307,-0.743 -2.938,-1.45 -4.968,-1.45 -4.057,0 -6.736,2.65 -6.736,7.178 0,5.524 5.275,10.921 11.704,15.254 6.43,-4.334 11.704,-9.729 11.704,-15.254 0,-4.527 -2.677,-7.178 -6.735,-7.178 z"
   id="path12"
   inkscape:connector-curvature="0"
   style="fill:#cccccc" />
		
			<linearGradient
   id="SVGID_1_"
   gradientUnits="userSpaceOnUse"
   x1="190.94431"
   y1="10.52"
   x2="206.4014"
   y2="10.52"
   gradientTransform="matrix(1,0,0,-1,0,35)">
			<stop
   offset="0"
   style="stop-color:#3656CC"
   id="stop15" />
			<stop
   offset="0.35"
   style="stop-color:#304CB2"
   id="stop17" />
			<stop
   offset="0.72"
   style="stop-color:#283B80"
   id="stop19" />
		</linearGradient>
		<path
   d="m 190.944,18.059 c 0,5.648 5.956,10.902 11.042,14.38 1.464,-1.002 2.976,-2.152 4.415,-3.416 -6.738,-5.644 -13.062,-10.693 -15.331,-12.501 -0.081,0.483 -0.126,0.998 -0.126,1.537 z"
   id="path21"
   style="fill:url(#SVGID_1_)"
   inkscape:connector-curvature="0" />
		
			<linearGradient
   id="SVGID_2_"
   gradientUnits="userSpaceOnUse"
   x1="193.14059"
   y1="22.730499"
   x2="210.60201"
   y2="10.5039"
   gradientTransform="matrix(1,0,0,-1,0,35)">
			<stop
   offset="0.3"
   style="stop-color:#E61C23"
   id="stop24" />
			<stop
   offset="0.8"
   style="stop-color:#C3161C"
   id="stop26" />
		</linearGradient>
		<path
   d="m 212.577,20.679 c -4.883,-4.027 -7.84,-6.077 -11.011,-7.98 -0.854,-0.516 -2.569,-1.27 -4.492,-1.27 -1.842,0 -3.389,0.573 -4.455,1.69 -0.694,0.725 -1.165,1.636 -1.434,2.741 2.529,1.766 9.396,6.676 16.313,12.154 2.31,-2.199 4.245,-4.7 5.079,-7.335 z"
   id="path28"
   style="fill:url(#SVGID_2_)"
   inkscape:connector-curvature="0" />
		
			<linearGradient
   id="SVGID_3_"
   gradientUnits="userSpaceOnUse"
   x1="203.9639"
   y1="24.309601"
   x2="213.9473"
   y2="17.319099"
   gradientTransform="matrix(1,0,0,-1,0,35)">
			<stop
   offset="0"
   style="stop-color:#FDBC11"
   id="stop31" />
			<stop
   offset="0.25"
   style="stop-color:#FCB415"
   id="stop33" />
			<stop
   offset="0.8"
   style="stop-color:#F89E1C"
   id="stop35" />
		</linearGradient>
		<path
   d="m 211.343,13.122 c -1.05,-1.094 -2.589,-1.683 -4.36,-1.683 -1.9,0 -3.348,0.614 -4.357,1.162 1.894,1.054 6.009,3.439 10.272,6.579 0.066,-0.424 0.103,-0.85 0.103,-1.278 -0.001,-1.989 -0.582,-3.655 -1.658,-4.78 z"
   id="path37"
   style="fill:url(#SVGID_3_)"
   inkscape:connector-curvature="0" />
	</g>
</g>
</svg>