<?xml version="1.0" encoding="UTF-8" standalone="no"?>
<svg
   xmlns:dc="http://purl.org/dc/elements/1.1/"
   xmlns:cc="http://creativecommons.org/ns#"
   xmlns:rdf="http://www.w3.org/1999/02/22-rdf-syntax-ns#"
   xmlns:svg="http://www.w3.org/2000/svg"
   xmlns="http://www.w3.org/2000/svg"
   xmlns:sodipodi="http://sodipodi.sourceforge.net/DTD/sodipodi-0.dtd"
   xmlns:inkscape="http://www.inkscape.org/namespaces/inkscape"
   width="676"
   height="101"
   viewBox="4.364 4.651 89.575683 13.370556"
   version="1.1"
   id="svg4"
   sodipodi:docname="uber.svg"
   inkscape:version="0.92.3 (2405546, 2018-03-11)">
  <metadata
     id="metadata10">
    <rdf:RDF>
      <cc:Work
         rdf:about="">
        <dc:format>image/svg+xml</dc:format>
        <dc:type
           rdf:resource="http://purl.org/dc/dcmitype/StillImage" />
        <dc:title></dc:title>
      </cc:Work>
    </rdf:RDF>
  </metadata>
  <defs
     id="defs8" />
  <sodipodi:namedview
     pagecolor="#ffffff"
     bordercolor="#666666"
     borderopacity="1"
     objecttolerance="10"
     gridtolerance="10"
     guidetolerance="10"
     inkscape:pageopacity="0"
     inkscape:pageshadow="2"
     inkscape:window-width="1366"
     inkscape:window-height="745"
     id="namedview6"
     showgrid="false"
     inkscape:zoom="0.64261864"
     inkscape:cx="487.83739"
     inkscape:cy="10.184473"
     inkscape:window-x="-8"
     inkscape:window-y="-8"
     inkscape:window-maximized="1"
     inkscape:current-layer="svg4" />
  <path
     style="fill:#10111c;stroke-width:0.27135292"
     inkscape:connector-curvature="0"
     id="path817"
     d="m 16.102351,5.3907867 v 7.2241213 c 0,2.472103 -1.184975,3.933151 -4.743688,3.933151 -3.5689903,0 -4.7601865,-1.461048 -4.7601865,-3.933151 V 7.5367617 C 6.5527655,6.3329687 5.5722735,5.3657427 4.3697171,5.3657427 v 1.402246 c 0.4357441,0 0.7825001,0.34083 0.8236132,0.768773 V 13.10873 c 0,2.864112 2.2320051,4.899289 6.1650627,4.899289 3.927107,0 6.150186,-2.035722 6.150186,-4.899289 V 5.3907867 Z m 40.85933,10.9528293 v -3.384612 c 0,-0.464693 0.392468,-0.846357 0.847416,-0.855613 h 6.127466 v -1.426202 h -6.148564 a 2.2268661,2.2412538 0 0 0 -0.826318,0.179125 V 6.7799677 H 66.962158 V 5.3608427 H 55.541118 V 17.762469 h 11.836768 v -1.418853 z m 25.351058,-4.771069 c -0.297529,0 -0.578558,0.06125 -0.83849,0.167692 l -0.01217,-5.0411233 7.720867,-0.003 a 2.4191778,2.4348079 0 0 1 2.423776,2.4378045 c 0,1.3488928 -1.083545,2.4429768 -2.423776,2.4429768 z m 10.7965,4.857366 c -0.339182,0.273861 -0.82199,0.218871 -1.116273,-0.09583 l -2.695338,-3.44423 c 2.012645,-0.06234 3.623627,-1.722386 3.623627,-3.7591998 0,-2.0847245 -1.677791,-3.7700885 -3.746426,-3.7700885 H 80.051792 V 17.762464 h 1.409474 l 0.0138,-4.040681 c 0.01542,-0.450266 0.393549,-0.825396 0.851202,-0.825396 l 5.189168,0.0014 3.370999,4.308553 c 0.776009,0.922853 2.138419,1.076662 3.085101,0.327763 z m -53.767202,0 -7.77902,-0.0068 v -3.517731 c 0.0057,-0.469594 0.393008,-0.868952 0.856071,-0.868952 l 6.923219,-0.0016 c 1.206346,0 2.179805,0.982744 2.179805,2.190892 -2.7e-4,1.22176 -0.973729,2.204231 -2.180075,2.204231 m -7.77902,-9.7307973 7.814723,0.009 c 1.094908,0 1.980732,0.894269 1.980732,1.9981543 0,1.0976272 -0.885553,1.990536 -1.980732,1.990536 h -7.076041 a 2.2650039,2.2796379 0 0 0 -0.738682,0.176131 z m 9.810331,4.6551043 c 0.79359,-0.608158 1.313454,-1.5669458 1.313454,-2.653956 0,-1.8380843 -1.483045,-3.3350663 -3.31366,-3.3350663 l -9.218787,-0.0044 V 17.762489 h 9.187682 c 1.937725,0 3.506512,-1.582189 3.506512,-3.536787 0,-1.184465 -0.583968,-2.230092 -1.475201,-2.871462" />
</svg>
