<?xml version="1.0" encoding="UTF-8" standalone="no"?>
<!-- Created with Inkscape (http://www.inkscape.org/) -->

<svg xmlns:dc="http://purl.org/dc/elements/1.1/" xmlns:cc="http://creativecommons.org/ns#" xmlns:rdf="http://www.w3.org/1999/02/22-rdf-syntax-ns#" xmlns:svg="http://www.w3.org/2000/svg" xmlns="http://www.w3.org/2000/svg" xmlns:sodipodi="http://sodipodi.sourceforge.net/DTD/sodipodi-0.dtd" xmlns:inkscape="http://www.inkscape.org/namespaces/inkscape" id="svg2985" version="1.1" inkscape:version="0.48.5 r10040" width="499.26648" height="317.28094" sodipodi:docname="Visa.svg">
  <metadata id="metadata2991">
    <rdf:RDF>
      <cc:Work rdf:about="">
        <dc:format>image/svg+xml</dc:format>
        <dc:type rdf:resource="http://purl.org/dc/dcmitype/StillImage" />
        <dc:title></dc:title>
      </cc:Work>
    </rdf:RDF>
  </metadata>
  <defs id="defs2989" />
  <sodipodi:namedview pagecolor="#ffffff" bordercolor="#666666" borderopacity="1" objecttolerance="10" gridtolerance="10" guidetolerance="10" inkscape:pageopacity="0" inkscape:pageshadow="2" inkscape:window-width="1366" inkscape:window-height="706" id="namedview2987" showgrid="false" fit-margin-top="0" fit-margin-left="0" fit-margin-right="0" fit-margin-bottom="0" inkscape:zoom="2.133189" inkscape:cx="397.60079" inkscape:cy="94.67502" inkscape:window-x="-8" inkscape:window-y="-8" inkscape:window-maximized="1" inkscape:current-layer="svg2985" />
  <g id="g3043" transform="matrix(1.6978244,0,0,1.6978244,-4.5098461,-5.1995872)">
    <path id="rect2997" d="m 14.666377,3.3638351 270.048483,0 c 6.49456,0 11.72303,5.6035364 11.72303,12.5639829 l 0,161.144372 c 0,6.96045 -5.22847,12.56398 -11.72303,12.56398 l -270.048483,0 c -6.4945557,0 -11.723025,-5.60353 -11.723025,-12.56398 l 0,-161.144372 c 0,-6.9604465 5.2284693,-12.5639829 11.723025,-12.5639829 z" style="fill:white;fill-opacity:1;fill-rule:evenodd;stroke:#152658;stroke-width:0.58898908;stroke-opacity:1" inkscape:connector-curvature="0" />
    <path id="path3013" d="m 14.25,9.65625 c -2.767427,0 -5,3.192846 -5,7.125 l 0,47.5625 280.875,0 0,-47.5625 c 0,-3.932154 -2.23258,-7.125 -5,-7.125 l -270.875,0 z" style="fill:#152658;fill-opacity:1;fill-rule:evenodd;stroke:none" inkscape:connector-curvature="0" />
    <path id="rect3004" d="m 9.25,129.09375 0,46.28125 c 0,3.93215 2.232573,7.125 5,7.125 l 270.875,0 c 2.76742,0 5,-3.19285 5,-7.125 l 0,-46.28125 -280.875,0 z" style="fill:#e18c0b;fill-opacity:1;fill-rule:evenodd;stroke:none" inkscape:connector-curvature="0" />
    <path sodipodi:nodetypes="ccccccccccc" inkscape:connector-curvature="0" id="path3032" d="m 100.92969,105.77482 -1.451066,-32.084677 -18.057708,0 c 4.043312,2.314134 6.906615,4.890492 7.0941,8.061477 l 1.934754,38.37263 10.47992,0 25.31304,-40.629844 4.03074,-5.481804 -13.22083,0 c 1.54314,3.047946 0.86307,3.872683 0.32246,4.836886 z" style="fill:#152658;fill-opacity:1;stroke:none" />
    <path sodipodi:nodetypes="ccccccccc" inkscape:connector-curvature="0" id="path3034" d="m 133.82052,120.28548 -15.15558,0 c 1.07065,-1.72399 2.46687,-3.12242 2.7409,-5.64303 l 11.12484,-34.825585 c 0.52859,-1.830217 0.90465,-3.555312 0.16123,-5.809532 l 14.67189,0 c -1.67865,2.708343 -2.17261,4.140141 -2.54315,6.339588 l -10.67768,34.779209 c -0.52583,2.13813 -0.65639,3.88099 -0.32245,5.15935 z" style="fill:#152658;fill-opacity:1;stroke:none" />
    <path sodipodi:nodetypes="ccscssccssscc" inkscape:connector-curvature="0" id="path3036" d="m 141.19633,107.32565 c 4.62842,2.94273 8.79784,6.22948 15.01616,5.99242 0,0 7.78032,-0.30827 8.18606,-4.46068 0.40832,-4.17881 -9.46591,-9.749975 -9.46591,-9.749975 0,0 -9.81001,-5.722516 -8.74557,-12.368569 1.73898,-10.857688 9.88947,-14.21471 19.33911,-14.764269 7.28765,-0.423825 15.59606,5.198686 15.59606,5.198686 l -2.49537,7.694056 c 0,0 -14.34658,-9.455855 -18.71527,-0.831789 -2.75386,5.436281 17.90928,12.451175 17.05169,21.83448 -0.74725,8.17597 -6.25371,16.01196 -18.71527,16.01196 -9.72266,0 -17.12781,-4.57485 -17.12781,-4.57485 z" style="fill:#152658;fill-opacity:1;stroke:none" />
    <path id="path3038" d="m 197.21875,74.09375 c 0.76609,1.913358 0.29265,3.836642 -0.90625,5.75 l -18.9375,32.5625 c -1.24944,3.29676 -3.4018,5.45169 -5.5,7.6875 l 12.21875,0 c -0.15727,-1.17249 -0.0215,-2.70886 0.5,-4.1875 l 4.84375,-8.59375 12.28125,0 0.8125,6.96875 c -0.0263,2.9425 -0.51602,4.38569 -1.625,5.8125 l 15.09375,0 c -1.63623,-1.33707 -2.10239,-3.16781 -2.21875,-5.15625 L 210.75,74.09375 l -13.53125,0 z m 2.53125,13.6875 1.8125,14.4375 -9.28125,0 7.46875,-14.4375 z" style="fill:#152658;fill-opacity:1;stroke:none" inkscape:connector-curvature="0" />
  </g>
</svg>
