<?xml version="1.0" encoding="UTF-8" standalone="no"?>
<!-- Created with Inkscape (http://www.inkscape.org/) -->

<svg xmlns:dc="http://purl.org/dc/elements/1.1/" xmlns:cc="http://creativecommons.org/ns#" xmlns:rdf="http://www.w3.org/1999/02/22-rdf-syntax-ns#" xmlns:svg="http://www.w3.org/2000/svg" xmlns="http://www.w3.org/2000/svg" xmlns:sodipodi="http://sodipodi.sourceforge.net/DTD/sodipodi-0.dtd" xmlns:inkscape="http://www.inkscape.org/namespaces/inkscape" id="svg3105" version="1.1" inkscape:version="0.48.5 r10040" width="499.25793" height="316.81528" sodipodi:docname="Banka.svg">
  <metadata id="metadata3111">
    <rdf:RDF>
      <cc:Work rdf:about="">
        <dc:format>image/svg+xml</dc:format>
        <dc:type rdf:resource="http://purl.org/dc/dcmitype/StillImage" />
        <dc:title />
      </cc:Work>
    </rdf:RDF>
  </metadata>
  <defs id="defs3109" />
  <sodipodi:namedview pagecolor="#ffffff" bordercolor="#666666" borderopacity="1" objecttolerance="10" gridtolerance="10" guidetolerance="10" inkscape:pageopacity="0" inkscape:pageshadow="2" inkscape:window-width="1366" inkscape:window-height="706" id="namedview3107" showgrid="false" inkscape:zoom="1.1533334" inkscape:cx="113.97056" inkscape:cy="79.622879" inkscape:window-x="-8" inkscape:window-y="-8" inkscape:window-maximized="1" inkscape:current-layer="svg3105" fit-margin-top="0" fit-margin-left="0" fit-margin-right="0" fit-margin-bottom="0" />
  <g id="g3056" transform="matrix(1.7015927,0,0,1.7015927,-0.3722234,-0.31904863)">
    <g transform="translate(-3.03125,-3.40625)" id="g3490">
      <path id="rect2997" d="m 15.232198,3.8925617 269.448392,0 c 6.48013,0 11.69698,5.58351 11.69698,12.5190803 l 0,160.568458 c 0,6.93558 -5.21685,12.51908 -11.69698,12.51908 l -269.448392,0 c -6.4801235,0 -11.6969743,-5.5835 -11.6969743,-12.51908 l 0,-160.568458 c 0,-6.9355703 5.2168508,-12.5190803 11.6969743,-12.5190803 z" style="fill:white;fill-opacity:1;fill-rule:evenodd;stroke:#152658;stroke-width:0.58768469;stroke-opacity:1" inkscape:connector-curvature="0" />
      <path id="path3013" d="m 14.816746,10.162488 c -2.761277,0 -4.9888887,3.181435 -4.9888887,7.099536 l 0,47.392517 280.2508527,0 0,-47.392517 c 0,-3.918101 -2.22762,-7.099536 -4.98889,-7.099536 l -270.273074,0 z" style="fill:#152658;fill-opacity:1;fill-rule:evenodd;stroke:none" inkscape:connector-curvature="0" />
      <path id="rect3004" d="m 9.8278573,129.17313 0,46.11585 c 0,3.91809 2.2276117,7.09953 4.9888887,7.09953 l 270.273074,0 c 2.76127,0 4.98889,-3.18144 4.98889,-7.09953 l 0,-46.11585 -280.2508527,0 z" style="fill:#e18c0b;fill-opacity:1;fill-rule:evenodd;stroke:none" inkscape:connector-curvature="0" />
      <g id="g3434" transform="matrix(2.28873,0,0,2.4161868,9.9129325,57.427553)" style="fill:#152658;fill-opacity:1">
        <g style="font-size:25.04999924px;font-style:normal;font-weight:normal;text-align:start;text-anchor:start;fill:#152658;fill-opacity:1;font-family:Helvetica-Compressed" id="text3436">
          <path inkscape:connector-curvature="0" d="m 4.7091063,16.58157 c 0.5346108,8e-6 0.9229588,0.01683 1.1650451,0.05045 0.2420746,0.03364 0.4424917,0.125508 0.601252,0.27559 0.1587473,0.150098 0.2715058,0.400587 0.3382759,0.751469 0.066756,0.350897 0.100138,0.843594 0.100145,1.478094 -7e-6,1.068727 -0.096075,1.828477 -0.2882035,2.279253 -0.192142,0.450783 -0.689044,0.676172 -1.4907073,0.67617 -0.033132,2e-6 -0.099895,-0.0082 -0.2002899,-0.02446 -0.099895,3e-6 -0.1750673,3e-6 -0.2255173,0 z m -4.15792681,8.04141 4.20838151,0 c 1.2858246,0 2.2919874,-0.04179 3.0184913,-0.125372 0.7264883,-0.08358 1.3360214,-0.283999 1.828601,-0.601252 0.4925607,-0.317252 0.8598857,-0.818231 1.1019767,-1.502939 0.24207,-0.684703 0.36311,-1.636589 0.363121,-2.85566 -1.1e-5,-0.668137 -0.03339,-1.244288 -0.100145,-1.728456 -0.06677,-0.484154 -0.200301,-0.918243 -0.40058,-1.302267 -0.2003,-0.384008 -0.496657,-0.68457 -0.8890729,-0.901687 C 9.2895183,15.388248 8.7676439,15.279694 8.1163282,15.279685 l 0,-0.175827 c 1.1023497,-0.09988 1.8956088,-0.542505 2.3797808,-1.327876 0.200279,-0.350624 0.346292,-0.747126 0.438038,-1.189508 0.09173,-0.442358 0.137593,-0.930851 0.137604,-1.46548 C 11.07174,10.085413 10.917318,9.271258 10.608485,8.6785272 10.299631,8.0858283 9.8655424,7.655817 9.3062184,7.388492 8.7468759,7.1212014 8.1331383,6.9541659 7.4650037,6.887385 6.7968543,6.8206395 5.8950409,6.7872578 4.759561,6.78724 l -4.20838151,0 z M 4.7091063,9.3428475 c -4.7e-6,1.53e-5 0.075168,1.53e-5 0.2255173,0 0.083576,-0.016803 0.1503397,-0.025212 0.2002899,-0.025227 0.7685365,1.53e-5 1.2571568,0.1711279 1.4658622,0.5133384 0.2086922,0.3422401 0.3130416,0.9643861 0.3130486,1.8664421 -7e-6,0.550937 -0.037593,0.98923 -0.1127587,1.31488 -0.075179,0.325674 -0.1837331,0.555268 -0.3256622,0.688783 -0.1419421,0.133538 -0.3005685,0.216992 -0.4758797,0.250363 -0.1753232,0.03339 -0.4298899,0.05008 -0.7637008,0.05007 -0.2008046,1.1e-5 -0.3763766,0.0084 -0.5267166,0.02523 z" style="font-size:25.04999924px;font-style:normal;font-weight:normal;text-align:start;text-anchor:start;fill:#152658;fill-opacity:1;font-family:Helvetica-Compressed" id="path3457" />
        </g>
        <g style="font-size:19.95000076px;font-style:normal;font-weight:normal;text-align:start;text-anchor:start;fill:#152658;fill-opacity:1;font-family:Helvetica-Compressed" id="text3438">
          <path inkscape:connector-curvature="0" d="m 15.460488,18.977339 0.578384,-6.324481 0.03957,0 0.578993,6.324481 z m -1.277317,-8.558871 -2.413994,14.204512 2.793293,0 0.538811,-3.491006 1.795427,0 0.378689,3.491006 3.291921,0 -1.83561,-14.204512 z" style="font-size:19.95000076px;font-style:normal;font-weight:normal;text-align:start;text-anchor:start;fill:#152658;fill-opacity:1;font-family:Helvetica-Compressed" id="path3460" />
          <path inkscape:connector-curvature="0" d="m 21.142658,24.62298 2.593597,0 0,-11.870275 0.04018,0 2.453567,11.870275 4.249604,0 0,-14.204512 -2.593598,0 0,10.334207 -0.04018,0 -2.114452,-10.334207 -4.588719,0 z" style="font-size:19.95000076px;font-style:normal;font-weight:normal;text-align:start;text-anchor:start;fill:#152658;fill-opacity:1;font-family:Helvetica-Compressed" id="path3462" />
          <path inkscape:connector-curvature="0" d="m 34.549001,24.62298 0,-7.201799 0.04018,0 1.995122,7.201799 3.27183,0 -2.234391,-7.940305 2.214299,-6.264207 -3.15189,0 -2.09497,6.443811 -0.04018,0 0,-6.443811 -3.311403,0 0,14.204512 z" style="font-size:19.95000076px;font-style:normal;font-weight:normal;text-align:start;text-anchor:start;fill:#152658;fill-opacity:1;font-family:Helvetica-Compressed" id="path3464" />
        </g>
        <g style="font-size:25.04999924px;font-style:normal;font-weight:normal;text-align:start;text-anchor:start;fill:#152658;fill-opacity:1;font-family:Helvetica-Compressed" id="text3440">
          <path inkscape:connector-curvature="0" d="m 44.96016,17.534093 0.726242,-7.9412653 0.04969,0 0.727007,7.9412653 z M 43.356312,6.78724 l -3.031105,17.83574 3.507367,0 0.676551,-4.383444 2.254409,0 0.475497,4.383444 4.133464,0 -2.304863,-17.83574 z" style="font-size:25.04999924px;font-style:normal;font-weight:normal;text-align:start;text-anchor:start;fill:#152658;fill-opacity:1;font-family:Helvetica-Compressed" id="path3467" />
        </g>
        <g style="font-size:19.95000076px;font-style:normal;font-weight:normal;text-align:start;text-anchor:start;fill:#152658;fill-opacity:1;font-family:Helvetica-Compressed" id="text3442">
          <path inkscape:connector-curvature="0" d="m 54.672133,12.493346 0.04018,0 1.915366,12.129634 2.912622,0 1.914757,-12.129634 0.04018,0 0,12.129634 2.992378,0 0,-14.204512 -4.767714,0 -1.396646,10.094939 -0.04018,0 -1.396037,-10.094939 -4.86817,0 0,14.204512 2.653262,0 z" style="font-size:19.95000076px;font-style:normal;font-weight:normal;text-align:start;text-anchor:start;fill:#152658;fill-opacity:1;font-family:Helvetica-Compressed" id="path3470" />
          <path inkscape:connector-curvature="0" d="m 72.149084,24.62298 0,-2.154634 -3.551281,0 0,-4.628293 3.431342,0 0,-2.154634 -3.431342,0 0,-3.112317 3.551281,0 0,-2.154634 -6.863293,0 0,14.204512 z" style="font-size:19.95000076px;font-style:normal;font-weight:normal;text-align:start;text-anchor:start;fill:#152658;fill-opacity:1;font-family:Helvetica-Compressed" id="path3472" />
          <path inkscape:connector-curvature="0" d="m 75.962158,24.62298 0,-6.483994 0.538811,0 c 0.31902,7e-6 0.598268,0.133035 0.837744,0.399086 0.239466,0.266062 0.359202,0.631865 0.359207,1.097408 l 0,3.01247 c -5e-6,0.345814 0.03652,0.694975 0.109589,1.047484 0.07305,0.352511 0.196036,0.661692 0.368948,0.927546 l 3.331495,0 c -0.172916,-0.265854 -0.299247,-0.575035 -0.378994,-0.927546 -0.07976,-0.352509 -0.119643,-0.70167 -0.119635,-1.047484 l 0,-2.972288 c -8e-6,-0.971274 -0.209444,-1.653056 -0.628308,-2.04535 C 79.962136,17.238033 79.327131,17.028699 78.476,17.002309 l 0,-0.04018 c 0.877513,-0.14611 1.519114,-0.491821 1.924802,-1.037134 0.405672,-0.545296 0.608513,-1.276799 0.608521,-2.194513 -8e-6,-0.731796 -0.109698,-1.320429 -0.32907,-1.765899 -0.219388,-0.445444 -0.541863,-0.777862 -0.967424,-0.997256 -0.425576,-0.219366 -0.931002,-0.365687 -1.51628,-0.438963 -0.58529,-0.07325 -1.323389,-0.109879 -2.214299,-0.109893 l -3.332104,0 0,14.204512 z m 0,-12.169208 c 0.731399,1.2e-5 1.203542,0.12959 1.416433,0.388735 0.212881,0.259168 0.319324,0.734559 0.319329,1.426174 -5e-6,0.70503 -0.109796,1.18722 -0.329374,1.44657 -0.219588,0.259369 -0.688384,0.389048 -1.406388,0.38904 z" style="font-size:19.95000076px;font-style:normal;font-weight:normal;text-align:start;text-anchor:start;fill:#152658;fill-opacity:1;font-family:Helvetica-Compressed" id="path3474" />
          <path inkscape:connector-curvature="0" d="m 85.215701,24.62298 0,-14.204512 -3.311403,0 0,14.204512 z" style="font-size:19.95000076px;font-style:normal;font-weight:normal;text-align:start;text-anchor:start;fill:#152658;fill-opacity:1;font-family:Helvetica-Compressed" id="path3476" />
          <path inkscape:connector-curvature="0" d="m 91.103654,19.096669 -0.02009,2.413994 c -6e-6,0.332422 -0.06647,0.601725 -0.199391,0.807912 -0.132932,0.206191 -0.365807,0.309285 -0.698627,0.309283 -0.305635,2e-6 -0.525015,-0.103092 -0.658141,-0.309283 -0.133134,-0.206187 -0.199698,-0.47549 -0.199695,-0.807912 l 0,-7.979878 c -3e-6,-0.332408 0.06656,-0.601711 0.199695,-0.807912 0.133126,-0.206177 0.352506,-0.309271 0.658141,-0.309284 0.33282,1.3e-5 0.565695,0.103107 0.698627,0.309284 0.132922,0.206201 0.199385,0.475504 0.199391,0.807912 l 0,1.954939 3.311403,0 0,-1.556159 c -9e-6,-0.744785 -0.103002,-1.366497 -0.308979,-1.865137 -0.205995,-0.498615 -0.495187,-0.887655 -0.867577,-1.167119 -0.372406,-0.279437 -0.80802,-0.475682 -1.306844,-0.588734 -0.498837,-0.113025 -1.074177,-0.169544 -1.726021,-0.169558 -0.584883,1.4e-5 -1.123389,0.06658 -1.615519,0.199694 -0.492137,0.133144 -0.9311,0.359323 -1.31689,0.678537 -0.385794,0.319241 -0.68838,0.748158 -0.907759,1.286753 -0.219381,0.538619 -0.329071,1.200209 -0.329071,1.984772 l 0,6.463902 c 0,0.784577 0.10969,1.446268 0.329071,1.985076 0.219379,0.538812 0.521965,0.96773 0.907759,1.286753 0.38579,0.319025 0.824753,0.545102 1.31689,0.678232 0.49213,0.13313 1.030636,0.199695 1.615519,0.199695 2.806273,0 4.209412,-1.310192 4.209421,-3.930579 l 0,-1.875183 z" style="font-size:19.95000076px;font-style:normal;font-weight:normal;text-align:start;text-anchor:start;fill:#152658;fill-opacity:1;font-family:Helvetica-Compressed" id="path3478" />
          <path inkscape:connector-curvature="0" d="m 98.761463,18.977339 0.578384,-6.324481 0.03957,0 0.578993,6.324481 z m -1.277317,-8.558871 -2.413994,14.204512 2.793293,0 0.53881,-3.491006 1.795425,0 0.37869,3.491006 3.29192,0 -1.83561,-14.204512 z" style="font-size:19.95000076px;font-style:normal;font-weight:normal;text-align:start;text-anchor:start;fill:#152658;fill-opacity:1;font-family:Helvetica-Compressed" id="path3480" />
          <path inkscape:connector-curvature="0" d="m 107.8354,24.62298 0,-6.483994 0.53881,0 c 0.31902,7e-6 0.59827,0.133035 0.83775,0.399086 0.23946,0.266062 0.3592,0.631865 0.35921,1.097408 l 0,3.01247 c -10e-6,0.345814 0.0365,0.694975 0.10958,1.047484 0.0731,0.352511 0.19604,0.661692 0.36895,0.927546 l 3.3315,0 c -0.17292,-0.265854 -0.29925,-0.575035 -0.379,-0.927546 -0.0798,-0.352509 -0.11964,-0.70167 -0.11963,-1.047484 l 0,-2.972288 c -1e-5,-0.971274 -0.20945,-1.653056 -0.62831,-2.04535 -0.41888,-0.392279 -1.05388,-0.601613 -1.90502,-0.628003 l 0,-0.04018 c 0.87752,-0.14611 1.51912,-0.491821 1.92481,-1.037134 0.40567,-0.545296 0.60851,-1.276799 0.60852,-2.194513 -1e-5,-0.731796 -0.1097,-1.320429 -0.32907,-1.765899 -0.21939,-0.445444 -0.54186,-0.777862 -0.96743,-0.997256 -0.42557,-0.219366 -0.931,-0.365687 -1.51628,-0.438963 -0.58529,-0.07325 -1.32338,-0.109879 -2.2143,-0.109893 l -3.3321,0 0,14.204512 z m 0,-12.169208 c 0.7314,1.2e-5 1.20355,0.12959 1.41644,0.388735 0.21288,0.259168 0.31932,0.734559 0.31933,1.426174 -10e-6,0.70503 -0.1098,1.18722 -0.32938,1.44657 -0.21959,0.259369 -0.68838,0.389048 -1.40639,0.38904 z" style="font-size:19.95000076px;font-style:normal;font-weight:normal;text-align:start;text-anchor:start;fill:#152658;fill-opacity:1;font-family:Helvetica-Compressed" id="path3482" />
          <path inkscape:connector-curvature="0" d="m 113.83721,24.62298 3.41125,0 c 1.02404,0 1.86198,-0.0964 2.51384,-0.289192 0.65184,-0.192794 1.15727,-0.468795 1.51628,-0.828003 0.35899,-0.359206 0.60496,-0.798169 0.7379,-1.31689 0.13291,-0.518717 0.19938,-1.13708 0.19939,-1.855092 l 0,-5.067256 c -10e-6,-1.064217 -0.0865,-1.915456 -0.25936,-2.55372 -0.17292,-0.63824 -0.44882,-1.123676 -0.8277,-1.456311 -0.3789,-0.332608 -0.87093,-0.555438 -1.4761,-0.66849 -0.60518,-0.113025 -1.4066,-0.169544 -2.40425,-0.169558 l -3.41125,0 z m 3.3114,-12.169208 c 0.43916,1.2e-5 0.77178,0.03319 0.99786,0.09954 0.22608,0.06637 0.39563,0.179412 0.50868,0.339116 0.11303,0.159727 0.18284,0.37586 0.20943,0.648399 0.0266,0.272562 0.0399,0.681591 0.0399,1.227088 l 0,5.845336 c 0,0.7448 -0.1031,1.260171 -0.30928,1.546113 -0.20619,0.285947 -0.68838,0.42892 -1.44657,0.428918 z" style="font-size:19.95000076px;font-style:normal;font-weight:normal;text-align:start;text-anchor:start;fill:#152658;fill-opacity:1;font-family:Helvetica-Compressed" id="path3484" />
        </g>
        <g style="font-size:25.04999924px;font-style:normal;font-weight:normal;text-align:start;text-anchor:start;fill:#152658;fill-opacity:1;font-family:Helvetica-Compressed" id="text3444" />
      </g>
    </g>
  </g>
</svg>
