<?xml version="1.0" encoding="UTF-8" standalone="no"?>
<!-- Created with Inkscape (http://www.inkscape.org/) -->

<svg
   xmlns:dc="http://purl.org/dc/elements/1.1/"
   xmlns:cc="http://creativecommons.org/ns#"
   xmlns:rdf="http://www.w3.org/1999/02/22-rdf-syntax-ns#"
   xmlns:svg="http://www.w3.org/2000/svg"
   xmlns="http://www.w3.org/2000/svg"
   xmlns:sodipodi="http://sodipodi.sourceforge.net/DTD/sodipodi-0.dtd"
   xmlns:inkscape="http://www.inkscape.org/namespaces/inkscape"
   width="1000"
   height="544.56989"
   id="svg4726"
   version="1.1"
   inkscape:version="0.48.5 r10040"
   sodipodi:docname="New document 8">
  <defs
     id="defs4728" />
  <sodipodi:namedview
     id="base"
     pagecolor="#ffffff"
     bordercolor="#666666"
     borderopacity="1.0"
     inkscape:pageopacity="0.0"
     inkscape:pageshadow="2"
     inkscape:zoom="0.43339844"
     inkscape:cx="495.71891"
     inkscape:cy="308.87687"
     inkscape:document-units="px"
     inkscape:current-layer="layer1"
     showgrid="false"
     showguides="true"
     inkscape:guide-bbox="true"
     fit-margin-top="0"
     fit-margin-left="0"
     fit-margin-right="0"
     fit-margin-bottom="0"
     inkscape:window-width="835"
     inkscape:window-height="831"
     inkscape:window-x="1077"
     inkscape:window-y="124"
     inkscape:window-maximized="0" />
  <metadata
     id="metadata4731">
    <rdf:RDF>
      <cc:Work
         rdf:about="">
        <dc:format>image/svg+xml</dc:format>
        <dc:type
           rdf:resource="http://purl.org/dc/dcmitype/StillImage" />
        <dc:title></dc:title>
      </cc:Work>
    </rdf:RDF>
  </metadata>
  <g
     inkscape:label="Layer 1"
     inkscape:groupmode="layer"
     id="layer1"
     transform="translate(322.85714,-331.50581)">
    <path
       d="m 452.72651,654.47017 c -28.27659,0 -48.71506,-21.31727 -48.71506,-51.32559 0,-29.58188 20.43847,-51.32565 48.27565,-51.32565 28.27659,0 48.72158,21.74377 48.72158,51.32565 0,30.00832 -20.44499,51.32559 -48.28217,51.32559 z m 14.35151,-72.64286 c 0,-10.86869 -6.08697,-18.70029 -14.35151,-18.70029 -8.6975,0 -14.79091,7.8316 -14.79091,18.70029 l 0,42.62809 c 0,11.30803 6.09341,19.13969 14.79091,19.13969 8.26454,0 14.35151,-7.83166 14.35151,-19.13969 l 0,-42.62809 z m -77.01752,43.6943 c -3.48289,17.83439 -7.52146,25.74356 -30.28619,30.79664 -9.59566,2.13241 -20.25107,2.13241 -27.72084,-1.0662 0,0 0.36178,14.31924 0.58827,25.07803 0.19361,8.6975 2.61053,10.43574 14.79091,10.43574 l 0,12.18038 -59.15725,0 0,-12.18038 c 11.31448,-0.87235 13.48568,-2.61053 13.48568,-11.74097 l 0,-98.30253 c 0,-11.30803 -3.04348,-13.91856 -14.35157,-14.35796 l 0,-10.43574 c 30.00837,-0.87235 33.49126,-1.3053 45.23223,-3.04348 l 0.43934,7.39226 c 9.13044,-6.08696 13.47916,-7.83166 22.18317,-7.83166 21.74377,0 37.40703,18.27379 37.40703,43.50044 0,2.61053 -0.43934,5.22113 -0.43934,8.26461 l -2.17119,21.31082 z m -27.89533,-42.62816 c 0,-10.86862 -6.08696,-18.70028 -14.78446,-18.70028 -8.69749,0 -14.35151,7.83166 -14.35151,18.70028 l 0,42.62816 c 0,11.30803 5.65402,19.13969 14.35151,19.13969 8.6975,0 14.78446,-7.83166 14.78446,-19.13969 l 0,-42.62816"
       style="fill:#000000;fill-opacity:1;fill-rule:nonzero;stroke:none"
       id="path4365"
       inkscape:connector-curvature="0" />
    <path
       d="m 520.87203,459.81665 c 1.73825,3.04348 2.1712,4.34878 2.1712,6.95931 0,4.78166 -1.73825,9.56985 -5.65408,13.91856 l -40.88346,46.53747 c -10.00273,11.31455 -15.67616,17.82149 -16.96204,19.13969 C 364.11018,643.84709 288.5982,708.95559 288.5982,708.95559 l -7.99312,-8.79442 c 0,0 135.98091,-128.86653 166.7582,-162.48698 22.33178,-24.39954 29.57536,-37.40703 45.23217,-68.7271 2.17765,4.78818 4.35523,6.52637 7.83166,6.52637 4.34872,0 8.26455,-3.91584 8.26455,-8.26455 0,-5.65408 -2.61054,-7.82521 -9.56985,-7.82521 l -0.43313,0 c 3.91583,-3.91583 6.08696,-5.22106 10.00279,-5.22106 1.73825,0 3.04348,0.43313 5.65401,1.30523 20.44499,-31.75295 32.61892,-63.93891 32.61892,-84.81678 0,-16.09621 -11.30803,-26.97135 -29.13603,-26.97135 -53.50324,0 -163.24944,60.98597 -267.93616,147.88992 -116.42125,96.64185 -135.61261,123.82635 -192.391953,188.72815 -4.20013,4.80103 -3.81243,-15.61808 -3.81243,-15.61808 C 128.85728,571.92145 212.6338,498.65172 311.22059,425.48544 c 27.97289,-20.76804 53.13495,-34.7965 76.98525,-48.3145 55.24142,-31.31362 95.25898,-45.66513 128.31729,-45.66513 25.22665,0 40.01111,13.91863 40.01111,37.83998 0,23.48841 -12.17392,55.24142 -35.66239,90.47086"
       style="fill:#ecab10;fill-opacity:1;fill-rule:nonzero;stroke:none"
       id="path4367"
       inkscape:connector-curvature="0" />
    <path
       d="m 203.01245,587.32625 c -7.83166,0 -13.91862,-6.09341 -13.91862,-13.91862 0,-2.61053 0.43313,-5.65401 1.30529,-9.1369 -8.26454,5.22107 -10.00279,9.56985 -10.00279,24.36076 l 0,40.01756 c 0,7.82521 2.17113,10.00279 12.17393,10.43574 l 0,12.18038 -55.24142,0 0,-12.18038 c 10.44219,-1.3053 11.74742,-3.04348 11.74742,-11.74098 l 0,-47.84922 c 0,-11.30803 -2.61053,-14.35151 -13.91856,-14.35151 l 0,-10.44219 c 29.57537,-0.8659 33.4912,-1.29878 45.23863,-3.04348 l -0.43934,6.09341 c 8.26461,-5.22106 12.18038,-6.52636 19.57264,-6.52636 11.74743,0 19.57264,7.83166 19.57264,19.13969 0,9.56984 -6.95932,16.9621 -16.08976,16.9621 z M 97.317707,540.34938 c -9.56984,0 -17.83441,-8.26461 -17.83441,-17.83445 0,-9.56985 7.82517,-17.39499 17.83441,-17.39499 10.002783,0 18.267353,7.82514 18.267353,17.39499 0,9.56984 -8.26457,17.83445 -18.267353,17.83445 z m -26.09898,110.91579 0,-12.18038 c 10.43571,-1.3053 11.74099,-3.04348 11.74099,-11.74098 l 0,-47.84922 c 0,-11.30803 -3.04349,-14.35151 -14.35153,-14.35151 l 0,-10.44219 c 29.5754,-0.8659 33.491213,-1.29878 45.232203,-3.04348 l 0,76.99164 c 0,7.82521 2.61054,10.00279 12.18039,10.43574 l 0,12.18038 -54.802053,0 z M -115.38349,482.93677 c -109.60409,0 -207.47365,-20.87788 -207.47365,-44.36634 0,-16.09621 67.41537,-29.57537 148.75579,-29.57537 75.246997,0 130.055507,10.43568 130.055507,25.22665 0,11.30803 -36.9741,21.31082 -77.857547,21.31082 -29.58186,0 -51.75856,-5.22113 -51.75856,-12.18038 0,-1.30529 1.29881,-2.61059 3.47642,-3.04348 l 4.78169,-1.3053 c 3.48288,-0.86589 4.35521,-1.73818 4.35521,-3.04348 0,-1.30529 -1.74467,-2.61053 -4.35521,-2.61053 -11.30806,0 -22.17671,4.78812 -22.17671,10.00279 0,10.00273 30.44128,18.70674 64.80482,18.70674 35.235887,0 71.331187,-4.78818 94.819627,-13.48567 13.48565,-4.78818 20.0120201,-10.00279 20.0120201,-14.79091 0,-17.83445 -70.4653101,-30.44778 -171.3783571,-30.44778 -28.70306,0 -62.63368,2.17765 -79.16282,5.22113 -2.17115,0.43934 -5.21463,0.87235 -6.08696,0.87235 -2.17115,0 -3.48288,-1.3053 -3.48288,-3.04348 0,-7.83166 57.41906,-13.91862 129.18963,-13.91862 102.651257,0 178.764127,15.6568 178.764127,36.53468 0,4.78172 -6.08696,10.87513 -15.65681,15.6568 -15.6567999,7.39871 -36.10175,12.61332 -69.59297,18.70674 -28.27012,4.78173 -43.93339,6.51991 -73.075847,6.51991 -51.32563,0 -96.99723,-13.04627 -96.99723,-27.39778 0,-10.0028 23.0555,-16.52915 59.5902,-16.52915 35.66882,0 59.590187,4.78172 59.590187,11.74097 0,1.30529 -1.30527,3.04348 -4.348747,4.34878 -2.61054,0.87235 -3.47642,1.73818 -3.47642,3.48288 0,1.3053 1.29881,2.17113 3.90936,2.17113 l 0.439397,0 c 1.73821,0 3.04348,-0.43313 4.78169,-0.43313 10.87512,-1.73819 18.26735,-6.52637 18.26735,-11.30803 0,-9.56984 -39.578177,-17.39499 -87.427387,-17.39499 -56.54025,0 -94.38668,8.6975 -94.38668,22.17665 0,5.65408 6.52636,10.87514 20.01202,15.66332 32.18594,12.17393 73.94173,18.70023 116.56985,18.70023 95.691947,0 168.328407,-19.13963 170.938947,-44.79922 0.43295,-3.91583 1.30527,-4.78173 3.47642,-4.78173 2.17761,0 3.48288,1.73825 3.48288,5.21468 0,28.70952 -76.11934,52.19793 -171.378347,52.19793 z m 122.6632671,167.89545 0,-11.74743 c 8.2645699,-1.3053 9.5698499,-2.61053 9.5698499,-13.04627 l 0,-44.80568 c 0,-8.69756 -5.22109,-14.78452 -11.7474599,-14.78452 -10.43571,0 -16.5291401,10.00279 -16.5291401,28.27013 l 0,30.88066 c 0,11.31455 0.87234,12.18038 10.87512014,13.48568 l 0,12.18038 -55.67438014,0 0,-12.18038 c 10.43572,-0.8659 13.05272,-3.47643 13.05272,-13.48568 l 0,-115.25811 c -10.00924,0 -12.61978,2.1712 -16.0962,13.47922 l -42.188717,130.48843 -10.44218,0 -29.14246,-81.33397 -27.83719,81.33397 -11.74099,0 -54.37557,-129.61608 c -4.34875,-10.87514 -9.56984,-13.91862 -23.04904,-14.35157 l 0,-12.18038 69.59298,0 0,12.18038 c -6.9593,0.43314 -10.44218,3.04348 -10.44218,7.39226 0,1.30524 0.4394,2.61053 0.87234,3.91583 l 32.18594,84.37745 17.83441,-52.19155 -10.87511,-30.88712 c -1.30527,-3.90937 -2.61055,-6.08696 -3.04348,-7.39219 -1.73821,-3.47643 -6.08696,-4.78173 -13.48566,-5.21468 l 0,-12.18038 60.89547,0 0,12.18038 c -6.52637,0 -10.00278,2.1712 -10.00278,6.51991 0,0.43314 0.43294,2.17759 1.30527,4.78818 l 26.092517,77.85754 23.92783,-73.94822 c 1.30528,-3.47643 1.73821,-6.08696 1.73821,-7.3922 0,-4.78173 -3.04348,-6.95931 -10.43571,-7.82521 l 0,-12.18038 29.14246,0 c 10.43571,0 18.70029,-0.87234 41.31638,-3.91583 l 0,68.28776 c 10.0027801,-9.13044 15.2238701,-11.30809 27.83719,-11.30809 17.83441,0 30.44774,11.30809 30.44774,26.9649 l 0,47.40975 c 0,11.31455 1.74467,13.48568 12.61332,13.48568 l 0,11.74743 -52.1914999,0"
       style="fill:#000000;fill-opacity:1;fill-rule:nonzero;stroke:none"
       id="path4369"
       inkscape:connector-curvature="0" />
    <path
       d="m 616.24737,651.26517 0,-12.18038 c 12.61332,-0.43313 15.22385,-2.17113 15.22385,-11.74098 l 0,-103.08418 c 0,-11.31455 -2.61053,-13.91863 -14.79091,-13.91863 l -2.17113,0 0,-10.44213 14.78446,-0.87235 c 16.9621,-0.8659 21.31082,-0.8659 33.4912,-4.78173 l 0,134.40426 c 0,8.69756 2.61059,10.43574 14.35802,10.43574 l 0,12.18038 z m -53.93613,3.04348 c -28.27664,0 -48.71511,-21.31082 -48.71511,-51.32559 0,-29.57543 20.43847,-51.32565 48.28217,-51.32565 28.27013,0 48.71505,21.75022 48.71505,51.32565 0,30.01477 -20.44492,51.32559 -48.28211,51.32559 z m -341.44498,-3.04348 0,-12.18038 c 12.61333,-0.43313 15.22386,-2.17113 15.22386,-11.74098 l 0,-103.08418 c 0,-11.31455 -2.61053,-13.91863 -14.79097,-13.91863 l -2.17113,0 0,-10.44213 14.78445,-0.87235 c 16.96856,-0.8659 21.31734,-0.8659 33.49126,-4.78173 l 0,134.40426 c 0,8.69756 2.61054,10.43574 14.35797,10.43574 l 0,12.18038 z m 355.79649,-69.59299 c 0,-10.87508 -6.08696,-18.70674 -14.35151,-18.70674 -8.70401,0 -14.79097,7.83166 -14.79097,18.70674 l 0,42.62815 c 0,11.30803 6.08696,19.13324 14.79097,19.13324 8.26455,0 14.35151,-7.82521 14.35151,-19.13324 z"
       style="fill:#000000;fill-opacity:1;fill-rule:nonzero;stroke:none"
       id="path4373"
       inkscape:connector-curvature="0"
       sodipodi:nodetypes="ccsssccccscccsssssccsssccccscccsssssss" />
    <path
       d="m 1.0571171,876.07569 c -26.0925101,0 -42.1887201,-15.66326 -42.1887201,-41.75581 0,-40.45051 27.83719,-86.99443 94.81962,-169.64015 l 15.66327,1.7447 c -63.9389499,73.50882 -98.3025,132.65961 -98.3025,168.76135 0,17.83439 12.61332,28.27658 33.9241501,28.27658 51.7585599,0 176.2763829,-73.94816 282.8434529,-169.6337 l 7.98022,1.13726 0.54297,7.1209 C 194.5605,796.91285 60.647317,876.07569 1.0571171,876.07569"
       style="fill:#ecab10;fill-opacity:1;fill-rule:nonzero;stroke:none"
       id="path4377"
       inkscape:connector-curvature="0" />
  </g>
</svg>
