<?xml version="1.0" encoding="UTF-8" standalone="no"?>
<!-- Created with Inkscape (http://www.inkscape.org/) -->

<svg
   xmlns:dc="http://purl.org/dc/elements/1.1/"
   xmlns:cc="http://creativecommons.org/ns#"
   xmlns:rdf="http://www.w3.org/1999/02/22-rdf-syntax-ns#"
   xmlns:svg="http://www.w3.org/2000/svg"
   xmlns="http://www.w3.org/2000/svg"
   xmlns:sodipodi="http://sodipodi.sourceforge.net/DTD/sodipodi-0.dtd"
   xmlns:inkscape="http://www.inkscape.org/namespaces/inkscape"
   id="svg3792"
   version="1.1"
   inkscape:version="0.48.5 r10040"
   width="1000.0001"
   height="409.71088"
   xml:space="preserve"
   sodipodi:docname="WH_CAT_BI_UK_2016.pdf"><metadata
     id="metadata3798"><rdf:RDF><cc:Work
         rdf:about=""><dc:format>image/svg+xml</dc:format><dc:type
           rdf:resource="http://purl.org/dc/dcmitype/StillImage" /><dc:title></dc:title></cc:Work></rdf:RDF></metadata><defs
     id="defs3796"><clipPath
       clipPathUnits="userSpaceOnUse"
       id="clipPath3822"><path
         d="m 228.898,384.643 366.377,0 0,61.344 -366.377,0 0,-61.344 z"
         id="path3824"
         inkscape:connector-curvature="0" /></clipPath><clipPath
       clipPathUnits="userSpaceOnUse"
       id="clipPath3960"><path
         d="m 228.898,41.909 366.377,0 0,694.414 -366.377,0 0,-694.414 z"
         id="path3962"
         inkscape:connector-curvature="0" /></clipPath><clipPath
       clipPathUnits="userSpaceOnUse"
       id="clipPath3996"><path
         d="m 228.898,41.909 366.377,0 0,694.414 -366.377,0 0,-694.414 z"
         id="path3998"
         inkscape:connector-curvature="0" /></clipPath></defs><sodipodi:namedview
     pagecolor="#ffffff"
     bordercolor="#666666"
     borderopacity="1"
     objecttolerance="10"
     gridtolerance="10"
     guidetolerance="10"
     inkscape:pageopacity="0"
     inkscape:pageshadow="2"
     inkscape:window-width="1035"
     inkscape:window-height="1015"
     id="namedview3794"
     showgrid="false"
     fit-margin-top="0"
     fit-margin-left="0"
     fit-margin-right="0"
     fit-margin-bottom="0"
     inkscape:zoom="0.7165722"
     inkscape:cx="563.72822"
     inkscape:cy="109.09994"
     inkscape:window-x="883"
     inkscape:window-y="6"
     inkscape:window-maximized="0"
     inkscape:current-layer="g3800" /><g
     id="g3800"
     inkscape:groupmode="layer"
     inkscape:label="WH_CAT_BI_UK_2016"
     transform="matrix(1.25,0,0,-1.25,-304.0556,907.32151)"><g
       id="g3814"
       transform="matrix(7.2795623,0,0,7.2795623,452.40027,651.88156)"><path
         d="m 0,0 -5.461,-19.958 -3.174,0 -3.86,14.497 -3.917,-14.497 -3.174,0 L -25.047,0 -21.902,0 -18.013,-14.496 -14.096,0 -10.98,0 -7.034,-14.496 -3.145,0 0,0 z"
         style="fill:#000000;fill-opacity:1;fill-rule:nonzero;stroke:none"
         id="path3816"
         inkscape:connector-curvature="0" /></g><g
       id="g3826"
       transform="matrix(7.2795623,0,0,7.2795623,462.99858,651.46444)"><path
         d="m 0,0 3.145,0.257 0,-4.889 -0.057,-1.83 0.115,0 c 1.457,0.544 2.63,0.801 4.06,0.801 2.545,0 4.26,-1.144 4.26,-5.518 l 0,-8.721 -3.145,0 0,8.464 c 0,2.63 -1.287,2.973 -2.745,2.973 -0.915,0 -1.687,-0.201 -2.488,-0.429 L 3.145,-19.9 0,-19.9 0,0 z"
         style="fill:#000000;fill-opacity:1;fill-rule:nonzero;stroke:none"
         id="path3828"
         inkscape:connector-curvature="0" /></g><path
       d="m 566.85391,608.79674 22.89423,0 0,-102.19777 -22.89423,0 0,102.19777 z m 11.45075,41.20961 c 11.85841,0 13.73654,-6.86463 13.73654,-14.56641 0,-7.70178 -2.50417,-14.77751 -13.73654,-14.77751 -11.23964,0 -13.5327,7.07573 -13.5327,14.77751 0,7.70178 2.08195,14.56641 13.5327,14.56641"
       style="fill:#000000;fill-opacity:1;fill-rule:nonzero;stroke:none"
       id="path3830"
       inkscape:connector-curvature="0" /><g
       id="g3832"
       transform="matrix(7.2795623,0,0,7.2795623,609.09867,608.7982)"><path
         d="m 0,0 2.145,0 0.429,-1.144 0.201,0 C 3.603,-0.429 4.918,0.2 6.634,0.2 c 0.2,0 0.429,0 0.658,-0.029 l 0,-3.088 c -0.572,0.086 -1.172,0.172 -1.773,0.172 -0.858,0 -1.544,-0.2 -2.373,-0.572 l 0,-10.722 -3.146,0 L 0,0 z"
         style="fill:#000000;fill-opacity:1;fill-rule:nonzero;stroke:none"
         id="path3834"
         inkscape:connector-curvature="0" /></g><g
       id="g3836"
       transform="matrix(7.2795623,0,0,7.2795623,671.95623,506.59751)"><path
         d="M 0,0 0,19.9 3.145,20.158 3.145,0 0,0 z"
         style="fill:#000000;fill-opacity:1;fill-rule:nonzero;stroke:none"
         id="path3838"
         inkscape:connector-curvature="0" /></g><g
       id="g3840"
       transform="matrix(7.2795623,0,0,7.2795623,879.24905,557.18173)"><path
         d="m 0,0 c 0,2.658 -0.429,4.831 -2.945,4.831 -2.544,0 -3.174,-2.087 -3.174,-4.831 0,-2.545 0.515,-4.747 3.031,-4.747 C -0.572,-4.747 0,-2.66 0,0 m -2.974,7.29 c 4.461,0 6.177,-2.63 6.177,-7.29 0,-4.375 -1.602,-7.235 -6.234,-7.235 -4.632,0 -6.262,2.86 -6.262,7.235 0,4.66 1.859,7.29 6.319,7.29"
         style="fill:#000000;fill-opacity:1;fill-rule:nonzero;stroke:none"
         id="path3842"
         inkscape:connector-curvature="0" /></g><g
       id="g3844"
       transform="matrix(7.2795623,0,0,7.2795623,981.85885,557.18173)"><path
         d="M 0,0 C 0,2.658 -0.43,4.831 -2.945,4.831 -5.49,4.831 -6.119,2.744 -6.119,0 c 0,-2.545 0.515,-4.747 3.03,-4.747 C -0.572,-4.747 0,-2.66 0,0 m -2.974,7.29 c 4.46,0 6.176,-2.63 6.176,-7.29 0,-4.375 -1.602,-7.235 -6.234,-7.235 -4.631,0 -6.261,2.86 -6.261,7.235 0,4.66 1.858,7.29 6.319,7.29"
         style="fill:#000000;fill-opacity:1;fill-rule:nonzero;stroke:none"
         id="path3846"
         inkscape:connector-curvature="0" /></g><g
       id="g3848"
       transform="matrix(7.2795623,0,0,7.2795623,1020.3503,506.59751)"><path
         d="M 0,0 0,19.9 3.145,20.158 3.145,0 0,0 z"
         style="fill:#000000;fill-opacity:1;fill-rule:nonzero;stroke:none"
         id="path3850"
         inkscape:connector-curvature="0" /></g><g
       id="g3852"
       transform="matrix(7.2795623,0,0,7.2795623,863.15175,720.1442)"><path
         d="m 0,0 c -2.621,2.781 -12.421,-2.503 -22.419,-10.756 l 0,-1.073 c 9.792,8.173 19.009,12.984 21.134,10.729 1.081,-1.146 0.13,-4.73 -2.314,-8.889 -0.353,-0.163 -0.742,-0.494 -1.102,-1.013 -3.107,-4.467 -7.662,-9.892 -12.615,-14.563 -12.744,-12.016 -25.084,-19.31 -27.582,-16.661 -1.425,1.509 0.911,6.393 5.172,12.19 l -1.181,0 c -4.518,-6.161 -6.966,-11.478 -5.156,-13.398 3.147,-3.336 17.422,4.817 30.14,16.812 5.766,5.432 10.143,10.044 12.844,14.139 0.778,1.182 0.81,2.02 0.484,2.394 C 0.46,-5.34 1.557,-1.651 0,0"
         style="fill:#f0b600;fill-opacity:1;fill-rule:nonzero;stroke:none"
         id="path3854"
         inkscape:connector-curvature="0" /></g><g
       id="g3860"
       transform="matrix(7.2795623,0,0,7.2795623,736.26243,585.27793)"><path
         d="m 0,0 c 0.772,0.257 1.544,0.4 2.345,0.4 1.622,0 2.673,-0.467 3.047,-2.034 0.816,0.902 1.605,1.808 2.363,2.707 -0.88,1.624 -2.294,2.358 -3.981,2.358 -1.572,0 -3.173,-0.715 -4.117,-1.229 l -0.143,0 -0.257,1.029 -2.374,0 0,-13.222 c 0.998,0.884 2.002,1.799 3.01,2.746 C 0,-4.24 0,-2.778 0,0"
         style="fill:#000000;fill-opacity:1;fill-rule:nonzero;stroke:none"
         id="path3862"
         inkscape:connector-curvature="0" /></g><g
       id="g3864"
       transform="matrix(7.2795623,0,0,7.2795623,776.36408,554.49194)"><path
         d="m 0,0 c -0.217,-3.184 -1.435,-4.034 -3.193,-4.034 -0.354,0 -0.67,0.004 -0.975,0.011 -1.472,-1.383 -2.964,-2.714 -4.457,-3.981 l 0,-5.266 3.145,0.344 0,6.433 0.086,0 c 0.886,-0.172 1.858,-0.286 2.745,-0.286 3.66,0 5.861,2.43 5.861,7.348 0,0.943 -0.074,1.78 -0.213,2.521 C 2.065,2.091 1.066,1.062 0,0"
         style="fill:#000000;fill-opacity:1;fill-rule:nonzero;stroke:none"
         id="path3866"
         inkscape:connector-curvature="0" /></g><g
       id="g3868"
       transform="matrix(7.2795623,0,0,7.2795623,426.92471,678.68855)"><path
         d="M 0,0 C 0.142,0.13 0.245,0.252 0.27,0.448 0.294,0.644 0.176,0.785 -0.011,0.853 -0.357,0.982 -0.798,0.861 -1.104,0.755 -1.27,0.698 -1.442,0.644 -1.621,0.591 -1.98,0.487 -2.366,0.394 -2.772,0.312 -3.178,0.23 -3.602,0.161 -4.039,0.103 -4.477,0.046 -4.928,0.001 -5.381,-0.032 c -0.455,-0.032 -0.915,-0.052 -1.371,-0.059 -0.137,-0.003 -0.273,-0.003 -0.41,-0.003 -0.407,0 -0.81,0.005 -1.209,0.017 -0.567,0.017 -1.123,0.045 -1.659,0.085 -0.534,0.039 -1.049,0.09 -1.536,0.15 -0.486,0.06 -0.945,0.129 -1.37,0.208 -0.425,0.078 -0.815,0.164 -1.167,0.256 -0.328,0.086 -0.623,0.177 -0.881,0.273 -0.133,0.05 -0.264,0.081 -0.408,0.08 -0.126,-0.001 -0.297,-0.033 -0.365,-0.156 -0.07,-0.126 0.01,-0.269 0.094,-0.36 0.095,-0.104 0.208,-0.171 0.34,-0.224 0.063,-0.026 0.127,-0.051 0.193,-0.076 0.292,-0.111 0.608,-0.215 0.949,-0.311 0.346,-0.099 0.714,-0.19 1.102,-0.272 0.391,-0.083 0.803,-0.158 1.231,-0.224 0.432,-0.067 0.881,-0.123 1.34,-0.171 0.466,-0.047 0.943,-0.086 1.426,-0.112 0.489,-0.029 0.984,-0.046 1.48,-0.052 0.505,-0.006 1.011,-0.002 1.513,0.014 0.506,0.015 1.009,0.042 1.503,0.079 0.364,0.027 0.725,0.061 1.078,0.099 0.087,0.009 0.174,0.02 0.261,0.03 0,-0.183 0.235,-0.293 0.378,-0.338 0.183,-0.058 0.359,-0.073 0.549,-0.059 0.772,0.057 1.528,0.132 2.257,0.224 0.739,0.093 1.45,0.202 2.122,0.328 0.672,0.125 1.303,0.267 1.886,0.423 C 4.528,-0.028 5.06,0.142 5.533,0.323 6.006,0.504 6.418,0.697 6.765,0.899 7.111,1.1 7.39,1.311 7.594,1.527 7.801,1.744 7.932,1.966 7.987,2.191 8.043,2.416 8.022,2.643 7.922,2.869 7.821,3.095 7.644,3.32 7.389,3.541 7.133,3.761 6.801,3.977 6.395,4.186 5.99,4.395 5.509,4.595 4.963,4.783 4.415,4.972 3.801,5.149 3.125,5.313 2.451,5.476 1.717,5.626 0.933,5.756 0.149,5.888 -0.684,6.004 -1.554,6.1 c -0.87,0.096 -1.777,0.173 -2.709,0.23 -0.931,0.056 -1.888,0.092 -2.854,0.106 -0.965,0.014 -1.941,0.007 -2.911,-0.023 -0.97,-0.029 -1.935,-0.08 -2.879,-0.153 -0.944,-0.073 -1.869,-0.168 -2.757,-0.283 -0.889,-0.115 -1.743,-0.25 -2.548,-0.405 -0.805,-0.153 -1.56,-0.327 -2.256,-0.516 -0.693,-0.19 -1.326,-0.396 -1.885,-0.615 -0.56,-0.22 -1.047,-0.454 -1.452,-0.697 -0.405,-0.243 -0.729,-0.497 -0.964,-0.757 -0.236,-0.26 -0.383,-0.526 -0.438,-0.796 -0.056,-0.27 -0.019,-0.541 0.11,-0.811 0.13,-0.27 0.354,-0.539 0.669,-0.801 0.313,-0.262 0.72,-0.519 1.212,-0.766 0.493,-0.246 1.073,-0.483 1.732,-0.705 0.66,-0.223 1.397,-0.432 2.205,-0.624 0.807,-0.192 1.685,-0.367 2.619,-0.521 0.934,-0.154 1.926,-0.288 2.958,-0.4 1.032,-0.111 2.104,-0.199 3.213,-0.263 0.16,-0.01 0.319,-0.018 0.48,-0.027 0.151,-0.008 0.286,0.009 0.424,0.071 0.123,0.055 0.252,0.157 0.265,0.299 0.012,0.148 -0.108,0.258 -0.229,0.319 -0.134,0.068 -0.269,0.094 -0.418,0.103 -0.564,0.036 -1.121,0.079 -1.667,0.13 -0.703,0.066 -1.387,0.145 -2.047,0.235 -0.657,0.091 -1.29,0.194 -1.892,0.308 -0.594,0.113 -1.158,0.236 -1.686,0.37 -0.433,0.109 -0.841,0.225 -1.22,0.347 -1.034,0.331 -1.864,0.704 -2.445,1.103 -0.254,0.174 -0.46,0.352 -0.616,0.533 -0.156,0.18 -0.262,0.362 -0.319,0.545 -0.056,0.183 -0.064,0.365 -0.021,0.548 0.043,0.18 0.133,0.359 0.272,0.536 0.139,0.176 0.325,0.35 0.558,0.519 0.228,0.166 0.502,0.329 0.82,0.485 0.315,0.157 0.673,0.306 1.07,0.449 0.216,0.078 0.444,0.155 0.684,0.228 0.432,0.132 0.898,0.256 1.396,0.37 0.267,0.062 0.54,0.12 0.824,0.176 0.52,0.103 1.068,0.195 1.639,0.277 0.569,0.083 1.159,0.155 1.766,0.216 0.599,0.058 1.213,0.107 1.838,0.144 0.621,0.036 1.253,0.061 1.888,0.075 0.626,0.012 1.255,0.014 1.883,0.003 0.623,-0.009 1.243,-0.03 1.853,-0.064 C -4.784,5.566 -4.19,5.521 -3.61,5.467 -3.035,5.413 -2.474,5.348 -1.935,5.273 -1.399,5.199 -0.886,5.115 -0.397,5.023 0.566,4.839 1.428,4.621 2.157,4.374 2.87,4.133 3.453,3.865 3.879,3.582 4.297,3.304 4.564,3.011 4.666,2.714 4.767,2.424 4.71,2.129 4.495,1.843 4.285,1.562 3.924,1.29 3.422,1.036 2.932,0.789 2.308,0.559 1.572,0.358 1.092,0.226 0.565,0.106 0,0"
         style="fill:#000000;fill-opacity:1;fill-rule:nonzero;stroke:none"
         id="path3870"
         inkscape:connector-curvature="0" /></g><g
       id="g3872"
       transform="matrix(7.2795623,0,0,7.2795623,311.93092,697.07891)"><path
         d="m 0,0 c -0.155,-0.064 -0.306,-0.103 -0.477,-0.108 -0.137,-0.004 -0.357,0.02 -0.436,0.161 -0.083,0.148 0.047,0.315 0.145,0.41 0.118,0.112 0.251,0.194 0.4,0.264 2.061,0.962 4.883,1.292 7.112,1.292 l 0.245,0 C 7.803,2.013 8.615,1.976 9.391,1.91 c 0.748,-0.065 1.462,-0.157 2.112,-0.274 0.626,-0.113 1.192,-0.25 1.672,-0.405 0.463,-0.15 0.846,-0.316 1.131,-0.494 0.273,-0.171 0.456,-0.352 0.537,-0.536 0.032,-0.073 0.049,-0.146 0.049,-0.219 0,-0.105 -0.035,-0.21 -0.104,-0.313 -0.113,-0.168 -0.32,-0.332 -0.615,-0.484 C 13.892,-0.961 13.53,-1.096 13.098,-1.216 12.688,-1.33 12.213,-1.429 11.693,-1.509 11.197,-1.585 10.66,-1.643 10.1,-1.681 9.832,-1.698 9.56,-1.711 9.285,-1.72 9.069,-1.725 8.851,-1.729 8.633,-1.729 c -0.05,0 -0.099,0 -0.15,0.001 -0.246,10e-4 -0.491,0.008 -0.733,0.02 -0.236,0.011 -0.469,0.026 -0.696,0.046 -0.433,0.039 -0.847,0.094 -1.223,0.163 -0.353,0.066 -0.671,0.145 -0.941,0.235 -0.252,0.084 -0.459,0.177 -0.611,0.277 -0.143,0.093 -0.237,0.191 -0.276,0.291 -0.035,0.092 -0.024,0.185 0.038,0.276 0.058,0.083 0.158,0.165 0.301,0.24 0.129,0.068 0.294,0.132 0.49,0.188 0.177,0.049 0.378,0.093 0.601,0.127 0.197,0.03 0.41,0.053 0.631,0.067 0.15,0.009 0.304,0.015 0.459,0.015 0.154,0 0.308,-0.006 0.459,-0.015 C 7.203,0.188 7.415,0.165 7.612,0.135 7.834,0.101 8.036,0.057 8.213,0.008 8.409,-0.048 8.575,-0.112 8.704,-0.18 8.846,-0.255 8.946,-0.337 9.004,-0.42 9.067,-0.511 9.079,-0.604 9.042,-0.696 9.019,-0.755 8.978,-0.813 8.918,-0.869 c 0.069,0.003 0.135,0.008 0.202,0.014 0.022,0.002 0.044,0.004 0.064,0.006 0.14,0.014 0.279,0.032 0.414,0.054 0.136,0.024 0.268,0.052 0.392,0.084 0.126,0.032 0.244,0.069 0.353,0.11 0.108,0.041 0.205,0.087 0.29,0.136 0.085,0.049 0.156,0.102 0.211,0.159 0.056,0.055 0.094,0.114 0.117,0.175 0.02,0.06 0.023,0.123 0.005,0.187 -0.017,0.063 -0.054,0.128 -0.113,0.193 -0.058,0.064 -0.137,0.129 -0.238,0.192 -0.1,0.062 -0.221,0.123 -0.364,0.182 C 10.109,0.681 9.947,0.736 9.765,0.787 9.584,0.839 9.384,0.886 9.167,0.928 8.95,0.97 8.716,1.007 8.469,1.038 8.221,1.067 7.961,1.092 7.69,1.108 7.42,1.125 7.139,1.135 6.854,1.136 6.822,1.137 6.79,1.137 6.757,1.137 4.609,1.137 2.011,0.834 0,0"
         style="fill:#000000;fill-opacity:1;fill-rule:nonzero;stroke:none"
         id="path3874"
         inkscape:connector-curvature="0" /></g></g></svg>